<?xml version="1.0" encoding="UTF-8" standalone="no"?>
<svg
   version="1.1"
   width="1.6855583in"
   height="1.6806875in"
   viewBox="0 0 121.3602 121.0095"
   id="svg15"
   sodipodi:docname="15novembro-rs.cdr"
   xmlns:inkscape="http://www.inkscape.org/namespaces/inkscape"
   xmlns:sodipodi="http://sodipodi.sourceforge.net/DTD/sodipodi-0.dtd"
   xmlns="http://www.w3.org/2000/svg"
   xmlns:svg="http://www.w3.org/2000/svg">
  <defs
     id="defs15" />
  <sodipodi:namedview
     id="namedview15"
     pagecolor="#ffffff"
     bordercolor="#000000"
     borderopacity="0.25"
     inkscape:showpageshadow="2"
     inkscape:pageopacity="0.0"
     inkscape:pagecheckerboard="0"
     inkscape:deskcolor="#d1d1d1"
     inkscape:document-units="in" />
  <g
     id="Layer1003"
     transform="matrix(1,0,0,0.93140767,-47.319901,-40.087133)">
    <path
       d="M 168.6783,140.5147 V 75.4782 L 107.9978,43.0393 47.3199,75.4812 v 65.036 l 60.6805,32.4432 z"
       style="fill:#ffe500;fill-rule:evenodd"
       id="path10" />
    <path
       d="m 101.8443,77.134 v 61.2817 H 91.8184 l 0.0045,-46.0784 -4.1725,0.0044 v -8.0826 c 3.8301,-0.9294 4.168,-3.4077 5.0693,-7.1251 z"
       style="fill:#e41e15;fill-rule:evenodd"
       id="path11" />
    <path
       d="m 127.4862,77.134 v 8.8994 h -12.504 v 13.0991 c 1.5769,-2.7987 3.5852,-3.2985 6.0266,-3.2985 2.7706,0 4.8633,1.1793 6.275,3.5379 1.4117,2.3586 2.1174,4.1874 2.1174,10.8934 v 8.7375 c 0,4.3371 -0.1337,7.5211 -0.3977,9.5505 -0.2657,2.0313 -0.8465,3.9095 -1.7442,5.6361 -0.8977,1.7285 -2.1353,3.0522 -3.714,3.9727 -1.5808,0.9188 -3.5203,1.3801 -5.8192,1.3801 -2.5522,0 -4.8088,-0.6901 -6.7678,-2.0649 -1.959,-1.3762 -3.3547,-3.4304 -4.1891,-6.1586 -0.8343,-2.7283 -1.2498,-6.9491 -1.2498,-12.6608 v -6.0392 h 10.026 v 6.5249 c 0,3.9604 0.0861,6.7731 0.2604,8.4383 0.1725,1.665 0.7798,2.4975 1.8218,2.4975 0.4964,0 0.8925,-0.2376 1.1898,-0.7164 0.2975,-0.4769 0.4595,-0.9926 0.484,-1.5454 0.0248,-0.5525 0.0493,-2.9535 0.074,-7.2026 v -12.1027 c 0,-2.2864 -0.1548,-2.0418 -0.4648,-2.8726 -0.3096,-0.8289 -0.813,-1.2444 -1.5066,-1.2444 -0.4716,0 -0.8553,0.213 -1.1529,0.6389 -0.2975,0.426 -0.4892,0.8819 -0.5755,1.3695 -0.0881,0.4893 -0.1302,0.7199 -0.1302,2.4976 h -9.9132 l -0.003,-31.7673 z"
       style="fill:#e41e15;fill-rule:evenodd"
       id="path12" />
    <g
       id="Layer1004">
      <path
         d="m 107.9996,61.4343 40.9325,21.8813 V 64.9216 L 107.9996,43.0402 47.3216,75.4816 v 65.0375 l 58.9882,31.5376 V 153.662 L 63.5433,130.7967 V 85.2034 Z"
         style="fill:#008643;fill-rule:evenodd"
         id="path13" />
      <path
         d="m 152.3115,66.7284 v 82.5403 l 16.3686,-8.7532 v -65.037 z"
         style="fill:#008643;fill-rule:evenodd"
         id="path14" />
    </g>
    <path
       d="m 148.9321,132.6801 -39.2427,20.9837 v 18.3954 l 39.2427,-20.9836 z"
       style="fill:#e41e15;fill-rule:evenodd"
       id="path15" />
  </g>
</svg>
