<?xml version="1.0" encoding="UTF-8" standalone="no"?>
<svg
   version="1.1"
   width="1.8826152in"
   height="1.880525in"
   viewBox="0 0 135.5483 135.3978"
   id="svg35"
   sodipodi:docname="se_nova_andradina_ms.cdr"
   xmlns:inkscape="http://www.inkscape.org/namespaces/inkscape"
   xmlns:sodipodi="http://sodipodi.sourceforge.net/DTD/sodipodi-0.dtd"
   xmlns="http://www.w3.org/2000/svg"
   xmlns:svg="http://www.w3.org/2000/svg">
  <defs
     id="defs35" />
  <sodipodi:namedview
     id="namedview35"
     pagecolor="#ffffff"
     bordercolor="#000000"
     borderopacity="0.25"
     inkscape:showpageshadow="2"
     inkscape:pageopacity="0.0"
     inkscape:pagecheckerboard="0"
     inkscape:deskcolor="#d1d1d1"
     inkscape:document-units="in" />
  <g
     id="Layer1003"
     transform="matrix(1,0,0,1.0357071,-40.225899,-44.157475)">
    <path
       d="m 108.0001,52.7508 c -13.1146,0 -26.7015,-3.5701 -37.5284,-10.1157 L 49.8485,62.9622 c 4.1662,4.2538 7.5163,10.4292 7.5112,16.7411 -0.0033,4.0269 -0.7668,7.7775 -3.0103,11.7273 l -9.2824,16.3416 c -3.5374,6.2278 -4.8408,11.1284 -4.8411,17.5638 -7e-4,13.347 12.1436,26.2782 28.7539,31.1668 l 22.2836,6.5576 c 6.4983,1.912 13.2727,5.9864 16.7367,10.3045 3.4642,-4.3181 10.2384,-8.3925 16.7368,-10.3045 l 22.2834,-6.5576 c 16.6105,-4.8886 28.7549,-17.8198 28.7539,-31.1668 0,-6.4354 -1.3038,-11.336 -4.8409,-17.5638 L 161.651,91.4306 c -2.2439,-3.9498 -3.0072,-7.7004 -3.0106,-11.7273 -0.005,-6.3119 3.345,-12.4873 7.5112,-16.7411 L 145.5288,42.6351 c -10.8272,6.5456 -24.4143,10.1157 -37.5287,10.1157 z"
       style="fill:#1b1918;fill-rule:evenodd"
       id="path10" />
    <path
       d="m 63.8297,126.58 c 2.4987,3.7444 6.2613,3.412 9.5783,0.9353 2.8894,-2.1578 4.8953,-5.6894 2.6917,-9.1153 -1.019,-1.5844 -3.0367,-2.6134 -5.3349,-1.7845 -0.9045,0.3264 -4.6844,1.849 -4.9495,1.9524 -1.2305,0.4751 -2.3081,0.3924 -2.9967,-0.6783 -0.9917,-1.5414 0.2048,-3.1004 1.3851,-3.9819 1.7498,-1.3066 3.4797,-1.521 4.8688,0.3579 l 2.5435,-1.8996 c -2.0519,-3.19 -5.6835,-2.9822 -8.7156,-0.7184 -2.6249,1.9604 -4.3881,5.4008 -2.4187,8.4623 1.0191,1.5849 2.7708,2.622 5.7078,1.4748 2.3661,-0.9111 3.8678,-1.6201 5.1469,-1.9732 0.7415,-0.2051 1.6552,-0.1901 2.4126,0.9876 0.7437,1.1562 0.6531,2.9355 -1.5854,4.6068 -2.0349,1.5198 -4.2752,1.8301 -5.7904,-0.5256 z"
       style="fill:#ffffff;fill-rule:evenodd"
       id="path11" />
    <path
       d="m 81.0261,121.2822 2.8284,-2.1122 -1.8593,-2.8902 -2.8282,2.1121 z"
       style="fill:#ffffff;fill-rule:evenodd"
       id="path12" />
    <path
       d="m 90.6723,114.0793 10.6015,-7.9167 -1.4873,-2.3123 -8.0581,6.0171 -2.8784,-4.475 7.3257,-5.4703 -1.4049,-2.1839 -7.3256,5.4704 -2.5752,-4.0039 7.9156,-5.9111 -1.4875,-2.3123 -10.4592,7.8102 z"
       style="fill:#ffffff;fill-rule:evenodd"
       id="path13" />
    <path
       d="m 103.3495,104.6127 2.8284,-2.1122 -1.8592,-2.8905 -2.8286,2.1122 z"
       style="fill:#ffffff;fill-rule:evenodd"
       id="path14" />
    <path
       d="m 112.8937,97.4856 2.4216,-1.8083 -7.2304,-11.2409 0.061,-0.0455 13.8439,6.3025 2.6861,-2.0057 -9.8335,-15.2878 -2.4219,1.8083 7.2447,11.2624 -0.0408,0.0302 -13.878,-6.3087 -2.686,2.0058 z"
       style="fill:#ffffff;fill-rule:evenodd"
       id="path15" />
    <path
       d="m 127.5449,86.5452 2.8286,-2.1122 -1.8593,-2.8906 -2.8286,2.1121 z"
       style="fill:#ffffff;fill-rule:evenodd"
       id="path16" />
    <path
       d="m 134.2408,62.8129 0.0608,-0.0454 6.4054,4.9473 -4.4358,3.3125 z m 1.258,17.7928 2.6284,-1.9628 -1.2399,-5.0647 5.7996,-4.3308 3.9662,3.0289 2.7268,-2.0363 -15.4293,-11.1089 -2.7063,2.0208 z"
       style="fill:#ffffff;fill-rule:evenodd"
       id="path17" />
    <path
       d="m 150.621,69.3132 2.8286,-2.1122 -1.8591,-2.8904 -2.8286,2.1121 z"
       style="fill:#ffffff;fill-rule:evenodd"
       id="path18" />
    <path
       d="m 108.0001,55.8141 c -12.8284,0 -25.9471,-3.2662 -37.0281,-9.371 L 54.0495,63.1229 c 3.7321,4.5533 6.3639,10.6354 6.3737,16.578 0.0072,4.5082 -0.9267,8.87 -3.4055,13.2344 l -9.2839,16.3446 c -2.1889,3.8535 -3.5834,7.2715 -4.1516,11.4445 l 95.6479,-71.4238 c -9.7215,4.2609 -20.5754,6.5135 -31.23,6.5135 z"
       style="fill:#ffffff;fill-rule:evenodd"
       id="path19" />
    <path
       d="m 55.3711,146.3303 c 2.2044,1.6782 4.6564,3.1847 7.312,4.4708 V 140.87 Z"
       style="fill:#ffffff;fill-rule:evenodd"
       id="path20" />
    <path
       d="m 72.7398,154.4156 10.3082,3.0335 c 0,-10.5954 0,-21.1903 0,-31.7862 l -10.3082,7.6973 z"
       style="fill:#ffffff;fill-rule:evenodd"
       id="path21" />
    <path
       d="m 93.6073,160.5878 c 3.7663,1.2695 7.5269,3.155 10.811,5.4756 v -56.3585 l -10.811,8.073 c 0,14.27 0,28.5397 0,42.8099 z"
       style="fill:#ffffff;fill-rule:evenodd"
       id="path22" />
    <path
       d="m 115.4803,163.6303 c 2.691,-1.479 5.5512,-2.6734 8.3803,-3.5059 l 2.9333,-0.8633 c 0,-22.0886 0,-44.1766 0,-66.2649 l -11.3136,8.4484 z"
       style="fill:#ffffff;fill-rule:evenodd"
       id="path23" />
    <path
       d="m 138.3593,155.858 7.7718,-2.2872 c 1.3862,-0.4079 2.7352,-0.8749 4.0446,-1.3924 v -76.642 l -11.8164,8.8239 c 0,23.8326 0,47.6647 0,71.4977 z"
       style="fill:#ffffff;fill-rule:evenodd"
       id="path24" />
    <path
       d="m 162.2438,145.0341 c 6.5114,-5.5222 10.4671,-12.6088 10.4664,-19.7279 -4e-4,-6.4726 -1.5081,-10.8576 -4.4439,-16.0263 l -6.0225,-10.6031 z"
       style="fill:#ffffff;fill-rule:evenodd"
       id="path25" />
    <path
       d="m 77.3679,57.0533 c 8.0146,0 14.5511,6.5366 14.5511,14.5512 0,8.0146 -6.5365,14.5511 -14.5511,14.5511 -8.0146,0 -14.5511,-6.5365 -14.5511,-14.5511 0,-8.0146 6.5365,-14.5512 14.5511,-14.5512 z"
       style="fill:#1b1918;fill-rule:evenodd"
       id="path26" />
    <path
       d="m 84.1038,73.2201 c 0.7299,-1.9098 1.1289,-3.9686 1.1289,-6.0936 0,-2.5558 -0.6049,-5.2772 -1.7138,-7.5679 -1.8472,-0.9488 -3.9382,-1.4842 -6.151,-1.4842 -1.0421,0 -2.0582,0.1188 -3.0334,0.3437 4.2056,4.118 7.1203,9.4271 8.351,15.1804 0.4814,-0.2015 0.9627,-0.3286 1.4183,-0.3784 z"
       style="fill:#ffffff;fill-rule:evenodd"
       id="path27" />
    <path
       d="m 80.2396,75.4022 c 0.3054,-0.3649 0.6699,-0.7116 1.0872,-1.0232 0.1379,-0.1029 0.2775,-0.1988 0.419,-0.2885 -1.1875,-5.8486 -4.1699,-11.2778 -8.5331,-15.3612 -2.7814,0.9024 -5.1737,2.6851 -6.8451,5.0156 3.2853,5.3074 8.1888,9.3754 13.872,11.6573 z"
       style="fill:#ffffff;fill-rule:evenodd"
       id="path28" />
    <path
       d="m 81.938,75.1971 c -1.4646,1.0936 -2.1788,2.6288 -1.59,3.4174 0.5887,0.7886 2.2635,0.5398 3.7283,-0.5539 1.4646,-1.0937 2.1787,-2.6288 1.5899,-3.4173 -0.589,-0.7887 -2.2637,-0.5398 -3.7282,0.5538 z"
       style="fill:#ffffff;fill-rule:evenodd"
       id="path29" />
    <path
       d="m 85.1856,73.2593 c 0.5405,0.1105 0.995,0.3661 1.2987,0.7729 0.0153,0.0207 0.0302,0.0417 0.0443,0.0628 1.668,-1.3418 3.0921,-2.9883 4.1595,-4.8695 -0.6492,-3.6319 -2.7569,-6.7698 -5.6908,-8.7837 0.8095,2.1124 1.2564,4.4238 1.2564,6.6847 0,2.133 -0.3757,4.2013 -1.0681,6.1328 z"
       style="fill:#ffffff;fill-rule:evenodd"
       id="path30" />
    <path
       d="m 80.9273,80.0169 c -2.0404,2.0634 -4.5734,3.6515 -7.4294,4.5501 1.227,0.3684 2.5257,0.5676 3.87,0.5676 1.6102,0 3.156,-0.285 4.5905,-0.8053 0.184,-1.3764 0.3485,-2.9375 0.3622,-4.3566 -0.4947,0.1006 -0.9683,0.1156 -1.3933,0.0442 z"
       style="fill:#ffffff;fill-rule:evenodd"
       id="path31" />
    <path
       d="m 79.1749,77.6028 c 0.0616,-0.4334 0.2211,-0.888 0.4688,-1.3366 C 73.9836,73.9216 69.0428,69.8487 65.76,64.6691 c -1.2195,2.0304 -1.9222,4.4032 -1.9222,6.9354 0,0.6145 0.0425,1.2189 0.1224,1.812 3.1415,2.8579 7.3827,4.5619 11.6878,4.5619 1.1933,0 2.3754,-0.1295 3.5269,-0.3756 z"
       style="fill:#ffffff;fill-rule:evenodd"
       id="path32" />
    <path
       d="m 90.8741,70.7975 c -1.0995,1.6418 -2.4627,3.0892 -4.0128,4.2942 0.0429,0.6217 -0.1528,1.3228 -0.5511,2.0039 1.074,0.1746 2.1636,0.2885 3.2634,0.3385 0.8485,-1.7668 1.3243,-3.7444 1.3243,-5.8296 0,-0.2709 -0.0079,-0.5399 -0.0238,-0.807 z"
       style="fill:#ffffff;fill-rule:evenodd"
       id="path33" />
    <path
       d="m 84.6872,78.8788 c -0.4343,0.3242 -0.8898,0.5826 -1.3447,0.7741 2e-4,0.0426 6e-4,0.0857 6e-4,0.1286 0,1.2734 -0.083,2.7931 -0.2479,4.0756 2.4821,-1.1666 4.5566,-3.0658 5.9407,-5.4166 -1.1485,-0.0659 -2.29,-0.2043 -3.4163,-0.409 -0.2715,0.3006 -0.5832,0.5865 -0.9324,0.8473 z"
       style="fill:#ffffff;fill-rule:evenodd"
       id="path34" />
    <path
       d="m 79.5298,79.2257 c -0.1348,-0.1805 -0.2321,-0.3814 -0.2951,-0.5965 -1.1717,0.2427 -2.3732,0.3703 -3.5867,0.3703 -4.0784,0 -8.2191,-1.4405 -11.368,-3.9678 1.0464,3.9813 3.8688,7.2561 7.5633,8.9189 3.0881,-0.7004 5.846,-2.2487 8.0437,-4.365 -0.1343,-0.1031 -0.2545,-0.2224 -0.3572,-0.3599 z"
       style="fill:#ffffff;fill-rule:evenodd"
       id="path35" />
  </g>
</svg>
