<?xml version="1.0" encoding="UTF-8" standalone="no"?>
<svg
   version="1.1"
   width="1.2813666in"
   height="1.2711009in"
   viewBox="0 0 92.258394 91.519263"
   id="svg16"
   sodipodi:docname="volta_redonda.cdr"
   xmlns:inkscape="http://www.inkscape.org/namespaces/inkscape"
   xmlns:sodipodi="http://sodipodi.sourceforge.net/DTD/sodipodi-0.dtd"
   xmlns="http://www.w3.org/2000/svg"
   xmlns:svg="http://www.w3.org/2000/svg">
  <defs
     id="defs16" />
  <sodipodi:namedview
     id="namedview16"
     pagecolor="#ffffff"
     bordercolor="#000000"
     borderopacity="0.25"
     inkscape:showpageshadow="2"
     inkscape:pageopacity="0.0"
     inkscape:pagecheckerboard="0"
     inkscape:deskcolor="#d1d1d1"
     inkscape:document-units="in" />
  <g
     id="Layer1003"
     transform="matrix(1,0,0,0.77115351,-61.870705,-37.524873)">
    <g
       id="Layer1004">
      <path
         d="m 154.0186,122.981 0.1105,-74.3203 H 61.8707 v 74.3203 c 0.5026,11.8847 4.9382,22.179 13.5587,30.7159 4.7707,4.8542 10.2108,8.4529 16.0694,10.7129 4.7707,1.758 9.7924,2.7616 15.2325,2.9293 0.0834,0 0.1668,0 0.251,0 h 0.8369 c 0.0833,0 0.1675,0 0.1675,0 0.0834,0 0.0834,0 0.0834,0 h 0.7536 c 0.0834,0 0.1667,0 0.2509,0 5.4401,-0.1677 10.5451,-1.1713 15.2324,-2.9293 5.942,-2.26 11.2989,-5.8587 16.1529,-10.7129 8.5371,-8.5369 13.056,-18.8312 13.5587,-30.7159 z"
         style="fill:#1b1918;fill-rule:evenodd"
         id="path10" />
    </g>
    <g
       id="Layer1005">
      <path
         d="m 145.9001,56.4441 c -0.0842,-0.4185 -0.251,-0.837 -0.4186,-1.0879 -0.586,-1.2554 -1.3395,-2.0923 -2.1763,-2.7625 -1.339,-1.0037 -3.1804,-1.5897 -5.4402,-1.5897 -3.0127,0 -5.356,0.9211 -6.9466,2.6783 -0.4185,0.5019 -0.8369,1.0037 -1.1712,1.6739 -0.8369,1.5906 -1.3397,3.6829 -1.2555,6.1938 -0.0842,0.0833 -0.0842,0.25 0,0.4184 0,2.3425 0.502,4.2681 1.339,5.7744 0.9203,1.6739 2.0089,2.7617 3.3477,3.4319 0.7535,0.4186 1.6739,0.6687 2.6784,0.837 l 2.0082,0.1667 c 0.0842,0 0.0842,0 0.0842,0 0.0832,0 0.0832,0 0.0832,0 l 1.7582,-0.0833 c 0.9202,-0.1676 1.6738,-0.4185 2.3433,-0.7536 1.0878,-0.5852 2.0081,-1.3388 2.6784,-2.4274 0.5018,-0.5853 0.8368,-1.3388 1.0878,-2.0924 0.1676,-0.4185 0.2509,-0.7528 0.4185,-1.1712 0,-0.1676 0.0833,-0.3343 0.0833,-0.5027 l -5.0217,-1.7573 c -0.1674,1.3388 -0.586,2.26 -1.1712,3.0127 -0.586,0.6703 -1.4229,1.0053 -2.5107,1.0053 -1.0888,0 -2.0091,-0.4185 -2.5952,-1.2554 -0.5859,-0.8369 -0.8369,-2.1765 -0.9203,-4.1847 0,-0.1684 0,-0.3351 0,-0.5026 0,-1.8415 0.2509,-3.1803 0.8369,-4.0172 0.6695,-1.172 1.674,-1.6739 2.9295,-1.6739 0.586,0 1.0878,0.0833 1.5063,0.3351 0.5018,0.2501 0.8369,0.5852 1.2553,1.087 0.1676,0.3351 0.3351,0.7536 0.502,1.4238 l 5.0216,-1.172 c -0.0834,-0.4185 -0.1667,-0.7536 -0.3343,-1.0045 z"
         style="fill:#ffe78f;fill-rule:evenodd"
         id="path11" />
    </g>
    <g
       id="Layer1006">
      <path
         d="m 125.8968,55.7747 v -4.4365 h -14.144 V 71.76 h 5.6911 v -8.3695 h 7.1975 v -4.1013 h -7.1975 v -3.5145 z"
         style="fill:#ffe78f;fill-rule:evenodd"
         id="path12" />
    </g>
    <g
       id="Layer1007">
      <path
         d="m 150.1682,74.0199 h -4.0735 l -0.1112,48.6267 c -0.4186,9.8751 -4.1847,18.4129 -11.2147,25.5269 -7.1139,7.114 -15.6509,10.8803 -25.6108,11.2145 -0.0834,0 -0.0834,0 -0.0834,0 -0.0842,0 -0.0842,0 -0.1675,0 0,0 0,0 -0.0834,0 h -0.7536 c 0,0 0,0 -0.0834,0 h -0.0842 -0.0833 c 0,0 -0.2509,0 -0.6693,0 0,0 0,0 -0.0842,0 -0.0834,0 -0.0834,0 -0.1676,0 0,0 0,0 -0.0834,0 h -0.0834 c 0,0 0,0 -0.0841,0 -9.8758,-0.3342 -18.4128,-4.1005 -25.5268,-11.2145 -7.114,-7.114 -10.8803,-15.6518 -11.2146,-25.5269 V 74.0199 h -4.1847 l -0.0841,48.7936 c 0.5026,10.9636 4.6031,20.3384 12.4708,28.2893 7.9509,7.951 17.4915,12.1357 28.5394,12.4699 h 0.1675 c 0.0834,0 0.1676,0 0.1676,0 0.0834,0 0.0834,0 0.0834,0 h 0.7535 0.0833 0.0842 c 0.0834,0 0.0834,0 0.0834,0 h 0.7536 c 0.0834,0 0.1667,0 0.1667,0 0,0 0,0 0.0842,0 h 0.0834 c 11.1312,-0.3342 20.6727,-4.5189 28.6235,-12.4699 7.7834,-7.9509 11.9682,-17.3257 12.3867,-28.2893 z"
         style="fill:#ffe78f;fill-rule:evenodd"
         id="path13" />
    </g>
    <g
       id="Layer1008">
      <path
         d="m 107.3165,53.6823 c -0.5852,-0.8369 -1.3387,-1.5071 -2.259,-1.8415 -0.9212,-0.3342 -2.2599,-0.5026 -4.018,-0.5026 H 91.5822 V 71.76 h 5.6077 v -8.2861 h 0.586 c 0.5019,0 1.0045,0.1684 1.423,0.5027 0.2509,0.2508 0.5852,0.7527 1.0037,1.5897 l 3.0134,6.1937 h 6.4446 l -2.7625,-5.8586 c -0.1668,-0.3351 -0.4185,-0.7536 -0.837,-1.2554 -0.3343,-0.5852 -0.6694,-0.9204 -0.8369,-1.0879 -0.1667,-0.1676 -0.3343,-0.2509 -0.5018,-0.3343 -0.251,-0.1683 -0.5861,-0.3351 -1.0046,-0.4185 0.8371,-0.2516 1.5064,-0.5026 2.009,-0.8369 0.7528,-0.5026 1.3389,-1.172 1.8415,-2.009 0.2509,-0.6702 0.5018,-1.4229 0.5852,-2.2599 0,-0.2509 0,-0.4184 0,-0.6694 0,-0.586 -0.0834,-1.1721 -0.1668,-1.6739 -0.1675,-0.6702 -0.4184,-1.172 -0.6702,-1.6739 z m -10.1266,1.7573 h 2.5108 c 1.0879,0 1.8414,0.1675 2.1757,0.5019 0.4185,0.4184 0.5861,0.9211 0.5861,1.5071 0,0.2509 0,0.4184 -0.0834,0.6693 -0.0842,0.1676 -0.1676,0.3344 -0.251,0.5861 -0.2517,0.4185 -0.586,0.5852 -1.0044,0.5852 -0.7536,0.2517 -1.2554,0.3351 -1.423,0.3351 h -2.5108 z"
         style="fill:#ffe78f;fill-rule:evenodd"
         id="path14" />
    </g>
    <g
       id="Layer1009">
      <path
         d="M 89.3222,51.3382 H 83.5478 L 79.4465,66.0689 75.2618,51.3382 H 69.3199 L 76.2663,71.76 h 6.2771 z"
         style="fill:#ffe78f;fill-rule:evenodd"
         id="path15" />
    </g>
    <path
       d="m 139.5759,132.9812 -4.1837,-5.1724 c 0,0 0.3615,2.1139 0.4445,2.5993 -0.6067,-0.2363 -11.657,-4.5415 -11.657,-4.5415 0,0 -1.2864,2.3091 -1.439,2.5828 -0.3112,-0.1371 -10.5816,-4.6566 -10.829,-4.7654 0.001,-0.0167 0.003,-0.0379 0.003,-0.0379 0,-0.2672 -0.0397,-0.5453 -0.1069,-0.8484 0.2864,-0.1138 9.1641,-3.6441 9.5222,-3.7865 0.1202,0.3462 1.3033,3.7537 1.3033,3.7537 l 10.8114,-3.4673 -0.73,-2.0453 c 0,0 -8.2186,2.6214 -8.5633,2.7313 -0.1149,-0.3254 -1.4374,-4.0691 -1.4374,-4.0691 0,0 -11.2927,4.6452 -11.7951,4.8518 0.2431,-0.4759 5.2461,-10.2735 5.4388,-10.6507 0.3214,0.2275 2.8508,2.0178 2.8508,2.0178 l 5.7112,-10.0483 -1.8717,-1.1062 -0.0971,0.1745 c 0,0 -4.1607,7.4771 -4.3593,7.8342 -0.3142,-0.2165 -3.147,-2.1679 -3.147,-2.1679 0,0 -6.3825,12.7071 -6.5143,12.9696 -0.2788,-0.0652 -0.5341,-0.104 -0.7786,-0.104 -0.3124,0 -0.6394,0.0611 -0.9853,0.1644 -0.1383,-0.2753 -6.5446,-13.0292 -6.5446,-13.0292 0,0 -2.8324,1.9513 -3.1467,2.1678 -0.1986,-0.3569 -4.4568,-8.0086 -4.4568,-8.0086 l -1.8713,1.1064 5.7108,10.0473 c 0,0 2.5299,-1.7897 2.8514,-2.0172 0.1896,0.3716 5.045,9.8798 5.4383,10.6497 -0.8211,-0.3376 -11.7947,-4.8504 -11.7947,-4.8504 0,0 -1.3228,3.7436 -1.4378,4.0689 -0.3446,-0.1099 -8.5634,-2.7321 -8.5634,-2.7321 l -0.7294,2.0463 10.8112,3.4663 c 0,0 1.1828,-3.4074 1.3031,-3.7537 0.3586,0.1427 9.4574,3.7613 9.7379,3.8728 -0.0477,0.2457 -0.0761,0.4771 -0.0803,0.6954 -0.2272,0.1 -10.7563,4.7334 -11.0682,4.8707 -0.1524,-0.2738 -1.439,-2.5836 -1.439,-2.5836 0,0 -11.0501,4.3053 -11.6567,4.5416 0.083,-0.4854 0.4441,-2.5991 0.4441,-2.5991 l -4.1835,5.1722 6.2058,0.1368 c 0,0 -1.1605,-0.8443 -1.5167,-1.1033 0.636,-0.2266 9.0442,-3.2222 9.3358,-3.3261 0.1439,0.2618 1.585,2.8857 1.585,2.8857 0,0 12.5736,-5.71 12.8771,-5.8479 0.1439,0.2459 0.3024,0.4662 0.4754,0.6574 -0.1065,0.2177 -4.7466,9.6971 -4.8966,10.0033 -0.3126,-0.1197 -5.4826,-2.1007 -5.4826,-2.1007 0,0 -4.8828,9.1407 -5.2061,9.7457 -0.2241,-0.4245 -1.0738,-2.0341 -1.0738,-2.0341 l -0.1682,6.651 5.0057,-3.6713 c 0,0 -1.483,0.0385 -1.9143,0.0496 0.3149,-0.5471 4.2703,-7.4222 4.4276,-7.6957 0.297,0.121 5.4882,2.2381 5.4882,2.2381 0,0 5.6052,-11.7974 5.7342,-12.0689 0.2812,0.0665 0.5386,0.1062 0.7844,0.1062 0.1841,0 0.377,-0.0288 0.5695,-0.0602 0.1151,0.2422 5.712,12.022 5.712,12.022 0,0 5.1913,-2.117 5.4883,-2.2381 0.1573,0.2734 4.113,7.1485 4.4279,7.6958 -0.4312,-0.0111 -1.9141,-0.0496 -1.9141,-0.0496 l 5.0056,3.6721 -0.1688,-6.6522 c 0,0 -0.8492,1.6104 -1.0734,2.0352 -0.3233,-0.6054 -5.206,-9.7456 -5.206,-9.7456 0,0 -5.1699,1.9802 -5.4825,2.1 -0.1498,-0.3059 -4.7086,-9.6181 -4.8222,-9.8502 0.2254,-0.2186 0.4211,-0.4619 0.5872,-0.7262 0.2907,0.1321 12.6904,5.7643 12.6904,5.7643 0,0 1.4416,-2.6247 1.5854,-2.8866 0.2917,0.1039 8.6997,3.1004 9.3356,3.327 -0.3561,0.259 -1.5162,1.1033 -1.5162,1.1033 z"
       style="fill:#ffe78f;fill-rule:evenodd"
       id="path16" />
  </g>
</svg>
