<?xml version="1.0" encoding="UTF-8" standalone="no"?>
<svg
   version="1.1"
   width="1.5252486in"
   height="1.5256559in"
   viewBox="0 0 109.8179 109.84722"
   id="svg46"
   sodipodi:docname="ec_xv_de_novembro-sp.cdr"
   xmlns:inkscape="http://www.inkscape.org/namespaces/inkscape"
   xmlns:sodipodi="http://sodipodi.sourceforge.net/DTD/sodipodi-0.dtd"
   xmlns="http://www.w3.org/2000/svg"
   xmlns:svg="http://www.w3.org/2000/svg">
  <defs
     id="defs46" />
  <sodipodi:namedview
     id="namedview46"
     pagecolor="#ffffff"
     bordercolor="#000000"
     borderopacity="0.25"
     inkscape:showpageshadow="2"
     inkscape:pageopacity="0.0"
     inkscape:pagecheckerboard="0"
     inkscape:deskcolor="#d1d1d1"
     inkscape:document-units="in" />
  <g
     id="Layer1003"
     transform="matrix(1,0,0,0.79195536,-53.0909,-30.607572)">
    <path
       d="M 162.9088,65.9724 139.1861,40.4698 C 126.393,52.9609 117.8622,48.2767 107.9997,38.6481 98.1374,48.2767 89.608,52.9609 76.8131,40.4698 L 53.0909,65.9724 c 9.8624,14.5731 9.5957,19.5174 1.5995,39.8156 0,61.4147 40.9151,63.1064 53.3093,71.5639 12.3959,-8.4575 53.309,-10.1492 53.309,-71.5639 -7.995,-20.2982 -8.2623,-25.2425 1.6001,-39.8156 z"
       style="fill:#fec300;fill-rule:evenodd"
       id="path10" />
    <path
       d="m 158.2979,66.3653 c -2.9083,-3.1271 -15.7797,-16.9647 -19.3436,-20.7961 -13.037,10.8454 -22.7886,5.4718 -30.9546,-1.9259 -8.1652,7.3971 -17.9172,12.7705 -30.9541,1.9256 -3.5639,3.8314 -16.4358,17.6693 -19.3445,20.7964 4.4854,7.02 6.5338,12.2556 6.5338,18.0407 0,5.9074 -2.1254,12.4278 -5.8903,22.0356 0.2331,46.5347 24.8414,56.391 41.1577,62.9142 3.2239,1.2888 6.1002,2.4467 8.4974,3.752 2.3974,-1.3053 5.274,-2.4632 8.4974,-3.752 16.3164,-6.5232 40.9244,-16.3784 41.1583,-62.9148 -3.7652,-9.608 -5.8898,-16.1285 -5.8898,-22.0358 0,-5.785 2.0472,-11.0205 6.5323,-18.0399 z"
       style="fill:#006632;fill-rule:evenodd"
       id="path11" />
    <path
       d="m 156.6104,106.624 c -0.2969,45.6875 -24.4852,55.3631 -40.4996,61.7651 -2.9399,1.1751 -5.712,2.2952 -8.1116,3.5527 -2.4158,-1.2645 -5.2987,-2.4284 -8.1103,-3.5527 -16.0152,-6.4032 -40.203,-16.0785 -40.4993,-61.7646 3.8153,-9.7525 5.8861,-16.2071 5.8861,-22.2185 0,-5.5826 -1.8429,-10.828 -6.2742,-17.9102 0.8541,-0.9183 16.9748,-18.2491 18.1578,-19.5208 13.1472,10.3895 23.3224,4.672 30.8404,-1.9506 7.5186,6.6229 17.694,12.3406 30.8407,1.9509 1.169,1.2567 17.2505,18.5459 18.1573,19.5205 -4.4311,7.0814 -6.2729,12.3266 -6.2729,17.9094 0,6.0116 2.0705,12.4662 5.8856,22.2188 z"
       style="fill:#fec300;fill-rule:evenodd"
       id="path12" />
    <path
       d="m 66.0049,130.2052 72.1534,-78.286 c -13.66,8.8202 -24.609,2.3033 -30.1586,-2.125 -5.5758,4.449 -16.6004,11.0125 -30.3515,2.0042 -2.7232,2.928 -11.9673,12.8659 -14.1173,15.1771 3.7482,6.5147 5.3882,11.8479 5.3882,17.4305 0,6.4514 -2.0694,13.0771 -5.8716,22.8554 0.1073,9.0876 1.182,16.6312 2.9574,22.9438 z"
       style="fill:#006632;fill-rule:evenodd"
       id="path13" />
    <path
       d="M 150.4706,70.7578 77.018,150.4524 c 7.3837,7.816 16.4921,11.4625 24.2234,14.5537 2.0503,0.8192 4.49,1.8032 6.7518,2.8747 2.0132,-0.9556 4.212,-1.8542 6.7646,-2.8747 15.9228,-6.3655 37.691,-15.0844 38.1942,-57.7452 -3.8018,-9.7783 -5.8705,-16.404 -5.8705,-22.8557 0,-4.4646 1.0521,-8.7708 3.3891,-13.6474 z"
       style="fill:#006632;fill-rule:evenodd"
       id="path14" />
    <path
       d="m 75.6225,64.5087 h 4.977 v 2.5698 h -1.9844 v 2.4396 h 1.8543 v 2.4723 h -1.8543 v 2.8626 h 2.2121 v 2.5696 h -5.2047 z"
       style="fill:#fec300;fill-rule:evenodd"
       id="path15" />
    <path
       d="m 83.474,74.7879 v 2.6347 h -2.1795 v -2.6347 z"
       style="fill:#fec300;fill-rule:evenodd"
       id="path16" />
    <path
       d="m 91.2448,70.1036 h -2.9926 v -2.224 c 0,-0.6466 -0.0321,-1.0502 -0.0951,-1.2108 -0.0631,-0.1606 -0.2023,-0.2409 -0.4178,-0.2409 -0.2425,0 -0.3964,0.0986 -0.4621,0.2948 -0.0661,0.1966 -0.0985,0.6215 -0.0985,1.2747 v 5.9919 c 0,0.6272 0.0324,1.0364 0.0985,1.2274 0.0657,0.1912 0.2115,0.2868 0.4382,0.2868 0.2206,0 0.3655,-0.0966 0.434,-0.2897 0.0681,-0.1931 0.1028,-0.6471 0.1028,-1.3612 V 72.218 h 2.9926 v 0.5048 c 0,1.3408 -0.0839,2.2917 -0.2505,2.8529 -0.1668,0.561 -0.5378,1.0526 -1.1127,1.4744 -0.5753,0.4213 -1.2838,0.6328 -2.1265,0.6328 -0.8744,0 -1.5965,-0.1779 -2.1663,-0.5336 C 85.019,76.7935 84.643,76.3015 84.4599,75.6722 84.277,75.043 84.1861,74.0966 84.1861,72.833 v -3.7667 c 0,-0.9291 0.0273,-1.626 0.0832,-2.0905 0.0554,-0.4645 0.2237,-0.9118 0.5047,-1.3418 0.2807,-0.4301 0.6715,-0.7681 1.1726,-1.015 0.5007,-0.247 1.0745,-0.3706 1.7211,-0.3706 0.8793,0 1.6056,0.1902 2.1778,0.5698 0.5723,0.3802 0.9489,0.8534 1.1289,1.4206 0.1799,0.5672 0.2704,1.449 0.2704,2.6466 z"
       style="fill:#fec300;fill-rule:evenodd"
       id="path17" />
    <path
       d="m 94.1163,74.7879 v 2.6347 h -2.1795 v -2.6347 z"
       style="fill:#fec300;fill-rule:evenodd"
       id="path18" />
    <path
       d="m 121.6793,126.3138 c 0.1099,-1.3175 0.3183,-3.3963 0.6243,-6.2364 0.1737,2.4723 0.3374,4.5511 0.4931,6.2364 z m -1.856,-9.4984 -1.651,14.7356 h 3.3588 l 0.1768,-2.6349 h 1.1903 l 0.178,2.6349 h 3.3096 l -1.8621,-14.7356 z"
       style="fill:#fec300;fill-rule:evenodd"
       id="path19" />
    <path
       d="m 134.6869,116.8154 v 9.837 c 0,1.1151 -0.0305,1.8989 -0.0915,2.3502 -0.061,0.4513 -0.243,0.9149 -0.5468,1.3907 -0.305,0.4756 -0.7065,0.8365 -1.2057,1.0826 -0.4991,0.2448 -1.0867,0.3678 -1.7616,0.3678 -0.7492,0 -1.409,-0.1463 -1.9813,-0.436 -0.5722,-0.2908 -0.9993,-0.6699 -1.2828,-1.1364 -0.2827,-0.4668 -0.4505,-0.9598 -0.5022,-1.4781 -0.0518,-0.5186 -0.0772,-1.6071 -0.0772,-3.2682 v -8.7096 h 3.2529 v 11.0253 c 0,0.6415 0.0294,1.0521 0.0883,1.23 0.0581,0.179 0.18,0.2684 0.3652,0.2684 0.2092,0 0.3435,-0.0987 0.4023,-0.2948 0.058,-0.1972 0.0875,-0.6619 0.0875,-1.3948 v -10.8341 z m -1.041,-2.9275 -2.5373,2.4722 h -1.5614 l 1.3664,-2.4722 z"
       style="fill:#fec300;fill-rule:evenodd"
       id="path20" />
    <path
       d="m 88.2308,142.9057 h 2.3583 v 1.1955 h -0.9677 v 1.1386 h 0.862 v 1.1384 h -0.862 v 2.521 h -1.3906 z"
       style="fill:#fec300;fill-rule:evenodd"
       id="path21" />
    <path
       d="m 93.9447,142.9057 v 4.003 c 0,0.4545 -0.0132,0.7726 -0.0392,0.9567 -0.0258,0.184 -0.1043,0.372 -0.2353,0.5661 -0.1309,0.1933 -0.3027,0.3407 -0.515,0.4402 -0.2125,0.0996 -0.4634,0.1495 -0.7525,0.1495 -0.3213,0 -0.6045,-0.0591 -0.8488,-0.177 -0.2449,-0.1188 -0.4278,-0.2724 -0.5487,-0.4625 -0.1213,-0.19 -0.193,-0.3904 -0.215,-0.6018 -0.0225,-0.2105 -0.0334,-0.6536 -0.0334,-1.3297 v -3.5445 h 1.3906 v 4.489 c 0,0.2612 0.013,0.4289 0.0395,0.5011 0.0264,0.0733 0.0786,0.1089 0.1562,0.1089 0.0903,0 0.148,-0.0398 0.173,-0.1201 0.0252,-0.0803 0.0379,-0.2694 0.0379,-0.5672 v -4.4117 z"
       style="fill:#fec300;fill-rule:evenodd"
       id="path22" />
    <path
       d="m 97.446,142.9057 v 5.9935 h -1.2198 l -0.724,-2.7243 v 2.7243 h -1.1629 v -5.9935 h 1.1629 l 0.7808,2.6988 v -2.6988 z"
       style="fill:#fec300;fill-rule:evenodd"
       id="path23" />
    <path
       d="m 99.5637,143.9843 c 0.0551,0.0356 0.0901,0.0924 0.1048,0.1686 0.0147,0.0762 0.0224,0.2501 0.0224,0.5226 v 2.3287 c 0,0.4007 -0.0229,0.6455 -0.0683,0.7351 -0.0456,0.0905 -0.1693,0.135 -0.3708,0.135 v -3.944 c 0.1524,0 0.2565,0.0184 0.3119,0.054 z m -1.7025,4.9149 h 1.7559 c 0.3304,0 0.5782,-0.0203 0.7434,-0.061 0.1652,-0.0406 0.3037,-0.1118 0.4158,-0.2145 0.112,-0.1027 0.1911,-0.244 0.2365,-0.4259 0.0459,-0.1811 0.0687,-0.5409 0.0687,-1.0786 V 145.02 c 0,-0.568 -0.0155,-0.9485 -0.0463,-1.1424 -0.0307,-0.1932 -0.1076,-0.3692 -0.2309,-0.5278 -0.1233,-0.1576 -0.3035,-0.2713 -0.54,-0.3405 -0.2366,-0.0692 -0.69,-0.1036 -1.3605,-0.1036 h -1.0426 z"
       style="fill:#fec300;fill-rule:evenodd"
       id="path24" />
    <path
       d="m 102.6433,146.7603 c 0.0391,-0.5294 0.1267,-1.3702 0.2631,-2.5219 0.0724,1.0022 0.1423,1.844 0.2096,2.5219 z m -0.7961,-3.8546 -0.7055,5.9935 h 1.4334 l 0.0763,-1.0735 h 0.5039 l 0.0744,1.0735 h 1.4252 l -0.795,-5.9935 z"
       style="fill:#fec300;fill-rule:evenodd"
       id="path25" />
    <path
       d="m 106.4551,143.9843 c 0.0549,0.0356 0.09,0.0924 0.1048,0.1686 0.0147,0.0762 0.0222,0.2501 0.0222,0.5226 v 2.3287 c 0,0.4007 -0.0228,0.6455 -0.068,0.7351 -0.0458,0.0905 -0.1692,0.135 -0.371,0.135 v -3.944 c 0.1525,0 0.2567,0.0184 0.312,0.054 z m -1.7027,4.9149 h 1.756 c 0.3304,0 0.5785,-0.0203 0.7436,-0.061 0.1653,-0.0406 0.3035,-0.1118 0.4159,-0.2145 0.1118,-0.1027 0.1912,-0.244 0.2363,-0.4259 0.0458,-0.1811 0.0686,-0.5409 0.0686,-1.0786 V 145.02 c 0,-0.568 -0.0152,-0.9485 -0.0462,-1.1424 -0.0306,-0.1932 -0.1078,-0.3692 -0.2307,-0.5278 -0.1236,-0.1576 -0.3036,-0.2713 -0.5404,-0.3405 -0.2364,-0.0692 -0.6897,-0.1036 -1.3604,-0.1036 h -1.0427 z"
       style="fill:#fec300;fill-rule:evenodd"
       id="path26" />
    <path
       d="m 110.1396,147.1965 c 0,0.3517 -0.0138,0.5743 -0.0413,0.6677 -0.0273,0.0937 -0.0879,0.1405 -0.1824,0.1405 -0.0939,0 -0.1534,-0.0407 -0.1784,-0.1212 -0.0249,-0.0812 -0.0371,-0.2956 -0.0371,-0.6424 v -2.7913 c 0,-0.3071 0.0188,-0.492 0.0574,-0.555 0.0388,-0.063 0.0936,-0.0946 0.1658,-0.0946 0.0868,0 0.1442,0.0397 0.1727,0.117 0.0285,0.0773 0.0433,0.2552 0.0433,0.5326 z m 1.3907,-1.8054 c 0,-0.6171 -0.0131,-1.0481 -0.0396,-1.2942 -0.0254,-0.2468 -0.1089,-0.4745 -0.2479,-0.684 -0.1394,-0.2095 -0.3235,-0.3671 -0.5501,-0.4716 -0.2277,-0.1049 -0.4845,-0.1576 -0.7712,-0.1576 -0.3039,0 -0.5693,0.056 -0.7965,0.1667 -0.2277,0.1107 -0.4074,0.2704 -0.5413,0.4767 -0.133,0.2074 -0.2124,0.4361 -0.2373,0.6861 -0.0245,0.2501 -0.0366,0.676 -0.0366,1.2779 v 1.0236 c 0,0.616 0.0127,1.048 0.0386,1.2941 0.0261,0.2469 0.1086,0.4747 0.2484,0.684 0.1393,0.2095 0.3233,0.367 0.5521,0.4717 0.2283,0.1048 0.4858,0.1567 0.7726,0.1567 0.3013,0 0.5657,-0.055 0.7937,-0.1659 0.2266,-0.1106 0.4074,-0.2703 0.5407,-0.4767 0.1332,-0.2073 0.2123,-0.436 0.237,-0.6861 0.0243,-0.2501 0.0374,-0.676 0.0374,-1.2778 z"
       style="fill:#fec300;fill-rule:evenodd"
       id="path27" />
    <path
       d="m 114.9724,142.9057 v 5.9935 h -1.3339 v -3.2123 c 0,-0.4645 -0.0102,-0.7431 -0.0294,-0.8367 -0.0193,-0.0933 -0.0741,-0.1645 -0.1627,-0.2134 -0.0882,-0.0476 -0.2865,-0.0723 -0.5936,-0.0723 h -0.1332 v -0.6971 c 0.6466,-0.1557 1.1367,-0.4759 1.4721,-0.9617 z"
       style="fill:#fec300;fill-rule:evenodd"
       id="path28" />
    <path
       d="m 118.2608,142.9057 v 0.9596 h -1.6591 v 1.0205 c 0.2075,-0.2734 0.4748,-0.4106 0.8012,-0.4106 0.3678,0 0.6466,0.1158 0.8346,0.3467 0.1889,0.2297 0.2835,0.6728 0.2835,1.3285 v 0.8549 c 0,0.424 -0.0183,0.7351 -0.0548,0.9332 -0.0376,0.1991 -0.115,0.3821 -0.2338,0.5521 -0.1179,0.1686 -0.2838,0.2977 -0.4952,0.3883 -0.2124,0.0894 -0.4726,0.134 -0.7805,0.134 -0.3428,0 -0.6447,-0.0671 -0.9059,-0.2011 -0.2623,-0.1333 -0.4483,-0.3337 -0.559,-0.5998 -0.1107,-0.2654 -0.1667,-0.676 -0.1667,-1.2321 v -0.3254 h 1.3335 v 0.3732 c 0,0.3863 0.0124,0.6607 0.0378,0.8234 0.0244,0.1616 0.1086,0.243 0.2531,0.243 0.067,0 0.1209,-0.0234 0.1616,-0.0702 0.0407,-0.0467 0.0631,-0.0976 0.0649,-0.1514 0.003,-0.0551 0.006,-0.2907 0.0113,-0.7076 v -1.1893 c 0,-0.2247 -0.0204,-0.3772 -0.063,-0.4584 -0.0416,-0.0825 -0.1118,-0.1231 -0.2083,-0.1231 -0.0621,0 -0.1139,0.0214 -0.1567,0.0641 -0.0416,0.0416 -0.0691,0.0873 -0.0814,0.1352 -0.0131,0.0487 -0.0193,0.1615 -0.0193,0.3375 h -1.3174 l 0.0571,-3.0252 z"
       style="fill:#fec300;fill-rule:evenodd"
       id="path29" />
    <path
       d="m 121.9467,142.9057 v 5.9935 h -1.3337 v -3.2123 c 0,-0.4645 -0.0101,-0.7431 -0.0295,-0.8367 -0.0202,-0.0933 -0.0741,-0.1645 -0.1626,-0.2134 -0.0884,-0.0476 -0.2868,-0.0723 -0.5946,-0.0723 h -0.1322 v -0.6971 c 0.6455,-0.1557 1.1364,-0.4759 1.4719,-0.9617 z"
       style="fill:#fec300;fill-rule:evenodd"
       id="path30" />
    <path
       d="m 124.3814,142.9057 v 5.9935 h -1.3337 v -3.2123 c 0,-0.4645 -0.0103,-0.7431 -0.0296,-0.8367 -0.0203,-0.0933 -0.0741,-0.1645 -0.1626,-0.2134 -0.0885,-0.0476 -0.2867,-0.0723 -0.5936,-0.0723 h -0.1333 v -0.6971 c 0.6456,-0.1557 1.1365,-0.4759 1.4719,-0.9617 z"
       style="fill:#fec300;fill-rule:evenodd"
       id="path31" />
    <path
       d="m 128.6802,147.8743 v 1.0249 h -2.9276 l 0.002,-0.8538 c 0.8649,-1.5952 1.3794,-2.5821 1.5431,-2.9614 0.1636,-0.379 0.246,-0.6749 0.246,-0.8873 0,-0.1626 -0.0245,-0.2847 -0.0742,-0.3649 -0.0488,-0.0805 -0.124,-0.1211 -0.2238,-0.1211 -0.1005,0 -0.1757,0.0448 -0.2247,0.1342 -0.0487,0.0885 -0.073,0.2654 -0.073,0.5308 v 0.5712 h -1.1955 v -0.2186 c 0,-0.3355 0.0152,-0.5998 0.0458,-0.794 0.0304,-0.1939 0.1067,-0.3842 0.2266,-0.5722 0.121,-0.1871 0.2776,-0.3293 0.4718,-0.426 0.1932,-0.0955 0.4248,-0.1444 0.6953,-0.1444 0.5296,0 0.93,0.1475 1.2014,0.4423 0.2726,0.2947 0.4086,0.6679 0.4086,1.1192 0,0.3426 -0.0772,0.7054 -0.2308,1.0878 -0.1532,0.3821 -0.6027,1.1932 -1.3469,2.4333 z"
       style="fill:#fec300;fill-rule:evenodd"
       id="path32" />
    <path
       d="m 129.7211,146.8173 0.5896,-2.5495 v 2.5495 z m 0.1586,-3.9116 -1.1465,3.9116 v 1.0248 h 1.5775 v 1.0571 h 1.3337 v -1.0571 h 0.3824 v -1.0248 h -0.3824 v -3.9116 z"
       style="fill:#fec300;fill-rule:evenodd"
       id="path33" />
    <path
       d="m 114.3512,116.8154 v 11.4166 c 0,0.5592 -0.009,0.9363 -0.0255,1.1304 -0.0171,0.1941 0.0784,0.6556 -0.5133,0.6556 -0.5914,0 -0.4971,-0.4615 -0.5144,-0.6556 -0.0161,-0.1941 -0.0254,-0.5712 -0.0254,-1.1304 v -2.5037 h -3.0168 v 0.9352 c 0,1.4739 0.0133,2.4225 0.0387,2.8444 0.0255,0.4218 0.1369,0.8019 0.3343,1.1414 0.1961,0.3405 0.4603,0.5754 0.7918,0.7054 0.3314,0.1313 0.8285,0.1963 1.4912,0.1963 h 0.2928 1.2148 0.2927 c 0.6629,0 1.1598,-0.065 1.4913,-0.1963 0.3315,-0.13 0.5957,-0.3649 0.7918,-0.7054 0.1971,-0.3395 0.309,-0.7196 0.3345,-1.1414 0.0254,-0.4219 0.0386,-1.3705 0.0386,-2.8444 v -9.8481 z"
       style="fill:#fec300;fill-rule:evenodd"
       id="path34" />
    <g
       id="Layer1004">
      <path
         d="m 71.4845,130.9503 3.6501,4.9127 6.7228,3.8965 -1.984,2.1519 c -1.2323,-0.6648 -2.6662,-1.5594 -4.301,-2.6804 0.5874,0.6596 1.1873,1.3682 1.7995,2.1245 l 1.4433,1.7046 -2.0943,2.272 -4.7831,-6.0006 -5.2152,-3.2143 2.0722,-2.2484 c 0.3135,0.2011 0.8442,0.5428 1.5911,1.0245 0.5702,0.3681 1.1027,0.7106 1.5973,1.0299 l -2.2845,-3.0354 z"
         style="fill:#006632;fill-rule:evenodd"
         id="path35" />
      <path
         d="m 77.1925,124.7574 8.9125,10.3933 -3.2297,3.5038 -11.2384,-7.869 2.2489,-2.4397 c 3.0054,2.266 5.5291,4.2156 7.5703,5.8493 -1.8181,-1.9193 -3.4145,-3.6341 -4.7886,-5.1436 l -1.7237,-1.8544 z"
         style="fill:#006632;fill-rule:evenodd"
         id="path36" />
      <path
         d="m 83.7547,121.2718 c 0.1461,-0.0374 0.2936,-0.0112 0.4437,0.0814 0.1497,0.0925 0.4509,0.3455 0.9022,0.7624 l 3.8707,3.5669 c 0.6646,0.6132 1.0366,1.0268 1.1152,1.2412 0.0787,0.2156 -0.0387,0.493 -0.3525,0.8336 l -6.5537,-6.0412 c 0.2372,-0.2573 0.4291,-0.4055 0.5744,-0.4443 z m 5.5631,10.393 2.7051,-2.9356 c 0.5083,-0.5511 0.8565,-0.9963 1.0431,-1.3358 0.1859,-0.3386 0.2804,-0.6799 0.2821,-1.0248 0.0016,-0.3445 -0.1132,-0.6952 -0.3456,-1.05 -0.2325,-0.3557 -0.7971,-0.9464 -1.6949,-1.7737 l -3.5015,-3.2275 c -0.9468,-0.8721 -1.6055,-1.4312 -1.9763,-1.6784 -0.3709,-0.2459 -0.7828,-0.3881 -1.2359,-0.4248 -0.4536,-0.0367 -0.9202,0.0894 -1.3997,0.378 -0.4796,0.2898 -1.2361,0.9943 -2.2687,2.1144 l -1.6058,1.7425 z"
         style="fill:#006632;fill-rule:evenodd"
         id="path37" />
      <path
         d="m 85.0297,116.2542 3.5493,-3.8506 2.0092,1.8512 -1.4108,1.5311 1.8895,1.7422 1.3227,-1.4354 1.9137,1.7636 -1.3228,1.4344 2.1766,2.0066 1.5653,-1.6987 2.0092,1.8522 -3.7038,4.0182 z"
         style="fill:#006632;fill-rule:evenodd"
         id="path38" />
      <path
         d="m 95.8885,104.4725 9.9984,9.215 -1.8961,2.0577 -5.6475,-2.9938 4.5453,4.1889 -1.7857,1.9376 -9.9981,-9.2144 1.8076,-1.9614 5.6925,2.8574 -4.5019,-4.1495 z"
         style="fill:#006632;fill-rule:evenodd"
         id="path39" />
      <path
         d="m 106.6162,107.2066 c 0.5886,0.5427 0.9404,0.9087 1.0557,1.0967 0.1154,0.1895 0.1022,0.3604 -0.0396,0.5144 -0.1423,0.1545 -0.2999,0.1895 -0.4732,0.1046 -0.1728,-0.0847 -0.5494,-0.3943 -1.1304,-0.93 l -4.6676,-4.302 c -0.5141,-0.4736 -0.7947,-0.7904 -0.8418,-0.9499 -0.0472,-0.1596 -0.0171,-0.2985 0.0915,-0.4157 0.1309,-0.1424 0.2829,-0.1765 0.4557,-0.1038 0.1724,0.0732 0.4909,0.3233 0.9561,0.7523 z m -0.8817,-5.1036 c -1.0302,-0.9495 -1.7714,-1.5925 -2.2232,-1.9293 -0.4519,-0.3366 -0.9598,-0.5503 -1.5246,-0.641 -0.5645,-0.0902 -1.1083,-0.0275 -1.6323,0.1893 -0.5235,0.2167 -1.005,0.5635 -1.4445,1.0402 -0.4661,0.5057 -0.7801,1.0334 -0.9433,1.5823 -0.1634,0.5488 -0.1738,1.0937 -0.0323,1.6345 0.1413,0.5413 0.4026,1.0252 0.7827,1.4515 0.3808,0.4271 1.0737,1.1035 2.0792,2.0302 l 1.7125,1.5785 c 1.0302,0.9494 1.7713,1.593 2.2232,1.9295 0.4519,0.337 0.9598,0.5509 1.524,0.6409 0.5652,0.0904 1.11,0.0269 1.6356,-0.1927 0.5248,-0.2186 1.0074,-0.5661 1.447,-1.0428 0.4625,-0.5017 0.7746,-1.0268 0.9383,-1.5758 0.1629,-0.5489 0.173,-1.0942 0.032,-1.6355 -0.1414,-0.5408 -0.4022,-1.0241 -0.7827,-1.4511 -0.3808,-0.427 -1.0735,-1.1034 -2.0793,-2.0306 z"
         style="fill:#006632;fill-rule:evenodd"
         id="path40" />
      <path
         d="m 107.4315,91.9484 8.9121,10.393 -3.2294,3.5039 -11.2383,-7.8692 2.2486,-2.4399 c 3.0056,2.2663 5.529,4.2163 7.5706,5.8496 -1.8183,-1.9199 -3.4147,-3.6346 -4.7887,-5.1444 l -1.7237,-1.8533 z"
         style="fill:#006632;fill-rule:evenodd"
         id="path41" />
      <path
         d="m 107.7548,91.5984 3.5499,-3.8511 2.0086,1.8519 -1.4109,1.5309 1.8897,1.7416 1.3225,-1.4351 1.9141,1.7636 -1.3234,1.4352 2.1772,2.006 1.5647,-1.6984 2.0096,1.8519 -3.7032,4.0185 z"
         style="fill:#006632;fill-rule:evenodd"
         id="path42" />
      <path
         d="m 118.6288,79.8004 9.9985,9.2149 -1.8744,2.0331 -6.7611,-6.2092 5.9895,7.0464 -1.2787,1.3873 -7.3882,-5.2398 6.5953,6.1008 -1.8746,2.0333 -9.9977,-9.215 2.7498,-2.984 c 0.676,0.4757 1.47,1.035 2.3837,1.6779 l 2.8526,2.0092 -4.1668,-4.8472 z"
         style="fill:#006632;fill-rule:evenodd"
         id="path43" />
      <path
         d="m 123.8162,77.7386 c 0.1106,-0.0542 0.253,-0.0486 0.4258,0.0157 0.1738,0.0641 0.4168,0.2404 0.73,0.5289 0.5926,0.5469 0.9229,0.9099 0.99,1.0895 0.0661,0.1796 -0.005,0.3824 -0.2135,0.6086 -0.0529,0.0579 -0.123,0.138 -0.2094,0.2404 l -2.2241,-2.0501 c 0.2237,-0.2344 0.3914,-0.3789 0.5012,-0.433 z m 5.6355,10.3808 2.4774,-2.6874 c 0.8619,-0.9347 1.3723,-1.6085 1.5317,-2.0215 0.1597,-0.4124 0.1395,-0.8361 -0.0598,-1.2719 -0.2002,-0.4356 -0.6365,-0.9641 -1.3114,-1.5863 l -0.9262,-0.8533 c -0.6494,-0.5992 -1.2205,-0.9486 -1.7095,-1.0486 -0.4901,-0.0998 -1.0522,0.0587 -1.6875,0.4745 0.3202,-0.5948 0.4401,-1.081 0.3609,-1.4583 -0.0784,-0.3769 -0.4107,-0.8349 -0.9963,-1.3744 -0.865,-0.7974 -1.5999,-1.2594 -2.2028,-1.3859 -0.6037,-0.1264 -1.1426,-0.0603 -1.6174,0.1982 -0.4756,0.2589 -1.05,0.7543 -1.7239,1.4861 l -2.1328,2.314 z m -1.6131,-6.9651 c 0.1656,2e-4 0.4614,0.1963 0.8852,0.5876 l 0.925,0.8521 c 0.4008,0.369 0.6091,0.6461 0.6285,0.8304 0.0181,0.1848 -0.1181,0.4477 -0.4088,0.7878 l -2.7751,-2.5574 c 0.3314,-0.334 0.5794,-0.5009 0.7452,-0.5005 z"
         style="fill:#006632;fill-rule:evenodd"
         id="path44" />
      <path
         d="m 129.6876,71.5542 c 0.1932,-0.0104 0.4484,0.1304 0.7654,0.4224 l 0.549,0.5068 c 0.441,0.4063 0.6526,0.6995 0.6353,0.8797 -0.0171,0.1802 -0.1484,0.4034 -0.3943,0.6694 l -2.2244,-2.0504 c 0.2533,-0.2741 0.4758,-0.4167 0.669,-0.4279 z m 5.469,10.376 2.1376,-2.3202 -4.496,-4.1446 c 0.2988,-0.3244 0.548,-0.4661 0.7461,-0.426 0.1982,0.0405 0.5642,0.3068 1.0979,0.7987 l 3.3138,3.0542 1.9844,-2.1524 -2.6309,-2.4247 c -0.805,-0.7422 -1.3154,-1.1756 -1.5298,-1.3015 -0.2146,-0.1253 -0.5022,-0.2069 -0.862,-0.2456 -0.359,-0.0383 -0.8132,0.1124 -1.3621,0.4523 0.4127,-0.5559 0.5652,-1.044 0.4563,-1.4644 -0.1088,-0.4202 -0.553,-0.99 -1.3338,-1.7093 -0.8539,-0.7873 -1.5887,-1.2379 -2.2048,-1.3525 -0.616,-0.1143 -1.1506,-0.0218 -1.602,0.2781 -0.4524,0.2995 -1.1833,0.9975 -2.1926,2.0931 l -1.5207,1.6497 z"
         style="fill:#006632;fill-rule:evenodd"
         id="path45" />
      <path
         d="m 140.6386,70.293 c 0.5885,0.5425 0.9403,0.9083 1.0561,1.0968 0.1151,0.1891 0.1017,0.3602 -0.0395,0.5141 -0.1424,0.1545 -0.2999,0.1895 -0.4738,0.1048 -0.1729,-0.085 -0.5489,-0.3947 -1.1302,-0.93 l -4.667,-4.3019 c -0.5144,-0.474 -0.7949,-0.7906 -0.8426,-0.9503 -0.0469,-0.1595 -0.0163,-0.2982 0.0925,-0.4158 0.1301,-0.1421 0.2825,-0.1763 0.4553,-0.1035 0.1718,0.0732 0.491,0.3235 0.9556,0.7519 z m -0.8812,-5.1038 c -1.0309,-0.9494 -1.7719,-1.5923 -2.2233,-1.9294 -0.4523,-0.3364 -0.9595,-0.5502 -1.5247,-0.6408 -0.5642,-0.0902 -1.1081,-0.0276 -1.6326,0.1893 -0.5235,0.217 -1.0042,0.5632 -1.4445,1.0401 -0.4655,0.5058 -0.7796,1.0331 -0.9433,1.5822 -0.1627,0.5493 -0.1738,1.0939 -0.0326,1.6346 0.1423,0.5412 0.4026,1.0249 0.7838,1.4517 0.3801,0.4269 1.0735,1.1037 2.0788,2.0302 l 1.7118,1.5785 c 1.0309,0.9493 1.7719,1.593 2.2232,1.9294 0.4523,0.3369 0.9606,0.5506 1.5248,0.6408 0.5653,0.0907 1.1102,0.0266 1.6356,-0.1923 0.5246,-0.2191 1.0074,-0.5664 1.4467,-1.0432 0.4624,-0.5018 0.7744,-1.0271 0.9381,-1.5757 0.1637,-0.5488 0.1739,-1.0943 0.0326,-1.6353 -0.1415,-0.5411 -0.4026,-1.0246 -0.7827,-1.4516 -0.3812,-0.4265 -1.0735,-1.1033 -2.0799,-2.0303 z"
         style="fill:#006632;fill-rule:evenodd"
         id="path46" />
    </g>
  </g>
</svg>
