<?xml version="1.0" encoding="UTF-8" standalone="no"?>
<svg
   version="1.1"
   width="1.6397001in"
   height="1.6397001in"
   viewBox="0 0 118.0584 118.0584"
   id="svg54"
   sodipodi:docname="ec_xv_nov_pir2.cdr"
   xmlns:inkscape="http://www.inkscape.org/namespaces/inkscape"
   xmlns:sodipodi="http://sodipodi.sourceforge.net/DTD/sodipodi-0.dtd"
   xmlns="http://www.w3.org/2000/svg"
   xmlns:svg="http://www.w3.org/2000/svg">
  <defs
     id="defs54" />
  <sodipodi:namedview
     id="namedview54"
     pagecolor="#ffffff"
     bordercolor="#000000"
     borderopacity="0.25"
     inkscape:showpageshadow="2"
     inkscape:pageopacity="0.0"
     inkscape:pagecheckerboard="0"
     inkscape:deskcolor="#d1d1d1"
     inkscape:document-units="in" />
  <g
     id="Layer1003"
     transform="translate(-48.970802,-48.970802)">
    <path
       d="m 108,48.9708 c 32.5057,0 59.0292,26.5235 59.0292,59.0292 0,32.5058 -26.5235,59.0292 -59.0292,59.0292 -32.5059,0 -59.0292,-26.5234 -59.0292,-59.0292 0,-32.5057 26.5233,-59.0292 59.0292,-59.0292 z"
       style="fill:#1b1918;fill-rule:evenodd"
       id="path10" />
    <path
       d="m 108,51.2197 c 31.2762,0 56.7803,25.504 56.7803,56.7803 0,31.2764 -25.5041,56.7801 -56.7803,56.7801 -31.2764,0 -56.7802,-25.5037 -56.7802,-56.7801 0,-31.2763 25.5038,-56.7803 56.7802,-56.7803 z"
       style="fill:#ffffff;fill-rule:evenodd"
       id="path11" />
    <path
       d="m 108,70.8463 c 20.451,0 37.1537,16.7027 37.1537,37.1537 0,20.451 -16.7027,37.1538 -37.1537,37.1538 C 87.549,145.1538 70.8462,128.451 70.8462,108 70.8462,87.549 87.549,70.8463 108,70.8463 Z"
       style="fill:#1b1918;fill-rule:evenodd"
       id="path12" />
    <path
       d="m 83.0958,142.7698 -5.6825,6.3124 -4.6779,-4.2133 0.9595,-1.0644 3.4036,3.0587 1.2595,-1.3947 -3.1637,-2.8485 0.9596,-1.0648 3.1635,2.8488 1.5594,-1.7241 -3.5384,-3.1638 0.9595,-1.0644 z"
       style="fill:#1b1918;fill-rule:evenodd"
       id="path13" />
    <path
       d="m 75.1344,139.4862 -1.1545,-1.2144 c 0.3898,-0.4196 0.5847,-0.8397 0.5996,-1.2443 0.015,-0.4049 -0.1349,-0.8098 -0.4496,-1.2144 -0.345,-0.435 -0.6898,-0.6899 -1.0496,-0.7649 -0.3599,-0.09 -0.6597,-0.0299 -0.8997,0.165 -0.165,0.1198 -0.2548,0.27 -0.2998,0.4649 -0.045,0.1649 0,0.4046 0.0899,0.7046 0.075,0.1948 0.2549,0.6448 0.5547,1.3045 0.39,0.8696 0.5549,1.5443 0.5248,2.0539 -0.045,0.6899 -0.3298,1.2445 -0.8546,1.6643 -0.3449,0.2699 -0.7347,0.4199 -1.1844,0.4498 -0.4499,0.0451 -0.8997,-0.0598 -1.3345,-0.3 -0.4348,-0.2397 -0.8546,-0.6145 -1.2594,-1.1392 -0.6597,-0.8399 -0.9747,-1.6045 -0.9296,-2.3241 0.0299,-0.7198 0.3448,-1.3196 0.9445,-1.8293 l 1.1246,1.3195 c -0.2999,0.3149 -0.4498,0.6299 -0.4498,0.9446 -0.0151,0.3149 0.1349,0.6448 0.4348,1.0347 0.3149,0.3897 0.6297,0.6294 0.9595,0.7345 0.2249,0.0598 0.4198,0.015 0.5847,-0.12 0.165,-0.1197 0.24,-0.2846 0.255,-0.5096 0,-0.2848 -0.1649,-0.8099 -0.5248,-1.5893 -0.3598,-0.7797 -0.5848,-1.3944 -0.6597,-1.8443 -0.075,-0.4348 -0.045,-0.8696 0.105,-1.2593 0.1499,-0.4051 0.4348,-0.7798 0.8546,-1.1097 0.3898,-0.2999 0.8246,-0.4649 1.3344,-0.5247 0.4949,-0.0451 0.9745,0.0598 1.4393,0.3299 0.4799,0.2548 0.9297,0.6747 1.3945,1.2594 0.6597,0.8544 0.9745,1.6492 0.9295,2.4141 -0.03,0.7495 -0.3898,1.4691 -1.0794,2.1438 z"
       style="fill:#1b1918;fill-rule:evenodd"
       id="path14" />
    <path
       d="m 72.0757,130.955 -7.4369,4.1231 -1.3343,-2.4139 c -0.5097,-0.9146 -0.7947,-1.5292 -0.8846,-1.8442 -0.12,-0.4798 -0.075,-0.9745 0.135,-1.4693 0.2248,-0.4946 0.6296,-0.8997 1.2143,-1.2296 0.4649,-0.2546 0.8847,-0.3897 1.2896,-0.3897 0.4047,-0.0151 0.7645,0.0599 1.0794,0.2248 0.3149,0.15 0.5847,0.3448 0.7797,0.5848 0.2699,0.3151 0.5997,0.8097 0.9746,1.4994 l 0.5397,0.9747 2.8039,-1.5594 z m -7.0169,1.9191 2.114,-1.1696 -0.4499,-0.8093 c -0.3299,-0.5999 -0.5847,-0.9749 -0.7796,-1.1247 -0.1798,-0.1649 -0.3898,-0.2548 -0.6297,-0.27 -0.2249,-0.0149 -0.4497,0.0304 -0.6597,0.15 -0.2699,0.1499 -0.4498,0.36 -0.5398,0.6148 -0.0899,0.2549 -0.0899,0.5099 0,0.7797 0.0601,0.1946 0.2549,0.5698 0.5548,1.1095 z"
       style="fill:#1b1918;fill-rule:evenodd"
       id="path15" />
    <path
       d="m 64.294,125.2574 c -0.8396,0.2251 -1.5743,0.3149 -2.204,0.2251 -0.4797,-0.0752 -0.9145,-0.21 -1.3494,-0.435 -0.4198,-0.2399 -0.7647,-0.5097 -1.0346,-0.8546 -0.3598,-0.4499 -0.6297,-1.0046 -0.8245,-1.6641 -0.345,-1.1997 -0.24,-2.279 0.2848,-3.2086 0.5397,-0.9446 1.4844,-1.5894 2.8038,-1.9791 1.3195,-0.3752 2.459,-0.3152 3.4034,0.1949 0.9597,0.4946 1.6043,1.3494 1.9493,2.5488 0.3448,1.2144 0.2548,2.279 -0.2849,3.2086 -0.5398,0.9294 -1.4544,1.5892 -2.7439,1.964 z m -0.5546,-1.6941 c 0.9295,-0.2551 1.5742,-0.6749 1.919,-1.2445 0.3599,-0.5549 0.4499,-1.1696 0.255,-1.8292 -0.195,-0.6597 -0.5847,-1.1246 -1.1695,-1.4094 -0.5997,-0.285 -1.3644,-0.2999 -2.324,-0.0299 -0.9296,0.2699 -1.5743,0.6745 -1.9042,1.2294 -0.3449,0.5397 -0.4198,1.1543 -0.2249,1.8293 0.195,0.6747 0.5847,1.1544 1.1694,1.4391 0.5848,0.285 1.3495,0.285 2.2792,0.0152 z"
       style="fill:#1b1918;fill-rule:evenodd"
       id="path16" />
    <path
       d="m 65.8083,114.7021 -8.4711,0.5847 -0.255,-3.5985 c -0.06,-0.8995 -0.03,-1.5592 0.0901,-1.9791 0.1348,-0.4198 0.3747,-0.7796 0.7497,-1.0495 0.3747,-0.2698 0.8095,-0.4347 1.3043,-0.4646 0.6447,-0.0453 1.1844,0.1049 1.6193,0.4495 0.4348,0.3448 0.7346,0.8847 0.8995,1.6195 0.195,-0.3748 0.4048,-0.7047 0.6448,-0.9598 0.2399,-0.2546 0.6747,-0.6144 1.3044,-1.0644 l 1.5894,-1.1395 0.1349,2.024 -1.7543,1.3644 c -0.6297,0.4949 -1.0196,0.8247 -1.1845,0.9897 -0.1499,0.1798 -0.2698,0.3598 -0.3148,0.5396 -0.045,0.1951 -0.0599,0.4799 -0.03,0.8696 l 0.0149,0.3448 3.5386,-0.2396 z m -5.0077,-1.3644 -0.09,-1.2747 c -0.0599,-0.8245 -0.1199,-1.334 -0.2099,-1.5291 -0.09,-0.1948 -0.2099,-0.345 -0.3899,-0.4497 -0.1799,-0.1052 -0.3898,-0.15 -0.6446,-0.1351 -0.285,0.0299 -0.5098,0.1201 -0.6747,0.2851 -0.1649,0.1649 -0.2699,0.3747 -0.285,0.6597 -0.015,0.1498 0,0.5547 0.0451,1.2592 l 0.1049,1.3346 z"
       style="fill:#1b1918;fill-rule:evenodd"
       id="path17" />
    <path
       d="m 65.6136,104.0418 -6.987,-0.9746 -0.3448,2.5039 -1.4245,-0.2099 0.9296,-6.687 1.4245,0.2098 -0.345,2.4889 6.987,0.9746 z"
       style="fill:#1b1918;fill-rule:evenodd"
       id="path18" />
    <path
       d="m 66.3781,98.6142 -8.1264,-2.489 1.8442,-6.0273 1.3643,0.4197 -1.3343,4.3931 1.7992,0.5548 1.2443,-4.0783 1.3646,0.4049 -1.2444,4.0782 2.2189,0.6897 1.3794,-4.543 1.3794,0.4198 z"
       style="fill:#1b1918;fill-rule:evenodd"
       id="path19" />
    <path
       d="m 70.6662,81.7915 1.3795,-1.0946 c 0.6148,0.7347 0.9595,1.4694 0.9895,2.219 0.0451,0.7348 -0.1799,1.4844 -0.6897,2.2492 -0.6297,0.9295 -1.4692,1.4843 -2.5188,1.6493 -1.0496,0.1798 -2.1292,-0.1051 -3.2236,-0.8548 -1.1845,-0.7945 -1.8892,-1.7092 -2.129,-2.7587 -0.24,-1.0346 -0.0301,-2.0542 0.6445,-3.0438 0.5699,-0.8544 1.3045,-1.3794 2.1741,-1.5742 0.5249,-0.1199 1.1095,-0.075 1.7843,0.1499 l -0.6148,1.6344 c -0.4198,-0.1649 -0.8246,-0.18 -1.2144,-0.0601 -0.3899,0.12 -0.7047,0.3599 -0.9596,0.7498 -0.3598,0.5247 -0.4649,1.0645 -0.2999,1.6492 0.1499,0.5697 0.6448,1.1545 1.4844,1.7092 0.8996,0.5998 1.6343,0.8696 2.234,0.8096 0.5848,-0.0749 1.0645,-0.3597 1.4094,-0.8696 0.2548,-0.3747 0.3448,-0.7796 0.2998,-1.2144 -0.06,-0.4348 -0.2998,-0.8846 -0.7497,-1.3494 z"
       style="fill:#1b1918;fill-rule:evenodd"
       id="path20" />
    <path
       d="m 75.1943,80.8619 -6.0724,-5.8625 1.1996,-1.2294 5.0227,4.8579 2.9688,-3.0588 1.0345,0.9897 z"
       style="fill:#1b1918;fill-rule:evenodd"
       id="path21" />
    <path
       d="m 75.4342,68.6122 1.3944,-0.9895 2.6389,3.7634 c 0.4198,0.5997 0.7196,0.9744 0.8695,1.1244 0.2549,0.255 0.5698,0.3749 0.9147,0.3899 0.3448,0.0149 0.7196,-0.1201 1.1095,-0.3899 0.3898,-0.2849 0.6447,-0.5698 0.7346,-0.8697 0.075,-0.3148 0.06,-0.5997 -0.0599,-0.8546 -0.135,-0.2698 -0.3898,-0.6746 -0.7647,-1.2293 l -2.6988,-3.8534 1.4094,-0.9746 2.5488,3.6435 c 0.5848,0.8396 0.9597,1.4543 1.1247,1.8591 0.1648,0.3898 0.2398,0.7797 0.1948,1.1546 -0.03,0.3897 -0.18,0.7646 -0.4198,1.1394 -0.2399,0.3898 -0.6448,0.7647 -1.1845,1.1546 -0.6747,0.4647 -1.2295,0.7496 -1.6792,0.8247 -0.4499,0.0898 -0.8547,0.0898 -1.2296,-0.0301 -0.3747,-0.105 -0.6897,-0.2699 -0.9296,-0.4949 -0.3747,-0.3298 -0.8395,-0.8845 -1.3793,-1.6642 z"
       style="fill:#1b1918;fill-rule:evenodd"
       id="path22" />
    <path
       d="m 84.0104,62.8397 3.1037,-1.3944 c 0.6147,-0.2698 1.0794,-0.4497 1.4093,-0.5248 0.3299,-0.0898 0.6448,-0.1049 0.9597,-0.0448 0.2998,0.0599 0.5996,0.1948 0.8846,0.3898 0.2699,0.1949 0.4797,0.4648 0.6297,0.7946 0.165,0.3598 0.2249,0.7496 0.165,1.1396 -0.075,0.3897 -0.2399,0.7346 -0.4949,1.0344 0.5248,-0.0749 0.9897,0 1.3945,0.2099 0.4047,0.2249 0.7045,0.5548 0.8996,1.0045 0.1649,0.36 0.2399,0.7348 0.2248,1.1397 -0.0149,0.4047 -0.1349,0.7795 -0.3148,1.0944 -0.2099,0.3299 -0.4948,0.6148 -0.8996,0.8397 -0.2399,0.1498 -0.8697,0.4497 -1.8592,0.8996 l -2.6389,1.1694 z m 2.144,0.5848 0.7947,1.7992 1.0346,-0.4648 c 0.6148,-0.2699 0.9896,-0.4498 1.1245,-0.5248 0.2549,-0.1498 0.4198,-0.3448 0.5099,-0.5547 0.0898,-0.225 0.0749,-0.4648 -0.0451,-0.7197 -0.1049,-0.2399 -0.2549,-0.4049 -0.4497,-0.4948 -0.21,-0.0899 -0.4349,-0.0899 -0.7197,0 -0.1649,0.0451 -0.6148,0.24 -1.3494,0.5698 z m 1.3795,3.0887 0.9146,2.069 1.4544,-0.6446 c 0.5698,-0.2401 0.9145,-0.4199 1.0495,-0.5249 0.2249,-0.1348 0.3598,-0.3298 0.4348,-0.5547 0.075,-0.2399 0.045,-0.4799 -0.075,-0.7646 -0.1049,-0.225 -0.2398,-0.4049 -0.4347,-0.5098 -0.18,-0.12 -0.3899,-0.165 -0.6449,-0.1351 -0.2398,0.0151 -0.7196,0.18 -1.4393,0.5099 z"
       style="fill:#1b1918;fill-rule:evenodd"
       id="path23" />
    <path
       d="m 95.5404,67.1879 -1.9042,-8.2765 6.1323,-1.4094 0.3149,1.3944 -4.4531,1.0346 0.4199,1.8293 4.1531,-0.9597 0.3149,1.3944 -4.1531,0.9596 0.5247,2.264 4.618,-1.0796 0.3299,1.3946 z"
       style="fill:#1b1918;fill-rule:evenodd"
       id="path24" />
    <path
       d="m 105.796,65.3736 2.9686,-4.3931 -2.5489,-4.0931 1.9941,0.03 1.6494,2.7588 1.7241,-2.6989 1.9793,0.0299 -2.7139,4.0782 2.8338,4.4232 -2.0693,-0.045 -1.8292,-2.9687 -1.934,2.9088 z"
       style="fill:#1b1918;fill-rule:evenodd"
       id="path25" />
    <path
       d="m 116.8311,66.3632 -1.1995,-8.951 1.814,0.3897 0.7948,6.5972 3.3436,-5.7275 1.7842,0.3898 -4.738,7.6767 z"
       style="fill:#1b1918;fill-rule:evenodd"
       id="path26" />
    <path
       d="m 129.6054,61.6853 2.7288,1.5144 c 0.6298,0.3447 1.0646,0.6445 1.3344,0.9295 0.3748,0.3598 0.6149,0.7946 0.75,1.3045 0.1196,0.4947 0.1347,1.0344 0.0448,1.5893 -0.1049,0.5697 -0.3448,1.1994 -0.7348,1.889 -0.3448,0.6148 -0.7046,1.0946 -1.1095,1.4545 -0.4798,0.4498 -0.9896,0.7347 -1.5143,0.8696 -0.4047,0.1199 -0.8696,0.1199 -1.3943,0.015 -0.3899,-0.075 -0.8549,-0.2699 -1.4093,-0.5847 l -2.8189,-1.5595 z m 0.7948,2.0841 -2.7288,4.9178 1.1247,0.6147 c 0.4196,0.24 0.7345,0.3898 0.9443,0.4348 0.2848,0.0751 0.5399,0.09 0.7796,0.03 0.24,-0.0599 0.4948,-0.2248 0.7948,-0.4949 0.2848,-0.2847 0.5847,-0.7046 0.8997,-1.2743 0.3147,-0.5848 0.5096,-1.0495 0.5846,-1.4093 0.06,-0.36 0.06,-0.6898 -0.0299,-0.9597 -0.0902,-0.2699 -0.2552,-0.5097 -0.4949,-0.7347 -0.1948,-0.1649 -0.5848,-0.4197 -1.1994,-0.7497 z"
       style="fill:#1b1918;fill-rule:evenodd"
       id="path27" />
    <path
       d="m 132.9341,73.515 5.4725,-6.507 4.8129,4.0482 -0.9144,1.1095 -3.5086,-2.9537 -1.2146,1.4544 3.2686,2.7287 -0.9296,1.1097 -3.2535,-2.744 -1.4993,1.7693 3.6433,3.0435 -0.9296,1.0947 z"
       style="fill:#1b1918;fill-rule:evenodd"
       id="path28" />
    <path
       d="m 141.0454,81.2817 6.8821,-4.9929 0.9746,1.3495 -2.5489,6.1473 4.5879,-3.3435 0.9448,1.2894 -6.8822,4.9928 -1.0045,-1.3943 2.474,-6.0273 -4.4832,3.2685 z"
       style="fill:#1b1918;fill-rule:evenodd"
       id="path29" />
    <path
       d="m 149.7866,86.5894 c 0.8097,-0.315 1.5293,-0.4798 2.1591,-0.4499 0.4799,0.0151 0.9444,0.1052 1.3794,0.2999 0.4497,0.18 0.8247,0.4198 1.1245,0.7197 0.4048,0.4198 0.7347,0.9297 1.0048,1.5744 0.4644,1.1695 0.4794,2.2339 0.0448,3.2236 -0.4499,0.9895 -1.3045,1.7392 -2.5939,2.264 -1.2595,0.5098 -2.3989,0.5698 -3.4036,0.1649 -0.9893,-0.4047 -1.7243,-1.1845 -2.1888,-2.339 -0.4799,-1.1694 -0.4948,-2.249 -0.06,-3.2236 0.4347,-0.9746 1.2744,-1.7243 2.5337,-2.234 z m 0.7198,1.6193 c -0.8997,0.3598 -1.4843,0.8396 -1.7843,1.4394 -0.2999,0.5996 -0.3149,1.2144 -0.06,1.8442 0.2549,0.6447 0.7046,1.0645 1.3193,1.2894 0.6149,0.2248 1.3945,0.1499 2.3092,-0.2249 0.8994,-0.3598 1.4842,-0.8397 1.769,-1.4094 0.285,-0.5698 0.3,-1.1845 0.0303,-1.8441 -0.255,-0.6599 -0.705,-1.0946 -1.3045,-1.3195 -0.6149,-0.2099 -1.3796,-0.135 -2.279,0.2249 z"
       style="fill:#1b1918;fill-rule:evenodd"
       id="path30" />
    <path
       d="m 149.6966,99.4537 7.8417,-4.468 0.3147,1.8292 -5.8173,3.2086 6.5521,0.9597 0.3149,1.7992 -8.891,-1.5294 z"
       style="fill:#1b1918;fill-rule:evenodd"
       id="path31" />
    <path
       d="m 150.5814,105.2862 8.5012,0.1499 -0.1049,6.2825 -1.4394,-0.0303 0.075,-4.5579 -1.8742,-0.03 -0.075,4.2431 -1.4395,-0.03 0.0752,-4.2431 -2.3092,-0.0449 -0.0899,4.738 -1.4244,-0.0301 z"
       style="fill:#1b1918;fill-rule:evenodd"
       id="path32" />
    <path
       d="m 150.3265,113.3077 8.3062,1.7693 -0.5398,2.5038 -5.9822,0.3 5.3524,2.6988 -0.5396,2.5188 -8.3065,-1.7693 0.3299,-1.5592 6.5371,1.3943 -6.192,-3.0437 0.3446,-1.6191 6.8972,-0.255 -6.5524,-1.3794 z"
       style="fill:#1b1918;fill-rule:evenodd"
       id="path33" />
    <path
       d="m 155.6041,126.5769 -1.3795,3.1037 c -0.2697,0.6147 -0.4948,1.0647 -0.6895,1.3492 -0.1801,0.2701 -0.4049,0.4948 -0.6749,0.6598 -0.2696,0.1649 -0.5696,0.2698 -0.9145,0.3149 -0.3448,0.0299 -0.6747,-0.0149 -1.0195,-0.165 -0.3598,-0.1649 -0.6448,-0.4198 -0.8696,-0.7496 -0.2098,-0.3297 -0.3149,-0.6895 -0.3298,-1.0946 -0.3449,0.4051 -0.7348,0.6747 -1.1845,0.7799 -0.45,0.1048 -0.8848,0.0598 -1.3345,-0.1501 -0.3598,-0.1499 -0.6598,-0.3897 -0.9298,-0.7048 -0.2547,-0.2997 -0.4196,-0.6446 -0.4947,-1.0193 -0.0749,-0.3748 -0.045,-0.7799 0.105,-1.2144 0.0901,-0.2701 0.3448,-0.9147 0.7798,-1.9192 l 1.1845,-2.6389 z m -1.9791,1.0046 -1.7993,-0.8096 -0.4647,1.0346 c -0.2699,0.5997 -0.4199,0.9894 -0.4797,1.1543 -0.0752,0.2701 -0.0899,0.5248 0,0.7497 0.0898,0.225 0.2547,0.3899 0.5098,0.4946 0.2397,0.1051 0.4645,0.1351 0.6745,0.0602 0.21,-0.0602 0.3899,-0.21 0.525,-0.4649 0.0897,-0.1499 0.2995,-0.5847 0.6298,-1.3193 z m -3.0887,-1.3794 -2.084,-0.9296 -0.6446,1.4544 c -0.2401,0.5696 -0.3899,0.9298 -0.42,1.0947 -0.0601,0.2547 -0.0449,0.4946 0.0449,0.7046 0.1051,0.2248 0.2849,0.3897 0.5699,0.5246 0.2248,0.0901 0.4498,0.135 0.6596,0.0901 0.225,-0.045 0.4049,-0.1502 0.5848,-0.3299 0.1649,-0.1801 0.4046,-0.6298 0.7196,-1.3496 z"
       style="fill:#1b1918;fill-rule:evenodd"
       id="path34" />
    <path
       d="m 144.0592,130.97 6.6871,5.2326 -2.219,2.849 c -0.5547,0.7047 -1.0196,1.1843 -1.3945,1.4093 -0.3747,0.2399 -0.7946,0.3299 -1.2595,0.2848 -0.4497,-0.0449 -0.8845,-0.225 -1.2742,-0.5397 -0.51,-0.3899 -0.8098,-0.8548 -0.8999,-1.4095 -0.0898,-0.5546 0.045,-1.1545 0.42,-1.8143 -0.4049,0.165 -0.7798,0.2551 -1.1246,0.285 -0.3598,0.0301 -0.9145,0.015 -1.6943,-0.0748 l -1.9489,-0.195 1.2742,-1.6193 2.2192,0.1649 c 0.7796,0.0451 1.3043,0.0748 1.5291,0.0451 0.2401,-0.0151 0.435,-0.075 0.5999,-0.1801 0.165,-0.1047 0.3598,-0.3147 0.6147,-0.6299 l 0.21,-0.2696 -2.8039,-2.1891 z m 2.8038,4.3782 -0.7797,0.9894 c -0.51,0.6598 -0.7948,1.0796 -0.8695,1.2896 -0.075,0.1946 -0.075,0.4046 -0.0152,0.5997 0.06,0.1948 0.1949,0.3748 0.4051,0.5247 0.2247,0.18 0.4497,0.255 0.6743,0.2398 0.2401,0 0.4649,-0.1047 0.6597,-0.3 0.1051,-0.0897 0.3752,-0.4196 0.7948,-0.9742 l 0.8247,-1.0497 z"
       style="fill:#1b1918;fill-rule:evenodd"
       id="path35" />
    <path
       d="m 141.5103,140.6408 c 0.5698,0.6448 0.9595,1.2595 1.1696,1.8741 0.1347,0.45 0.2097,0.9145 0.1797,1.3946 -0.0148,0.4796 -0.105,0.9146 -0.2996,1.3043 -0.2402,0.5247 -0.6149,1.0195 -1.1396,1.4844 -0.9298,0.8246 -1.934,1.2144 -2.9988,1.1393 -1.0794,-0.0748 -2.0841,-0.6295 -3.0134,-1.6493 -0.9149,-1.0193 -1.3648,-2.069 -1.3195,-3.1485 0.0299,-1.0794 0.5095,-2.0242 1.4392,-2.8638 0.9445,-0.8394 1.9491,-1.2294 3.0137,-1.1546 1.0793,0.0752 2.0541,0.6149 2.9687,1.6195 z m -1.2744,1.2296 c -0.6449,-0.7199 -1.3044,-1.1096 -1.9641,-1.1848 -0.6596,-0.0749 -1.2446,0.1201 -1.7543,0.5701 -0.5098,0.4645 -0.7649,1.0193 -0.7497,1.679 0,0.6596 0.3298,1.3646 0.9894,2.0842 0.6448,0.7346 1.2896,1.1245 1.9344,1.1995 0.6298,0.0748 1.2144,-0.135 1.7391,-0.5997 0.5248,-0.4801 0.7948,-1.0347 0.7796,-1.6945 0,-0.6446 -0.3299,-1.3341 -0.9744,-2.0538 z"
       style="fill:#1b1918;fill-rule:evenodd"
       id="path36" />
    <path
       d="m 99.2137,158.6479 -1.5892,-0.3447 1.2744,-5.9976 c -0.7047,0.42 -1.4694,0.6749 -2.324,0.7646 l 0.3149,-1.4392 c 0.4498,-0.0452 0.9445,-0.21 1.5144,-0.4948 0.5697,-0.27 1.0045,-0.6447 1.2894,-1.1094 l 1.2894,0.2698 z"
       style="fill:#1b1918;fill-rule:evenodd"
       id="path37" />
    <path
       d="m 101.9725,157.0587 1.5744,-0.0602 c 0.015,0.3151 0.1049,0.57 0.255,0.7349 0.1498,0.165 0.3598,0.2547 0.6296,0.2699 0.3298,0.0296 0.6298,-0.1049 0.8846,-0.4049 0.255,-0.2848 0.4499,-0.9144 0.5847,-1.8891 -0.4498,0.4495 -0.9745,0.6448 -1.5892,0.6144 -0.6598,-0.0598 -1.2145,-0.3446 -1.6643,-0.8994 -0.4498,-0.5547 -0.6447,-1.2294 -0.5847,-2.0541 0.0599,-0.8695 0.3598,-1.5443 0.9145,-2.0241 0.5399,-0.4948 1.2145,-0.7196 2.0092,-0.6596 0.8547,0.06 1.5293,0.4497 2.0392,1.1544 0.5096,0.6897 0.7045,1.8143 0.5997,3.3285 -0.1051,1.5443 -0.4798,2.6538 -1.0946,3.2985 -0.6298,0.6449 -1.3943,0.9298 -2.324,0.8696 -0.6597,-0.0449 -1.1845,-0.2549 -1.5593,-0.6448 -0.3898,-0.3747 -0.6147,-0.9294 -0.6748,-1.634 z m 3.9133,-3.2986 c 0.0451,-0.5249 -0.0599,-0.9296 -0.2698,-1.2445 -0.2249,-0.3 -0.4947,-0.4649 -0.8096,-0.4799 -0.2999,-0.0299 -0.5547,0.0753 -0.7647,0.3 -0.2249,0.225 -0.3449,0.5997 -0.3899,1.1396 -0.03,0.5546 0.045,0.9595 0.24,1.2294 0.2099,0.2698 0.4648,0.4196 0.7796,0.4348 0.3149,0.0299 0.5848,-0.075 0.8246,-0.3148 0.225,-0.2249 0.3599,-0.5849 0.3898,-1.0646 z"
       style="fill:#1b1918;fill-rule:evenodd"
       id="path38" />
    <path
       d="m 112.6931,159.0826 -1.6195,0.1801 -0.6448,-6.1173 c -0.5397,0.6147 -1.1845,1.1093 -1.9641,1.4544 l -0.1498,-1.4695 c 0.4047,-0.1798 0.8397,-0.4949 1.2894,-0.9296 0.4498,-0.4348 0.7497,-0.9295 0.8696,-1.4693 l 1.3193,-0.1351 z"
       style="fill:#1b1918;fill-rule:evenodd"
       id="path39" />
    <path
       d="m 114.7322,156.8038 1.499,-0.5399 c 0.135,0.375 0.3298,0.6448 0.5999,0.8098 0.2548,0.1499 0.5396,0.1948 0.8546,0.12 0.3149,-0.0752 0.5698,-0.255 0.7347,-0.5548 0.165,-0.3 0.2098,-0.6598 0.1049,-1.0796 -0.0901,-0.4047 -0.2698,-0.6897 -0.5396,-0.8848 -0.2699,-0.1797 -0.5549,-0.2397 -0.8698,-0.1649 -0.1949,0.0451 -0.4348,0.1353 -0.7046,0.285 l -0.1201,-1.3345 c 0.4349,-0.0899 0.7347,-0.2549 0.9146,-0.5096 0.1801,-0.2401 0.2398,-0.54 0.1649,-0.8547 -0.0598,-0.2848 -0.1948,-0.4797 -0.4046,-0.6147 -0.21,-0.1201 -0.45,-0.165 -0.7198,-0.09 -0.2698,0.0601 -0.4797,0.2099 -0.6296,0.4348 -0.15,0.24 -0.1951,0.5397 -0.165,0.9144 l -1.5143,0.0902 c -0.0152,-0.5249 0.0448,-0.9597 0.1798,-1.3195 0.1501,-0.3449 0.3748,-0.6448 0.7047,-0.8995 0.3299,-0.2549 0.7196,-0.435 1.1695,-0.5397 0.7799,-0.1801 1.4693,-0.0752 2.0541,0.3148 0.4798,0.3146 0.7796,0.7347 0.8994,1.2444 0.165,0.7196 -0.1046,1.3944 -0.7943,2.0091 0.4948,0 0.9294,0.135 1.2892,0.42 0.3752,0.2848 0.6149,0.6894 0.7198,1.1842 0.1801,0.7199 0.045,1.4093 -0.3598,2.0392 -0.4199,0.6298 -1.0198,1.0494 -1.7992,1.2295 -0.7497,0.165 -1.4247,0.105 -2.0241,-0.2098 -0.5848,-0.3299 -1.0047,-0.8247 -1.2443,-1.4994 z"
       style="fill:#1b1918;fill-rule:evenodd"
       id="path40" />
    <path
       d="m 91.3273,148.4224 c -1.0796,0 -1.9642,0.8846 -1.9642,1.9642 0,1.0795 0.8846,1.964 1.9642,1.964 1.0795,0 1.9641,-0.8845 1.9641,-1.964 0,-1.0796 -0.8846,-1.9642 -1.9641,-1.9642 z"
       style="fill:#1b1918;fill-rule:evenodd"
       id="path41" />
    <path
       d="m 124.6726,148.4224 c -1.0794,0 -1.9642,0.8846 -1.9642,1.9642 0,1.0795 0.8848,1.964 1.9642,1.964 1.0797,0 1.9643,-0.8845 1.9643,-1.964 0,-1.0796 -0.8846,-1.9642 -1.9643,-1.9642 z"
       style="fill:#1b1918;fill-rule:evenodd"
       id="path42" />
    <path
       d="m 84.3852,132.2145 3.7934,-4.1983 1.3644,1.2296 c 0.5098,0.4647 0.8397,0.7799 0.9596,0.9593 0.1799,0.285 0.2549,0.6 0.2249,0.9598 -0.03,0.3597 -0.1799,0.7046 -0.4949,1.0496 -0.2248,0.2549 -0.4647,0.4348 -0.7196,0.5246 -0.2548,0.0901 -0.4948,0.12 -0.7347,0.0901 -0.2398,-0.0299 -0.4347,-0.0901 -0.6147,-0.1949 -0.2399,-0.1499 -0.5547,-0.3899 -0.9445,-0.7345 l -0.5548,-0.51 -1.4244,1.5894 z m 4.0033,-2.7289 -1.0796,1.1996 0.4649,0.4199 c 0.3449,0.2999 0.5847,0.4796 0.7347,0.5396 0.1498,0.0598 0.2998,0.0598 0.4498,0.0299 0.1499,-0.0448 0.2849,-0.1198 0.3898,-0.2397 0.135,-0.15 0.2099,-0.3298 0.2099,-0.51 0,-0.1796 -0.06,-0.3448 -0.18,-0.4946 -0.0748,-0.1051 -0.2698,-0.3 -0.5847,-0.5696 z"
       style="fill:#ffffff;fill-rule:evenodd"
       id="path43" />
    <path
       d="m 88.6884,135.7678 2.9987,-4.8128 0.9746,0.615 -3.0137,4.7977 z"
       style="fill:#ffffff;fill-rule:evenodd"
       id="path44" />
    <path
       d="m 91.1923,137.3272 2.5789,-5.0527 2.1292,1.0944 c 0.5396,0.2701 0.9144,0.5247 1.1093,0.735 0.21,0.2097 0.315,0.4796 0.345,0.7794 0.03,0.3149 -0.03,0.6146 -0.1801,0.9146 -0.1948,0.375 -0.4647,0.6297 -0.8245,0.7647 -0.3449,0.135 -0.7497,0.12 -1.2295,-0.0449 0.15,0.2397 0.2698,0.4797 0.3299,0.7046 0.0599,0.2248 0.12,0.5995 0.1649,1.1095 l 0.12,1.3044 -1.2296,-0.6296 -0.1649,-1.4696 c -0.0749,-0.5245 -0.1199,-0.8695 -0.1649,-1.0193 -0.0449,-0.15 -0.105,-0.2701 -0.1949,-0.36 -0.09,-0.0899 -0.2548,-0.1949 -0.4948,-0.3147 l -0.1949,-0.1051 -1.0796,2.0991 z m 2.504,-2.3989 0.7496,0.39 c 0.4947,0.2397 0.8096,0.3747 0.9445,0.4046 0.15,0.015 0.2849,0 0.4048,-0.0748 0.1201,-0.06 0.21,-0.1649 0.2849,-0.3298 0.0901,-0.165 0.1201,-0.3302 0.075,-0.4799 -0.03,-0.15 -0.1199,-0.2701 -0.2848,-0.3901 -0.0751,-0.0598 -0.3149,-0.1795 -0.7348,-0.3897 l -0.7946,-0.4047 z"
       style="fill:#ffffff;fill-rule:evenodd"
       id="path45" />
    <path
       d="m 101.5528,141.3155 -1.1996,-0.3448 -0.1199,-1.3644 -2.174,-0.6299 -0.8097,1.1097 -1.1695,-0.3298 3.6884,-4.8431 1.1696,0.3299 z m -1.4093,-2.7288 -0.165,-2.2339 -1.3194,1.7989 z"
       style="fill:#ffffff;fill-rule:evenodd"
       id="path46" />
    <path
       d="m 106.3357,139.6962 1.0795,0.4498 c -0.2249,0.5997 -0.5547,1.0344 -0.9746,1.3045 -0.4199,0.2549 -0.9295,0.3598 -1.5292,0.3149 -0.7497,-0.06 -1.3495,-0.3751 -1.7844,-0.9298 -0.4347,-0.5546 -0.6147,-1.2742 -0.5397,-2.1589 0.09,-0.9446 0.3898,-1.6492 0.9147,-2.1291 0.5397,-0.4798 1.1995,-0.6747 1.979,-0.6148 0.7048,0.06 1.2446,0.3148 1.6344,0.7648 0.2398,0.2547 0.4047,0.6296 0.4948,1.0946 l -1.1545,0.1646 c -0.045,-0.2997 -0.1649,-0.5396 -0.3599,-0.7345 -0.195,-0.1799 -0.4498,-0.285 -0.7497,-0.3149 -0.4198,-0.0451 -0.7646,0.0748 -1.0645,0.3598 -0.2849,0.2698 -0.4498,0.7499 -0.5098,1.4242 -0.06,0.7051 0.015,1.2298 0.2549,1.5597 0.225,0.3298 0.5397,0.5097 0.9596,0.5397 0.2999,0.0299 0.5697,-0.0451 0.8097,-0.225 0.2247,-0.165 0.4047,-0.4647 0.5397,-0.8696 z"
       style="fill:#ffffff;fill-rule:evenodd"
       id="path47" />
    <path
       d="m 108.4647,141.7954 -0.1948,-5.6676 1.1394,-0.0451 0.195,5.6678 z"
       style="fill:#ffffff;fill-rule:evenodd"
       id="path48" />
    <path
       d="m 114.2521,139.1264 1.1544,0.1201 c -0.045,0.6448 -0.2398,1.1543 -0.5697,1.5143 -0.3296,0.3748 -0.7945,0.6147 -1.3793,0.7346 -0.7497,0.1499 -1.3943,0.0149 -1.979,-0.4047 -0.5698,-0.4051 -0.9446,-1.0497 -1.1095,-1.9344 -0.1799,-0.9144 -0.0752,-1.6793 0.2997,-2.294 0.375,-0.5997 0.9595,-0.9745 1.7393,-1.1244 0.6748,-0.135 1.2593,-0.0449 1.7693,0.27 0.2997,0.1947 0.5549,0.4946 0.7646,0.9145 l -1.0494,0.4798 c -0.1351,-0.2698 -0.3149,-0.4649 -0.5549,-0.5997 -0.2399,-0.1199 -0.51,-0.1502 -0.8095,-0.1049 -0.4051,0.0898 -0.7198,0.2998 -0.9149,0.6448 -0.1947,0.3448 -0.2246,0.8544 -0.1048,1.514 0.135,0.705 0.36,1.1846 0.6747,1.4246 0.3146,0.2548 0.6597,0.3297 1.0646,0.2548 0.2997,-0.06 0.5396,-0.195 0.7196,-0.4347 0.1798,-0.225 0.27,-0.5546 0.2848,-0.9747 z"
       style="fill:#ffffff;fill-rule:evenodd"
       id="path49" />
    <path
       d="m 121.8389,138.9166 -1.1696,0.4199 -0.8997,-1.0348 -2.1288,0.7649 v 1.3793 l -1.1396,0.4047 0.135,-6.0725 1.1393,-0.4046 z m -2.7438,-1.3943 -1.4543,-1.7092 v 2.2489 z"
       style="fill:#ffffff;fill-rule:evenodd"
       id="path50" />
    <path
       d="m 120.1145,133.4889 1.9493,-1.1695 c 0.3748,-0.225 0.6745,-0.3897 0.8846,-0.4649 0.2098,-0.0897 0.4198,-0.1196 0.6296,-0.1049 0.21,0.0152 0.42,0.075 0.6147,0.1801 0.1953,0.1047 0.3602,0.2696 0.4948,0.4795 0.135,0.2251 0.1953,0.4649 0.1953,0.735 -0.0152,0.2698 -0.0902,0.5097 -0.2551,0.7344 0.3598,-0.1046 0.6747,-0.0899 0.9597,0.03 0.2848,0.1051 0.5098,0.2999 0.6748,0.585 0.1345,0.2247 0.2097,0.4646 0.2247,0.7345 0.0299,0.2698 -0.015,0.5249 -0.1201,0.7499 -0.0899,0.2397 -0.2696,0.4496 -0.5097,0.6294 -0.1498,0.1201 -0.5398,0.36 -1.1696,0.75 l -1.6492,0.9896 z m 1.4695,0.2099 0.6747,1.1247 0.6446,-0.3752 c 0.375,-0.2398 0.6147,-0.3897 0.7048,-0.4498 0.15,-0.1199 0.2549,-0.2549 0.285,-0.4046 0.0449,-0.165 0.0148,-0.3147 -0.0752,-0.4799 -0.0899,-0.1498 -0.2098,-0.2399 -0.3448,-0.2848 -0.15,-0.0451 -0.2998,-0.0299 -0.4796,0.0449 -0.105,0.0602 -0.39,0.21 -0.8399,0.4948 z m 1.1695,1.9342 0.7796,1.3043 0.8997,-0.5546 c 0.3598,-0.2098 0.5696,-0.3448 0.6598,-0.4199 0.1198,-0.1198 0.2098,-0.2548 0.2397,-0.4198 0.0299,-0.15 -0.015,-0.3149 -0.1199,-0.4948 -0.0749,-0.135 -0.195,-0.2397 -0.3296,-0.3 -0.1201,-0.0598 -0.2703,-0.0748 -0.435,-0.0449 -0.1649,0.0449 -0.4649,0.1949 -0.9147,0.4648 z"
       style="fill:#ffffff;fill-rule:evenodd"
       id="path51" />
    <path
       d="m 132.0643,131.8998 -0.9445,0.7944 -1.2145,-0.6598 -1.7242,1.4545 0.4648,1.2892 -0.9297,0.7799 -1.9489,-5.7576 0.9294,-0.7795 z m -3.0437,-0.3602 -1.9489,-1.1093 0.7647,2.0989 z"
       style="fill:#ffffff;fill-rule:evenodd"
       id="path52" />
    <path
       d="m 96.635,92.7667 h 2.9986 l -4.9628,8.2614 -4.9629,-8.2614 h 2.9988 v -4.768 H 81.4915 v 4.768 H 84.94 l 7.3468,12.2346 -8.4413,14.0189 h -2.354 v 4.7681 h 11.2152 v -4.7681 h -4.0933 l 6.0574,-10.0757 6.0574,10.0757 H 96.635 v 4.7681 h 11.215 v -4.7681 h -2.354 l -8.4412,-14.0189 7.3468,-12.2346 h 3.4484 v -4.768 H 96.635 Z"
       style="fill:#ffffff;fill-rule:evenodd"
       id="path53" />
    <path
       d="m 125.4073,87.9987 v 4.768 h 3.8084 l -6.3272,20.0761 -6.3422,-20.0761 h 3.8083 v -4.768 h -11.2152 v 4.768 h 2.6388 l 8.2914,26.2535 h -2.7888 v 4.7681 h 11.2153 v -4.7681 h -2.7888 l 8.2763,-26.2535 h 2.639 v -4.768 z"
       style="fill:#ffffff;fill-rule:evenodd"
       id="path54" />
  </g>
</svg>
