<?xml version="1.0" encoding="UTF-8" standalone="no"?>
<svg
   version="1.1"
   width="1.5575486in"
   height="1.5559976in"
   viewBox="0 0 112.1435 112.03183"
   id="svg25"
   sodipodi:docname="ypiranga_clube-ap.cdr"
   xmlns:inkscape="http://www.inkscape.org/namespaces/inkscape"
   xmlns:sodipodi="http://sodipodi.sourceforge.net/DTD/sodipodi-0.dtd"
   xmlns="http://www.w3.org/2000/svg"
   xmlns:svg="http://www.w3.org/2000/svg">
  <defs
     id="defs25" />
  <sodipodi:namedview
     id="namedview25"
     pagecolor="#ffffff"
     bordercolor="#000000"
     borderopacity="0.25"
     inkscape:showpageshadow="2"
     inkscape:pageopacity="0.0"
     inkscape:pagecheckerboard="0"
     inkscape:deskcolor="#d1d1d1"
     inkscape:document-units="in" />
  <g
     id="Layer1003"
     transform="matrix(1,0,0,0.75862134,-51.928204,-25.915192)">
    <path
       d="m 163.1716,91.4451 c -4.0868,-1.6625 -7.2041,-4.0868 -9.0747,-6.8574 -1.1076,-1.6625 -1.7314,-3.4635 -2.0086,-5.2645 -0.2076,-1.8701 0.0695,-3.7402 0.8314,-5.6107 1.1772,-2.9092 3.5326,-5.7488 7.2727,-8.2427 l 1.3163,-0.831 -1.0391,-1.2467 -16.3473,-19.5336 -0.762,-0.9701 -1.039,0.6929 c -6.0955,4.0868 -12.052,5.7492 -17.7322,4.433 -5.3335,-1.2467 -10.529,-5.195 -15.4462,-12.1909 l -1.1782,-1.6625 -1.1772,1.6625 c -4.7792,6.9959 -9.9747,10.9442 -15.3082,12.1909 -5.6803,1.3162 -11.6367,-0.2771 -17.8017,-4.364 l -1.0391,-0.6924 -0.8314,0.9696 -16.3464,19.5336 -0.9705,1.1777 1.3163,0.9 c 3.741,2.494 6.0954,5.3341 7.2735,8.2432 0.762,1.8701 0.9696,3.7401 0.762,5.5412 -0.2076,1.8705 -0.901,3.6716 -2.0087,5.3335 -1.8705,2.7711 -4.9183,5.1955 -9.0051,6.8574 l -0.9,0.3467 v 0.9696 c 0.4152,16.1396 2.7011,32.2788 9.628,46.1318 6.9955,13.9234 18.7017,25.4905 38.0272,32.3489 1.5239,0.5542 2.8401,1.4543 3.9487,2.7011 1.1772,1.2466 2.2859,2.9096 3.1859,4.9182 l 1.2467,2.9087 h 0.0695 l 1.2468,-2.9087 c 0.8314,-2.0086 1.8704,-3.6716 3.1172,-4.9878 1.1771,-1.2467 2.4934,-2.1467 4.0173,-2.7011 h -0.0696 c 19.3951,-6.7888 31.1013,-18.3559 38.0977,-32.3489 6.927,-13.8529 9.2128,-29.9921 9.5585,-46.1313 l 0.0696,-0.97 z"
       style="fill:#1b1918;fill-rule:evenodd"
       id="path10" />
    <path
       d="m 151.9502,137.6468 c -6.7193,13.3682 -17.9407,24.4515 -36.5043,30.9623 -1.9391,0.6933 -3.6021,1.801 -5.1259,3.3934 -0.8314,0.9706 -1.5934,2.0097 -2.3553,3.1868 0,0.0695 0,0.0695 0,0.0695 -0.7619,-1.1781 -1.5239,-2.2172 -2.3544,-3.1867 -1.4552,-1.5934 -3.1173,-2.7011 -5.0573,-3.3935 -18.5636,-6.5803 -29.785,-17.6636 -36.5034,-30.9622 -6.5802,-13.1615 -8.7975,-28.5388 -9.2823,-43.9855 4.1564,-1.8701 7.4118,-4.5025 9.4204,-7.5503 1.3163,-2.0086 2.2172,-4.2249 2.4249,-6.5107 0.2771,-2.2859 0,-4.6412 -0.9696,-6.9269 -1.1781,-3.0478 -3.5325,-6.026 -7.066,-8.6585 L 73.1928,46.629 c 6.4422,4.0178 12.8148,5.5416 18.9103,4.1559 5.6107,-1.3158 10.9443,-5.1255 15.8616,-11.7752 5.0563,6.6497 10.3908,10.4594 16.0016,11.7062 6.0954,1.4547 12.468,-0.0691 18.8407,-4.0869 l 14.5453,17.386 c -3.463,2.6324 -5.8183,5.6107 -7.065,8.6584 -0.9001,2.2858 -1.2467,4.6412 -0.9696,6.927 0.2771,2.2857 1.1086,4.5025 2.4935,6.5111 2.0086,3.0478 5.1954,5.6798 9.4204,7.5503 -0.4848,15.4463 -2.7011,30.8246 -9.2814,43.985 z"
       style="fill:#ffffff;fill-rule:evenodd"
       id="path11" />
    <path
       d="m 126.3206,95.8091 v 60.47 c 18.6332,-11.0129 27.0839,-32.0014 28.1926,-60.47 z"
       style="fill:#1b1918;fill-rule:evenodd"
       id="path12" />
    <path
       d="m 144.5385,68.5025 c -3.9488,2.632 -6.927,5.8873 -9.0051,9.628 -1.801,3.2558 -2.9782,6.9269 -3.6706,11.0137 l 13.5757,-0.0051 v 3.7129 l -17.8016,0.0329 0.2771,-2.1477 c 0.6924,-5.4031 2.1477,-10.2514 4.5021,-14.4768 2.3553,-4.2944 5.6803,-7.8965 10.1823,-10.9443 l 1.5934,-1.039 1.9391,3.1863 z"
       style="fill:#1b1918;fill-rule:evenodd"
       id="path13" />
    <path
       d="m 89.4011,95.8091 v 60.47 C 70.6994,145.2662 62.2486,124.2777 61.2095,95.8091 Z"
       style="fill:#102a83;fill-rule:evenodd"
       id="path14" />
    <path
       d="m 67.5126,90.1293 c 4.2259,-1.4548 7.5508,-3.533 10.1128,-6.165 -2.0086,-2.0086 -3.463,-4.5716 -4.5021,-7.3422 -1.1076,-3.1867 -1.7315,-6.6498 -2.0782,-9.6975 l -0.2076,-1.801 3.6021,-0.4157 0.2076,1.801 c 0.3466,2.8396 0.901,6.0264 1.9401,8.8665 0.7619,2.2163 1.8696,4.225 3.3934,5.7488 2.7706,-3.9483 4.5716,-8.9356 5.8879,-14.8235 l 0.4152,-1.7314 3.5335,0.7619 -0.4162,1.801 c -1.4544,6.4422 -3.463,11.9834 -6.7184,16.4164 -3.2563,4.5716 -7.7583,7.8965 -14.0615,9.9747 l -1.7315,0.6233 -1.1086,-3.4634 z"
       style="fill:#102a83;fill-rule:evenodd"
       id="path15" />
    <path
       d="M 120.9871,64.6388 V 64.154 l -0.3458,-0.2081 -11.7061,-5.9189 v -3.7091 h 4.1554 v -1.9396 h -4.1554 v -4.2254 h -1.94 v 4.2254 h -4.1564 v 1.9396 h 4.1564 v 3.7091 l -11.7063,5.9189 -0.3466,0.2081 v 0.4848 l -0.0686,89.0078 v 0.7628 h 26.1829 v -0.7628 z"
       style="fill:#1b1918;fill-rule:evenodd"
       id="path16" />
    <path
       d="m 98.6139,63.8769 h 18.7025 l -9.3517,-4.7107 z"
       style="fill:#ffffff;fill-rule:evenodd"
       id="path17" />
    <path
       d="m 96.328,78.9079 h 23.2743 V 65.3312 H 96.328 Z"
       style="fill:#ffffff;fill-rule:evenodd"
       id="path18" />
    <path
       d="M 119.6023,80.3623 H 96.328 v 72.5928 h 23.2743 z"
       style="fill:#ffffff;fill-rule:evenodd"
       id="path19" />
    <path
       d="M 112.121,103.9132 V 90.1984 c 0,-2.1472 -0.4848,-7.2732 -4.1563,-7.2732 -3.5325,0 -4.1554,5.195 -4.1554,7.3422 v 13.6547 z"
       style="fill:#1b1918;fill-rule:evenodd"
       id="path20" />
    <path
       d="m 116.1383,76.4831 v -6.1646 c 0,-0.9004 -0.1381,-3.1863 -1.5239,-3.1863 -1.3848,0 -1.5934,2.2859 -1.5934,3.2554 v 6.0955 z"
       style="fill:#1b1918;fill-rule:evenodd"
       id="path21" />
    <path
       d="m 103.0474,76.4831 v -6.1646 c 0,-0.9004 -0.1391,-3.1863 -1.5239,-3.1863 -1.3858,0 -1.5934,2.2859 -1.5934,3.2554 v 6.0955 z"
       style="fill:#1b1918;fill-rule:evenodd"
       id="path22" />
    <path
       d="m 109.5581,76.4831 v -6.1646 c 0,-0.9004 -0.2076,-3.1863 -1.5934,-3.1863 -1.3848,0 -1.5925,2.2859 -1.5925,3.2554 v 6.0955 z"
       style="fill:#1b1918;fill-rule:evenodd"
       id="path23" />
    <path
       d="m 112.121,127.5246 v -13.7753 c 0,-2.1473 -0.4848,-7.2731 -4.1563,-7.2731 -3.5325,0 -4.1554,5.1948 -4.1554,7.2731 v 13.7848 z"
       style="fill:#1b1918;fill-rule:evenodd"
       id="path24" />
    <path
       d="m 112.121,150.8769 v -13.7843 c 0,-2.1477 -0.4848,-7.2737 -4.1563,-7.2737 -3.5325,0 -4.1554,5.126 -4.1554,7.2737 v 13.7843 z"
       style="fill:#1b1918;fill-rule:evenodd"
       id="path25" />
  </g>
</svg>
