<?xml version="1.0" encoding="UTF-8" standalone="no"?>
<svg
   version="1.1"
   width="1.6341153in"
   height="1.6340472in"
   viewBox="0 0 117.6563 117.65139"
   id="svg28"
   sodipodi:docname="coritiba.cdr"
   inkscape:version="0.0"
   xmlns:inkscape="http://www.inkscape.org/namespaces/inkscape"
   xmlns:sodipodi="http://sodipodi.sourceforge.net/DTD/sodipodi-0.dtd"
   xmlns="http://www.w3.org/2000/svg"
   xmlns:svg="http://www.w3.org/2000/svg">
  <defs
     id="defs28" />
  <sodipodi:namedview
     id="namedview28"
     pagecolor="#ffffff"
     bordercolor="#000000"
     borderopacity="0.25"
     inkscape:showpageshadow="2"
     inkscape:pageopacity="0.0"
     inkscape:pagecheckerboard="0"
     inkscape:deskcolor="#d1d1d1"
     inkscape:document-units="in"
     inkscape:zoom="1.7673611"
     inkscape:cx="135.79568"
     inkscape:cy="122.49902"
     inkscape:window-width="1366"
     inkscape:window-height="705"
     inkscape:window-x="1352"
     inkscape:window-y="-8"
     inkscape:window-maximized="1"
     inkscape:current-layer="Layer1003"
     showguides="false" />
  <g
     id="Layer1003"
     transform="translate(-49.1717,-49.174301)">
    <path
       d="m 108,49.267 c 32.3501,0 58.7353,26.3839 58.7353,58.733 0,32.3488 -26.3852,58.733 -58.7353,58.733 -32.3505,0 -58.7356,-26.3842 -58.7356,-58.733 0,-32.3491 26.3851,-58.733 58.7356,-58.733 z"
       style="fill:#ffffff;fill-rule:evenodd;stroke:#006e39;stroke-width:0.1854;stroke-linecap:butt;stroke-linejoin:miter;stroke-dasharray:none"
       id="path10" />
    <path
       d="m 108,51.4907 c 31.1252,0 56.5111,25.3851 56.5111,56.5093 0,31.1242 -25.3859,56.509 -56.5111,56.509 -31.1255,0 -56.5114,-25.3848 -56.5114,-56.509 0,-31.1242 25.3859,-56.5093 56.5114,-56.5093 z"
       style="fill:#006644;fill-opacity:1;fill-rule:evenodd"
       id="path11" />
    <path
       d="M 60.4606,121.6648 60.4473,119.89 c 0.9774,-0.0446 1.7764,0.1482 2.3994,0.5805 0.6214,0.4329 1.0762,1.0899 1.363,1.9726 0.3545,1.091 0.2727,2.1097 -0.2451,3.0554 -0.5169,0.9442 -1.4218,1.6268 -2.7167,2.0475 -1.3681,0.4445 -2.545,0.4366 -3.531,-0.0237 -0.9875,-0.4601 -1.6673,-1.2677 -2.0412,-2.419 -0.3266,-1.0048 -0.2948,-1.9181 0.0951,-2.7399 0.2304,-0.4876 0.6434,-0.9313 1.2412,-1.3332 l 0.9259,1.5161 c -0.3947,0.2362 -0.6647,0.5478 -0.8115,0.9368 -0.1465,0.3888 -0.1482,0.8034 -0.0049,1.2442 0.1976,0.6088 0.5767,1.0329 1.1375,1.2698 0.5617,0.238 1.3308,0.1976 2.3113,-0.121 1.0393,-0.3377 1.7176,-0.7659 2.037,-1.2825 0.3208,-0.5168 0.3825,-1.0748 0.1878,-1.6733 -0.1431,-0.4407 -0.4055,-0.7744 -0.7906,-1.0017 -0.3828,-0.2263 -0.8978,-0.3114 -1.5439,-0.2538 z m -2.164,-4.1857 c -0.8734,0.1074 -1.6234,0.067 -2.2487,-0.1208 -0.4614,-0.1426 -0.885,-0.3596 -1.2743,-0.6554 -0.3889,-0.2946 -0.6919,-0.6328 -0.909,-1.0139 -0.292,-0.5068 -0.4799,-1.109 -0.5656,-1.807 -0.1553,-1.2645 0.1116,-2.3238 0.8034,-3.1798 0.6904,-0.8541 1.7345,-1.367 3.1322,-1.5386 1.3843,-0.1701 2.5136,0.0729 3.3881,0.7305 0.8758,0.656 1.3906,1.6147 1.5452,2.8744 0.1567,1.2765 -0.1083,2.3387 -0.795,3.1864 -0.6849,0.8489 -1.7115,1.3567 -3.0763,1.5242 z m -0.2774,-1.7769 c 0.9708,-0.1194 1.6803,-0.4345 2.1256,-0.9439 0.4467,-0.5111 0.627,-1.1111 0.5421,-1.8017 -0.0848,-0.6906 -0.403,-1.2265 -0.9548,-1.6089 -0.5516,-0.3808 -1.3249,-0.5108 -2.3196,-0.3887 -0.9829,0.1206 -1.6904,0.4264 -2.1214,0.9174 -0.4296,0.4891 -0.6018,1.0926 -0.5142,1.8059 0.0877,0.7144 0.4025,1.2598 0.946,1.6356 0.5435,0.3774 1.309,0.5055 2.2963,0.3843 z m 3.4752,-9.3615 -8.5601,-1.203 0.5112,-3.638 c 0.1287,-0.9148 0.2997,-1.5674 0.5121,-1.9614 0.212,-0.3925 0.5321,-0.6857 0.9604,-0.88 0.428,-0.1931 0.894,-0.2554 1.4008,-0.1844 0.6426,0.0903 1.145,0.3547 1.5107,0.7899 0.3653,0.4371 0.5505,1.0393 0.5542,1.8049 0.2693,-0.343 0.5531,-0.6172 0.8474,-0.8242 0.2959,-0.2068 0.8036,-0.4693 1.5283,-0.7881 l 1.8163,-0.8103 -0.2902,2.0656 -2.0379,0.988 c -0.7276,0.3504 -1.1903,0.5947 -1.3868,0.7347 -0.1963,0.1387 -0.3387,0.2955 -0.4286,0.4688 -0.0901,0.1748 -0.1638,0.46 -0.2195,0.8562 l -0.0494,0.3513 3.574,0.5022 z m -4.6971,-2.4221 0.1798,-1.2795 c 0.1164,-0.828 0.1549,-1.3514 0.1135,-1.5675 -0.0411,-0.2163 -0.1395,-0.3945 -0.2936,-0.5351 -0.1553,-0.1409 -0.361,-0.2292 -0.618,-0.2654 -0.2885,-0.0406 -0.531,0.003 -0.7304,0.1321 -0.198,0.1291 -0.3407,0.3301 -0.4265,0.6048 -0.039,0.1363 -0.1087,0.5562 -0.2069,1.2558 l -0.1898,1.3495 z m 6.297,-7.1516 -8.2664,-2.5274 0.5101,-1.6686 8.2666,2.5274 z m 1.8996,-5.9961 -6.5087,-3.035 -1.0839,2.3241 -1.3254,-0.6181 2.9029,-6.2256 1.3256,0.618 -1.0819,2.3202 6.5089,3.0352 z m 2.8594,-5.642 -7.4861,-4.3222 0.8725,-1.5112 7.4861,4.3222 z m -4.3315,-9.7112 2.3119,-2.5675 c 0.4574,-0.5082 0.82,-0.8681 1.088,-1.0799 0.2667,-0.2106 0.5575,-0.3553 0.8677,-0.4311 0.3123,-0.0766 0.6403,-0.0797 0.9817,-0.01 0.3413,0.0697 0.651,0.2287 0.9292,0.4793 0.3007,0.2707 0.5029,0.6009 0.6087,0.9888 0.1047,0.3888 0.0952,0.7783 -0.0287,1.1686 0.467,-0.2884 0.9318,-0.4143 1.3965,-0.3779 0.4625,0.0367 0.8805,0.2221 1.2517,0.5565 0.2917,0.2628 0.515,0.5876 0.6687,0.9716 0.1538,0.3843 0.207,0.7672 0.1598,1.1512 -0.046,0.3851 -0.2057,0.7653 -0.4776,1.1441 -0.1715,0.2377 -0.6266,0.7725 -1.3652,1.6041 l -1.9685,2.1863 z m 2.2375,-0.3331 1.4852,1.3372 0.7656,-0.8504 c 0.4555,-0.5058 0.7294,-0.8258 0.8259,-0.9624 0.1742,-0.2453 0.2534,-0.4888 0.2416,-0.7308 -0.0125,-0.2407 -0.1219,-0.4552 -0.3295,-0.6422 -0.1985,-0.1789 -0.4095,-0.2692 -0.6331,-0.2712 -0.2224,-0.0013 -0.4439,0.0937 -0.6647,0.2849 -0.1307,0.1157 -0.4697,0.4788 -1.0203,1.09 z m 2.5542,2.2996 1.7173,1.5463 1.0818,-1.2014 c 0.4201,-0.4666 0.6731,-0.7749 0.7606,-0.9235 0.1389,-0.2246 0.195,-0.4582 0.1673,-0.7025 -0.0267,-0.2433 -0.1528,-0.4688 -0.3804,-0.6738 -0.193,-0.1738 -0.3993,-0.2741 -0.6166,-0.301 -0.2193,-0.027 -0.4381,0.0197 -0.6594,0.1415 -0.2204,0.1205 -0.596,0.4767 -1.1272,1.0667 z m 14.3072,-8.2304 -1.4962,1.1689 -1.8037,-1.0825 -2.7226,2.127 0.6476,1.9861 -1.4594,1.1401 -2.6696,-8.8841 1.4547,-1.1364 z m -4.6379,-0.7168 -2.9131,-1.7943 1.0552,3.2458 z m 8.5656,-1.4301 -3.5158,-7.8969 5.4135,-2.4104 0.5949,1.3364 -3.8195,1.7005 0.8324,1.8696 3.297,-1.4679 0.5943,1.3347 -3.2969,1.4679 1.4942,3.3562 z m 6.363,-7.417 c -0.1979,-0.8573 -0.2363,-1.6075 -0.1149,-2.2491 0.0935,-0.4738 0.2652,-0.9177 0.5187,-1.3358 0.2523,-0.4176 0.5571,-0.7542 0.9131,-1.0099 0.4739,-0.3434 1.0529,-0.5932 1.7382,-0.7514 1.2413,-0.2865 2.3227,-0.132 3.2462,0.4664 0.9217,0.5974 1.5411,1.5822 1.8578,2.9543 0.3136,1.359 0.1901,2.5076 -0.3725,3.4459 -0.5606,0.9397 -1.4603,1.5516 -2.6972,1.8374 -1.253,0.2892 -2.3369,0.1368 -3.2518,-0.4577 -0.916,-0.5924 -1.5282,-1.5603 -1.8376,-2.9001 z m 1.7384,-0.4616 c 0.2199,0.9531 0.6076,1.6255 1.1608,2.0153 0.5549,0.3909 1.1704,0.5073 1.8486,0.3507 0.6779,-0.1563 1.1775,-0.5289 1.5,-1.1176 0.3213,-0.5885 0.3698,-1.371 0.1443,-2.3476 -0.2228,-0.9648 -0.6009,-1.6367 -1.1342,-2.0138 -0.5314,-0.376 -1.1497,-0.4844 -1.8497,-0.3227 -0.7014,0.1618 -1.2109,0.5321 -1.5279,1.1118 -0.3183,0.58 -0.3657,1.3546 -0.1419,2.3239 z m 9.4341,-1.6932 c 0.0155,-0.88 0.1595,-1.6171 0.4326,-2.2103 0.2053,-0.437 0.4793,-0.8263 0.8265,-1.1705 0.3458,-0.344 0.723,-0.5973 1.1305,-0.7592 0.5427,-0.2184 1.1649,-0.3209 1.8682,-0.3085 1.2735,0.0222 2.2856,0.4339 3.0366,1.2381 0.75,0.8026 1.1126,1.9079 1.0881,3.3158 -0.0243,1.3947 -0.4223,2.4791 -1.1951,3.2537 -0.7714,0.7759 -1.7923,1.152 -3.0614,1.1301 -1.2859,-0.0225 -2.3007,-0.4329 -3.0446,-1.2307 -0.7454,-0.7966 -1.1054,-1.8836 -1.0814,-3.2585 z m 1.7984,-0.0274 c -0.0171,0.9779 0.1963,1.7243 0.6387,2.2361 0.4441,0.5134 1.0131,0.7757 1.7088,0.7878 0.6957,0.0122 1.2706,-0.2285 1.7261,-0.7218 0.4537,-0.4931 0.6904,-1.2407 0.7078,-2.243 0.0174,-0.9899 -0.1872,-1.7333 -0.6132,-2.2282 -0.4247,-0.4936 -0.9983,-0.7482 -1.7168,-0.7607 -0.7197,-0.0126 -1.3036,0.2235 -1.7514,0.7092 -0.4492,0.4857 -0.6827,1.226 -0.7,2.2206 z m 10.7299,5.1148 1.4933,-7.0248 -2.5085,-0.5333 0.3043,-1.4306 6.7189,1.4282 -0.3039,1.4307 -2.504,-0.5321 -1.4932,7.0248 z m 12.6084,-5.2311 3.0784,1.5686 c 0.6093,0.3102 1.0508,0.5673 1.3244,0.7714 0.2729,0.2031 0.4876,0.4463 0.6413,0.7265 0.1545,0.2818 0.2425,0.5976 0.2635,0.9458 0.0212,0.3478 -0.0522,0.688 -0.2223,1.0214 -0.1836,0.3606 -0.4506,0.6413 -0.7976,0.8439 -0.3484,0.2018 -0.7274,0.2934 -1.1361,0.2749 0.3995,0.3763 0.6412,0.7926 0.7262,1.251 0.0845,0.4562 0.0133,0.9081 -0.2134,1.3531 -0.178,0.3496 -0.4342,0.6494 -0.7653,0.8974 -0.3315,0.248 -0.6877,0.3985 -1.071,0.4521 -0.3837,0.0552 -0.7925,-5e-4 -1.2283,-0.165 -0.2741,-0.1041 -0.9085,-0.4054 -1.9031,-0.9036 l -2.621,-1.3355 z m 0.9009,2.0751 -0.9072,1.7805 1.0192,0.5196 c 0.6069,0.3089 0.9866,0.4907 1.1435,0.5485 0.2821,0.1048 0.5378,0.1183 0.7686,0.0444 0.2294,-0.0746 0.4083,-0.2359 0.535,-0.4847 0.1212,-0.2379 0.154,-0.4653 0.0983,-0.6817 -0.0565,-0.2151 -0.2055,-0.4046 -0.4474,-0.5683 -0.1458,-0.0964 -0.5842,-0.3298 -1.3168,-0.7033 z m -1.5603,3.0622 -1.049,2.0589 1.4404,0.734 c 0.5593,0.2849 0.9228,0.4497 1.0891,0.4957 0.2526,0.0761 0.4929,0.0697 0.7216,-0.0203 0.2281,-0.0885 0.4133,-0.2689 0.5524,-0.5417 0.1179,-0.2314 0.1611,-0.4566 0.1313,-0.6735 -0.0309,-0.2189 -0.1326,-0.4183 -0.3074,-0.6005 -0.1735,-0.1814 -0.6148,-0.4522 -1.3223,-0.8126 z m 11.3872,11.9704 -1.4962,-1.1689 0.6141,-2.0122 -2.7226,-2.1271 -1.7703,1.1087 -1.4594,-1.1401 7.9745,-4.7396 1.4547,1.1367 z m -0.4265,-4.6735 1.0363,-3.2606 -2.8943,1.8088 z m 1.7303,6.1799 6.3712,-5.7367 1.1686,1.2977 -5.2886,4.762 2.9036,3.2249 -1.0823,0.9746 z m 5.2953,6.3926 7.4247,-4.2867 0.873,1.5125 -6.1632,3.5583 2.1695,3.7581 -1.2613,0.7284 z m 9.5527,14.0586 -0.0177,1.7747 c -0.9781,0.0275 -1.7736,-0.1791 -2.389,-0.6222 -0.6137,-0.4437 -1.0569,-1.1085 -1.3284,-1.9961 -0.3354,-1.0971 -0.2356,-2.1138 0.2984,-3.0506 0.5335,-0.9349 1.4502,-1.6018 2.7522,-1.9997 1.3757,-0.4208 2.5523,-0.3922 3.5299,0.0852 0.9794,0.4773 1.6451,1.2965 1.999,2.454 0.3088,1.0105 0.261,1.9232 -0.1431,2.7382 -0.2387,0.4834 -0.6597,0.9197 -1.2643,1.3113 l -0.8992,-1.532 c 0.3985,-0.2292 0.674,-0.5362 0.8277,-0.9223 0.1532,-0.3864 0.1621,-0.801 0.0267,-1.2441 -0.1873,-0.612 -0.5586,-1.043 -1.1154,-1.2894 -0.5572,-0.248 -1.3273,-0.2208 -2.3129,0.0806 -1.0454,0.3192 -1.7307,0.7358 -2.0592,1.2465 -0.3299,0.5111 -0.4012,1.068 -0.2169,1.6699 0.1353,0.4431 0.392,0.7815 0.7728,1.0155 0.379,0.2329 0.8921,0.3267 1.5394,0.2805 z m -2.263,5.1406 8.5407,-0.7473 0.1521,1.7396 -7.0897,0.6203 0.3781,4.3229 -1.4509,0.127 z m 9.1358,9.3232 -0.2129,1.7318 -4.6472,-0.5705 c -0.7368,-0.0906 -1.2175,-0.1267 -1.4414,-0.1117 -0.3597,0.0319 -0.6648,0.1741 -0.9101,0.4267 -0.2469,0.2526 -0.4004,0.6215 -0.4595,1.1053 -0.0605,0.4913 -0.006,0.8736 0.1645,1.1486 0.1704,0.2733 0.3988,0.4551 0.6848,0.5417 0.2858,0.0853 0.768,0.1706 1.4484,0.2541 l 4.7458,0.5826 -0.2126,1.7332 -4.5063,-0.5532 c -1.0308,-0.1266 -1.7516,-0.2636 -2.1656,-0.4089 -0.4136,-0.1465 -0.7522,-0.3628 -1.0137,-0.6505 -0.2608,-0.2876 -0.4536,-0.6517 -0.5755,-1.0957 -0.1219,-0.4424 -0.1412,-1.0028 -0.058,-1.6816 0.1006,-0.8192 0.2712,-1.4295 0.5134,-1.8285 0.2409,-0.4007 0.5274,-0.7047 0.8604,-0.9133 0.3325,-0.2084 0.6687,-0.3315 1.0107,-0.3684 0.5055,-0.0537 1.2376,-0.0217 2.1979,0.0963 z m -1.8221,11.1382 -1.0677,3.286 c -0.2114,0.6504 -0.3962,1.1266 -0.5547,1.429 -0.1579,0.301 -0.3647,0.5512 -0.6174,0.7469 -0.2541,0.1967 -0.5525,0.333 -0.8927,0.4083 -0.3401,0.075 -0.6877,0.0557 -1.0437,-0.06 -0.3848,-0.1249 -0.7041,-0.3444 -0.9582,-0.6557 -0.254,-0.3125 -0.404,-0.6722 -0.4494,-1.0791 -0.309,0.4534 -0.6825,0.7574 -1.1219,0.913 -0.4375,0.1548 -0.8948,0.1552 -1.3696,7e-4 -0.3735,-0.1212 -0.7098,-0.3271 -1.0063,-0.6155 -0.2969,-0.2884 -0.5013,-0.6168 -0.6143,-0.9867 -0.1146,-0.3706 -0.1234,-0.7829 -0.0291,-1.2395 0.06,-0.2867 0.2584,-0.9603 0.5948,-2.0209 l 0.909,-2.7976 z m -1.9087,1.2146 -1.9004,-0.6175 -0.3537,1.0879 c -0.2104,0.6476 -0.3303,1.0513 -0.363,1.2154 -0.0595,0.295 -0.0325,0.5496 0.0765,0.7658 0.1094,0.2151 0.2966,0.3664 0.562,0.4525 0.2543,0.0826 0.4838,0.0795 0.6891,-0.009 0.2036,-0.0895 0.3673,-0.2665 0.4914,-0.5308 0.0724,-0.159 0.2341,-0.6285 0.4883,-1.4108 z m -3.2684,-1.0619 -2.1979,-0.7142 -0.4996,1.5373 c -0.1939,0.5972 -0.2998,0.9818 -0.3191,1.1534 -0.0357,0.2612 0.008,0.4976 0.1328,0.7096 0.1234,0.2116 0.3301,0.3661 0.6214,0.4606 0.2473,0.0803 0.4765,0.0882 0.6857,0.0246 0.2115,-0.0647 0.3924,-0.1965 0.545,-0.3975 0.1522,-0.1999 0.3505,-0.6782 0.5958,-1.4333 z"
       style="fill:#ffffff;fill-rule:evenodd"
       id="path12" />
    <path
       d="m 67.9326,138.0424 c 0.9791,0 1.7776,0.7992 1.7776,1.7793 0,0.9798 -0.7985,1.7792 -1.7776,1.7792 -0.9788,0 -1.7775,-0.7994 -1.7775,-1.7792 0,-0.9801 0.7987,-1.7793 1.7775,-1.7793 z m 80.1345,0 c -0.979,0 -1.7774,0.7992 -1.7774,1.7793 0,0.9798 0.7984,1.7792 1.7774,1.7792 0.9791,0 1.7774,-0.7994 1.7774,-1.7792 0,-0.9801 -0.7983,-1.7793 -1.7774,-1.7793 z m -72.1914,14.7104 4.708,-7.2495 2.3494,1.5257 c 0.89,0.5778 1.4459,0.9912 1.67,1.2392 0.3445,0.3784 0.5377,0.8403 0.5819,1.3875 0.0429,0.5462 -0.1216,1.1071 -0.4964,1.6845 -0.2894,0.4455 -0.6129,0.7664 -0.9722,0.9649 -0.3573,0.1981 -0.7177,0.3041 -1.0789,0.3144 -0.362,0.0113 -0.6888,-0.037 -0.983,-0.149 -0.3939,-0.1585 -0.9218,-0.4511 -1.5852,-0.8818 l -0.9545,-0.6199 -1.7757,2.7342 z m 5.3749,-5.0728 -1.336,2.0573 0.8013,0.5203 c 0.5773,0.3748 0.988,0.5876 1.231,0.6373 0.2443,0.0507 0.4727,0.0317 0.6879,-0.0589 0.2168,-0.0896 0.3928,-0.2417 0.5317,-0.4556 0.1719,-0.2646 0.2352,-0.5311 0.1926,-0.8037 -0.0447,-0.2719 -0.1711,-0.5071 -0.38,-0.7038 -0.1531,-0.1463 -0.4932,-0.3905 -1.021,-0.7331 z m 11.4097,13.5185 -1.7607,-0.7112 0.036,-2.1033 -3.2035,-1.2944 -1.396,1.554 -1.7172,-0.6941 6.3591,-6.7538 1.7114,0.6916 z m -1.6982,-4.3748 0.0973,-3.4201 -2.2834,2.5369 z m 6.5409,5.2339 1.203,-8.5602 3.638,0.5112 c 0.9147,0.1286 1.5675,0.2997 1.9613,0.5121 0.3926,0.2121 0.6859,0.5322 0.8803,0.9605 0.1928,0.4279 0.2552,0.894 0.1842,1.4006 -0.0903,0.6428 -0.3545,1.1451 -0.79,1.5109 -0.437,0.3653 -1.0391,0.5503 -1.8049,0.5541 0.3432,0.2694 0.6174,0.553 0.8245,0.8475 0.2068,0.2957 0.4692,0.8037 0.7881,1.5283 l 0.8101,1.8163 -2.0656,-0.2903 -0.9878,-2.0378 c -0.3505,-0.7276 -0.5949,-1.1903 -0.7348,-1.3868 -0.1387,-0.1962 -0.2956,-0.3388 -0.4688,-0.4286 -0.1749,-0.0901 -0.4602,-0.1637 -0.8562,-0.2195 l -0.3513,-0.0494 -0.5023,3.5739 z m 2.422,-4.6973 1.2795,0.1799 c 0.828,0.1164 1.3516,0.1547 1.5677,0.1135 0.2162,-0.0412 0.3946,-0.1394 0.5351,-0.2936 0.1408,-0.1553 0.2291,-0.3611 0.2653,-0.618 0.0406,-0.2887 -0.003,-0.5308 -0.1322,-0.7302 -0.1289,-0.1982 -0.3303,-0.3408 -0.6045,-0.4266 -0.1364,-0.0391 -0.5564,-0.1088 -1.256,-0.207 l -1.3496,-0.1897 z m 17.8329,5.0258 -1.8915,0.1654 -0.923,-1.8904 -3.442,0.301 -0.5382,2.0185 -1.845,0.1614 2.5997,-8.9046 1.8387,-0.1609 z m -3.4993,-3.1271 -1.4658,-3.0917 -0.8829,3.2971 z m 8.3139,2.0066 -2.9567,-8.1229 1.5957,-0.5808 5.2992,4.215 -1.9744,-5.4251 1.5233,-0.5544 2.9563,8.123 -1.6453,0.5987 -5.2025,-4.1042 1.9277,5.2963 z m 18.1978,-9.0056 -1.5926,1.0342 -1.7023,-1.2357 -2.8975,1.8817 0.4717,2.0349 -1.5529,1.0086 -1.8851,-9.0829 1.5481,-1.0055 z m -4.5578,-1.1182 -2.7459,-2.0412 0.7685,3.3253 z m 0.8126,-7.0636 -1.1882,0.7548 c -0.229,0.8092 0.3066,2.4006 0.8016,2.7084 l 0.3887,-0.2935 c -0.2847,-1.2072 -0.1741,-2.2522 -0.002,-3.1697 z"
       style="fill:#ffffff;fill-rule:evenodd"
       id="path13" />
    <path
       d="m 108,63.1157 c 24.7218,0 44.8854,20.163 44.8854,44.8843 0,24.7213 -20.1636,44.8844 -44.8854,44.8844 -24.7222,0 -44.8857,-20.1631 -44.8857,-44.8844 0,-24.7213 20.1635,-44.8843 44.8857,-44.8843 z"
       style="fill:#ffffff;fill-rule:evenodd"
       id="path14" />
    <path
       d="m 108,65.1933 c 23.5775,0 42.8074,19.2297 42.8074,42.8067 0,23.577 -19.2299,42.8064 -42.8074,42.8064 C 84.4223,150.8064 65.1922,131.577 65.1922,108 65.1922,84.423 84.4223,65.1933 108,65.1933 Z"
       style="fill:#006644;fill-opacity:1;fill-rule:evenodd"
       id="path15" />
    <path
       d="m 136.8101,139.6133 c -5.8007,-9.1067 -16.5504,-15.2454 -28.8102,-15.2454 -12.2601,0 -23.0098,6.1387 -28.8104,15.2454 4.9472,4.5132 10.952,7.884 17.589,9.6935 2.8777,-2.1204 6.8479,-3.4351 11.2214,-3.4351 4.373,0 8.3435,1.3144 11.2211,3.4351 6.6369,-1.8095 12.6419,-5.1803 17.5891,-9.6935 z m 0,-63.2269 c -5.8007,9.1067 -16.5504,15.2455 -28.8102,15.2455 -12.2601,0 -23.0098,-6.1388 -28.8104,-15.2455 4.9472,-4.5132 10.952,-7.8839 17.589,-9.6936 2.8777,2.1205 6.8479,3.4356 11.2214,3.4356 4.373,0 8.3435,-1.3148 11.2211,-3.4356 6.6369,1.8097 12.6419,5.1804 17.5891,9.6936 z"
       style="fill:#ffffff;fill-rule:evenodd"
       id="path16" />
    <path
       d="M 130.299,84.1711 C 126.9369,77.2947 122.3498,72.2337 115.4457,68.0815"
       style="fill:none;stroke:#006e39;stroke-width:0.2063;stroke-linecap:butt;stroke-linejoin:miter;stroke-dasharray:none"
       id="path17" />
    <path
       d="m 120.0809,89.999 c -0.5921,-6.9689 -4.5293,-15.4124 -8.289,-21.052"
       style="fill:none;stroke:#006e39;stroke-width:0.2063;stroke-linecap:butt;stroke-linejoin:miter;stroke-dasharray:none"
       id="path18" />
    <path
       d="M 107.9999,92.2171 V 69.6199"
       style="fill:none;stroke:#006e39;stroke-width:0.2063;stroke-linecap:butt;stroke-linejoin:miter;stroke-dasharray:none"
       id="path19" />
    <path
       d="m 95.9185,89.999 c 0.5922,-6.9689 4.5296,-15.4124 8.2894,-21.052"
       style="fill:none;stroke:#006e39;stroke-width:0.2063;stroke-linecap:butt;stroke-linejoin:miter;stroke-dasharray:none"
       id="path20" />
    <path
       d="m 85.7005,84.1711 c 3.3623,-6.8764 7.9492,-11.9374 14.8533,-16.0896"
       style="fill:none;stroke:#006e39;stroke-width:0.2063;stroke-linecap:butt;stroke-linejoin:miter;stroke-dasharray:none"
       id="path21" />
    <path
       d="m 130.299,131.8287 c -3.3621,6.8764 -7.9492,11.9373 -14.8533,16.0895"
       style="fill:none;stroke:#006e39;stroke-width:0.2063;stroke-linecap:butt;stroke-linejoin:miter;stroke-dasharray:none"
       id="path22" />
    <path
       d="m 120.0809,126.0008 c -0.5921,6.9691 -4.5293,15.4124 -8.289,21.0519"
       style="fill:none;stroke:#006e39;stroke-width:0.2063;stroke-linecap:butt;stroke-linejoin:miter;stroke-dasharray:none"
       id="path23" />
    <path
       d="m 107.9999,123.7826 v 22.5972"
       style="fill:none;stroke:#006e39;stroke-width:0.2063;stroke-linecap:butt;stroke-linejoin:miter;stroke-dasharray:none"
       id="path24" />
    <path
       d="m 95.9185,126.0008 c 0.5922,6.9691 4.5296,15.4124 8.2894,21.0519"
       style="fill:none;stroke:#006e39;stroke-width:0.2063;stroke-linecap:butt;stroke-linejoin:miter;stroke-dasharray:none"
       id="path25" />
    <path
       d="m 85.7005,131.8287 c 3.3623,6.8764 7.9492,11.9373 14.8533,16.0895"
       style="fill:none;stroke:#006e39;stroke-width:0.2063;stroke-linecap:butt;stroke-linejoin:miter;stroke-dasharray:none"
       id="path26" />
    <path
       d="m 112.5863,110.2247 h -4.2417 v 7.7424 h -4.6521 V 99.5253 h 10.4897 v 4.3006 h -5.8376 v 2.4147 h 4.2417 z m -17.6123,3.3362 c 0,3.6794 -1.0505,5.1584 -2.5949,7.1399 -1.4959,1.9192 -3.9558,2.8985 -7.2461,2.8985 -3.3268,0 -5.9107,-1.5795 -7.7517,-4.1775 -1.842,-2.5996 -2.7612,-5.9813 -2.7612,-10.7063 0,-4.8003 0.7718,-7.9624 2.6285,-10.5622 1.8556,-2.5977 4.6579,-4.387 8.0864,-4.205 6.194,0.3288 9.4254,5.4893 9.393,10.835 l -6.0456,0.6766 c 0,-2.0325 -0.732,-4.9669 -2.964,-4.9168 -1.4521,0.0325 -2.3717,1.2162 -2.721,2.2663 -0.3478,1.0456 -0.5778,2.9907 -0.5778,5.8307 0,1.6087 -0.0452,4.7143 0.7953,6.8637 0.5055,1.2934 1.3511,2.3326 2.7674,2.3077 1.2792,-0.0221 1.972,-1.115 2.3289,-2.3734 0.2604,-0.918 0.3418,-1.9243 0.3418,-2.6669 z m 46.2775,-3e-4 c 0,3.6797 -1.0507,5.1584 -2.5948,7.1399 -1.4962,1.9193 -3.9562,2.8985 -7.2464,2.8985 -3.3266,0 -5.9106,-1.5795 -7.7513,-4.1775 -1.8424,-2.5996 -2.7615,-5.981 -2.7615,-10.706 0,-4.8003 0.7718,-7.9626 2.6286,-10.5622 1.8553,-2.5977 4.6579,-4.3872 8.0862,-4.2052 6.194,0.329 9.4255,5.4893 9.3933,10.8349 l -6.0458,0.6769 c 0,-2.0327 -0.7321,-4.9672 -2.964,-4.917 -1.4523,0.0325 -2.3716,1.2162 -2.721,2.2662 -0.3479,1.0456 -0.5779,2.991 -0.5779,5.8308 0,1.6089 -0.0449,4.7142 0.7955,6.8639 0.5055,1.2931 1.3511,2.3323 2.7673,2.3075 1.2793,-0.0222 1.972,-1.115 2.3288,-2.3732 0.2604,-0.918 0.342,-1.9245 0.342,-2.6669 z"
       style="fill:#ffffff;fill-rule:evenodd"
       id="path27" />
    <path
       d="m 108,65.1933 c 23.5775,0 42.8074,19.2297 42.8074,42.8067 0,23.577 -19.2299,42.8064 -42.8074,42.8064 C 84.4223,150.8064 65.1922,131.577 65.1922,108 65.1922,84.423 84.4223,65.1933 108,65.1933 Z"
       style="fill:none;stroke:#006e39;stroke-width:0.1854;stroke-linecap:butt;stroke-linejoin:miter;stroke-dasharray:none"
       id="path28" />
  </g>
</svg>
