<?xml version="1.0" encoding="UTF-8" standalone="no"?>
<svg
   version="1.1"
   width="3in"
   height="3in"
   viewBox="0 0 216 216"
   id="svg21"
   sodipodi:docname="atl_mineiro.cdr"
   xmlns:inkscape="http://www.inkscape.org/namespaces/inkscape"
   xmlns:sodipodi="http://sodipodi.sourceforge.net/DTD/sodipodi-0.dtd"
   xmlns="http://www.w3.org/2000/svg"
   xmlns:svg="http://www.w3.org/2000/svg">
  <defs
     id="defs21" />
  <sodipodi:namedview
     id="namedview21"
     pagecolor="#ffffff"
     bordercolor="#000000"
     borderopacity="0.25"
     inkscape:showpageshadow="2"
     inkscape:pageopacity="0.0"
     inkscape:pagecheckerboard="0"
     inkscape:deskcolor="#d1d1d1"
     inkscape:document-units="in" />
  <g
     id="Layer1003">
    <path
       d="m 152.7635,81.0471 c -28.7795,9.9405 -44.7641,-14.0738 -44.7641,-14.0738 0,0 -15.9834,24.0143 -44.7627,14.0738 0,0 -12.2639,55.0993 44.7627,96.1094 57.0263,-41.0101 44.7641,-96.1094 44.7641,-96.1094 z"
       style="fill:#1b1918;fill-rule:evenodd"
       id="path10" />
    <path
       d="m 98.2049,80.6002 c 4.4077,-2.7636 7.6835,-5.9066 9.7945,-8.2509 2.1112,2.3443 5.3872,5.4873 9.7952,8.2509 6.9389,4.3508 17.9608,8.4805 32.2138,4.8033 0.2428,2.1226 0.4748,5.0955 0.4748,8.7383 0,5.2301 -0.478,11.8221 -2.0885,19.1879 -2.3047,10.5418 -6.4495,20.5996 -12.319,29.8943 -6.9647,11.0294 -16.4056,21.0235 -28.0763,29.7393 -11.6709,-8.7158 -21.1116,-18.7099 -28.0763,-29.7393 -5.8692,-9.2947 -10.0137,-19.3523 -12.3184,-29.8941 -1.6101,-7.3651 -2.088,-13.9564 -2.088,-19.1863 0,-3.6436 0.2321,-6.6171 0.4746,-8.7401 14.2532,3.6772 25.2748,-0.4526 32.2136,-4.8033 z"
       style="fill:#ffffff;fill-rule:evenodd"
       id="path11" />
    <path
       d="m 101.8725,111.9359 v 53.4011 c 1.964,1.709 4.0061,3.3767 6.1269,5.0002 2.1209,-1.6235 4.1627,-3.2912 6.127,-5.0002 v -53.4011 z"
       style="fill:#1b1918;fill-rule:evenodd"
       id="path13" />
    <path
       d="m 117.3945,111.9359 v 50.4504 c 4.5689,-4.2819 8.6619,-8.8076 12.254,-13.5548 v -36.8956 z"
       style="fill:#1b1918;fill-rule:evenodd"
       id="path14" />
    <path
       d="m 86.3503,111.9359 v 36.8954 c 3.5918,4.7474 7.6849,9.2729 12.2538,13.555 v -50.4504 z"
       style="fill:#1b1918;fill-rule:evenodd"
       id="path15" />
    <path
       d="m 69.4477,111.9359 c 0.0785,0.3793 0.1585,0.7598 0.2433,1.1433 2.2705,10.2754 6.3322,20.0799 12.0723,29.1418 0.4297,0.6783 0.8697,1.3527 1.3186,2.0232 v -32.3083 z"
       style="fill:#1b1918;fill-rule:evenodd"
       id="path16" />
    <path
       d="m 148.3918,94.1393 c 0,-2.3646 -0.1005,-4.4342 -0.2367,-6.162 -13.8131,2.8461 -24.5643,-1.2743 -31.4716,-5.6051 -3.6255,-2.2732 -6.5269,-4.8048 -8.6841,-6.9854 -2.1569,2.1806 -5.0581,4.7122 -8.6835,6.9853 -6.9073,4.3309 -17.6579,8.4514 -31.4713,5.6052 -0.1359,1.7283 -0.2368,3.7984 -0.2368,6.1639 0,4.1753 0.3125,9.2528 1.291,14.9125 h 78.202 c 0.9786,-5.6605 1.291,-10.7387 1.291,-14.9144 z"
       style="fill:#1b1918;fill-rule:evenodd"
       id="path17" />
    <path
       d="m 132.9167,144.2444 c 0.4492,-0.6707 0.8891,-1.3451 1.3189,-2.0236 5.7403,-9.0617 9.8021,-18.8665 12.0727,-29.1416 0.0847,-0.3837 0.1648,-0.7641 0.2434,-1.1433 h -13.635 z"
       style="fill:#1b1918;fill-rule:evenodd"
       id="path18" />
    <path
       d="m 86.9368,101.4162 c -0.3643,1.1402 -1.6974,1.8088 -3.1172,1.8088 -2.3891,0 -3.3049,-2.1103 -3.3049,-4.2207 0,-2.1104 0.9158,-4.2208 3.3049,-4.2208 1.2531,0 2.6296,0.4926 3.0612,1.4361 l 3.0732,-1.8851 c -1.199,-1.7687 -3.8137,-2.7366 -5.9729,-2.7366 -4.3007,0 -7.1695,3.2851 -7.1695,7.4064 0,4.1212 2.8688,7.4063 7.1695,7.4063 2.5812,0 5.0195,-1.1034 6.0829,-3.076 z"
       style="fill:#ffffff;fill-rule:evenodd"
       id="path19" />
    <path
       d="m 108.458,91.8966 h -3.7627 l -5.3158,14.2153 h 3.8027 l 0.8958,-2.5483 h 4.9574 l 0.8759,2.5483 h 3.8625 z m -3.5238,8.9194 1.6126,-4.9773 1.6127,4.9773 z"
       style="fill:#ffffff;fill-rule:evenodd"
       id="path20" />
    <path
       d="m 133.3236,91.8966 -2.4491,9.4769 -2.4886,-9.4769 h -5.4551 v 14.2153 h 3.484 V 95.3211 l 3.0262,10.7908 h 2.8271 l 2.9867,-10.7908 0.0395,10.7908 h 3.4843 V 91.8966 Z"
       style="fill:#ffffff;fill-rule:evenodd"
       id="path21" />
  </g>
</svg>
