<?xml version="1.0" encoding="UTF-8" standalone="no"?>
<svg
   version="1.1"
   width="1.5774889in"
   height="1.5717916in"
   viewBox="0 0 113.5792 113.169"
   id="svg22"
   sodipodi:docname="auto_esporte_pb.cdr"
   xmlns:inkscape="http://www.inkscape.org/namespaces/inkscape"
   xmlns:sodipodi="http://sodipodi.sourceforge.net/DTD/sodipodi-0.dtd"
   xmlns="http://www.w3.org/2000/svg"
   xmlns:svg="http://www.w3.org/2000/svg">
  <defs
     id="defs22" />
  <sodipodi:namedview
     id="namedview22"
     pagecolor="#ffffff"
     bordercolor="#000000"
     borderopacity="0.25"
     inkscape:showpageshadow="2"
     inkscape:pageopacity="0.0"
     inkscape:pagecheckerboard="0"
     inkscape:deskcolor="#d1d1d1"
     inkscape:document-units="in" />
  <g
     id="Layer1003"
     transform="matrix(1,0,0,0.89586155,-51.2104,-40.168551)">
    <path
       d="m 150.9277,45.3464 c -5.8055,4.623 -13.1563,7.3965 -21.1496,7.3965 -8.2837,0 -15.88,-2.9758 -21.778,-7.905 -5.8981,4.9292 -13.4945,7.905 -21.7782,7.905 -7.9927,0 -15.3441,-2.7734 -21.1495,-7.3963 L 51.5512,58.8678 c 6.8303,15.2259 9.9388,24.4512 9.9388,34.2684 0,8.3913 -2.8284,14.592 -5.564,20.5885 -2.4253,5.317 -4.7156,10.3384 -4.7156,16.312 0,6.2321 3.0539,13.007 8.1694,18.1231 5.1609,5.1603 13.3889,6.7201 21.3461,8.2297 6.8011,1.289 13.8337,2.6222 18.7182,6.1825 2.9976,2.1849 6.0479,5.281 8.556,8.5901 2.5079,-3.3091 5.5583,-6.4052 8.5558,-8.5901 4.8846,-3.5603 11.9176,-4.8935 18.7182,-6.1825 7.9577,-1.5096 16.1853,-3.0694 21.3466,-8.2297 5.1151,-5.1161 8.1689,-11.891 8.1689,-18.1231 0,-5.9736 -2.2899,-10.995 -4.7155,-16.312 -2.7356,-5.9965 -5.564,-12.1972 -5.564,-20.5885 0,-9.818 3.1084,-19.0433 9.9388,-34.2686 z"
       style="fill:#db0016;fill-rule:evenodd"
       id="path10" />
    <path
       d="m 150.717,48.3042 c -5.915,4.199 -13.1393,6.6792 -20.9389,6.6792 -8.171,0 -15.7148,-2.716 -21.778,-7.2855 -6.0628,4.5695 -13.6072,7.2855 -21.7782,7.2855 -7.7992,0 -15.0243,-2.4802 -20.9389,-6.6796 L 54.2256,59.3615 c 6.5287,14.6992 9.5048,23.866 9.5048,33.7747 0,8.8782 -3.0631,15.5941 -5.7658,21.5183 -2.3213,5.0894 -4.5137,9.8956 -4.5137,15.3822 0,5.5671 2.8786,11.9044 7.5129,16.5385 4.6728,4.6723 12.2049,6.1005 20.1797,7.6129 7.0445,1.3353 14.3284,2.7161 19.62,6.5729 2.4787,1.807 4.9915,4.2039 7.2366,6.8344 2.245,-2.6305 4.7571,-5.0274 7.236,-6.8344 5.2922,-3.8568 12.5764,-5.2376 19.621,-6.5729 7.9742,-1.5124 15.5069,-2.9406 20.1792,-7.6129 4.6341,-4.6341 7.513,-10.9714 7.513,-16.5385 0,-5.4866 -2.1921,-10.2928 -4.5139,-15.3822 -2.7026,-5.9242 -5.7657,-12.6401 -5.7657,-21.5183 0,-9.9095 2.976,-19.0763 9.5047,-33.7747 z"
       style="fill:#ffffff;fill-rule:evenodd"
       id="path11" />
    <path
       d="m 150.3448,52.0322 c -5.9784,3.7039 -13.0244,5.8506 -20.5667,5.8506 -8.0567,0 -15.5511,-2.444 -21.778,-6.6252 -6.2271,4.1812 -13.721,6.6252 -21.7782,6.6252 -7.5423,0 -14.5883,-2.1467 -20.5667,-5.8506 l -7.9758,7.9758 c 6.1431,14.0389 8.9503,23.1298 8.9503,33.1282 0,9.5079 -3.202,16.5279 -6.0273,22.7219 -2.2816,5.0018 -4.2522,9.322 -4.2522,14.1786 0,4.8258 2.5534,10.3773 6.6641,14.4885 4.0406,4.0403 11.1464,5.3879 18.6692,6.8141 7.359,1.3949 14.9693,2.8385 20.7881,7.0783 1.8826,1.3725 3.756,3.0302 5.5285,4.8566 1.7724,-1.8264 3.6457,-3.4841 5.5288,-4.8566 5.8184,-4.2398 13.4281,-5.6834 20.7877,-7.0783 7.5232,-1.4262 14.6286,-2.7738 18.6697,-6.8141 4.1102,-4.1112 6.6635,-9.6627 6.6635,-14.4885 0,-4.8566 -1.9706,-9.1768 -4.2523,-14.1786 -2.8251,-6.194 -6.027,-13.214 -6.027,-22.7219 0,-9.9988 2.8071,-19.0899 8.9497,-33.1286 z"
       style="fill:#db0016;fill-rule:evenodd"
       id="path12" />
    <path
       d="m 154.8942,120.2185 c -0.4774,-1.1131 -0.9967,-2.2517 -1.5343,-3.4306 -2.9198,-6.4011 -6.2299,-13.6568 -6.2299,-23.6517 0,-0.5299 0.01,-1.0563 0.0246,-1.5814 h -12.9461 c -5.2634,-9.0037 -15.0255,-15.0569 -26.2084,-15.0569 -11.1821,0 -20.9447,6.0532 -26.2085,15.0569 H 68.8454 c 0.0149,0.5251 0.0247,1.0515 0.0247,1.5814 0,9.9949 -3.3096,17.2506 -6.2296,23.6517 -0.5374,1.1789 -1.0569,2.3175 -1.5346,3.4306 H 80.761 c 4.9447,10.05 15.2823,16.9677 27.2391,16.9677 11.9576,0 22.2948,-6.9177 27.2389,-16.9677 z"
       style="fill:#ffffff;fill-rule:evenodd"
       id="path13" />
    <path
       d="m 108.0001,78.3759 c -15.721,0 -28.4664,12.7449 -28.4664,28.4663 0,15.7218 12.7454,28.4661 28.4664,28.4661 15.7224,0 28.4662,-12.7443 28.4662,-28.4661 0,-15.7214 -12.7438,-28.4663 -28.4662,-28.4663 z"
       style="fill:#db0016;fill-rule:evenodd"
       id="path14" />
    <path
       d="m 108.0001,84.1747 c 5.9397,0 11.343,2.2871 15.3846,6.0255 l -12.0566,10.8851 c -0.9801,-0.5678 -2.1141,-0.8983 -3.328,-0.8983 -1.214,0 -2.3486,0.3305 -3.3282,0.8983 L 92.6152,90.2002 c 4.0418,-3.7384 9.4451,-6.0255 15.3849,-6.0255 z"
       style="fill:#ffffff;fill-rule:evenodd"
       id="path15" />
    <path
       d="m 105.9574,129.4139 c -11.5614,-1.0338 -20.625,-10.7419 -20.625,-22.5717 0,-5.1087 1.6911,-9.8216 4.5426,-13.6122 l 12.0582,10.8864 c -0.3748,0.8331 -0.5885,1.7538 -0.5885,2.7258 0,2.962 1.9372,5.47 4.6127,6.3328 z"
       style="fill:#ffffff;fill-rule:evenodd"
       id="path16" />
    <path
       d="m 104.277,106.8422 c 0,-2.056 1.667,-3.7229 3.7231,-3.7229 2.056,0 3.7229,1.6669 3.7229,3.7229 0,2.0558 -1.6669,3.7227 -3.7229,3.7227 -2.0561,0 -3.7231,-1.6669 -3.7231,-3.7227 z"
       style="fill:#ffffff;fill-rule:evenodd"
       id="path17" />
    <path
       d="M 110.0427,129.4139 V 113.175 c 2.6754,-0.8628 4.6127,-3.3708 4.6127,-6.3328 0,-0.972 -0.2136,-1.8927 -0.5879,-2.7252 L 126.1252,93.23 c 2.8513,3.7906 4.5424,8.5035 4.5424,13.6122 0,11.8298 -9.0635,21.5379 -20.6249,22.5717 z"
       style="fill:#ffffff;fill-rule:evenodd"
       id="path18" />
    <path
       d="m 106.2554,95.8233 h 3.4727 l 0.5917,1.9516 h 2.1445 l -3.3286,-9.4089 h -2.2404 l -3.3597,9.4089 h 2.0794 z m 1.7282,-5.3452 h 0.0155 l 1.1686,3.7298 h -2.3847 z"
       style="fill:#db0016;fill-rule:evenodd"
       id="path19" />
    <path
       d="m 125.635,109.9544 c -0.1123,-1.3919 -1.2489,-3.3119 -4.0648,-3.3119 -2.4329,0 -4.3203,1.6636 -4.3203,4.9449 0,3.2474 1.7924,4.9431 4.2882,4.9431 2.3682,0 3.6965,-1.424 4.0969,-3.4718 h -1.9687 c -0.2398,1.152 -0.9915,1.7595 -2.0798,1.7595 -1.6647,0 -2.3362,-1.5197 -2.3362,-3.2 0,-2.6563 1.3921,-3.2957 2.3362,-3.2957 1.6156,0 1.9193,1.0719 2.0798,1.6319 z"
       style="fill:#db0016;fill-rule:evenodd"
       id="path20" />
    <path
       d="m 98.4371,106.8907 h -6.9292 v 9.3916 h 7.1536 v -1.6628 h -5.2169 v -2.4318 h 4.5766 v -1.6659 h -4.5766 v -1.9831 h 4.9925 z"
       style="fill:#db0016;fill-rule:evenodd"
       id="path21" />
    <path
       d="m 108.0001,104.7337 c -1.165,0 -2.1087,0.9441 -2.1087,2.1085 0,1.1646 0.9437,2.1083 2.1087,2.1083 1.1644,0 2.1085,-0.9437 2.1085,-2.1083 0,-1.1644 -0.9441,-2.1085 -2.1085,-2.1085 z"
       style="fill:#db0016;fill-rule:evenodd"
       id="path22" />
  </g>
</svg>
