<?xml version="1.0" encoding="UTF-8" standalone="no"?>
<svg
   version="1.1"
   width="1.5508209in"
   height="1.527143in"
   viewBox="0 0 111.65911 109.9543"
   id="svg23"
   sodipodi:docname="avai2.cdr"
   xmlns:inkscape="http://www.inkscape.org/namespaces/inkscape"
   xmlns:sodipodi="http://sodipodi.sourceforge.net/DTD/sodipodi-0.dtd"
   xmlns="http://www.w3.org/2000/svg"
   xmlns:svg="http://www.w3.org/2000/svg">
  <defs
     id="defs23" />
  <sodipodi:namedview
     id="namedview23"
     pagecolor="#ffffff"
     bordercolor="#000000"
     borderopacity="0.25"
     inkscape:showpageshadow="2"
     inkscape:pageopacity="0.0"
     inkscape:pagecheckerboard="0"
     inkscape:deskcolor="#d1d1d1"
     inkscape:document-units="in" />
  <g
     id="Layer1003"
     transform="translate(-52.170197,-69.553299)">
    <path
       d="M 162.904,69.5533 H 52.1702 v 32.6957 c 0,13.6212 5.2744,28.0685 15.2526,41.7806 9.7844,13.4454 23.6547,25.6197 40.1113,35.2063 l 0.4656,0.2717 0.4659,-0.2717 c 16.4561,-9.5866 30.3269,-21.7609 40.111,-35.2063 9.9784,-13.7121 15.2527,-28.1594 15.2527,-41.7806 V 69.5533 Z"
       style="fill:#00519e;fill-rule:evenodd"
       id="path10" />
    <path
       d="m 161.9785,71.404 c -1.8042,0 -106.1533,0 -107.9576,0 0,0.9518 0,10.0508 0,18.1215 h 107.9576 c 0,-8.0707 0,-17.1697 0,-18.1215 z"
       style="fill:#ffffff;fill-rule:evenodd"
       id="path11" />
    <path
       d="m 90.1867,92.1474 v 72.8846 c 3.5566,2.8816 7.3159,5.6329 11.2586,8.2305 V 92.1474 Z"
       style="fill:#ffffff;fill-rule:evenodd"
       id="path12" />
    <path
       d="m 114.5543,92.1474 v 81.1151 c 3.9425,-2.5976 7.7022,-5.3489 11.2586,-8.2305 V 92.1474 Z"
       style="fill:#ffffff;fill-rule:evenodd"
       id="path13" />
    <path
       d="M 150.1804,138.404 V 92.1474 H 138.922 v 60.6737 c 2.9656,-3.1984 5.6968,-6.4979 8.1582,-9.8806 1.0946,-1.5045 2.1225,-3.0176 3.1002,-4.5365 z"
       style="fill:#ffffff;fill-rule:evenodd"
       id="path14" />
    <path
       d="m 65.8191,92.1474 v 46.2566 c 0.9779,1.5189 2.0056,3.032 3.1002,4.5365 2.4619,3.3827 5.1927,6.6822 8.1583,9.8806 V 92.1474 Z"
       style="fill:#ffffff;fill-rule:evenodd"
       id="path15" />
    <path
       d="m 72.4165,85.5781 h -5.1816 l -0.7386,2.429 h -4.6677 l 5.5491,-14.8057 h 5.0232 l 5.5443,14.8057 H 73.158 Z m -0.9718,-3.2004 -1.6157,-5.3315 -1.6211,5.3315 z"
       style="fill:#00519e;fill-rule:evenodd"
       id="path17" />
    <path
       d="m 75.4405,73.2014 h 4.778 l 3.3381,10.6548 3.2845,-10.6548 h 4.6388 l -5.4906,14.8057 h -4.9564 z"
       style="fill:#00519e;fill-rule:evenodd"
       id="path18" />
    <path
       d="m 99.6,85.5781 h -5.1817 l -0.7386,2.429 H 89.012 l 5.5491,-14.8057 h 5.0232 l 5.5443,14.8057 h -4.787 z m -0.9718,-3.2004 -1.6157,-5.3315 -1.6212,5.3315 z"
       style="fill:#00519e;fill-rule:evenodd"
       id="path19" />
    <path
       d="m 106.6311,74.3557 h 4.5882 v 13.6514 h -4.5882 z"
       style="fill:#00519e;fill-rule:evenodd"
       id="path20" />
    <path
       d="m 125.7098,73.2014 h 11.2969 v 3.1616 h -6.7086 v 2.6218 h 5.7447 v 2.9689 h -5.7447 v 6.0534 h -4.5883 z"
       style="fill:#00519e;fill-rule:evenodd"
       id="path21" />
    <path
       d="m 149.6563,81.9537 4.0097,1.2175 c -0.2698,1.126 -0.6946,2.0664 -1.2741,2.8212 -0.58,0.755 -1.3001,1.3242 -2.1591,1.7086 -0.8597,0.3838 -1.9538,0.576 -3.2816,0.576 -1.6109,0 -2.9271,-0.2344 -3.9484,-0.7031 -1.0216,-0.4687 -1.903,-1.2929 -2.6446,-2.4731 -0.7416,-1.1802 -1.1121,-2.691 -1.1121,-4.5321 0,-2.4544 0.6512,-4.3413 1.9548,-5.6593 1.3032,-1.3182 3.1473,-1.9779 5.5319,-1.9779 1.8649,0 3.332,0.3778 4.3994,1.1331 1.0676,0.7556 1.861,1.9158 2.3798,3.481 l -4.0485,0.8996 c -0.1417,-0.4513 -0.2898,-0.7815 -0.4441,-0.9906 -0.2553,-0.3506 -0.5679,-0.6199 -0.9379,-0.8084 -0.3699,-0.1886 -0.7839,-0.2832 -1.2411,-0.2832 -1.0362,0 -1.8295,0.4187 -2.3809,1.2548 -0.4167,0.6212 -0.6253,1.5966 -0.6253,2.9256 0,1.6471 0.2495,2.7755 0.7488,3.3863 0.4995,0.6109 1.2019,0.9157 2.1067,0.9157 0.8772,0 1.54,-0.2464 1.9895,-0.7404 0.4487,-0.494 0.7747,-1.2109 0.9771,-2.1513 z"
       style="fill:#00519e;fill-rule:evenodd"
       id="path22" />
    <path
       d="m 107.2324,73.5026 h 4.1568 l 1.8505,-1.8549 h -4.1567 z"
       style="fill:#00519e;fill-rule:evenodd"
       id="path23" />
  </g>
</svg>
