<?xml version="1.0" encoding="UTF-8" standalone="no"?>
<svg
   version="1.1"
   width="1.9534681in"
   height="1.9541721in"
   viewBox="0 0 140.6497 140.70039"
   id="svg54"
   sodipodi:docname="bahia.cdr"
   xmlns:inkscape="http://www.inkscape.org/namespaces/inkscape"
   xmlns:sodipodi="http://sodipodi.sourceforge.net/DTD/sodipodi-0.dtd"
   xmlns="http://www.w3.org/2000/svg"
   xmlns:svg="http://www.w3.org/2000/svg">
  <defs
     id="defs54" />
  <sodipodi:namedview
     id="namedview54"
     pagecolor="#ffffff"
     bordercolor="#000000"
     borderopacity="0.25"
     inkscape:showpageshadow="2"
     inkscape:pageopacity="0.0"
     inkscape:pagecheckerboard="0"
     inkscape:deskcolor="#d1d1d1"
     inkscape:document-units="in" />
  <g
     id="Layer1003"
     transform="translate(-37.674999,-37.649799)">
    <path
       d="m 108.0497,178.3502 c 38.7167,0 70.275,-31.6097 70.275,-70.3753 0,-38.716 -31.5583,-70.3251 -70.275,-70.3251 -38.7656,0 -70.3747,31.6091 -70.3747,70.3251 0,38.7656 31.6091,70.3753 70.3747,70.3753 z"
       style="fill:#005aa3;fill-rule:evenodd"
       id="path10" />
    <path
       d="m 42.7938,108.0743 c 0,36.0373 29.3184,65.355 65.3554,65.355 36.0367,0 65.3552,-29.3177 65.3552,-65.355 0,-36.0644 -29.3185,-65.4048 -65.3552,-65.4048 -36.037,0 -65.3554,29.3404 -65.3554,65.4048 z m 4.0756,0 c 0,-33.8173 27.4899,-61.3295 61.2798,-61.3295 33.7893,0 61.2795,27.5122 61.2795,61.3295 0,33.7896 -27.4902,61.2793 -61.2795,61.2793 -33.7899,0 -61.2798,-27.4897 -61.2798,-61.2793 z"
       style="fill:#ffffff;fill-rule:evenodd"
       id="path11" />
    <path
       d="m 108.1989,144.6037 c -20.0786,0 -36.4298,-16.351 -36.4298,-36.43 0,-20.029 16.3512,-36.3803 36.4298,-36.3803 19.9793,0 36.3805,16.3513 36.3805,36.3803 0,20.079 -16.4012,36.43 -36.3805,36.43 z"
       style="fill:#ffffff;fill-rule:evenodd"
       id="path12" />
    <path
       d="m 64.6868,108.2232 c 0,23.9379 19.4524,43.4126 43.3629,43.4126 23.8832,0 43.3132,-19.4747 43.3132,-43.4126 0,-23.9104 -19.43,-43.3629 -43.3132,-43.3629 -23.9105,0 -43.3629,19.4525 -43.3629,43.3629 z m 4.0256,0 c 0,-21.6907 17.6465,-39.3371 39.3373,-39.3371 21.6633,0 39.2876,17.6464 39.2876,39.3371 0,21.7181 -17.6243,39.3869 -39.2876,39.3869 -21.6908,0 -39.3373,-17.6688 -39.3373,-39.3869 z"
       style="fill:#ffffff;fill-rule:evenodd"
       id="path13" />
    <path
       d="m 82.1562,79.8449 c 13.8167,-6.5108 20.4764,0.1489 30.5654,1.2423 9.294,3.4295 18.0902,-0.5466 26.5392,-1.789 -6.6593,26.9871 2.8826,39.213 4.5232,58.795 -18.6872,-0.8953 -33.7465,-13.1208 -55.9125,-2.3365 2.5351,-18.6872 0.3978,-37.5726 -5.7153,-55.9118 z"
       style="fill:#e41e15;fill-rule:evenodd"
       id="path14" />
    <path
       d="m 111.5786,80.6898 v 13.1706 h 25.6452 l 2.1869,-14.6121 c -10.7856,2.535 -19.4329,4.175 -27.8321,1.4415 z"
       style="fill:#ffffff;fill-rule:evenodd"
       id="path15" />
    <g
       id="Layer1004">
      <path
         d="m 166.5464,116.4236 0.3977,-2.4845 -7.2566,-1.1435 -4.8205,-0.7456 -0.2987,-0.0496 -0.397,2.4852 0.6957,0.099 4.7212,0.7457 -0.7454,4.9209 -3.9758,-0.6464 -1.4414,-0.2489 -0.3977,2.5346 1.8391,0.2979 4.8205,0.7457 5.7163,0.8952 0.397,-2.4848 -4.8704,-0.7955 0.7457,-4.8708 z"
         style="fill:#ffffff;fill-rule:evenodd"
         id="path16" />
      <path
         d="m 154.867,125.1707 -3.0315,-1.0932 -0.8454,2.3862 3.8769,1.3415 4.8205,1.6891 3.1316,1.0444 0.8447,-2.3858 -3.9763,-1.3415 z"
         style="fill:#ffffff;fill-rule:evenodd"
         id="path17" />
      <path
         d="m 154.867,98.5818 -0.7948,-0.2488 0.0991,2.6344 0.6957,0.2484 2.1376,0.6956 0.198,5.0197 -2.3356,0.9942 -0.4471,0.1985 0.0991,2.7336 0.348,-0.1491 4.8205,-2.1372 7.1573,-3.1308 -0.0995,-2.6839 -7.0578,-2.485 z m 8.9957,5.5663 -4.1752,1.6896 -0.3972,0.1989 -0.1488,-3.4292 0.546,0.1989 z"
         style="fill:#ffffff;fill-rule:evenodd"
         id="path18" />
      <path
         d="m 150.792,127.7054 -1.392,2.2864 1.8883,2.3358 -2.5847,4.2745 -2.9816,-0.4975 -1.441,2.3363 10.586,1.7391 2.7334,0.3977 1.3912,-2.2864 -4.1246,-5.2673 z m 5.0194,10.2382 -0.9444,-0.1983 -3.9267,-0.7454 1.7399,-2.9324 2.1868,2.6835 z"
         style="fill:#ffffff;fill-rule:evenodd"
         id="path19" />
      <path
         d="m 147.8597,79.8944 -4.6723,-5.1686 2.5346,-2.2861 4.1748,4.6717 1.5908,-1.3916 -4.2253,-4.6719 2.0879,-1.8885 4.5224,5.0197 0.9944,-0.8945 0.5467,-0.4972 -0.5467,-0.646 -5.6658,-6.2621 -7.5541,6.8087 -1.7397,1.5406 1.7397,1.9384 4.6217,5.1687 z"
         style="fill:#ffffff;fill-rule:evenodd"
         id="path20" />
      <path
         d="m 149.7479,87.7969 1.5404,3.9759 c 0.597,1.491 0.9943,2.4354 1.1931,2.8328 0.2979,0.5966 0.6956,1.0438 1.1431,1.3421 0.348,0.2484 0.7954,0.4473 1.2425,0.4968 0.0989,0.0499 0.2485,0.0499 0.3479,0.0499 0.5965,0.0495 1.143,0 1.6899,-0.1989 0.6956,-0.2983 1.1931,-0.696 1.5408,-1.2922 0.3479,-0.5467 0.4962,-1.2428 0.4469,-2.0378 0.249,0.2484 0.4968,0.4472 0.795,0.5966 0.2486,0.0994 0.4475,0.1984 0.6961,0.1984 0.5468,0.1494 1.0936,0.0999 1.6402,-0.099 0.4967,-0.1988 0.9437,-0.4972 1.2424,-0.8949 0.2987,-0.3973 0.5467,-0.8447 0.6463,-1.2919 0.0993,-0.4476 0.0993,-0.8948 0,-1.3916 -0.0996,-0.4972 -0.2984,-1.1929 -0.6956,-2.0874 l -1.7897,-4.6718 -1.7397,0.6461 -4.8205,1.8389 z m 9.9396,-1.1433 0.6961,-0.2484 0.5468,1.3418 c 0.3978,1.1432 0.6458,1.7894 0.7457,2.0378 0.099,0.4472 0.0497,0.7951 -0.0999,1.0438 -0.149,0.2979 -0.3977,0.4968 -0.7456,0.6461 -0.3977,0.149 -0.7454,0.149 -1.0436,0 -0.0497,0 -0.0497,0 -0.0995,0 -0.2481,-0.1493 -0.4963,-0.4476 -0.6959,-0.7954 -0.0991,-0.1989 -0.3477,-0.7456 -0.6956,-1.6897 l -0.5958,-1.5406 z m -3.9261,1.541 0.7456,1.8885 c 0.3978,1.0933 0.5966,1.7891 0.5966,2.1867 0.0493,0.3479 -0.05,0.6462 -0.2489,0.9441 -0.1488,0.2488 -0.4475,0.4476 -0.7954,0.5965 -0.3977,0.149 -0.7454,0.149 -1.0934,0.05 -0.0497,0 -0.0497,-0.05 -0.0989,-0.05 -0.2987,-0.1489 -0.4968,-0.3477 -0.6957,-0.6461 -0.1491,-0.1988 -0.3485,-0.7455 -0.6964,-1.5904 l -0.8447,-2.1869 2.2368,-0.8446 z"
         style="fill:#ffffff;fill-rule:evenodd"
         id="path21" />
      <path
         d="m 140.504,69.4575 c 0.3477,-0.6459 0.4968,-1.292 0.4469,-1.9381 -0.0992,-0.696 -0.3972,-1.2923 -0.9444,-1.8889 0.5965,0.0499 1.1434,-0.0495 1.6406,-0.2484 l 0.0493,-0.0495 c 0.4967,-0.2488 0.9445,-0.6461 1.2424,-1.1432 0.2486,-0.4473 0.3977,-0.9444 0.3977,-1.4413 0,-0.4967 -0.0498,-0.9444 -0.2481,-1.3916 -0.1994,-0.3975 -0.4975,-0.7952 -0.8953,-1.0935 -0.1488,-0.1489 -0.3476,-0.2982 -0.546,-0.4472 -0.3485,-0.2484 -0.7454,-0.4967 -1.2927,-0.845 l -2.0871,-1.2424 -2.1867,-1.2921 -5.6657,9.443 -0.7955,1.2923 0.7955,0.4473 2.8823,1.7394 c 1.3919,0.7951 2.2859,1.2923 2.6336,1.4907 0.6466,0.2488 1.2431,0.3978 1.7897,0.3483 0.1989,0 0.3479,-0.0499 0.5468,-0.0995 0.348,-0.0994 0.6957,-0.2488 1.0436,-0.4472 0.4975,-0.2983 0.8944,-0.7456 1.1931,-1.1931 z m -2.187,-1.4909 c 0,0.0495 0,0.0495 -0.0497,0.0994 -0.1989,0.3479 -0.4975,0.5467 -0.7954,0.6461 -0.348,0.0995 -0.6957,0.0995 -1.0436,-0.0499 -0.2487,-0.0495 -0.7453,-0.3477 -1.5408,-0.795 l -1.9881,-1.2424 1.74,-2.8329 1.7392,1.0436 c 0.9934,0.5965 1.5908,0.9938 1.8389,1.2921 0,0.0497 0.0498,0.0497 0.0498,0.0995 0.1989,0.2485 0.2979,0.5468 0.2979,0.7951 0.0501,0.3479 -0.0498,0.6462 -0.2482,0.9444 z m 0.3978,-4.2245 c -0.0995,-0.0496 -0.2486,-0.0994 -0.4475,-0.1989 -0.2487,-0.1985 -0.6459,-0.3974 -1.1434,-0.6956 l -1.4409,-0.845 1.4909,-2.4851 1.0934,0.6461 0.1491,0.0994 c 1.0441,0.5966 1.6398,0.9941 1.8387,1.1434 0.3479,0.2483 0.5468,0.5467 0.5966,0.845 0.05,0.3477 0,0.6456 -0.1988,0.9936 -0.2487,0.3481 -0.4968,0.5469 -0.8445,0.6463 -0.3479,0.0992 -0.6964,0.0497 -1.0936,-0.1492 z"
         style="fill:#ffffff;fill-rule:evenodd"
         id="path22" />
      <path
         d="m 131.1597,54.1005 -0.7448,-0.2488 -1.6402,-0.5467 -2.2864,6.5108 c -0.2982,0.9444 -0.5961,1.6401 -0.7955,1.9879 -0.1983,0.3977 -0.546,0.6461 -0.9437,0.7954 -0.4478,0.1989 -0.9943,0.149 -1.6902,-0.0994 -0.6956,-0.1988 -1.1426,-0.5466 -1.441,-0.9939 -0.2987,-0.3977 -0.3977,-0.8949 -0.2987,-1.3917 0,-0.3479 0.1994,-0.9939 0.5473,-2.0378 l 2.2367,-6.4114 -2.3862,-0.795 -2.137,6.3119 c -0.4477,1.3418 -0.6956,2.3357 -0.7953,3.0812 -0.0501,0.4972 0,0.9941 0.1993,1.5407 0.1983,0.5466 0.546,1.0439 0.9938,1.491 0.4968,0.4474 1.2921,0.8947 2.4348,1.2924 0.945,0.2983 1.7399,0.4472 2.4355,0.3977 0.6464,0 1.1931,-0.1988 1.6899,-0.4476 0.4975,-0.2979 0.8945,-0.6956 1.2424,-1.2425 0.3485,-0.5466 0.7455,-1.5405 1.2425,-2.9818 l 1.392,-4.0256 z"
         style="fill:#ffffff;fill-rule:evenodd"
         id="path23" />
      <path
         d="m 81.1125,68.3145 -1.7397,-2.9324 5.368,-3.2306 -1.0934,-1.7891 -5.3678,3.2307 -1.4413,-2.3856 5.8148,-3.4791 -1.0935,-1.7894 -6.759,4.0258 -1.1929,0.7456 1.1929,1.9878 5.2185,8.7474 8.1508,-4.9202 -1.0439,-1.7893 z"
         style="fill:#ffffff;fill-rule:evenodd"
         id="path24" />
      <path
         d="m 101.092,60.0147 c -0.3977,0.4968 -0.9444,0.7951 -1.5906,0.8945 -0.8945,0.149 -1.6899,-0.0496 -2.3855,-0.6462 -0.6462,-0.5467 -1.0935,-1.64 -1.3418,-3.1807 -0.2485,-1.491 -0.1494,-2.5845 0.3477,-3.33 0.4473,-0.7451 1.143,-1.1925 2.0874,-1.3417 0.6461,-0.0995 1.2424,0 1.7396,0.2983 0.5467,0.2983 0.9443,0.7455 1.1927,1.3416 l 2.3357,-0.9938 c -0.3973,-0.9444 -0.9441,-1.5903 -1.5902,-2.0379 -1.0933,-0.7455 -2.3856,-0.9939 -3.9262,-0.795 -1.7395,0.2982 -3.0317,1.0933 -3.9263,2.3856 -0.845,1.2922 -1.1432,2.9819 -0.7955,5.0695 0.2983,1.938 1.044,3.3793 2.2866,4.3237 1.2423,0.9444 2.6836,1.2921 4.3237,1.0438 1.3421,-0.1988 2.3856,-0.6961 3.1312,-1.4911 0.7455,-0.7951 1.1928,-1.8885 1.3916,-3.2801 l -2.5845,-0.3977 c -0.0495,0.9444 -0.2983,1.64 -0.6956,2.1372 z"
         style="fill:#ffffff;fill-rule:evenodd"
         id="path25" />
      <path
         d="m 110.0876,49.8264 -2.4852,-0.0499 -0.4473,12.375 8.797,0.2983 0.0996,-2.0874 -6.3121,-0.1988 z"
         style="fill:#ffffff;fill-rule:evenodd"
         id="path26" />
      <path
         d="m 68.0413,68.215 2.3856,-2.8329 -1.64,-1.3916 -1.8389,2.1868 -4.5225,5.4173 1.5901,1.3917 2.3857,-2.8329 0.5467,0.4473 7.4551,6.2124 0.3975,-0.4968 1.1927,-1.4415 -1.1927,-0.994 z"
         style="fill:#ffffff;fill-rule:evenodd"
         id="path27" />
      <path
         d="m 66.948,80.0932 c -0.2979,0.0499 -0.5962,0.0995 -0.7951,0.1491 -0.4971,0.1492 -1.0439,0.3481 -1.5906,0.696 0.3977,-1.0439 0.4476,-1.9384 0.1989,-2.7334 -0.2484,-0.7952 -0.7951,-1.3918 -1.64,-1.839 -0.6462,-0.3977 -1.2923,-0.5467 -1.9879,-0.4971 -0.2484,0 -0.4972,0.0499 -0.7456,0.1493 -0.3479,0.0994 -0.6957,0.2982 -0.994,0.5466 -0.4971,0.3974 -1.0933,1.1928 -1.7394,2.3857 l -2.5346,4.6717 5.268,2.9321 5.6658,3.1312 0.8945,-1.6402 0.2983,-0.5962 -0.2983,-0.1493 -4.2243,-2.3856 0.2484,-0.4473 c 0.2485,-0.4968 0.4969,-0.8447 0.6958,-1.0435 0.2483,-0.1989 0.4971,-0.2983 0.8449,-0.3977 0.3478,-0.0995 1.0933,-0.1989 2.2363,-0.2984 h 0.1989 l 3.0817,-0.2483 1.4907,-2.634 -2.8825,0.1489 c -0.696,0 -1.2427,0.0499 -1.6899,0.0994 z m -4.1251,0.1491 c -0.0497,0.3481 -0.3974,1.0438 -0.9441,2.0877 l -0.9444,1.64 -0.5467,-0.2982 -2.2363,-1.2424 0.9939,-1.7396 c 0.4968,-0.8949 0.795,-1.4415 0.8945,-1.5905 0.1491,-0.1489 0.2485,-0.2483 0.3479,-0.3477 0.1989,-0.0995 0.3479,-0.1989 0.5467,-0.2485 0.3478,-0.0499 0.6956,0 1.0933,0.1985 0.2983,0.1989 0.5467,0.3977 0.696,0.696 0.0992,0.2484 0.1489,0.5467 0.0992,0.8447 z"
         style="fill:#ffffff;fill-rule:evenodd"
         id="path28" />
      <path
         d="m 66.5507,128.0531 -1.839,1.0935 2.2363,3.7277 1.3916,2.2365 -1.3916,0.8455 -1.5407,0.9437 -3.2306,-5.4171 -1.789,1.0933 h -0.0496 l 0.0496,0.0998 3.1807,5.3174 -2.3357,1.3912 -0.845,-1.3415 -2.634,-4.4233 -1.839,1.0933 4.473,7.4556 0.2983,0.4961 6.262,-3.7761 4.473,-2.6843 -4.473,-7.455 z"
         style="fill:#ffffff;fill-rule:evenodd"
         id="path29" />
      <path
         d="m 60.3877,115.0323 2.0378,-0.1495 -0.1493,-2.5344 -1.8885,0.1493 -2.8329,0.1986 -0.0994,-1.64 c -0.0994,-1.143 -0.1988,-2.0376 -0.3479,-2.6343 -0.1489,-0.3976 -0.3977,-0.8448 -0.6956,-1.2422 -0.3482,-0.3977 -0.7955,-0.7455 -1.2922,-0.9943 -0.4474,-0.1986 -0.9445,-0.298 -1.5407,-0.298 -0.1494,0 -0.2983,0 -0.4473,0.0497 -0.9943,0.0497 -1.7894,0.3481 -2.3856,0.8948 -0.5966,0.4968 -0.9444,1.1429 -1.0933,1.8385 -0.0995,0.4972 -0.0995,1.4911 0.0495,3.0318 l 0.2483,4.0257 3.6284,-0.2481 z m -8.4987,-1.9382 -0.0496,-1.243 c -0.0994,-0.8944 -0.0994,-1.4905 -0.0498,-1.7889 0.0498,-0.4473 0.1989,-0.795 0.4473,-1.0933 0.2983,-0.2485 0.646,-0.4474 1.0933,-0.4474 0.0994,0 0.1989,0 0.2488,0 0.2979,0 0.5467,0.0994 0.7453,0.1989 0.2982,0.1988 0.5466,0.4473 0.6959,0.7456 0.149,0.3478 0.2484,0.9939 0.3478,1.9879 l 0.0496,1.3915 -1.8386,0.0994 z"
         style="fill:#ffffff;fill-rule:evenodd"
         id="path30" />
      <path
         d="m 56.9586,128.7987 c 0.9441,-0.2979 1.64,-0.9437 2.0374,-1.8883 0.2982,-0.6463 0.3977,-1.6899 0.2982,-3.0811 -0.0495,-1.0934 -0.0994,-1.7892 -0.0994,-2.0876 0,-0.447 0.0994,-0.7949 0.2485,-1.0436 0.1493,-0.1988 0.3481,-0.3977 0.6461,-0.4469 0.0995,-0.0498 0.1989,-0.0999 0.2983,-0.0999 0.3479,0 0.6956,0.0999 1.0438,0.2979 0.4473,0.2982 0.7951,0.7955 1.0435,1.5909 0.2487,0.7457 0.2487,1.3915 0,1.938 -0.1988,0.5468 -0.6956,0.9943 -1.4412,1.3915 l 0.9939,2.2865 c 1.2923,-0.5966 2.1373,-1.392 2.5846,-2.4356 0.3976,-1.0435 0.3976,-2.3357 -0.0995,-3.8268 -0.3478,-1.0435 -0.7455,-1.839 -1.2922,-2.4355 -0.4969,-0.5958 -1.143,-0.9935 -1.839,-1.1924 -0.3478,-0.05 -0.646,-0.099 -0.9939,-0.099 -0.3479,0 -0.7456,0.049 -1.0935,0.1483 -0.7455,0.2486 -1.3416,0.6463 -1.7394,1.0933 -0.4473,0.4976 -0.6957,1.0441 -0.7951,1.7397 -0.0995,0.6466 -0.0995,1.5903 0,2.8333 0.0994,1.2917 0.0495,2.0871 -0.0995,2.4848 -0.0994,0.2979 -0.2983,0.4975 -0.5965,0.5966 -0.298,0.099 -0.5962,0.0492 -0.8446,-0.1491 -0.4474,-0.2986 -0.7457,-0.7954 -0.994,-1.491 -0.1989,-0.6957 -0.2488,-1.243 -0.0994,-1.6407 0.1489,-0.447 0.5466,-0.7949 1.1429,-1.0936 l -0.8946,-2.3848 c -0.2982,0.0991 -0.5467,0.2479 -0.795,0.3477 -0.6461,0.3977 -1.1433,0.9938 -1.4416,1.6895 -0.4472,0.9942 -0.3974,2.1866 0.0995,3.7277 0.2983,0.8952 0.696,1.6401 1.1927,2.1866 0.05,0.0501 0.0995,0.1496 0.1494,0.1989 0.4472,0.447 0.9441,0.7457 1.5407,0.8945 0.5961,0.1498 1.2422,0.1498 1.8389,-0.0498 z"
         style="fill:#ffffff;fill-rule:evenodd"
         id="path31" />
      <path
         d="m 51.6405,98.7806 c 0.348,0.6457 0.7952,1.1429 1.2924,1.5902 0.1988,0.1989 0.4472,0.3479 0.6461,0.4972 0.6461,0.3973 1.3913,0.6956 2.2862,0.944 1.7394,0.4971 3.2302,0.4971 4.5225,-0.0495 0.149,-0.0994 0.2983,-0.149 0.4473,-0.2484 1.3916,-0.7456 2.336,-1.988 2.8828,-3.7773 0.4967,-1.7891 0.3477,-3.3297 -0.4474,-4.7214 -0.5966,-1.0438 -1.541,-1.839 -2.8827,-2.4355 -0.3479,-0.149 -0.7951,-0.298 -1.2424,-0.4473 -1.9384,-0.5467 -3.6283,-0.4472 -5.0196,0.2983 -0.1989,0.0994 -0.3483,0.1989 -0.5467,0.2983 -1.0933,0.7951 -1.8888,1.938 -2.3361,3.479 -0.2485,0.994 -0.3479,1.8885 -0.2485,2.7334 0.0496,0.5963 0.2984,1.2425 0.6461,1.839 z m 1.6897,-4.0258 c 0.0994,-0.2486 0.1494,-0.4475 0.2488,-0.6461 0.3478,-0.646 0.8447,-1.1432 1.4412,-1.4415 0.8945,-0.4472 1.9879,-0.4472 3.3796,-0.0495 0.795,0.2484 1.4911,0.5466 1.9879,0.9444 0.3978,0.2483 0.6461,0.5466 0.8945,0.8945 0.4972,0.845 0.5966,1.7395 0.3478,2.6839 -0.1985,0.7452 -0.6457,1.3418 -1.2423,1.7891 -0.1491,0.0994 -0.2983,0.1988 -0.4968,0.2983 -0.8949,0.4472 -2.0378,0.4472 -3.3796,0.0495 -1.3916,-0.3977 -2.3361,-0.9939 -2.8329,-1.7891 -0.0499,-0.0498 -0.0499,-0.0994 -0.0994,-0.1492 -0.4473,-0.7453 -0.4972,-1.6401 -0.2488,-2.5843 z"
         style="fill:#ffffff;fill-rule:evenodd"
         id="path32" />
    </g>
    <g
       id="Layer1005">
      <path
         d="m 121.5186,152.2573 -1.8888,0.4975 c 0,0.8447 -0.3476,1.5896 -0.8952,2.335 -0.496,0.6963 -0.9935,1.1931 -1.4903,1.541 -0.0501,0.0498 -0.099,0.0999 -0.1491,0.0999 l 0.1491,0.5957 0.397,1.5411 c 1.0442,-0.6959 1.8887,-1.5411 2.4853,-2.5846 l 2.3357,8.7472 2.2868,-0.5961 z"
         style="fill:#ffffff;fill-rule:evenodd"
         id="path33" />
      <path
         d="m 116.6477,160.7563 c -0.4478,-0.4976 -1.0435,-0.7954 -1.7891,-0.9445 1.1931,-0.6964 1.7391,-1.5901 1.6893,-2.6835 -0.0493,-0.7954 -0.3969,-1.4913 -0.9935,-2.0385 -0.7457,-0.7454 -1.7392,-1.0436 -2.8826,-0.9936 -0.6956,0.0498 -1.2921,0.1989 -1.839,0.4976 -0.5464,0.2979 -0.9937,0.6455 -1.2422,1.1425 -0.2983,0.4468 -0.4971,1.0441 -0.5967,1.8388 l 2.1869,0.2488 c 0.0498,-0.5472 0.1989,-0.9942 0.4976,-1.2921 0.2478,-0.2987 0.5958,-0.4478 0.9934,-0.4478 0.4476,-0.0492 0.7955,0.05 1.0436,0.2987 0.2487,0.2481 0.3977,0.5958 0.4475,0.9935 0,0.4976 -0.1496,0.8948 -0.4975,1.2432 -0.2979,0.298 -0.7947,0.447 -1.4411,0.496 l -0.149,1.9388 c 0.3977,-0.1491 0.7954,-0.1988 1.0933,-0.2481 0.4478,0 0.8447,0.1483 1.1927,0.4962 0.3484,0.3477 0.5472,0.7955 0.5472,1.3921 0.0499,0.6463 -0.0998,1.143 -0.3976,1.5402 -0.348,0.3978 -0.7457,0.5971 -1.2433,0.6464 -0.4466,0 -0.8444,-0.0991 -1.1923,-0.3977 -0.348,-0.2979 -0.5468,-0.7449 -0.6463,-1.342 l -2.3355,0.3977 c 0.1988,1.0433 0.6461,1.8888 1.4415,2.4853 0.7946,0.5967 1.7392,0.8945 2.8825,0.8448 1.1932,-0.0999 2.1369,-0.4971 2.9324,-1.3415 0.3976,-0.4477 0.6956,-0.9453 0.8944,-1.4913 0.099,-0.4475 0.1488,-0.895 0.1488,-1.3419 0,-0.348 -0.0498,-0.6467 -0.1488,-0.8946 -0.1491,-0.3977 -0.3479,-0.7456 -0.5966,-1.0435 z"
         style="fill:#ffffff;fill-rule:evenodd"
         id="path34" />
      <path
         d="m 104.1234,154.0462 c -0.0994,0 -0.149,0 -0.2485,0 -1.0435,0 -1.9383,0.3479 -2.6835,1.0436 -0.7954,0.6963 -1.2426,1.7399 -1.2923,2.9823 -0.0498,1.2429 0.2485,2.2365 0.8946,3.0318 0.6956,0.7955 1.5406,1.1927 2.4851,1.2425 0.2484,0.0493 0.4472,0 0.5961,0 0.6462,-0.0991 1.2425,-0.3977 1.7396,-0.8945 -0.1988,1.3912 -0.4473,2.3358 -0.845,2.7827 -0.2484,0.2987 -0.5467,0.4976 -0.8946,0.5971 -0.0994,0 -0.2483,0 -0.3977,0 -0.3477,0 -0.6956,-0.1496 -0.8944,-0.3977 -0.2485,-0.1994 -0.3479,-0.5966 -0.3974,-1.044 l -2.3361,0.149 c 0.0995,1.0433 0.4473,1.8388 1.0438,2.3864 0.5467,0.546 1.3418,0.8438 2.3358,0.8936 0.1989,0 0.4472,0 0.646,0 1.0934,-0.099 1.988,-0.546 2.7335,-1.3414 0.8945,-0.9943 1.3917,-2.5844 1.5408,-4.8709 0.0994,-2.2367 -0.1987,-3.876 -0.9941,-4.9196 -0.7455,-1.0444 -1.7394,-1.5909 -3.0317,-1.6409 z m 0.8449,6.1136 c -0.2983,0.2978 -0.6461,0.4469 -1.0934,0.4469 0,0 -0.0494,0 -0.0994,0 -0.4472,0 -0.845,-0.1984 -1.1429,-0.596 -0.2983,-0.3977 -0.4472,-0.9944 -0.3977,-1.789 0.0499,-0.7954 0.2485,-1.392 0.5467,-1.74 0.2983,-0.2986 0.6956,-0.4469 1.0933,-0.4469 0.05,0 0.05,0 0.05,0 0.4472,0.0492 0.8446,0.2481 1.1925,0.6959 0.2983,0.4467 0.4474,1.0433 0.4474,1.8387 -0.0497,0.6959 -0.2485,1.2424 -0.5965,1.5904 z"
         style="fill:#ffffff;fill-rule:evenodd"
         id="path35" />
      <path
         d="m 95.2274,154.5938 c -0.845,0.3476 -1.6402,0.546 -2.2862,0.5958 l -0.5467,2.0871 c 1.2423,-0.0492 2.3856,-0.3479 3.479,-0.9438 l -2.3857,8.747 2.3358,0.596 3.2801,-12.1265 -1.8884,-0.4968 c -0.4971,0.6459 -1.143,1.1925 -1.9879,1.5412 z"
         style="fill:#ffffff;fill-rule:evenodd"
         id="path36" />
    </g>
    <path
       d="m 137.4221,153.2018 c 1.8888,0 3.4296,-1.5404 3.4296,-3.4294 0,-1.8887 -1.5408,-3.4296 -3.4296,-3.4296 -1.839,0 -3.3793,1.5409 -3.3793,3.4296 0,1.889 1.5403,3.4294 3.3793,3.4294 z"
       style="fill:#ffffff;fill-rule:evenodd"
       id="path37" />
    <path
       d="m 78.0807,154.4439 c 1.8389,0 3.3795,-1.5408 3.3795,-3.4291 0,-1.8888 -1.5406,-3.4291 -3.3795,-3.4291 -1.8885,0 -3.4291,1.5403 -3.4291,3.4291 0,1.8883 1.5406,3.4291 3.4291,3.4291 z"
       style="fill:#ffffff;fill-rule:evenodd"
       id="path38" />
    <path
       d="m 81.166,77.2293 -5.722,0.6579 8.8057,76.5676 6.4079,-0.7368 -8.8057,-76.5672 z"
       style="fill:#ffffff;fill-rule:evenodd"
       id="path39" />
    <path
       d="m 144.279,138.0514 c -0.5422,-6.4762 -1.9624,-12.2268 -3.3356,-17.7889 -2.7731,-11.233 -5.6408,-22.8484 -1.1998,-40.8453 l 0.1778,-0.7183 -0.7327,0.1076 c -2.2237,0.3269 -4.5118,0.8511 -6.7246,1.3579 -6.3129,1.4453 -12.8397,2.9401 -19.5711,0.4567 l -0.0567,-0.0212 -0.0612,-0.0068 c -2.9904,-0.3238 -5.7285,-1.1611 -8.376,-1.9707 -6.2064,-1.8976 -12.6238,-3.8598 -22.4548,0.7729 l -0.3992,0.1881 0.1396,0.4186 c 6.2483,18.7449 8.1644,37.4812 5.6945,55.6885 l -0.1247,0.9197 0.8345,-0.4058 c 14.6727,-7.1394 25.9243,-4.154 37.8369,-0.9925 5.7049,1.5142 11.604,3.0794 17.8339,3.3772 l 0.5663,0.0271 z m -18.0982,-3.8005 c -11.3565,-3.0133 -23.0989,-6.1061 -37.7281,0.6976 0.6263,-4.8947 0.965,-9.8223 0.965,-14.7809 0,-0.3479 -0.0101,-0.6958 -0.0133,-1.0435 -0.0322,-3.539 -0.219,-7.0909 -0.5689,-10.6528 7.2759,-2.7951 14.9404,-3.8058 23.0907,-2.3822 l -0.1454,-24.626 c 0.275,0.039 0.5499,0.0785 0.8296,0.1095 6.9858,2.5549 13.6398,1.0341 20.0754,-0.4396 2.0451,-0.4681 3.9872,-0.8948 5.932,-1.2134 -1.553,6.5287 -2.176,12.24 -2.176,17.3803 0,3.7794 0.3264,7.2596 0.8333,10.5597 0.6632,4.3156 1.6372,8.3208 2.6121,12.2702 0.0303,0.1234 0.0606,0.2474 0.091,0.3708 1.3212,5.3489 2.6687,10.8867 3.2403,17.0398 -5.9084,-0.3614 -11.5662,-1.8377 -17.0377,-3.2895 z"
       style="fill:#005aa3;fill-rule:evenodd"
       id="path40" />
    <path
       d="m 76.2088,78.4943 8.6479,75.1961 5.0362,-0.5797 -8.648,-75.1955 z"
       style="fill:#005aa3;fill-rule:evenodd"
       id="path41" />
    <g
       id="Layer1006">
      <path
         d="m 139.8872,120.1298 c -17.5272,0.8554 -32.4199,-5.5538 -50.4828,-1.0057 0.0032,0.3477 0.0133,0.6956 0.0133,1.0435 0,4.9586 -0.3387,9.8862 -0.965,14.7809 14.6292,-6.8037 26.3716,-3.7109 37.7281,-0.6976 5.4715,1.4518 11.1293,2.9281 17.0377,3.2895 -0.5716,-6.1531 -1.9191,-11.6909 -3.2403,-17.0398 -0.0304,-0.1234 -0.0607,-0.2474 -0.091,-0.3708 z"
         style="fill:none"
         id="path42" />
    </g>
    <g
       id="Layer1007">
      <path
         d="m 137.2751,107.8596 c -0.5069,-3.3001 -0.8333,-6.7803 -0.8333,-10.5597 0,-5.1403 0.623,-10.8516 2.176,-17.3803 -1.9448,0.3186 -3.8869,0.7453 -5.932,1.2134 -6.4356,1.4737 -13.0896,2.9945 -20.0754,0.4396 -0.2797,-0.031 -0.5546,-0.0705 -0.8296,-0.1095 l 0.1436,24.5974 c 8.1949,0.7802 16.7619,2.2335 25.3507,1.7991 z"
         style="fill:none"
         id="path43" />
    </g>
    <path
       d="m 139.8872,120.1298 c -0.9749,-3.9494 -1.9489,-7.9546 -2.6121,-12.2702 -8.5888,0.4344 -25.3489,-1.7705 -25.3489,-1.7705 -8.1503,-1.4236 -15.8148,-0.4129 -23.0907,2.3822 0.3499,3.5619 0.5367,7.1138 0.5689,10.6528 18.0629,-4.5481 32.9556,1.8611 50.4828,1.0057 z"
       style="fill:#ffffff;fill-rule:evenodd"
       id="path44" />
    <path
       d="m 97.9608,103.5516 c -5.2684,0 -9.5424,-5.1192 -9.5424,-11.3812 0,-6.3119 4.274,-11.4309 9.5424,-11.4309 5.2185,0 9.5421,5.119 9.5421,11.4309 0,6.262 -4.3236,11.3812 -9.5421,11.3812 z"
       style="fill:#ffffff;fill-rule:evenodd"
       id="path45" />
    <path
       d="m 92.7391,86.0074 c 2.7632,-1.3022 4.0952,0.0297 6.113,0.2483 1.8587,0.6859 3.618,-0.1092 5.3078,-0.3577 -1.3319,5.3974 0.5765,7.8426 0.9047,11.7591 -3.7375,-0.1792 -6.7493,-2.6242 -11.1826,-0.4673 0.507,-3.7375 0.0796,-7.5147 -1.1429,-11.1824 z"
       style="fill:#e41e15;fill-rule:evenodd"
       id="path46" />
    <path
       d="m 98.6235,86.1763 v 2.6342 h 5.1289 l 0.4374,-2.9225 c -2.1571,0.507 -3.8865,0.835 -5.5663,0.2883 z"
       style="fill:#ffffff;fill-rule:evenodd"
       id="path47" />
    <path
       d="m 92.5409,85.4842 -1.1443,0.1316 1.7611,15.3135 1.2816,-0.1473 -1.7612,-15.3135 z"
       style="fill:#ffffff;fill-rule:evenodd"
       id="path48" />
    <path
       d="m 105.1636,97.6486 c -0.1085,-1.2951 -0.3925,-2.4452 -0.6672,-3.5578 -0.5545,-2.2465 -1.1282,-4.5696 -0.2399,-8.169 l 0.0355,-0.1436 -0.1465,0.0215 c -0.4448,0.0654 -0.9023,0.1702 -1.3449,0.2716 -1.2625,0.289 -2.5679,0.5881 -3.9142,0.0913 L 98.875,86.1583 98.8628,86.157 c -0.5981,-0.0648 -1.1457,-0.2322 -1.6753,-0.3941 -1.2412,-0.3795 -2.5247,-0.7719 -4.4909,0.1546 l -0.0798,0.0375 0.0278,0.0838 c 1.2498,3.749 1.633,7.4962 1.1391,11.1377 l -0.0251,0.184 0.167,-0.0812 c 2.9345,-1.4279 5.1848,-0.8308 7.5674,-0.1986 1.141,0.3029 2.3208,0.6159 3.5667,0.6755 l 0.1133,0.0054 z m -3.6197,-0.76 c -2.2713,-0.6027 -4.6198,-1.2213 -7.5456,0.1395 0.1252,-0.979 0.193,-1.9645 0.193,-2.9562 0,-0.0696 -0.002,-0.1392 -0.0027,-0.2087 -0.0063,-0.7078 -0.0438,-1.4182 -0.1137,-2.1305 1.4552,-0.5591 2.9881,-0.7613 4.6181,-0.4766 l -0.0291,-4.9252 c 0.055,0.0079 0.11,0.0158 0.166,0.0219 1.397,0.5111 2.7279,0.207 4.015,-0.0878 0.409,-0.0936 0.7975,-0.179 1.1864,-0.2427 -0.3106,1.3057 -0.4352,2.448 -0.4352,3.476 0,0.7559 0.0653,1.4521 0.1667,2.112 0.1326,0.8631 0.3275,1.6641 0.5225,2.4541 0.006,0.0246 0.012,0.0494 0.0181,0.0741 0.2642,1.0698 0.5337,2.1774 0.6481,3.408 -1.1817,-0.0723 -2.3133,-0.3675 -3.4076,-0.6579 z"
       style="fill:#005aa3;fill-rule:evenodd"
       id="path49" />
    <path
       d="m 91.5495,85.7372 1.7296,15.0392 1.0073,-0.1158 -1.7297,-15.0391 z"
       style="fill:#005aa3;fill-rule:evenodd"
       id="path50" />
    <g
       id="Layer1008">
      <path
         d="m 104.2853,94.0644 c -3.5056,0.171 -6.484,-1.1108 -10.0967,-0.2012 7e-4,0.0695 0.0027,0.1391 0.0027,0.2087 0,0.9917 -0.0678,1.9772 -0.193,2.9562 2.9258,-1.3608 5.2743,-0.7422 7.5456,-0.1395 1.0943,0.2904 2.2259,0.5856 3.4076,0.6579 -0.1144,-1.2306 -0.3839,-2.3382 -0.6481,-3.408 -0.006,-0.0247 -0.0122,-0.0495 -0.0181,-0.0741 z"
         style="fill:none"
         id="path51" />
    </g>
    <g
       id="Layer1009">
      <path
         d="m 103.7628,91.6103 c -0.1014,-0.6599 -0.1667,-1.3561 -0.1667,-2.112 0,-1.028 0.1246,-2.1703 0.4352,-3.476 -0.3889,0.0637 -0.7774,0.1491 -1.1864,0.2427 -1.2871,0.2948 -2.618,0.5989 -4.015,0.0878 -0.056,-0.0061 -0.111,-0.014 -0.166,-0.0219 l 0.0287,4.9195 c 1.6391,0.1561 3.3525,0.4467 5.0702,0.3599 z"
         style="fill:none"
         id="path52" />
    </g>
    <path
       d="m 104.2853,94.0644 c -0.195,-0.79 -0.3899,-1.591 -0.5225,-2.4541 -1.7177,0.0868 -5.0698,-0.3542 -5.0698,-0.3542 -1.63,-0.2847 -3.1629,-0.0825 -4.6181,0.4766 0.0699,0.7123 0.1074,1.4227 0.1137,2.1305 3.6127,-0.9096 6.5911,0.3722 10.0967,0.2012 z"
       style="fill:#ffffff;fill-rule:evenodd"
       id="path53" />
    <path
       d="m 95.8999,90.7487 c -1.0537,0 -1.9085,-1.0238 -1.9085,-2.2762 0,-1.2625 0.8548,-2.2862 1.9085,-2.2862 1.0437,0 1.9085,1.0237 1.9085,2.2862 0,1.2524 -0.8648,2.2762 -1.9085,2.2762 z"
       style="fill:#ffffff;fill-rule:evenodd"
       id="path54" />
  </g>
</svg>
