<?xml version="1.0" encoding="UTF-8" standalone="no"?>
<svg
   version="1.1"
   width="1.5269798in"
   height="1.5310653in"
   viewBox="0 0 109.94255 110.2367"
   id="svg63"
   sodipodi:docname="BANGU.cdr"
   xmlns:inkscape="http://www.inkscape.org/namespaces/inkscape"
   xmlns:sodipodi="http://sodipodi.sourceforge.net/DTD/sodipodi-0.dtd"
   xmlns="http://www.w3.org/2000/svg"
   xmlns:svg="http://www.w3.org/2000/svg">
  <defs
     id="defs63" />
  <sodipodi:namedview
     id="namedview63"
     pagecolor="#ffffff"
     bordercolor="#000000"
     borderopacity="0.25"
     inkscape:showpageshadow="2"
     inkscape:pageopacity="0.0"
     inkscape:pagecheckerboard="0"
     inkscape:deskcolor="#d1d1d1"
     inkscape:document-units="in" />
  <g
     id="Layer1003"
     transform="matrix(1,0,0,0.95234093,-53.028557,-47.73447)">
    <path
       d="m 143.1628,60.9428 c -0.7024,0.7037 -1.5821,1.0547 -2.7263,1.1433 -6.1568,0.44 -11.9621,-0.4396 -17.5044,-2.7276 -5.3653,-2.1988 -10.3774,-5.3646 -14.9521,-9.2352 -4.3101,3.8706 -9.2356,6.8615 -14.7767,9.2352 -5.5416,2.288 -11.4348,3.1676 -17.5918,2.7276 -1.0557,-0.0886 -2.0232,-0.4396 -2.6385,-1.1433 h -0.0879 l -0.1765,-0.0879 -11.6983,14.953 c 0.0884,0 0.0884,0.0881 0.0884,0.0881 0.0876,0 0.2635,0.0874 0.4397,0.2639 l 0.0875,0.0881 c 4.2221,3.5184 6.1571,8.3555 5.9814,14.6879 -0.264,6.3334 -2.5509,11.4345 -7.0366,15.3051 -4.3099,3.8706 -6.773,8.6199 -7.3886,14.2483 l -0.0881,0.8798 c -0.2635,3.9579 0.2638,7.5655 1.6712,10.9068 0.8797,1.8467 1.8475,3.606 2.9029,5.0147 l 0.0881,0.1753 c 1.8467,2.4633 4.2219,4.6626 7.0366,6.8614 2.1108,1.407 4.4852,2.7264 7.2125,3.8687 l 2.2871,0.7919 c 4.3976,1.6717 9.3231,3.0785 14.6007,4.3105 5.4535,1.144 9.8513,3.4307 13.3695,6.8614 l 5.7174,5.7169 0.7917,-0.6162 4.4856,-4.4859 0.4396,-0.6148 c 3.695,-3.4307 8.1805,-5.7174 13.4583,-6.8614 5.3652,-1.232 10.2903,-2.6388 14.6004,-4.3105 l 2.2869,-0.7919 c 2.8153,-1.1423 5.1897,-2.4617 7.2135,-3.8687 2.9013,-2.1988 5.2772,-4.3981 7.0364,-6.8614 l 0.0875,-0.1753 c 1.4072,-1.9362 2.3742,-3.6077 2.9023,-5.0147 1.4078,-3.3413 1.9353,-6.9489 1.5832,-10.9068 l -0.0874,-0.8798 c -0.5275,-5.7171 -2.9909,-10.4663 -7.301,-14.2483 -4.3981,-3.7831 -6.685,-8.8832 -7.037,-15.3051 -0.175,-6.3324 1.7592,-11.1695 5.9819,-14.6879 l 0.0874,-0.0881 c 0.0875,-0.089 0.2646,-0.1765 0.4402,-0.2639 l 0.0875,-0.0881 -11.6975,-14.953 z"
       style="fill:#e41e15;fill-rule:evenodd"
       id="path10" />
    <path
       d="m 61.8019,108.3529 c -3.6942,3.3408 -5.7175,7.4758 -6.157,12.3133 l -0.1762,0.7029 53.8306,40.1976 2.8148,-2.9912 c 2.4623,-2.374 5.3653,-4.2225 8.3561,-5.6294 z"
       style="fill:#ffffff;fill-rule:evenodd"
       id="path11" />
    <path
       d="m 69.8943,91.0234 c -0.0881,2.0243 -0.2642,3.6955 -0.6163,5.1902 l 68.5196,51.7195 5.3652,-1.936 c 2.5509,-1.0547 4.8376,-2.2865 6.7735,-3.6936 l 0.9677,-0.615 -84.3524,-63.5944 c 2.4635,3.5185 3.6066,7.8291 3.3427,12.9293 z"
       style="fill:#ffffff;fill-rule:evenodd"
       id="path12" />
    <path
       d="m 73.2365,63.9332 -0.1759,0.2629 86.814,65.0887 c 0.7047,-2.374 0.9681,-5.0127 0.7047,-7.7393 l -0.0881,-0.8793 c -0.5281,-4.9251 -2.7269,-9.1475 -6.5089,-12.666 L 93.1152,61.91 c -5.5416,2.1112 -11.4348,2.9909 -17.5918,2.5513 -0.7915,-0.0874 -1.4953,-0.2652 -2.2869,-0.5281 z"
       style="fill:#ffffff;fill-rule:evenodd"
       id="path13" />
    <path
       d="m 138.4132,64.5488 c -5.3657,0.1761 -10.9059,-0.7922 -16.4483,-2.9023 -5.1017,-2.1988 -9.7627,-5.0138 -13.9849,-8.4448 l -2.9024,2.288 41.2517,30.696 c 0.7035,-4.3091 2.4627,-7.9155 5.4538,-10.7299 l -0.8791,-1.2316 z"
       style="fill:#ffffff;fill-rule:evenodd"
       id="path14" />
    <path
       d="m 117.6548,70.7061 c 0,-0.0879 0,-0.1754 0,-0.2639 -0.088,-0.0886 -0.1754,-0.0886 -0.2629,-0.0886 h -13.8977 c -0.0886,0 -0.1759,0 -0.264,0.0886 0,0.0885 -0.0882,0.176 -0.0882,0.2639 l -0.0878,4.3097 c 0,0 0,0.0879 0.0878,0.1754 l 0.0882,0.0886 c 0.3516,0.176 0.4397,0.3516 0.5278,0.7036 v 0 c -0.0881,1.8466 -0.1762,3.8705 -0.3524,5.8047 -6.6841,1.3192 -10.7303,3.958 -12.2257,7.6536 0,0.0875 -0.0881,0.175 -0.0881,0.2625 0,0.0885 0,0.0885 0,0.1771 l 0.0881,1.9348 c -0.7916,0.2646 -1.4074,0.3521 -2.1109,0.0869 -0.6157,-0.351 -1.2316,-1.0545 -1.8473,-2.0217 0,-0.0886 0,-0.1771 -0.088,-0.2646 -0.6155,-2.3742 -2.3746,-3.431 -4.925,-3.1658 -0.0881,0 -0.0881,0.0874 -0.1762,0.0874 -0.0881,0.0875 -0.0881,0.1761 -0.0881,0.1761 0,0.0885 0,0.176 0.0881,0.176 1.8469,3.1665 2.6385,6.5094 2.2867,9.9387 -5.6292,2.815 -10.9946,6.5089 -16.0963,11.0837 -0.0878,0.0874 -0.0878,0.0874 -0.0878,0.1754 -0.0881,0.176 0,0.176 0,0.2647 4.75,6.1569 9.9393,11.0816 15.5681,14.5998 -0.3515,0.4399 -0.7031,0.9669 -0.9672,1.4947 -0.3521,0.7043 -0.7916,1.3192 -1.3194,1.9361 -0.5277,0.6149 -0.9674,1.3192 -1.3194,2.0221 -0.1756,0.529 -0.3521,1.0562 -0.44,1.5837 v 0.0876 c 0,0.2646 -0.0877,0.5275 -0.0877,0.7918 0,0.7925 0.1756,1.5843 0.4402,2.3747 h 0.0875 c 1.2317,0.9687 2.3748,1.3192 3.2545,0.9687 0.9675,-0.3522 1.671,-1.3196 2.2868,-2.8158 v -0.0875 c -0.2636,-2.7262 0.6157,-4.7502 2.5511,-6.0695 0,0 0,0 0,-0.0876 l 0.7913,-0.3519 0.0881,0.7041 c -0.0881,0 -0.0881,0.0876 -0.0881,0.0876 0.2643,1.5837 -0.3519,3.4308 -1.9346,5.3653 -0.0883,0 -0.0883,0.0875 -0.0883,0.1768 0,0 0,0.0876 0,0.1752 0.0883,0 0.0883,0.0875 0.0883,0.0875 l 0.4397,0.2649 c 0,0 0,0 0,0.0875 0,0 0.0876,0.0876 0.1757,0.0876 v 0 c 0.7916,0.4396 1.671,0.9669 2.5505,1.4071 0.528,0.3519 1.0558,0.6165 1.5836,0.8792 -0.704,0.617 -1.4075,1.4089 -1.9352,2.2886 v 0 c -0.9675,1.407 -1.7594,3.0783 -2.1989,4.9254 -0.0881,0.0875 -0.0881,0.1749 0,0.1749 0,0.0877 0,0.177 0.0876,0.177 l 6.5089,7.0365 c 0,0 0.0884,0.0877 0.1762,0.0877 0.0881,0 0.1759,-0.0877 0.2635,-0.0877 l 1.7594,-1.6713 3.9581,-0.3523 c 0,0 0.0878,-0.0877 0.176,-0.0877 0.0881,-0.0876 0.0881,-0.1768 0.0881,-0.2644 -0.0881,-0.5276 -0.0881,-1.1425 -0.1763,-1.6718 -0.1759,-2.549 -0.2634,-4.9251 -0.1759,-7.2116 0.7041,0.1751 1.4953,0.4398 2.3748,0.6151 3.6947,0.8792 7.4767,1.1436 11.4343,1.0563 0,0 0.0886,0 0.1771,0 v 0 c 0.0875,-0.0875 0.175,-0.0875 0.2629,-0.0875 4.2227,-0.2645 8.0041,-1.3197 11.5226,-2.991 1.3197,2.4617 2.4629,4.75 3.5185,7.124 0.0886,0.0878 0.0886,0.1755 0.176,0.1755 0.0881,0 0.0881,0 0.2635,0 2.8155,-1.0548 4.3981,-2.1094 4.7497,-3.166 0,0 0,-0.0876 0,-0.1754 v -0.0877 l -4.573,-6.157 c 3.3423,-2.1989 6.3323,-5.1896 9.0592,-8.708 0.44,-0.7044 0.9681,-1.4072 1.4957,-2.1115 0,-0.0874 0,-0.0874 0,-0.1751 0,-0.0893 0,-0.1769 -0.0881,-0.1769 -0.264,-0.3524 -0.5281,-0.7028 -0.7921,-0.9672 -0.3516,-0.3521 -0.7041,-0.7045 -1.0551,-1.0548 0.4396,-0.1773 0.8796,-0.3522 1.3191,-0.5294 2.1988,-0.9671 3.782,-2.4618 4.7491,-4.3082 0.0887,-0.0894 0.0887,-0.1773 0.0887,-0.2646 -0.0887,-0.088 -0.0887,-0.088 -0.0887,-0.1756 l -3.3408,-2.9904 c -0.089,-0.0882 -0.1771,-0.0882 -0.1771,-0.0882 -0.0875,0 -0.1755,0 -0.2629,0.0882 0,0 -0.0886,0 -0.0886,0.0878 -0.2635,0.5273 -0.5281,1.0546 -0.7911,1.5832 -1.1442,1.6702 -2.5509,2.9892 -4.2227,3.8692 -4.7501,-4.0454 -9.7627,-6.508 -15.2165,-7.3877 6.3334,-2.1988 11.6986,-5.6292 16.0962,-10.2914 0.264,0.176 0.6156,0.3521 0.8796,0.6156 1.3192,0.8801 2.2863,1.6707 2.9029,2.5508 0,0.0881 0.0881,0.0881 0.0881,0.0881 0.0875,0 0.0875,0 0.1754,0 1.2312,-0.2635 1.8467,-1.0557 1.9359,-2.1988 0,-0.0881 0,-0.176 0,-0.176 -0.7922,-1.3192 -2.0238,-2.4623 -3.7831,-3.5185 0,-0.0875 0,-0.0875 -0.0875,-0.175 l -0.352,-0.5287 v 0 c -7.3005,-9.4987 -14.6011,-14.8639 -21.9021,-15.9206 -0.0874,-0.9672 -0.1749,-1.8467 -0.2624,-2.8144 -0.2652,-1.7586 0.0875,-2.9029 1.054,-3.4304 0.088,0 0.088,-0.0875 0.088,-0.0875 0.0885,-0.0874 0.0885,-0.0874 0.0885,-0.176 z m -0.5275,0.2642 v 3.2539 c -1.1431,0.616 -1.5832,1.9357 -1.2318,3.9579 v 0 c 0.0887,1.0557 0.1773,2.0238 0.2648,2.991 0.1754,1.5832 0.3525,3.0784 0.44,4.6622 0.1749,1.7586 0.352,3.5179 0.6149,5.2771 -0.2629,0 -0.44,0 -0.6149,0 0,0 0,0 -0.0875,0 -0.1771,-1.7592 -0.1771,-3.607 -0.2652,-5.3663 -0.3521,-0.351 -0.5269,-0.351 -0.7915,0 0.088,1.7593 0.1772,3.5185 0.3521,5.2773 -0.527,0 -1.0551,-0.0875 -1.4947,-0.0875 l -1.5838,-11.1695 c 0,-0.0886 0,-0.0886 0,-0.1771 -0.0875,-0.615 -0.3525,-1.1425 -0.7916,-1.582 -0.5281,-0.6173 -1.1431,-0.9683 -1.9353,-0.9683 -0.7035,0 -1.3191,0.351 -1.8467,0.9683 -0.5275,0.5268 -0.7921,1.2305 -0.7921,2.0215 0,0.0886 0,0.0886 0,0.0886 0,0 0,0 0,0.0885 l -0.1757,1.0547 c -0.6158,0.0879 -1.1437,0.0879 -1.6709,0.176 0.0877,-2.1102 0.2635,-4.1341 0.3516,-6.2454 -0.3516,-0.0875 -0.5281,0 -0.616,0.1771 -0.0879,2.1103 -0.1754,4.133 -0.3516,6.1569 0,0 0,0 0,0.0874 -0.3518,0 -0.6159,0.088 -0.8796,0.088 0.1761,-1.9342 0.2637,-3.8706 0.3516,-5.7172 v 0 c -0.0879,-0.5276 -0.2633,-0.8797 -0.7035,-1.1432 l 0.0881,-3.8699 z m -8.5317,7.3878 c 0.3521,-0.4394 0.8797,-0.7035 1.4072,-0.7035 0.6162,0 1.0557,0.2641 1.4953,0.7035 0.3521,0.3516 0.44,0.7916 0.616,1.3197 0,0.0886 0,0.0886 0,0.1761 v 0 l 0.1756,0.9665 c -1.6707,0.0881 -3.0785,0.1767 -4.4857,0.3527 l 0.0881,-0.8791 c 0,-0.0881 0,-0.0881 0,-0.0881 v -0.0885 c 0,0 0,0 0,-0.0886 0,-0.6149 0.264,-1.2311 0.7035,-1.6707 z m 4.2216,6.3335 c -0.791,-0.0881 -1.5826,-0.0881 -2.3742,-0.0881 -1.3197,0 -2.5509,0.0881 -3.6947,0.2631 -0.5275,0.0885 -1.1432,0.1771 -1.5832,0.2646 -0.2637,0.0879 -0.4397,0.0879 -0.6155,0.1754 -0.4395,0.0885 -0.8797,0.1766 -1.3194,0.352 -1.8472,0.5271 -3.6064,1.4068 -5.1017,2.4634 -2.199,1.4947 -3.6941,3.2546 -4.4854,5.1007 -2.991,0.8791 -5.8057,2.0238 -8.7083,3.3429 0.2643,-3.3429 -0.4397,-6.5087 -2.1988,-9.5002 2.0231,-0.0875 3.2544,0.792 3.8703,2.6388 0,0.0885 0,0.2646 0.0874,0.3527 0,0 0,0 0,0.0874 0.6159,1.1437 1.3194,1.9364 2.1994,2.2874 0.7918,0.3508 1.6712,0.2633 2.7265,-0.176 v 0 c 0.0881,-0.0875 0.0881,-0.0875 0.1762,-0.175 0,0 0,-0.0892 0,-0.1777 l -0.0881,-2.0217 c 0,-0.0886 0,-0.0886 0.0881,-0.1771 v 0 c 1.4075,-3.6054 5.3655,-6.0683 11.9622,-7.2995 0.3521,-0.0885 0.7916,-0.1771 1.2315,-0.1771 v 0 c 0.1756,-0.0875 0.3514,-0.0875 0.5279,-0.0875 0.6154,-0.0874 1.319,-0.1749 1.9345,-0.352 1.4958,-0.1755 3.1671,-0.2629 4.9253,-0.3515 z m -2.3742,0.5275 c 0.7916,0 1.6711,0 2.3742,0.0875 l 0.8797,5.5419 c -2.6384,-0.0875 -5.1013,-0.0875 -7.5641,0.1749 l 0.9675,-5.6283 c 1.0558,-0.0885 2.199,-0.176 3.3427,-0.176 z m 5.3652,6.4214 c 0.176,0 0.4394,0 0.7046,0 0.3504,0.0875 0.7024,0.0875 1.054,0.1756 2.9909,0.2646 6.0699,0.7916 9.1484,1.4951 0.1749,0.0886 0.352,0.0886 0.5275,0.1761 0.176,0 0.2646,0.0874 0.4401,0.0874 1.0551,0.2646 2.1107,0.5271 3.2544,0.8796 0.176,0.6162 0.176,1.2318 0,1.7593 -0.176,0.352 -0.3514,0.7047 -0.7035,0.9671 -0.8797,-0.2624 -1.6718,-0.4401 -2.5509,-0.6151 -1.2322,-0.352 -2.4629,-0.6156 -3.6941,-0.8795 -2.0238,-0.3521 -4.047,-0.7042 -5.9812,-0.8797 -0.3527,-0.0875 -0.7923,-0.1761 -1.2323,-0.1761 -0.1749,-0.0879 -0.4395,-0.0879 -0.7024,-0.0879 -0.5287,-0.0881 -1.0568,-0.0881 -1.5843,-0.0881 -3.0785,-0.2635 -6.0689,-0.2635 -8.9711,0 l 0.5272,-2.9023 c 2.551,-0.1754 5.2779,-0.1754 7.9169,-0.088 0.6149,0.088 1.2316,0.088 1.8467,0.1765 z m 0.2646,3.5185 v 0 c 0.44,4.3976 0.8795,8.5306 1.4066,12.3137 0.2639,2.1108 0.6155,3.9579 0.9676,5.805 0.3521,1.5832 0.6156,3.0783 0.967,4.4851 0.3521,0.1771 0.6167,0.1771 0.9677,0 -0.351,-1.3193 -0.7031,-2.7262 -0.9677,-4.045 -0.4395,-2.0241 -0.8795,-4.1343 -1.1426,-6.5098 -0.6166,-3.6933 -1.0562,-7.7399 -1.4962,-11.9615 0.3521,0 0.6167,0.0875 0.8796,0.0875 0.4401,3.4304 1.0568,6.7729 1.5838,10.1154 0.0875,0.4395 0.0875,0.7916 0.1754,1.2317 0.2646,1.2317 0.4396,2.4628 0.7042,3.6933 0,0.0886 0,0.1772 0.0874,0.3521 0.1761,1.3193 0.4402,2.6387 0.7048,3.9584 0.615,2.9902 1.2305,5.9813 1.9342,8.9721 -1.1432,0.2626 -2.1988,0.5275 -3.2534,0.7028 -0.7046,-0.9672 -1.4963,-2.0219 -2.1993,-2.9907 0,0 -0.0886,-0.0877 -0.1767,-0.0877 0,0 0,0 -0.0879,0 l -14.5128,0.0877 -0.0883,0.0891 c -0.0874,0 -0.0874,0.0873 -0.1755,0.0873 0,0.1753 -0.0881,0.3524 -0.1762,0.528 -0.3519,0.8792 -0.7032,1.8461 -0.9675,2.9028 -0.4397,-0.089 -0.8797,-0.1765 -1.3196,-0.2642 0,0 0.0884,-0.9674 0.3524,-2.9035 0.2634,-1.9344 0.7916,-4.7483 1.6709,-8.5309 0,0 0.0885,0 0.176,0 0.1759,-0.0876 0.3521,-0.1759 0.5278,-0.1759 l 0.1762,5.5407 c 0,0.0876 0.0881,0.1768 0.0881,0.1768 0.0873,0.0878 0.1754,0.1752 0.2632,0.1752 h 15.2169 c 0,0 0,0 0.0881,0 0,-0.0874 0,-0.0874 0.0875,-0.0874 0,-0.0878 0,-0.0878 0.0879,-0.177 0,0 0,-0.0876 0,-0.1751 l -1.4072,-5.8046 v 0 l -2.3746,-17.6799 c 0.4406,0 0.7927,0.0885 1.2322,0.0885 z m 1.7586,-3.9585 c -0.1766,-1.6713 -0.352,-3.3431 -0.6162,-5.0148 1.9359,0.5287 3.6066,1.3197 5.1899,2.3759 1.7592,1.2311 2.9908,2.6389 3.8705,4.0461 -2.9035,-0.6162 -5.7179,-1.1437 -8.4442,-1.4072 z m 13.5454,2.7263 c -0.0886,0 -0.0886,0 -0.1761,-0.0875 -1.0551,-0.2646 -2.2863,-0.5281 -3.3418,-0.8795 -0.1761,0 -0.3516,-0.0881 -0.4402,-0.0881 -0.176,0 -0.2635,-0.0892 -0.3515,-0.0892 -0.8797,-1.6701 -2.2873,-3.2533 -4.3101,-4.6605 -1.6713,-1.1441 -3.5185,-2.0232 -5.5419,-2.6388 -0.1754,-1.3192 -0.2629,-2.6383 -0.44,-3.958 7.125,1.1426 14.2501,6.3322 21.3744,15.6555 l 0.2636,0.3521 c -0.4396,0.44 -0.791,0.9676 -1.2312,1.4072 -0.1765,0.1771 -0.3521,0.5281 -0.616,0.7041 -4.3097,4.6616 -9.5873,8.0915 -15.9202,10.2903 -0.1756,-1.1421 -0.3521,-2.1102 -0.6151,-3.1658 0.7026,-0.2641 1.3192,-0.6151 1.9342,-1.0546 0.2652,-0.0886 0.5276,-0.2646 0.7922,-0.5286 v 0.089 c 0.175,-0.1776 0.4396,-0.3525 0.7035,-0.5286 2.815,-2.1102 4.3097,-4.6617 4.4862,-7.5651 0.7026,0.1771 1.4947,0.44 2.2869,0.6167 0.0875,0 0.0875,0 0.1754,0 0,0 0.0886,0 0.0886,-0.0886 0.5276,-0.351 0.7905,-0.7905 1.0551,-1.2307 0.1749,-0.7041 0.1749,-1.4962 -0.0875,-2.3763 -0.0885,-0.0875 -0.0885,-0.0875 -0.0885,-0.175 z m -7.4766,2.3742 c 1.1437,0.2646 2.1988,0.4396 3.4299,0.7923 -0.0874,2.7262 -1.4946,5.1021 -4.2209,7.2124 -0.2646,0.0885 -0.5287,0.2641 -0.7041,0.4401 -0.2642,0.1761 -0.5277,0.351 -0.7923,0.4396 -0.527,0.44 -1.0551,0.7035 -1.6711,0.9681 0,-0.2646 -0.0881,-0.5281 -0.0881,-0.7916 -0.5275,-3.255 -1.0545,-6.5975 -1.4947,-9.9404 1.8467,0.1771 3.606,0.5285 5.5413,0.8795 z m -30.6969,1.3197 c -0.528,0.2642 -1.0559,0.4396 -1.4956,0.7042 -1.7591,0.8797 -3.4301,1.9342 -4.9254,3.0785 -0.6156,0.5275 -1.3197,1.0545 -1.9351,1.5832 -1.144,1.0556 -2.2874,2.1988 -3.3427,3.4299 -2.1108,-0.088 -3.782,0.088 -4.6617,0.5281 -1.1435,0.4401 -1.5832,1.3196 -1.2313,2.3747 v 0 c 0,0 0,0.0881 0.0878,0.0881 -0.0878,1.1442 0.4397,2.1113 1.4075,2.7261 0.9676,0.5283 2.2869,0.7921 4.1342,0.7921 1.1429,1.5842 2.3745,2.9906 3.6062,4.2224 l -0.9678,5.1899 c -5.4534,-3.4308 -10.4672,-8.1805 -15.1287,-14.0737 5.1017,-4.662 10.4669,-8.1801 16.0084,-10.9064 2.9902,-1.4963 6.0687,-2.6389 9.2353,-3.6066 2.639,-0.7914 5.4533,-1.4082 8.2682,-1.7597 -0.1759,0.9683 -0.3519,1.9353 -0.44,2.9904 -3.0782,0.6167 -5.9804,1.4962 -8.6193,2.6388 z M 105.253,85.7461 c 0.3521,-0.0875 0.7916,-0.1754 1.1438,-0.2629 l -3.518,21.4614 c -0.2643,0 -0.44,-0.176 -0.7043,-0.2635 v 0 c 0.7043,-3.8705 1.4073,-7.8286 1.9356,-11.6992 0.0878,-1.2307 0.2633,-2.3742 0.4395,-3.6053 0.1758,-1.8474 0.4399,-3.7827 0.6155,-5.6305 z m -1.5831,0.4396 c 0.2638,-0.0869 0.6156,-0.1744 0.9678,-0.2625 -0.1762,1.8468 -0.4398,3.6935 -0.6159,5.5408 -0.1762,1.231 -0.2638,2.3753 -0.44,3.5179 -0.5276,3.9581 -1.2311,7.7412 -2.0226,11.5226 -0.4398,-0.176 -0.7919,-0.351 -1.1438,-0.6156 0.4398,-2.1993 0.8795,-4.2216 1.2314,-6.4208 0.2639,-1.4078 0.5277,-2.815 0.7039,-4.2216 0.2638,-1.1447 0.44,-2.3748 0.6154,-3.606 0.2641,-1.8478 0.4395,-3.695 0.7038,-5.4548 z m -5.1892,2.3759 v 0.0881 c 1.3191,-0.9672 2.9023,-1.7593 4.4854,-2.2869 -0.1754,1.6713 -0.3516,3.3414 -0.6154,5.0138 -2.7269,0.3514 -5.3659,0.8791 -7.9163,1.6711 0.7035,-1.6711 2.1109,-3.1664 4.0463,-4.4861 z m -4.8376,9.4987 c 2.5506,-1.0545 5.1892,-1.9342 8.0917,-2.4617 -0.2635,1.2305 -0.4399,2.5502 -0.7034,3.7809 -0.3519,2.0239 -0.7041,4.1352 -1.144,6.2459 -0.5271,-0.2635 -0.967,-0.616 -1.4067,-0.8796 -0.7919,-0.4401 -1.4078,-1.0562 -2.0234,-1.5832 -1.5829,-1.4953 -2.4629,-3.2545 -2.8142,-5.1023 z m 4.4854,7.2141 v -0.089 c 0.5278,0.44 1.1438,0.8802 1.8473,1.1431 0.4396,0.2645 0.8794,0.4401 1.4072,0.7047 0.1762,0.0875 0.3518,0.1748 0.6162,0.3515 0.3515,0 0.6153,0.176 0.9669,0.2635 2.2869,0.792 4.7504,1.1441 7.4769,1.1441 1.9342,0 3.8705,-0.1771 5.6298,-0.5281 l 0.5275,4.1341 c -2.1118,-0.6156 -4.3981,-0.8796 -6.8615,-0.8796 -2.4623,0 -4.7493,0.264 -6.86,0.8796 v 0 c -0.3526,0.0873 -0.7043,0.1749 -1.0562,0.2635 -0.2634,0.0886 -0.5277,0.1762 -0.7912,0.3518 -1.0556,0.3516 -2.111,0.7917 -3.0783,1.4076 -0.3522,0.1759 -0.7043,0.4397 -1.0559,0.6154 v 0.0877 c -2.9028,2.0237 -4.6617,4.3102 -5.1895,6.9492 -0.0881,0.6148 -0.1762,1.2315 -0.1762,1.9342 0,0.8796 0.1762,1.8483 0.44,2.728 v -0.0895 c 0,0.0895 0,0.1773 0,0.2646 0.6157,1.7592 1.7592,3.3432 3.5183,4.8379 -1.2316,0.5272 -2.2865,1.1438 -3.1661,1.9342 -0.616,-0.2629 -1.2319,-0.6151 -1.8473,-0.9672 v 0 c -0.8796,-0.4398 -1.671,-0.8794 -2.5509,-1.4069 v 0 c 0,-0.0876 -0.0881,-0.0876 -0.0881,-0.0876 l -0.0881,-0.0876 c 1.4959,-2.0237 2.1113,-3.783 1.9356,-5.4546 v -0.0875 l -0.0881,-1.2317 c 0,-0.0877 0,-0.1753 -0.0881,-0.1753 0,-0.0876 -0.0882,-0.0876 -0.0882,-0.0876 -0.0878,-0.0892 -0.1753,-0.0892 -0.2634,0 l -1.3197,0.6152 c 0,0 -0.0881,0 -0.0881,0.0877 -2.1108,1.4065 -2.9902,3.6058 -2.6385,6.4214 -0.5279,1.3193 -1.2314,2.1113 -1.9353,2.3741 -0.7916,0.1769 -1.671,0 -2.6385,-0.7028 -0.2639,-0.6166 -0.3517,-1.3192 -0.3517,-2.0238 v 0 c 0,-0.2643 0.0878,-0.5272 0.0878,-0.7918 0.0881,-0.4395 0.1761,-0.967 0.3516,-1.4069 0.3519,-0.7044 0.7919,-1.3194 1.3197,-1.9343 0.5276,-0.6167 0.9676,-1.2318 1.3194,-1.9359 0.3517,-0.7029 0.7914,-1.3197 1.0554,-1.8471 0.0881,0 0.0881,0 0.0881,-0.0874 l 2.0228,-10.3797 c 1.2316,0.528 2.8151,0.44 4.7498,-0.0873 0.0881,0 0.0881,0 0.1759,-0.0878 v -0.0882 c 0.6157,-1.9358 0.44,-3.3425 -0.4396,-4.2221 -0.8795,-0.7922 -2.4629,-1.0556 -4.7495,-0.967 l -0.7041,-3.6952 c 0.5278,-0.5274 1.0556,-0.9676 1.6711,-1.4071 1.3196,2.5508 3.4306,4.6621 6.2451,6.1573 0.2643,0.176 0.4399,0.176 0.5278,0.352 0.2637,0.7037 0.2637,1.1433 0.0878,1.6714 -0.7037,2.1989 -2.1104,3.1661 -4.1338,3.0785 -1.2316,-0.0883 -1.9351,0.5277 -2.287,1.8465 l -1.6713,7.9161 c 1.144,0.7043 2.2873,0.792 3.4304,0.3523 l 0.4398,-3.606 c 1.5833,-4.9268 4.6619,-7.7407 9.1479,-8.4449 1.0554,-0.1749 2.199,-0.263 3.5184,-0.1749 0.44,-0.6162 0.2633,-1.0562 -0.3521,-1.5843 -0.8797,-0.351 -1.6713,-0.7912 -2.4629,-1.2307 -2.4625,-1.231 -4.5737,-2.9898 -6.4205,-4.9262 -1.144,-1.4071 -1.5837,-2.8143 -1.4075,-4.3095 0,-0.0885 0.0882,-0.0885 0.1757,-0.0885 0.3522,-0.2631 0.7038,-0.4396 1.1437,-0.6151 0.2636,1.9342 1.3192,3.782 2.9024,5.2773 0.6158,0.5275 1.3193,1.1436 2.1109,1.6722 z m -12.1381,6.5964 c -0.0881,0 -0.0881,0.0875 -0.0881,0.175 l -0.8796,4.3977 c -1.2314,-1.1426 -2.2867,-2.5507 -3.3423,-3.9579 v -0.0873 l -0.1759,-0.0878 c 0,0 -0.0879,0 -0.1756,0 -1.6717,0 -2.991,-0.2647 -3.8707,-0.7043 -0.8795,-0.527 -1.2313,-1.2318 -1.2313,-2.2869 v -0.0875 c 0,0 0,0 0,-0.0879 v 0 c -0.2637,-0.791 0,-1.3197 0.8799,-1.6712 0.8795,-0.4395 2.3746,-0.5281 4.5736,-0.4395 0,0 0,0 0.0881,-0.0886 0.0873,0 0.0873,0 0.1759,0 0.8795,-1.1432 1.8469,-2.1988 2.9028,-3.0785 l 0.7032,3.5186 c 0.0881,0.088 0.0881,0.176 0.0881,0.2635 0.088,0 0.1757,0 0.2638,0 2.1989,-0.1755 3.6945,0.176 4.5741,0.8795 0.7035,0.7041 0.8794,1.7588 0.4398,3.3431 -1.9353,0.5275 -3.4302,0.4397 -4.5741,-0.0881 -0.0879,0 -0.1754,0 -0.1754,0 -0.0881,0 -0.1763,0.0881 -0.1763,0.0881 z m 6.157,12.1369 c 0,-0.4397 0.0881,-0.9673 0.1763,-1.407 1.1429,0.6166 2.3742,1.144 3.6939,1.6714 0.088,0 0.2642,0.0877 0.4397,0.0877 0.8796,0.2644 1.7591,0.5275 2.7266,0.7919 0.1764,0 0.3519,0.0876 0.6159,0.1753 v 0 c 0.5275,0.0893 1.0554,0.1769 1.5832,0.2645 0.3518,0.0875 0.7037,0.0875 1.0558,0.1751 5.1012,0.792 10.7304,0.5294 16.9752,-0.7024 1.3193,-0.3521 2.5509,-0.6168 3.8702,-0.9673 1.4071,-0.2648 2.8148,-0.7043 4.3105,-1.1442 0.9672,-0.352 2.0228,-0.6148 2.9911,-0.967 1.1419,0.3522 1.5819,1.1421 1.4945,2.1112 -1.6712,0.6152 -3.2538,1.2301 -4.8376,1.7591 -0.8796,0.263 -1.6718,0.5275 -2.5514,0.7902 -1.0546,0.3522 -2.1988,0.6167 -3.2534,0.8799 -6.6848,1.5838 -13.0183,2.0236 -18.9117,1.3189 -0.6155,0 -1.2313,-0.175 -1.8467,-0.2624 -0.3522,0 -0.7921,-0.088 -1.2318,-0.177 -0.1754,0 -0.4397,-0.0878 -0.6154,-0.0878 -0.8792,-0.1749 -1.7594,-0.4397 -2.5505,-0.6151 -1.3193,-0.3521 -2.5511,-0.7043 -3.6946,-1.1441 -0.0881,0 -0.0881,0 -0.0881,0 -0.1754,-0.8796 -0.3517,-1.6713 -0.3517,-2.5509 z m 6.2451,-9.1468 c 0.8798,-0.5282 1.7592,-0.8794 2.6389,-1.2308 -0.7041,3.8699 -1.3197,7.4757 -1.7591,10.9065 -0.7916,-0.1768 -1.6714,-0.4397 -2.3751,-0.7045 0.0876,-1.4068 0.3516,-2.8139 0.5278,-4.3101 0.1759,-0.7919 0.2638,-1.5821 0.44,-2.374 v 0 c 0.0881,-0.3524 0.1759,-0.792 0.2635,-1.1442 0.0879,-0.44 0.1759,-0.7918 0.264,-1.1429 z m -1.1437,2.1994 v 0 c -0.1759,0.7904 -0.264,1.5822 -0.4397,2.3742 -0.1757,1.4068 -0.3518,2.8138 -0.5273,4.2225 h -0.0881 c -1.3193,-0.4397 -2.639,-1.0563 -3.7822,-1.6713 0.5275,-2.3761 2.1988,-4.4857 4.8373,-6.4219 0.0881,-0.0873 0.2641,-0.1753 0.44,-0.2629 0,0.1756 -0.0879,0.3508 -0.0879,0.5278 -0.088,0.4395 -0.264,0.7918 -0.3521,1.2316 z m 5.5419,5.188 c 0,-0.0875 0.0881,-0.1748 0.0881,-0.2626 l 14.0735,-0.1771 c 0.7025,0.969 1.3191,1.8484 1.9343,2.728 -6.0694,1.0549 -11.4347,1.3194 -16.3604,0.6151 -0.2636,0 -0.4395,0 -0.7036,-0.0875 0.2641,-0.9673 0.6162,-1.9364 0.9681,-2.8159 z m 0.6149,-3.8687 -0.1754,-5.454 c 2.0228,-0.5273 4.2217,-0.8798 6.5086,-0.8798 2.5509,0 4.8376,0.3525 7.0364,0.9678 l 1.2323,5.366 z m -10.5547,8.971 c 0.9678,0.2646 1.9354,0.615 2.9913,0.8799 -0.0881,0.9669 -0.0881,1.9342 -0.1766,2.9031 -1.319,-1.2318 -2.2868,-2.4636 -2.8147,-3.783 z m 6.5094,1.6717 c 0.3514,0.0876 0.6155,0.0876 0.967,0.1751 -0.2637,1.5837 -0.4399,3.2556 -0.5275,5.0147 -0.0881,0.9672 -0.0881,1.8467 -0.0881,2.8137 -0.0879,2.4637 0,5.0131 0.1757,7.7413 v 0 c 0.0884,0.4397 0.0884,0.8794 0.1762,1.319 l -1.2313,0.1756 c -0.0879,-3.254 -0.0879,-6.4218 0,-9.5001 0.0881,-1.055 0.0881,-2.022 0.1757,-2.9894 0.0878,-1.5838 0.2643,-3.1678 0.3523,-4.7499 z m -0.704,-0.0877 h 0.0881 c -0.1759,1.4945 -0.3519,2.9892 -0.44,4.3979 -0.1759,1.055 -0.2635,2.1095 -0.2635,3.0787 -0.2642,3.7811 -0.2642,7.0365 0,9.8505 l -1.4956,0.1752 c 0,-0.0876 0,-0.1752 0,-0.2629 0,-0.5275 -0.088,-0.9672 -0.088,-1.4069 -0.0882,-1.7594 -0.1755,-3.4305 -0.2636,-5.1025 0,-0.0874 0,-0.1751 0,-0.1751 v -0.0893 c 0,0 0,-0.0876 0,-0.1756 0,-1.0543 0,-2.0232 0,-3.0783 0,-0.1748 0,-0.2644 0,-0.4397 0,0 0,-0.3522 0,-1.0548 0,-0.5292 0,-1.4084 0.0881,-2.728 0,0 0,0 0,-0.0875 0.0873,0 0.0873,-0.0876 0,-0.1751 0,0 0,0 0,-0.0879 0,-1.0565 0.0873,-2.1115 0.1755,-3.1677 0.704,0.177 1.4958,0.3518 2.199,0.529 z m -3.0788,6.6842 v 0.0878 c 0,0 0,0.0878 0,0.1753 -2.5504,1.4087 -4.4857,3.7827 -5.805,7.1258 l -1.4949,-1.6711 c 0.4395,-1.7594 1.1429,-3.2556 2.1107,-4.575 0.616,-0.9672 1.3194,-1.7594 2.1108,-2.4619 0.9675,-0.7921 2.0234,-1.4965 3.1665,-2.0238 -0.0881,1.1441 -0.0881,2.2867 -0.0881,3.3429 z m 4.8379,-1.4962 c 0.0878,-1.7589 0.2641,-3.3415 0.5279,-4.8378 0.4397,0.0897 0.9674,0.0897 1.4955,0.177 5.9808,0.7029 12.2262,0.2631 18.9111,-1.3189 0.7031,1.0545 1.4072,2.1986 2.1107,3.2534 -0.44,0.2649 -0.8801,0.6168 -1.3197,0.8796 -3.4293,2.3759 -7.5645,3.606 -12.4021,3.606 -2.5505,0 -4.8374,-0.3504 -7.0367,-0.9672 -0.7914,-0.2629 -1.5827,-0.5272 -2.2867,-0.7921 z m -4.8379,2.2886 c 0,0.8794 0,1.8466 0,2.8134 0,0.088 0,0.1756 0,0.2649 -2.0228,1.5823 -3.0784,3.6933 -3.342,6.157 l -2.1988,-2.3759 c 1.2313,-3.1659 3.0785,-5.4524 5.5408,-6.8594 z m 7.2132,1.0547 v 0 c -0.88,-0.1753 -1.6713,-0.4401 -2.4634,-0.6152 0,-0.7044 0,-1.4087 0,-2.1111 0.7041,0.2626 1.4075,0.5275 2.1989,0.7024 2.1992,0.7043 4.5741,1.0568 7.2126,1.0568 4.9262,0 9.2357,-1.2317 12.7537,-3.6956 v 0 c 0.4396,-0.2627 0.8796,-0.6148 1.2317,-0.8794 0.7041,1.144 1.4071,2.3759 2.1113,3.6077 -3.4304,1.6699 -7.301,2.6388 -11.2591,2.989 h -0.0879 c -0.0875,0 -0.175,0 -0.2635,0 -0.0886,0 -0.0886,0 -0.176,0 v 0 c -3.7821,0.1773 -7.5645,-0.1751 -11.2583,-1.0546 z m -8.2682,10.5547 -2.0234,-2.1112 c 0.2642,-2.5511 1.3196,-4.5728 3.0784,-6.0695 0.0881,1.6716 0.1766,3.2555 0.2647,4.9272 0,0.4397 0.0873,0.9672 0.0873,1.4946 0,0 0,0.0876 0,0.1752 v 0.2645 z m 47.7608,-46.7933 c -0.0881,0.8796 -0.5277,1.3198 -1.2312,1.5833 -0.703,-0.8797 -1.5832,-1.7593 -2.9025,-2.5515 -0.2645,-0.175 -0.5274,-0.351 -0.8795,-0.527 0.1754,-0.1755 0.2635,-0.264 0.44,-0.3526 0.3521,-0.4395 0.7031,-0.8791 1.0547,-1.3192 1.6717,0.9682 2.8159,2.0238 3.5185,3.167 z m 2.0238,14.4244 c -0.9676,1.6714 -2.464,2.9033 -4.3987,3.8703 -0.4395,0.177 -0.9665,0.3522 -1.4952,0.5273 -0.6156,-0.6148 -1.2312,-1.1422 -1.9353,-1.7591 1.7598,-0.9671 3.167,-2.2864 4.3107,-4.0449 0.1754,-0.3525 0.4395,-0.7924 0.615,-1.2317 z m -8.5328,2.8155 c 0.7917,0.7026 1.5837,1.407 2.2879,2.199 0.527,0.4396 0.8797,0.8793 1.4067,1.4073 v 0 c 0.176,0.1748 0.4395,0.4395 0.615,0.7041 -0.439,0.615 -0.8796,1.2301 -1.3191,1.8466 -2.639,3.6063 -5.6294,6.4201 -8.8832,8.6192 l -3.3425,-4.3984 c 0.5281,-0.7902 0.8796,-1.6698 1.0556,-2.4615 1.5833,-0.5275 3.254,-1.1442 4.8376,-1.7593 0.0881,0 0.0881,-0.0876 0.1756,-0.0876 0,0 0,-0.0892 0.0879,-0.0892 0.2642,-1.4947 -0.3509,-2.5495 -2.0226,-3.0783 0,0 -0.0874,0 -0.1755,0 -0.8802,0.2644 -1.8483,0.6166 -2.7274,0.8792 -0.5276,-2.7263 -2.2869,-5.1003 -5.2778,-7.2117 -0.3516,-0.1757 -0.6151,-0.3517 -0.9671,-0.5268 -0.264,-1.1446 -0.4396,-2.2875 -0.7036,-3.4306 5.3657,0.8791 10.2914,3.4306 14.9525,7.388 z m -19.8788,-10.9065 c -1.6705,0.4395 -3.5183,0.7035 -5.4525,0.7035 -2.5509,0 -4.8379,-0.44 -7.0374,-1.0562 l 2.0237,-12.1375 c 2.8143,-0.2641 5.7172,-0.2641 8.7957,-0.0886 z m 5.8059,7.7402 c 0.0885,0.0876 0.2635,0.1756 0.4395,0.2629 2.903,2.0237 4.5743,4.3104 5.0143,6.8615 -1.2322,0.44 -2.5513,0.7025 -3.7831,1.0548 -0.615,-2.7263 -1.142,-5.4526 -1.6707,-8.1792 z m 0.3516,12.6647 c 0.8791,-0.1751 1.7586,-0.4395 2.6383,-0.7027 l 9.5003,12.9294 c -0.44,0.7918 -1.8467,1.6713 -4.1346,2.4631 -1.0551,-2.3755 -2.1981,-4.7497 -3.5179,-7.1239 -0.7911,-1.4089 -1.5827,-2.8158 -2.4629,-4.2227 -0.7041,-1.1441 -1.3191,-2.1989 -2.0232,-3.3432 z m 4.8371,-1.3194 c -0.1749,0.529 -0.4395,1.0565 -0.7911,1.5843 l -0.7905,-1.1444 c 0.527,-0.1753 1.0546,-0.3504 1.5816,-0.4399 z"
       style="fill:#e41e15;fill-rule:evenodd"
       id="path15" />
    <path
       d="M 117.1273,74.2242 V 70.9703 H 103.758 l -0.0881,3.8699 c 0.4402,0.2635 0.6156,0.6156 0.7035,1.1432 v 0 c -0.0879,1.8466 -0.1755,3.783 -0.3516,5.7172 0.2637,0 0.5278,-0.088 0.8796,-0.088 0,-0.0874 0,-0.0874 0,-0.0874 0.1762,-2.0239 0.2637,-4.0466 0.3516,-6.1569 0.0879,-0.1771 0.2644,-0.2646 0.616,-0.1771 -0.0881,2.1113 -0.2639,4.1352 -0.3516,6.2454 0.5272,-0.0881 1.0551,-0.0881 1.6709,-0.176 l 0.1757,-1.0547 c 0,-0.0885 0,-0.0885 0,-0.0885 0,0 0,0 0,-0.0886 0,-0.791 0.2646,-1.4947 0.7921,-2.0215 0.5276,-0.6173 1.1432,-0.9683 1.8467,-0.9683 0.7922,0 1.4072,0.351 1.9353,0.9683 0.4391,0.4395 0.7041,0.967 0.7916,1.582 0,0.0885 0,0.0885 0,0.1771 l 1.5838,11.1695 c 0.4396,0 0.9677,0.0875 1.4947,0.0875 -0.1749,-1.7588 -0.2641,-3.518 -0.3521,-5.2773 0.2646,-0.351 0.4394,-0.351 0.7915,0 0.0881,1.7593 0.0881,3.6071 0.2652,5.3663 0.0875,0 0.0875,0 0.0875,0 0.1749,0 0.352,0 0.6149,0 -0.2629,-1.7592 -0.44,-3.5185 -0.6149,-5.2771 -0.0875,-1.5838 -0.2646,-3.079 -0.44,-4.6622 -0.0875,-0.9672 -0.1761,-1.9353 -0.2648,-2.991 v 0 c -0.3514,-2.0222 0.0887,-3.3419 1.2318,-3.9579 z m -2.7263,-2.639 c 0.4396,-0.0875 0.7921,0.0875 0.9677,0.2646 0,0.0875 0,0.2631 0,0.3516 0,0.088 0,0.1754 0,0.2635 0,0.0875 0,0.2646 0,0.3526 0.0874,0.2635 -0.0875,0.527 -0.3527,0.7036 -0.0875,0.1754 -0.4396,0.2635 -0.7025,0.2635 -0.4395,0 -0.7922,-0.0881 -1.2317,-0.1755 0,-0.1765 -0.0875,-0.3521 -0.2646,-0.5281 -0.2625,-0.3515 -0.5275,-0.3515 -0.8791,0.0881 0,0 0,0.0879 0,0.1754 0,0.2646 -0.176,0.4401 -0.44,0.4401 -0.4396,0.0875 -0.7031,0 -1.0551,-0.352 0.0879,-0.3516 0,-0.6151 -0.3521,-0.7916 -0.0881,0 -0.1756,0 -0.1756,-0.0886 -0.1765,-0.263 -0.1765,-0.4395 0,-0.6151 v 0 c -0.2639,-0.3521 -0.1765,-0.527 0.2635,-0.7041 0.4402,0 0.7917,0 1.2312,0 0.3521,0 0.7041,0 1.1447,0 0.2625,0 0.5271,0 0.8791,0 0.1756,0 0.4402,0 0.7026,0 0,0.2645 0,0.352 0.2646,0.352 z m -2.815,4.1341 c 0,0 0.0881,0 0.1761,0 2.3743,0.4406 3.5191,1.9353 3.431,4.7497 -0.1771,0.2646 -0.3525,0.1771 -0.6167,-0.0881 -0.44,-2.5509 -1.4072,-3.87 -2.9023,-3.9579 -0.2641,-0.175 -0.3516,-0.3521 -0.0881,-0.7037 z m -5.5414,-3.8695 c 0,0 0,0 0.0882,0.0875 0.088,0.2641 0.3517,0.4395 0.7036,0.3521 0.0879,0 0.176,0 0.2639,0.0874 0.3516,0.4407 0.1762,0.6156 -0.4401,0.6156 -0.3515,0 -0.7912,0 -1.1428,-0.0875 -0.3523,0 -0.5279,-0.1754 -0.4398,-0.5281 0.0875,0 0.0875,0 0.1754,0 0.0879,0 0.2644,0 0.3521,0 0,-0.4395 0.088,-0.6155 0.4395,-0.527 z"
       style="fill:#ffffff;fill-rule:evenodd"
       id="path16" />
    <path
       d="m 111.7621,75.7193 c -0.088,0 -0.1761,0 -0.1761,0 -0.2635,0.3516 -0.176,0.5287 0.0881,0.7037 1.4951,0.0879 2.4623,1.407 2.9023,3.9579 0.2642,0.2652 0.4396,0.3527 0.6167,0.0881 0.0881,-2.8144 -1.0567,-4.3091 -3.431,-4.7497 z"
       style="fill:#e41e15;fill-rule:evenodd"
       id="path17" />
    <path
       d="m 106.1328,71.9373 c -0.0882,-0.0875 -0.0882,-0.0875 -0.0882,-0.0875 -0.3515,-0.0885 -0.4395,0.0875 -0.4395,0.527 -0.0877,0 -0.2642,0 -0.3521,0 -0.0879,0 -0.0879,0 -0.1754,0 -0.0881,0.3527 0.0875,0.5281 0.4398,0.5281 0.3516,0.0875 0.7913,0.0875 1.1428,0.0875 0.6163,0 0.7917,-0.1749 0.4401,-0.6156 -0.0879,-0.0874 -0.176,-0.0874 -0.2639,-0.0874 -0.3519,0.0874 -0.6156,-0.088 -0.7036,-0.3521 z"
       style="fill:#e41e15;fill-rule:evenodd"
       id="path18" />
    <path
       d="m 110.443,84.6035 c 0.7916,0 1.5832,0 2.3742,0.0881 l -0.44,-3.255 c -1.7582,0.0886 -3.4295,0.176 -4.9253,0.3515 -0.6155,0.1771 -1.3191,0.2646 -1.9345,0.352 -0.1765,0 -0.3523,0 -0.5279,0.0875 v 0 c -0.4399,0 -0.8794,0.0886 -1.2315,0.1771 -6.5967,1.2312 -10.5547,3.6941 -11.9622,7.2995 v 0 c -0.0881,0.0885 -0.0881,0.0885 -0.0881,0.1771 l 0.0881,2.0217 c 0,0.0885 0,0.1777 0,0.1777 -0.0881,0.0875 -0.0881,0.0875 -0.1762,0.175 v 0 c -1.0553,0.4393 -1.9347,0.5268 -2.7265,0.176 -0.88,-0.351 -1.5835,-1.1437 -2.1994,-2.2874 0,-0.0874 0,-0.0874 0,-0.0874 -0.0874,-0.0881 -0.0874,-0.2642 -0.0874,-0.3527 -0.6159,-1.8468 -1.8472,-2.7263 -3.8703,-2.6388 1.7591,2.9915 2.4631,6.1573 2.1988,9.5002 2.9026,-1.3191 5.7173,-2.4638 8.7083,-3.3429 0.7913,-1.8461 2.2864,-3.606 4.4854,-5.1007 1.4953,-1.0566 3.2545,-1.9363 5.1017,-2.4634 0.4397,-0.1754 0.8799,-0.2635 1.3194,-0.352 0.1758,-0.0875 0.3518,-0.0875 0.6155,-0.1754 0.44,-0.0875 1.0557,-0.1761 1.5832,-0.2646 1.1438,-0.175 2.375,-0.2631 3.6947,-0.2631 z m -17.1523,5.1007 c -0.1755,-0.791 0,-1.4947 0.6159,-2.1103 0.5278,-0.5285 1.0559,-0.8795 1.6709,-1.2311 0.7043,-0.3515 1.3197,-0.7042 2.0234,-0.9677 0.44,-0.176 0.7035,-0.0885 0.7916,0.351 0.176,0.7922 -0.0881,1.3193 -0.7916,1.6718 -0.7037,0.3521 -1.3191,0.7041 -1.9353,1.0557 -0.7031,0.4396 -1.4074,0.791 -2.1109,1.1431 -0.0881,0.0875 -0.1759,0.0875 -0.264,0.0875 z m -7.2121,0.6166 c 0.0881,0.3521 -0.0882,0.4402 -0.4401,0.2631 -0.5277,-0.351 -0.9675,-0.7912 -1.4071,-1.4068 -0.0881,0 -0.0881,-0.0879 -0.1762,-0.0879 -0.0876,-0.6156 0.1762,-0.7916 0.7039,-0.5276 0.7913,0.4401 1.1432,1.0551 1.3195,1.7592 z"
       style="fill:#ffffff;fill-rule:evenodd"
       id="path19" />
    <path
       d="m 93.9066,87.5939 c -0.6159,0.6156 -0.7914,1.3193 -0.6159,2.1103 0.0881,0 0.1759,0 0.264,-0.0875 0.7035,-0.3521 1.4078,-0.7035 2.1109,-1.1431 0.6162,-0.3516 1.2316,-0.7036 1.9353,-1.0557 0.7035,-0.3525 0.9676,-0.8796 0.7916,-1.6718 -0.0881,-0.4395 -0.3516,-0.527 -0.7916,-0.351 -0.7037,0.2635 -1.3191,0.6162 -2.0234,0.9677 -0.615,0.3516 -1.1431,0.7026 -1.6709,1.2311 z"
       style="fill:#e41e15;fill-rule:evenodd"
       id="path20" />
    <path
       d="m 85.6385,90.5839 c 0.3519,0.1771 0.5282,0.089 0.4401,-0.2631 -0.1763,-0.7041 -0.5282,-1.3191 -1.3195,-1.7592 -0.5277,-0.264 -0.7915,-0.088 -0.7039,0.5276 0.0881,0 0.0881,0.0879 0.1762,0.0879 0.4396,0.6156 0.8794,1.0558 1.4071,1.4068 z"
       style="fill:#e41e15;fill-rule:evenodd"
       id="path21" />
    <path
       d="m 116.5128,91.6405 c -0.2652,0 -0.5286,0 -0.7046,0 -0.6151,-0.0885 -1.2318,-0.0885 -1.8467,-0.1765 -2.639,-0.0874 -5.3659,-0.0874 -7.9169,0.088 l -0.5272,2.9023 c 2.9022,-0.2635 5.8926,-0.2635 8.9711,0 0.5275,0 1.0556,0 1.5843,0.0881 0.2629,0 0.5275,0 0.7024,0.0879 0.44,0 0.8796,0.0886 1.2323,0.1761 1.9342,0.1755 3.9574,0.5276 5.9812,0.8797 1.2312,0.2639 2.4619,0.5275 3.6941,0.8795 0.8791,0.175 1.6712,0.3527 2.5509,0.6151 0.3521,-0.2624 0.5275,-0.6151 0.7035,-0.9671 0.176,-0.5275 0.176,-1.1431 0,-1.7593 -1.1437,-0.3525 -2.1993,-0.615 -3.2544,-0.8796 -0.1755,0 -0.2641,-0.0874 -0.4401,-0.0874 -0.1755,-0.0875 -0.3526,-0.0875 -0.5275,-0.1761 -3.0785,-0.7035 -6.1575,-1.2305 -9.1484,-1.4951 -0.3516,-0.0881 -0.7036,-0.0881 -1.054,-0.1756 z m -3.6956,2.4613 c -0.175,0 -0.5275,-0.175 -0.7031,-0.3506 -0.176,-0.1765 -0.352,-0.44 -0.352,-0.7035 0,-0.2652 0.176,-0.5275 0.352,-0.792 0.1756,-0.175 0.5281,-0.2642 0.7031,-0.2642 0.352,0 0.6166,0.0892 0.7922,0.2642 0.1754,0.2645 0.3521,0.5268 0.3521,0.792 0,0.2635 -0.1767,0.527 -0.3521,0.7035 -0.1756,0.1756 -0.4402,0.3506 -0.7922,0.3506 z M 107.98,93.0477 c 0,0.2635 -0.0879,0.527 -0.3514,0.7035 -0.1767,0.1756 -0.4403,0.3506 -0.7043,0.3506 -0.2641,0 -0.5275,-0.175 -0.7915,-0.3506 -0.1757,-0.1765 -0.2638,-0.44 -0.2638,-0.7035 0,-0.2652 0.0881,-0.5275 0.2638,-0.792 0.264,-0.175 0.5274,-0.2642 0.7915,-0.2642 0.264,0 0.5276,0.0892 0.7043,0.2642 0.2635,0.2645 0.3514,0.5268 0.3514,0.792 z m 10.2029,-0.616 c 0.2641,-0.2635 0.5287,-0.351 0.7916,-0.351 0.2641,0 0.4395,0.0875 0.7041,0.351 0.2631,0.176 0.3521,0.44 0.3521,0.7035 0,0.3521 -0.089,0.527 -0.3521,0.7916 -0.2646,0.175 -0.44,0.3525 -0.7041,0.3525 -0.2629,0 -0.5275,-0.1775 -0.7916,-0.3525 -0.1754,-0.2646 -0.264,-0.4395 -0.264,-0.7916 0,-0.2635 0.0886,-0.5275 0.264,-0.7035 z m 6.861,1.2305 c 0.2646,-0.2624 0.527,-0.351 0.7916,-0.351 0.2635,0 0.5276,0.0886 0.7036,0.351 0.2636,0.1771 0.351,0.4396 0.351,0.7046 0,0.2635 -0.0874,0.5277 -0.351,0.7922 -0.176,0.175 -0.4401,0.2625 -0.7036,0.2625 -0.2646,0 -0.527,-0.0875 -0.7916,-0.2625 -0.1754,-0.2645 -0.264,-0.5287 -0.264,-0.7922 0,-0.265 0.0886,-0.5275 0.264,-0.7046 z"
       style="fill:#ffffff;fill-rule:evenodd"
       id="path22" />
    <path
       d="m 112.1141,93.7512 c 0.1756,0.1756 0.5281,0.3506 0.7031,0.3506 0.352,0 0.6166,-0.175 0.7922,-0.3506 0.1754,-0.1765 0.3521,-0.44 0.3521,-0.7035 0,-0.2652 -0.1767,-0.5275 -0.3521,-0.792 -0.1756,-0.175 -0.4402,-0.2642 -0.7922,-0.2642 -0.175,0 -0.5275,0.0892 -0.7031,0.2642 -0.176,0.2645 -0.352,0.5268 -0.352,0.792 0,0.2635 0.176,0.527 0.352,0.7035 z"
       style="fill:#e41e15;fill-rule:evenodd"
       id="path23" />
    <path
       d="m 107.6286,93.7512 c 0.2635,-0.1765 0.3514,-0.44 0.3514,-0.7035 0,-0.2652 -0.0879,-0.5275 -0.3514,-0.792 -0.1767,-0.175 -0.4403,-0.2642 -0.7043,-0.2642 -0.2641,0 -0.5275,0.0892 -0.7915,0.2642 -0.1757,0.2645 -0.2638,0.5268 -0.2638,0.792 0,0.2635 0.0881,0.527 0.2638,0.7035 0.264,0.1756 0.5274,0.3506 0.7915,0.3506 0.264,0 0.5276,-0.175 0.7043,-0.3506 z"
       style="fill:#e41e15;fill-rule:evenodd"
       id="path24" />
    <path
       d="m 118.9745,92.0807 c -0.2629,0 -0.5275,0.0875 -0.7916,0.351 -0.1754,0.176 -0.264,0.44 -0.264,0.7035 0,0.3521 0.0886,0.527 0.264,0.7916 0.2641,0.175 0.5287,0.3525 0.7916,0.3525 0.2641,0 0.4395,-0.1775 0.7041,-0.3525 0.2631,-0.2646 0.3521,-0.4395 0.3521,-0.7916 0,-0.2635 -0.089,-0.5275 -0.3521,-0.7035 -0.2646,-0.2635 -0.44,-0.351 -0.7041,-0.351 z"
       style="fill:#e41e15;fill-rule:evenodd"
       id="path25" />
    <path
       d="m 125.8355,93.3112 c -0.2646,0 -0.527,0.0886 -0.7916,0.351 -0.1754,0.1771 -0.264,0.4396 -0.264,0.7046 0,0.2635 0.0886,0.5277 0.264,0.7922 0.2646,0.175 0.527,0.2625 0.7916,0.2625 0.2635,0 0.5276,-0.0875 0.7036,-0.2625 0.2636,-0.2645 0.351,-0.5287 0.351,-0.7922 0,-0.265 -0.0874,-0.5275 -0.351,-0.7046 -0.176,-0.2624 -0.4401,-0.351 -0.7036,-0.351 z"
       style="fill:#e41e15;fill-rule:evenodd"
       id="path26" />
    <path
       d="m 116.0728,95.159 c 0,0 -0.1773,0 -0.3521,0 -0.2646,-0.0885 -0.4395,-0.0885 -0.8801,-0.0885 l 2.3746,17.6799 v 0 l 1.4072,5.8046 c 0,0.0875 0,0.1751 0,0.1751 -0.0879,0.0892 -0.0879,0.0892 -0.0879,0.177 -0.0875,0 -0.0875,0 -0.0875,0.0874 -0.0881,0 -0.0881,0 -0.0881,0 H 103.142 c -0.0878,0 -0.1759,-0.0874 -0.2632,-0.1752 0,0 -0.0881,-0.0892 -0.0881,-0.1768 l -0.1762,-5.5407 c -0.1757,0 -0.3519,0.0883 -0.5278,0.1759 -0.0875,0 -0.176,0 -0.176,0 -0.8793,3.7826 -1.5834,7.5636 -2.0233,11.4344 v 0 c 0.4399,0.0877 0.8799,0.1752 1.3196,0.2642 0.2643,-1.0567 0.6156,-2.0236 0.9675,-2.9028 0.0881,-0.1756 0.1762,-0.3527 0.1762,-0.528 0.0881,0 0.0881,-0.0873 0.1755,-0.0873 l 0.0883,-0.0891 14.5128,-0.0877 c 0.0879,0 0.0879,0 0.0879,0 0.0881,0 0.1767,0.0877 0.1767,0.0877 0.703,0.9688 1.4947,2.0235 2.1993,2.9907 1.0546,-0.1753 2.1102,-0.4402 3.2534,-0.7028 -0.7037,-2.9908 -1.3192,-5.9819 -1.9342,-8.9721 -0.2646,-1.3197 -0.5287,-2.6391 -0.7048,-3.9584 -0.0874,-0.1749 -0.0874,-0.2635 -0.0874,-0.3521 -0.2646,-1.2305 -0.4396,-2.4616 -0.7042,-3.6933 -0.0879,-0.4401 -0.0879,-0.7922 -0.1754,-1.2317 -0.527,-3.3425 -1.1437,-6.685 -1.5838,-10.1154 -0.2629,0 -0.5275,-0.0875 -0.8796,-0.0875 0.44,4.2216 0.8796,8.2682 1.4962,11.9615 0.2631,2.3755 0.7031,4.4857 1.1426,6.5098 0.2646,1.3188 0.6167,2.7257 0.9677,4.045 -0.351,0.1771 -0.6156,0.1771 -0.9677,0 -0.3514,-1.4068 -0.6149,-2.9019 -0.967,-4.4851 -0.3521,-1.8471 -0.7037,-3.6942 -0.9676,-5.805 -0.5271,-3.7831 -0.9666,-7.9161 -1.4066,-12.3137 z"
       style="fill:#ffffff;fill-rule:evenodd"
       id="path27" />
    <path
       d="m 131.2007,93.8393 c 0.0875,0.0875 0.0875,0.0875 0.1761,0.0875 0,0.0875 0,0.0875 0.0885,0.175 0.2624,0.8801 0.2624,1.6722 0.0875,2.3763 -0.2646,0.4402 -0.5275,0.8797 -1.0551,1.2307 0,0.0886 -0.0886,0.0886 -0.0886,0.0886 -0.0879,0 -0.0879,0 -0.1754,0 -0.7922,-0.1767 -1.5843,-0.4396 -2.2869,-0.6167 -0.1765,2.9034 -1.6712,5.4549 -4.4862,7.5651 -0.2639,0.1761 -0.5285,0.351 -0.7035,0.5286 v -0.089 c -0.2646,0.264 -0.527,0.44 -0.7922,0.5286 -0.615,0.4395 -1.2316,0.7905 -1.9342,1.0546 0.263,1.0556 0.4395,2.0237 0.6151,3.1658 6.3329,-2.1988 11.6105,-5.6287 15.9202,-10.2903 0.2639,-0.176 0.4395,-0.527 0.616,-0.7041 0.4402,-0.4396 0.7916,-0.9672 1.2312,-1.4072 l -0.2636,-0.3521 c -7.1243,-9.3233 -14.2494,-14.5129 -21.3744,-15.6555 0.1771,1.3197 0.2646,2.6388 0.44,3.958 2.0234,0.6156 3.8706,1.4947 5.5419,2.6388 2.0228,1.4072 3.4304,2.9904 4.3101,4.6605 0.088,0 0.1755,0.0892 0.3515,0.0892 0.0886,0 0.2641,0.0881 0.4402,0.0881 1.0555,0.3514 2.2867,0.6149 3.3418,0.8795 z"
       style="fill:#ffffff;fill-rule:evenodd"
       id="path28" />
    <path
       d="m 91.7077,98.3249 c 0.4397,-0.2646 0.9676,-0.44 1.4956,-0.7042 2.6389,-1.1426 5.5411,-2.0221 8.6193,-2.6388 0.0881,-1.0551 0.2641,-2.0221 0.44,-2.9904 -2.8149,0.3515 -5.6292,0.9683 -8.2682,1.7597 -3.1666,0.9677 -6.2451,2.1103 -9.2353,3.6066 -5.5415,2.7263 -10.9067,6.2444 -16.0084,10.9064 4.6615,5.8932 9.6753,10.6429 15.1287,14.0737 l 0.9678,-5.1899 c -1.2317,-1.2318 -2.4633,-2.6382 -3.6062,-4.2224 -1.8473,0 -3.1666,-0.2638 -4.1342,-0.7921 -0.9678,-0.6148 -1.4953,-1.5819 -1.4075,-2.7261 -0.0878,0 -0.0878,-0.0881 -0.0878,-0.0881 v 0 c -0.3519,-1.0551 0.0878,-1.9346 1.2313,-2.3747 0.8797,-0.4401 2.5509,-0.6161 4.6617,-0.5281 1.0553,-1.2311 2.1987,-2.3743 3.3427,-3.4299 0.6154,-0.5287 1.3195,-1.0557 1.9351,-1.5832 1.4953,-1.1443 3.1663,-2.1988 4.9254,-3.0785 z m 2.111,-3.9581 c 0.1757,-0.176 0.4395,-0.265 0.7916,-0.265 0.2641,0 0.4398,0.089 0.7038,0.265 0.1757,0.2635 0.3515,0.5277 0.3515,0.7922 0,0.2625 -0.1758,0.5271 -0.3515,0.7025 -0.264,0.2646 -0.4397,0.3521 -0.7038,0.3521 -0.3521,0 -0.6159,-0.0875 -0.7916,-0.3521 -0.264,-0.1754 -0.3521,-0.44 -0.3521,-0.7025 0,-0.2645 0.0881,-0.5287 0.3521,-0.7922 z m -2.4629,2.639 c 0,0.2635 -0.0878,0.527 -0.3515,0.7916 -0.2641,0.2629 -0.5279,0.3514 -0.8797,0.4395 -0.3521,-0.0881 -0.6159,-0.1766 -0.7919,-0.4395 -0.2637,-0.2646 -0.4396,-0.5281 -0.4396,-0.7916 0,-0.3527 0.1759,-0.6162 0.4396,-0.8797 0.176,-0.2646 0.4398,-0.3521 0.7919,-0.3521 0.3518,0 0.6156,0.0875 0.8797,0.3521 0.2637,0.2635 0.3515,0.527 0.3515,0.8797 z m 9.4115,-3.9581 c 0.2641,0.175 0.3521,0.4396 0.3521,0.7035 0,0.3506 -0.088,0.5281 -0.3521,0.7912 -0.1759,0.1765 -0.44,0.3521 -0.7037,0.3521 -0.2638,0 -0.5278,-0.1756 -0.7913,-0.3521 -0.1765,-0.2631 -0.2643,-0.4406 -0.2643,-0.7912 0,-0.2639 0.0878,-0.5285 0.2643,-0.7035 0.2635,-0.2652 0.5275,-0.3527 0.7913,-0.3527 0.2637,0 0.5278,0.0875 0.7037,0.3527 z m -17.3275,6.8604 c 0,-0.3515 0.0881,-0.7035 0.3515,-0.8796 0.2639,-0.2641 0.5279,-0.3516 0.8797,-0.3516 0.3517,0 0.5281,0.0875 0.8794,0.3516 0.1761,0.1761 0.3519,0.5281 0.3519,0.8796 0,0.2635 -0.1758,0.5281 -0.3519,0.8791 -0.3513,0.176 -0.5277,0.2641 -0.8794,0.352 -0.3518,-0.0879 -0.6158,-0.176 -0.8797,-0.352 -0.2634,-0.351 -0.3515,-0.6156 -0.3515,-0.8791 z m -0.4397,18.2947 c 0.3516,-0.0877 0.6154,0.0874 0.7912,0.3522 0.2639,0.1751 0.4401,0.5272 0.4401,0.8795 0,0.2645 -0.1762,0.5274 -0.4401,0.792 -0.1758,0.2628 -0.4396,0.3522 -0.7912,0.4397 -0.4403,-0.0875 -0.6162,-0.1769 -0.8795,-0.4397 -0.2648,-0.2646 -0.4402,-0.5275 -0.4402,-0.792 0,-0.3523 0.1754,-0.7044 0.4402,-0.8795 0.2633,-0.2648 0.4392,-0.4399 0.8795,-0.3522 z m -2.5509,-13.369 c -0.352,0.3516 -0.7041,0.5281 -1.1436,0.5281 -0.44,0 -0.8796,-0.1765 -1.2312,-0.5281 -0.3519,-0.3521 -0.4401,-0.7041 -0.4401,-1.1442 0,-0.4395 0.0882,-0.879 0.4401,-1.1425 0.3516,-0.4402 0.7912,-0.5288 1.2312,-0.5288 0.4395,0 0.7916,0.0886 1.1436,0.5288 0.3517,0.2635 0.5274,0.703 0.5274,1.1425 0,0.4401 -0.1757,0.7921 -0.5274,1.1442 z m -6.7728,5.8927 -2.9024,-2.1988 2.9024,-1.7591 z m 6.6848,4.5744 c 0,0.4402 -0.1759,0.7904 -0.5277,1.1426 -0.3521,0.3521 -0.7033,0.5272 -1.1435,0.5272 -0.4397,0 -0.8794,-0.1751 -1.2318,-0.5272 -0.2635,-0.3522 -0.4397,-0.7024 -0.4397,-1.1426 0,-0.5287 0.1762,-0.8797 0.4397,-1.2315 0.3524,-0.3516 0.7921,-0.5276 1.2318,-0.5276 0.4402,0 0.7914,0.176 1.1435,0.5276 0.3518,0.3518 0.5277,0.7028 0.5277,1.2315 z"
       style="fill:#ffffff;fill-rule:evenodd"
       id="path29" />
    <path
       d="m 94.6103,94.1018 c -0.3521,0 -0.6159,0.089 -0.7916,0.265 -0.264,0.2635 -0.3521,0.5277 -0.3521,0.7922 0,0.2625 0.0881,0.5271 0.3521,0.7025 0.1757,0.2646 0.4395,0.3521 0.7916,0.3521 0.2641,0 0.4398,-0.0875 0.7038,-0.3521 0.1757,-0.1754 0.3515,-0.44 0.3515,-0.7025 0,-0.2645 -0.1758,-0.5287 -0.3515,-0.7922 -0.264,-0.176 -0.4397,-0.265 -0.7038,-0.265 z"
       style="fill:#e41e15;fill-rule:evenodd"
       id="path30" />
    <path
       d="m 91.0043,97.7974 c 0.2637,-0.2646 0.3515,-0.5281 0.3515,-0.7916 0,-0.3527 -0.0878,-0.6162 -0.3515,-0.8797 -0.2641,-0.2646 -0.5279,-0.3521 -0.8797,-0.3521 -0.3521,0 -0.6159,0.0875 -0.7919,0.3521 -0.2637,0.2635 -0.4396,0.527 -0.4396,0.8797 0,0.2635 0.1759,0.527 0.4396,0.7916 0.176,0.2629 0.4398,0.3514 0.7919,0.4395 0.3518,-0.0881 0.6156,-0.1766 0.8797,-0.4395 z"
       style="fill:#e41e15;fill-rule:evenodd"
       id="path31" />
    <path
       d="m 101.1194,93.7512 c 0,-0.2639 -0.088,-0.5285 -0.3521,-0.7035 -0.1759,-0.2652 -0.44,-0.3527 -0.7037,-0.3527 -0.2638,0 -0.5278,0.0875 -0.7913,0.3527 -0.1765,0.175 -0.2643,0.4396 -0.2643,0.7035 0,0.3506 0.0878,0.5281 0.2643,0.7912 0.2635,0.1765 0.5275,0.3521 0.7913,0.3521 0.2637,0 0.5278,-0.1756 0.7037,-0.3521 0.2641,-0.2631 0.3521,-0.4406 0.3521,-0.7912 z"
       style="fill:#e41e15;fill-rule:evenodd"
       id="path32" />
    <path
       d="m 83.7913,99.0285 c -0.2634,0.1761 -0.3515,0.5281 -0.3515,0.8796 0,0.2635 0.0881,0.5281 0.3515,0.8791 0.2639,0.176 0.5279,0.2641 0.8797,0.352 0.3517,-0.0879 0.5281,-0.176 0.8794,-0.352 0.1761,-0.351 0.3519,-0.6156 0.3519,-0.8791 0,-0.3515 -0.1758,-0.7035 -0.3519,-0.8796 -0.3513,-0.2641 -0.5277,-0.3516 -0.8794,-0.3516 -0.3518,0 -0.6158,0.0875 -0.8797,0.3516 z"
       style="fill:#e41e15;fill-rule:evenodd"
       id="path33" />
    <path
       d="m 83.7913,118.555 c -0.1758,-0.2648 -0.4396,-0.4399 -0.7912,-0.3522 -0.4403,-0.0877 -0.6162,0.0874 -0.8795,0.3522 -0.2648,0.1751 -0.4402,0.5272 -0.4402,0.8795 0,0.2645 0.1754,0.5274 0.4402,0.792 0.2633,0.2628 0.4392,0.3522 0.8795,0.4397 0.3516,-0.0875 0.6154,-0.1769 0.7912,-0.4397 0.2639,-0.2646 0.4401,-0.5275 0.4401,-0.792 0,-0.3523 -0.1762,-0.7044 -0.4401,-0.8795 z"
       style="fill:#e41e15;fill-rule:evenodd"
       id="path34" />
    <path
       d="m 79.3056,105.3619 c 0.4395,0 0.7916,-0.1765 1.1436,-0.5281 0.3517,-0.3521 0.5274,-0.7041 0.5274,-1.1442 0,-0.4395 -0.1757,-0.879 -0.5274,-1.1425 -0.352,-0.4402 -0.7041,-0.5288 -1.1436,-0.5288 -0.44,0 -0.8796,0.0886 -1.2312,0.5288 -0.3519,0.2635 -0.4401,0.703 -0.4401,1.1425 0,0.4401 0.0882,0.7921 0.4401,1.1442 0.3516,0.3516 0.7912,0.5281 1.2312,0.5281 z"
       style="fill:#e41e15;fill-rule:evenodd"
       id="path35" />
    <path
       d="m 70.774,108.5277 2.9024,2.1988 v -3.9579 z"
       style="fill:#e41e15;fill-rule:evenodd"
       id="path36" />
    <path
       d="m 79.8335,116.4435 c 0.3518,-0.3522 0.5277,-0.7024 0.5277,-1.1426 0,-0.5287 -0.1759,-0.8797 -0.5277,-1.2315 -0.3521,-0.3516 -0.7033,-0.5276 -1.1435,-0.5276 -0.4397,0 -0.8794,0.176 -1.2318,0.5276 -0.2635,0.3518 -0.4397,0.7028 -0.4397,1.2315 0,0.4402 0.1762,0.7904 0.4397,1.1426 0.3524,0.3521 0.7921,0.5272 1.2318,0.5272 0.4402,0 0.7914,-0.1751 1.1435,-0.5272 z"
       style="fill:#e41e15;fill-rule:evenodd"
       id="path37" />
    <path
       d="m 106.3968,85.4832 c -0.3522,0.0875 -0.7917,0.1754 -1.1438,0.2629 h -0.0879 c -0.1756,1.8478 -0.4397,3.7831 -0.6155,5.6305 -0.1762,1.2311 -0.3517,2.3746 -0.4395,3.6053 -0.5283,3.8706 -1.2313,7.8287 -1.9356,11.6992 v 0 c 0.2643,0.0875 0.44,0.2635 0.7043,0.2635 z"
       style="fill:#ffffff;fill-rule:evenodd"
       id="path38" />
    <path
       d="m 104.6377,85.9232 c -0.3522,0.0881 -0.704,0.1756 -0.9678,0.2625 -0.2643,1.7598 -0.4397,3.607 -0.7038,5.4548 -0.1754,1.2312 -0.3516,2.4613 -0.6154,3.606 -0.1762,1.4066 -0.44,2.8138 -0.7039,4.2216 -0.3519,2.1992 -0.7916,4.2215 -1.2314,6.4208 0.3519,0.2646 0.704,0.4396 1.1438,0.6156 0.7915,-3.7814 1.495,-7.5645 2.0226,-11.5226 0.1762,-1.1426 0.2638,-2.2869 0.44,-3.5179 0.1761,-1.8473 0.4397,-3.694 0.6159,-5.5408 z"
       style="fill:#ffffff;fill-rule:evenodd"
       id="path39" />
    <path
       d="m 98.1285,105.1854 v 0.089 c -0.7916,-0.5286 -1.4951,-1.1447 -2.1109,-1.6722 -1.5832,-1.4953 -2.6388,-3.3431 -2.9024,-5.2773 -0.4399,0.1755 -0.7915,0.352 -1.1437,0.6151 -0.0875,0 -0.1757,0 -0.1757,0.0885 -0.1762,1.4952 0.2635,2.9024 1.4075,4.3095 1.8468,1.9364 3.958,3.6952 6.4205,4.9262 0.7916,0.4395 1.5832,0.8797 2.4629,1.2307 0.6154,0.5281 0.7921,0.9681 0.3521,1.5843 -1.3194,-0.0881 -2.463,0 -3.5184,0.1749 -4.486,0.7042 -7.5646,3.5181 -9.1479,8.4449 l -0.4398,3.606 c -1.1431,0.4397 -2.2864,0.352 -3.4304,-0.3523 l 1.6713,-7.9161 c 0.3519,-1.3188 1.0554,-1.9348 2.287,-1.8465 2.0234,0.0876 3.4301,-0.8796 4.1338,-3.0785 0.1759,-0.5281 0.1759,-0.9677 -0.0878,-1.6714 -0.0879,-0.176 -0.2635,-0.176 -0.5278,-0.352 -2.8145,-1.4952 -4.9255,-3.6065 -6.2451,-6.1573 -0.6155,0.4395 -1.1433,0.8797 -1.6711,1.4071 l 0.7041,3.6952 c 2.2866,-0.0886 3.87,0.1748 4.7495,0.967 0.8796,0.8796 1.0553,2.2863 0.4396,4.2221 v 0.0882 c -0.0878,0.0878 -0.0878,0.0878 -0.1759,0.0878 -1.9347,0.5273 -3.5182,0.6153 -4.7498,0.0873 l -2.0228,10.3797 c 0,0.0874 0,0.0874 -0.0881,0.0874 -0.264,0.5274 -0.7037,1.1442 -1.0554,1.8471 -0.3518,0.7041 -0.7918,1.3192 -1.3194,1.9359 -0.5278,0.6149 -0.9678,1.2299 -1.3197,1.9343 -0.1755,0.4399 -0.2635,0.9674 -0.3516,1.4069 0,0.2646 -0.0878,0.5275 -0.0878,0.7918 v 0 c 0,0.7046 0.0878,1.4072 0.3517,2.0238 0.9675,0.7028 1.8469,0.8797 2.6385,0.7028 0.7039,-0.2628 1.4074,-1.0548 1.9353,-2.3741 -0.3517,-2.8156 0.5277,-5.0149 2.6385,-6.4214 0,-0.0877 0.0881,-0.0877 0.0881,-0.0877 l 1.3197,-0.6152 c 0.0881,-0.0892 0.1756,-0.0892 0.2634,0 0,0 0.0882,0 0.0882,0.0876 0.0881,0 0.0881,0.0876 0.0881,0.1753 l 0.0881,1.2317 v 0.0875 c 0.1757,1.6716 -0.4397,3.4309 -1.9356,5.4546 l 0.0881,0.0876 c 0,0 0.0881,0 0.0881,0.0876 v 0 c 0.8799,0.5275 1.6713,0.9671 2.5509,1.4069 v 0 c 0.6154,0.3521 1.2313,0.7043 1.8473,0.9672 0.8796,-0.7904 1.9345,-1.407 3.1661,-1.9342 -1.7591,-1.4947 -2.9026,-3.0787 -3.5183,-4.8379 0,-0.0873 0,-0.1751 0,-0.2646 v 0.0895 c -0.2638,-0.8797 -0.44,-1.8484 -0.44,-2.728 0,-0.7027 0.0881,-1.3194 0.1762,-1.9342 0.5278,-2.639 2.2867,-4.9255 5.1895,-6.9492 v -0.0877 c 0.3516,-0.1757 0.7037,-0.4395 1.0559,-0.6154 0.9673,-0.6159 2.0227,-1.056 3.0783,-1.4076 0.2635,-0.1756 0.5278,-0.2632 0.7912,-0.3518 0.3519,-0.0886 0.7036,-0.1762 1.0562,-0.2635 v 0 c 2.1107,-0.6156 4.3977,-0.8796 6.86,-0.8796 2.4634,0 4.7497,0.264 6.8615,0.8796 l -0.5275,-4.1341 c -1.7593,0.351 -3.6956,0.5281 -5.6298,0.5281 -2.7265,0 -5.19,-0.3521 -7.4769,-1.1441 -0.3516,-0.0875 -0.6154,-0.2635 -0.9669,-0.2635 -0.2644,-0.1767 -0.44,-0.264 -0.6162,-0.3515 -0.5278,-0.2646 -0.9676,-0.4402 -1.4072,-0.7047 -0.7035,-0.2629 -1.3195,-0.7031 -1.8473,-1.1431 z m -14.2491,22.6051 c 0.2639,0.1751 0.352,0.3524 0.352,0.5273 0,0.2648 -0.0881,0.3522 -0.352,0.5272 -0.0881,0.1773 -0.2639,0.2649 -0.4396,0.2649 -0.176,0 -0.4397,-0.0876 -0.5278,-0.2649 -0.176,-0.175 -0.2638,-0.2624 -0.2638,-0.5272 0,-0.1749 0.0878,-0.3522 0.2638,-0.5273 0.0881,-0.1753 0.3518,-0.1753 0.5278,-0.1753 0.1757,0 0.3515,0 0.4396,0.1753 z m 6.5089,2.3742 c 0,-0.0878 0,-0.0878 0,-0.0878 0.7916,-0.0876 1.3194,0.2646 1.671,1.0567 0.2644,0.4397 0,0.7027 -0.6154,0.5276 -0.7918,-0.1772 -1.1436,-0.7044 -1.0556,-1.4072 z"
       style="fill:#ffffff;fill-rule:evenodd"
       id="path40" />
    <path
       d="m 84.2314,128.3178 c 0,-0.1749 -0.0881,-0.3522 -0.352,-0.5273 -0.0881,-0.1753 -0.2639,-0.1753 -0.4396,-0.1753 -0.176,0 -0.4397,0 -0.5278,0.1753 -0.176,0.1751 -0.2638,0.3524 -0.2638,0.5273 0,0.2648 0.0878,0.3522 0.2638,0.5272 0.0881,0.1773 0.3518,0.2649 0.5278,0.2649 0.1757,0 0.3515,-0.0876 0.4396,-0.2649 0.2639,-0.175 0.352,-0.2624 0.352,-0.5272 z"
       style="fill:#e41e15;fill-rule:evenodd"
       id="path41" />
    <path
       d="m 90.3883,130.0769 c 0,0 0,0 0,0.0878 0,0 0,0 0,0.0893 -0.088,0.7028 0.2638,1.23 1.0556,1.4072 0.6154,0.1751 0.8798,-0.0879 0.6154,-0.5276 -0.3516,-0.7921 -0.8794,-1.1443 -1.671,-1.0567 z"
       style="fill:#e41e15;fill-rule:evenodd"
       id="path42" />
    <path
       d="m 92.3237,122.6007 c -0.0882,0.4397 -0.1763,0.9673 -0.1763,1.407 0,0.8796 0.1763,1.6713 0.3517,2.5509 0,0 0,0 0.0881,0 1.1435,0.4398 2.3753,0.792 3.6946,1.1441 0.7911,0.1754 1.6713,0.4402 2.5505,0.6151 0.1757,0 0.44,0.0878 0.6154,0.0878 0.4397,0.089 0.8796,0.177 1.2318,0.177 0.6154,0.0874 1.2312,0.2624 1.8467,0.2624 5.8934,0.7047 12.2269,0.2649 18.9117,-1.3189 1.0546,-0.2632 2.1988,-0.5277 3.2534,-0.8799 0.8796,-0.2627 1.6718,-0.5272 2.5514,-0.7902 1.5838,-0.529 3.1664,-1.1439 4.8376,-1.7591 0.0874,-0.9691 -0.3526,-1.759 -1.4945,-2.1112 -0.9683,0.3522 -2.0239,0.615 -2.9911,0.967 -1.4957,0.4399 -2.9034,0.8794 -4.3105,1.1442 -1.3193,0.3505 -2.5509,0.6152 -3.8702,0.9673 -6.2448,1.2318 -11.874,1.4944 -16.9752,0.7024 -0.3521,-0.0876 -0.704,-0.0876 -1.0558,-0.1751 -0.5278,-0.0876 -1.0557,-0.1752 -1.5832,-0.2645 v 0 c -0.264,-0.0877 -0.4395,-0.1753 -0.6159,-0.1753 -0.9675,-0.2644 -1.847,-0.5275 -2.7266,-0.7919 -0.1755,0 -0.3517,-0.0877 -0.4397,-0.0877 -1.3197,-0.5274 -2.551,-1.0548 -3.6939,-1.6714 z m 1.3194,1.8467 c 0.2635,0 0.5272,0.0892 0.7035,0.2647 0.2637,0.2642 0.3513,0.5272 0.3513,0.7918 0,0.2627 -0.0876,0.5273 -0.3513,0.7024 -0.1763,0.2648 -0.44,0.3523 -0.7035,0.3523 -0.2643,0 -0.5279,-0.0875 -0.7922,-0.3523 -0.1756,-0.1751 -0.2637,-0.4397 -0.2637,-0.7024 0,-0.2646 0.0881,-0.5276 0.2637,-0.7918 0.2643,-0.1755 0.5279,-0.2647 0.7922,-0.2647 z m 3.6938,1.4086 c 0.176,-0.2645 0.4398,-0.3521 0.704,-0.3521 0.3516,0 0.5276,0.0876 0.7914,0.3521 0.0881,0.0876 0.1757,0.1752 0.2635,0.263 0,0.177 0.0881,0.2645 0.0881,0.4396 0,0.2649 -0.0881,0.4398 -0.2635,0.6166 -0.0881,0.0877 -0.0881,0.0877 -0.0881,0.1754 -0.2638,0.1755 -0.4398,0.2646 -0.7914,0.2646 -0.2642,0 -0.528,-0.0891 -0.704,-0.2646 -0.264,-0.2645 -0.3521,-0.5271 -0.3521,-0.792 0,-0.2626 0.0881,-0.5274 0.3521,-0.7026 z m 6.2449,2.1988 c -0.2635,-0.1767 -0.3516,-0.4396 -0.3516,-0.7042 0,-0.2645 0.0881,-0.5271 0.3516,-0.792 0.1762,-0.1751 0.44,-0.2626 0.7916,-0.2626 0.2643,0 0.44,0.0875 0.7042,0.2626 0.1754,0.2649 0.3517,0.5275 0.3517,0.792 0,0.2646 -0.1763,0.5275 -0.3517,0.7042 -0.2642,0.263 -0.4399,0.3508 -0.7042,0.3508 -0.3516,0 -0.6154,-0.0878 -0.7916,-0.3508 z m 7.0372,0.5278 c -0.3521,0 -0.6162,-0.177 -0.8802,-0.3521 -0.0874,-0.1757 -0.2635,-0.44 -0.2635,-0.7044 0,-0.3509 0.1761,-0.6153 0.2635,-0.7904 0.264,-0.1771 0.5281,-0.3522 0.8802,-0.3522 0.2635,0 0.4395,0.1751 0.7035,0.3522 0.1756,0.1751 0.3516,0.4395 0.3516,0.7904 0,0.2644 -0.176,0.5287 -0.3516,0.7044 -0.264,0.1751 -0.44,0.3521 -0.7035,0.3521 z m 4.5741,-1.5842 c 0,-0.2627 0.0881,-0.5273 0.263,-0.7024 0.2646,-0.2648 0.4394,-0.3524 0.7915,-0.3524 0.2652,0 0.5276,0.0876 0.7047,0.3524 0.2629,0.1751 0.2629,0.4397 0.2629,0.7024 0,0.3522 0,0.5277 -0.2629,0.7921 -0.1771,0.1751 -0.4395,0.3524 -0.7047,0.3524 -0.3521,0 -0.5269,-0.1773 -0.7915,-0.3524 -0.1749,-0.2644 -0.263,-0.4399 -0.263,-0.7921 z m 6.6843,-0.4398 c -0.176,-0.2626 -0.352,-0.4396 -0.352,-0.7026 0,-0.3521 0.176,-0.6167 0.352,-0.7918 0.1756,-0.2644 0.4402,-0.3521 0.7923,-0.3521 0.2624,0 0.4395,0.0877 0.7024,0.3521 0.1771,0.1751 0.3521,0.4397 0.3521,0.7918 0,0.263 -0.175,0.44 -0.3521,0.7026 -0.2629,0.1771 -0.44,0.3522 -0.7024,0.3522 -0.3521,0 -0.6167,-0.1751 -0.7923,-0.3522 z m 6.421,-2.5509 c 0.0886,0.0892 0.176,0.2644 0.176,0.3521 0,0.1768 -0.0874,0.2644 -0.176,0.3523 -0.0886,0.0877 -0.176,0.1752 -0.3516,0.1752 -0.1765,0 -0.264,0 -0.3521,-0.0875 -0.0874,-0.0877 -0.0874,-0.0877 -0.176,-0.1756 0,0 0,-0.0876 0,-0.2644 0,-0.0877 0,-0.2629 0.0886,-0.3521 0.0874,-0.0881 0.0874,-0.0881 0.0874,-0.0881 0.0881,-0.0875 0.2642,-0.0875 0.3521,-0.0875 0.1756,0 0.263,0.0875 0.3516,0.1756 z"
       style="fill:#ffffff;fill-rule:evenodd"
       id="path43" />
    <path
       d="m 94.3466,124.7121 c -0.1763,-0.1755 -0.44,-0.2647 -0.7035,-0.2647 -0.2643,0 -0.5279,0.0892 -0.7922,0.2647 -0.1756,0.2642 -0.2637,0.5272 -0.2637,0.7918 0,0.2627 0.0881,0.5273 0.2637,0.7024 0.2643,0.2648 0.5279,0.3523 0.7922,0.3523 0.2635,0 0.5272,-0.0875 0.7035,-0.3523 0.2637,-0.1751 0.3513,-0.4397 0.3513,-0.7024 0,-0.2646 -0.0876,-0.5276 -0.3513,-0.7918 z"
       style="fill:#e41e15;fill-rule:evenodd"
       id="path44" />
    <path
       d="m 98.0409,125.5039 c -0.2642,0 -0.528,0.0876 -0.704,0.3521 -0.264,0.1752 -0.3521,0.44 -0.3521,0.7026 0,0.2649 0.0881,0.5275 0.3521,0.792 0.176,0.1755 0.4398,0.2646 0.704,0.2646 0.3516,0 0.5276,-0.0891 0.7914,-0.2646 0,-0.0877 0,-0.0877 0.0881,-0.1754 0.1754,-0.1768 0.2635,-0.3517 0.2635,-0.6166 0,-0.1751 -0.0881,-0.2626 -0.0881,-0.4396 -0.0878,-0.0878 -0.1754,-0.1754 -0.2635,-0.263 -0.2638,-0.2645 -0.4398,-0.3521 -0.7914,-0.3521 z"
       style="fill:#e41e15;fill-rule:evenodd"
       id="path45" />
    <path
       d="m 103.2302,127.3506 c 0,0.2646 0.0881,0.5275 0.3516,0.7042 0.1762,0.263 0.44,0.3508 0.7916,0.3508 0.2643,0 0.44,-0.0878 0.7042,-0.3508 0.1754,-0.1767 0.3517,-0.4396 0.3517,-0.7042 0,-0.2645 -0.1763,-0.5271 -0.3517,-0.792 -0.2642,-0.1751 -0.4399,-0.2626 -0.7042,-0.2626 -0.3516,0 -0.6154,0.0875 -0.7916,0.2626 -0.2635,0.2649 -0.3516,0.5275 -0.3516,0.792 z"
       style="fill:#e41e15;fill-rule:evenodd"
       id="path46" />
    <path
       d="m 109.7388,128.2305 c 0.264,0.1751 0.5281,0.3521 0.8802,0.3521 0.2635,0 0.4395,-0.177 0.7035,-0.3521 0.1756,-0.1757 0.3516,-0.44 0.3516,-0.7044 0,-0.3509 -0.176,-0.6153 -0.3516,-0.7904 -0.264,-0.1771 -0.44,-0.3522 -0.7035,-0.3522 -0.3521,0 -0.6162,0.1751 -0.8802,0.3522 -0.0874,0.1751 -0.2635,0.4395 -0.2635,0.7904 0,0.2644 0.1761,0.5287 0.2635,0.7044 z"
       style="fill:#e41e15;fill-rule:evenodd"
       id="path47" />
    <path
       d="m 115.4561,126.296 c -0.1749,0.1751 -0.263,0.4397 -0.263,0.7024 0,0.3522 0.0881,0.5277 0.263,0.7921 0.2646,0.1751 0.4394,0.3524 0.7915,0.3524 0.2652,0 0.5276,-0.1773 0.7047,-0.3524 0.2629,-0.2644 0.2629,-0.4399 0.2629,-0.7921 0,-0.2627 0,-0.5273 -0.2629,-0.7024 -0.1771,-0.2648 -0.4395,-0.3524 -0.7047,-0.3524 -0.3521,0 -0.5269,0.0876 -0.7915,0.3524 z"
       style="fill:#e41e15;fill-rule:evenodd"
       id="path48" />
    <path
       d="m 121.5254,125.856 c 0,0.263 0.176,0.44 0.352,0.7026 0.1756,0.1771 0.4402,0.3522 0.7923,0.3522 0.2624,0 0.4395,-0.1751 0.7024,-0.3522 0.1771,-0.2626 0.3521,-0.4396 0.3521,-0.7026 0,-0.3521 -0.175,-0.6167 -0.3521,-0.7918 -0.2629,-0.2644 -0.44,-0.3521 -0.7024,-0.3521 -0.3521,0 -0.6167,0.0877 -0.7923,0.3521 -0.176,0.1751 -0.352,0.4397 -0.352,0.7918 z"
       style="fill:#e41e15;fill-rule:evenodd"
       id="path49" />
    <path
       d="m 128.4744,124.3598 c 0,-0.0877 -0.0874,-0.2629 -0.176,-0.3521 -0.0886,-0.0881 -0.176,-0.1756 -0.3516,-0.1756 -0.0879,0 -0.264,0 -0.3521,0.0875 0,0 0,0 -0.0874,0.0881 -0.0886,0.0892 -0.0886,0.2644 -0.0886,0.3521 0,0.1768 0,0.2644 0.0886,0.3523 0,0 0,0 0.0874,0.0877 0.0881,0.0875 0.1756,0.0875 0.3521,0.0875 0.1756,0 0.263,-0.0875 0.3516,-0.1752 0.0886,-0.0879 0.176,-0.1755 0.176,-0.3523 z"
       style="fill:#e41e15;fill-rule:evenodd"
       id="path50" />
    <path
       d="m 101.0314,113.6301 c -0.8797,0.3514 -1.7591,0.7026 -2.6389,1.2308 -0.0881,0.3511 -0.1761,0.7029 -0.264,1.1429 -0.0876,0.3522 -0.1754,0.7918 -0.2635,1.1442 v 0 c -0.1762,0.7919 -0.2641,1.5821 -0.44,2.374 -0.1762,1.4962 -0.4402,2.9033 -0.5278,4.3101 0.7037,0.2648 1.5835,0.5277 2.3751,0.7045 0.4394,-3.4308 1.055,-7.0366 1.7591,-10.9065 z"
       style="fill:#ffffff;fill-rule:evenodd"
       id="path51" />
    <path
       d="m 100.3273,129.1974 c -0.3515,-0.0875 -0.6156,-0.0875 -0.967,-0.1751 -0.088,1.5821 -0.2645,3.1661 -0.3523,4.7499 -0.0876,0.9674 -0.0876,1.9344 -0.1757,2.9894 -0.0879,3.0783 -0.0879,6.2461 0,9.5001 l 1.2313,-0.1756 c -0.0878,-0.4396 -0.0878,-0.8793 -0.1762,-1.319 v 0 c -0.1757,-2.7282 -0.2636,-5.2776 -0.1757,-7.7413 0,-0.967 0,-1.8465 0.0881,-2.8137 0.0876,-1.7591 0.2638,-3.431 0.5275,-5.0147 z"
       style="fill:#ffffff;fill-rule:evenodd"
       id="path52" />
    <path
       d="m 98.7444,128.9346 h -0.0881 c -0.7032,-0.1772 -1.495,-0.352 -2.199,-0.529 -0.0882,1.0562 -0.1755,2.1112 -0.1755,3.1677 0,0.0879 0,0.0879 0,0.0879 0.0873,0.0875 0.0873,0.1751 0,0.1751 0,0.0875 0,0.0875 0,0.0875 -0.0881,1.3196 -0.0881,2.4637 -0.0881,3.695 v 0.0878 c 0,0.1753 0,0.2649 0,0.4397 0,1.0551 0,2.024 0,3.0783 0,0.088 0,0.1756 0,0.1756 v 0.0893 c 0,0 0,0.0877 0,0.1751 0.0881,1.672 0.1754,3.3431 0.2636,5.1025 0,0.4397 0.088,0.8794 0.088,1.4069 0,0.0877 0,0.1753 0,0.2629 l 1.4956,-0.1752 c -0.2642,-2.814 -0.2642,-6.0694 0,-9.8505 0,-0.9692 0.0876,-2.0237 0.2635,-3.0787 0.0881,-1.4087 0.2641,-2.9034 0.44,-4.3979 z"
       style="fill:#ffffff;fill-rule:evenodd"
       id="path53" />
    <path
       d="m 95.5775,135.7066 c 0,0 0,-0.2646 0,-0.967 0,-0.5275 0,-1.3196 0.0881,-2.4637 -1.1431,0.5273 -2.199,1.2317 -3.1665,2.0238 -0.7914,0.7025 -1.4948,1.4947 -2.1108,2.4619 -0.9678,1.3194 -1.6712,2.8156 -2.1107,4.575 l 1.4949,1.6711 c 1.3193,-3.3431 3.2546,-5.7171 5.805,-7.1258 0,-0.0875 0,-0.1753 0,-0.1753 z"
       style="fill:#ffffff;fill-rule:evenodd"
       id="path54" />
    <path
       d="m 95.5775,139.2246 c 0,-0.9668 0,-1.934 0,-2.8134 -2.4623,1.407 -4.3095,3.6935 -5.5408,6.8594 l 2.1988,2.3759 c 0.2636,-2.4637 1.3192,-4.5747 3.342,-6.157 0,-0.0893 0,-0.1769 0,-0.2649 z"
       style="fill:#ffffff;fill-rule:evenodd"
       id="path55" />
    <path
       d="m 102.7907,137.4659 v 0 c 3.6938,0.8795 7.4762,1.2319 11.2583,1.0546 v 0 c 0.0874,0 0.0874,0 0.176,0 0.0885,0 0.176,0 0.2635,0 h 0.0879 c 3.9581,-0.3502 7.8287,-1.3191 11.2591,-2.989 -0.7042,-1.2318 -1.4072,-2.4637 -2.1113,-3.6077 -0.3521,0.2646 -0.7921,0.6167 -1.2317,0.8794 v 0 c -3.518,2.4639 -7.8275,3.6956 -12.7537,3.6956 -2.6385,0 -5.0134,-0.3525 -7.2126,-1.0568 -0.7914,-0.1749 -1.4948,-0.4398 -2.1989,-0.7024 0,0.7024 0,1.4067 0,2.1111 0.7921,0.1751 1.5834,0.4399 2.4634,0.6152 z"
       style="fill:#ffffff;fill-rule:evenodd"
       id="path56" />
    <path
       d="m 92.4991,145.9094 2.0234,2.1112 1.407,-1.3192 v -0.2645 c 0,-0.0876 0,-0.1752 0,-0.1752 0,-0.5274 -0.0873,-1.0549 -0.0873,-1.4946 -0.0881,-1.6717 -0.1766,-3.2556 -0.2647,-4.9272 -1.7588,1.4967 -2.8142,3.5184 -3.0784,6.0695 z"
       style="fill:#ffffff;fill-rule:evenodd"
       id="path57" />
    <path
       d="m 141.0521,102.8106 c 0.7035,-0.2635 1.1431,-0.7037 1.2312,-1.5833 -0.7026,-1.1432 -1.8468,-2.1988 -3.5185,-3.167 -0.3516,0.4401 -0.7026,0.8797 -1.0547,1.3192 -0.1765,0.0886 -0.2646,0.1771 -0.44,0.3526 0.3521,0.176 0.615,0.352 0.8795,0.527 1.3193,0.7922 2.1995,1.6718 2.9025,2.5515 z m -1.2307,-2.1988 c -0.0885,-0.0881 -0.1765,-0.1756 -0.1765,-0.2642 0,-0.176 0.088,-0.351 0.1765,-0.4395 0.175,-0.0886 0.2625,-0.176 0.4396,-0.176 0.0881,0 0.263,0.0874 0.3516,0.176 0.0879,0.0885 0.176,0.2635 0.176,0.4395 0,0.0886 -0.0881,0.1761 -0.176,0.2642 -0.0886,0.1754 -0.2635,0.1754 -0.3516,0.1754 -0.1771,0 -0.2646,0 -0.4396,-0.1754 z"
       style="fill:#ffffff;fill-rule:evenodd"
       id="path58" />
    <path
       d="m 139.6449,100.3476 c 0,0.0886 0.088,0.1761 0.1765,0.2642 0.175,0.1754 0.2625,0.1754 0.4396,0.1754 0.0881,0 0.263,0 0.3516,-0.1754 0.0879,-0.0881 0.176,-0.1756 0.176,-0.2642 0,-0.176 -0.0881,-0.351 -0.176,-0.4395 -0.0886,-0.0886 -0.2635,-0.176 -0.3516,-0.176 -0.1771,0 -0.2646,0.0874 -0.4396,0.176 -0.0885,0.0885 -0.1765,0.2635 -0.1765,0.4395 z"
       style="fill:#e41e15;fill-rule:evenodd"
       id="path59" />
    <path
       d="m 139.9084,119.522 c 1.9347,-0.967 3.4311,-2.1989 4.3987,-3.8703 l -2.9035,-2.6381 c -0.1755,0.4393 -0.4396,0.8792 -0.615,1.2317 -1.1437,1.7585 -2.5509,3.0778 -4.3107,4.0449 0.7041,0.6169 1.3197,1.1443 1.9353,1.7591 0.5287,-0.1751 1.0557,-0.3503 1.4952,-0.5273 z m 1.5833,-4.2211 c 0.1765,0 0.2639,0.0876 0.3514,0.1756 0.0886,0.0873 0.1771,0.1752 0.1771,0.3522 0,0.1751 -0.0885,0.2626 -0.1771,0.3521 -0.0875,0.0874 -0.1749,0.1752 -0.3514,0.1752 -0.0881,0 -0.2636,-0.0878 -0.351,-0.1752 -0.0886,-0.0895 -0.1767,-0.177 -0.1767,-0.3521 0,-0.177 0.0881,-0.2649 0.1767,-0.3522 0.0874,-0.088 0.2629,-0.1756 0.351,-0.1756 z"
       style="fill:#ffffff;fill-rule:evenodd"
       id="path60" />
    <path
       d="m 141.8431,115.4765 c -0.0875,-0.088 -0.1749,-0.1756 -0.3514,-0.1756 -0.0881,0 -0.2636,0.0876 -0.351,0.1756 -0.0886,0.0873 -0.1767,0.1752 -0.1767,0.3522 0,0.1751 0.0881,0.2626 0.1767,0.3521 0.0874,0.0874 0.2629,0.1752 0.351,0.1752 0.1765,0 0.2639,-0.0878 0.3514,-0.1752 0.0886,-0.0895 0.1771,-0.177 0.1771,-0.3521 0,-0.177 -0.0885,-0.2649 -0.1771,-0.3522 z"
       style="fill:#e41e15;fill-rule:evenodd"
       id="path61" />
    <path
       d="m 138.0622,120.6662 c -0.7042,-0.792 -1.4962,-1.4964 -2.2879,-2.199 -4.6611,-3.9574 -9.5868,-6.5089 -14.9525,-7.388 0.264,1.1431 0.4396,2.286 0.7036,3.4306 0.352,0.1751 0.6155,0.3511 0.9671,0.5268 2.9909,2.1114 4.7502,4.4854 5.2778,7.2117 0.8791,-0.2626 1.8472,-0.6148 2.7274,-0.8792 0.0881,0 0.1755,0 0.1755,0 1.6717,0.5288 2.2868,1.5836 2.0226,3.0783 -0.0879,0 -0.0879,0.0892 -0.0879,0.0892 -0.0875,0 -0.0875,0.0876 -0.1756,0.0876 -1.5836,0.6151 -3.2543,1.2318 -4.8376,1.7593 -0.176,0.7917 -0.5275,1.6713 -1.0556,2.4615 l 3.3425,4.3984 c 3.2538,-2.1991 6.2442,-5.0129 8.8832,-8.6192 0.4395,-0.6165 0.8801,-1.2316 1.3191,-1.8466 -0.1755,-0.2646 -0.439,-0.5293 -0.615,-0.7041 v 0 c -0.527,-0.528 -0.8797,-0.9677 -1.4067,-1.4073 z"
       style="fill:#ffffff;fill-rule:evenodd"
       id="path62" />
    <path
       d="m 124.6913,127.2629 c -0.8797,0.2632 -1.7592,0.5276 -2.6383,0.7027 0.7041,1.1443 1.3191,2.1991 2.0232,3.3432 0.8802,1.4069 1.6718,2.8138 2.4629,4.2227 1.3198,2.3742 2.4628,4.7484 3.5179,7.1239 2.2879,-0.7918 3.6946,-1.6713 4.1346,-2.4631 z"
       style="fill:#ffffff;fill-rule:evenodd"
       id="path63" />
  </g>
</svg>
