<?xml version="1.0" encoding="UTF-8" standalone="no"?>
<svg
   version="1.1"
   width="1.3858695in"
   height="1.3903649in"
   viewBox="0 0 99.782604 100.10627"
   id="svg12"
   sodipodi:docname="botafogo.cdr"
   xmlns:inkscape="http://www.inkscape.org/namespaces/inkscape"
   xmlns:sodipodi="http://sodipodi.sourceforge.net/DTD/sodipodi-0.dtd"
   xmlns="http://www.w3.org/2000/svg"
   xmlns:svg="http://www.w3.org/2000/svg">
  <defs
     id="defs12" />
  <sodipodi:namedview
     id="namedview12"
     pagecolor="#ffffff"
     bordercolor="#000000"
     borderopacity="0.25"
     inkscape:showpageshadow="2"
     inkscape:pageopacity="0.0"
     inkscape:pagecheckerboard="0"
     inkscape:deskcolor="#d1d1d1"
     inkscape:document-units="in" />
  <g
     id="Layer1003"
     transform="matrix(1,0,0,0.90137416,-58.108498,-47.295085)">
    <path
       d="m 157.8312,78.4275 0.0599,-15.3424 c -15.2225,3.9555 -30.9844,-5.5136 -30.9844,-5.5136 -10.9651,-5.5137 -18.8779,-5.0942 -18.8779,-5.0942 0,0 -7.9708,-0.4195 -18.936,5.0942 0,0 -15.7618,9.4691 -30.9843,5.5136 l 0.06,15.3424 c -0.3596,60.4104 49.8866,85.1021 49.8866,85.1021 0,0 50.1355,-24.6917 49.7761,-85.1021 z"
       style="fill:#1b1918;fill-rule:evenodd"
       id="path10" />
    <path
       d="m 108.0507,158.1281 c 0,0 -45.8291,-26.1623 -45.8957,-77.3347 L 62.1,68.5962 c 18.9799,-0.0772 29.4644,-6.9904 29.4644,-6.9904 10.088,-5.0725 16.4621,-4.6865 16.4621,-4.6865 0,0 6.3804,-0.386 16.4683,4.6865 0,0 10.4845,6.9132 29.4644,6.9904 l -0.0551,12.1972 c -0.0665,51.1724 -45.8534,77.3347 -45.8534,77.3347 z m 40.3967,-76.0454 0.0483,-7.8569 c -14.4274,0.0465 -25.9288,-7.1104 -25.9288,-7.1104 -8.8773,-4.4638 -14.54,-4.1242 -14.54,-4.1242 0,0 -5.6094,-0.3396 -14.4868,4.1242 0,0 -11.5014,7.1569 -25.9288,7.1104 l 0.0485,7.8569 c -0.1643,43.8101 40.3883,69.9727 40.3883,69.9727 0,0 40.5634,-26.1626 40.3993,-69.9727 z"
       style="fill:#ffffff;fill-rule:evenodd"
       id="path11" />
    <path
       d="m 108.0409,70.8421 6.4518,19.8548 h 20.8765 l -16.8891,12.2718 6.4515,19.855 -16.8904,-12.2703 -16.8894,12.2712 6.4501,-19.8551 -16.8903,-12.2703 20.8768,-0.0018 z"
       style="fill:#ffffff;fill-rule:evenodd"
       id="path12" />
  </g>
</svg>
