<?xml version="1.0" encoding="UTF-8" standalone="no"?>
<svg
   version="1.1"
   width="1.239471in"
   height="1.2408757in"
   viewBox="0 0 89.241909 89.343052"
   id="svg24"
   sodipodi:docname="ABC.cdr"
   xmlns:inkscape="http://www.inkscape.org/namespaces/inkscape"
   xmlns:sodipodi="http://sodipodi.sourceforge.net/DTD/sodipodi-0.dtd"
   xmlns="http://www.w3.org/2000/svg"
   xmlns:svg="http://www.w3.org/2000/svg">
  <defs
     id="defs24" />
  <sodipodi:namedview
     id="namedview24"
     pagecolor="#ffffff"
     bordercolor="#000000"
     borderopacity="0.25"
     inkscape:showpageshadow="2"
     inkscape:pageopacity="0.0"
     inkscape:pagecheckerboard="0"
     inkscape:deskcolor="#d1d1d1"
     inkscape:document-units="in" />
  <g
     id="Layer1000"
     style="display:none"
     transform="translate(-63.379002,-60.145615)">
    <path
       d="M 0,216.0002 H 215.9998 V -2e-4 H 0 Z"
       style="fill:#d7dddd;fill-rule:evenodd"
       id="path1" />
    <g
       id="Layer1001">
      <path
         d="M 75.7414,206.2579 74.0892,216 H 0 v -9.7421 z"
         style="fill:#e30016;fill-rule:evenodd"
         id="path2" />
      <path
         d="M 75.7414,206.2579 74.0892,216 h 141.911 v -9.7421 z"
         style="fill:#1b1918;fill-rule:evenodd"
         id="path3" />
      <path
         d="m 86.6423,209.4519 c 0.9906,0 1.7957,0.7961 1.7957,1.7692 0,0.9906 -0.8051,1.7869 -1.7957,1.7869 -0.9731,0 -1.7869,-0.7963 -1.7869,-1.7869 0,-0.9731 0.8138,-1.7692 1.7869,-1.7692 z m 0,4.1223 c 1.3004,0 2.3529,-1.0527 2.3529,-2.3531 0,-1.2826 -1.0525,-2.3354 -2.3529,-2.3354 -1.2916,0 -2.3443,1.0528 -2.3443,2.3354 0,1.3004 1.0527,2.3531 2.3443,2.3531 z m 7.4572,-4.6444 c -0.3273,0 -0.4953,0.2832 -0.4953,0.6193 v 0.2301 c 0,0 -0.5131,-0.8494 -1.5658,-0.8494 -1.2561,0 -2.1585,1.0087 -2.1585,2.1939 0,1.212 0.9112,2.0523 2.1497,2.0523 1.1499,0 1.5746,-0.7342 1.5746,-0.7342 v 0.4866 c 0,0.9288 -0.5131,1.5658 -1.557,1.5658 -0.6989,0 -1.3711,-0.4335 -1.3711,-0.4335 -0.0443,-0.0265 -0.1061,-0.0355 -0.1504,-0.0355 -0.1681,0 -0.283,0.1239 -0.283,0.2832 0,0.0884 0.0353,0.1592 0.1415,0.2299 0,0 0.6811,0.4953 1.6717,0.4953 1.0528,0 2.1143,-0.4953 2.1143,-2.1052 v -3.3438 c 0,-0.0886 0.062,-0.1151 0.062,-0.1151 0.1062,-0.0441 0.1681,-0.1503 0.1681,-0.2565 0,-0.168 -0.1415,-0.2832 -0.3008,-0.2832 z m -2.017,0.5487 c 0.9465,0 1.5658,0.7695 1.5658,1.6276 0,0.92 -0.6458,1.5303 -1.5834,1.5303 -0.9465,0 -1.5835,-0.6368 -1.5835,-1.5215 0,-0.8757 0.6547,-1.6364 1.6011,-1.6364 z m 3.68,-0.5487 c -0.1593,0 -0.3007,0.1152 -0.3007,0.2832 0,0.1062 0.0618,0.2124 0.168,0.2565 0,0 0.0621,0.0265 0.0621,0.1151 v 3.2907 c 0,0.0884 -0.0621,0.1149 -0.0621,0.1149 -0.1062,0.0443 -0.168,0.1505 -0.168,0.2567 0,0.168 0.1414,0.283 0.3007,0.283 0.3273,0 0.4955,-0.283 0.4955,-0.6193 v -2.6183 c 0,-0.5574 0.5307,-0.8228 1.035,-0.8228 0.2033,0 0.4245,0.0443 0.6103,0.1061 0.1858,0.0621 0.3893,-0.053 0.3893,-0.2654 0,-0.1503 -0.0796,-0.2387 -0.1948,-0.283 -0.2652,-0.0974 -0.5396,-0.1415 -0.8048,-0.1415 -0.4335,0 -0.8494,0.2034 -1.0705,0.5485 0,-0.0797 -0.0176,-0.1593 -0.0265,-0.1858 -0.0707,-0.1858 -0.2212,-0.3186 -0.4335,-0.3186 z m 7.5281,4.6001 c 0.1592,0 0.3007,-0.115 0.3007,-0.283 0,-0.1062 -0.0618,-0.2124 -0.168,-0.2567 0,0 -0.0619,-0.0265 -0.0619,-0.1149 v -3.2907 c 0,-0.0886 0.0619,-0.1151 0.0619,-0.1151 0.1062,-0.0441 0.168,-0.1503 0.168,-0.2565 0,-0.168 -0.1415,-0.2832 -0.3007,-0.2832 -0.3273,0 -0.4953,0.2832 -0.4953,0.6193 v 2.1938 c 0,0.7342 -0.5662,1.2208 -1.3182,1.2208 -0.9996,0 -1.4594,-0.451 -1.4594,-1.4507 v -1.9639 c 0,-0.3361 -0.1683,-0.6193 -0.4955,-0.6193 -0.1593,0 -0.3008,0.1152 -0.3008,0.2832 0,0.1062 0.0619,0.2124 0.168,0.2565 0,0 0.0621,0.0265 0.0621,0.1151 v 1.9284 c 0,1.318 0.6899,2.0169 2.008,2.0169 0.398,0 1.0791,-0.2389 1.3358,-0.7077 -0.0266,0.3361 0.1061,0.7077 0.4953,0.7077 z m 1.7514,1.5037 c 0.3273,0 0.4955,-0.2858 0.4955,-0.6235 v -1.7206 c 0.3714,0.6015 0.9641,0.8404 1.5568,0.8404 1.2208,0 2.1053,-1.0438 2.1053,-2.247 0,-1.256 -0.858,-2.3531 -2.1053,-2.3531 -0.6015,0 -1.2473,0.3275 -1.5568,0.9466 v -0.3273 c 0,-0.3361 -0.1682,-0.6193 -0.4955,-0.6193 -0.1593,0 -0.3008,0.1152 -0.3008,0.2832 0,0.1062 0.0619,0.2124 0.1681,0.2565 0,0 0.062,0.0265 0.062,0.1151 v 4.7901 c 0,0.0884 -0.062,0.115 -0.062,0.115 -0.1062,0.0457 -0.1681,0.1519 -0.1681,0.2581 0,0.1694 0.1415,0.2858 0.3008,0.2858 z m 2.0435,-5.5376 c 0.9554,0 1.5481,0.9112 1.5481,1.7869 0,0.8935 -0.6017,1.6808 -1.5481,1.6808 -0.9465,0 -1.548,-0.7695 -1.548,-1.6718 0,-0.8669 0.5837,-1.7959 1.548,-1.7959 z m 5.3431,-0.0441 c 0.9906,0 1.7957,0.7961 1.7957,1.7692 0,0.9906 -0.8051,1.7869 -1.7957,1.7869 -0.9731,0 -1.787,-0.7963 -1.787,-1.7869 0,-0.9731 0.8139,-1.7692 1.787,-1.7692 z m 0,4.1223 c 1.3003,0 2.3528,-1.0527 2.3528,-2.3531 0,-1.2826 -1.0525,-2.3354 -2.3528,-2.3354 -1.2916,0 -2.3444,1.0528 -2.3444,2.3354 0,1.3004 1.0528,2.3531 2.3444,2.3531 z m 3.8125,-2.6273 c 0.0886,-0.7873 0.7697,-1.495 1.5835,-1.495 0.8314,0 1.495,0.7077 1.6012,1.495 z m 3.4589,0.5661 c 0.1502,0 0.3007,-0.1239 0.3007,-0.2919 0,-1.212 -0.8934,-2.3354 -2.1761,-2.3354 -1.2738,0 -2.1585,1.1324 -2.1585,2.3354 0,1.256 0.8847,2.3531 2.1585,2.3531 0.8051,0 1.3801,-0.2389 1.778,-0.6636 0.0531,-0.0531 0.0796,-0.1237 0.0796,-0.2033 0,-0.1505 -0.1415,-0.2655 -0.283,-0.2655 -0.0796,0 -0.1592,0.0266 -0.2211,0.0884 -0.292,0.292 -0.7342,0.4778 -1.3535,0.4778 -0.8316,0 -1.4684,-0.7166 -1.5835,-1.495 z m 1.6985,2.0169 c 0.3273,0 0.4953,-0.283 0.4953,-0.6193 v -3.4146 h 1.1854 c 0.1503,0 0.2477,-0.1415 0.2477,-0.283 0,-0.168 -0.1327,-0.2832 -0.283,-0.2832 h -1.1501 v -0.3891 c 0,-0.6193 0.1858,-0.92 0.7342,-0.92 0.1593,0 0.3539,0.0531 0.5043,0.0974 0.1858,0.0441 0.3804,-0.0797 0.3804,-0.2742 0,-0.1417 -0.0974,-0.2477 -0.2123,-0.2832 -0.1946,-0.0619 -0.4247,-0.1062 -0.6724,-0.1062 -0.9375,0 -1.3004,0.6989 -1.3004,1.4862 v 0.3891 h -0.2652 c -0.177,0 -0.2832,0.1328 -0.2832,0.2832 0,0.1415 0.0974,0.283 0.2477,0.283 h 0.3007 v 3.3793 c 0,0.0884 -0.0618,0.1149 -0.0618,0.1149 -0.1062,0.0443 -0.1681,0.1505 -0.1681,0.2567 0,0.168 0.1415,0.283 0.3008,0.283 z m 5.6703,-1.1499 c 0,-0.7432 -0.8404,-1.1501 -1.495,-1.4156 -0.4244,-0.168 -1.0525,-0.4069 -1.0525,-0.8314 0,-0.3716 0.4598,-0.6811 0.9907,-0.6811 0.3185,0 0.6458,0.1062 0.8934,0.3008 0.2124,0.1592 0.4688,0 0.4688,-0.2036 0,-0.0796 -0.0353,-0.168 -0.1149,-0.2389 -0.3185,-0.2564 -0.7696,-0.4245 -1.2473,-0.4245 -0.8226,0 -1.5568,0.5307 -1.5568,1.2384 0,0.7962 0.8934,1.1766 1.4771,1.4065 0.5044,0.2036 1.0615,0.3981 1.0615,0.8494 0,0.3626 -0.5041,0.628 -1.0527,0.628 -0.3714,0 -0.7252,-0.0974 -0.9818,-0.2832 -0.2477,-0.168 -0.4866,-0.009 -0.4866,0.1948 0,0.0884 0.0355,0.1768 0.1239,0.2387 0.3627,0.2389 0.8757,0.4159 1.3092,0.4159 0.6901,0 1.663,-0.3185 1.663,-1.1942 z m 6.3869,-0.7698 c -0.2829,0.6812 -0.9375,1.3447 -1.7248,1.3447 -0.8228,0 -1.3094,-0.7697 -1.3094,-1.5658 0,-1.0615 0.8228,-2.0877 1.8754,-2.0877 1.265,0 1.5127,1.3004 1.1588,2.3088 z m 0.0709,0.9643 c 0.1858,0.6369 0.6811,0.9554 1.3445,0.9554 1.3712,0 1.7338,-1.6896 1.7338,-2.7954 0,-1.1411 -0.3716,-2.0789 -1.1854,-2.8927 -0.8314,-0.8314 -1.9903,-1.2118 -3.158,-1.2118 -2.468,0 -4.3699,2.0965 -4.3699,4.37 0,2.3528 1.9727,4.3874 4.3877,4.3874 0.9288,0 1.8135,-0.2917 2.5564,-0.8314 0.0797,-0.0618 0.1238,-0.1504 0.1238,-0.2476 0,-0.177 -0.1415,-0.2832 -0.2918,-0.2832 -0.0621,0 -0.1239,0.0178 -0.177,0.0531 -0.628,0.4512 -1.371,0.7076 -2.1495,0.7076 -2.0965,0 -3.8569,-1.6542 -3.8569,-3.7859 0,-2.0789 1.6983,-3.7772 3.7772,-3.7772 1.0705,0 2.1055,0.3448 2.8397,1.1499 0.5927,0.6545 0.92,1.3269 0.92,2.2203 0,0.7696 -0.1152,2.3442 -1.1501,2.3442 -0.5307,0 -0.8226,-0.3273 -0.8226,-0.8492 0,-0.2477 0.053,-0.4953 0.0884,-0.7432 0.0708,-0.4776 0.1415,-0.9553 0.2211,-1.4329 0.0265,-0.1592 0.2476,-0.1682 0.2476,-0.3804 0,-0.1504 -0.1059,-0.2919 -0.2742,-0.2919 -0.2033,0 -0.3714,0.1415 -0.46,0.3095 -0.336,-0.5306 -0.9022,-0.8226 -1.548,-0.8226 -1.4329,0 -2.4768,1.3357 -2.4768,2.6804 0,1.0792 0.6723,2.123 1.8577,2.123 0.7253,0 1.3798,-0.407 1.8223,-0.9554 z m 8.1206,-3.6447 c -0.3273,0 -0.4954,0.2832 -0.4954,0.6193 v 0.2301 c 0,0 -0.513,-0.8494 -1.5658,-0.8494 -1.256,0 -2.1585,1.0087 -2.1585,2.1939 0,1.212 0.9112,2.0523 2.1498,2.0523 1.1499,0 1.5745,-0.7342 1.5745,-0.7342 v 0.4866 c 0,0.9288 -0.513,1.5658 -1.557,1.5658 -0.6989,0 -1.371,-0.4335 -1.371,-0.4335 -0.0443,-0.0265 -0.1062,-0.0355 -0.1505,-0.0355 -0.168,0 -0.283,0.1239 -0.283,0.2832 0,0.0884 0.0354,0.1592 0.1415,0.2299 0,0 0.6811,0.4953 1.6718,0.4953 1.0527,0 2.1142,-0.4953 2.1142,-2.1052 v -3.3438 c 0,-0.0886 0.0621,-0.1151 0.0621,-0.1151 0.1062,-0.0441 0.168,-0.1503 0.168,-0.2565 0,-0.168 -0.1415,-0.2832 -0.3007,-0.2832 z m -2.0171,0.5487 c 0.9466,0 1.5658,0.7695 1.5658,1.6276 0,0.92 -0.6458,1.5303 -1.5833,1.5303 -0.9466,0 -1.5836,-0.6368 -1.5836,-1.5215 0,-0.8757 0.6548,-1.6364 1.6011,-1.6364 z m 3.6801,4.0514 c 0.3272,0 0.4955,-0.283 0.4955,-0.6193 v -2.2026 c 0,-0.7342 0.4953,-1.212 1.2295,-1.212 0.5131,0 1.1234,0.2742 1.1234,1.1146 v 2.6363 c 0,0.1503 0.1327,0.283 0.2832,0.283 0.1592,0 0.283,-0.1327 0.283,-0.283 v -2.5567 c 0,-0.7695 0.4777,-1.1942 1.2295,-1.1942 0.5131,0 1.1235,0.3273 1.1235,1.1146 v 2.3 c 0,0.3363 0.1681,0.6193 0.4954,0.6193 0.1592,0 0.3007,-0.115 0.3007,-0.283 0,-0.1062 -0.0618,-0.2124 -0.168,-0.2567 0,0 -0.0619,-0.0265 -0.0619,-0.1149 v -2.2557 c 0,-1.1501 -0.8404,-1.6898 -1.672,-1.6898 -0.5749,0 -1.1323,0.2567 -1.4418,0.7786 -0.3008,-0.6103 -0.9288,-0.7786 -1.4774,-0.7786 -0.4776,0 -0.9464,0.1858 -1.2471,0.6458 0,-0.009 0,-0.053 0,-0.0618 -0.0178,-0.3185 -0.1858,-0.584 -0.4955,-0.584 -0.1593,0 -0.3008,0.1152 -0.3008,0.2832 0,0.1062 0.0619,0.2124 0.168,0.2565 0,0 0.0621,0.0265 0.0621,0.1151 v 3.2907 c 0,0.0884 -0.0621,0.1149 -0.0621,0.1149 -0.1061,0.0443 -0.168,0.1505 -0.168,0.2567 0,0.168 0.1415,0.283 0.3008,0.283 z m 11.0664,0.0443 c 0.1592,0 0.3007,-0.1593 0.3007,-0.3273 0,-0.1062 -0.0619,-0.2124 -0.168,-0.2567 0,0 -0.0619,-0.0265 -0.0619,-0.1149 v -2.415 c 0,-0.2476 -0.009,-0.5043 -0.0886,-0.7076 -0.2565,-0.6636 -0.9907,-0.867 -1.7249,-0.867 -0.4246,0 -0.8581,0.0797 -1.1854,0.2034 -0.1149,0.0443 -0.1946,0.1505 -0.1946,0.2654 0,0.1593 0.115,0.2742 0.2742,0.2742 0.0354,0 0.0884,-0.009 0.124,-0.0175 0.3538,-0.0974 0.628,-0.1593 1.0172,-0.1593 0.513,0 1.0173,0.115 1.1588,0.5041 0.0266,0.0709 0.0531,0.3185 0.0531,0.5221 0,0.0884 0,0.1946 0,0.2477 -0.2832,-0.1771 -0.7076,-0.292 -1.088,-0.292 -1.0793,0 -2.017,0.5218 -2.017,1.672 0,0.9553 0.8138,1.4684 1.6897,1.4684 0.5219,0 1.1677,-0.2742 1.4153,-0.7255 0,0.0885 0,0.1946 0.0176,0.2655 0.0621,0.2386 0.2213,0.46 0.4778,0.46 z m -0.4954,-1.7073 c 0,0.7252 -0.7432,1.1499 -1.3977,1.1499 -0.5662,0 -1.1412,-0.292 -1.1412,-0.92 0,-0.7785 0.7077,-1.0968 1.4243,-1.0968 0.3892,0 0.7165,0.053 1.1146,0.2742 z m 2.4503,1.663 c 0.1593,0 0.3008,-0.115 0.3008,-0.283 0,-0.1062 -0.0619,-0.2124 -0.1681,-0.2567 0,0 -0.0618,-0.0265 -0.0618,-0.1149 v -3.3262 c 0,-0.3361 -0.1681,-0.6193 -0.4954,-0.6193 -0.1592,0 -0.3007,0.1152 -0.3007,0.2832 0,0.1062 0.0619,0.2124 0.168,0.2565 0,0 0.0619,0.0265 0.0619,0.1151 v 3.326 c 0,0.3363 0.168,0.6193 0.4953,0.6193 z m -0.3007,-5.6616 c 0.2301,0 0.4159,-0.1855 0.4159,-0.4157 0,-0.2211 -0.1948,-0.3981 -0.4159,-0.3981 -0.2212,0 -0.407,0.177 -0.407,0.4069 0,0.2214 0.1858,0.4069 0.407,0.4069 z m 2.2114,5.6616 c 0.1592,0 0.3007,-0.115 0.3007,-0.283 0,-0.1062 -0.0619,-0.2124 -0.168,-0.2567 0,0 -0.0619,-0.0265 -0.0619,-0.1149 v -5.2015 c 0,-0.3361 -0.168,-0.6193 -0.4953,-0.6193 -0.1593,0 -0.3008,0.1152 -0.3008,0.2832 0,0.1062 0.0619,0.2123 0.1681,0.2564 0,0 0.0618,0.0266 0.0618,0.115 v 5.2015 c 0,0.3363 0.1681,0.6193 0.4954,0.6193 z m 2.0789,0 v 0 c 0.2476,0 0.4512,-0.1946 0.4512,-0.4513 0,-0.2476 -0.2036,-0.451 -0.4512,-0.451 -0.2565,0 -0.4511,0.2034 -0.4511,0.451 0,0.2567 0.1946,0.4513 0.4511,0.4513 z m 3.8037,0.0443 c 0.5131,0 1.0262,-0.1683 1.4243,-0.4866 0.3451,-0.2742 -0.0353,-0.7166 -0.3538,-0.46 -0.3185,0.2565 -0.6901,0.3714 -1.0705,0.3714 -0.9819,0 -1.8045,-0.7961 -1.8045,-1.7602 0,-0.9996 0.8226,-1.7781 1.8045,-1.7781 0.3804,0 0.752,0.1149 1.0705,0.3626 0.3361,0.2654 0.7076,-0.1856 0.3538,-0.46 -0.4069,-0.3183 -0.9112,-0.4776 -1.4243,-0.4776 -1.3004,0 -2.3619,1.0528 -2.3619,2.3531 0,1.2827 1.0615,2.3354 2.3619,2.3354 z m 4.8036,-4.1223 c 0.9906,0 1.7957,0.7961 1.7957,1.7692 0,0.9906 -0.8051,1.7869 -1.7957,1.7869 -0.9731,0 -1.7869,-0.7963 -1.7869,-1.7869 0,-0.9731 0.8138,-1.7692 1.7869,-1.7692 z m 0,4.1223 c 1.3004,0 2.3529,-1.0527 2.3529,-2.3531 0,-1.2826 -1.0525,-2.3354 -2.3529,-2.3354 -1.2916,0 -2.3443,1.0528 -2.3443,2.3354 0,1.3004 1.0527,2.3531 2.3443,2.3531 z m 3.5824,-0.0443 c 0.3273,0 0.4955,-0.283 0.4955,-0.6193 v -2.2026 c 0,-0.7342 0.4954,-1.212 1.2296,-1.212 0.5131,0 1.1233,0.2742 1.1233,1.1146 v 2.6363 c 0,0.1503 0.1327,0.283 0.2832,0.283 0.1593,0 0.283,-0.1327 0.283,-0.283 v -2.5567 c 0,-0.7695 0.4778,-1.1942 1.2295,-1.1942 0.5131,0 1.1236,0.3273 1.1236,1.1146 v 2.3 c 0,0.3363 0.168,0.6193 0.4953,0.6193 0.1593,0 0.3008,-0.115 0.3008,-0.283 0,-0.1062 -0.0619,-0.2124 -0.1681,-0.2567 0,0 -0.0618,-0.0265 -0.0618,-0.1149 v -2.2557 c 0,-1.1501 -0.8404,-1.6898 -1.672,-1.6898 -0.575,0 -1.1323,0.2567 -1.4419,0.7786 -0.3007,-0.6103 -0.9288,-0.7786 -1.4774,-0.7786 -0.4775,0 -0.9463,0.1858 -1.2471,0.6458 0,-0.009 0,-0.053 0,-0.0618 -0.0177,-0.3185 -0.1858,-0.584 -0.4955,-0.584 -0.1592,0 -0.3007,0.1152 -0.3007,0.2832 0,0.1062 0.0618,0.2124 0.168,0.2565 0,0 0.0621,0.0265 0.0621,0.1151 v 3.2907 c 0,0.0884 -0.0621,0.1149 -0.0621,0.1149 -0.1062,0.0443 -0.168,0.1505 -0.168,0.2567 0,0.168 0.1415,0.283 0.3007,0.283 z"
         style="fill:#ffcb00;fill-rule:evenodd"
         id="path4" />
      <g
         id="Layer1002">
        <path
           d="m 76.9488,206.2591 -1.5166,9.7401 0.3083,8e-4 1.5449,-9.7405 z"
           style="fill:#ffcb00;fill-rule:evenodd"
           id="path5" />
        <path
           d="m 77.8245,206.2584 -1.5177,9.7407 0.3083,8e-4 1.5444,-9.7415 z"
           style="fill:#ffcb00;fill-rule:evenodd"
           id="path6" />
        <path
           d="m 78.6505,206.2586 -1.5164,9.7389 0.3084,8e-4 1.5445,-9.7378 z"
           style="fill:#ffffff;fill-rule:evenodd"
           id="path7" />
        <path
           d="m 76.4585,206.2584 -0.3371,4e-4 -1.5165,9.7403 0.3083,8e-4 z"
           style="fill:#ffffff;fill-rule:evenodd"
           id="path8" />
      </g>
      <path
         d="m 42.0562,211.9053 0.9077,0.2292 c -0.1897,0.7438 -0.5304,1.309 -1.0225,1.6992 -0.492,0.3901 -1.0939,0.5862 -1.8057,0.5862 -0.7358,0 -1.3345,-0.1499 -1.7963,-0.4509 -0.4618,-0.2993 -0.8122,-0.734 -1.0527,-1.3026 -0.2403,-0.57 -0.3614,-1.1799 -0.3614,-1.8328 0,-0.7118 0.1354,-1.3329 0.4077,-1.8631 0.2722,-0.5305 0.6593,-0.9333 1.1608,-1.2087 0.5016,-0.2755 1.0543,-0.4125 1.6562,-0.4125 0.6848,0 1.2596,0.1736 1.7247,0.5223 0.4665,0.3487 0.7913,0.8377 0.9745,1.4682 l -0.8886,0.2103 c -0.1576,-0.4969 -0.3885,-0.86 -0.6895,-1.0862 -0.3009,-0.2276 -0.6801,-0.3407 -1.137,-0.3407 -0.5239,0 -0.9635,0.1259 -1.3155,0.3775 -0.3518,0.2515 -0.6003,0.5906 -0.742,1.0143 -0.1433,0.4253 -0.215,0.863 -0.215,1.3139 0,0.5812 0.0844,1.0892 0.2532,1.5223 0.1689,0.4347 0.4316,0.7581 0.7883,0.9731 0.3567,0.2148 0.742,0.3215 1.1577,0.3215 0.5063,0 0.9333,-0.1466 1.2834,-0.4379 0.3504,-0.293 0.5876,-0.7261 0.712,-1.3026 z m 1.6066,-0.0797 c 0,-0.9157 0.2548,-1.5939 0.7661,-2.0352 0.4251,-0.366 0.9459,-0.5492 1.559,-0.5492 0.6799,0 1.2373,0.223 1.6704,0.6687 0.4316,0.4443 0.6482,1.0607 0.6482,1.8457 0,0.637 -0.0955,1.137 -0.2866,1.5017 -0.1911,0.3646 -0.4698,0.648 -0.8361,0.8504 -0.3647,0.2021 -0.7644,0.3026 -1.1959,0.3026 -0.6944,0 -1.2548,-0.2214 -1.6834,-0.6656 -0.4283,-0.4443 -0.6417,-1.0846 -0.6417,-1.9191 z m 0.86,0.002 c 0,0.6337 0.1386,1.1082 0.4157,1.422 0.2787,0.3153 0.6274,0.4729 1.0494,0.4729 0.4172,0 0.7643,-0.1576 1.0429,-0.4745 0.2771,-0.3169 0.4157,-0.7993 0.4157,-1.4476 0,-0.6115 -0.14,-1.0748 -0.4187,-1.3886 -0.2787,-0.3152 -0.626,-0.4728 -1.0399,-0.4728 -0.422,0 -0.7707,0.156 -1.0494,0.4698 -0.2771,0.3136 -0.4157,0.7866 -0.4157,1.4188 z m 4.7695,2.4778 v -4.9589 h 0.7548 v 0.7039 c 0.363,-0.5398 0.8886,-0.8089 1.5748,-0.8089 0.2995,0 0.5733,0.0541 0.8234,0.1607 0.2499,0.1068 0.4378,0.2485 0.5621,0.422 0.1241,0.1736 0.2117,0.3806 0.2611,0.6195 0.0303,0.1562 0.0462,0.4283 0.0462,0.8169 v 3.0448 h -0.8408 v -3.013 c 0,-0.3424 -0.0318,-0.5986 -0.0972,-0.7675 -0.0653,-0.1688 -0.1815,-0.3042 -0.3471,-0.4061 -0.1656,-0.1002 -0.3616,-0.1513 -0.5843,-0.1513 -0.3569,0 -0.6642,0.1132 -0.9237,0.3408 -0.2597,0.2262 -0.3885,0.6577 -0.3885,1.2916 v 2.7055 z m 7.1389,-0.7501 0.1145,0.7421 c -0.2356,0.0495 -0.4473,0.075 -0.6321,0.075 -0.3042,0 -0.5398,-0.0478 -0.7087,-0.145 -0.1672,-0.0972 -0.285,-0.2229 -0.3534,-0.3806 -0.0686,-0.1576 -0.1019,-0.489 -0.1019,-0.9937 v -2.8568 h -0.6211 v -0.6498 h 0.6211 v -1.2261 l 0.8408,-0.5049 v 1.731 h 0.8408 v 0.6498 h -0.8408 v 2.9046 c 0,0.2405 0.0143,0.3949 0.0445,0.4633 0.0286,0.0686 0.0764,0.1227 0.1433,0.1641 0.067,0.0398 0.1626,0.0605 0.2867,0.0605 0.0923,0 0.215,-0.0111 0.3663,-0.0335 z m 4.0688,0.129 c -0.3122,0.2661 -0.6132,0.4523 -0.9015,0.5621 -0.2881,0.1101 -0.5972,0.1642 -0.9283,0.1642 -0.5446,0 -0.9635,-0.1323 -1.2565,-0.3982 -0.293,-0.2644 -0.4394,-0.6035 -0.4394,-1.0159 0,-0.2422 0.0557,-0.4635 0.1656,-0.6642 0.1115,-0.2005 0.2564,-0.3598 0.4347,-0.4808 0.1798,-0.1211 0.3805,-0.2134 0.6051,-0.2755 0.1656,-0.0431 0.4157,-0.0845 0.7485,-0.126 0.6783,-0.0794 1.1799,-0.1766 1.5001,-0.288 0.0031,-0.1148 0.0047,-0.1881 0.0047,-0.2183 0,-0.3408 -0.0796,-0.5813 -0.2389,-0.7213 -0.215,-0.1895 -0.5349,-0.2834 -0.9586,-0.2834 -0.3965,0 -0.6895,0.07 -0.8775,0.2086 -0.1895,0.1385 -0.3279,0.3837 -0.4188,0.7373 l -0.8216,-0.1147 c 0.0747,-0.352 0.1975,-0.6371 0.3694,-0.8535 0.1719,-0.2166 0.4204,-0.3822 0.7452,-0.5 0.3234,-0.1164 0.7007,-0.1752 1.1274,-0.1752 0.4237,0 0.7694,0.0492 1.0352,0.1497 0.2644,0.1002 0.4602,0.2244 0.5843,0.3756 0.1244,0.1513 0.212,0.3424 0.2628,0.5734 0.0272,0.1433 0.0415,0.4014 0.0415,0.7724 v 1.1147 c 0,0.7788 0.0175,1.2708 0.0526,1.4793 0.0333,0.2086 0.1034,0.4077 0.2054,0.5988 H 60.6623 C 60.5779,214.1283 60.5238,213.9213 60.5,213.684 Z m -0.067,-1.8631 c -0.3057,0.1242 -0.7644,0.2293 -1.3759,0.3153 -0.3471,0.0494 -0.5923,0.1051 -0.7357,0.1672 -0.1433,0.0621 -0.2532,0.1529 -0.3311,0.2707 -0.078,0.1195 -0.1179,0.2516 -0.1179,0.3982 0,0.2213 0.0844,0.4075 0.2549,0.5557 0.1702,0.1481 0.4187,0.223 0.7452,0.223 0.3232,0 0.6115,-0.07 0.8647,-0.2119 0.2515,-0.1401 0.4379,-0.3328 0.5557,-0.5764 0.0907,-0.1895 0.1354,-0.4682 0.1354,-0.8361 z m 3.9669,1.7341 0.1145,0.7421 c -0.2356,0.0495 -0.4473,0.075 -0.6321,0.075 -0.3042,0 -0.5398,-0.0478 -0.7087,-0.145 -0.1672,-0.0972 -0.285,-0.2229 -0.3534,-0.3806 -0.0686,-0.1576 -0.1019,-0.489 -0.1019,-0.9937 v -2.8568 h -0.6211 v -0.6498 h 0.6211 v -1.2261 l 0.8408,-0.5049 v 1.731 h 0.8408 v 0.6498 h -0.8408 v 2.9046 c 0,0.2405 0.0143,0.3949 0.0445,0.4633 0.0286,0.0686 0.0764,0.1227 0.1433,0.1641 0.067,0.0398 0.1625,0.0605 0.2867,0.0605 0.0923,0 0.215,-0.0111 0.3663,-0.0335 z m 0.5143,-1.7294 c 0,-0.9157 0.2548,-1.5939 0.766,-2.0352 0.4251,-0.366 0.946,-0.5492 1.5591,-0.5492 0.6799,0 1.2373,0.223 1.6703,0.6687 0.4317,0.4443 0.6483,1.0607 0.6483,1.8457 0,0.637 -0.0956,1.137 -0.2867,1.5017 -0.1911,0.3646 -0.4698,0.648 -0.8361,0.8504 -0.3646,0.2021 -0.7644,0.3026 -1.1958,0.3026 -0.6944,0 -1.2548,-0.2214 -1.6834,-0.6656 -0.4284,-0.4443 -0.6417,-1.0846 -0.6417,-1.9191 z m 0.86,0.002 c 0,0.6337 0.1386,1.1082 0.4157,1.422 0.2786,0.3153 0.6274,0.4729 1.0494,0.4729 0.4171,0 0.7642,-0.1576 1.0429,-0.4745 0.2771,-0.3169 0.4157,-0.7993 0.4157,-1.4476 0,-0.6115 -0.14,-1.0748 -0.4187,-1.3886 -0.2787,-0.3152 -0.626,-0.4728 -1.0399,-0.4728 -0.422,0 -0.7708,0.156 -1.0494,0.4698 -0.2771,0.3136 -0.4157,0.7866 -0.4157,1.4188 z"
         style="fill:#ffffff;fill-rule:evenodd"
         id="path9" />
    </g>
  </g>
  <g
     id="Layer1003"
     transform="matrix(1,0,0,0.85745427,-63.379002,-47.933409)">
    <path
       d="m 79.5518,144.2297 c -1.6,-0.8632 -3.1481,-1.7771 -4.6463,-2.8181 -0.7618,-0.5332 -1.4725,-1.066 -2.1836,-1.6503 -0.9392,-0.7615 -1.8534,-1.5739 -2.6655,-2.4627 -0.7366,-0.8124 -1.4222,-1.6501 -2.0567,-2.5388 -0.7362,-0.9902 -1.3708,-2.0057 -1.955,-3.0971 -0.4312,-0.8381 -0.8121,-1.7013 -1.1424,-2.5898 -0.2792,-0.7872 -0.5331,-1.5746 -0.7109,-2.3867 -0.3048,-1.3712 -0.4319,-2.7418 -0.5077,-4.1131 v -1.8533 l 0.127,-1.8281 c 0.1013,-0.9139 0.228,-1.8027 0.3807,-2.7165 0.1778,-0.8887 0.3554,-1.8026 0.5588,-2.6912 0.3806,-1.4978 0.8119,-2.9709 1.269,-4.4178 1.0667,-3.4269 2.3102,-6.7782 3.4278,-10.1809 0.5837,-1.9292 1.1676,-3.8591 1.5232,-5.8392 0.1777,-1.041 0.2791,-2.0562 0.2791,-3.1231 -0.0254,-0.4059 -0.0504,-0.7868 -0.0758,-1.1931 -0.1524,-0.9902 -0.3809,-1.9546 -0.6857,-2.8942 -0.1266,-0.3809 -0.2795,-0.7617 -0.4061,-1.1172 -0.7872,-1.9045 -1.7772,-3.6306 -2.869,-5.3827 -1.2439,-1.9801 -2.5389,-3.9349 -3.8337,-5.89 L 78.2567,56.0032 c 1.371,0.7622 2.7167,1.5748 4.1129,2.2853 0.2795,0.1523 0.5588,0.2794 0.8127,0.4067 1.3201,0.6348 2.6661,1.0915 4.0623,1.4724 1.1676,0.3046 2.3101,0.5077 3.529,0.6348 0.3556,0.0253 0.7108,0.0502 1.0665,0.0761 2.158,0.0757 4.2906,-0.1777 6.3977,-0.6856 0.6599,-0.1777 1.2946,-0.3554 1.9294,-0.584 2.082,-0.711 4.037,-1.6505 5.9919,-2.6662 0.6346,-0.3296 1.2946,-0.6851 1.9298,-1.0407 1.828,0.965 3.6308,1.9046 5.5093,2.742 1.0914,0.4571 2.2091,0.8887 3.3512,1.2443 0.4318,0.1269 0.863,0.2285 1.2951,0.3554 1.4463,0.3296 2.945,0.6089 4.4427,0.6348 0.9391,0 1.8791,-0.0508 2.7926,-0.1269 1.1427,-0.1016 2.2341,-0.3048 3.3513,-0.584 0.8633,-0.2032 1.7013,-0.4825 2.5393,-0.7872 0.9903,-0.3809 1.9288,-0.8125 2.8942,-1.2945 l 3.7322,-2.1331 14.6241,17.5183 -3.0725,4.6971 c -0.1519,0.2286 -0.3043,0.4824 -0.4312,0.7105 -0.9655,1.5743 -1.8537,3.174 -2.615,4.8245 -0.4067,0.9137 -0.7363,1.802 -1.0156,2.7673 l -0.1777,0.7105 c -0.2291,1.0665 -0.3556,2.133 -0.3048,3.2502 0,0.3555 0.0254,0.7105 0.0757,1.066 0.2544,2.5134 0.9141,4.9002 1.6758,7.2867 0.9396,2.9195 1.9807,5.7884 2.9456,8.7085 0.5836,1.7516 1.1173,3.529 1.5738,5.3061 0.2539,1.041 0.4824,2.0818 0.6856,3.1231 0.2032,1.0405 0.3301,2.0814 0.4571,3.1481 0.0508,0.7868 0.1016,1.574 0.1269,2.3863 l -0.0253,1.5998 c -0.0508,0.7869 -0.127,1.5738 -0.2286,2.3863 l -0.1524,0.8124 c -0.1524,0.7108 -0.3554,1.4221 -0.5586,2.1328 -0.2539,0.6856 -0.4824,1.3457 -0.7612,2.0054 -0.3048,0.6351 -0.61,1.27 -0.9655,1.9044 l -1.0913,1.7771 -1.2697,1.7013 c -0.4316,0.5331 -0.9141,1.0407 -1.3712,1.5739 -0.5073,0.4825 -0.9898,0.9652 -1.523,1.447 -0.8628,0.7873 -1.7775,1.5237 -2.7165,2.2345 -0.584,0.406 -1.168,0.8125 -1.7521,1.1936 -0.8379,0.5329 -1.7008,1.0407 -2.5641,1.523 -1.0157,0.5334 -2.0309,1.0408 -3.0466,1.5485 -4.3162,2.0312 -8.7593,3.7579 -13.0755,5.7633 -1.2692,0.5843 -2.488,1.1932 -3.7068,1.8534 l -1.422,0.813 c -0.7105,0.4314 -1.3961,0.8627 -2.0812,1.3199 -2.1328,1.5739 -4.1386,3.3005 -6.1191,5.0521 -1.9295,-1.7011 -3.8589,-3.3766 -5.9409,-4.8745 -0.4312,-0.3045 -0.8377,-0.584 -1.2691,-0.8884 -2.2091,-1.4727 -4.621,-2.6153 -7.0583,-3.7323 -4.1894,-1.8789 -8.48,-3.5546 -12.6184,-5.5094 -0.5584,-0.2792 -1.1172,-0.5585 -1.6754,-0.8634 z"
       style="fill:#1b1918;fill-rule:evenodd"
       id="path10" />
    <path
       d="m 74.8548,138.898 c -1.2699,-0.99 -2.4884,-2.0309 -3.5799,-3.2242 -0.7615,-0.8633 -1.4471,-1.7516 -2.1071,-2.691 -0.559,-0.838 -1.0665,-1.6757 -1.4981,-2.5645 -0.4062,-0.7868 -0.7365,-1.5488 -1.016,-2.3864 -0.2023,-0.5842 -0.3799,-1.1933 -0.5329,-1.8029 -0.152,-0.6854 -0.2281,-1.3455 -0.3296,-2.0309 l -0.1018,-1.7011 v -1.7011 c 0.0508,-0.8629 0.1267,-1.7009 0.2033,-2.5642 0.1265,-0.8633 0.2793,-1.7009 0.4313,-2.5646 0.1777,-0.8631 0.3811,-1.7259 0.6092,-2.5638 0.5333,-2.0315 1.1681,-4.0371 1.8284,-6.0171 1.2691,-3.7576 2.6657,-7.4898 3.6558,-11.3236 0.3556,-1.3712 0.6093,-2.7165 0.7618,-4.1126 0.0504,-0.8129 0.0762,-1.625 0.0251,-2.463 l -0.0507,-0.6856 c -0.1774,-1.2949 -0.5077,-2.488 -0.9138,-3.7068 -0.3558,-0.9643 -0.7619,-1.879 -1.1935,-2.7926 -0.7867,-1.5236 -1.6755,-2.9958 -2.5898,-4.4432 -0.863,-1.3204 -1.7262,-2.6403 -2.5896,-3.9606 L 78.7138,58.5424 c 1.1425,0.6603 2.2596,1.2951 3.4527,1.8785 1.4726,0.7111 2.9963,1.2442 4.5701,1.6764 0.8889,0.2281 1.7775,0.4063 2.666,0.5582 1.1678,0.1529 2.3359,0.2286 3.5287,0.2286 0.9143,0 1.8281,-0.0757 2.7426,-0.2032 0.8883,-0.1016 1.7515,-0.2539 2.6149,-0.4318 0.8631,-0.2285 1.7008,-0.457 2.5133,-0.7362 1.6504,-0.5587 3.1989,-1.2439 4.773,-2.0056 0.8633,-0.4312 1.6761,-0.8892 2.5388,-1.3458 1.803,0.9649 3.656,1.879 5.5605,2.6662 0.8887,0.3555 1.7769,0.6852 2.6911,0.9644 l 0.9395,0.254 c 1.7516,0.4575 3.5544,0.7872 5.3822,0.8125 0.9908,0.0255 1.9801,-0.0253 2.9958,-0.1016 1.0919,-0.1264 2.1583,-0.3047 3.2497,-0.5332 1.0665,-0.2788 2.1076,-0.584 3.1233,-0.9649 1.0913,-0.4063 2.107,-0.8883 3.1477,-1.3961 l 2.3361,-1.3457 12.5926,15.1064 -2.1579,3.3259 c -0.2281,0.2794 -0.4062,0.6094 -0.584,0.9142 -0.9137,1.5234 -1.8025,3.0719 -2.5387,4.6716 -0.4571,0.9899 -0.8635,1.9801 -1.1681,3.0212 -0.2031,0.6602 -0.3555,1.3204 -0.4824,1.9801 -0.0763,0.5586 -0.1524,1.1173 -0.2027,1.6759 -0.1016,2.8181 0.5073,5.6107 1.2696,8.3018 1.1929,4.0623 2.7159,8.0484 4.011,12.0852 0.5328,1.7263 1.0157,3.4277 1.422,5.2046 0.2026,0.9905 0.4058,1.9552 0.5581,2.9709 0.0763,0.7363 0.1528,1.4724 0.2285,2.2342 0.0259,0.7363 0.0508,1.4724 0.0508,2.2087 l -0.0761,1.4722 -0.2789,2.1582 -0.5077,1.9296 c -0.2291,0.6351 -0.4571,1.2185 -0.7111,1.8024 -0.2539,0.6096 -0.5332,1.1682 -0.838,1.7521 -0.33,0.5585 -0.6597,1.092 -1.0156,1.6247 -0.3805,0.5334 -0.7613,1.0414 -1.1676,1.5488 -0.5586,0.6603 -1.1173,1.2954 -1.7272,1.9299 -0.6343,0.6092 -1.2691,1.1931 -1.9547,1.7517 -0.6851,0.5584 -1.3706,1.0915 -2.107,1.5995 -0.7364,0.5074 -1.4982,1.0156 -2.2595,1.4724 -1.3711,0.8124 -2.7926,1.5233 -4.2395,2.2341 -3.8089,1.7773 -7.6933,3.3258 -11.5271,5.0527 -1.2951,0.5839 -2.5641,1.1931 -3.8339,1.8277 -2.0562,1.0663 -4.1129,2.1836 -5.9408,3.58 -1.4725,1.117 -2.8687,2.2851 -4.265,3.5039 -2.5138,-2.2091 -5.129,-4.3671 -8.0484,-5.9916 -1.371,-0.7623 -2.7674,-1.4477 -4.164,-2.1077 -4.3668,-2.0312 -8.8606,-3.7573 -13.2018,-5.7889 -2.539,-1.2186 -4.9509,-2.5892 -7.236,-4.2396 z"
       style="fill:#ffffff;fill-rule:evenodd"
       id="path11" />
    <path
       d="m 69.6754,129.8852 77.2077,-55.0683 c -3.4025,5.179 -5.992,9.8508 -5.992,15.335 0,11.2722 11.5519,27.166 6.1693,38.7434 -7.0581,14.9536 -25.9978,14.0907 -38.9715,25.8455 C 95.445,143.2652 77.0892,143.824 69.6754,129.8852 Z"
       style="fill:#1b1918;fill-rule:evenodd"
       id="path12" />
    <path
       d="m 70.4115,108.7875 66.6965,-47.3762 0.0508,0.0253 -0.1016,-0.1518 c -9.0889,5.2303 -18.737,5.0267 -28.9683,-0.686 -10.2065,5.7127 -19.8546,5.9163 -28.918,0.686 L 68.4821,73.8267 c 3.6813,5.5858 6.8547,10.4854 6.8547,16.3252 0,5.4838 -2.7162,12.0341 -4.9253,18.6356 z"
       style="fill:#1b1918;fill-rule:evenodd"
       id="path13" />
    <path
       d="m 134.2392,80.91 -1.4474,-2.0313 2.0568,-1.4722 1.4469,2.0568 z"
       style="fill:#1b1918;fill-rule:evenodd"
       id="path14" />
    <path
       d="m 130.2531,78.5745 c 0.736,1.1929 0.9396,2.4122 0.6099,3.6555 -0.3306,1.2443 -1.1427,2.3361 -2.4376,3.2502 -1.4728,1.0407 -2.9709,1.3966 -4.4433,1.066 -1.4726,-0.3296 -2.8185,-1.3453 -4.0114,-3.0211 -1.2189,-1.7009 -1.7262,-3.3007 -1.523,-4.8241 0.2026,-1.4977 1.0913,-2.8175 2.6657,-3.9354 1.269,-0.9136 2.5129,-1.3198 3.7067,-1.2182 1.1676,0.1014 2.2086,0.6856 3.0974,1.7774 l -2.0309,1.4469 c -0.5084,-0.5079 -1.0416,-0.7619 -1.6256,-0.8121 -0.583,-0.0255 -1.2183,0.2026 -1.8527,0.6601 -0.9145,0.635 -1.3971,1.4216 -1.4473,2.3357 -0.0508,0.9141 0.3296,1.9546 1.1168,3.072 0.7871,1.0918 1.6002,1.7774 2.5138,2.0309 0.8882,0.2538 1.777,0.0761 2.6403,-0.5332 0.6094,-0.4571 1.0158,-0.9645 1.1935,-1.5739 0.1772,-0.6094 0.1015,-1.2438 -0.2036,-1.9298 z"
       style="fill:#1b1918;fill-rule:evenodd"
       id="path15" />
    <path
       d="m 119.8945,91.1164 -1.4468,-2.0568 2.0562,-1.4469 1.4473,2.0568 z"
       style="fill:#1b1918;fill-rule:evenodd"
       id="path16" />
    <path
       d="m 113.7759,95.4833 -7.1344,-10.0539 7.0071,-4.9764 1.2441,1.7521 -4.9758,3.529 1.6248,2.2849 4.3414,-3.0969 1.2441,1.7516 -4.3669,3.0974 3.047,4.2649 z"
       style="fill:#1b1918;fill-rule:evenodd"
       id="path17" />
    <path
       d="m 105.7276,96.0166 c 0.7363,1.1935 0.9139,2.4122 0.6348,3.6559 -0.3301,1.2439 -1.1425,2.3103 -2.4375,3.2244 -1.4724,1.0665 -2.9704,1.422 -4.4432,1.0918 -1.4977,-0.3558 -2.8178,-1.3457 -4.0111,-3.0217 -1.2186,-1.7261 -1.7266,-3.3258 -1.5234,-4.824 0.1774,-1.4976 1.0663,-2.8176 2.6405,-3.9347 1.2947,-0.9142 2.539,-1.3204 3.7068,-1.2184 1.1928,0.0761 2.2341,0.685 3.0973,1.7769 l -2.0309,1.4469 c -0.4824,-0.5079 -1.0156,-0.7872 -1.5994,-0.812 -0.6096,-0.0255 -1.2187,0.1772 -1.8536,0.6343 -0.9144,0.6602 -1.3964,1.4473 -1.4472,2.3614 -0.0506,0.9137 0.3045,1.9294 1.1169,3.0721 0.762,1.0918 1.5996,1.752 2.4878,2.0309 0.9146,0.2544 1.7775,0.0761 2.6664,-0.5334 0.6092,-0.4565 1.0155,-0.9897 1.1931,-1.5738 0.1776,-0.6093 0.1017,-1.2441 -0.2032,-1.9297 z"
       style="fill:#1b1918;fill-rule:evenodd"
       id="path18" />
    <path
       d="m 89.5042,112.7477 -7.1346,-10.0539 4.7225,-3.3514 c 1.0407,-0.7362 1.9805,-1.066 2.8182,-1.0156 0.8377,0.0508 1.5741,0.4824 2.158,1.3204 0.3554,0.5073 0.5586,0.9898 0.6093,1.4728 0.0254,0.482 -0.0763,0.9644 -0.3558,1.4473 0.6862,-0.1783 1.2698,-0.1275 1.8028,0.0757 0.5332,0.2031 1.016,0.6093 1.4476,1.1929 0.6852,0.9649 0.8885,1.9552 0.6347,2.945 -0.2538,0.9655 -0.9648,1.8791 -2.1325,2.7171 z"
       style="fill:#1b1918;fill-rule:evenodd"
       id="path19" />
    <path
       d="m 75.3368,107.6956 2.387,-1.676 10.7397,7.4644 -2.1583,1.5231 -2.1581,-1.5739 -3.8845,2.7676 0.8126,2.5385 -2.1838,1.5492 z"
       style="fill:#1b1918;fill-rule:evenodd"
       id="path20" />
    <path
       d="m 123.906,124.6043 -1.9293,6.7786 6.1943,-4.0111 6.1952,4.0111 -2.2599,-6.7786 5.5857,-4.24 h -6.8802 l -2.6408,-6.8297 -2.615,6.8297 h -7.0073 z m -47.4769,-50.2191 -0.9398,3.3006 3.0213,-1.9547 2.996,1.9547 -1.0916,-3.3006 2.6913,-2.0562 h -3.3005 l -1.2952,-3.3264 -1.2694,3.3264 h -3.4021 z m 10.0283,0 -0.9394,3.3006 2.9961,-1.9547 3.021,1.9547 -1.0915,-3.3006 2.6913,-2.0562 h -3.3262 l -1.2946,-3.3264 -1.2695,3.3264 h -3.3769 z m 10.0033,0 -0.9142,3.3006 2.9963,-1.9547 2.9958,1.9547 -1.0665,-3.3006 2.6913,-2.0562 h -3.3261 l -1.2945,-3.3264 -1.2697,3.3264 h -3.4019 z m 10.0539,0 -0.9395,3.3006 2.9706,-1.9547 3.0212,1.9547 -1.1174,-3.3006 2.7171,-2.0562 h -3.3258 l -1.2951,-3.3264 -1.2694,3.3264 h -3.3514 z"
       style="fill:#ffec00;fill-rule:evenodd"
       id="path21" />
    <path
       d="m 87.1175,105.1822 2.3356,-1.6759 c 0.533,-0.3554 0.8378,-0.711 0.9396,-1.0665 0.1272,-0.3301 0.0256,-0.685 -0.2283,-1.0664 -0.2541,-0.3809 -0.5585,-0.5586 -0.9141,-0.5586 -0.3556,0 -0.7868,0.1777 -1.32,0.5586 l -2.3357,1.6759 z"
       style="fill:#ffffff;fill-rule:evenodd"
       id="path22" />
    <path
       d="m 90.1893,109.5233 2.4376,-1.7262 c 0.5839,-0.4316 0.9393,-0.8379 1.0411,-1.2183 0.127,-0.4068 0.0254,-0.813 -0.3048,-1.2701 -0.33,-0.4825 -0.6856,-0.7105 -1.0919,-0.7364 -0.4062,-0.0253 -0.9138,0.1777 -1.4977,0.6099 l -2.4376,1.7262 z"
       style="fill:#ffffff;fill-rule:evenodd"
       id="path23" />
    <path
       d="m 77.9518,108.8632 1.6507,5.2556 2.7929,-1.9805 z"
       style="fill:#ffffff;fill-rule:evenodd"
       id="path24" />
  </g>
</svg>
