<?xml version="1.0" encoding="UTF-8" standalone="no"?>
<svg
   version="1.1"
   width="1.4926314in"
   height="1.4959922in"
   viewBox="0 0 107.46946 107.71144"
   id="svg36"
   sodipodi:docname="gremio_brasil-rs.cdr"
   xmlns:inkscape="http://www.inkscape.org/namespaces/inkscape"
   xmlns:sodipodi="http://sodipodi.sourceforge.net/DTD/sodipodi-0.dtd"
   xmlns="http://www.w3.org/2000/svg"
   xmlns:svg="http://www.w3.org/2000/svg">
  <defs
     id="defs36" />
  <sodipodi:namedview
     id="namedview36"
     pagecolor="#ffffff"
     bordercolor="#000000"
     borderopacity="0.25"
     inkscape:showpageshadow="2"
     inkscape:pageopacity="0.0"
     inkscape:pagecheckerboard="0"
     inkscape:deskcolor="#d1d1d1"
     inkscape:document-units="in" />
  <g
     id="Layer1003"
     transform="translate(-54.265491,-61.14616)">
    <path
       d="m 146.947,66.515804 c -7.2224,-5.188257 -12.9852,-5.707986 -16.5471,-5.22985 -3.6291,0.486986 -6.0177,2.121037 -6.9607,3.372173 -0.1027,0.136104 -0.1851,0.272297 -0.2739,0.408933 -12.3998,0 -47.2371,0 -47.95,0 -0.6159,-1.762988 -2.1797,-3.101645 -4.1833,-3.434738 -1.7846,-0.296545 -3.4597,0.285572 -4.3709,1.519008 -0.846,1.144943 -1.0041,2.56705 -0.4845,3.804911 -0.3233,-0.05867 -0.6573,-0.08965 -0.9993,-0.08965 -2.7364,0 -4.9625,1.970596 -4.9625,4.392072 0,1.360692 0.7179,2.563244 1.8197,3.369518 -1.5527,0.435481 -2.9027,1.425469 -3.1565,3.240404 -0.2071,1.476442 0.2595,2.771825 1.2793,3.553674 0.7473,0.572825 2.1942,1.075209 4.6486,0.58548 2.1154,1.947322 2.9489,3.814911 2.9489,5.801524 0,2.109975 -0.906,4.356497 -2.1117,6.981776 l -0.2162,0.471499 0.5064,0.241147 c 2.6413,1.256269 3.9787,2.865453 3.9787,4.785515 0,0.0566 -0.0011,0.11407 -0.0036,0.17159 -0.1164,2.84315 -2.9952,5.48932 -5.2082,6.49975 -2.2648,-1.83051 -4.0333,-1.8028 -5.1301,-1.39999 -1.9084,0.69955 -2.9382,2.85873 -2.9382,4.53659 0,1.29707 0.6721,2.45138 1.8921,3.25137 0.4947,0.32442 1.0555,0.56575 1.647,0.7261 -1.5752,0.96733 -3.2597,2.71493 -4.6672,5.84136 -2.8832,6.40336 -0.8611,20.0141 7.4318,30.83891 6.3275,8.2584 18.6461,18.10271 41.4004,18.10271 24.8222,0 43.3351,-12.07782 52.1282,-34.0096 10.7803,-26.888 3.7355,-58.811508 -9.5172,-68.332191 z"
       style="fill:#000000;fill-opacity:1;fill-rule:evenodd;stroke-width:0.948241;stroke-dasharray:none"
       id="path10" />
    <path
       d="m 60.3599,129.42824 c 0,3.5404 0.9405,8.27504 4.276,13.81533 v -21.414 c -0.8262,0.31973 -1.7904,0.60849 -2.946,0.84539 -0.2627,0.5223 -1.33,2.86528 -1.33,6.75328 z"
       style="fill:#910000;fill-opacity:1;fill-rule:evenodd;stroke-width:0.948241;stroke-dasharray:none"
       id="path11" />
    <path
       d="M 87.901,90.58543 V 69.733022 L 77.4422,69.73258 v 34.6549 C 79.3168,98.852766 83.0236,94.057336 87.901,90.58543 Z"
       style="fill:#910000;fill-opacity:1;fill-rule:evenodd;stroke-width:0.948241;stroke-dasharray:none"
       id="path12" />
    <path
       d="m 77.4422,120.95728 v 32.88979 c 1.3186,3.41553 4.2857,4.39358 4.402,4.43791 1.9429,0.77362 4.0828,1.23963 6.0568,0.83123 v -24.3567 c -4.8774,-3.47191 -8.5842,-8.26743 -10.4588,-13.80223 z"
       style="fill:#910000;fill-opacity:1;fill-rule:evenodd;stroke-width:0.948241;stroke-dasharray:none"
       id="path13" />
    <path
       d="M 136.1516,106.51347 V 68.304809 c -1.7734,-0.83884 -3.1565,-1.242198 -3.728,-1.259985 -1.0569,2.695366 -2.9403,4.409771 -5.2577,4.671449 -0.9805,0.110707 -1.9433,-0.07469 -2.7601,-0.482472 v 18.882343 c 5.8393,3.923404 10.1001,9.709442 11.7458,16.397326 z"
       style="fill:#910000;fill-opacity:1;fill-rule:evenodd;stroke-width:0.948241;stroke-dasharray:none"
       id="path14" />
    <path
       d="m 124.4058,135.22862 v 23.07194 h 0.2177 c 8.5004,0 10.4926,-4.23535 11.2544,-7.03771 l 0.2737,-0.93627 v -31.49529 c -1.6457,6.68806 -5.9065,12.47401 -11.7458,16.39733 z"
       style="fill:#910000;fill-opacity:1;fill-rule:evenodd;stroke-width:0.948241;stroke-dasharray:none"
       id="path15" />
    <path
       d="m 153.6754,94.062822 c -0.6029,0.08301 -1.7272,0.313183 -2.4638,0.965033 l -1.5382,1.361312 0.4602,-1.881483 c 0.4764,-1.953339 0.6904,-3.790486 0.6904,-5.514801 0,-3.186777 -0.7367,-5.980195 -1.8798,-8.409989 V 133.4036 c 1.0017,-0.52442 1.6883,-1.60813 2.6001,-3.72536 2.5035,-5.82028 3.5091,-15.54707 3.5091,-23.47459 0,-5.69197 -0.5227,-10.4166 -1.378,-12.140828 z"
       style="fill:#910000;fill-opacity:1;fill-rule:evenodd;stroke-width:0.948241;stroke-dasharray:none"
       id="path16" />
    <path
       d="m 101.7747,140.27086 v 21.67965 c 1.1718,1.34362 3.0953,1.66459 3.8707,1.6691 0.0363,0.004 2.9378,0.3707 6.6409,-2.02759 v -21.49815 c -1.8773,0.33407 -3.8132,0.5146 -5.7955,0.5146 -1.6033,0 -3.179,-0.11629 -4.7161,-0.33761 z"
       style="fill:#910000;fill-opacity:1;fill-rule:evenodd;stroke-width:0.948241;stroke-dasharray:none"
       id="path17" />
    <path
       d="M 112.2863,85.25098 V 69.734704 l -10.5116,-5.31e-4 v 15.339729 c 1.5371,-0.220793 3.1128,-0.337518 4.7161,-0.337518 1.9823,0 3.9182,0.180972 5.7955,0.514596 z"
       style="fill:#910000;fill-opacity:1;fill-rule:evenodd;stroke-width:0.948241;stroke-dasharray:none"
       id="path18" />
    <path
       d="m 123.9644,69.355682 c -0.7729,-1.103439 -0.5767,-2.586518 0.5403,-4.06889 0.8604,-1.14273 3.0764,-2.476254 6.0867,-2.88032 3.3078,-0.443712 8.6893,0.0615 15.5476,4.989144 12.6638,9.096795 19.5535,41.044644 9.1184,67.073714 -8.5981,21.44515 -26.6821,33.25492 -50.9214,33.25492 -22.1928,0 -34.1868,-9.57422 -40.3405,-17.60572 -8.8994,-11.61508 -9.6186,-24.63803 -7.3024,-29.78195 2.9253,-6.49656 6.9022,-6.38806 8.0515,-6.20099 1.7639,0.28876 3.0608,1.52937 3.0828,2.94926 0.0319,2.05529 -2.4875,3.76199 -6.7403,4.56419 l -0.2975,0.0566 -0.1389,0.24009 c -0.3089,0.53433 -7.3586,13.2963 10.2263,31.1345 0.1238,0.10619 1.5732,1.68325 5.5396,1.53166 1.557,3.58367 4.7968,4.66817 4.9174,4.71251 2.1855,0.87096 4.5942,1.40335 7.1098,0.81893 1.5371,2.30201 4.3659,3.68757 6.0279,3.76624 l 0.2996,0.0254 c 1.0267,0.0962 3.8013,0.47796 6.1104,-1.24494 1.432,1.56034 3.6081,2.05821 4.6812,2.05821 0.0899,0.0157 3.3066,0.40858 7.4711,-2.26413 4.7523,1.62794 10.3177,-0.77911 11.8984,-3.07005 9.1993,-0.11292 11.4369,-5.11207 12.1908,-7.88549 0,0 0.1165,-0.40282 0.1953,-0.6707 1.7509,-0.65848 10.9228,-4.96365 11.8033,-16.31414 1.6033,-0.63982 2.4687,-1.78971 3.6193,-4.46234 2.4987,-5.80807 3.6068,-15.80299 3.6068,-24.01387 0,-6.120194 -0.6154,-11.248806 -1.7308,-12.910025 l -0.1977,-0.294333 -0.3852,0.01779 c -0.0688,0.0033 -1.2419,0.07964 -2.4085,0.563179 0.2962,-1.550336 0.4801,-3.048991 0.4801,-4.453399 0,-9.716522 -6.4807,-15.945121 -10.8192,-19.024111 -3.7443,-2.658287 -8.2214,-4.504371 -9.5784,-3.950484 l -0.2588,0.105751 -0.0851,0.240617 c -0.8667,2.473068 -2.4562,4.014111 -4.3597,4.229507 -1.243,0.140441 -2.4086,-0.333182 -3.0402,-1.236268 z"
       style="fill:#ffffff;fill-rule:evenodd;stroke-width:0.948241;stroke-dasharray:none"
       id="path19" />
    <path
       d="m 61.4954,71.258668 c 0,-1.796793 1.6515,-3.258811 3.6819,-3.258811 2.0304,0 3.6818,1.462018 3.6818,3.258811 0,1.796262 -1.6514,3.25766 -3.6818,3.25766 -2.0304,0 -3.6819,-1.461398 -3.6819,-3.25766 z"
       style="fill:#ffffff;fill-rule:evenodd;stroke-width:0.948241;stroke-dasharray:none"
       id="path20" />
    <path
       d="m 60.9958,80.565637 c -0.6915,-0.529993 -1.0005,-1.46246 -0.8473,-2.55758 0.3109,-2.218469 2.7495,-2.503953 3.7838,-2.523864 3.2048,-0.06204 9.6709,7.888756 10.0957,18.926148 0.4389,11.432519 -5.3545,17.103429 -10.9229,18.599689 -1.2901,0.34637 -2.7534,0.12726 -3.8182,-0.57114 -0.8866,-0.58106 -1.3744,-1.41326 -1.3744,-2.34174 0,-1.32804 0.8035,-2.99705 2.1472,-3.48961 1.4502,-0.53229 3.0429,0.49699 4.1234,1.45326 l 0.3113,0.27548 0.4027,-0.15938 c 2.45,-0.96945 6.1438,-4.07942 6.2913,-7.67522 0.0024,-0.0674 0.0037,-0.13601 0.0037,-0.20575 0,-1.594844 -0.8435,-3.735261 -4.1776,-5.499399 1.1236,-2.484573 2.0003,-4.783218 2.0003,-6.999475 0,-2.304751 -0.9379,-4.525964 -3.4992,-6.792574 l -0.2626,-0.232387 -0.359,0.08637 c -1.749,0.422738 -3.0972,0.3215 -3.8982,-0.292828 z"
       style="fill:#ffffff;fill-rule:evenodd;stroke-width:0.948241;stroke-dasharray:none"
       id="path21" />
    <path
       d="m 122.5612,66.200409 c -11.8471,0 -48.3063,0 -48.3063,0 L 74.148,65.750503 c -0.4477,-1.880332 -2.0855,-2.793949 -3.3523,-3.004124 -1.2857,-0.213625 -2.4306,0.169202 -3.0627,1.024767 -0.7448,1.008218 -0.7773,2.306433 -0.0832,3.307394 0.8048,1.16158 2.4049,1.71821 4.459,1.524053 0,0 37.7362,-6.19e-4 50.1898,-6.19e-4 -0.1552,-0.757602 -0.0675,-1.571044 0.2626,-2.401565 z"
       style="fill:#ffffff;fill-rule:evenodd;stroke-width:0.948241;stroke-dasharray:none"
       id="path22" />
    <path
       d="m 77.357,112.67243 c 0,-14.77921 13.0695,-26.802696 29.1338,-26.802696 16.0642,0 29.1343,12.023486 29.1343,26.802696 0,14.77929 -13.0701,26.80277 -29.1343,26.80277 -16.0643,0 -29.1338,-12.02348 -29.1338,-26.80277 z"
       style="fill:#ffffff;fill-rule:evenodd;stroke-width:0.948241;stroke-dasharray:none"
       id="path23" />
    <path
       d="m 102.8315,121.72099 -7.0547,14.02329 c 3.0115,1.19414 6.3018,1.89705 9.7536,2.00864 v -16.20246 c -0.9068,0.0277 -1.8059,0.0832 -2.6989,0.17053 z"
       style="fill:#000000;fill-opacity:1;fill-rule:evenodd;stroke-width:0.948241;stroke-dasharray:none"
       id="path24" />
    <path
       d="m 107.4513,121.52949 v 16.22343 c 3.4517,-0.11159 6.742,-0.8145 9.7535,-2.00864 l -7.0872,-14.08754 c -0.8817,-0.0729 -1.7708,-0.11177 -2.6663,-0.12725 z"
       style="fill:#000000;fill-opacity:1;fill-rule:evenodd;stroke-width:0.948241;stroke-dasharray:none"
       id="path25" />
    <path
       d="m 84.7337,98.05366 c 4.6368,3.63677 10.5203,5.95418 16.9147,6.77098 L 94.3085,90.234549 c -3.885,1.802988 -7.2404,4.438089 -9.7899,7.650883 z"
       style="fill:#000000;fill-opacity:1;fill-rule:evenodd;stroke-width:0.948241;stroke-dasharray:none"
       id="path26" />
    <path
       d="m 85.3117,128.18534 -0.1089,0.081 c 2.3962,2.77545 5.4065,5.08091 8.8512,6.72222 l 6.5401,-12.99967 c -5.7171,0.89088 -11.0029,3.00917 -15.2824,6.19648 z"
       style="fill:#000000;fill-opacity:1;fill-rule:evenodd;stroke-width:0.948241;stroke-dasharray:none"
       id="path27" />
    <path
       d="M 105.5304,105.12782 V 87.591749 c -3.3517,0.107963 -6.5508,0.773176 -9.4898,1.905198 l 7.8314,15.567783 c 0.5491,0.0388 1.1043,0.0454 1.6584,0.0631 z"
       style="fill:#000000;fill-opacity:1;fill-rule:evenodd;stroke-width:0.948241;stroke-dasharray:none"
       id="path28" />
    <path
       d="m 109.0983,105.088 7.8439,-15.591053 c -2.9404,-1.132022 -6.1393,-1.797235 -9.4909,-1.905198 v 17.557141 c 0.5516,-0.009 1.1006,-0.0299 1.647,-0.0609 z"
       style="fill:#000000;fill-opacity:1;fill-rule:evenodd;stroke-width:0.948241;stroke-dasharray:none"
       id="path29" />
    <path
       d="m 128.469,98.321533 0.2041,-0.154954 c -2.5752,-3.337836 -6.0043,-6.078158 -10,-7.93203 l -7.375,14.658591 c 6.462,-0.72805 12.4449,-2.9813 17.1709,-6.571607 z"
       style="fill:#000000;fill-opacity:1;fill-rule:evenodd;stroke-width:0.948241;stroke-dasharray:none"
       id="path30" />
    <path
       d="m 127.8887,127.93525 c -4.3657,-3.15306 -9.7522,-5.22144 -15.5451,-6.03488 l 6.5847,13.08816 c 3.549,-1.69113 6.6355,-4.08844 9.0657,-6.97806 z"
       style="fill:#000000;fill-opacity:1;fill-rule:evenodd;stroke-width:0.948241;stroke-dasharray:none"
       id="path31" />
    <path
       d="m 106.771,119.80535 c 8.6328,0 16.4893,2.59289 22.3335,6.81399 2.9039,-3.99208 4.5998,-8.78945 4.5998,-13.94691 0,-4.78101 -1.4582,-9.2545 -3.9833,-13.06162 -5.9029,4.48667 -14.0107,7.26354 -22.9487,7.26354 -9.1234,0 -17.3812,-2.89527 -23.3128,-7.547962 -2.6445,3.869162 -4.1815,8.443262 -4.1815,13.346042 0,5.2725 1.7752,10.16731 4.7975,14.21142 5.8808,-4.37721 13.8836,-7.0785 22.6955,-7.0785 z"
       style="fill:#000000;fill-opacity:1;fill-rule:evenodd;stroke-width:0.948241;stroke-dasharray:none"
       id="path32" />
    <path
       d="m 80.5586,112.67243 c 0,4.48118 1.3983,8.78741 3.9445,12.57471 6.198,-4.20021 14.0025,-6.57514 22.2679,-6.57514 8.0776,0 15.7477,2.2821 21.8845,6.31718 2.4311,-3.72411 3.7681,-7.9407 3.7681,-12.31675 0,-3.99527 -1.1306,-7.88876 -3.1817,-11.37934 -6.2256,4.28853 -14.0969,6.71452 -22.4696,6.71452 -8.5688,0 -16.5758,-2.52563 -22.8577,-6.99239 -2.1635,3.56597 -3.356,7.5546 -3.356,11.65721 z"
       style="fill:#910000;fill-opacity:1;fill-rule:evenodd;stroke-width:0.948241;stroke-dasharray:none"
       id="path33" />
    <path
       d="m 89.4492,115.0839 v -2.19564 h 4.8024 v 5.17729 c -0.4877,0.55008 -1.1761,1.0214 -2.0647,1.41777 -0.8893,0.39619 -1.7846,0.59406 -2.687,0.59406 -1.0893,0 -2.0535,-0.25761 -2.892,-0.77459 -0.8386,-0.51681 -1.502,-1.28919 -1.9898,-2.31962 -0.4877,-1.03043 -0.7316,-2.24112 -0.7316,-3.63465 0,-1.42865 0.2458,-2.6505 0.7378,-3.66535 0.4923,-1.01495 1.1326,-1.77405 1.9204,-2.27546 0.7879,-0.50132 1.7277,-0.75265 2.8183,-0.75265 1.3169,0 2.3705,0.32106 3.1622,0.963 0.7915,0.64194 1.3,1.5837 1.5263,2.82652 l -2.1611,0.49583 c -0.1662,-0.66406 -0.4714,-1.17202 -0.9141,-1.52503 -0.4428,-0.35309 -0.9705,-0.5291 -1.5827,-0.5291 -0.9454,0 -1.7134,0.35645 -2.3023,1.06919 -0.5891,0.71264 -0.8837,1.79944 -0.8837,3.25925 0,1.5683 0.3209,2.76023 0.9624,3.5758 0.5478,0.70406 1.2856,1.05591 2.2148,1.05591 0.4409,0 0.8948,-0.0984 1.3626,-0.29778 0.4677,-0.19699 0.8886,-0.46937 1.263,-0.81229 v -1.65246 z"
       style="fill:#000000;fill-opacity:1;fill-rule:evenodd;stroke-width:0.948241;stroke-dasharray:none"
       id="path34" />
    <path
       d="m 123.3517,109.06335 c 1.1893,0 1.907,0.0299 2.1558,0.0875 0.249,0.0575 0.4617,0.20363 0.6392,0.43717 0.1775,0.2346 0.2675,0.53884 0.2675,0.91521 0,0.42167 -0.11,0.75486 -0.3274,1.00052 -0.2178,0.24566 -0.5192,0.39831 -0.9018,0.45592 -0.2088,0.0288 -0.7553,0.0431 -1.6422,0.0431 h -1.4907 v -2.93944 z m -3.5407,10.80156 h 3.7694 c 1.6384,0 2.6814,-0.053 3.1291,-0.16027 0.6415,-0.15274 1.1992,-0.55778 1.6733,-1.21299 0.4754,-0.65513 0.7128,-1.45653 0.7128,-2.40608 0,-0.78132 -0.1824,-1.44538 -0.5477,-1.99095 -0.365,-0.54566 -0.8742,-0.93078 -1.5257,-1.15653 0.4575,-0.24124 0.8304,-0.61318 1.1205,-1.11787 0.2876,-0.50238 0.4326,-1.0668 0.4326,-1.69104 0,-0.67734 -0.17,-1.28485 -0.5076,-1.82166 -0.3378,-0.53566 -0.7553,-0.90981 -1.2506,-1.12229 -0.4965,-0.21132 -1.3507,-0.3176 -2.5638,-0.3176 h -4.4423 z m 4.0483,-5.66631 c 0.9519,0 1.582,0.052 1.8923,0.15487 0.3089,0.103 0.5576,0.29221 0.7427,0.56672 0.1878,0.27442 0.2802,0.62415 0.2802,1.04919 0,0.41274 -0.0875,0.75379 -0.2601,1.02264 -0.1726,0.26902 -0.3877,0.44814 -0.6428,0.54008 -0.2577,0.0919 -0.8403,0.13717 -1.7535,0.13717 h -2.066 v -3.47067 z"
       style="fill:#000000;fill-opacity:1;fill-rule:evenodd;stroke-width:0.948241;stroke-dasharray:none"
       id="path35" />
    <path
       d="m 103.5268,117.29414 v -8.11017 h 5.1427 v 1.38131 h -3.742 v 1.78839 h 3.4817 v 1.36352 h -3.4817 v 2.19573 h 3.8619 v 1.38122 z"
       style="fill:#000000;fill-opacity:1;fill-rule:evenodd;stroke-width:0.948241;stroke-dasharray:none"
       id="path36" />
  </g>
</svg>
