<?xml version="1.0" encoding="UTF-8" standalone="no"?>
<svg
   version="1.1"
   width="1.1374947in"
   height="1.1407721in"
   viewBox="0 0 81.899617 82.135592"
   id="svg27"
   sodipodi:docname="brusque_fc-sc.cdr"
   xmlns:inkscape="http://www.inkscape.org/namespaces/inkscape"
   xmlns:sodipodi="http://sodipodi.sourceforge.net/DTD/sodipodi-0.dtd"
   xmlns="http://www.w3.org/2000/svg"
   xmlns:svg="http://www.w3.org/2000/svg">
  <defs
     id="defs27" />
  <sodipodi:namedview
     id="namedview27"
     pagecolor="#ffffff"
     bordercolor="#000000"
     borderopacity="0.25"
     inkscape:showpageshadow="2"
     inkscape:pageopacity="0.0"
     inkscape:pagecheckerboard="0"
     inkscape:deskcolor="#d1d1d1"
     inkscape:document-units="in" />
  <g
     id="Layer1003"
     transform="translate(-67.050041,-83.412376)">
    <path
       d="m 67.692373,101.07264 c -0.08037,1.55967 -0.134123,3.09527 -0.134123,4.58167 0,40.29671 28.668464,53.93765 40.44165,59.33459 11.77299,-5.39694 40.44155,-19.03788 40.44155,-59.33521 0,-1.48578 -0.0539,-3.02138 -0.13412,-4.58105 -21.24417,0.60511 -34.80079,-10.96591 -40.30743,-16.912298 -5.50674,5.946388 -19.063565,17.517408 -40.307527,16.912298 z"
       style="mix-blend-mode:normal;fill:#ffe500;fill-rule:evenodd;stroke:#000000;stroke-width:1.01642;stroke-dasharray:none;stroke-opacity:1"
       id="path12" />
    <path
       d="m 116.96421,114.70941 v 40.23894 c 10.4766,-6.62459 22.98936,-18.46994 25.74509,-40.23894 z"
       style="fill:#129140;fill-rule:evenodd;stroke-width:0.941132"
       id="path13" />
    <path
       d="M 99.035387,114.70941 H 73.290402 c 2.755624,21.769 15.268488,33.61311 25.744985,40.23894 z"
       style="fill:#e63214;fill-rule:evenodd;stroke-width:0.941132"
       id="path14" />
    <path
       d="m 90.254243,110.99293 c -0.22921,-0.0915 -0.236917,-0.33317 -0.236917,-1.45949 0,-1.32154 -0.274652,-1.72338 -0.816048,-2.02806 0.629477,-0.34636 1.025139,-1.03748 1.025139,-1.90434 0,-0.89439 -0.532988,-2.4076 -2.529617,-2.4076 H 83.900422 83.73467 v 8.29133 h 1.869012 c 0,0 0,-2.86395 0,-3.13022 0.267345,0 1.455233,0 1.455233,0 0.966886,0 1.05817,0.24167 1.05817,1.36844 0,0.85085 0.06876,1.27508 0.171657,1.64957 l 0.03113,0.11221 h 2.032161 v -0.45281 z m -2.975826,-4.27937 c 0,0 -1.400083,0 -1.674735,0 0,-0.23584 0,-1.61003 0,-1.84594 0.277755,0 1.79004,0 1.79004,0 0.770606,0 0.932554,0.48944 0.932554,0.90067 0,0.68014 -0.294069,0.94527 -1.047859,0.94527 z"
       style="fill:#1b1918;fill-rule:evenodd;stroke-width:0.941132"
       id="path15" />
    <path
       d="m 100.41675,103.19344 h -1.765314 v 5.41535 c 0,0.94128 -0.429394,1.37994 -1.351038,1.37994 -0.734373,0 -1.172875,-0.54511 -1.172875,-1.45782 v -5.33747 h -1.931769 v 5.44906 c 0.02392,0.90474 0.220201,1.5471 0.618466,2.02523 0.757694,0.89553 1.902743,1.02889 2.517907,1.02889 2.126848,0 3.250473,-1.09075 3.250473,-3.1542 v -5.34898 z"
       style="fill:#1b1918;fill-rule:evenodd;stroke-width:0.941132"
       id="path16" />
    <path
       d="m 104.86403,105.59015 c 0,1.87125 1.27326,2.18664 2.50499,2.49131 l 0.80574,0.20035 c 0.86059,0.2176 1.23823,0.36361 1.23823,0.85085 0,0.58971 -0.47213,0.88925 -1.40278,0.88925 -1.21561,0 -1.4137,-0.71979 -1.4235,-1.14862 l -0.003,-0.14371 h -1.83478 v 0.14663 c 0,0.66183 0.24352,2.82041 3.3767,2.82041 0.52207,0 3.12526,-0.13336 3.12526,-2.7644 0,-1.53905 -1.05357,-2.02168 -2.08511,-2.29079 l -1.82968,-0.47865 c -0.35753,-0.0888 -0.67612,-0.2084 -0.67612,-0.6951 0,-0.75298 0.8737,-0.81138 1.14125,-0.81138 1.24594,0 1.33462,0.7512 1.37216,1.0719 l 0.0155,0.13114 h 1.82247 l -10e-4,-0.14778 c -0.0111,-1.01403 -0.67432,-2.72997 -3.09384,-2.72997 -2.83199,0 -3.05219,1.99646 -3.05219,2.60856 z"
       style="fill:#1b1918;fill-rule:evenodd;stroke-width:0.941132"
       id="path17" />
    <path
       d="m 121.72818,110.16102 c 0.49355,-0.7197 0.75899,-1.65869 0.75899,-2.82218 0,-4.14717 -3.14368,-4.35725 -3.77376,-4.35725 -0.63007,0 -3.77435,0.21008 -3.77435,4.35725 0,4.1477 3.14428,4.35778 3.77435,4.35778 0.3192,0 1.11653,-0.0618 1.88733,-0.49582 0.14243,0.14486 0.92996,0.94474 0.92996,0.94474 l 1.03815,-1.13367 c 0,0 -0.72927,-0.73802 -0.84067,-0.85085 z m -1.39368,-1.39994 c -0.2228,-0.22158 -0.72997,-0.72599 -0.72997,-0.72599 l -1.01283,1.13597 c 0,0 0.50076,0.50326 0.69364,0.69741 -0.2164,0.0818 -0.42489,0.12026 -0.57193,0.12026 -0.4396,0 -1.87351,-0.19123 -1.87351,-2.64989 0,-2.45813 1.43391,-2.64936 1.87351,-2.64936 0.43981,0 1.87352,0.19123 1.87352,2.64936 0,0.56113 -0.0964,1.02544 -0.25243,1.42224 z"
       style="fill:#1b1918;fill-rule:evenodd;stroke-width:0.941132"
       id="path18" />
    <path
       d="m 132.64658,103.19344 h -1.76622 v 5.41535 c 0,0.94128 -0.42939,1.37994 -1.35024,1.37994 -0.73447,0 -1.17287,-0.54511 -1.17287,-1.45782 v -5.33747 h -1.93187 v 5.44906 c 0.0232,0.9035 0.2196,1.54595 0.61797,2.02523 0.75839,0.89553 1.90254,1.02889 2.5179,1.02889 2.12675,0 3.25108,-1.09075 3.25108,-3.1542 v -5.34898 z"
       style="fill:#1b1918;fill-rule:evenodd;stroke-width:0.941132"
       id="path19" />
    <path
       d="m 142.36548,103.19344 h -5.68751 v 8.29133 h 6.03133 v -1.70798 c 0,0 -3.85653,0 -4.16221,0 0,-0.23362 0,-1.54533 0,-1.77895 0.30227,0 3.66015,0 3.66015,0 v -1.70745 c 0,0 -3.35788,0 -3.66015,0 0,-0.22097 0,-1.16801 0,-1.38906 0.30427,0 3.98425,0 3.98425,0 v -1.70789 z"
       style="fill:#1b1918;fill-rule:evenodd;stroke-width:0.941132"
       id="path20" />
    <path
       d="m 78.793844,107.0262 c 0.342613,-0.2153 0.789523,-0.62812 0.789523,-1.63639 0,-1.01341 -0.648895,-2.19637 -2.47717,-2.19637 h -3.649943 -0.165852 v 8.29133 h 3.344964 c 1.628792,0 2.06329,-0.32175 2.500391,-0.77572 0.4372,-0.45299 0.68793,-1.08854 0.68793,-1.74355 0,-0.93271 -0.358228,-1.57286 -1.029843,-1.9393 z m -3.666159,-2.15858 c 0.27335,0 1.633296,0 1.633296,0 0.708449,0 0.984402,0.19928 0.984402,0.71112 0,0.61546 -0.512169,0.74483 -0.942263,0.74483 0,0 -1.400884,0 -1.675435,0 0,-0.22326 0,-1.2326 0,-1.45595 z m 1.758911,4.94297 c 0,0 -1.481757,0 -1.758911,0 0,-0.23592 0,-1.61011 0,-1.84594 0.279156,0 1.832078,0 1.832078,0 0.226107,0 0.963683,0.0595 0.963683,0.8228 0,0.69794 -0.329602,1.02314 -1.03685,1.02314 z"
       style="fill:#1b1918;fill-rule:evenodd;stroke-width:0.941132"
       id="path21" />
    <path
       d="m 106.22868,114.75242 h -4.10346 v 6.18629 h 1.48706 c 0,0 0,-2.21893 0,-2.4783 0.28816,0 2.43503,0 2.43503,0 v -1.33579 c 0,0 -2.14687,0 -2.43503,0 0,-0.20326 0,-0.83359 0,-1.03694 0.29327,0 2.78215,0 2.78215,0 v -1.33526 z"
       style="fill:#1b1918;fill-rule:evenodd;stroke-width:0.941132"
       id="path22" />
    <path
       d="m 108.58203,117.85406 c 0,1.99903 1.03235,3.24031 2.69347,3.24031 1.36835,0 2.30491,-0.83705 2.56855,-2.29858 l 0.0303,-0.16946 h -1.49016 l -0.0233,0.12212 c -0.12232,0.63634 -0.49936,0.98677 -1.06208,0.98677 -1.11912,0 -1.2058,-1.42773 -1.2058,-1.86523 0,-1.77541 0.92284,-1.91346 1.2058,-1.91346 0.82636,0 0.9754,0.56635 1.06408,0.90474 l 0.0297,0.11327 h 1.46425 l -0.0116,-0.15574 c -0.0765,-1.07067 -0.90784,-2.22274 -2.55424,-2.22274 -1.64551,0 -2.70899,1.27862 -2.70899,3.258 z"
       style="fill:#1b1918;fill-rule:evenodd;stroke-width:0.941132"
       id="path23" />
    <path
       d="m 108.58984,124.68678 h -0.96488 l -0.004,0.07 c -0.0155,0.28273 -0.16835,0.94005 -1.25755,0.94005 h -0.23722 v 0.95164 c 0,0 1.15676,0 1.3019,0 0,0.14079 0,4.01373 0,4.01373 h 1.24464 v -5.97542 z"
       style="fill:#1b1918;fill-rule:evenodd;stroke-width:0.941132"
       id="path24" />
    <path
       d="m 107.92343,134.01967 c -1.21952,0 -1.94748,0.80979 -1.94748,2.16663 0,1.11535 0.71575,1.89532 1.73959,1.89532 0.42239,0 0.73177,-0.15362 0.95858,-0.39397 -0.0389,0.86908 -0.3284,1.39711 -0.80454,1.39711 -0.31269,0 -0.49796,-0.17194 -0.5497,-0.51201 l -0.01,-0.063 -0.0725,-0.008 h -1.16176 l 0.008,0.0791 c 0.0952,0.95377 0.79333,1.5687 1.77833,1.5687 0.62307,0 2.0711,-0.29778 2.0711,-3.06094 0,-0.75935 0,-3.06898 -2.00954,-3.06898 z m 0.0233,2.99571 c -0.31218,0 -0.72666,-0.10309 -0.72666,-0.99403 0,-0.82218 0.48634,-0.91146 0.69553,-0.91146 0.61276,0 0.74148,0.54502 0.74148,1.00208 0,0.62404 -0.35672,0.90341 -0.71035,0.90341 z"
       style="fill:#1b1918;fill-rule:evenodd;stroke-width:0.941132"
       id="path25" />
    <path
       d="m 109.14615,145.77245 c 0.38445,-0.25203 0.60495,-0.64493 0.60495,-1.17057 0,-0.76714 -0.56862,-1.59286 -1.81666,-1.59286 -1.05106,0 -1.78554,0.6859 -1.78554,1.66613 0,0.51201 0.22541,0.88297 0.62828,1.13491 -0.77911,0.44078 -0.79783,1.19198 -0.79783,1.48409 0,0.85094 0.51807,1.84603 1.97831,1.84603 1.56544,0 1.97851,-1.2826 1.97851,-1.9616 0,-0.68041 -0.24662,-1.08907 -0.79002,-1.40613 z m -1.14245,-1.69728 c 0.31809,0 0.54921,0.27371 0.54921,0.64936 0,0.39387 -0.23051,0.64935 -0.58744,0.64935 -0.40147,0 -0.61837,-0.33441 -0.61837,-0.64935 0,-0.41229 0.23952,-0.64936 0.6566,-0.64936 z m -0.0382,3.99877 c -0.4384,0 -0.71095,-0.32733 -0.71095,-0.85412 0,-0.61165 0.35552,-0.82908 0.68763,-0.82908 0.68392,0 0.71896,0.69732 0.71896,0.83705 0,0.29317 -0.14504,0.84615 -0.69564,0.84615 z"
       style="fill:#1b1918;fill-rule:evenodd;stroke-width:0.941132"
       id="path26" />
    <path
       d="m 109.94078,151.34903 h -3.93371 l -0.0271,1.16349 c 0,0 2.35075,0 2.64032,0 -0.39316,0.47759 -1.75061,2.28459 -1.86771,4.63547 l -0.004,0.0768 h 1.27527 l 0.004,-0.0697 c 0.12181,-2.32229 1.29208,-4.00585 1.97911,-4.80166 l 0.0169,-0.0206 v -0.98376 z"
       style="fill:#1b1918;fill-rule:evenodd;stroke-width:0.941132"
       id="path27" />
  </g>
</svg>
