<?xml version="1.0" encoding="UTF-8" standalone="no"?>
<svg
   version="1.1"
   width="1.4218682in"
   height="1.493937in"
   viewBox="0 0 102.37451 107.56347"
   id="svg83"
   sodipodi:docname="acbf_carlos_barbosa.cdr"
   xmlns:inkscape="http://www.inkscape.org/namespaces/inkscape"
   xmlns:sodipodi="http://sodipodi.sourceforge.net/DTD/sodipodi-0.dtd"
   xmlns="http://www.w3.org/2000/svg"
   xmlns:svg="http://www.w3.org/2000/svg">
  <defs
     id="defs83" />
  <sodipodi:namedview
     id="namedview83"
     pagecolor="#ffffff"
     bordercolor="#000000"
     borderopacity="0.25"
     inkscape:showpageshadow="2"
     inkscape:pageopacity="0.0"
     inkscape:pagecheckerboard="0"
     inkscape:deskcolor="#d1d1d1"
     inkscape:document-units="in" />
  <g
     id="Layer1003"
     transform="matrix(1,0,0,0.92824509,-56.812798,-53.073341)">
    <path
       d="m 159.0427,101.0296 c -2.0336,-5.0824 -3.1951,-9.5835 -3.6303,-13.2138 -0.5815,-4.7924 0,-9.2934 1.5967,-13.6498 l 0.4367,-1.0167 -7.5528,-8.5681 -1.1599,0.4353 c -7.1158,2.7596 -14.0874,3.6303 -20.7664,2.3243 -6.5346,-1.1614 -12.7784,-4.2117 -18.8775,-9.2941 l -1.0154,-0.8707 -1.1628,0.8707 c -5.9538,5.0824 -12.1977,8.1327 -18.7323,9.2941 -6.6798,1.306 -13.6498,0.4353 -20.9104,-2.3243 l -1.162,-0.4353 -7.5507,8.5681 0.4354,1.0167 c 1.7428,4.3564 2.3235,8.8574 1.7428,13.6498 -0.436,3.6303 -1.7428,8.1314 -3.7756,13.2138 l -0.1454,0.2893 0.1454,0.5814 c 1.7428,15.6839 6.8252,29.479 14.8119,41.096 8.422,12.0539 20.0389,21.7818 34.9963,29.4794 l 1.0152,0.5786 2.0336,-0.8709 c 14.8118,-7.6944 26.2827,-17.5702 34.4154,-29.1871 8.2776,-11.7615 13.2152,-25.4121 14.9567,-41.096 v -0.5814 z"
       style="fill:#1b1918;fill-rule:evenodd"
       id="path10" />
    <path
       d="m 64.2188,88.2498 c 0.5807,-5.0824 0.1453,-9.8734 -1.5975,-14.3744 l 4.647,-5.0825 c 7.406,2.6135 14.5212,3.1949 21.4912,2.0321 6.6798,-1.1614 13.2137,-4.2102 19.3143,-9.148 6.0977,4.9378 12.4877,7.9866 19.3113,9.148 0.1589,0.0284 0.3177,0.0412 0.4765,0.0652 -1.1131,16.0152 -6.4551,29.3027 -16.4498,39.5781 -10.0357,10.6101 -24.1852,17.5333 -42.2935,21.0614 -4.4783,-8.9112 -7.4011,-18.7981 -8.6752,-29.6294 2.0329,-5.5164 3.3403,-10.0202 3.7757,-13.6505 z"
       style="fill:#f49917;fill-rule:evenodd"
       id="path11" />
    <path
       d="m 81.128,132.2302 2.5718,19.4137 c 1.4343,1.4294 2.9439,2.8105 4.5031,4.1578 L 83.799,131.3398 c -0.8884,0.2977 -1.7599,0.6126 -2.671,0.8904 z"
       style="fill:#f49917;fill-rule:evenodd"
       id="path14" />
    <path
       d="m 102.6766,142.798 -4.2947,-0.5559 -2.6121,3.3721 1.1345,4.3961 4.2393,0.9613 3.2942,-3.7238 z"
       style="fill:#ffffff;fill-rule:evenodd"
       id="path15" />
    <path
       d="m 103.7827,155.1664 -2.5774,-3.4374 -4.4832,-1.0154 -1.5507,1.679 1.5507,2.5782 c 1.4805,1.4349 3.3197,2.4958 5.3702,3.0517 z"
       style="fill:#ffffff;fill-rule:evenodd"
       id="path16" />
    <path
       d="m 99.1689,137.5821 4.5656,-1.9372 0.8451,-1.8319 c -2.6843,0.1588 -5.1419,1.1598 -7.0947,2.7651 z"
       style="fill:#ffffff;fill-rule:evenodd"
       id="path17" />
    <path
       d="m 95.2124,145.1463 2.8894,-3.7297 0.585,-3.2758 -1.7662,-1.0551 c -2.1768,2.0223 -3.6226,4.816 -3.8955,7.9526 z"
       style="fill:#ffffff;fill-rule:evenodd"
       id="path18" />
    <path
       d="m 104.4676,135.7869 2.1427,3.2133 5.4767,0.7374 1.238,-1.4834 -0.1888,-1.6818 c -2.1101,-1.73 -4.8042,-2.7737 -7.7426,-2.7935 z"
       style="fill:#ffffff;fill-rule:evenodd"
       id="path19" />
    <path
       d="m 109.5119,147.7442 3.4868,-3.378 -1.0804,-3.9196 -5.3902,-0.7231 -3.1538,2.8644 1.7499,4.4244 z"
       style="fill:#ffffff;fill-rule:evenodd"
       id="path20" />
    <path
       d="m 113.1589,153.5327 2.6152,-1.2422 0.8962,-2.6916 -0.7801,-4.0614 -2.3767,-0.6607 -3.5408,3.4317 0.1459,4.5463 z"
       style="fill:#ffffff;fill-rule:evenodd"
       id="path21" />
    <path
       d="m 114.0127,137.8685 0.3941,-0.0765 c -0.1502,-0.1645 -0.299,-0.329 -0.4578,-0.4849 z"
       style="fill:#ffffff;fill-rule:evenodd"
       id="path22" />
    <path
       d="m 112.5749,154.1481 -3.0717,-0.6891 -4.9463,1.8236 -1.7328,2.9269 c 0.804,0.1647 1.6364,0.2525 2.4901,0.2525 2.5781,0 4.9718,-0.7941 6.9514,-2.147 z"
       style="fill:#ffffff;fill-rule:evenodd"
       id="path23" />
    <path
       d="m 116.5596,145.169 0.7077,3.687 0.0807,-0.0256 c 0.1958,-0.8736 0.3093,-1.7782 0.3093,-2.7114 0,-0.8282 -0.0853,-1.6366 -0.2412,-2.4193 z"
       style="fill:#ffffff;fill-rule:evenodd"
       id="path24" />
    <path
       d="m 123.9336,125.1738 -3.6103,-0.4652 -2.1954,2.8335 0.953,3.6983 3.5637,0.8055 2.7695,-3.1311 z"
       style="fill:#ffffff;fill-rule:evenodd"
       id="path25" />
    <path
       d="m 124.8625,135.5741 -2.1654,-2.8901 -3.7692,-0.8537 -1.3033,1.4125 1.3033,2.1639 c 1.245,1.2112 2.7908,2.1046 4.5136,2.5668 z"
       style="fill:#ffffff;fill-rule:evenodd"
       id="path26" />
    <path
       d="m 120.9854,120.7893 3.8374,-1.6282 0.7105,-1.54 c -2.2563,0.1305 -4.3224,0.9757 -5.9646,2.3257 z"
       style="fill:#ffffff;fill-rule:evenodd"
       id="path27" />
    <path
       d="m 117.6586,127.1507 2.4292,-3.1369 0.4921,-2.754 -1.4848,-0.8876 c -1.8308,1.7017 -3.046,4.0501 -3.2757,6.6848 z"
       style="fill:#ffffff;fill-rule:evenodd"
       id="path28" />
    <path
       d="m 125.4382,119.2804 1.8024,2.7028 4.606,0.6183 1.0394,-1.2479 -0.1575,-1.4125 c -1.7752,-1.4578 -4.0401,-2.3313 -6.5089,-2.3483 z"
       style="fill:#ffffff;fill-rule:evenodd"
       id="path29" />
    <path
       d="m 129.6797,129.3345 2.9326,-2.8418 -0.9076,-3.2929 -4.5321,-0.6097 -2.6518,2.408 1.4719,3.7211 z"
       style="fill:#ffffff;fill-rule:evenodd"
       id="path30" />
    <path
       d="m 132.7471,134.2014 2.1995,-1.0464 0.7542,-2.2635 -0.658,-3.4148 -1.9966,-0.5529 -2.9778,2.8845 0.1218,3.8202 z"
       style="fill:#ffffff;fill-rule:evenodd"
       id="path31" />
    <path
       d="m 133.4632,121.0302 0.3346,-0.0653 c -0.1276,-0.1361 -0.2539,-0.2778 -0.3843,-0.4084 z"
       style="fill:#ffffff;fill-rule:evenodd"
       id="path32" />
    <path
       d="m 132.2579,134.7176 -2.5852,-0.5786 -4.1565,1.5345 -1.4577,2.4617 c 0.6763,0.1362 1.3754,0.2098 2.0931,0.2098 2.1681,0 4.1804,-0.6694 5.8454,-1.8038 z"
       style="fill:#ffffff;fill-rule:evenodd"
       id="path33" />
    <path
       d="m 135.606,127.1677 0.5956,3.0998 0.0664,-0.0197 c 0.1675,-0.7345 0.261,-1.4975 0.261,-2.2803 0,-0.6977 -0.0722,-1.3756 -0.2013,-2.0364 z"
       style="fill:#ffffff;fill-rule:evenodd"
       id="path34" />
    <path
       d="m 135.3961,107.1075 -2.5625,-0.3319 -1.56,2.011 0.678,2.6261 2.5299,0.5731 1.9667,-2.2209 z"
       style="fill:#ffffff;fill-rule:evenodd"
       id="path35" />
    <path
       d="m 136.0554,114.49 -1.5372,-2.0505 -2.6759,-0.6071 -0.926,1.0013 0.926,1.54 c 0.8834,0.8537 1.9811,1.489 3.2064,1.818 z"
       style="fill:#ffffff;fill-rule:evenodd"
       id="path36" />
    <path
       d="m 133.3043,103.9962 2.7228,-1.16 0.5048,-1.0919 c -1.6025,0.0936 -3.0687,0.6919 -4.2345,1.6506 z"
       style="fill:#ffffff;fill-rule:evenodd"
       id="path37" />
    <path
       d="m 130.9419,108.5084 1.7244,-2.2235 0.3488,-1.9569 -1.0551,-0.6296 c -1.299,1.2083 -2.1598,2.876 -2.3227,4.7449 z"
       style="fill:#ffffff;fill-rule:evenodd"
       id="path38" />
    <path
       d="m 136.4652,102.9241 1.2777,1.9172 3.2702,0.4398 0.7374,-0.8851 -0.1134,-1.0039 c -1.258,-1.0352 -2.8673,-1.6563 -4.6203,-1.6648 z"
       style="fill:#ffffff;fill-rule:evenodd"
       id="path39" />
    <path
       d="m 139.4759,110.0599 2.0804,-2.0166 -0.6454,-2.3398 -3.2161,-0.4311 -1.8819,1.7103 1.0466,2.6404 z"
       style="fill:#ffffff;fill-rule:evenodd"
       id="path40" />
    <path
       d="m 141.6527,113.5143 1.5612,-0.743 0.5332,-1.6053 -0.4637,-2.4248 -1.4195,-0.3944 -2.1144,2.0507 0.0894,2.7114 z"
       style="fill:#ffffff;fill-rule:evenodd"
       id="path41" />
    <path
       d="m 142.1618,104.1663 0.2353,-0.0482 c -0.0907,-0.0964 -0.1786,-0.1957 -0.2752,-0.2893 z"
       style="fill:#ffffff;fill-rule:evenodd"
       id="path42" />
    <path
       d="m 141.3024,113.8803 -1.8322,-0.4084 -2.9496,1.0862 -1.0353,1.7471 c 0.4794,0.0991 0.9756,0.1504 1.4848,0.1504 1.5387,0 2.9682,-0.4765 4.1494,-1.282 z"
       style="fill:#ffffff;fill-rule:evenodd"
       id="path43" />
    <path
       d="m 143.682,108.5227 0.4225,2.2008 0.0481,-0.0142 c 0.1164,-0.5218 0.1831,-1.0635 0.1831,-1.6194 0,-0.4935 -0.0497,-0.9786 -0.1432,-1.4437 z"
       style="fill:#ffffff;fill-rule:evenodd"
       id="path44" />
    <path
       d="m 139.1965,90.6974 -2.0463,-0.2637 -1.2452,1.608 0.5405,2.0931 2.0207,0.4595 1.5712,-1.7754 z"
       style="fill:#ffffff;fill-rule:evenodd"
       id="path45" />
    <path
       d="m 139.7227,96.5938 -1.2281,-1.6365 -2.1358,-0.4878 -0.7387,0.8027 0.7387,1.228 c 0.7063,0.6864 1.5828,1.1912 2.5585,1.455 z"
       style="fill:#ffffff;fill-rule:evenodd"
       id="path46" />
    <path
       d="m 137.5246,88.2101 2.1768,-0.9218 0.4041,-0.8735 c -1.279,0.0737 -2.4518,0.553 -3.3836,1.316 z"
       style="fill:#ffffff;fill-rule:evenodd"
       id="path47" />
    <path
       d="m 135.6386,91.8149 1.3782,-1.7755 0.2781,-1.5627 -0.8424,-0.5021 c -1.0353,0.9644 -1.7257,2.2945 -1.8549,3.792 z"
       style="fill:#ffffff;fill-rule:evenodd"
       id="path48" />
    <path
       d="m 140.0517,87.3564 1.0224,1.5315 2.6106,0.3517 0.59,-0.7091 -0.0908,-0.8026 c -1.0069,-0.8225 -2.2889,-1.3216 -3.6884,-1.3301 z"
       style="fill:#ffffff;fill-rule:evenodd"
       id="path49" />
    <path
       d="m 142.4568,93.0543 1.6618,-1.611 -0.5147,-1.8662 -2.5681,-0.346 -1.5032,1.3642 0.8338,2.1129 z"
       style="fill:#ffffff;fill-rule:evenodd"
       id="path50" />
    <path
       d="m 144.1953,95.8167 1.2452,-0.5927 0.4281,-1.2849 -0.3714,-1.9342 -1.1318,-0.3177 -1.689,1.6365 0.0695,2.1668 z"
       style="fill:#ffffff;fill-rule:evenodd"
       id="path51" />
    <path
       d="m 144.6009,88.3462 0.1899,-0.0369 c -0.0723,-0.0766 -0.1445,-0.156 -0.2184,-0.2297 z"
       style="fill:#ffffff;fill-rule:evenodd"
       id="path52" />
    <path
       d="m 143.9173,96.1088 -1.4648,-0.329 -2.3554,0.8707 -0.8282,1.3954 c 0.3828,0.0766 0.7798,0.1192 1.1853,0.1192 1.2311,0 2.3711,-0.3801 3.3143,-1.0239 z"
       style="fill:#ffffff;fill-rule:evenodd"
       id="path53" />
    <path
       d="m 145.8176,91.8262 0.336,1.7584 0.0383,-0.0113 c 0.0935,-0.4141 0.1475,-0.848 0.1475,-1.2933 0,-0.3942 -0.0411,-0.7771 -0.1134,-1.1544 z"
       style="fill:#ffffff;fill-rule:evenodd"
       id="path54" />
    <path
       d="m 96.3455,135.1657 -2.9496,-7.6491 c -0.9204,0.4339 -1.8463,0.865 -2.7965,1.2707 l 3.0645,9.294 c 0.7552,-1.0918 1.6563,-2.0761 2.6816,-2.9156 z"
       style="fill:#f49917;fill-rule:evenodd"
       id="path55" />
    <path
       d="m 100.7281,159.5028 2.2406,6.7927 c 1.6591,0.973 3.3495,1.9259 5.1051,2.839 0.3857,-0.2043 0.7474,-0.4253 1.1288,-0.6295 l -3.1865,-8.2648 c -0.2339,0.0114 -0.4651,0.037 -0.7019,0.037 -1.6081,0 -3.1453,-0.2807 -4.5861,-0.7744 z"
       style="fill:#f49917;fill-rule:evenodd"
       id="path56" />
    <path
       d="m 115.7811,155.6288 3.4445,6.7925 c 1.645,-1.1231 3.2332,-2.2859 4.7734,-3.4771 l -5.1165,-8.7979 c -0.6126,2.0678 -1.689,3.9282 -3.1014,5.4825 z"
       style="fill:#f49917;fill-rule:evenodd"
       id="path57" />
    <path
       d="m 108.5276,132.3409 -5.834,-10.0344 c -0.9445,0.621 -1.9094,1.2282 -2.8957,1.8122 l 4.0188,7.9215 c 0.4921,-0.051 0.9898,-0.0794 1.4975,-0.0794 1.1061,0 2.1797,0.1391 3.2134,0.3801 z"
       style="fill:#f49917;fill-rule:evenodd"
       id="path58" />
    <path
       d="m 141.7194,116.0753 9.1719,6.2312 c 0.5419,-1.5088 1.0551,-3.0375 1.5203,-4.5976 l -7.8773,-4.8723 c -0.6481,1.3074 -1.6183,2.4249 -2.8149,3.2387 z"
       style="fill:#f49917;fill-rule:evenodd"
       id="path59" />
    <path
       d="m 123.5436,99.8525 c -0.5119,0.9445 -1.0521,1.8719 -1.6123,2.788 l 6.7955,4.6116 c 0.2666,-1.2025 0.7912,-2.3059 1.5118,-3.2559 z"
       style="fill:#f49917;fill-rule:evenodd"
       id="path60" />
    <path
       d="M 126.5613,116.0839 117.8585,108.5 c -0.7147,0.9105 -1.4605,1.8009 -2.2319,2.6773 l 5.9927,5.7829 c 1.3968,-0.5757 2.9269,-0.8989 4.5323,-0.8989 0.139,0 0.2722,0.0169 0.4097,0.0226 z"
       style="fill:#f49917;fill-rule:evenodd"
       id="path61" />
    <path
       d="m 138.055,127.9675 c 0,1.455 -0.2738,2.8446 -0.7516,4.1351 l 6.0097,5.8029 c 0.9815,-1.5627 1.9173,-3.1568 2.7894,-4.7932 l -8.2319,-7.1755 c 0.1134,0.6609 0.1844,1.3358 0.1844,2.0307 z"
       style="fill:#f49917;fill-rule:evenodd"
       id="path62" />
    <path
       d="m 146.0628,88.5278 6.1532,1.92 c -0.1291,-0.7629 -0.2326,-1.5003 -0.2894,-2.198 -0.1163,-0.8112 -0.1871,-1.611 -0.2382,-2.4079 l -8.5822,-2.0534 c -0.6226,0.241 -1.2906,0.3828 -1.9967,0.3828 -1.6423,0 -3.1014,-0.7203 -4.1209,-1.847 l -6.7856,-1.6222 c -0.1687,0.9104 -0.3474,1.8136 -0.5474,2.7035 l 8.3412,2.6036 c 0.7643,-0.3006 1.5882,-0.4793 2.4574,-0.4793 2.34,0 4.3977,1.1912 5.6086,2.9979 z"
       style="fill:#f49917;fill-rule:evenodd"
       id="path63" />
    <path
       d="m 144.4816,97.6687 c -1.1258,0.8452 -2.5099,1.3614 -4.0274,1.3614 -3.4088,0 -6.1969,-2.5356 -6.6564,-5.817 l -6.2041,-2.5866 c -0.3474,0.9983 -0.7132,1.9882 -1.1075,2.9609 l 28.3887,13.7271 c 0.2934,-1.6393 0.543,-3.307 0.7628,-4.9917 z"
       style="fill:#f49917;fill-rule:evenodd"
       id="path64" />
    <path
       d="m 124.6767,139.7689 8.1909,11.302 c 1.3983,-1.4237 2.7354,-2.8901 4.0189,-4.393 l -6.4013,-7.6323 c -1.3443,0.5275 -2.8021,0.8255 -4.3336,0.8255 -0.4992,0 -0.99,-0.04 -1.4749,-0.1022 z"
       style="fill:#f49917;fill-rule:evenodd"
       id="path65" />
    <path
       d="m 111.0247,115.8371 c -0.7387,0.6723 -1.4847,1.3387 -2.2561,1.9798 l 5.7035,7.8703 c 0.2737,-1.4124 0.8028,-2.7284 1.5288,-3.9169 z"
       style="fill:#f49917;fill-rule:evenodd"
       id="path66" />
    <path
       d="m 145.4459,75.1261 7.2252,1.0508 c 0.2099,-0.7743 0.4384,-1.5429 0.7077,-2.3015 l -4.5009,-5.0825 c -6.105,2.113 -11.9205,2.876 -17.5319,2.4859 -0.0369,0.5984 -0.0936,1.1842 -0.1432,1.7769 l 6.7118,0.9757 c 0.906,-0.6354 2.0037,-1.014 3.1949,-1.014 1.7612,0 3.3154,0.8324 4.3364,2.1087 z"
       style="fill:#f49917;fill-rule:evenodd"
       id="path67" />
    <path
       d="m 140.0715,77.2886 -1.6918,-0.2225 -1.031,1.3315 0.4481,1.7315 1.6704,0.3758 1.2949,-1.4677 z"
       style="fill:#ffffff;fill-rule:evenodd"
       id="path68" />
    <path
       d="m 140.5039,82.1584 -1.011,-1.3529 -1.7698,-0.3999 -0.6126,0.6608 0.6126,1.0168 c 0.5829,0.5658 1.3076,0.9842 2.1185,1.2005 z"
       style="fill:#ffffff;fill-rule:evenodd"
       id="path69" />
    <path
       d="m 138.6903,75.231 1.7939,-0.76 0.336,-0.7261 c -1.058,0.0624 -2.0293,0.4594 -2.7965,1.0891 z"
       style="fill:#ffffff;fill-rule:evenodd"
       id="path70" />
    <path
       d="m 137.1275,78.209 1.1388,-1.4634 0.2283,-1.2962 -0.6921,-0.4112 c -0.8579,0.7955 -1.4265,1.8959 -1.5372,3.134 z"
       style="fill:#ffffff;fill-rule:evenodd"
       id="path71" />
    <path
       d="m 140.7749,74.5248 0.8438,1.2664 2.1568,0.2893 0.4921,-0.5857 -0.0767,-0.6623 c -0.8324,-0.6807 -1.8916,-1.0933 -3.0501,-1.1004 z"
       style="fill:#ffffff;fill-rule:evenodd"
       id="path72" />
    <path
       d="m 142.7631,79.2371 1.3727,-1.3358 -0.4227,-1.5415 -2.1285,-0.285 -1.2379,1.1302 0.6861,1.7443 z"
       style="fill:#ffffff;fill-rule:evenodd"
       id="path73" />
    <path
       d="m 144.2009,81.5174 1.0267,-0.4935 0.3545,-1.0592 -0.3063,-1.5968 -0.9374,-0.2609 -1.3968,1.3513 0.0581,1.7897 z"
       style="fill:#ffffff;fill-rule:evenodd"
       id="path74" />
    <path
       d="m 144.5384,75.3474 0.1517,-0.0313 c -0.061,-0.0667 -0.1148,-0.1347 -0.1772,-0.1957 z"
       style="fill:#ffffff;fill-rule:evenodd"
       id="path75" />
    <path
       d="m 143.9711,81.7613 -1.2123,-0.2708 -1.9486,0.7132 -0.682,1.1565 c 0.3147,0.0652 0.6437,0.0993 0.9813,0.0993 1.0124,0 1.9569,-0.312 2.7368,-0.8445 z"
       style="fill:#ffffff;fill-rule:evenodd"
       id="path76" />
    <path
       d="m 145.5382,78.2175 0.2794,1.455 0.0313,-0.0099 c 0.0807,-0.3475 0.1247,-0.6978 0.1247,-1.0678 0,-0.3277 -0.034,-0.6467 -0.0966,-0.9573 z"
       style="fill:#ffffff;fill-rule:evenodd"
       id="path77" />
    <path
       d="m 77.746,109.9521 c -0.4361,0.9133 -0.8524,1.7358 -1.1721,2.5299 3.9677,0.3886 4.6562,0.8168 5.7326,1.6847 1.7697,1.4294 3.4069,1.5428 5.3639,1.5428 0.3006,0 0.5445,-0.2439 0.5445,-0.5445 0,-0.3006 -0.2439,-0.5445 -0.5445,-0.5445 -2.1221,0 -3.3013,-0.1872 -4.6797,-1.3019 -0.0772,-0.0622 -0.151,-0.119 -0.2262,-0.1757 -0.1517,-0.8084 -0.5352,-1.713 -0.6693,-2.6065 -0.1312,0.003 -0.2588,0.017 -0.3908,0.017 -1.3209,0 -2.6708,-0.2155 -3.9584,-0.6013 z"
       style="fill:#1b1918;fill-rule:evenodd"
       id="path78" />
    <path
       d="m 101.006,88.4738 c -1.043,0.0114 -2.2214,0.0482 -3.638,0.1418 -0.1142,0.9956 -0.2439,2.1612 -0.3404,3.5708 -4.0444,0.6438 -8.5766,1.9286 -12.9372,3.6587 -0.0298,-5.3094 -0.7203,-8.2335 -0.7203,-10.0996 0,-2.2066 0.353,-2.9689 1.7329,-4.4139 1.3797,-1.445 3.2849,-2.4107 5.3908,-2.4107 2.1052,0 4.0111,0.9657 5.3908,2.4107 0.8339,0.8721 1.2743,1.5146 1.506,2.3604 0.8374,-0.0312 1.5777,-0.051 2.0861,-0.0624 0.8416,-0.0198 1.7045,-0.0311 2.5476,-0.0141 0.207,-0.653 0.4055,-1.0913 0.614,-1.4033 0.1673,-0.2509 0.0992,-0.5927 -0.1518,-0.7586 -0.2524,-0.1673 -0.5927,-0.0992 -0.76,0.1517 -0.1462,0.2198 -0.3461,0.4226 -0.8147,0.4226 -1.1763,0 -0.826,-2.1385 -3.6155,-4.9278 -1.7407,-1.4451 -4.1458,-2.1583 -6.8025,-2.1583 -2.6568,0 -5.0626,0.7132 -6.8032,2.1583 -2.7895,2.7893 -2.4392,4.9278 -3.6155,4.9278 -0.4687,0 -0.6686,-0.2028 -0.8146,-0.4226 -0.1674,-0.2509 -0.5077,-0.319 -0.7595,-0.1517 -0.2517,0.1659 -0.3198,0.5077 -0.1524,0.7586 0.4027,0.6041 0.7615,1.6046 1.2451,3.9048 l 0.0822,0.4594 c 0.5609,3.0007 0.8785,6.1801 0.8785,9.5778 0,3.8855 -0.424,6.7359 -1.0104,8.9764 0.6452,0.244 1.3096,0.4 1.9789,0.4 0.4965,0 1.0027,-0.0794 1.5153,-0.2071 0.3687,-1.7613 0.714,-3.7466 0.9019,-5.8935 4.3237,-1.8294 8.8907,-3.1992 12.962,-3.9083 -0.0028,0.2241 -0.0107,0.4283 -0.0107,0.6609 0,5.3547 1.2587,10.2073 1.9967,13.1599 0.3128,1.2506 -0.4481,2.6346 -0.6665,3.8059 -0.0751,0.0596 -0.1481,0.108 -0.2254,0.1702 -1.3784,1.1147 -2.5569,1.3019 -4.6797,1.3019 -0.3006,0 -0.5445,0.2439 -0.5445,0.5445 0,0.3006 0.2439,0.5445 0.5445,0.5445 1.957,0 3.5948,-0.1134 5.3646,-1.5428 1.0763,-0.8679 1.7641,-1.2961 5.7312,-1.6847 -1.2706,-3.1538 -3.9805,-6.4581 -3.9805,-16.3278 0,-2.6944 0.2112,-5.2413 0.5742,-7.6804 z"
       style="fill:#1b1918;fill-rule:evenodd"
       id="path79" />
    <path
       d="m 88.7127,92.3395 c -0.731,-0.3658 -1.1508,-1.1145 -1.1508,-2.0562 0,-0.9444 0.3127,-1.7811 0.5885,-2.5185 0.2552,-0.726 0.4638,-1.2479 0.4638,-1.8378 0,-0.5219 -0.2539,-0.9757 -1.0708,-1.2933 -0.6098,-0.2354 -1.8959,-0.5332 -3.2673,-0.7573 -0.1304,0.4821 -0.18,1.0579 -0.18,1.8691 l 0.1922,2.2519 c 0.6033,0.4878 1.0274,1.0522 2.0512,1.3812 0.0766,0.2978 0.1334,0.5984 0.1334,0.9047 0,1.3472 0.6551,2.4789 1.7534,3.0291 0.2687,0.1333 0.5962,0.0255 0.7303,-0.2439 0.1347,-0.2695 0.0255,-0.5957 -0.2439,-0.729 z"
       style="fill:#1b1918;fill-rule:evenodd"
       id="path80" />
    <path
       d="m 97.4523,106.475 c -1.4953,-0.1956 -2.3249,-0.8963 -2.2547,-3.4233 0.0318,-1.1429 0.0532,-2.4277 0.0638,-3.7692 0.3156,-0.0879 0.6701,-0.1617 1.0395,-0.2298 -0.066,-0.8565 -0.1149,-1.7243 -0.122,-2.612 -1.5152,0.2921 -3.0921,0.6892 -4.6832,1.1401 -0.005,4.2911 -0.1893,8.4971 -0.6254,11.6509 1.7606,0.1334 4.5684,0.1675 7.2854,0.1759 l -0.0425,-0.1702 c -0.1964,-0.7828 -0.4276,-1.7215 -0.6609,-2.7624 z"
       style="fill:#1b1918;fill-rule:evenodd"
       id="path81" />
    <path
       d="m 109.3557,97.5439 c -0.4594,-0.6665 -1.2082,-1.2365 -2.3795,-1.5684 0.9814,-0.4878 1.2337,-1.4862 1.4634,-2.2434 0.2922,-0.9672 0.5899,-2.0591 1.9684,-2.8844 -2.449,-1.9541 -1.5627,-3.8571 -3.0489,-5.3434 -1.2281,-1.2308 -5.1434,-1.211 -7.8662,-1.1486 -2.4965,0.0567 -6.299,0.2071 -8.4957,0.5276 0.1992,2.2887 0.3488,4.9916 0.4304,7.8164 1.2663,-0.3403 2.5093,-0.6211 3.7324,-0.8678 -0.0461,-1.2593 -0.1064,-2.5214 -0.1907,-3.7608 2.8723,-0.2836 4.8718,-0.329 6.6408,-0.329 2.4817,0 3.6913,1.4521 3.6913,3.6303 0,1.9258 -0.9586,3.2276 -4.1025,3.7154 -0.007,0.3574 -0.041,0.7062 -0.041,1.0664 0,0.865 0.024,1.6705 0.0624,2.4363 0.3898,-0.0114 0.7671,-0.0171 1.116,-0.0171 3.0261,0 4.1748,1.6337 4.1748,3.7636 0,3.0943 -1.7272,3.9167 -3.9224,4.138 0.3743,1.1145 0.7841,2.062 1.1868,2.9155 2.3385,-0.0426 4.2897,-0.3715 5.6397,-2.4078 1.0042,-1.5117 0.7261,-2.4193 1.089,-3.3269 0.1732,-0.4311 0.4965,-0.8139 0.9757,-1.211 -2.2802,-1.7045 -1.0975,-3.4119 -2.1242,-4.9009 z"
       style="fill:#1b1918;fill-rule:evenodd"
       id="path82" />
    <path
       d="m 87.6464,103.6048 c -2.0146,1.6876 -4.0693,2.6519 -6.1235,2.6519 -3.509,0 -7.4421,-3.1454 -7.4421,-9.6204 0,-5.21 1.2452,-8.4886 4.9796,-9.3225 -0.0353,-0.2014 -0.0617,-0.4084 -0.0992,-0.6097 l -0.078,-0.4397 c -0.2297,-1.0919 -0.4367,-1.9087 -0.6396,-2.5213 -2.4171,0.3262 -4.0834,1.1657 -5.7474,2.9099 -2.5043,2.6263 -1.7464,7.1018 -3.6091,10.4428 2.135,2.2888 0.9537,6.1913 4.1046,9.3424 2.2392,2.2404 5.8085,3.3891 8.7127,3.3891 3.3992,0 6.0681,-1.3244 8.1633,-2.9638 z"
       style="fill:#1b1918;fill-rule:evenodd"
       id="path83" />
  </g>
</svg>
