<?xml version="1.0" encoding="UTF-8" standalone="no"?>
<svg
   version="1.1"
   width="1.5445657in"
   height="1.5495526in"
   viewBox="0 0 111.20873 111.56778"
   id="svg25"
   sodipodi:docname="castanhal_ec_pa.cdr"
   xmlns:inkscape="http://www.inkscape.org/namespaces/inkscape"
   xmlns:sodipodi="http://sodipodi.sourceforge.net/DTD/sodipodi-0.dtd"
   xmlns="http://www.w3.org/2000/svg"
   xmlns:svg="http://www.w3.org/2000/svg">
  <defs
     id="defs25" />
  <sodipodi:namedview
     id="namedview25"
     pagecolor="#ffffff"
     bordercolor="#000000"
     borderopacity="0.25"
     inkscape:showpageshadow="2"
     inkscape:pageopacity="0.0"
     inkscape:pagecheckerboard="0"
     inkscape:deskcolor="#d1d1d1"
     inkscape:document-units="in" />
  <g
     id="Layer1003"
     transform="translate(-52.395515,-52.232903)">
    <path
       d="m 88.4732,52.7329 c -3.8183,5.5029 -7.8331,9.9108 -12.5498,12.1849 -4.9413,2.3582 -10.0371,3.2426 -21.1129,3.2426 -2.92,18.2633 -3.2568,38.3234 4.4781,55.183 9.5176,20.7759 27.9072,32.1466 48.7114,39.9235 20.8038,-7.7769 39.1935,-19.1476 48.7115,-39.9235 7.7346,-16.8596 7.3977,-36.9197 4.4777,-55.183 -11.0756,0 -16.1716,-0.8844 -21.1129,-3.2426 -4.7165,-2.2741 -8.7315,-6.682 -12.5496,-12.1849 z"
       style="fill:#1b1918;fill-rule:evenodd;stroke:#000000;stroke-opacity:1"
       id="path10" />
    <path
       d="m 159.9117,69.6484 c -6.1203,0 -14.4026,-0.3228 -20.5652,-3.4672 -1.881,-0.9688 -3.636,-2.1338 -5.3766,-3.6499 l -7.7768,8.1841 V 54.2069 h -12.1287 v 29.297 L 101.9356,96.2924 V 54.2069 H 89.8069 v 54.8598 L 77.6782,121.8552 V 98.4578 c -1.5342,0.6481 -3.2183,1.0071 -4.9835,1.0071 -2.6461,0 -5.1098,-0.8064 -7.1593,-2.1852 v 34.1634 c 5.236,7.7769 11.876,13.9116 19.5407,18.9372 l 4.7308,-4.9975 v 7.9032 c 3.8463,2.1901 7.9033,4.1694 12.1287,5.9663 v -26.6441 l 12.1288,-12.7883 v 39.4324 c 4.2254,-1.7969 8.2823,-3.7762 12.1287,-5.9663 v -46.2408 l 12.1286,-12.7883 v 50.6346 c 4.5902,-3.8605 8.6753,-8.2965 12.1426,-13.4484 V 81.4683 l 9.7001,-10.2195 c -0.0841,-0.5334 -0.1682,-1.0668 -0.2527,-1.6004 z"
       style="display:inline;fill:#ffec00;fill-rule:evenodd;stroke:#000000;stroke-opacity:1"
       id="path11" />
    <path
       d="m 99.0578,120.8024 0.4071,0.379 c 1.6144,1.5302 1.0249,2.3724 -0.4211,3.8887 -2.0916,2.2038 -2.9619,1.5441 -5.0115,-0.3932 l -2.1479,-2.0496 c -1.9652,-1.8528 -2.4144,-2.6671 -0.4351,-4.7587 1.1792,-1.2495 2.0917,-2.0215 3.4393,-0.9828 l 0.5334,0.5055 3.5938,-3.7903 -0.5335,-0.4914 c -4.1973,-3.8464 -6.2609,-2.4566 -9.8406,1.3197 -3.8323,4.0429 -5.4888,7.1031 -0.9405,11.4268 l 3.5656,3.3832 c 5.0255,4.7587 7.8051,2.2038 11.3566,-1.5302 1.5162,-1.6003 2.9761,-3.1024 3.1305,-5.3343 0.1404,-2.2321 -1.1932,-3.5377 -2.7093,-4.9696 l -0.3931,-0.3791 z"
       style="display:inline;fill:#1b1918;fill-rule:evenodd"
       id="path12" />
    <path
       d="m 105.0941,103.3534 5.9239,-6.2609 -3.0041,-2.8497 -9.4053,9.9248 13.743,13.0411 9.5459,-10.0371 -3.0182,-2.8496 -6.0506,6.3589 -2.6812,-2.5406 5.573,-5.8538 -2.5549,-2.4145 -5.5587,5.8678 z"
       style="fill:#1b1918;fill-rule:evenodd"
       id="path13" />
    <path
       d="m 129.1689,89.0769 0.4074,0.379 c 1.6143,1.5302 1.0243,2.3724 -0.4213,3.8885 -2.0918,2.204 -2.9619,1.5441 -5.0254,-0.4071 l -2.148,-2.0354 c -1.9511,-1.853 -2.4147,-2.6673 -0.4214,-4.7589 1.1795,-1.2494 2.0919,-2.0215 3.4395,-0.9827 l 0.5333,0.5054 3.5937,-3.7902 -0.5333,-0.5054 c -4.1972,-3.8323 -6.2611,-2.4426 -9.8404,1.3336 -3.8325,4.0429 -5.489,7.1031 -0.9407,11.4269 l 3.5658,3.369 c 5.0254,4.7729 7.8048,2.218 11.3566,-1.5161 1.5158,-1.6003 2.9758,-3.1024 3.1305,-5.3344 0.1403,-2.246 -1.2073,-3.5516 -2.7096,-4.9694 l -0.407,-0.3931 z"
       style="fill:#1b1918;fill-rule:evenodd"
       id="path14" />
    <path
       d="m 77.6782,74.7384 v -9.1047 c -0.3369,0.1824 -0.688,0.3789 -1.0249,0.5475 -3.3128,1.6985 -7.2434,2.5688 -11.1179,3.0181 v 6.715 c 2.0495,-1.3764 4.5132,-2.1808 7.1593,-2.1808 1.7652,0 3.4493,0.3581 4.9835,1.0049 z"
       style="fill:#ffec00;fill-rule:evenodd"
       id="path15" />
    <path
       d="m 72.3297,81.3561 v -3.1725 l -2.962,-0.9547 -4.5622,3.3129 v 3.1024 l 3.0181,0.9828 z"
       style="fill:#ffec00;fill-rule:evenodd"
       id="path16" />
    <path
       d="m 64.0614,80.556 -1.3617,-0.8143 c -1.2914,1.867 -2.0776,4.1131 -2.1336,6.5276 l 1.6003,0.1544 1.909,-2.6251 z"
       style="fill:#ffec00;fill-rule:evenodd"
       id="path17" />
    <path
       d="m 67.4445,93.1899 1.8671,-2.5688 -1.7126,-5.2924 -3.0182,-0.9826 -1.8389,2.5129 1.7547,5.3764 z"
       style="fill:#ffec00;fill-rule:evenodd"
       id="path18" />
    <path
       d="m 72.6947,77.5237 3.0883,-0.9967 0.3511,-1.5582 c -1.0951,-0.3369 -2.2461,-0.5053 -3.4394,-0.5053 -1.1932,0 -2.3442,0.1684 -3.4393,0.5053 l 0.351,1.5582 z"
       style="fill:#ffec00;fill-rule:evenodd"
       id="path19" />
    <path
       d="m 73.0598,78.1836 v 3.1725 l 4.506,3.2709 3.0182,-0.9828 v -3.1024 l -4.5623,-3.3269 z"
       style="fill:#ffec00;fill-rule:evenodd"
       id="path20" />
    <path
       d="m 78.0291,93.934 -1.9092,2.6251 0.6318,1.4739 c 2.218,-0.8001 4.1412,-2.2179 5.5589,-4.0429 l -1.1932,-1.0528 z"
       style="fill:#ffec00;fill-rule:evenodd"
       id="path21" />
    <path
       d="m 82.6897,79.7417 -1.3757,0.8001 v 3.2568 l 1.9092,2.6251 1.6002,-0.1544 c -0.0702,-2.4145 -0.8423,-4.6606 -2.1337,-6.5276 z"
       style="fill:#ffec00;fill-rule:evenodd"
       id="path22" />
    <path
       d="m 64.272,92.9373 -1.1932,1.0528 c 1.4178,1.825 3.341,3.2428 5.559,4.0429 l 0.6318,-1.4739 -1.9092,-2.6251 z"
       style="fill:#ffec00;fill-rule:evenodd"
       id="path23" />
    <path
       d="m 77.7904,85.3287 -1.7125,5.2924 1.8529,2.5688 2.9621,-0.9545 1.7407,-5.3764 -1.8251,-2.5129 z"
       style="fill:#ffec00;fill-rule:evenodd"
       id="path24" />
    <path
       d="m 75.4742,91.0563 h -5.5589 l -1.8671,2.5688 1.8249,2.5129 h 5.6432 l 1.825,-2.5129 z"
       style="fill:#ffec00;fill-rule:evenodd"
       id="path25" />
  </g>
</svg>
