<?xml version="1.0" encoding="UTF-8" standalone="no"?>
<svg
   version="1.1"
   width="1.8345847in"
   height="1.8300658in"
   viewBox="0 0 132.0901 131.76474"
   id="svg30"
   sodipodi:docname="caxias.cdr"
   xmlns:inkscape="http://www.inkscape.org/namespaces/inkscape"
   xmlns:sodipodi="http://sodipodi.sourceforge.net/DTD/sodipodi-0.dtd"
   xmlns="http://www.w3.org/2000/svg"
   xmlns:svg="http://www.w3.org/2000/svg">
  <defs
     id="defs30" />
  <sodipodi:namedview
     id="namedview30"
     pagecolor="#ffffff"
     bordercolor="#000000"
     borderopacity="0.25"
     inkscape:showpageshadow="2"
     inkscape:pageopacity="0.0"
     inkscape:pagecheckerboard="0"
     inkscape:deskcolor="#d1d1d1"
     inkscape:document-units="in" />
  <g
     id="Layer1003"
     transform="matrix(1,0,0,1.0130505,-41.954998,-43.527335)">
    <path
       d="m 59.5468,63.5823 6.174,12.2229 0.0043,0.0535 c -2.9419,3.7896 -5.3868,7.9824 -7.2358,12.4794 l -0.0163,0.0122 -13.6546,0.7695 -2.8634,16.1419 12.581,5.4047 0.0056,0.0444 c 0.1938,4.9242 1.0589,9.6808 2.5061,14.1807 l 0.0115,0.0203 -9.986,9.3594 8.2142,14.2096 13.0999,-3.9552 0.0266,-0.018 c 3.2499,3.5758 6.9758,6.7131 11.0754,9.3085 l -0.0064,0.0335 -1.6286,13.5827 15.4263,5.6016 7.4805,-11.4353 0.0109,-0.006 c 2.3675,0.3224 4.7833,0.489 7.2369,0.489 2.4456,0 4.8541,-0.1657 7.2135,-0.4862 l 0.0165,0.003 7.4987,11.4353 15.4086,-5.6016 -1.6288,-13.5827 -0.009,-0.0283 c 4.0936,-2.5917 7.8145,-5.7233 11.0608,-9.2929 l 0.062,-0.003 13.1,3.9552 8.1962,-14.2096 -9.9683,-9.3594 -0.0153,0.01 c 1.4577,-4.5245 2.3266,-9.3085 2.5168,-14.2615 l 0.004,0.007 12.5805,-5.4047 -2.8451,-16.1419 -13.6722,-0.7695 -0.0238,-0.03 c -1.8396,-4.4702 -4.2679,-8.64 -7.1879,-12.4111 l -0.0186,-0.104 6.1565,-12.2229 -12.5634,-10.5409 -10.9524,8.1964 -0.0595,0.0012 c -4.2202,-2.23 -8.7711,-3.9118 -13.557,-4.9496 l -0.002,-0.0087 -3.132,-13.3146 h -16.375 l -3.1318,13.3146 -0.0071,0.0124 c -4.7947,1.0408 -9.3534,2.7274 -13.5795,4.9637 L 83.062,61.2378 72.1098,53.0414 Z"
       style="fill:#8f004d;fill-rule:evenodd"
       id="path10" />
    <path
       d="m 108.0089,68.3606 c -17.7185,0 -32.8255,11.5612 -38.1662,27.5239 h 76.3147 C 140.8174,79.9218 125.713,68.3606 108.0089,68.3606 Z"
       style="fill:#006bb4;fill-rule:evenodd"
       id="path11" />
    <path
       d="m 108.0089,148.8027 c 17.7139,0 32.8253,-11.5745 38.1572,-27.5417 H 69.834 c 5.3326,15.9672 20.4465,27.5417 38.1749,27.5417 z"
       style="fill:#006bb4;fill-rule:evenodd"
       id="path12" />
    <path
       d="m 148.2212,108.5906 c 0,-4.4366 -0.7267,-8.7091 -2.0638,-12.7061 H 69.8427 c -1.3374,3.997 -2.0638,8.2695 -2.0638,12.7061 0,4.423 0.7233,8.6831 2.0551,12.6704 h 76.3321 c 1.3315,-3.9873 2.0551,-8.2474 2.0551,-12.6704 z"
       style="fill:#ffffff;fill-rule:evenodd"
       id="path13" />
    <path
       d="m 87.5316,136.8445 v -11.6273 h 3.9736 c 0,0 1.1408,-0.0364 1.9134,0.8099 0.7726,0.8462 0.736,1.5453 0.736,1.5453 v 6.991 c 0,0 0,0.8826 -0.6992,1.5084 -0.699,0.6255 -1.2979,0.6273 -1.8766,0.7359 -0.5886,0.1109 -4.0472,0.0368 -4.0472,0.0368 z m 3.5689,-2.3179 c 0.5521,-0.1841 0.5152,-0.9935 0.5152,-0.9935 v -4.8936 c 0,0 0.0735,-0.5154 -0.2944,-0.9199 -0.3678,-0.4049 -1.251,-0.3681 -1.251,-0.3681 v 7.285 c 0,0 0.4784,0.0737 1.0302,-0.1099 0,0 -0.5518,0.1836 0,0 z"
       style="fill:#ffffff;fill-rule:evenodd"
       id="path14" />
    <path
       d="m 95.3689,134.1221 c 0,0 0,-5.5562 0,-6.292 0,-0.7363 0.4047,-2.7965 3.5689,-2.7965 3.1644,0 3.3114,2.5756 3.3114,2.7596 0,0.1837 0,6.2916 0,6.2916 0,0 0.1105,3.1279 -3.3114,3.1279 -3.4219,0 -3.5689,-3.0906 -3.5689,-3.0906 z m 3.5689,0.8458 c 0.8094,0 0.8094,-0.8831 0.8094,-0.8831 v -6.2916 c 0,0 -0.0366,-0.7362 -0.8094,-0.7362 -0.9565,0 -1.0304,0.7362 -1.0304,0.7362 v 6.2916 c 0,0 -0.0734,0.8831 1.0304,0.8831 0,0 -1.1038,0 0,0 z"
       style="fill:#ffffff;fill-rule:evenodd"
       id="path15" />
    <path
       d="m 95.899,87.38 h -2.2714 v 1.6588 c 0,0 0,2.4159 3.0287,2.4159 3.029,0 3.2454,-2.3078 3.2454,-2.3078 0,0 0.0722,-1.5506 0.0361,-1.8749 -0.0361,-0.3246 0.0179,-0.9557 -0.8654,-1.8392 -0.9919,-0.9917 -1.7669,-1.3699 -2.1997,-1.6587 -0.4325,-0.2883 -0.8293,-0.6489 -0.7934,-1.334 0.0361,-0.6852 0.505,-0.7933 0.8295,-0.7933 0.3245,0 0.7573,0.1804 0.7573,0.7574 0,0.5766 0.0359,0.9013 0.0359,0.9013 h 2.2719 c 0,0 0.5047,-3.7501 -3.137,-3.7501 -3.2454,0 -3.1371,2.8125 -3.1371,3.0289 0,0.2165 0,1.5864 0.3965,2.0553 0.3965,0.4688 0.9014,1.0457 1.9471,1.7669 1.0457,0.721 1.4783,1.1898 1.5866,1.5145 0.1081,0.3246 0.072,1.4062 -0.8654,1.4062 -0.8656,0 -0.8656,-0.7934 -0.8656,-1.0095 0,-0.2164 0,-0.9377 0,-0.9377 z"
       style="fill:#ffffff;fill-rule:evenodd"
       id="path16" />
    <path
       d="m 107.0904,82.2388 v 1.9871 h 3.091 v 2.3916 h -3.1278 v 2.4285 h 3.2746 v 2.3547 h -5.8134 V 79.8104 h 5.8505 v 2.4284 z"
       style="fill:#ffffff;fill-rule:evenodd"
       id="path17" />
    <path
       d="m 117.1559,86.8384 v 4.5256 h -2.5023 V 79.8104 h 4.1212 c 0,0 1.903,-0.1487 2.5388,1.8031 0.5154,1.5821 0.0925,2.6236 -0.0363,3.0538 -0.2214,0.736 -1.1413,1.0304 -1.1413,1.0304 0,0 1.1413,0.1839 1.2146,1.1407 0.0732,0.9565 0.1102,3.6794 0.1102,3.6794 0,0 0.1475,0.6624 0.3312,0.8094 0.1836,0.1471 -2.5025,0.0735 -2.5025,0.0735 0,0 -0.4043,-0.0735 -0.4043,-0.4414 0,-0.368 0,-3.3115 0,-3.3115 0,0 0,-0.8464 -0.8464,-0.8464 -0.8829,0 -0.8829,0.037 -0.8829,0.037 z m 1.1776,-2.0974 c 0.5147,0 0.5822,-0.5424 0.6251,-0.7359 0.0739,-0.3313 0.0368,-0.8076 0.0368,-1.1776 0,-0.5887 -0.5885,-0.7357 -0.7723,-0.8092 -0.1843,-0.0737 -0.9935,-0.0369 -0.9935,-0.0369 v 2.7596 c 0,0 0.5136,0 1.1039,0 0,0 -0.5903,0 0,0 z"
       style="fill:#ffffff;fill-rule:evenodd"
       id="path18" />
    <path
       d="m 101.1777,88.9196 h 1.583 v 2.3383 h -1.583 z"
       style="fill:#ffffff;fill-rule:evenodd"
       id="path19" />
    <path
       d="m 111.5202,88.9343 h 1.5832 v 2.3383 h -1.5832 z"
       style="fill:#ffffff;fill-rule:evenodd"
       id="path20" />
    <path
       d="m 122.8749,88.9196 h 1.5833 v 2.3383 h -1.5833 z"
       style="fill:#ffffff;fill-rule:evenodd"
       id="path21" />
    <path
       d="m 109.7769,134.0848 v -1.0671 h -2.2811 v 1.0671 c 0,0 -0.1841,3.0542 3.017,3.0542 3.2009,0 3.3855,-2.8701 3.3855,-3.0542 0,-0.1836 0.1099,-1.9498 -0.9199,-3.0169 -0.9266,-0.9595 -2.2815,-1.6189 -2.6128,-1.987 -0.331,-0.3682 -0.4414,-0.6991 -0.4414,-1.0672 0,-0.3681 0.1837,-0.8827 0.8095,-0.8827 0.6258,0 0.9199,0.4414 0.9199,0.6622 0,0.2205 0,0.9931 0,0.9931 h 2.281 v -0.9931 c 0,0 -0.11,-2.7964 -3.3113,-2.7964 -2.8701,0 -3.0541,2.7964 -3.0541,2.7964 0,0 -0.0206,1.7412 0.2944,2.2812 0.5149,0.883 1.6193,1.6189 2.0975,1.9134 0.4785,0.294 1.2139,0.8831 1.3984,1.2507 0.1837,0.3682 0.2204,0.405 0.2204,0.8463 0,0.4418 -0.2577,0.8468 -0.9566,0.8468 -0.8836,0 -0.8464,-0.8468 -0.8464,-0.8468 z"
       style="fill:#ffffff;fill-rule:evenodd"
       id="path22" />
    <path
       d="m 114.8913,134.0848 v -8.8676 h 2.6125 v 8.8676 c 0,0 -0.1289,0.8284 0.8283,0.8284 0.9567,0 0.8458,-0.8468 0.8458,-0.8468 v -8.8119 h 2.5208 v 8.8303 c 0,0 0.2205,3.2015 -3.3855,3.2015 -3.6055,0 -3.4219,-3.2015 -3.4219,-3.2015 z"
       style="fill:#ffffff;fill-rule:evenodd"
       id="path23" />
    <path
       d="m 122.8759,125.2545 h 2.5387 v 9.1248 h 3.0538 v 2.4284 h -5.5925 z"
       style="fill:#ffffff;fill-rule:evenodd"
       id="path24" />
    <path
       d="m 79.2445,105.7068 h 4.4891 v -2.4656 c 0,0 0.2946,-5.0407 -6.1079,-5.0407 -5.6294,0 -5.6662,5.0407 -5.6662,5.0407 v 10.4496 c 0,0 -0.2945,5.2986 5.6662,5.2986 6.7335,0 6.1815,-5.3349 6.1815,-5.3349 v -2.8701 h -4.4887 v 2.8701 c 0,0 0.1837,1.7657 -1.6928,1.7657 -1.3612,0 -1.3612,-1.5453 -1.3612,-1.7657 0,-0.2209 0,-10.4133 0,-10.4133 0,0 -0.0368,-1.5083 1.3612,-1.5083 1.5087,0 1.5823,1.5083 1.5823,1.5083 z"
       style="fill:#8f004d;fill-rule:evenodd"
       id="path25" />
    <path
       d="m 89.2896,118.4744 h -4.4152 l 4.0841,-19.8323 h 5.3721 l 3.8634,19.8323 h -4.4154 l -0.5152,-3.8268 H 89.805 Z m 2.3181,-16.0424 -1.2878,8.9046 h 2.4286 z"
       style="fill:#8f004d;fill-rule:evenodd"
       id="path26" />
    <path
       d="m 123.3426,118.4744 h -4.4151 l 4.0843,-19.8323 h 5.3722 l 3.8633,19.8323 h -4.4151 l -0.5154,-3.8268 h -3.4588 z m 2.3189,-16.0424 -1.288,8.9046 h 2.4284 z"
       style="fill:#8f004d;fill-rule:evenodd"
       id="path27" />
    <path
       d="m 102.7933,118.4744 h -4.2682 l 4.1945,-9.898 -3.9738,-9.9343 h 4.489 l 1.9503,6.1075 1.8763,-6.1075 h 4.5625 l -3.9369,9.9343 4.0473,9.898 h -4.5256 l -2.0236,-5.887 z"
       style="fill:#8f004d;fill-rule:evenodd"
       id="path28" />
    <path
       d="m 113.2797,98.6421 h 4.342 v 19.8323 h -4.342 z"
       style="fill:#8f004d;fill-rule:evenodd"
       id="path29" />
    <path
       d="m 136.7545,113.6545 v -1.7293 h -4.0101 v 1.7293 c 0,0 -0.4053,5.0772 5.4454,5.0772 5.8505,0 5.7764,-4.709 5.7764,-5.0772 0,-0.3682 0.0741,-2.1711 -0.2207,-3.2378 -0.294,-1.0672 -1.1405,-2.2079 -3.1273,-3.5328 -1.987,-1.3244 -3.0171,-1.7294 -3.3119,-2.3915 -0.2941,-0.6622 -0.257,-0.8095 -0.257,-1.2512 0,-0.4413 0.1102,-1.5451 1.3242,-1.5451 1.2144,0 1.6189,1.1774 1.6189,1.5451 0,0.3682 0,1.2144 0,1.2144 h 4.0479 v -1.2144 c 0,0 0,-5.151 -5.8505,-5.151 -4.8203,0 -5.2248,5.0041 -5.2248,5.151 0,0.1473 -0.1104,2.5392 0.6252,3.6427 0.736,1.104 1.7297,1.9502 2.5021,2.502 0.7727,0.5522 2.5759,1.5826 3.1277,2.3184 0.5517,0.7358 0.736,1.2139 0.7724,1.5084 0.037,0.2946 -0.0364,0.4418 -0.0364,0.4418 0,0 0.1104,1.7293 -1.7662,1.7293 -1.288,0 -1.4353,-1.7293 -1.4353,-1.7293 z"
       style="fill:#8f004d;fill-rule:evenodd"
       id="path30" />
  </g>
</svg>
