<?xml version="1.0" encoding="UTF-8" standalone="no"?>
<svg
   version="1.1"
   width="1.4101179in"
   height="1.3033487in"
   viewBox="0 0 101.52849 93.841104"
   id="svg60"
   sodipodi:docname="ass_chapecoense-sc.cdr"
   xmlns:inkscape="http://www.inkscape.org/namespaces/inkscape"
   xmlns:sodipodi="http://sodipodi.sourceforge.net/DTD/sodipodi-0.dtd"
   xmlns="http://www.w3.org/2000/svg"
   xmlns:svg="http://www.w3.org/2000/svg">
  <defs
     id="defs60" />
  <sodipodi:namedview
     id="namedview60"
     pagecolor="#ffffff"
     bordercolor="#000000"
     borderopacity="0.25"
     inkscape:showpageshadow="2"
     inkscape:pageopacity="0.0"
     inkscape:pagecheckerboard="0"
     inkscape:deskcolor="#d1d1d1"
     inkscape:document-units="in" />
  <g
     id="Layer1003"
     transform="translate(-57.235703,-70.655899)">
    <path
       d="m 108,70.6559 c -27.9915,0 -50.7643,22.7731 -50.7643,50.7646 0,15.872 7.2433,30.546 19.8724,40.2577 l 3.5801,2.7533 c 0,0 -0.3778,-8.2761 -0.4745,-10.4033 0.0299,-0.005 0.066,-0.0115 0.0984,-0.018 7.4693,6.3554 17.1352,10.2033 27.6879,10.2033 10.3173,0 19.7937,-3.671 27.1914,-9.774 -0.007,2.3682 -0.0288,10.0575 -0.0288,10.0575 l 3.3745,-2.5467 c 12.855,-9.7084 20.2271,-24.4808 20.2271,-40.5298 0,-27.9915 -22.7731,-50.7646 -50.7642,-50.7646 z"
       style="display:inline;fill:#008000;fill-rule:evenodd"
       id="path10" />
    <path
       d="m 93.9536,51.503 -0.7661,5.9295 -5.8773,1.1481 5.4172,2.6085 -0.6777,5.9449 4.1065,-4.3515 5.4455,2.4866 -2.8692,-5.2529 4.0384,-4.4555 -5.8723,1.1467 z"
       style="display:none;fill:#dfdb00;fill-rule:evenodd"
       id="path11" />
    <path
       d="m 122.0464,51.503 0.7669,5.9295 5.8769,1.1481 -5.4171,2.6085 0.6775,5.9449 -4.1068,-4.3515 -5.4451,2.4866 2.8689,-5.2529 -4.0381,-4.4555 5.8719,1.1467 z"
       style="display:none;fill:#dfdb00;fill-rule:evenodd"
       id="path12" />
    <path
       d="m 108,72.2291 c -27.1242,0 -49.191,22.0669 -49.191,49.1914 0,15.3787 7.0195,29.5988 19.2582,39.0106 l 0.8949,0.6883 c 0,0 -0.3458,-7.5796 -0.3826,-8.3859 0.2392,-0.0442 1.1008,-0.2064 2.1829,-0.408 7.5365,6.6503 17.1969,10.3147 27.2376,10.3147 9.8985,0 19.4536,-3.5726 26.9439,-10.0574 0.9088,0.1786 1.6183,0.3179 1.8247,0.3589 -0.001,0.7719 -0.0236,8.3891 -0.0236,8.3891 l 0.844,-0.6358 c 12.4574,-9.4086 19.602,-23.7237 19.602,-39.2745 0,-27.1245 -22.0668,-49.1914 -49.191,-49.1914 z"
       style="fill:#ffffff;fill-rule:evenodd"
       id="path13" />
    <path
       d="m 108,161.5914 c -9.5081,0 -18.6629,-3.376 -25.9127,-9.5134 2.3238,-0.4326 4.9218,-0.9177 4.9218,-0.9177 l -0.9451,-0.7162 c -9.1889,-6.9618 -14.459,-17.5404 -14.459,-29.0236 0,-20.0686 16.3268,-36.3954 36.395,-36.3954 20.0683,0 36.395,16.3268 36.395,36.3954 0,11.4472 -5.5081,22.3749 -14.7338,29.2301 l -0.9514,0.7063 c 0,0 2.6409,0.5195 4.9116,0.9669 -7.201,5.9784 -16.2523,9.2676 -25.6214,9.2676 z"
       style="display:inline;fill:#008000;fill-rule:evenodd"
       id="path14" />
    <path
       d="m 137.8004,159.1413 c 0.005,-1.6568 0.0204,-7.0617 0.0204,-7.0617 0,0 -5.1066,-1.0046 -6.6708,-1.311 8.9487,-7.083 14.2938,-17.9468 14.2938,-29.3481 0,-20.6472 -16.7972,-37.4443 -37.4438,-37.4443 -20.6467,0 -37.4439,16.7971 -37.4439,37.4443 0,11.4357 5.1164,21.9668 14.0149,29.1285 -1.5979,0.2983 -7.0806,1.3209 -7.0806,1.3209 0,0 0.2385,5.2295 0.3172,6.9535 -11.3977,-9.2086 -17.9498,-22.7502 -17.9498,-37.4029 0,-26.546 21.5965,-48.1425 48.1422,-48.1425 26.5457,0 48.1421,21.5965 48.1421,48.1425 0,14.8477 -6.6946,28.5106 -18.3417,37.7208 z"
       style="fill:#008000;fill-rule:evenodd"
       id="path15" />
    <path
       d="m 74.332,121.4205 c 0,18.5646 15.1034,33.668 33.668,33.668 18.5646,0 33.668,-15.1034 33.668,-33.668 0,-18.565 -15.1034,-33.6684 -33.668,-33.6684 -18.5646,0 -33.668,15.1034 -33.668,33.6684 z"
       style="display:inline;fill:#ffffff;fill-rule:evenodd"
       id="path16" />
    <path
       d="M 75.3808,121.4205 C 75.3808,103.434 90.0139,88.801 108,88.801 c 17.9861,0 32.6192,14.633 32.6192,32.6195 0,17.9861 -14.6331,32.6192 -32.6192,32.6192 -17.9861,0 -32.6192,-14.6331 -32.6192,-32.6192 z"
       style="fill:#008000;fill-opacity:1;fill-rule:evenodd"
       id="path17" />
    <path
       d="m 74.2755,149.6476 -0.0123,-0.0147 1.522,-2.3763 1.1144,1.3307 z m 3.7688,-1.5257 -1.6133,-1.9256 0.7955,-1.2357 -0.9926,-1.1849 -3.678,6.2111 1.0534,1.257 6.7773,-2.5106 -0.962,-1.1489 z"
       style="fill:#ffffff;fill-rule:evenodd"
       id="path18" />
    <path
       d="m 73.8084,143.7413 c 0.3191,-0.2049 0.8374,-0.7407 0.1934,-1.8027 -0.3491,-0.5769 -0.8752,-1.1324 -1.4914,-0.7588 -0.4539,0.2737 -0.3101,0.7867 -0.0828,1.4913 l 0.2328,0.7129 c 0.3511,1.0718 0.6907,2.1092 -0.5904,2.8844 -0.6486,0.3932 -2.003,0.7374 -3.1481,-1.1505 -1.0817,-1.7847 -0.2042,-2.9712 0.5047,-3.4104 l 0.7075,1.1668 c -0.2397,0.1902 -0.7969,0.6605 -0.1528,1.7224 0.2799,0.4622 0.7846,0.9112 1.3115,0.5917 0.454,-0.2754 0.3253,-0.708 0.2348,-0.985 l -0.5118,-1.6306 c -0.2868,-0.9128 -0.4048,-1.8388 0.6408,-2.473 1.7515,-1.062 2.9867,0.6293 3.2965,1.139 1.2877,2.1256 0.2848,3.2318 -0.4372,3.6693 z"
       style="fill:#ffffff;fill-rule:evenodd"
       id="path19" />
    <path
       d="m 70.9019,138.5036 c 0.3462,-0.1557 0.937,-0.6097 0.4556,-1.7552 -0.2605,-0.6211 -0.6994,-1.2487 -1.3638,-0.9701 -0.4893,0.2064 -0.4221,0.7341 -0.3004,1.4634 l 0.1254,0.7391 c 0.1901,1.1144 0.3744,2.1879 -1.0066,2.768 -0.6995,0.295 -2.09,0.4359 -2.9459,-1.5995 -0.808,-1.924 0.234,-2.9679 0.9996,-3.3006 l 0.529,1.2586 c -0.2651,0.1524 -0.8853,0.5375 -0.4044,1.6815 0.2094,0.4981 0.6429,1.016 1.2111,0.7768 0.4896,-0.2049 0.4254,-0.6506 0.3766,-0.9391 l -0.2671,-1.688 c -0.15,-0.944 -0.1312,-1.8781 0.9963,-2.3517 1.8883,-0.7932 2.8627,1.0587 3.0938,1.6093 0.9624,2.2911 -0.1922,3.2384 -0.9702,3.5661 z"
       style="fill:#ffffff;fill-rule:evenodd"
       id="path20" />
    <path
       d="m 67.4772,133.1004 c -1.8527,0.4458 -2.5668,-0.4933 -2.7471,-1.2389 -0.1803,-0.7474 0.0275,-1.9093 1.8797,-2.3567 1.8527,-0.4474 2.5672,0.4933 2.7471,1.239 0.1802,0.7472 -0.027,1.9092 -1.8797,2.3566 z m 0.3335,1.3815 c 3.1063,-0.7489 2.9282,-3.1449 2.7167,-4.02 -0.2109,-0.8751 -1.145,-3.0892 -4.2511,-2.3386 -3.106,0.7489 -2.9281,3.1449 -2.7167,4.02 0.2114,0.8752 1.1451,3.0892 4.2511,2.3386 z"
       style="fill:#ffffff;fill-rule:evenodd"
       id="path21" />
    <path
       d="m 64.6895,122.8413 c -0.3989,0.1426 -1.1495,0.4147 -1.0672,1.5864 0.0475,0.6818 0.5719,1.652 2.4918,1.5176 1.2201,-0.0853 2.2837,-0.6457 2.1993,-1.847 -0.0552,-0.785 -0.5383,-1.3012 -1.3823,-1.4143 l -0.0997,-1.4176 c 1.4956,0.1803 2.594,1.0718 2.7136,2.7746 0.1266,1.8059 -1.0026,3.1875 -3.3482,3.353 -2.3742,0.1655 -3.6807,-1.1209 -3.8036,-2.8696 -0.1426,-2.0338 1.1996,-2.9548 2.1968,-3.1007 z"
       style="fill:#ffffff;fill-rule:evenodd"
       id="path22" />
    <path
       d="m 69.3319,119.2196 -0.0541,1.4208 -6.8027,-0.2573 0.0541,-1.4225 z"
       style="fill:#ffffff;fill-rule:evenodd"
       id="path23" />
    <path
       d="m 64.4703,115.0143 0.0029,-0.0197 2.7869,-0.4437 -0.2524,1.7171 z m 3.6456,1.7994 0.3651,-2.4857 1.4516,-0.2278 0.2245,-1.5289 -7.0838,1.3847 -0.2385,1.6221 6.3832,3.3907 0.2175,-1.4815 z"
       style="fill:#ffffff;fill-rule:evenodd"
       id="path24" />
    <path
       d="m 67.0679,107.1853 c -0.4233,-0.0107 -1.2214,-0.0271 -1.5659,1.0964 -0.1999,0.653 -0.0593,1.747 1.781,2.3115 1.1692,0.3581 2.3628,0.2179 2.7156,-0.9333 0.2306,-0.7522 -0.0344,-1.4086 -0.7822,-1.8167 l 0.4167,-1.3593 c 1.3307,0.7047 2.0354,1.9322 1.5356,3.5645 -0.5306,1.7313 -2.0806,2.6146 -4.3291,1.9256 -2.275,-0.6965 -3.033,-2.3665 -2.5189,-4.0439 0.597,-1.9493 2.1806,-2.3271 3.1639,-2.105 z"
       style="fill:#ffffff;fill-rule:evenodd"
       id="path25" />
    <path
       d="m 68.5109,102.0328 0.0081,-0.0172 2.7885,0.4335 -0.7669,1.556 z m 2.9162,2.8327 1.1112,-2.2534 1.4515,0.2294 0.683,-1.3864 -7.1665,-0.8588 -0.7252,1.471 5.0328,5.1876 0.6621,-1.3438 z M 65.8928,99.473 c 0.1279,0.1056 0.2815,0.2868 0.1435,0.5678 -0.059,0.1189 -0.1516,0.2212 -0.4048,0.4555 -0.2528,0.2353 -0.3668,0.3376 -0.4635,0.5327 -0.1884,0.3827 -0.1274,0.7089 0.0141,0.98 0.1458,0.2615 0.3715,0.4474 0.5248,0.5647 l 0.2683,-0.5441 c -0.0852,-0.0632 -0.3155,-0.2819 -0.1687,-0.5802 0.0712,-0.1442 0.2486,-0.2893 0.4677,-0.5195 0.1267,-0.1278 0.3627,-0.3925 0.4549,-0.5794 0.3478,-0.7054 -0.3294,-1.2619 -0.5638,-1.4298 z"
       style="fill:#ffffff;fill-rule:evenodd"
       id="path26" />
    <path
       d="M 72.7136,98.3537 C 71.167,97.24 71.414,96.0856 71.8626,95.4619 c 0.4491,-0.6228 1.4652,-1.2226 3.0118,-0.1089 1.5467,1.1135 1.2996,2.2672 0.8509,2.8909 -0.449,0.6228 -1.4651,1.2233 -3.0117,0.1098 z m -0.8313,1.1537 c 2.5931,1.8673 4.2937,0.1712 4.8202,-0.5597 0.5261,-0.7317 1.5958,-2.8818 -0.9972,-4.7493 -2.5926,-1.8674 -4.2933,-0.1705 -4.8198,0.5604 -0.526,0.731 -1.5958,2.8811 0.9968,4.7486 z"
       style="fill:#ffffff;fill-rule:evenodd"
       id="path27" />
    <path
       d="m 80.4907,87.959 c -0.3556,-0.2291 -1.0288,-0.6585 -1.9076,0.1225 -0.5105,0.4535 -0.9596,1.4609 0.3192,2.8998 0.8124,0.9145 1.9043,1.4153 2.8044,0.6155 0.5884,-0.5228 0.7034,-1.2209 0.2766,-1.958 l 1.0632,-0.9448 c 0.7697,1.2947 0.7333,2.7094 -0.5425,3.8435 -1.3537,1.2029 -3.1372,1.1512 -4.699,-0.6064 -1.5805,-1.7793 -1.3589,-3.5997 -0.0479,-4.7649 1.5241,-1.3541 3.0728,-0.8526 3.7968,-0.152 z"
       style="fill:#ffffff;fill-rule:evenodd"
       id="path28" />
    <path
       d="m 84.4739,86.8868 1.6416,2.5742 -1.1987,0.7649 -3.6608,-5.74 1.1993,-0.7646 1.3864,2.1744 2.2386,-1.4274 -1.3868,-2.1748 1.1991,-0.7645 3.6605,5.7397 -1.199,0.7648 -1.6416,-2.5741 z"
       style="fill:#ffffff;fill-rule:evenodd"
       id="path29" />
    <path
       d="m 90.5888,81.0173 0.0171,-0.0078 1.8429,2.1375 -1.5929,0.6879 z m 0.3855,4.0475 2.3066,-0.9967 0.9566,1.1151 1.4189,-0.6129 -4.9026,-5.2979 -1.5056,0.6506 0.4724,7.212 1.3753,-0.594 z"
       style="fill:#ffffff;fill-rule:evenodd"
       id="path30" />
    <path
       d="m 96.3922,80.6695 -0.5018,-1.9368 1.0922,-0.283 c 0.8534,-0.2208 1.2803,-0.0475 1.447,0.5949 0.0764,0.2938 0.2664,1.028 -0.7616,1.2942 z m 0.295,1.1381 1.5786,-0.4092 c 1.7715,-0.4589 1.7118,-2.0498 1.5573,-2.6463 -0.3355,-1.2944 -1.3181,-1.9113 -2.5938,-1.5807 l -3.0105,0.7801 1.7076,6.5902 1.377,-0.3569 z"
       style="fill:#ffffff;fill-rule:evenodd"
       id="path31" />
    <path
       d="m 105.8319,77.0719 -3.5927,0.3818 0.1515,1.4237 3.3002,-0.3511 0.127,1.1976 -3.2997,0.351 0.1864,1.7536 3.7525,-0.399 0.1278,1.1971 -5.1389,0.5467 -0.7199,-6.7693 4.9779,-0.5297 z"
       style="fill:#ffffff;fill-rule:evenodd"
       id="path32" />
    <path
       d="m 111.7349,78.246 c -0.0942,-0.4125 -0.2754,-1.1901 -1.4496,-1.2467 -0.6818,-0.0323 -1.7076,0.3741 -1.7994,2.2965 -0.0589,1.2216 0.3722,2.3435 1.5741,2.4012 0.7866,0.0377 1.3569,-0.381 1.5676,-1.2065 l 1.4207,0.0684 c -0.3554,1.4634 -1.3708,2.4496 -3.0752,2.3676 -1.8092,-0.0864 -3.0481,-1.3704 -2.9351,-3.7192 0.1139,-2.3772 1.5455,-3.5235 3.2973,-3.4396 2.0363,0.098 2.7926,1.5389 2.8204,2.5464 z"
       style="fill:#ffffff;fill-rule:evenodd"
       id="path33" />
    <path
       d="m 115.174,79.8628 c 0.4056,-1.8617 1.5635,-2.0948 2.3132,-1.9314 0.7505,0.1635 1.706,0.8571 1.2995,2.7192 -0.4057,1.8622 -1.5626,2.0949 -2.3132,1.9314 -0.7506,-0.1635 -1.7052,-0.8571 -1.2995,-2.7192 z M 113.7843,79.56 c -0.6803,3.122 1.5527,4.0066 2.4328,4.1987 0.88,0.1917 3.2793,0.3166 3.9593,-2.8054 0.6811,-3.1219 -1.5528,-4.0064 -2.4327,-4.1982 -0.8802,-0.1921 -3.2785,-0.317 -3.9594,2.8049 z"
       style="fill:#ffffff;fill-rule:evenodd"
       id="path34" />
    <path
       d="m 126.6072,81.1074 -3.3603,-1.3253 -0.5254,1.3315 3.0867,1.2177 -0.4416,1.1201 -3.0875,-1.2176 -0.6466,1.6409 3.5103,1.3843 -0.4416,1.1202 -4.8074,-1.8958 2.4976,-6.3331 4.6576,1.8371 z"
       style="fill:#ffffff;fill-rule:evenodd"
       id="path35" />
    <path
       d="m 132.1883,82.8294 1.1454,0.6703 -3.4383,5.8756 -1.2273,-0.7182 0.0539,-5.5929 -0.0164,-0.0094 -2.4516,4.19 -1.1454,-0.6706 3.4382,-5.8756 1.2922,0.7567 -0.0616,5.4561 0.0164,0.0098 z"
       style="fill:#ffffff;fill-rule:evenodd"
       id="path36" />
    <path
       d="m 132.584,88.8214 c -0.2318,0.3003 -0.5385,0.9796 0.4252,1.7622 0.523,0.4249 1.2062,0.7714 1.6603,0.2118 0.3344,-0.4118 0.0269,-0.8452 -0.4254,-1.4319 l -0.4588,-0.5925 c -0.6924,-0.892 -1.3619,-1.7527 -0.417,-2.9159 0.4776,-0.5887 1.637,-1.3696 3.3521,0.0229 1.6192,1.3148 1.1931,2.727 0.6743,3.3809 l -1.0594,-0.8604 c 0.1613,-0.2596 0.527,-0.8906 -0.4367,-1.6736 -0.4195,-0.3408 -1.0455,-0.5924 -1.4341,-0.1139 -0.3351,0.4122 -0.068,0.7752 0.1106,1.0063 l 1.0318,1.3623 c 0.5776,0.7624 1.0012,1.5946 0.2302,2.5442 -1.2914,1.5897 -3.0237,0.4146 -3.4874,0.0386 -1.9289,-1.566 -1.3577,-2.9463 -0.826,-3.6014 z"
       style="fill:#ffffff;fill-rule:evenodd"
       id="path37" />
    <path
       d="m 142.371,93.338 -2.4441,-2.6594 -1.054,0.969 2.2452,2.4426 -0.8864,0.8154 -2.2452,-2.4435 -1.2989,1.1931 2.5533,2.7785 -0.8866,0.8145 -3.4965,-3.8045 5.0124,-4.6063 3.3875,3.6861 z"
       style="fill:#ffffff;fill-rule:evenodd"
       id="path38" />
    <path
       d="m 145.5094,97.7293 0.6965,1.1741 c 0.3097,0.5221 0.6598,1.4275 -1.0694,2.4533 -0.9618,0.5703 -2.164,0.8309 -2.754,-0.1638 l -0.7054,-1.1905 z m -5.5549,1.674 1.5037,2.5362 c 1.1465,1.9329 3.2522,1.356 4.5075,0.6112 1.1097,-0.6571 2.5477,-2.0616 1.3776,-4.0347 l -1.5331,-2.5854 z"
       style="fill:#ffffff;fill-rule:evenodd"
       id="path39" />
    <path
       d="m 150.1105,107.3328 -1.3456,-3.353 -1.3282,0.5333 1.2357,3.0803 -1.1177,0.4481 -1.2357,-3.08 -1.6363,0.6571 1.4052,3.5022 -1.1176,0.4481 -1.9249,-4.7952 6.3178,-2.536 1.865,4.6461 z"
       style="fill:#ffffff;fill-rule:evenodd"
       id="path40" />
    <path
       d="m 145.9322,113.5701 -0.2605,-1.3987 6.692,-1.2463 0.8875,4.7628 -1.1839,0.2212 -0.627,-3.3657 -1.51,0.2811 0.5488,2.9453 -1.1833,0.2213 -0.5488,-2.9454 z"
       style="fill:#ffffff;fill-rule:evenodd"
       id="path41" />
    <path
       d="m 149.1779,122.6102 c -1.7904,0.0673 -2.5983,-0.9849 -2.663,-2.6991 -0.0229,-0.626 0.0932,-1.5602 0.7432,-2.1911 0.4031,-0.3851 0.9472,-0.5474 1.629,-0.5932 l 4.51,-0.1689 0.0541,1.4504 -4.415,0.1655 c -0.9473,0.0361 -1.3438,0.5998 -1.3193,1.2635 0.037,0.9768 0.5254,1.357 1.3495,1.3259 l 4.4824,-0.1688 0.0539,1.4503 z"
       style="fill:#ffffff;fill-rule:evenodd"
       id="path42" />
    <path
       d="m 146.4199,126.3402 0.1532,-1.4143 5.571,0.6048 0.2222,-2.0453 1.1963,0.1295 -0.5972,5.5048 -1.1973,-0.1295 0.222,-2.0469 z"
       style="fill:#ffffff;fill-rule:evenodd"
       id="path43" />
    <path
       d="m 150.3301,134.8375 0.8915,-3.5005 -1.3882,-0.3523 -0.8185,3.2153 -1.1669,-0.2966 0.8185,-3.217 -1.7083,-0.4343 -0.9316,3.6562 -1.1669,-0.2966 1.275,-5.0066 6.5971,1.6781 -1.2348,4.8526 z"
       style="fill:#ffffff;fill-rule:evenodd"
       id="path44" />
    <path
       d="m 146.9097,136.5337 -0.7112,1.6667 c -0.2007,0.4704 -0.6111,0.8522 -1.1611,0.6162 -0.6358,-0.272 -0.7587,-0.7571 -0.4867,-1.393 l 0.6851,-1.6044 z m -2.218,-2.432 -1.1325,2.65 c -0.5481,1.2816 -0.4752,1.7158 -0.2793,2.2222 0.181,0.4688 0.5629,0.8801 1.0594,1.0915 0.6195,0.2639 1.3151,0.3245 1.9305,-0.3196 0.019,0.318 0.0558,0.9309 0.9538,1.3144 0.6457,0.277 1.7725,0.2933 2.4281,-1.2406 l 1.3003,-3.0433 z m 4.642,3.4678 -0.6409,1.5011 c -0.2532,0.5916 -0.5662,0.8915 -1.0808,0.672 -0.4972,-0.2131 -0.5228,-0.708 -0.3024,-1.2226 l 0.6555,-1.534 z"
       style="fill:#ffffff;fill-rule:evenodd"
       id="path45" />
    <path
       d="m 144.4828,142.5515 c 1.6035,1.0292 1.4192,2.1944 1.0044,2.8417 -0.4144,0.6457 -1.397,1.2996 -3.0014,0.2704 -1.6037,-1.0292 -1.4192,-2.1944 -1.0046,-2.84 0.4146,-0.6474 1.397,-1.3013 3.0016,-0.2721 z m 0.7677,-1.1964 c -2.6893,-1.7256 -4.297,0.0591 -4.7828,0.8179 -0.4869,0.7587 -1.4389,2.9629 1.2502,4.6886 2.6902,1.7241 4.297,-0.0606 4.783,-0.8194 0.4867,-0.7571 1.4389,-2.963 -1.2504,-4.6871 z"
       style="fill:#ffffff;fill-rule:evenodd"
       id="path46" />
    <path
       d="m 138.473,147.2484 -2.2386,2.5385 -0.9243,-0.8145 3.1786,-3.6054 5.1066,4.5019 -0.9407,1.0668 z"
       style="fill:#ffffff;fill-rule:evenodd"
       id="path47" />
    <path
       d="m 91.0242,153.4841 c 0.0651,-0.254 0.1857,-0.7342 -0.4453,-1.098 -0.3663,-0.2114 -1.0465,-0.2786 -1.642,0.7555 -0.3783,0.6555 -0.4589,1.3963 0.1875,1.7683 0.4221,0.2442 0.8551,0.1754 1.205,-0.2213 l 0.7632,0.4409 c -0.61,0.7063 -1.4491,0.962 -2.3648,0.4326 -0.9722,-0.5588 -1.291,-1.6175 -0.5638,-2.8794 0.7363,-1.2782 1.8495,-1.5044 2.791,-0.9619 1.0944,0.6309 1.1029,1.6404 0.8325,2.2025 z"
       style="fill:#ffffff;fill-rule:evenodd"
       id="path48" />
    <path
       d="m 92.7209,155.3786 -0.7486,1.7372 -0.8092,-0.3491 1.6688,-3.8726 0.8091,0.3475 -0.6321,1.4683 1.5105,0.6507 0.6323,-1.4668 0.8087,0.3475 -1.6688,3.8742 -0.8091,-0.3492 0.7485,-1.7371 z"
       style="fill:#ffffff;fill-rule:evenodd"
       id="path49" />
    <path
       d="m 97.8639,155.8391 0.0115,0.003 0.0232,1.747 -1.0298,-0.3065 z m -1.4287,2.0748 1.4914,0.4441 0.0102,0.9112 0.9173,0.2737 -0.2171,-4.4658 -0.9734,-0.2917 -2.6476,3.6119 0.8892,0.2655 z"
       style="fill:#ffffff;fill-rule:evenodd"
       id="path50" />
    <path
       d="m 100.8994,157.6435 0.2196,-1.2209 0.6879,0.1245 c 0.5375,0.0967 0.7329,0.3048 0.6601,0.7096 -0.0333,0.1852 -0.1168,0.6473 -0.7642,0.5309 z m -0.1291,0.7161 0.9943,0.1786 c 1.1157,0.2016 1.4943,-0.7095 1.5619,-1.0849 0.1471,-0.8161 -0.2462,-1.4175 -1.0496,-1.5618 l -1.8962,-0.3408 -0.7469,4.1495 0.867,0.1557 z"
       style="fill:#ffffff;fill-rule:evenodd"
       id="path51" />
    <path
       d="m 107.0511,157.1305 -2.232,-0.159 -0.0631,0.885 2.0502,0.1458 -0.0525,0.7441 -2.051,-0.1459 -0.077,1.0898 2.3312,0.1656 -0.0524,0.744 -3.1933,-0.2261 0.2996,-4.2069 3.0936,0.2196 z"
       style="fill:#ffffff;fill-rule:evenodd"
       id="path52" />
    <path
       d="m 110.436,157.6762 c -0.0801,-0.2507 -0.2335,-0.7194 -0.9618,-0.6916 -0.4221,0.0164 -1.0333,0.3229 -0.9866,1.5143 0.0295,0.7572 0.3555,1.4258 1.1004,1.3963 0.4875,-0.018 0.817,-0.3081 0.9023,-0.8276 l 0.8808,-0.0344 c -0.141,0.921 -0.7146,1.5847 -1.7709,1.6257 -1.1208,0.0443 -1.9542,-0.6818 -2.0115,-2.137 -0.0574,-1.4733 0.7645,-2.2583 1.8502,-2.2993 1.2618,-0.0508 1.8059,0.7981 1.8773,1.4192 z"
       style="fill:#ffffff;fill-rule:evenodd"
       id="path53" />
    <path
       d="m 112.6903,158.1908 c -0.1868,-1.1652 0.4277,-1.5618 0.8981,-1.6372 0.4694,-0.0753 1.1767,0.1082 1.3642,1.2751 0.1868,1.1652 -0.4276,1.5617 -0.8981,1.6371 -0.4694,0.0754 -1.1766,-0.1098 -1.3642,-1.275 z m -0.8693,0.1393 c 0.3128,1.9551 1.8009,1.96 2.3525,1.8716 0.5506,-0.0886 1.9623,-0.5589 1.6486,-2.5124 -0.313,-1.9551 -1.8011,-1.96 -2.3525,-1.8715 -0.5506,0.0885 -1.9625,0.5588 -1.6486,2.5123 z"
       style="fill:#ffffff;fill-rule:evenodd"
       id="path54" />
    <path
       d="m 121.934,156.6028 c 0.0984,0.2147 0.3828,0.5785 1.0891,0.2737 0.3835,-0.1655 0.7702,-0.4408 0.5942,-0.8506 -0.1304,-0.3015 -0.4565,-0.2573 -0.9089,-0.1786 l -0.4572,0.082 c -0.6883,0.1245 -1.353,0.2441 -1.72,-0.6081 -0.185,-0.4326 -0.281,-1.293 0.9767,-1.8338 1.1865,-0.5113 1.8397,0.1294 2.0485,0.6014 l -0.7768,0.3343 c -0.0957,-0.1638 -0.3367,-0.5457 -1.0437,-0.2409 -0.3074,0.1328 -0.6253,0.4032 -0.4745,0.7539 0.1303,0.3015 0.4064,0.2606 0.5841,0.2278 l 1.0441,-0.1737 c 0.5842,-0.0983 1.1627,-0.0918 1.4626,0.6047 0.5015,1.1652 -0.6417,1.7782 -0.9817,1.9257 -1.4136,0.608 -2.0068,-0.1033 -2.2133,-0.5835 z"
       style="fill:#ffffff;fill-rule:evenodd"
       id="path55" />
    <path
       d="m 126.5868,152.5614 c -0.1868,-0.1835 -0.5393,-0.5309 -1.1727,-0.1704 -0.3671,0.2098 -0.7686,0.7621 -0.1786,1.7995 0.3753,0.6571 0.9726,1.1012 1.6208,0.7325 0.4235,-0.2426 0.5834,-0.6506 0.4196,-1.1521 l 0.7653,-0.4359 c 0.2999,0.8833 0.0967,1.7372 -0.8218,2.2599 -0.9753,0.5556 -2.0494,0.295 -2.7705,-0.9702 -0.7293,-1.2816 -0.3615,-2.3566 0.5825,-2.8941 1.0972,-0.6244 1.9717,-0.123 2.3206,0.3949 z"
       style="fill:#ffffff;fill-rule:evenodd"
       id="path56" />
    <path
       d="m 107.2626,131.7434 c -0.6637,0 -2.3427,-4.5444 -3.1814,-5.3835 -0.839,-0.8391 -0.5244,-1.6782 -0.5244,-2.0272 0,-0.3507 0.8747,-0.6654 0.6645,-1.7142 -0.2098,-1.0489 -1.538,-0.6982 -2.0977,-1.7831 -0.5596,-1.0833 -1.6782,-1.783 -2.3251,-2.8499 -0.6469,-1.0653 -0.6469,-2.9187 -1.1713,-3.8975 -0.5244,-0.9783 -1.3983,-2.132 -1.3983,-3.1809 0,-1.0489 0.3146,-1.5045 0.9439,-1.8535 0.6293,-0.3491 1.1366,-0.2098 1.1366,-0.8564 0,-0.6464 -0.9968,-1.1364 -1.6261,-1.1364 -0.6293,0 -0.804,0.49 -1.4333,0.49 -0.6293,0 -0.5244,-0.8391 -2.2726,-0.8391 -0.8739,0 -2.2021,1.5733 -2.8668,1.5733 -0.6644,0 -2.0632,-0.3844 -2.2377,0.2097 -0.1746,0.594 0.9091,0.2098 0.9091,1.0489 0,0.8391 -0.5597,2.0616 -1.2237,3.2859 -0.6642,1.2241 -0.2619,3.2336 -0.6642,3.6368 -0.4024,0.4015 -0.9087,0.9079 -1.0837,1.5028 -0.1749,0.5949 -0.2274,1.6601 -0.5596,1.9928 -0.3323,0.3311 -0.8735,0.5949 -1.0137,1.1882 -0.14,0.5948 0.2795,1.1537 0.0698,1.8879 -0.2098,0.7342 -0.2447,1.5389 -0.5245,1.8191 -0.2798,0.2786 -0.9088,0.8735 -0.9088,1.293 0,0.4196 -0.0352,1.7486 -0.2449,2.3419 -0.2098,0.5949 -1.119,1.9584 -1.6782,2.8319 -0.5593,0.8751 -1.0137,1.2947 -1.3983,1.2947 -0.3847,0 -1.5733,1.2586 -0.3147,1.2586 1.2586,0 6.2582,0 6.9224,0 0.6642,0 1.5036,-1.2947 0.5944,-1.2947 -0.909,0 -1.7133,-0.4884 -2.0628,-1.1177 -0.3495,-0.6293 0.4544,-1.0488 0.4544,-1.3635 0,-0.3146 0.1049,-1.5749 0.6293,-1.7486 0,0 9.6498,0 10.4188,0 0.769,0 1.3979,0.4196 1.5381,0.944 0.14,0.5244 0.14,1.1537 0.14,1.7126 0,0.5604 -0.49,0.4899 -0.8742,0.8751 -0.3844,0.3835 -1.8532,1.5372 0,1.5372 1.8531,0 4.9296,0 5.3142,0 0.3847,0 0.9088,-0.5589 1.5733,-0.5589 0.6646,0 0.944,0.5245 1.888,0.5245 0.9439,0 2.0625,0 2.2722,-1.0833 0.1262,-0.6522 -1.1193,-0.5605 -1.783,-0.5605 z m -20.2862,-9.4921 c -0.5507,0 -0.5507,-0.6555 -0.5507,-0.7865 0,-0.1312 0.1836,-0.5901 0.5507,-0.5901 0.367,0 0.472,-0.5899 0.7342,-0.5899 0.3146,0 0.0295,0.4949 0.3146,0.708 0.2164,0.1622 0.1442,0.6161 -0.1836,0.6555 -0.3277,0.0393 -0.3146,0.603 -0.8652,0.603 z m 9.6231,3.5498 H 87.999 c -0.4196,0 0.2097,-1.5045 0.2097,-1.888 0,-0.3851 0.4371,-1.3471 0.9789,-1.8879 0.5415,-0.5424 0.2449,-1.5044 0.4195,-2.1681 0.1744,-0.6654 0.472,-1.2407 0.7694,-1.5389 0.2975,-0.2967 0.4019,-2.0109 0.9088,-3.1105 0.5068,-1.1009 1.783,-1.1894 1.783,-0.3851 0,0.803 1.5036,3.7758 1.7482,4.5444 0.2446,0.7703 0,2.4484 0.3146,3.3219 0.3147,0.8735 0.7867,1.1357 1.4684,1.8175 0.6818,0.6818 0,1.2947 0,1.2947 z m 2.8844,-3.2875 c -0.2098,0 -0.472,0.3015 -0.9964,0.1835 -0.5245,-0.1179 -0.3671,-0.603 -0.3671,-0.9308 0,-0.3278 -0.3278,-0.5375 -0.0393,-1.1275 0.2884,-0.59 0.6862,-0.1131 0.9439,0.1442 0.3081,0.3081 0.3933,0.0393 0.6686,0.2098 0.1688,0.1048 0.0979,0.2392 0.1574,0.5031 0.0377,0.1671 0.2818,0.5031 0.2818,0.644 0,0.3671 -0.4392,0.3737 -0.6489,0.3737 z"
       style="fill:#ffffff;fill-rule:evenodd"
       id="path57" />
    <path
       d="m 136.1058,110.3827 c 0,-1.1882 0.2098,-1.5733 0.3852,-2.2379 0.1753,-0.6645 -0.5949,-0.9087 -0.7998,-0.3449 -0.2048,0.5638 -0.7735,0.7735 -1.1677,0.7735 -0.3941,0 -0.3056,-0.3057 -1.2324,-0.3057 -0.9267,0 -0.9258,-0.9267 -3.5832,-0.9267 -2.6575,0 -2.2026,0.944 -3.4259,0.944 -1.2235,0 -1.3988,-0.8744 -2.5173,-0.8744 -1.1185,0 -1.3283,0.839 -2.3771,0.839 -1.0489,0 -1.0489,-0.8562 -1.6258,-0.8562 -0.5768,0 -0.367,0.3672 -1.2061,0.6114 -0.8391,0.2441 -1.0498,0.8037 -0.6998,1.1537 0.3499,0.3497 1.1537,0.6997 1.1537,1.923 0,1.2235 0.5244,3.4261 0.5244,4.4408 0,1.0145 -0.2793,1.6421 -0.2793,2.7615 0,1.1176 -0.7342,1.7486 -0.7342,2.3779 0,0.6293 0.6645,1.1537 0.6645,1.747 0,0.5949 -0.1049,6.2242 -0.1049,6.9585 0,0.9439 -0.14,1.2225 -0.4204,1.6765 -0.2384,0.3867 0.036,0.4555 -0.5587,1.0504 -0.5951,0.5933 -0.9613,0.1918 -1.3818,0.6114 -0.4202,0.4211 0.5951,0.5948 0.7525,0.7521 0.1573,0.1574 0,0.5589 0.8037,0.5589 0.8038,0 1.9928,-1.0488 2.727,-1.0488 0.7342,0 0.8391,0.7685 1.7135,0.7685 0.8743,0 0.6989,-0.349 2.2721,-0.349 1.5733,0 2.1331,0.7342 2.9024,0.7342 0.7693,0 1.1882,-0.0705 1.8528,-1.2587 0.6645,-1.1897 -0.3671,-1.2061 -0.5244,-0.6997 -0.1574,0.508 -0.7695,0.4195 -1.1891,0.4195 -0.4195,0 -1.0832,-0.1393 -1.2586,-0.1393 -0.1754,0 -0.8038,-0.4195 -0.8038,-0.6998 0,-0.2786 -0.367,-0.7866 -0.699,-1.1176 -0.332,-0.3327 -0.2803,-1.0489 -0.2803,-2.0977 0,-1.0489 -0.3146,-1.3635 -0.3146,-1.9929 0,-0.6293 0.3146,-1.0488 0.3146,-1.9239 0,-0.8735 -0.209,-1.434 0.2098,-1.8519 0.4188,-0.4196 0.5244,-0.944 0.9793,-0.944 0.4547,0 0.8218,0.3671 1.084,0.6293 0.2622,0.2623 0.8564,0.4016 1.1882,0.7342 0.3317,0.3311 -0.3842,0.5244 0.2097,1.6782 0.594,1.1537 1.2586,0.2786 1.2586,-0.2802 0,-0.5605 0.35,-0.8736 0.35,-1.2587 0,-0.3851 -0.2795,-0.3146 -0.2795,-1.2586 0,-0.944 0.5588,-1.0488 0.5588,-1.6077 0,-0.5588 -0.594,-0.6998 -0.594,-1.2242 0,-0.5244 0.0352,-0.2802 0.0352,-1.1537 0,-0.8751 -0.0533,-1.6257 -0.4547,-2.0272 -0.4017,-0.4032 -1.2586,-0.4556 -1.2586,0.2442 0,0.6981 0.2449,1.2241 0.2449,1.6437 0,0.4195 -0.2449,0.8391 -0.9439,1.2225 -0.6991,0.3852 -0.4196,0.7703 -1.3291,0.7703 -0.9096,0 -0.9784,-0.2458 -1.1882,-0.8391 -0.2097,-0.5949 -0.14,-2.2386 -0.14,-4.2314 0,-1.9924 0.3147,-2.8315 0.3147,-3.4959 0,-0.6647 0.5595,-1.0138 1.2937,-1.1882 0.7342,-0.1746 0.9088,-0.8047 1.8174,-0.8047 0.9087,0 1.5389,0.245 2.238,0.5245 0.6988,0.2793 1.4862,0.7513 1.4862,0.7513 0,0 0,0 0.192,0.1927 0.1915,0.1924 0.8742,0.8741 0.8742,1.4683 0,0.594 0.3843,1.2586 0.6293,2.273 0.2449,1.0148 -0.2632,1.1361 -0.9791,1.8523 -0.7164,0.7161 -0.1747,1.0848 0.2793,1.0848 0.4539,0 0,0.454 1.5389,-0.3851 1.5388,-0.839 2.2025,-2.4824 2.2025,-3.6712 0,-1.1891 -0.6998,-1.888 -0.6998,-3.0761 z m -13.7923,10.6281 c -0.2622,0 -0.5416,-0.0344 -0.6293,-0.3147 -0.0878,-0.2802 -0.3491,-0.3146 -0.3491,-1.0144 0,-0.2786 0.136,-0.4589 0.2122,-0.6834 0.1139,-0.3376 0.2074,-0.6621 0.4171,-0.6621 0.1885,0 0.3114,0.2835 0.4828,0.4835 0.1456,0.1704 0.3776,0.2327 0.3776,0.5768 0,0.7162 0.2695,0.6555 0.4851,1.003 0.3146,0.5064 -0.7342,0.6113 -0.9964,0.6113 z"
       style="fill:#ffffff;fill-rule:evenodd"
       id="path58" />
    <path
       d="m 115.9148,133.7526 c -0.1484,-0.1589 -0.2688,-0.3556 -0.3212,-0.6096 -0.0164,-0.0819 -0.0248,-0.1622 -0.0248,-0.2426 v -0.002 c -0.0663,-0.3343 -0.0525,-0.7358 0.1091,-1.3323 0.1508,-0.5572 -0.7235,-0.8014 -0.7235,-1.1161 0,-0.3147 -0.4017,-1.4864 -1.2235,-2.3075 -0.8217,-0.8227 -0.4638,-0.9013 -0.8217,-1.2586 -0.3582,-0.3589 -1.8355,-0.3491 -0.8916,0.5949 0.944,0.944 0.2441,1.1521 0.6989,1.6077 0.4549,0.4539 0.5598,1.0128 0.5598,1.6782 0,0.6637 0.3146,0.7686 0.3146,1.8174 0,1.1898 -0.35,1.8191 -0.6293,2.4484 -0.2795,0.6293 -0.6646,1.7831 -1.1537,1.7831 -0.4893,0 -0.5942,0.7342 -1.8528,0.7342 -1.2586,0 -1.8887,-0.2803 -2.5877,-1.3291 -0.558,-0.8375 -1.8805,-1.3258 -2.3975,-2.2862 -0.0328,-0.0115 -0.0632,-0.0213 -0.0845,-0.0213 -0.1106,0 -0.3244,0.1163 -0.4957,0.2082 l -1.0776,0.3507 h -3.1109 c -0.0941,0.095 -0.1905,0.1917 -0.2802,0.2802 -0.3322,0.3327 -0.7342,0.6293 -0.7342,1.1881 0,0.5605 0.6991,0.6654 0.9088,1.2587 0.2098,0.5949 2.4471,3.5316 3.4263,3.8118 0.9792,0.2786 0.5236,0.7687 3.2162,0.7687 2.6926,0 3.2858,-0.944 4.51,-0.944 1.2243,0 1.888,-0.0344 2.0282,0.49 0.14,0.5244 0.7684,0.767 0.7684,1.1521 0,0.3851 0.2098,1.3291 0.9097,0.631 0.6996,-0.6998 0.7685,-1.3291 1.2586,-1.8192 0.4898,-0.4899 0.263,-4.977 0.4898,-5.9079 0.2272,-0.9325 -0.4668,-1.0177 -0.788,-1.6274 z"
       style="fill:#ffffff;fill-rule:evenodd"
       id="path59" />
    <path
       d="m 115.6886,102.6907 c 0,-0.839 -0.5941,-1.5379 -0.8391,-2.1672 -0.2451,-0.6293 0.2277,-2.6755 -0.1048,-3.0072 -0.3329,-0.332 -0.8744,-0.7687 -0.8744,-1.1882 0,-0.4195 -1.0833,-1.3291 -1.3979,0.3842 -0.3147,1.7135 0.1736,1.2242 -0.4901,1.5037 -0.6637,0.2793 -0.839,1.0833 -1.433,1.0833 -0.5942,0 -1.1891,-0.2786 -2.0281,-0.0344 -0.8391,0.2442 -1.7487,0.594 -2.6222,0.594 -0.8734,0 -2.6217,0.5597 -3.3559,1.2939 -0.7342,0.7342 -0.7346,1.6773 -1.2937,2.237 -0.5594,0.5596 -0.629,0.9086 -0.804,1.084 -0.1749,0.1753 -0.5944,0.35 -0.5944,1.0488 0,0.2435 -0.0144,0.7499 -0.1016,1.339 0.3621,0.3532 0.6091,0.8013 0.6091,1.3356 0,1.2006 -0.9488,1.5103 -1.3052,1.6266 l -0.3713,0.1466 c -0.2524,0.1402 -0.4038,0.2245 -0.4038,0.9367 0,0.517 0.449,1.2724 0.8447,1.9395 l 0.4286,0.7456 c 0.317,0.5916 0.4678,1.3352 0.613,2.0547 0.1376,0.6785 0.2802,1.3815 0.5309,1.7945 0.2426,0.3999 0.5973,0.7653 0.9735,1.1521 0.4666,0.4802 0.9427,0.98 1.3035,1.6224 0.7814,-0.1508 1.5361,-0.472 1.7033,-0.8489 0.2794,-0.6293 0.6989,-1.0488 0.6989,-1.5028 0,-0.4539 -0.7694,-1.2586 -1.0136,-1.9928 -0.2446,-0.7342 -0.4544,-3.1117 -0.4544,-5.3143 0,-2.2026 0.5249,-4.6156 0.8043,-5.2794 0.2794,-0.6637 2.3427,-3.6358 4.3003,-3.6358 1.9576,0 1.6781,1.293 2.3771,1.643 0.6989,0.3498 1.7133,1.1898 1.7133,2.5877 0,1.398 -0.7702,3.6005 -2.0633,4.0552 -1.2929,0.4549 -1.642,1.434 -0.0343,1.6086 1.6076,0.1744 2.2714,-1.1193 3.2858,-1.8535 1.0144,-0.7342 0.6122,-1.5906 0.9793,-1.9577 0.3671,-0.3671 0.4195,-1.1193 0.4195,-1.7133 0,-0.5941 -0.4892,-1.0488 -0.4892,-1.5732 0,-0.5245 0.4892,-0.9089 0.4892,-1.748 z"
       style="fill:#ffffff;fill-rule:evenodd"
       id="path60" />
  </g>
</svg>
