<?xml version="1.0" encoding="UTF-8" standalone="no"?>
<svg
   version="1.1"
   width="3in"
   height="3in"
   viewBox="0 0 216 216"
   id="svg18"
   sodipodi:docname="ad_bahia-ba.cdr"
   xmlns:inkscape="http://www.inkscape.org/namespaces/inkscape"
   xmlns:sodipodi="http://sodipodi.sourceforge.net/DTD/sodipodi-0.dtd"
   xmlns="http://www.w3.org/2000/svg"
   xmlns:svg="http://www.w3.org/2000/svg">
  <defs
     id="defs18" />
  <sodipodi:namedview
     id="namedview18"
     pagecolor="#ffffff"
     bordercolor="#000000"
     borderopacity="0.25"
     inkscape:showpageshadow="2"
     inkscape:pageopacity="0.0"
     inkscape:pagecheckerboard="0"
     inkscape:deskcolor="#d1d1d1"
     inkscape:document-units="in" />
  <g
     id="Layer1003">
    <path
       d="m 39.0039,39.1059 v 55.9522 l 70.0213,81.836 67.971,-81.8496 V 39.1059 Z"
       style="fill:#142c75;fill-rule:evenodd"
       id="path10" />
    <path
       d="m 173.8035,42.2986 c 0,2.9727 0,50.4991 0,51.5934 -0.7149,0.8616 -62.496,75.2575 -64.8156,78.0491 -2.3601,-2.7583 -66.0463,-77.1917 -66.7915,-78.0626 0,-1.1182 0,-48.6082 0,-51.5799 3.0804,0 128.5279,0 131.6071,0 z"
       style="fill:#ffffff;fill-rule:evenodd"
       id="path11" />
    <path
       d="M 96.4421,149.4081 V 91.9621 H 46.7203 Z"
       style="fill:#ff0000;fill-rule:evenodd"
       id="path12" />
    <path
       d="m 119.7679,149.2002 0.0458,-57.2381 h 49.467 z"
       style="fill:#142c75;fill-rule:evenodd"
       id="path13" />
    <path
       d="M 169.2807,86.055 V 48.557 H 46.7203 v 37.498 z"
       style="fill:#142c75;fill-rule:evenodd"
       id="path14" />
    <g
       id="Layer1004">
      <path
         d="m 63.0177,70.3801 3.9305,-9.9103 4.1092,9.9103 z M 70.0389,54.2842 H 63.8398 L 52.5483,80.9555 h 6.2771 l 2.3996,-6.0527 h 11.7082 l 2.5098,6.0527 h 6.3041 z"
         style="fill:#ffffff;fill-rule:evenodd"
         id="path15" />
      <path
         d="m 93.3524,58.807 c 2.3933,0 4.0001,0.0862 4.82,0.2567 1.0975,0.212 2.0026,0.6277 2.7176,1.2471 0.714,0.6193 1.2689,1.4799 1.6659,2.5815 0.397,1.1016 0.5956,2.6802 0.5956,4.7379 0,2.0577 -0.1986,3.6831 -0.5956,4.8762 -0.397,1.193 -0.9094,2.0504 -1.537,2.5711 -0.6288,0.5216 -1.4186,0.8875 -2.3706,1.0984 -0.7275,0.1715 -1.9112,0.2567 -3.551,0.2567 H 90.7137 V 58.807 Z m -8.4917,22.1485 h 11.0327 c 2.1658,0 3.895,-0.185 5.19,-0.556 1.7292,-0.502 3.1021,-1.2097 4.1195,-2.1232 1.3469,-1.2034 2.383,-2.7779 3.1095,-4.7234 0.5945,-1.5869 0.8916,-3.4783 0.8916,-5.6754 0,-2.5003 -0.3169,-4.6039 -0.9509,-6.3102 -0.634,-1.7065 -1.5589,-3.1479 -2.7738,-4.3254 -1.2148,-1.1774 -2.674,-1.9985 -4.3762,-2.462 -1.2679,-0.3305 -3.1104,-0.4957 -5.5267,-0.4957 H 84.8607 Z"
         style="fill:#ff0000;fill-rule:evenodd"
         id="path16" />
      <path
         d="m 123.4135,58.807 c 2.7696,0 4.4459,0.0333 5.03,0.0987 0.9811,0.105 1.7199,0.4136 2.2166,0.925 0.497,0.5113 0.7464,1.1806 0.7464,2.0067 0,0.8523 -0.2891,1.5413 -0.8659,2.0661 -0.5768,0.5248 -1.3685,0.8398 -2.3756,0.9437 -0.5569,0.0528 -1.9819,0.0788 -4.2743,0.0788 h -3.8578 v -6.119 z m -9.2337,22.1485 h 9.8915 c 3.7404,-0.0125 6.0994,-0.0718 7.0773,-0.1777 1.5589,-0.158 2.8704,-0.5758 3.9347,-1.2534 1.0641,-0.6776 1.9028,-1.5879 2.5181,-2.7332 0.6141,-1.1442 0.9218,-2.3154 0.9218,-3.5127 0,-1.5391 -0.4749,-2.8745 -1.4237,-4.0062 -0.9488,-1.1307 -2.3062,-1.9342 -4.0718,-2.408 1.2594,-0.5321 2.2583,-1.3208 2.994,-2.3664 0.7358,-1.0444 1.1047,-2.1991 1.1047,-3.4648 0,-1.1578 -0.2983,-2.2022 -0.8937,-3.1344 -0.5955,-0.9311 -1.3395,-1.6805 -2.2333,-2.2458 -0.8937,-0.5654 -1.9061,-0.9353 -3.0367,-1.1089 -1.1318,-0.1724 -2.8487,-0.2598 -5.1507,-0.2598 h -11.6322 z m 10.6015,-11.5066 c 2.6749,0 4.4135,0.1269 5.2149,0.3783 0.8012,0.2526 1.4144,0.6505 1.8383,1.1931 0.4242,0.5435 0.6361,1.2097 0.6361,1.9984 0,0.9187 -0.2754,1.6555 -0.8251,2.2115 -0.5498,0.556 -1.2617,0.9052 -2.1356,1.0476 -0.5697,0.104 -1.9144,0.1548 -4.0335,0.1548 h -5.4435 v -6.9837 z"
         style="fill:#ffffff;fill-rule:evenodd"
         id="path17" />
      <path
         d="M 143.4991,80.9555 V 54.2842 h 19.9535 v 4.5228 h -14.1004 v 6.3186 h 12.1717 v 4.5229 h -12.1717 v 11.307 z"
         style="fill:#ff0000;fill-rule:evenodd"
         id="path18" />
    </g>
  </g>
</svg>
