<?xml version="1.0" encoding="UTF-8" standalone="no"?>
<svg
   version="1.1"
   width="1.683593in"
   height="1.3476819in"
   viewBox="0 0 121.2187 97.033095"
   id="svg22"
   sodipodi:docname="aa_corisabba_pi.cdr"
   xmlns:inkscape="http://www.inkscape.org/namespaces/inkscape"
   xmlns:sodipodi="http://sodipodi.sourceforge.net/DTD/sodipodi-0.dtd"
   xmlns="http://www.w3.org/2000/svg"
   xmlns:svg="http://www.w3.org/2000/svg">
  <defs
     id="defs22" />
  <sodipodi:namedview
     id="namedview22"
     pagecolor="#ffffff"
     bordercolor="#000000"
     borderopacity="0.25"
     inkscape:showpageshadow="2"
     inkscape:pageopacity="0.0"
     inkscape:pagecheckerboard="0"
     inkscape:deskcolor="#d1d1d1"
     inkscape:document-units="in" />
  <g
     id="Layer1003"
     transform="translate(-47.390697,-59.483604)">
    <path
       d="M 168.5902,94.4501 H 144.3865 C 143.6181,75.04 127.5962,59.4836 108.0001,59.4836 88.4047,59.4836 72.3815,75.04 71.6132,94.4501 H 47.409 c -0.0109,0.4848 -0.0183,0.9698 -0.0183,1.4569 0,33.4203 27.1894,60.6097 60.6094,60.6097 33.4202,0 60.6093,-27.1894 60.6093,-60.6097 0,-0.4871 -0.007,-0.9721 -0.0192,-1.4569 z"
       style="fill:#1b1918;fill-rule:evenodd"
       id="path10" />
    <path
       d="m 74.4901,95.907 c 0,-18.4772 15.0324,-33.5095 33.51,-33.5095 18.4772,0 33.51,15.0323 33.51,33.5095 0,18.4786 -15.0328,33.5103 -33.51,33.5103 -18.4776,0 -33.51,-15.0317 -33.51,-33.5103 z"
       style="fill:#ffffff;fill-rule:evenodd"
       id="path11" />
    <path
       d="m 108.0001,68.0796 c -15.3446,0 -27.8278,12.4839 -27.8278,27.8274 0,3.7941 0.7655,7.4114 2.1455,10.7088 h 5.4779 c -1.3329,-2.5041 -2.2076,-5.2859 -2.5275,-8.2317 h 20.2552 v 8.2317 h 4.9537 v -8.2317 h 20.2549 c -0.321,2.9458 -1.1951,5.7276 -2.528,8.2317 h 5.4783 c 1.3796,-3.2974 2.1456,-6.9147 2.1456,-10.7088 0,-15.3435 -12.4841,-27.8274 -27.8278,-27.8274 z m -2.4767,25.3506 H 85.262 c 1.1508,-10.637 9.6238,-19.1075 20.2614,-20.2586 z m 4.9537,0 V 73.1716 c 10.6369,1.1511 19.1099,9.6216 20.2606,20.2586 z"
       style="fill:#1b1918;fill-rule:evenodd"
       id="path12" />
    <path
       d="m 144.3865,97.3642 c -0.0802,2.0244 -0.3353,4.0032 -0.7343,5.9303 l 1.4969,2.4671 -0.7661,2.5964 -1.7301,-1.28 c -4.7266,14.6338 -18.4653,25.2532 -34.6528,25.2532 -19.5954,0 -35.6186,-15.5565 -36.3869,-34.967 H 50.3229 c 0.7757,31.1436 26.3516,56.2385 57.6772,56.2385 31.3258,0 56.9011,-25.0949 57.6773,-56.2385 z"
       style="fill:#ffffff;fill-rule:evenodd"
       id="path13" />
    <path
       d="m 62.2041,117.02 -0.1442,0.0415 c -1.5586,0.4502 -2.9569,0.1862 -4.1941,-0.7911 -1.2379,-0.9765 -2.1721,-2.56 -2.8039,-4.7482 -0.6829,-2.3669 -0.5548,-4.3885 0.3851,-6.0638 0.9391,-1.6762 2.6062,-2.8593 5.0014,-3.5502 2.6411,-0.7627 4.8433,-0.6847 6.6058,0.2339 1.7624,0.9179 3.0067,2.6326 3.7312,5.1443 0.6019,2.0858 0.6412,3.816 0.1181,5.1891 -0.523,1.374 -1.5861,2.3283 -3.1888,2.8655 l -1.2387,-4.2922 c 0.6204,-0.2243 1.0466,-0.6169 1.2791,-1.1782 0.2328,-0.5611 0.2411,-1.2155 0.0254,-1.9628 -0.2952,-1.0221 -0.9446,-1.6739 -1.949,-1.9562 -1.0042,-0.2828 -2.3414,-0.1826 -4.0108,0.2988 -1.5464,0.4463 -2.6346,1.0483 -3.264,1.8058 -0.6298,0.7577 -0.794,1.6579 -0.4932,2.7006 0.2177,0.7541 0.5822,1.3026 1.0944,1.6453 0.512,0.3428 1.1101,0.4372 1.796,0.2845 z"
       style="fill:#1b1918;fill-rule:evenodd"
       id="path14" />
    <path
       d="m 65.9328,118.4377 c 2.0241,-1.5788 4.0343,-2.2486 6.0305,-2.0078 1.9959,0.2401 3.7778,1.3642 5.3452,3.3736 1.5627,2.004 2.217,4.0033 1.9637,5.9981 -0.2532,1.9941 -1.3921,3.7812 -3.4162,5.3599 -2.0189,1.5743 -4.0307,2.2447 -6.0356,2.0114 -2.0046,-0.2339 -3.788,-1.3528 -5.3505,-3.3562 -1.5628,-2.0039 -2.2146,-4.0072 -1.955,-6.011 0.2595,-2.0039 1.399,-3.7931 3.4179,-5.368 z m 2.7939,3.549 c -1.2809,0.9988 -2.0618,1.9845 -2.3415,2.9572 -0.2799,0.9737 -0.058,1.9237 0.6651,2.8508 0.7187,0.9218 1.5816,1.3625 2.5892,1.3222 1.0073,-0.04 2.1519,-0.5596 3.4327,-1.5585 1.2862,-1.0028 2.071,-1.9884 2.3559,-2.956 0.284,-0.9669 0.0671,-1.9116 -0.6517,-2.8331 -0.723,-0.9276 -1.5921,-1.3727 -2.6071,-1.3358 -1.015,0.0365 -2.1625,0.5545 -3.4426,1.5532 z"
       style="fill:#1b1918;fill-rule:evenodd"
       id="path15" />
    <path
       d="m 73.6465,139.2296 8.3467,-13.4252 6.0672,3.7722 c 1.6595,1.0318 2.7294,2.0978 3.2092,3.1974 0.4801,1.0988 0.3669,2.2167 -0.34,3.3538 -0.5791,0.9311 -1.3181,1.5087 -2.2178,1.7336 -0.8999,0.2247 -1.8961,0.0899 -2.9894,-0.4059 l -0.0453,0.0734 c 0.7442,0.4628 1.2316,0.979 1.4616,1.548 0.2293,0.5685 0.2213,1.2669 -0.024,2.0933 -0.0683,0.2453 -0.3531,0.9356 -0.8537,2.0722 -0.5008,1.136 -0.8838,2.1745 -1.1496,3.1154 l -4.0046,-2.4899 c 0.2894,-0.7234 0.6476,-1.5367 1.0748,-2.4405 0.4271,-0.9038 0.6829,-1.4642 0.7684,-1.6818 0.2167,-0.5657 0.2535,-1.0408 0.1095,-1.4255 -0.144,-0.3854 -0.5012,-0.7554 -1.0715,-1.1098 l -1.4297,-0.8891 -3.2307,5.1968 z m 8.4505,-5.383 1.4663,0.9119 c 0.8441,0.5246 1.5112,0.7677 2.002,0.7289 0.4911,-0.0379 0.9288,-0.366 1.3123,-0.9827 0.3501,-0.563 0.4321,-1.0712 0.2476,-1.5258 -0.1846,-0.4543 -0.6715,-0.9272 -1.4608,-1.4178 l -1.5481,-0.9624 z"
       style="fill:#1b1918;fill-rule:evenodd"
       id="path16" />
    <path
       d="m 89.4519,147.6651 4.7359,-15.0818 4.1702,1.3096 -4.7362,15.0818 z"
       style="fill:#1b1918;fill-rule:evenodd"
       id="path17" />
    <path
       d="m 102.6535,145.5183 -0.006,0.1064 c -0.0375,0.712 0.1414,1.2829 0.5381,1.7137 0.3968,0.4314 0.9527,0.6654 1.6675,0.7033 0.8504,0.0446 1.4991,-0.0652 1.9465,-0.3312 0.4479,-0.2657 0.6869,-0.68 0.7166,-1.2428 0.0426,-0.8049 -0.8463,-1.4842 -2.6667,-2.0381 -0.4234,-0.1292 -0.7481,-0.2282 -0.9738,-0.2977 -2.0522,-0.6653 -3.4236,-1.3665 -4.1136,-2.1035 -0.6906,-0.7358 -1.0019,-1.7353 -0.9353,-2.9969 0.0728,-1.3819 0.7346,-2.4757 1.9853,-3.2816 1.2507,-0.8059 2.8712,-1.1565 4.8612,-1.0511 2.1103,0.1115 3.6834,0.5832 4.7192,1.4154 1.0358,0.8325 1.5139,2.0105 1.4335,3.5325 l -0.0143,0.2634 -4.3781,-0.2309 0.004,-0.0741 c 0.0338,-0.6397 -0.1103,-1.1366 -0.4324,-1.4883 -0.3221,-0.3522 -0.8081,-0.5457 -1.4584,-0.5798 -0.6365,-0.0337 -1.1552,0.088 -1.5568,0.366 -0.4021,0.277 -0.6155,0.6561 -0.6409,1.1381 -0.0414,0.7864 1.0772,1.5145 3.3568,2.1814 0.6073,0.1748 1.0796,0.3164 1.4182,0.4269 1.4239,0.4547 2.4553,1.062 3.0933,1.8218 0.6374,0.7597 0.9253,1.7251 0.8639,2.8946 -0.0856,1.6128 -0.7711,2.816 -2.0575,3.6099 -1.2868,0.7944 -3.1068,1.1292 -5.4595,1.0051 -2.1391,-0.1128 -3.7446,-0.6545 -4.8154,-1.6265 -1.0708,-0.9722 -1.56,-2.3272 -1.4683,-4.067 z"
       style="fill:#1b1918;fill-rule:evenodd"
       id="path18" />
    <path
       d="m 114.2565,151.1908 1.6442,-16.8665 5.1295,-1.4275 10.2447,13.5577 -4.7163,1.3123 -1.8827,-2.6896 -5.986,1.6658 -0.2224,3.276 z m 8.5767,-8.7389 -3.6976,-5.8131 -0.3482,6.9393 z"
       style="fill:#1b1918;fill-rule:evenodd"
       id="path19" />
    <path
       d="m 134.1513,144.6345 -9.0429,-12.9663 4.8525,-3.3842 c 1.9514,-1.3613 3.5833,-2.0949 4.8939,-2.2024 1.31,-0.1065 2.3629,0.4086 3.1564,1.5463 0.5293,0.7592 0.7324,1.5389 0.6105,2.3402 -0.1222,0.8015 -0.5689,1.6312 -1.3407,2.49 1.2013,-0.5493 2.2418,-0.7434 3.12,-0.5822 0.8786,0.161 1.6237,0.6794 2.2348,1.556 0.8292,1.1882 1.0296,2.3709 0.6016,3.5485 -0.4286,1.1769 -1.4917,2.3573 -3.1898,3.5415 z m -1.9311,-10.155 1.3864,-0.9669 c 0.7724,-0.5384 1.2544,-1.0507 1.4464,-1.5354 0.1917,-0.4849 0.1132,-0.979 -0.237,-1.4808 -0.334,-0.4788 -0.7711,-0.707 -1.3128,-0.6854 -0.5408,0.0222 -1.1804,0.2898 -1.9174,0.8037 l -1.3866,0.9669 z m 3.7506,5.3777 1.3864,-0.9669 c 0.872,-0.6084 1.4143,-1.1725 1.626,-1.692 0.2122,-0.5197 0.1211,-1.0626 -0.2738,-1.6284 -0.3653,-0.5239 -0.8349,-0.7728 -1.4075,-0.7455 -0.5724,0.0273 -1.2838,0.3369 -2.1323,0.9289 l -1.3864,0.9669 z"
       style="fill:#1b1918;fill-rule:evenodd"
       id="path20" />
    <path
       d="m 148.8996,133.1092 -12.8331,-9.2308 3.4539,-4.8023 c 1.3898,-1.9314 2.6851,-3.1653 3.8859,-3.7014 1.2011,-0.5355 2.3642,-0.399 3.4912,0.4113 0.7511,0.5402 1.2013,1.2084 1.3523,2.0047 0.1501,0.7967 0.005,1.7277 -0.4382,2.7938 0.9509,-0.917 1.8676,-1.445 2.7498,-1.5851 0.8823,-0.1395 1.7569,0.1026 2.6248,0.7261 1.1765,0.8464 1.7574,1.8958 1.7445,3.1479 -0.0131,1.2526 -0.6245,2.7194 -1.8332,4.3999 z m -5.1908,-8.9388 0.9867,-1.3721 c 0.5497,-0.7643 0.8344,-1.4069 0.8543,-1.9276 0.0204,-0.5214 -0.218,-0.9614 -0.7149,-1.3188 -0.4734,-0.3407 -0.9623,-0.4107 -1.4661,-0.2111 -0.5024,0.2005 -1.0174,0.6654 -1.5416,1.3945 l -0.987,1.3721 z m 5.3223,3.8285 0.9868,-1.372 c 0.621,-0.8635 0.9447,-1.575 0.9726,-2.136 0.0273,-0.5607 -0.239,-1.0422 -0.799,-1.445 -0.5185,-0.3734 -1.0443,-0.4519 -1.5747,-0.2363 -0.531,0.2165 -1.0995,0.7438 -1.7035,1.5841 l -0.9874,1.372 z"
       style="fill:#1b1918;fill-rule:evenodd"
       id="path21" />
    <path
       d="m 161.7983,107.7046 1.3858,-4.6957 -16.9263,1.5045 -1.5071,5.1068 13.4325,10.332 1.2373,-4.1921 -2.6602,-1.9249 1.7592,-5.9594 z m -7.6708,4.3708 -5.6997,-3.9725 6.8886,-0.0552 z"
       style="fill:#1b1918;fill-rule:evenodd"
       id="path22" />
  </g>
</svg>
