<?xml version="1.0" encoding="UTF-8" standalone="no"?>
<svg
   version="1.1"
   width="1.901317in"
   height="1.2762141in"
   viewBox="0 0 136.89482 91.887417"
   id="svg31"
   sodipodi:docname="criciuma.svg"
   inkscape:version="1.3.1 (91b66b0783, 2023-11-16)"
   xmlns:inkscape="http://www.inkscape.org/namespaces/inkscape"
   xmlns:sodipodi="http://sodipodi.sourceforge.net/DTD/sodipodi-0.dtd"
   xmlns="http://www.w3.org/2000/svg"
   xmlns:svg="http://www.w3.org/2000/svg">
  <defs
     id="defs31" />
  <sodipodi:namedview
     id="namedview31"
     pagecolor="#ffffff"
     bordercolor="#000000"
     borderopacity="0.25"
     inkscape:showpageshadow="2"
     inkscape:pageopacity="0.0"
     inkscape:pagecheckerboard="0"
     inkscape:deskcolor="#d1d1d1"
     inkscape:document-units="in"
     inkscape:zoom="1.7673611"
     inkscape:cx="143.71709"
     inkscape:cy="144"
     inkscape:window-width="1366"
     inkscape:window-height="705"
     inkscape:window-x="-8"
     inkscape:window-y="-8"
     inkscape:window-maximized="1"
     inkscape:current-layer="svg31" />
  <g
     id="Layer1003"
     inkscape:export-filename="criciuma.svg"
     inkscape:export-xdpi="112.83374"
     inkscape:export-ydpi="112.83374"
     transform="translate(-41.331882,-63.249828)">
    <path
       d="m 108.90681,88.185454 v 41.980196 l 40.1795,-43.995496 -19.5538,-20.4114 z"
       style="fill:#ffd503;fill-opacity:1;fill-rule:evenodd"
       id="path10" />
    <path
       d="m 129.54494,64.14083 -20.9258,22.7526 v 45.3531 l 42.8717,-46.9437 -21.1265,-22.053 z m 0.8532,2.4295 c 1.4743,1.5389 16.6795,17.411 17.9811,18.7697 -1.3133,1.4383 -33.9824,37.2099 -37.4871,41.0474 0,-5.0117 0,-37.8012 0,-38.6076 0.5583,-0.6081 18.0177,-19.5913 19.506,-21.2095 z"
       style="fill:#1b1918;fill-rule:evenodd"
       id="path11" />
    <path
       d="m 112.57793,132.38026 h 40.6941 l 20.3261,-22.4268 -19.5537,-20.411308 z"
       style="fill:#ffd605;fill-opacity:1;fill-rule:evenodd"
       id="path12" />
    <path
       d="m 152.33489,87.873563 -43.3312,44.765007 h 43.8791 l 21.3753,-23.5849 -21.1026,-22.027807 z m 0.8119,2.4285 c 1.4407,1.5038 16.7068,17.439007 18.0049,18.794707 -1.301,1.436 -18.6446,20.5727 -19.2763,21.2689 -0.9166,0 -32.8912,0 -37.5086,0 3.3315,-3.442 37.2754,-38.508907 38.78,-40.063607 z"
       style="display:inline;fill:#1b1918;fill-rule:evenodd"
       id="path13" />
    <path
       d="m 105.43754,88.185454 v 41.980196 l -40.222503,-43.995496 19.511,-20.4114 z"
       style="fill:#ffd605;fill-opacity:1;fill-rule:evenodd"
       id="path14" />
    <path
       d="m 84.328799,64.124831 -20.2449,21.1794 42.914401,46.939999 V 86.892331 l -21.833701,-23.6416 z m 0.8074,2.4446 c 1.4906,1.6142 19.027301,20.6029 19.589101,21.2116 0,0.809 0,33.600399 0,38.608699 -3.5045,-3.8328 -36.216601,-39.613999 -37.530401,-41.051199 1.299,-1.3589 16.47,-17.2301 17.9413,-18.7691 z"
       style="fill:#1b1918;fill-rule:evenodd"
       id="path15" />
    <path
       d="m 103.05516,132.54823 h -40.7369 l -20.2828,-22.4268 19.5538,-20.411294 z"
       style="fill:#ffd605;fill-opacity:1;fill-rule:evenodd"
       id="path16" />
    <path
       d="m 61.617283,88.075409 -20.2854,21.175101 21.3306,23.5855 H 106.58538 L 62.433583,87.223309 Z m 0.825,2.4241 c 1.5046,1.5547 35.4487,36.621601 38.780097,40.063601 -4.617897,0 -36.632497,0 -37.550797,0 -0.6311,-0.6979 -17.9366,-19.8324 -19.2351,-21.2684 1.297,-1.354 16.5652,-17.291201 18.0058,-18.795201 z"
       style="fill:#1b1918;fill-rule:evenodd"
       id="path17" />
    <g
       id="Layer1004"
       transform="translate(3.6218075,-9.8192534)"
       style="fill:#1b1918;fill-opacity:1;stroke:#000000;stroke-width:1.008;stroke-dasharray:none;stroke-opacity:1">
      <path
         d="m 125.9877,149.2731 h -1.072 l -5.4886,14.7938 h 2.0583 l 1.5867,-4.4598 h 2.9156 2.9162 l 1.5866,4.4598 h 2.1869 l -5.5317,-14.7938 z m 0,8.6189 h -2.3154 l 2.3154,-6.4751 0.043,-0.0424 2.273,6.5175 z"
         style="fill:#1b1918;fill-opacity:1;fill-rule:evenodd;stroke:#000000;stroke-width:1.008;stroke-dasharray:none;stroke-opacity:1"
         id="path18" />
      <path
         d="m 166.8534,161.537 c -0.7717,0.7717 -1.7582,1.1579 -2.9587,1.1579 -1.415,0 -2.573,-0.5578 -3.4303,-1.6727 -0.8579,-1.0719 -1.2865,-2.53 -1.2865,-4.3737 0,-1.8867 0.3862,-3.3873 1.2435,-4.4598 0.8148,-0.9864 1.9728,-1.5436 3.4733,-1.5436 1.1575,0 2.0584,0.3002 2.7441,0.8148 0.7294,0.4717 1.1579,1.2436 1.3726,2.2299 h 1.9728 c -0.1721,-1.5011 -0.8154,-2.6585 -1.8867,-3.5164 -1.0725,-0.8579 -2.4446,-1.2865 -4.1167,-1.2865 -2.1019,0 -3.7735,0.6863 -5.017,2.0153 -1.244,1.3296 -1.8873,3.1733 -1.8873,5.5323 0,2.487 0.6008,4.4592 1.8013,5.9173 1.2004,1.4151 2.8301,2.1007 4.8885,2.1007 1.8437,0 3.3017,-0.5141 4.4592,-1.5866 1.1579,-1.0713 1.7587,-2.53 1.8443,-4.3307 h -1.9723 c -0.0431,1.2436 -0.4292,2.2299 -1.2441,3.0018 z"
         style="fill:#1b1918;fill-opacity:1;fill-rule:evenodd;stroke:#000000;stroke-width:1.008;stroke-dasharray:none;stroke-opacity:1"
         id="path19" />
      <path
         d="m 172.042,161.7946 v 2.2723 h 2.0589 v -2.2723 z"
         style="fill:#1b1918;fill-opacity:1;fill-rule:evenodd;stroke:#000000;stroke-width:1.008;stroke-dasharray:none;stroke-opacity:1"
         id="path20" />
      <path
         d="m 141.8541,157.2057 h 7.9331 v -1.7146 h -7.9331 v -4.3743 h 8.5763 v -1.8437 h -10.5923 v 14.7938 h 10.7633 v -1.8443 h -8.7473 z"
         style="fill:#1b1918;fill-opacity:1;fill-rule:evenodd;stroke:#000000;stroke-width:1.008;stroke-dasharray:none;stroke-opacity:1"
         id="path21" />
      <path
         d="m 152.9174,164.0669 h 2.0577 v -2.2723 h -2.0577 z"
         style="fill:#1b1918;fill-opacity:1;fill-rule:evenodd;stroke:#000000;stroke-width:1.008;stroke-dasharray:none;stroke-opacity:1"
         id="path22" />
      <path
         d="m 98.9301,144.4277 h -2.0153 l -2.0583,3.5158 h 1.2007 z"
         style="fill:#1b1918;fill-opacity:1;fill-rule:evenodd;stroke:#000000;stroke-width:1.008;stroke-dasharray:none;stroke-opacity:1"
         id="path23" />
      <path
         d="m 64.9683,163.0805 c -0.1284,-0.257 -0.1715,-0.6426 -0.2143,-1.1579 l -0.1715,-2.444 c -0.0859,-0.9003 -0.2143,-1.5866 -0.4717,-1.9297 -0.2143,-0.3857 -0.6433,-0.6864 -1.2435,-0.8574 0.686,-0.3001 1.2004,-0.7293 1.5436,-1.3295 0.3431,-0.5572 0.5144,-1.2435 0.5144,-2.0584 0,-0.8148 -0.1713,-1.5435 -0.4717,-2.1013 -0.3428,-0.6002 -0.8145,-1.0713 -1.4578,-1.4145 -0.3431,-0.2146 -0.729,-0.3431 -1.1577,-0.4292 -0.4289,-0.0431 -1.1149,-0.0855 -2.0583,-0.0855 h -0.3431 -5.4029 v 14.7938 h 1.9725 v -6.3465 h 3.2588 c 0.043,0 0.0858,0 0.1716,0 1.3292,0 2.1868,0.1285 2.53,0.4287 0.3431,0.3001 0.5574,0.9433 0.6002,1.9297 l 0.1288,1.9299 c 0,0 0,0.0429 0,0.0861 0.0858,0.9857 0.2143,1.6721 0.386,1.9721 H 65.44 v -0.4286 c -0.2143,-0.0861 -0.3858,-0.3001 -0.4717,-0.5578 z m -2.8731,-7.7185 c -0.5145,0.4292 -1.4151,0.6432 -2.6585,0.6432 h -3.4304 v -5.017 h 3.4304 c 1.2865,0 2.1868,0.2141 2.7016,0.5572 0.4717,0.3002 0.729,0.9434 0.729,1.8013 0,0.9434 -0.2573,1.629 -0.7721,2.0153 z"
         style="fill:#1b1918;fill-opacity:1;fill-rule:evenodd;stroke:#000000;stroke-width:1.008;stroke-dasharray:none;stroke-opacity:1"
         id="path24" />
      <path
         d="m 67.1553,164.0669 h 2.0155 v -14.7938 h -2.0155 z"
         style="fill:#1b1918;fill-opacity:1;fill-rule:evenodd;stroke:#000000;stroke-width:1.008;stroke-dasharray:none;stroke-opacity:1"
         id="path25" />
      <path
         d="m 111.8371,160.5505 c -0.0861,0.2146 -0.1286,0.3862 -0.171,0.5578 -0.0861,0.214 -0.1291,0.4287 -0.1721,0.6863 -0.0431,-0.1291 -0.0855,-0.3001 -0.1286,-0.4723 -0.0424,-0.1709 -0.1285,-0.4286 -0.2146,-0.7718 l -3.6873,-11.2774 h -2.8732 v 14.7938 h 1.844 v -12.607 c 0.0428,0.2147 0.0858,0.4287 0.1285,0.6433 0.0859,0.2146 0.1288,0.4287 0.2147,0.6003 l 3.7301,11.3634 h 1.8867 l 3.8165,-11.3634 c 0.0861,-0.2147 0.1291,-0.4288 0.2147,-0.6433 0.043,-0.2146 0.0854,-0.4287 0.1284,-0.6003 v 12.607 h 1.9729 v -14.7938 h -2.8732 z"
         style="fill:#1b1918;fill-opacity:1;fill-rule:evenodd;stroke:#000000;stroke-width:1.008;stroke-dasharray:none;stroke-opacity:1"
         id="path26" />
      <path
         d="m 80.9202,161.537 c -0.7721,0.7717 -1.7582,1.1579 -3.0017,1.1579 -1.4151,0 -2.573,-0.5578 -3.4306,-1.6727 -0.8576,-1.0719 -1.2862,-2.53 -1.2862,-4.3737 0,-1.8867 0.4286,-3.3873 1.2434,-4.4598 0.8146,-0.9864 2.0153,-1.5436 3.5162,-1.5436 1.1149,0 2.0156,0.3002 2.7443,0.8148 0.6863,0.4717 1.1579,1.2436 1.3292,2.2299 h 1.9726 c -0.1713,-1.5011 -0.7718,-2.6585 -1.8437,-3.5164 -1.0722,-0.8579 -2.4442,-1.2865 -4.1167,-1.2865 -2.1441,0 -3.8165,0.6863 -5.0599,2.0153 -1.2436,1.3296 -1.8438,3.1733 -1.8438,5.5323 0,2.487 0.6002,4.4592 1.7579,5.9173 1.2008,1.4151 2.8302,2.1007 4.9315,2.1007 1.801,0 3.3019,-0.5141 4.4168,-1.5866 1.1577,-1.0713 1.801,-2.53 1.8867,-4.3307 h -1.9725 c -0.0431,1.2436 -0.4717,2.2299 -1.2435,3.0018 z"
         style="fill:#1b1918;fill-opacity:1;fill-rule:evenodd;stroke:#000000;stroke-width:1.008;stroke-dasharray:none;stroke-opacity:1"
         id="path27" />
      <path
         d="m 100.0878,158.4492 c 0,1.3725 -0.3429,2.402 -0.9434,3.0453 -0.643,0.6857 -1.5867,1.0288 -2.8728,1.0288 -1.2866,0 -2.2299,-0.3431 -2.8732,-0.9863 -0.6002,-0.6858 -0.9004,-1.7153 -0.9004,-3.0878 v -9.1761 h -2.0156 v 9.1336 c 0,2.0153 0.4717,3.5589 1.3724,4.5453 0.9434,1.0294 2.3157,1.5005 4.2024,1.5005 1.9722,0 3.4734,-0.4711 4.5022,-1.5005 1.0292,-1.0294 1.544,-2.53 1.544,-4.5453 v -9.1336 h -2.0156 z"
         style="fill:#1b1918;fill-opacity:1;fill-rule:evenodd;stroke:#000000;stroke-width:1.008;stroke-dasharray:none;stroke-opacity:1"
         id="path28" />
      <path
         d="m 85.9371,164.0669 h 2.0154 v -14.7938 h -2.0154 z"
         style="fill:#1b1918;fill-opacity:1;fill-rule:evenodd;stroke:#000000;stroke-width:1.008;stroke-dasharray:none;stroke-opacity:1"
         id="path29" />
      <path
         d="m 49.0596,161.537 c -0.7718,0.7717 -1.7582,1.1579 -3.0017,1.1579 -1.4151,0 -2.5731,-0.5578 -3.4307,-1.6727 -0.8576,-1.0719 -1.2862,-2.53 -1.2862,-4.3737 0,-1.8867 0.4286,-3.3873 1.2434,-4.4598 0.815,-0.9864 2.0154,-1.5436 3.5162,-1.5436 1.115,0 2.0156,0.3002 2.7443,0.8148 0.6864,0.4717 1.158,1.2436 1.3296,2.2299 h 1.9726 c -0.1716,-1.5011 -0.7721,-2.6585 -1.8441,-3.5164 -1.0718,-0.8579 -2.4442,-1.2865 -4.1165,-1.2865 -2.1442,0 -3.8164,0.6863 -5.0601,2.0153 -1.2435,1.3296 -1.8437,3.1733 -1.8437,5.5323 0,2.487 0.6002,4.4592 1.7582,5.9173 1.2004,1.4151 2.8301,2.1007 4.9311,2.1007 1.801,0 3.3019,-0.5141 4.4169,-1.5866 1.1577,-1.0713 1.7582,-2.53 1.8439,-4.3307 H 50.303 c -0.0427,1.2436 -0.4717,2.2299 -1.2434,3.0018 z"
         style="fill:#1b1918;fill-opacity:1;fill-rule:evenodd;stroke:#000000;stroke-width:1.008;stroke-dasharray:none;stroke-opacity:1"
         id="path30" />
    </g>
  </g>
</svg>
