<?xml version="1.0" encoding="UTF-8" standalone="no"?>
<svg
   version="1.1"
   width="1.7528764in"
   height="1.7528737in"
   viewBox="0 0 126.2071 126.2069"
   id="svg14"
   sodipodi:docname="cruzeiro.cdr"
   xmlns:inkscape="http://www.inkscape.org/namespaces/inkscape"
   xmlns:sodipodi="http://sodipodi.sourceforge.net/DTD/sodipodi-0.dtd"
   xmlns="http://www.w3.org/2000/svg"
   xmlns:svg="http://www.w3.org/2000/svg">
  <defs
     id="defs14" />
  <sodipodi:namedview
     id="namedview14"
     pagecolor="#ffffff"
     bordercolor="#000000"
     borderopacity="0.25"
     inkscape:showpageshadow="2"
     inkscape:pageopacity="0.0"
     inkscape:pagecheckerboard="0"
     inkscape:deskcolor="#d1d1d1"
     inkscape:document-units="in" />
  <g
     id="Layer1003"
     transform="translate(-44.896297,-44.8965)">
    <path
       d="m 108,44.8965 c 34.756,0 63.1034,28.3474 63.1034,63.1035 0,34.7564 -28.3474,63.1034 -63.1034,63.1034 -34.7563,0 -63.1037,-28.347 -63.1037,-63.1034 0,-34.7561 28.3474,-63.1035 63.1037,-63.1035 z"
       style="fill:#005589;fill-rule:evenodd"
       id="path10" />
    <path
       d="m 108,46.7425 c 33.7395,0 61.2576,27.5181 61.2576,61.2575 0,33.7395 -27.5181,61.2578 -61.2576,61.2578 -33.7396,0 -61.258,-27.5183 -61.258,-61.2578 0,-33.7394 27.5184,-61.2575 61.258,-61.2575 z"
       style="fill:#ffffff;fill-rule:evenodd"
       id="path11" />
    <path
       d="m 108,64.5857 c 23.9118,0 43.4141,19.5027 43.4141,43.4142 0,23.9118 -19.5023,43.4144 -43.4141,43.4144 -23.9118,0 -43.4145,-19.5026 -43.4145,-43.4144 0,-23.9115 19.5027,-43.4142 43.4145,-43.4142 z"
       style="fill:#005589;fill-rule:evenodd"
       id="path12" />
    <path
       d="m 50.0035,99.6751 12.0496,1.0541 -0.9398,10.7403 -2.5972,-0.2272 0.5868,-6.7063 -1.9196,-0.168 -0.5426,6.2004 -2.5663,-0.2246 0.5429,-6.2002 -2.3361,-0.2043 -0.6089,6.959 -2.6307,-0.2297 z m 4.2849,18.1159 -0.0306,0.007 -0.3343,0.0448 c -0.4539,0.105 -0.7468,0.3771 -0.8831,0.8223 -0.1369,0.4433 -0.1092,1.0766 0.0801,1.8967 0.145,0.6279 0.3499,1.0955 0.6155,1.4051 0.2653,0.3093 0.5575,0.4268 0.8764,0.3533 0.4787,-0.1104 0.7117,-0.9012 0.6973,-2.3736 l -0.0052,-0.3865 -0.0023,-0.4111 c -0.0342,-2.3316 0.1635,-3.8832 0.5903,-4.6561 0.1969,-0.3604 0.4704,-0.6692 0.8195,-0.9305 0.1739,-0.1242 0.357,-0.2267 0.5504,-0.3124 0.1942,-0.0834 0.4189,-0.1549 0.6745,-0.2139 1.1518,-0.2659 2.1491,0.0426 2.999,0.9233 0.8478,0.882 1.5002,2.3081 1.9548,4.2778 0.45,1.9494 0.4994,3.459 0.1444,4.5254 -0.3529,1.0663 -1.1228,1.7351 -2.3029,2.0078 l -0.1371,0.0312 -0.8504,-3.6837 0.0554,-0.0125 c 0.3986,-0.0922 0.6625,-0.349 0.7894,-0.7707 0.0632,-0.2105 0.0907,-0.4559 0.0825,-0.7343 -0.0082,-0.2781 -0.0559,-0.6052 -0.1418,-0.9775 -0.1303,-0.5644 -0.304,-0.9812 -0.5188,-1.2483 -0.2168,-0.2667 -0.4659,-0.3666 -0.7479,-0.3013 -0.485,0.1118 -0.7165,1.0119 -0.6972,2.7008 l 0.0168,0.7632 c 0.0087,1.2327 -0.0214,2.1012 -0.0915,2.6088 -0.0703,0.5074 -0.1918,0.9705 -0.364,1.3916 -0.1972,0.4614 -0.4909,0.8502 -0.8797,1.164 -0.3904,0.3144 -0.8447,0.5311 -1.36,0.6501 -1.1985,0.2766 -2.2479,-0.0691 -3.1496,-1.0352 -0.902,-0.9679 -1.595,-2.495 -2.077,-4.5835 -0.4771,-2.0657 -0.5119,-3.6348 -0.1051,-4.7003 0.4063,-1.0675 1.2937,-1.7596 2.6619,-2.0751 l 0.1759,-0.0409 z m 9.8792,12.3864 -2.1943,1.267 1.1481,1.9891 c 0.273,0.4724 0.5655,0.7689 0.8774,0.8893 0.3138,0.1197 0.6571,0.0714 1.0297,-0.1436 0.3564,-0.2054 0.5582,-0.4773 0.6112,-0.8135 0.0516,-0.3352 -0.0562,-0.7358 -0.3238,-1.1995 z m -10.3212,1.2638 10.4752,-6.0479 3.7104,6.4267 c 0.8144,1.4106 1.1555,2.5808 1.0221,3.5087 -0.1323,0.9295 -0.7502,1.7107 -1.8538,2.3477 -1.1035,0.6371 -2.1565,0.7991 -3.1593,0.481 -1.0048,-0.3167 -1.8515,-1.0737 -2.5432,-2.2718 l -1.8041,-3.1252 -3.8143,2.2022 z m 15.3411,12.2363 c -0.8544,0.8848 -1.2968,1.7417 -1.3269,2.5705 -0.0286,0.8306 0.3536,1.6285 1.1478,2.3958 0.799,0.7711 1.6146,1.1355 2.448,1.0941 0.835,-0.0426 1.6661,-0.4921 2.493,-1.3484 0.8995,-0.9319 1.3796,-1.8427 1.4398,-2.736 0.0587,-0.8917 -0.3139,-1.7268 -1.12,-2.5057 -0.7432,-0.7177 -1.5607,-1.0312 -2.4514,-0.9429 -0.892,0.0896 -1.7683,0.58 -2.6303,1.4726 z m -2.0241,6.5927 c -1.7261,-1.6667 -2.6635,-3.3159 -2.8137,-4.9464 -0.1518,-1.6321 0.4893,-3.1871 1.9213,-4.6699 1.3853,-1.4348 2.9238,-2.0822 4.6159,-1.9426 1.692,0.143 3.4198,1.0643 5.1864,2.7706 1.7459,1.6855 2.7013,3.3612 2.8684,5.0257 0.1657,1.6657 -0.469,3.2417 -1.9039,4.7273 -1.4012,1.4512 -2.9369,2.0959 -4.6099,1.9364 -1.673,-0.1595 -3.4283,-1.1279 -5.2645,-2.9011 z m 17.8506,0.8377 -1.0981,2.1548 2.0465,1.0425 c 0.4917,0.2508 0.8966,0.3484 1.2133,0.2909 0.3161,-0.056 0.5701,-0.268 0.7587,-0.6382 0.1916,-0.3763 0.2185,-0.7063 0.0854,-0.9909 -0.1339,-0.2871 -0.4528,-0.5584 -0.9596,-0.8167 z m -7.9864,6.7544 5.4914,-10.7775 6.1798,3.1488 c 0.6436,0.3278 1.1793,0.6127 1.6064,0.8564 0.4302,0.2425 0.7485,0.4449 0.9605,0.6069 0.4276,0.317 0.7423,0.6563 0.9414,1.0193 0.1973,0.3621 0.2906,0.7843 0.2776,1.2677 -0.0139,0.4853 -0.1376,0.9592 -0.3732,1.4214 -0.362,0.7108 -0.8932,1.1659 -1.5895,1.3668 -0.6973,0.1986 -1.4889,0.1204 -2.3734,-0.2383 0.4286,0.2179 0.775,0.4489 1.0369,0.6932 0.2619,0.2443 0.4554,0.5028 0.5808,0.7743 0.2359,0.4756 0.2163,1.0737 -0.0584,1.7934 l -0.7139,1.8909 c -0.0996,0.2556 -0.191,0.5507 -0.2752,0.8824 l -0.2424,1.1277 -3.7407,-1.9063 c 0.011,-0.1095 0.0306,-0.2221 0.055,-0.3344 0.0233,-0.1156 0.0695,-0.2711 0.1343,-0.4714 0.0641,-0.2003 0.1007,-0.3138 0.1094,-0.3399 0.0565,-0.1618 0.1264,-0.3221 0.2083,-0.4829 l 0.6566,-1.5431 c 0.1212,-0.2376 0.195,-0.4518 0.2191,-0.6376 0.0247,-0.1876 0.0091,-0.3558 -0.0496,-0.5082 -0.0985,-0.2645 -0.4344,-0.5443 -1.0087,-0.8368 l -2.2724,-1.158 -2.1519,4.2233 z m 19.2387,7.4718 1.8006,-9.2645 -4.418,-0.8587 0.5071,-2.6088 12.8875,2.505 -0.507,2.6088 -4.4201,-0.8592 -1.801,9.2645 z m 12.7441,1.6412 -1.474,-12.0055 10.7011,-1.3138 0.3175,2.5875 -6.6818,0.8204 0.2346,1.9127 6.1779,-0.7585 0.3138,2.5566 -6.1775,0.7585 0.2857,2.3274 6.9341,-0.8516 0.3217,2.6213 z m 25.0086,-15.4347 c -0.3545,-0.4696 -0.7727,-0.7491 -1.2494,-0.8385 -0.4793,-0.0902 -1.0128,0.0142 -1.6038,0.3156 -0.9353,0.4766 -1.503,1.1378 -1.7068,1.9862 -0.2012,0.8496 -0.0258,1.8178 0.5298,2.9085 0.5337,1.0473 1.1935,1.7269 1.9777,2.0408 0.7866,0.3132 1.6401,0.2366 2.5603,-0.2325 0.6677,-0.3402 1.1209,-0.7738 1.3609,-1.301 0.2418,-0.5289 0.2514,-1.1344 0.0324,-1.8189 l 3.8136,-1.9431 c 0.582,1.4704 0.5244,2.8095 -0.1759,4.0194 -0.6989,1.209 -2.0902,2.3441 -4.1681,3.403 -2.0032,1.0207 -3.8022,1.3461 -5.3984,0.9739 -1.5969,-0.3689 -2.825,-1.397 -3.6836,-3.0821 -0.935,-1.8348 -1.0814,-3.5509 -0.4361,-5.1473 0.6438,-1.5933 2.0333,-2.9352 4.1657,-4.0214 1.8668,-0.9511 3.4474,-1.3538 4.7412,-1.2096 0.6765,0.0655 1.2675,0.2591 1.7676,0.5791 0.5368,0.3411 0.959,0.8186 1.2717,1.4324 z m 16.8015,-7.1083 1.8348,1.8994 -7.5141,7.2561 -8.4025,-8.7009 2.9718,-2.8699 6.568,6.8015 z m -5.9279,-7.2959 2.0048,-3.4722 5.9647,3.4439 c 0.8652,0.4993 1.6262,0.6719 2.2771,0.5147 0.6527,-0.1566 1.2193,-0.6512 1.7012,-1.4857 0.4639,-0.8037 0.5998,-1.5346 0.4077,-2.1884 -0.1938,-0.6548 -0.7162,-1.228 -1.5689,-1.7203 l -5.9647,-3.4439 1.9471,-3.3722 5.9227,3.4198 c 1.6273,0.9393 2.5484,2.1061 2.7613,3.4967 0.2128,1.3907 -0.2714,3.1108 -1.4523,5.1561 -1.1744,2.0342 -2.4031,3.2932 -3.6846,3.775 -1.2816,0.4818 -2.7461,0.2472 -4.3933,-0.7036 z m 10.4024,-16.3838 2.4607,0.568 0.4793,-2.0759 c 0.1172,-0.5073 0.1021,-0.9092 -0.0448,-1.2059 -0.149,-0.2975 -0.4265,-0.495 -0.8374,-0.59 -0.393,-0.0905 -0.727,-0.0344 -0.9982,0.1702 -0.2713,0.2046 -0.4645,0.5565 -0.5803,1.0576 z m 4.4181,1.0201 2.5895,0.5978 0.5516,-2.3892 c 0.1302,-0.5644 0.1206,-1.0169 -0.0312,-1.358 -0.1524,-0.3389 -0.4421,-0.5584 -0.8675,-0.6569 -0.4213,-0.0973 -0.776,-0.0264 -1.0635,0.2114 -0.288,0.2394 -0.4971,0.6413 -0.6273,1.206 z m 4.0951,4.9761 -11.7857,-2.7206 1.6858,-7.3021 c 0.1044,-0.4523 0.1994,-0.8266 0.2857,-1.1257 0.0857,-0.2967 0.1717,-0.5484 0.2622,-0.7539 0.0891,-0.2077 0.1777,-0.3853 0.2653,-0.5332 0.088,-0.1478 0.1989,-0.2925 0.3334,-0.4358 0.3178,-0.3595 0.7051,-0.5999 1.1577,-0.7215 0.4548,-0.1233 0.9563,-0.1198 1.5065,0.007 0.6605,0.1527 1.1588,0.4679 1.4954,0.9505 0.3391,0.4813 0.5388,1.1652 0.6038,2.0504 0.4651,-0.9417 0.9985,-1.5813 1.6015,-1.9158 0.6007,-0.3354 1.3236,-0.4055 2.1644,-0.2114 1.0329,0.2383 1.7528,0.7321 2.1557,1.478 0.4032,0.7458 0.4631,1.727 0.1825,2.942 z m 3.1613,-16.4814 -12.0496,1.0544 -0.9398,-10.7406 2.5972,-0.2271 0.5868,6.7065 1.9199,-0.168 -0.5426,-6.2004 2.566,-0.2245 0.5426,6.2004 2.3358,-0.2042 -0.6089,-6.9597 2.6306,-0.2303 z M 63.3035,77.6161 c -0.5419,-0.2294 -1.0436,-0.2623 -1.501,-0.1015 -0.4602,0.1618 -0.87,0.5189 -1.2315,1.0752 -0.5718,0.8803 -0.7326,1.737 -0.485,2.5736 0.2509,0.8361 0.8868,1.587 1.9134,2.2536 0.9858,0.6403 1.8966,0.8989 2.7331,0.7789 0.8377,-0.122 1.5385,-0.6153 2.1009,-1.4816 0.4084,-0.6287 0.584,-1.2304 0.5281,-1.8073 -0.0547,-0.5788 -0.3496,-1.108 -0.8816,-1.5912 l 2.3313,-3.5898 c 1.2391,0.9825 1.8591,2.171 1.8572,3.5691 -6e-4,1.3963 -0.6379,3.0749 -1.908,5.0309 -1.2244,1.8855 -2.6199,3.067 -4.1882,3.543 -1.5674,0.4787 -3.1451,0.2024 -4.7313,-0.8275 -1.7272,-1.1217 -2.7118,-2.5345 -2.9513,-4.2395 -0.2389,-1.7018 0.2937,-3.5587 1.5969,-5.5659 1.141,-1.757 2.3089,-2.8961 3.5016,-3.4181 0.6183,-0.2816 1.2269,-0.4095 1.82,-0.3823 0.6356,0.0273 1.24,0.2295 1.8177,0.6045 z m 7.2514,-10.8249 1.5864,1.8253 1.7334,-1.5068 c 0.4166,-0.3622 0.6589,-0.7008 0.7242,-1.0164 0.0667,-0.3137 -0.0349,-0.6287 -0.3076,-0.9423 -0.2766,-0.3185 -0.5729,-0.4673 -0.8865,-0.4505 -0.3166,0.0166 -0.6875,0.2108 -1.1168,0.5841 z m 3.2707,9.9349 -7.9353,-9.1286 5.2343,-4.5503 c 0.5451,-0.4739 1.0099,-0.864 1.3958,-1.1688 0.3859,-0.3079 0.6932,-0.5273 0.9227,-0.6631 0.454,-0.2777 0.8865,-0.4424 1.2977,-0.4911 0.4094,-0.0472 0.8359,0.0243 1.2791,0.2176 0.4449,0.1946 0.838,0.4871 1.1781,0.8783 0.5236,0.6022 0.7466,1.265 0.6723,1.9859 -0.0775,0.7208 -0.4463,1.4255 -1.1103,2.1112 0.3629,-0.3153 0.7065,-0.5503 1.0312,-0.7016 0.3246,-0.1514 0.6366,-0.2337 0.9354,-0.2485 0.5296,-0.0405 1.0766,0.2018 1.641,0.7261 l 1.4858,1.3704 c 0.1997,0.188 0.4389,0.3832 0.715,0.5855 l 0.9546,0.6473 -3.1684,2.7543 C 80.2569,70.9993 80.1599,70.939 80.0648,70.8742 79.9666,70.8093 79.8398,70.7081 79.678,70.5734 79.5166,70.4385 79.4249,70.3623 79.404,70.3445 79.2751,70.2311 79.1528,70.1066 79.0342,69.9704 l -1.1846,-1.1871 c -0.1748,-0.2012 -0.3459,-0.3498 -0.5094,-0.4417 -0.1646,-0.0935 -0.3263,-0.1418 -0.4897,-0.1444 -0.2824,-0.0078 -0.6671,0.1989 -1.1535,0.6217 l -1.925,1.6732 3.1097,3.5775 z m 6.6657,-20.301 3.7174,-1.5019 2.5803,6.386 c 0.3742,0.9265 0.8677,1.5311 1.4774,1.8076 0.6107,0.2786 1.3615,0.2376 2.255,-0.1233 0.8604,-0.3476 1.4176,-0.8398 1.6688,-1.4733 0.2503,-0.6356 0.1918,-1.4088 -0.1771,-2.3217 l -2.5802,-6.386 3.6105,-1.4586 2.562,6.3412 c 0.7037,1.7419 0.7114,3.2287 0.023,4.4554 -0.6887,1.2269 -2.1293,2.2842 -4.319,3.1692 -2.1778,0.8797 -3.9212,1.1155 -5.2276,0.7061 -1.3064,-0.4095 -2.316,-1.496 -3.0285,-3.2593 z m 24.0086,2.9942 7.3545,-0.1284 0.0463,2.6403 -12.0521,0.2104 -0.0579,-3.3289 6.7066,-6.2266 -6.4437,0.1124 -0.0463,-2.6571 11.4533,-0.2 0.0562,3.2135 z m 9.4449,2.798 2.5149,-11.8314 10.546,2.2416 -0.5423,2.5502 -6.585,-1.3997 -0.4007,1.885 6.0882,1.2941 -0.5354,2.5195 -6.0882,-1.294 -0.4875,2.2936 6.8334,1.4524 -0.5488,2.5831 z m 12.3458,3.4666 5.4912,-10.7774 3.6828,1.8764 -5.4915,10.7776 z m 15.0452,-2.251 -1.4892,1.9056 1.8098,1.414 c 0.435,0.3399 0.8141,0.5133 1.1359,0.517 0.3207,0.0055 0.6107,-0.1542 0.8666,-0.4817 0.2596,-0.3326 0.349,-0.6517 0.2729,-0.9562 -0.0766,-0.3077 -0.3382,-0.6345 -0.7862,-0.9849 z m -9.1284,5.1063 7.4468,-9.5315 5.4654,4.2702 c 0.5692,0.4445 1.0408,0.8263 1.4137,1.1471 0.3757,0.32 0.6498,0.5797 0.8269,0.7792 0.3595,0.3925 0.6034,0.7857 0.7298,1.1801 0.1245,0.393 0.1356,0.8253 0.0306,1.2973 -0.1064,0.4738 -0.3184,0.9154 -0.6375,1.324 -0.4913,0.6286 -1.0994,0.9742 -1.8212,1.0387 -0.7222,0.0618 -1.4843,-0.1662 -2.2842,-0.687 0.3788,0.2958 0.675,0.5885 0.8856,0.8782 0.2105,0.2898 0.3507,0.5806 0.4222,0.8708 0.1407,0.5123 0.007,1.0953 -0.3998,1.7495 l -1.0615,1.7201 c -0.1465,0.2319 -0.2923,0.5042 -0.4385,0.8137 l -0.4528,1.0605 -3.3086,-2.5848 c 0.0321,-0.1057 0.0727,-0.2123 0.118,-0.3181 0.0449,-0.1086 0.1201,-0.2525 0.2217,-0.4369 0.1013,-0.1845 0.1589,-0.2888 0.1722,-0.3128 0.0866,-0.1481 0.1856,-0.292 0.2969,-0.4343 l 0.9389,-1.3894 c 0.1642,-0.2101 0.2777,-0.4065 0.3365,-0.5842 0.0604,-0.1795 0.0769,-0.3474 0.0482,-0.5085 -0.0459,-0.2785 -0.3223,-0.6168 -0.8302,-1.0137 l -2.0099,-1.5702 -2.9184,3.7353 z m 18.1276,9.2041 c -1.032,0.67 -1.6557,1.4055 -1.8713,2.2064 -0.2146,0.8027 -0.0218,1.6662 0.5797,2.5922 0.6047,0.9313 1.3171,1.4697 2.1389,1.6171 0.8231,0.1461 1.734,-0.1048 2.7323,-0.753 1.0862,-0.7056 1.7589,-1.4854 2.0183,-2.3421 0.2576,-0.8559 0.0828,-1.7533 -0.5278,-2.6936 -0.5624,-0.8661 -1.2883,-1.3559 -2.1761,-1.4703 -0.8896,-0.1132 -1.8537,0.1675 -2.894,0.8433 z m -3.4555,5.9685 c -1.3067,-2.0123 -1.8493,-3.8302 -1.6288,-5.4527 0.2194,-1.6242 1.1937,-2.9955 2.9226,-4.1181 1.6725,-1.0863 3.3174,-1.3708 4.9342,-0.8541 1.6166,0.5197 3.093,1.8062 4.4306,3.866 1.3217,2.0352 1.8759,3.883 1.6642,5.5423 -0.2131,1.6603 -1.1861,3.053 -2.9184,4.1781 -1.6917,1.0986 -3.3333,1.3811 -4.9273,0.8495 -1.5944,-0.5316 -3.0867,-1.8702 -4.4771,-4.011 z"
       style="fill:#005589;fill-rule:evenodd"
       id="path13" />
    <path
       d="m 111.0998,132.3572 1.6107,5.0187 h 5.2923 l -4.3122,3.1156 1.6773,5.0008 -4.3124,-3.0409 -4.224,3.0409 1.6291,-4.9696 -4.3347,-3.1641 5.3496,0.004 z m 23.4339,-36.2017 1.6108,5.0186 h 5.292 l -4.3122,3.1161 1.6776,5.0004 -4.3125,-3.0409 -4.2239,3.0409 1.6287,-4.9697 -4.3346,-3.1639 5.3498,0.004 z m -18.2031,11.3169 1.0196,3.1763 h 3.3494 l -2.7292,1.9718 1.0616,3.1649 -2.7292,-1.9247 -2.6735,1.9247 1.0309,-3.1454 -2.7433,-2.0024 3.3857,0.003 z m -9.1552,-34.2449 1.6109,5.0187 h 5.2919 l -4.3121,3.116 1.6772,5.0007 -4.3121,-3.0411 -4.224,3.0411 1.6288,-4.9699 -4.3347,-3.164 5.3499,0.0044 z m -24.3706,24.1983 1.6108,5.0184 h 5.2923 l -4.3122,3.116 1.6773,5.0005 -4.3122,-3.0409 -4.2242,3.0409 1.629,-4.9696 -4.3346,-3.1639 5.3495,0.004 z"
       style="fill:#ffffff;fill-rule:evenodd"
       id="path14" />
  </g>
</svg>
