<?xml version="1.0" encoding="UTF-8" standalone="no"?>
<svg
   version="1.1"
   width="1.6309594in"
   height="1.6282306in"
   viewBox="0 0 117.42908 117.2326"
   id="svg85"
   sodipodi:docname="desportiva.cdr"
   xmlns:inkscape="http://www.inkscape.org/namespaces/inkscape"
   xmlns:sodipodi="http://sodipodi.sourceforge.net/DTD/sodipodi-0.dtd"
   xmlns="http://www.w3.org/2000/svg"
   xmlns:svg="http://www.w3.org/2000/svg">
  <defs
     id="defs85" />
  <sodipodi:namedview
     id="namedview85"
     pagecolor="#ffffff"
     bordercolor="#000000"
     borderopacity="0.25"
     inkscape:showpageshadow="2"
     inkscape:pageopacity="0.0"
     inkscape:pagecheckerboard="0"
     inkscape:deskcolor="#d1d1d1"
     inkscape:document-units="in" />
  <g
     id="Layer1003"
     transform="translate(-49.285324,-59.143902)">
    <path
       d="m 108.0214,176.3765 c 70.9202,-20.35298 57.7016,-69.81763 57.7447,-112.200222 -38.8302,-6.709832 -76.7035,-6.709832 -115.5336,0 0.0437,42.382592 -13.1755,91.847242 57.7889,112.200222 z"
       style="fill:#69b324;fill-rule:evenodd;stroke-width:0.925882"
       id="path10" />
    <path
       d="m 108.0214,173.17105 5.1304,-1.60324 5.6967,-2.0876 5.3049,-2.23666 4.8259,-2.34794 4.4358,-2.49762 4.0435,-2.64687 3.6094,-2.72084 3.3044,-2.83289 2.9135,-2.98197 2.6523,-3.05672 2.3049,-3.13164 2.0437,-3.28021 1.7827,-3.31733 1.5653,-3.46665 1.3046,-3.5037 1.1305,-3.61599 0.9129,-3.69015 0.6959,-3.76498 0.5653,-3.80219 0.435,-3.87669 0.2609,-3.95101 0.1739,-3.95144 0.0865,-4.02567 v -4.025766 l -0.0865,-4.063224 -0.1305,-4.100258 -0.1302,-4.063139 -0.1741,-4.100344 -0.1739,-4.100258 -0.1304,-4.063139 -0.0873,-4.063139 v -1.56535 l -0.7825,-0.111958 -3.6087,-0.559188 -3.6094,-0.521726 -3.5661,-0.484608 -3.565,-0.447488 -3.5657,-0.410025 -3.6088,-0.37265 -3.566,-0.335444 -3.5221,-0.298325 -3.5656,-0.260864 -3.5652,-0.186282 -3.5658,-0.186539 -3.5657,-0.149162 -3.4785,-0.07432 -3.5658,-0.07458 h -3.5651 -3.5658 l -3.5221,0.07458 -3.5657,0.07432 -3.5658,0.149162 -3.5652,0.186539 -3.5222,0.186282 -3.5657,0.260864 -3.5658,0.298325 -3.5651,0.335444 -3.5658,0.37265 -3.5658,0.410025 -3.6088,0.447488 -3.5658,0.484608 -3.6087,0.521726 -3.5658,0.559188 -0.8263,0.111958 v 1.56535 l -0.0867,4.063139 -0.1304,4.063139 -0.174,4.100258 -0.1303,4.100344 -0.174,4.063139 -0.1309,4.100258 -0.0431,4.063224 -0.0436,4.025766 0.0867,4.02567 0.174,3.95144 0.2612,3.95101 0.4347,3.87669 0.565,3.80219 0.7396,3.76498 0.913,3.69015 1.0869,3.61599 1.3046,3.5037 1.5653,3.46665 1.7828,3.31733 2.0436,3.28021 2.3485,3.13164 2.6085,3.05672 2.9572,2.98197 3.2614,2.83289 3.6525,2.72084 4.0004,2.64687 4.4351,2.49762 4.8267,2.34794 5.305,2.23666 5.7397,2.0876 z"
       style="fill:#ffffff;fill-rule:evenodd;stroke-width:0.925882"
       id="path11" />
    <path
       d="m 152.2867,90.082828 0.3043,-8.051525 c 2.0874,0.298068 4.2177,0.596308 6.3484,0.931838 0.0436,2.832976 0.0868,5.628661 0.1301,8.424346 l -0.9563,-0.186282 -1.6521,-0.298325 -1.6961,-0.298069 -1.6955,-0.372992 z"
       style="fill:#7b1a31;fill-opacity:1;fill-rule:evenodd;stroke-width:0.925882"
       id="path12" />
    <path
       d="m 151.9824,98.879995 0.2607,-7.828039 0.565,0.112044 1.6962,0.372564 1.6957,0.335444 1.6962,0.298325 1.1733,0.186282 c 0.0439,2.683985 0.0874,5.293216 0.0874,7.902615 l -1.3919,-0.22374 -1.6519,-0.298325 -1.6524,-0.335358 -1.6955,-0.335531 z"
       style="fill:#7b1a31;fill-opacity:1;fill-rule:evenodd;stroke-width:0.925882"
       id="path13" />
    <path
       d="m 151.6776,107.71437 0.2611,-7.865247 0.5651,0.148906 1.6962,0.335791 1.6957,0.33535 1.6523,0.29816 1.6089,0.26086 c 0,2.68416 -0.0435,5.29348 -0.1739,7.86533 l -1.6089,-0.26086 -1.6525,-0.29824 -1.6526,-0.29833 -1.652,-0.37265 z"
       style="fill:#7b1a31;fill-opacity:1;fill-rule:evenodd;stroke-width:0.925882"
       id="path14" />
    <path
       d="m 151.3733,116.43669 0.3043,-7.7532 0.4782,0.11179 1.6962,0.37282 1.6525,0.29807 1.6519,0.29833 1.6527,0.29832 h 0.1303 c -0.1742,2.60932 -0.3916,5.21864 -0.696,7.716 l -0.8693,-0.11188 -1.6525,-0.29832 -1.6526,-0.33528 -1.652,-0.37264 z"
       style="fill:#7b1a31;fill-opacity:1;fill-rule:evenodd;stroke-width:0.925882"
       id="path15" />
    <path
       d="m 151.0689,125.53219 v -0.0375 l 0.3044,-8.05136 0.7825,0.14908 1.6962,0.37265 1.6525,0.33579 1.6519,0.29807 0.9568,0.14899 c -0.3911,2.6839 -0.913,5.2933 -1.5655,7.86516 l -0.8261,-0.14908 -1.5653,-0.29833 -1.6089,-0.33527 z"
       style="fill:#7b1a31;fill-opacity:1;fill-rule:evenodd;stroke-width:0.925882"
       id="path16" />
    <path
       d="m 143.1983,87.846331 0.0873,-6.933491 c 2.5655,0.260949 5.0874,0.559275 7.6093,0.894719 l -0.2607,7.902534 -0.9567,-0.223658 -1.7391,-0.447403 -1.6961,-0.410025 -1.7394,-0.447231 z"
       style="fill:#7b1a31;fill-opacity:1;fill-rule:evenodd;stroke-width:0.925882"
       id="path17" />
    <path
       d="m 143.0679,96.680703 0.0872,-7.828038 1.0003,0.26112 1.7394,0.447231 1.7393,0.40994 1.7391,0.410197 1.2173,0.297983 -0.2606,7.827952 -0.913,-0.223487 -1.7398,-0.410026 -1.6957,-0.447402 -1.7392,-0.447488 z"
       style="fill:#7b1a31;fill-opacity:1;fill-rule:evenodd;stroke-width:0.925882"
       id="path18" />
    <path
       d="m 142.9376,105.55245 0.1303,-7.865414 0.87,0.223659 1.7391,0.447316 1.6958,0.447402 1.7397,0.410026 1.1737,0.260863 -0.2607,7.828038 -0.9566,-0.22366 -1.6961,-0.4102 -1.6958,-0.40985 -1.6954,-0.44732 z"
       style="fill:#7b1a31;fill-opacity:1;fill-rule:evenodd;stroke-width:0.925882"
       id="path19" />
    <path
       d="m 142.894,110.06282 0.0436,-3.54115 0.696,0.18602 1.7391,0.44749 1.6957,0.4474 1.6962,0.41003 1.2173,0.29806 -0.2607,7.75346 -0.6523,-0.14916 -1.6961,-0.41011 -1.6958,-0.44706 -1.6954,-0.44758 -0.5655,-0.14882 c -0.0439,-1.49128 -0.261,-2.94502 -0.5221,-4.39858 z"
       style="fill:#7b1a31;fill-opacity:1;fill-rule:evenodd;stroke-width:0.925882"
       id="path20" />
    <path
       d="m 142.8074,123.44459 -0.1304,-0.37273 0.0432,-1.49086 c 0.4781,-1.9758 0.6959,-4.02601 0.6959,-6.11326 l 0.2175,0.0746 1.7391,0.44714 1.6957,0.4102 1.6962,0.44706 0.9566,0.18662 -0.3043,8.08882 h -0.0873 l -1.6089,-0.4102 -1.6521,-0.40994 -1.6523,-0.40985 z"
       style="fill:#7b1a31;fill-opacity:1;fill-rule:evenodd;stroke-width:0.925882"
       id="path21" />
    <path
       d="m 134.5888,85.609578 v -5.516789 c 2.3485,0.186367 4.6965,0.410197 7.0443,0.633855 l -0.0868,6.672199 -0.5655,-0.1117 -1.7394,-0.484521 -1.7391,-0.447317 -1.783,-0.447402 z"
       style="fill:#7b1a31;fill-opacity:1;fill-rule:evenodd;stroke-width:0.925882"
       id="path22" />
    <path
       d="m 134.5888,94.444206 v -7.828038 l 0.8262,0.186454 1.7394,0.447059 1.7827,0.484864 1.7394,0.447231 0.8264,0.223744 -0.0869,7.865071 -0.6523,-0.186281 -1.7393,-0.447403 -1.7396,-0.484607 -1.7394,-0.447231 z"
       style="fill:#7b1a31;fill-opacity:1;fill-rule:evenodd;stroke-width:0.925882"
       id="path23" />
    <path
       d="m 134.6761,95.487745 0.565,0.149162 1.7393,0.447403 1.7396,0.447145 1.7394,0.484692 0.913,0.223744 -0.0873,7.790489 c -1.5216,-3.54107 -3.7828,-6.784155 -6.609,-9.542635 z"
       style="fill:#7b1a31;fill-opacity:1;fill-rule:evenodd;stroke-width:0.925882"
       id="path24" />
    <path
       d="m 125.8927,83.485124 v -3.951438 c 2.3478,0.111958 4.6956,0.261121 7.0443,0.447488 v 5.181259 l -0.7398,-0.186368 -1.7392,-0.410026 -1.7391,-0.447402 -1.783,-0.372649 z"
       style="fill:#7b1a31;fill-opacity:1;fill-rule:evenodd;stroke-width:0.925882"
       id="path25" />
    <path
       d="m 125.8927,89.262691 v -4.771233 l 0.7825,0.149248 1.7394,0.40994 1.7391,0.410026 1.7391,0.447231 1.0442,0.260863 v 7.716252 c -2.0874,-1.789266 -4.479,-3.354874 -7.0443,-4.622327 z"
       style="fill:#7b1a31;fill-opacity:1;fill-rule:evenodd;stroke-width:0.925882"
       id="path26" />
    <path
       d="m 117.1957,81.882226 v -2.683984 c 2.348,0.03738 4.6965,0.149162 7.0443,0.260863 v 3.690318 l -0.7826,-0.186282 -1.7393,-0.33553 -1.7391,-0.29824 -1.6962,-0.298068 z"
       style="fill:#7b1a31;fill-opacity:1;fill-rule:evenodd;stroke-width:0.925882"
       id="path27" />
    <path
       d="m 117.1957,86.094442 v -3.243087 l 0.87,0.148905 1.6958,0.261206 1.7391,0.297983 1.6961,0.335701 1.0433,0.223487 v 4.324088 c -2.2176,-0.969043 -4.5654,-1.751975 -7.0443,-2.348283 z"
       style="fill:#7b1a31;fill-opacity:1;fill-rule:evenodd;stroke-width:0.925882"
       id="path28" />
    <path
       d="m 91.7584,83.149423 v -3.690318 c 2.3485,-0.111701 4.6964,-0.223487 7.0442,-0.260863 v 2.683984 l -1.0433,0.149077 -1.7392,0.298068 -1.7398,0.29824 -1.7392,0.33553 z"
       style="fill:#7b1a31;fill-opacity:1;fill-rule:evenodd;stroke-width:0.925882"
       id="path29" />
    <path
       d="m 91.7584,88.442725 v -4.324088 l 1.0439,-0.223487 1.7392,-0.335701 1.6957,-0.297983 1.6961,-0.261206 0.8693,-0.148905 v 3.243087 c -2.4351,0.596308 -4.8267,1.37924 -7.0442,2.348283 z"
       style="fill:#7b1a31;fill-opacity:1;fill-rule:evenodd;stroke-width:0.925882"
       id="path30" />
    <path
       d="m 83.0622,85.162433 v -5.181259 c 2.3479,-0.186367 4.6958,-0.33553 7.0443,-0.447488 v 3.951438 l -1.0439,0.260864 -1.7393,0.372649 -1.7828,0.447402 -1.7393,0.410026 z"
       style="fill:#7b1a31;fill-opacity:1;fill-rule:evenodd;stroke-width:0.925882"
       id="path31" />
    <path
       d="m 83.0622,93.885018 v -7.716252 l 1.0433,-0.260863 1.7393,-0.447231 1.7828,-0.410026 1.7393,-0.40994 0.7396,-0.149248 v 4.771233 c -2.5655,1.267453 -4.914,2.833061 -7.0443,4.622327 z"
       style="fill:#7b1a31;fill-opacity:1;fill-rule:evenodd;stroke-width:0.925882"
       id="path32" />
    <path
       d="m 74.4958,87.398843 -0.1304,-6.672199 c 2.3479,-0.223658 4.6963,-0.447488 7.0443,-0.633855 v 5.516789 l -1.1306,0.298325 -1.7393,0.447402 -1.7828,0.447317 -1.7393,0.484521 z"
       style="fill:#7b1a31;fill-opacity:1;fill-rule:evenodd;stroke-width:0.925882"
       id="path33" />
    <path
       d="m 74.6261,96.270591 -0.1303,-7.865071 0.8262,-0.223744 1.783,-0.447231 1.7392,-0.484864 1.7829,-0.447059 0.7826,-0.186454 v 7.828038 l -0.9566,0.260863 -1.7393,0.447231 -1.7392,0.484607 -1.7393,0.447403 z"
       style="fill:#7b1a31;fill-opacity:1;fill-rule:evenodd;stroke-width:0.925882"
       id="path34" />
    <path
       d="m 74.7134,105.03038 -0.0873,-7.790489 0.9135,-0.223744 1.7393,-0.484692 1.7828,-0.447145 1.7394,-0.447403 0.565,-0.149162 c -2.8699,2.75848 -5.1311,6.001565 -6.6527,9.542635 z"
       style="fill:#7b1a31;fill-opacity:1;fill-rule:evenodd;stroke-width:0.925882"
       id="path35" />
    <path
       d="m 65.3643,89.710093 -0.2607,-7.902534 c 2.5219,-0.335444 5.0875,-0.63377 7.6093,-0.894719 l 0.0873,6.933491 -1.261,0.335445 -1.7392,0.447231 -1.7393,0.410025 -1.7398,0.447403 z"
       style="fill:#7b1a31;fill-opacity:1;fill-rule:evenodd;stroke-width:0.925882"
       id="path36" />
    <path
       d="m 65.6686,98.507088 -0.2606,-7.827952 1.2173,-0.297983 1.7398,-0.410197 1.7392,-0.40994 1.7392,-0.447231 1.0003,-0.26112 0.0867,7.828038 -1.1743,0.297982 -1.7391,0.447488 -1.6957,0.447402 -1.6961,0.410026 z"
       style="fill:#7b1a31;fill-opacity:1;fill-rule:evenodd;stroke-width:0.925882"
       id="path37" />
    <path
       d="m 65.9736,107.30434 -0.2613,-7.828038 1.2179,-0.260863 1.6955,-0.410026 1.7393,-0.447402 1.7392,-0.447316 0.87,-0.223659 0.0866,7.865414 -1.0002,0.26086 -1.7392,0.44732 -1.6957,0.40985 -1.6955,0.4102 z"
       style="fill:#8b1d37;fill-rule:evenodd;stroke-width:0.925882"
       id="path38" />
    <path
       d="m 66.2779,116.06413 -0.2613,-7.75346 1.2179,-0.29806 1.6956,-0.41003 1.7392,-0.4474 1.6962,-0.44749 0.739,-0.18602 0.0437,3.54115 c -0.3044,1.45356 -0.4784,2.9073 -0.5657,4.39858 l -0.5219,0.14882 -1.7392,0.44758 -1.6957,0.44706 -1.6955,0.41011 z"
       style="fill:#8b1d37;fill-rule:evenodd;stroke-width:0.925882"
       id="path39" />
    <path
       d="m 66.5822,125.12216 -0.2613,-8.08882 0.9136,-0.18662 1.6956,-0.44706 1.7392,-0.4102 1.6962,-0.44714 0.217,-0.0746 c 0,2.08725 0.2613,4.13746 0.7397,6.07589 v 1.52823 l -0.0874,0.37273 -1.6525,0.44758 -1.6519,0.40985 -1.609,0.40994 -1.6525,0.4102 z"
       style="fill:#7b1a31;fill-opacity:1;fill-rule:evenodd;stroke-width:0.925882"
       id="path40" />
    <path
       d="m 56.9288,91.387487 c 0.0436,-2.795685 0.1303,-5.59137 0.1303,-8.424346 2.1309,-0.33553 4.2617,-0.63377 6.392,-0.931838 l 0.2612,8.051525 -0.7825,0.148991 -1.6963,0.372992 -1.6519,0.298069 -1.6525,0.298325 z"
       style="fill:#7b1a31;fill-opacity:1;fill-rule:evenodd;stroke-width:0.925882"
       id="path41" />
    <path
       d="m 56.8421,100.25923 c 0,-2.609399 0.043,-5.21863 0.0867,-7.902615 l 1.2179,-0.186282 1.6519,-0.298325 1.6962,-0.335444 1.6956,-0.372564 0.565,-0.112044 0.2613,7.828039 -0.7827,0.186281 -1.6962,0.335531 -1.6519,0.335358 -1.6525,0.298325 z"
       style="fill:#7b1a31;fill-opacity:1;fill-rule:evenodd;stroke-width:0.925882"
       id="path42" />
    <path
       d="m 57.0161,109.09352 c -0.0873,-2.57185 -0.174,-5.18117 -0.174,-7.86533 l 1.6089,-0.26086 1.6956,-0.29816 1.6526,-0.33535 1.6955,-0.335791 0.5656,-0.148906 0.2607,7.865247 -0.739,0.14907 -1.6525,0.37265 -1.6526,0.29833 -1.6519,0.29824 z"
       style="fill:#7b1a31;fill-opacity:1;fill-rule:evenodd;stroke-width:0.925882"
       id="path43" />
    <path
       d="m 57.7987,117.77882 c -0.348,-2.49736 -0.5656,-5.10668 -0.6959,-7.716 h 0.1303 l 1.609,-0.29832 1.6524,-0.29833 1.6957,-0.29807 1.6525,-0.37282 0.5219,-0.11179 0.2607,7.7532 -1.0433,0.22401 -1.6525,0.37264 -1.6526,0.33528 -1.6519,0.29832 z"
       style="fill:#7b1a31;fill-opacity:1;fill-rule:evenodd;stroke-width:0.925882"
       id="path44" />
    <path
       d="m 59.4507,126.61302 c -0.6523,-2.57186 -1.1737,-5.18126 -1.5216,-7.86516 l 0.913,-0.14899 1.6524,-0.29807 1.6957,-0.33579 1.6525,-0.37265 0.8263,-0.14908 0.2606,8.05136 v 0.0375 l -1.4785,0.29815 -1.5653,0.33527 -1.6089,0.29833 z"
       style="fill:#7b1a31;fill-opacity:1;fill-rule:evenodd;stroke-width:0.925882"
       id="path45" />
    <path
       d="m 108.0214,81.211166 h -0.2176 -1.6089 l -1.6956,0.07467 -1.6526,0.149162 -1.6956,0.148906 -0.6522,0.111958 v -2.534994 c 5,-0.111786 10.0442,-0.111786 15.0879,0 v 2.534994 l -0.6952,-0.111958 -1.6962,-0.148906 -1.6521,-0.149162 -1.6522,-0.07467 h -1.6526 z"
       style="fill:#7b1a31;fill-opacity:1;fill-rule:evenodd;stroke-width:0.925882"
       id="path46" />
    <path
       d="m 100.4989,85.75874 v -3.131129 l 0.7825,-0.07458 1.652,-0.186281 1.6526,-0.111701 1.6525,-0.07484 1.3913,-0.03712 v 0.03712 h 0.6959 v -0.03712 l 1.5215,0.03712 1.6089,0.07484 1.6527,0.111701 1.6519,0.186281 0.8261,0.07458 v 3.131129 c -2.435,-0.44723 -4.9568,-0.708094 -7.5654,-0.708094 -2.5655,0 -5.088,0.260864 -7.5225,0.708094 z"
       style="fill:#7b1a31;fill-opacity:1;fill-rule:evenodd;stroke-width:0.925882"
       id="path47" />
    <path
       d="M 108.0214,169.92762 C 76.8443,159.04294 64.495,144.61755 59.7119,127.54485 l 0.7826,-0.14856 1.609,-0.29832 1.6088,-0.33571 1.652,-0.3357 0.5656,-0.14865 h 0.913 l -0.0437,-0.18671 0.174,-0.0372 1.6525,-0.41011 1.6526,-0.4102 1.652,-0.44732 1.6525,-0.44688 0.5219,-0.11231 c 4.3915,12.488 17.958,21.62036 33.9167,21.62036 15.9142,0 29.4809,-9.13236 33.916,-21.62036 l 0.4784,0.11231 1.6962,0.44688 1.6518,0.44732 1.609,0.4102 1.6525,0.41011 0.2178,0.0372 -0.0873,0.18671 h 0.9134 l 0.6086,0.14865 1.6089,0.3357 1.6089,0.33571 1.6089,0.29832 0.7828,0.14856 c -4.7833,17.0727 -17.1324,31.49809 -48.2659,42.38277 z"
       style="fill:#7b1a31;fill-opacity:1;fill-rule:evenodd;stroke-width:0.925882"
       id="path48" />
    <path
       d="m 108.0214,144.20701 c 18.3495,-0.11119 33.351,-12.97132 33.351,-28.77639 0,-15.805155 -15.0015,-28.665289 -33.351,-28.777333 -18.3932,0.112044 -33.3953,12.972178 -33.3953,28.777333 0,15.80507 15.0021,28.6652 33.3953,28.77639 z"
       style="fill:#8b1d37;fill-rule:evenodd;stroke-width:0.925882"
       id="path49" />
    <path
       d="m 122.2402,146.89108 3.2609,-1.15516 h 0.0434 c 0.7392,-0.22408 1.4787,-0.26095 2.2615,-0.0748 0.7825,0.18646 1.3475,0.63395 1.6955,1.30441 0.2611,0.55918 0.2611,1.00667 0.0436,1.4167 -0.2176,0.40985 -0.5658,0.70843 -1.1305,0.8948 0.7825,-0.14916 1.3912,-0.14916 1.8264,0.0375 0.3912,0.18603 0.7389,0.55919 0.9998,1.1177 0.3916,0.74589 0.3916,1.37932 0.0434,1.90165 -0.3477,0.48435 -0.8262,0.85683 -1.3912,1.15532 -0.0872,0.0369 -0.1738,0.0742 -0.2611,0.0742 -0.0432,0.0375 -0.1304,0.0748 -0.217,0.1123 l -3.3919,1.1927 z"
       style="fill:#ffffff;fill-rule:evenodd;stroke-width:0.925882"
       id="path50" />
    <path
       d="m 115.7609,148.27032 3.131,-0.59597 4.3478,8.01398 -2.8696,0.52172 -0.4784,-1.0065 -1.7392,0.3357 0.0874,1.08092 -2.8269,0.52181 z"
       style="fill:#ffffff;fill-rule:evenodd;stroke-width:0.925882"
       id="path51" />
    <path
       d="m 107.8905,153.04163 -2.0873,-4.13772 h 2.9135 l 0.7396,1.90097 0.6087,-1.90097 h 3.1304 l -2.3914,4.13772 2.5653,4.43605 -3.0437,0.0374 -0.8261,-2.31151 -0.9567,2.31151 h -3.0439 z"
       style="fill:#ffffff;fill-rule:evenodd;stroke-width:0.925882"
       id="path52" />
    <path
       d="m 100.9335,148.4944 2.6959,0.2234 -1.0003,8.57334 -2.7395,-0.26086 z"
       style="fill:#ffffff;fill-rule:evenodd;stroke-width:0.925882"
       id="path53" />
    <path
       d="m 93.1503,146.8543 2.4346,0.52173 c 1.1306,0.26086 2.0441,0.70783 2.6527,1.34177 0.6524,0.59665 0.8264,1.41671 0.4784,2.46024 -0.2177,0.70784 -0.6087,1.30441 -1.261,1.78936 -0.6092,0.48417 -1.6525,0.52172 -3.1747,0.18645 h -0.0431 c -0.0436,0 -0.0436,-0.0374 -0.0873,-0.0374 h -0.043 c -0.0437,0 -0.0437,-0.0375 -0.0873,-0.0375 l -0.8262,2.68364 -2.6087,-0.59613 z"
       style="fill:#ffffff;fill-rule:evenodd;stroke-width:0.925882"
       id="path54" />
    <path
       d="m 87.367,144.43109 2.9565,1.22999 -2.3042,8.57377 -2.6528,-1.081 0.3479,-1.04388 -1.6089,-0.67106 -0.6953,0.89489 -2.6528,-1.08135 z"
       style="fill:#ffffff;fill-rule:evenodd;stroke-width:0.925882"
       id="path55" />
    <path
       d="m 78.7138,149.64956 c -0.174,-0.0372 -0.3479,-0.0742 -0.5219,-0.14908 -0.174,-0.0748 -0.3043,-0.14899 -0.4783,-0.22349 -0.0867,-0.0374 -0.1304,-0.0748 -0.2176,-0.11221 -0.0431,-0.037 -0.1304,-0.0742 -0.1734,-0.14865 -0.0437,-0.0374 -0.131,-0.0748 -0.174,-0.11222 -0.0436,-0.0374 -0.0873,-0.0742 -0.131,-0.11187 -0.6516,-0.55859 -0.9996,-1.3416 -1.0869,-2.3109 -0.0867,-0.93167 0.3916,-1.90097 1.3046,-2.87027 1.2609,-1.26745 2.4788,-1.97529 3.6961,-2.08751 1.1742,-0.14864 2.2175,0.11222 3.0874,0.74582 0.0867,0.0742 0.174,0.14907 0.3044,0.22331 0.0867,0.0744 0.1739,0.14925 0.2607,0.224 0.0873,0.0745 0.1739,0.18611 0.2612,0.26087 0.0431,0.0745 0.1303,0.18611 0.2171,0.26095 l -1.783,1.82621 c -0.043,-0.0745 -0.043,-0.14865 -0.0867,-0.22349 0,-0.0748 -0.0436,-0.14907 -0.0436,-0.22348 -0.0867,-0.14925 -0.1304,-0.26087 -0.2176,-0.37317 -0.0867,-0.11178 -0.2171,-0.18602 -0.3044,-0.26086 -0.3473,-0.26086 -0.8256,-0.3351 -1.3912,-0.18603 -0.6086,0.14865 -1.1306,0.48435 -1.6526,1.00608 -0.565,0.55919 -0.8693,1.081 -0.9129,1.60273 -0.0867,0.52241 0.0873,0.89489 0.4346,1.15584 0.0873,0.0747 0.2176,0.11221 0.348,0.18636 0.174,0.037 0.3043,0.0745 0.4783,0.0745 0.1303,0.0374 0.2613,0.0374 0.3916,0.0374 0.1304,0 0.2607,0 0.391,-0.0374 z"
       style="fill:#ffffff;fill-rule:evenodd;stroke-width:0.925882"
       id="path56" />
    <path
       d="m 132.3713,66.263612 3.5221,0.223658 -0.913,11.108245 -3.5221,-0.223744 z"
       style="fill:#7b1a31;fill-opacity:1;fill-rule:evenodd;stroke-width:0.925882"
       id="path57" />
    <path
       d="m 124.3704,68.574519 -1.8696,-0.111615 0.1742,-2.75848 7.5223,0.335444 -0.1738,2.795857 -2.0005,-0.111958 -0.5213,8.349679 -3.6526,-0.186282 z"
       style="fill:#7b1a31;fill-opacity:1;fill-rule:evenodd;stroke-width:0.925882"
       id="path58" />
    <path
       d="m 111.4561,65.518056 3.2616,0.03712 c 1.8694,0.03721 3.2178,0.372907 4.0869,1.006419 0.87,0.596565 1.3046,1.453736 1.3485,2.572199 v 0.260863 c 0,0.111958 0,0.186367 -0.0439,0.298239 0,0.111872 0,0.186368 -0.0434,0.298154 -0.1305,0.559103 -0.3912,1.04371 -0.7828,1.491198 -0.3479,0.40994 -0.8261,0.63377 -1.3475,0.63377 l 2.478,4.659446 -3.7825,-0.03746 -1.7394,-4.54766 -0.0873,4.510284 -3.5658,-0.07432 z"
       style="fill:#7b1a31;fill-opacity:1;fill-rule:evenodd;stroke-width:0.925882"
       id="path59" />
    <path
       d="m 98.6287,71.184007 c 0,-1.901052 0.4353,-3.354873 1.3919,-4.324087 0.9129,-0.969214 2.0435,-1.490941 3.3045,-1.490941 1.7828,0 3.0438,0.596308 3.8264,1.714685 0.7826,1.118119 1.1742,2.385573 1.1742,3.764813 0,2.087591 -0.4352,3.615823 -1.3482,4.584865 -0.8693,0.932095 -2.0872,1.416445 -3.6524,1.416445 -1.435,0 -2.5656,-0.559188 -3.3918,-1.677308 -0.8263,-1.155496 -1.261,-2.460155 -1.3046,-3.988472 z"
       style="fill:#7b1a31;fill-opacity:1;fill-rule:evenodd;stroke-width:0.925882"
       id="path60" />
    <path
       d="m 87.584,66.002749 3.1747,-0.26112 c 1.5653,-0.111787 2.8699,0.223658 3.9132,0.782846 1.0439,0.559189 1.6525,1.677308 1.7393,3.056548 0.0436,0.969129 -0.2171,1.826643 -0.7827,2.609318 -0.565,0.782847 -1.8696,1.230077 -3.8701,1.267454 0,0 -0.043,0 -0.0867,0 0,0 -0.0436,0 -0.0873,0 0,0 -0.043,0 -0.0867,0 -0.0436,0 -0.0436,0 -0.0873,0 l 0.131,3.541155 -3.5221,0.111701 z"
       style="fill:#7b1a31;fill-opacity:1;fill-rule:evenodd;stroke-width:0.925882"
       id="path61" />
    <path
       d="m 78.4962,73.830444 c 0.0873,0.07484 0.174,0.112044 0.2176,0.186539 0.0867,0.07432 0.1304,0.111701 0.2176,0.186368 0.3474,0.260949 0.739,0.484607 1.087,0.596307 0.348,0.149163 0.6523,0.186539 0.9566,0.186539 0.2607,-0.03738 0.4783,-0.112043 0.6523,-0.260863 0.174,-0.186539 0.2607,-0.372992 0.2607,-0.59665 0,-0.111701 -0.0436,-0.223401 -0.1304,-0.29824 -0.0436,-0.07432 -0.1303,-0.186282 -0.2612,-0.260949 -0.1734,-0.149077 -0.391,-0.298239 -0.6087,-0.447145 -0.2606,-0.111957 -0.5213,-0.26112 -0.8263,-0.447488 -0.4346,-0.260863 -0.8256,-0.596307 -1.2172,-1.006247 -0.348,-0.410112 -0.6087,-0.894805 -0.6523,-1.528489 -0.0867,-1.230077 0.2612,-2.199291 1.0439,-2.907385 0.8256,-0.708266 1.7392,-1.081172 2.7825,-1.155496 0.1304,0 0.3044,0 0.4347,0 0.1739,0 0.348,0.03712 0.4783,0.03712 0.2612,0.03721 0.5219,0.07467 0.7832,0.149248 0.217,0.0745 0.4783,0.149077 0.6954,0.260863 l 0.2613,3.205625 c -0.4353,-0.372563 -0.8264,-0.596307 -1.218,-0.745384 -0.348,-0.111872 -0.6953,-0.186368 -0.9566,-0.148991 -0.2607,0 -0.4346,0.07432 -0.6086,0.18611 -0.1304,0.111958 -0.2176,0.26112 -0.2607,0.372821 v 0.03721 c 0,0 0,0 0,0.03738 0.0431,0.149163 0.0867,0.33553 0.2607,0.447402 0.1303,0.149163 0.3043,0.260864 0.4783,0.410026 0.174,0.07441 0.3479,0.186282 0.5219,0.260949 0.217,0.111701 0.391,0.186196 0.565,0.298325 0.4783,0.260864 0.87,0.596308 1.261,1.043539 0.3916,0.410026 0.6092,1.04371 0.6959,1.863761 0,0.07458 0,0.149249 0,0.223744 0,0.07432 0,0.111701 0,0.186368 -0.0436,0.820051 -0.3916,1.528317 -1.0002,2.236411 -0.6524,0.670889 -1.6089,1.080914 -2.9135,1.155753 -0.391,0 -0.7827,0 -1.261,-0.03738 -0.4347,-0.03746 -0.913,-0.149162 -1.4349,-0.260948 z"
       style="fill:#7b1a31;fill-opacity:1;fill-rule:evenodd;stroke-width:0.925882"
       id="path62" />
    <path
       d="m 56.7984,69.357537 2.6092,-0.410026 c 1.9999,-0.260949 3.5652,0.07432 4.6958,0.931752 1.1306,0.894547 1.7392,2.124796 1.7829,3.727694 0.0436,2.012753 -0.391,3.503694 -1.3046,4.472994 -0.9566,1.00659 -2.1302,1.565693 -3.5652,1.751975 l -3.9574,0.521812 z"
       style="fill:#7b1a31;fill-opacity:1;fill-rule:evenodd;stroke-width:0.925882"
       id="path63" />
    <path
       d="m 67.9298,67.717348 6.4793,-0.670889 0.1303,2.534564 -2.9571,0.29824 0.0873,1.640189 2.6958,-0.260949 0.1304,2.534736 -2.6959,0.260863 0.0873,1.752147 2.9565,-0.29824 0.174,2.571942 -6.4786,0.596564 z"
       style="fill:#8b1d37;fill-rule:evenodd;stroke-width:0.925882"
       id="path64" />
    <path
       d="m 152.1126,68.276622 4.1747,0.596222 1.2173,11.406312 -3.7399,-0.521726 -0.0432,-1.416616 -2.3048,-0.298068 -0.4782,1.304658 -3.7399,-0.521812 z"
       style="fill:#7b1a31;fill-opacity:1;fill-rule:evenodd;stroke-width:0.925882"
       id="path65" />
    <path
       d="m 138.4589,66.748134 3.7399,0.298325 0.3043,7.454874 2.1307,-7.194011 3.9133,0.521812 -4.7394,10.660842 -3.6095,-0.410025 z"
       style="fill:#7b1a31;fill-opacity:1;fill-rule:evenodd;stroke-width:0.925882"
       id="path66" />
    <path
       d="m 114.8916,70.811015 c 0.0432,0 0.0432,0 0.0432,0 0.0434,0 0.0434,0 0.0434,0 h 0.0439 0.0429 c 0,0.03746 0.0436,0.03746 0.0436,0.03746 0.3916,0 0.7396,-0.149162 1.0003,-0.372649 0.2606,-0.26112 0.3916,-0.559189 0.4348,-0.857428 0,-0.03738 0,-0.03738 0,-0.03738 0,0 0,0 0,-0.0372 v -0.223744 c 0,-0.335359 -0.1305,-0.670889 -0.3912,-0.894376 -0.2613,-0.261035 -0.6523,-0.410369 -1.1743,-0.410369 z"
       style="fill:#ffffff;fill-rule:evenodd;stroke-width:0.925882"
       id="path67" />
    <path
       d="m 102.1077,71.184007 c 0,0.969129 0.1304,1.677223 0.391,2.199292 0.2607,0.484522 0.522,0.782847 0.87,0.820052 h 0.043 c 0.0437,0 0.0437,0 0.0437,0 0.348,0 0.6523,-0.260863 0.9566,-0.745556 0.3043,-0.521727 0.4783,-1.267454 0.5219,-2.273788 v -0.223829 c 0,-0.820052 -0.1303,-1.453564 -0.3915,-1.900967 -0.2171,-0.447402 -0.5214,-0.708351 -0.8263,-0.782589 -0.0431,-0.03746 -0.0431,-0.03746 -0.0867,-0.03746 -0.0437,0 -0.0867,0 -0.0867,0 -0.0437,0 -0.0437,0 -0.0437,0 0,0 0,0 -0.0436,0 -0.3043,0 -0.6523,0.260863 -0.913,0.782675 -0.3043,0.484779 -0.4347,1.192873 -0.4347,2.162172 z"
       style="fill:#ffffff;fill-rule:evenodd;stroke-width:0.925882"
       id="path68" />
    <path
       d="m 91.3237,70.99764 c 0,0 0,0 0.0437,0 h 0.043 c 0,0.03712 0.0437,0.03712 0.0437,0.03712 0.0436,0 0.0436,0 0.0436,0 0.4347,-0.03712 0.7827,-0.14882 1.0003,-0.40994 0.2171,-0.260863 0.3474,-0.670975 0.3474,-1.006419 0,0 0,0 0,-0.03738 v -0.0372 C 92.8023,69.171 92.6283,68.872846 92.324,68.574521 92.0627,68.313657 91.6717,68.313657 91.1934,68.350862 Z"
       style="fill:#ffffff;fill-rule:evenodd;stroke-width:0.925882"
       id="path69" />
    <path
       d="m 60.5382,77.334309 h 0.0431 c 0.0436,0 0.0436,-0.03712 0.0872,-0.03712 0,0.03712 0,0.03712 0,0.03712 h 0.0431 c 0,0 0,0 0.0436,0 0,0 0,0 0.0437,-0.03712 0.5219,-0.03738 0.9129,-0.372736 1.1743,-0.969129 0.2606,-0.559188 0.391,-1.192701 0.391,-1.863761 0,-0.03729 0,-0.03729 0,-0.03729 0,0 0,0 0,-0.03738 -0.0437,-0.708352 -0.2171,-1.37924 -0.522,-1.975634 -0.3044,-0.559188 -0.8257,-0.820051 -1.478,-0.745384 z"
       style="fill:#ffffff;fill-rule:evenodd;stroke-width:0.925882"
       id="path70" />
    <path
       d="m 153.6781,75.880573 v -4.547574 l -1.435,4.361292 z"
       style="fill:#ffffff;fill-rule:evenodd;stroke-width:0.925882"
       id="path71" />
    <path
       d="m 130.3279,143.49917 2.5652,-1.71494 7.9138,5.66621 -2.348,1.52831 -0.913,-0.7453 -1.435,0.93133 0.6086,0.93235 -2.3477,1.52789 z"
       style="fill:#ffffff;fill-rule:evenodd;stroke-width:0.925882"
       id="path72" />
    <path
       d="m 135.9807,146.89108 -2.9135,-2.49702 2.0001,3.09358 z"
       style="fill:#8b1d37;fill-rule:evenodd;stroke-width:0.925882"
       id="path73" />
    <path
       d="m 126.1971,149.09062 h 0.0434 0.0432 c 0.0436,0 0.0872,0 0.1304,0 0.0434,-0.0371 0.0873,-0.0371 0.0873,-0.0371 0.2175,-0.0748 0.3909,-0.18697 0.4781,-0.33571 0.0867,-0.18662 0.1739,-0.33561 0.1306,-0.44748 0,-0.0369 0,-0.0742 0,-0.11162 0,0 0,-0.0375 -0.0439,-0.0748 -0.0867,-0.18611 -0.2605,-0.33536 -0.5214,-0.44697 -0.2175,-0.11222 -0.5655,-0.11222 -1.0003,0.0375 z"
       style="fill:#8b1d37;fill-rule:evenodd;stroke-width:0.925882"
       id="path74" />
    <path
       d="m 119.1528,153.4148 -1.3914,-3.31767 0.2607,3.54107 z"
       style="fill:#8b1d37;fill-rule:evenodd;stroke-width:0.925882"
       id="path75" />
    <path
       d="m 94.5852,151.25245 h 0.043 c 0,0.0372 0.0437,0.0372 0.0437,0.0372 0,0 0,0 0.0436,0 0,0 0,0 0.0437,0.0376 0.3043,0.0368 0.565,0.0368 0.8257,-0.11187 0.2176,-0.14959 0.3916,-0.33562 0.4783,-0.5591 v -0.0375 -0.0374 c 0.0436,-0.29833 0,-0.55927 -0.1303,-0.82014 -0.1304,-0.26086 -0.3911,-0.40985 -0.7391,-0.48435 z"
       style="fill:#8b1d37;fill-rule:evenodd;stroke-width:0.925882"
       id="path76" />
    <path
       d="m 127.7187,152.25896 c 0,0 0.0434,0 0.0434,-0.0374 0.0439,0 0.0439,0 0.0439,0.0374 0.0865,-0.0374 0.1302,-0.0374 0.1738,-0.0374 0.0866,-0.0375 0.1305,-0.0375 0.1739,-0.0375 0,0 0,-0.037 0.0432,-0.037 0.0873,-0.0372 0.1738,-0.0742 0.2177,-0.14907 0.0434,-0.0374 0.0866,-0.0748 0.1303,-0.14908 0.0872,-0.11179 0.1301,-0.26086 0.1301,-0.37274 0,-0.14899 0,-0.29824 -0.0865,-0.41045 -0.0873,-0.18603 -0.2607,-0.33519 -0.5221,-0.40951 -0.2604,-0.1123 -0.5647,-0.0748 -0.8691,0.0374 l -0.2178,0.0742 z"
       style="fill:#8b1d37;fill-rule:evenodd;stroke-width:0.925882"
       id="path77" />
    <path
       d="m 86.4103,150.32053 1.3047,-3.35504 -2.3485,2.90815 z"
       style="fill:#8b1d37;fill-rule:evenodd;stroke-width:0.925882"
       id="path78" />
    <g
       id="Layer1004"
       transform="matrix(1,0,0,0.85725654,0,25.176592)">
      <path
         d="m 116.8049,136.546 c 8.0008,-2.3041 14.7402,-7.6097 18.9583,-14.6103 -3.3919,2.1746 -7.0009,3.9137 -10.8273,4.914 l 0.0432,0.0437 c -2.0867,3.6518 -4.9133,6.8696 -8.1742,9.6526 z m 23.5236,-30.481 c 0.0437,-0.2609 0.0437,-0.522 0.0437,-0.7826 0,-7.8271 -2.8263,-15.0452 -7.4791,-20.6981 1.0003,3.7398 1.435,7.5662 1.2173,11.349 v 0.0436 c 2.696,2.783 4.5663,6.4789 6.2181,10.0881 z M 119.7176,75.0182 c -3.6087,-1.4349 -7.5656,-2.2612 -11.6962,-2.2612 -4.1313,0 -8.0881,0.8263 -11.697,2.2175 4.0005,0.5656 8.1749,1.2612 11.7401,3.0875 3.522,-1.7829 7.6964,-2.4786 11.6531,-3.0438 z M 83.7145,83.8453 C 78.7138,89.585 75.67,97.1075 75.67,105.2824 c 0,0.3043 0,0.6086 0,0.9566 1.6526,-3.6527 3.5221,-7.3053 6.218,-10.0881 h 0.0436 c -0.2176,-4.131 0.6087,-8.2184 1.7829,-12.3056 z m -3.3051,38.3518 c 4.2618,7.0004 11.132,12.2618 19.2196,14.4794 -3.0875,-2.7826 -6.1314,-6.044 -8.1313,-9.5661 h 0.0437 c -3.9138,-0.913 -7.6529,-2.6958 -11.132,-4.9133 z m 36.6997,-5.4793 -0.0436,-0.0865 c 2.2611,-4.8704 4.0439,-10.5663 4.7394,-16.6539 -3.7828,-3.3918 -8.3918,-6.566 -13.6532,-8.8704 -5.305,2.3477 -10.2184,5.5655 -14.0448,9.0007 l 0.0867,0.0436 c 0.6959,6.0004 2.4352,11.6533 4.6964,16.48 l 0.1303,-0.1739 c 3.0874,0.5648 6.2179,0.8262 9.2182,0.8262 2.9571,0.0429 6.2179,-0.1741 8.8706,-0.5658 z"
         style="fill:#69b324;fill-rule:evenodd"
         id="path79" />
    </g>
    <path
       d="m 103.1074,114.34936 c 0.2613,-2.94476 1.3046,-5.18126 3.5221,-6.37413 2.6091,-0.78268 4.6527,-0.29824 5.7395,1.6401 0.5657,1.34187 0.0873,2.23667 -1.5216,2.57186 -0.8261,-0.1117 -1.522,-0.26078 -1.7391,-0.93175 -0.3043,-0.93176 -0.0872,-1.67723 1.0871,-2.38566 -3.2179,-0.22366 -4.1309,4.80878 -0.3916,5.47958 h 4.7398 v 1.23016 h -3.87 v 5.55417 h 3.87 v 0.96913 h -14.306 v -0.96913 h 2.8698 v -5.55417 h -2.8698 v -1.23016 z"
       style="fill:#ffffff;fill-rule:evenodd;stroke-width:0.925882"
       id="path80" />
    <path
       d="m 122.7615,91.350282 c 3.3917,1.602898 6.1313,3.727437 8.7836,6.075891 1.0437,3.205627 1.4348,6.523297 1.2614,9.878167 l -10.0881,2.75848 c -4.0876,-3.13113 -8.8707,-5.66612 -13.8277,-7.60455 l 0.0436,-9.691629 c 3.522,-1.080915 7.2182,-1.938343 11.001,-2.534822 0.9567,0.33553 1.9133,0.708437 2.8262,1.118463 z"
       style="fill:#ffffff;fill-rule:evenodd;stroke-width:0.925882"
       id="path81" />
    <path
       d="m 84.7578,97.239891 c -1.087,3.205629 -1.9132,6.746779 -1.7393,10.064449 l 10.3488,2.94468 c 4.0877,-3.09384 8.7835,-5.85232 13.7406,-7.79075 l 0.2612,-9.76621 c -3.479,-1.453736 -7.4358,-1.975548 -11.2186,-2.460241 -4.5661,1.528489 -8.0445,3.988729 -11.3927,7.008072 z"
       style="fill:#ffffff;fill-rule:evenodd;stroke-width:0.925882"
       id="path82" />
    <path
       d="m 76.409,119.64258 c 0.7396,3.42928 1.9132,6.22479 3.8701,9.24414 3.2614,1.86402 7.3049,3.31767 11.0883,4.13772 l 6.3483,-7.71626 c -2.3048,-4.39824 -3.9568,-9.05751 -4.7394,-13.829 l -10.61,-3.01934 c -3.0002,3.01934 -4.5224,5.92673 -6.1743,9.02082 0.0866,0.78268 0.0866,1.37907 0.217,2.16192 z"
       style="fill:#ffffff;fill-rule:evenodd;stroke-width:0.925882"
       id="path83" />
    <path
       d="m 105.151,142.75396 c 3.6961,0.18602 6.5372,0.15267 10.1027,-0.51813 3.0439,-2.23675 6.421,-5.52065 8.5081,-8.50296 l -7.0443,-7.38072 c -5.7396,0.67098 -12.1315,0.59614 -17.8712,-0.14907 l -6.0009,7.79066 c 2.1308,3.01943 4.957,5.9269 8.0445,8.2378 1.3912,0.26095 2.8262,0.44758 4.2611,0.52242 z"
       style="fill:#ffffff;fill-rule:evenodd;stroke-width:0.925882"
       id="path84" />
    <path
       d="m 139.5896,119.4935 c -0.7391,3.46674 -2.348,6.48609 -4.3048,9.57984 -3.2615,1.82664 -6.8268,3.09367 -10.6533,3.91372 l -6.5658,-7.41758 c 2.696,-4.02585 4.0872,-9.65451 4.7831,-14.12751 l 11.0012,-3.09392 c 2.6957,2.53482 4.4351,5.70333 6.0873,8.797 -0.0873,0.78276 -0.2174,1.56577 -0.3477,2.34845 z"
       style="fill:#ffffff;fill-rule:evenodd;stroke-width:0.925882"
       id="path85" />
  </g>
</svg>
