<?xml version="1.0" encoding="UTF-8" standalone="no"?>
<svg
   version="1.1"
   width="1.5951107in"
   height="1.5982093in"
   viewBox="0 0 114.84797 115.07107"
   id="svg23"
   sodipodi:docname="ec_pelotas-rs.cdr"
   xmlns:inkscape="http://www.inkscape.org/namespaces/inkscape"
   xmlns:sodipodi="http://sodipodi.sourceforge.net/DTD/sodipodi-0.dtd"
   xmlns="http://www.w3.org/2000/svg"
   xmlns:svg="http://www.w3.org/2000/svg">
  <defs
     id="defs23" />
  <sodipodi:namedview
     id="namedview23"
     pagecolor="#ffffff"
     bordercolor="#000000"
     borderopacity="0.25"
     inkscape:showpageshadow="2"
     inkscape:pageopacity="0.0"
     inkscape:pagecheckerboard="0"
     inkscape:deskcolor="#d1d1d1"
     inkscape:document-units="in" />
  <g
     id="Layer1003"
     transform="matrix(1,0,0,0.93130992,-50.575745,-43.045891)">
    <path
       d="m 165.4138,70.8149 c -0.0299,-1.9897 -0.1202,-3.164 -0.1346,-3.3388 l -0.1956,-2.3765 -2.289,0.6772 c -0.9126,0.2699 -17.0982,4.8489 -34.6505,-3.3774 -3.3252,-1.5574 -6.6967,-3.5735 -10.024,-6.1659 -2.9387,-2.2904 -5.8443,-5.028 -8.6478,-8.2975 l -1.472,-1.7152 -1.4713,1.7152 c -4.5123,5.2609 -9.285,9.148 -14.0467,12.004 -1.2909,0.7748 -2.5821,1.4747 -3.8657,2.1033 -1.892,0.9257 -3.7683,1.6938 -5.6157,2.339 -15.5786,5.4448 -28.9694,1.6836 -29.7976,1.44 l -2.2842,-0.6727 -0.1977,2.3723 c -0.058,0.7 -1.3385,17.3742 4.9224,38.3542 0.0695,0.2338 0.1523,0.4774 0.2244,0.7125 0.5397,1.7654 1.1354,3.5793 1.8122,5.4494 0.4314,1.193 0.8902,2.4019 1.383,3.6287 2.2249,5.5398 5.0956,11.3951 8.7923,17.2681 1.7499,2.7816 3.6907,5.5649 5.832,8.3229 4.5043,5.8009 9.9191,11.4816 16.4244,16.7509 4.9884,4.043 10.6121,7.8464 16.9686,11.2741 l 0.0834,0.0454 0.8362,0.451 0.9202,-0.4964 c 8.2567,-4.4513 15.2809,-9.5376 21.2736,-14.9618 4.9788,-4.5088 9.2437,-9.2509 12.8867,-14.066 5.387,-7.1188 9.426,-14.39 12.4561,-21.282 2.0214,-4.5951 3.5976,-9.0226 4.8195,-13.1201 0.1886,-0.6286 0.3677,-1.2524 0.5424,-1.8735 2.0239,-7.2146 3.1674,-13.8637 3.7974,-19.4559 0.6743,-5.9764 0.7629,-10.7478 0.7176,-13.7085 z"
       style="fill:#1d5489;fill-rule:evenodd"
       id="path10" />
    <path
       d="m 114.3917,58.1303 c 2.7747,2.2806 5.5954,4.1775 8.4117,5.7503 l -30.6149,8.495 c 0.093,-1.0343 0.1656,-2.0583 0.2217,-3.0717 z"
       style="fill:#ffde09;fill-rule:evenodd"
       id="path11" />
    <path
       d="m 59.7647,106.0565 c -0.1194,-0.3821 -0.251,-0.7735 -0.3633,-1.1488 C 55.1102,90.5959 54.469,78.1263 54.469,71.9536 c 0,-0.72 0.0095,-1.3317 0.022,-1.8727 4.7635,0.9195 16.1365,2.2868 28.9146,-1.9017 1.7133,-0.5616 3.4511,-1.2193 5.2025,-1.9949 -0.0383,1.6871 -0.123,3.4236 -0.2653,5.1882 -0.0567,0.7045 -0.1262,1.4141 -0.2023,2.1258 -0.207,1.9315 -0.4911,3.884 -0.8643,5.8311 -0.1784,0.9328 -0.3741,1.8652 -0.5957,2.7928 -0.4136,1.7259 -0.9031,3.4365 -1.4849,5.1108 -0.2129,0.6133 -0.44,1.2203 -0.6778,1.8228 -0.6479,1.6422 -1.3865,3.2433 -2.2329,4.7803 -0.1536,0.2796 -0.3185,0.5429 -0.4774,0.814 -0.3054,0.5218 -0.6193,1.0299 -0.9431,1.5237 -1.0841,1.6536 -2.2662,3.1569 -3.5278,4.5229 -0.483,0.5228 -0.9759,1.0278 -1.4801,1.5113 -1.7733,1.6983 -3.6667,3.1632 -5.6317,4.4162 -0.7315,0.4661 -1.4729,0.8984 -2.2195,1.309 -2.1734,1.1955 -4.4007,2.172 -6.6155,2.9546 -0.6032,-1.6536 -1.1348,-3.2599 -1.6251,-4.8313 z"
       style="fill:#ffde09;fill-rule:evenodd"
       id="path12" />
    <path
       d="m 67.9019,125.3172 0.0774,-13.0079 c 0.8969,-0.4396 1.7892,-0.9058 2.6721,-1.4134 l 2.2663,22.6596 c -1.8607,-2.7499 -3.5264,-5.5066 -5.0158,-8.2383 z"
       style="fill:#ffde09;fill-rule:evenodd"
       id="path13" />
    <path
       d="M 88.4309,151.4284 76.943,106.4639 c 0.7054,-0.6047 1.3933,-1.2468 2.0674,-1.9156 l 25.5577,58.8057 C 98.4662,159.6939 93.1168,155.67 88.4309,151.4284 Z"
       style="fill:#ffde09;fill-rule:evenodd"
       id="path14" />
    <path
       d="M 127.6679,151.343 83.4758,99.2525 c 0.5068,-0.7268 0.9899,-1.4908 1.4593,-2.2741 l 55.0174,40.9487 c -3.4801,4.5898 -7.5447,9.1137 -12.2846,13.4159 z"
       style="fill:#ffde09;fill-rule:evenodd"
       id="path15" />
    <path
       d="m 156.5991,104.8841 c -1.1781,3.9307 -2.6946,8.1758 -4.64,12.5814 L 88.0902,90.5612 c 0.3273,-0.8215 0.64,-1.6478 0.9239,-2.4832 l 68.0845,15.061 c -0.1634,0.5803 -0.3237,1.1582 -0.4995,1.7451 z"
       style="fill:#ffde09;fill-rule:evenodd"
       id="path16" />
    <path
       d="m 90.655,82.2445 c 0.2552,-1.1172 0.4763,-2.2374 0.6732,-3.3569 l 70.1984,-7.6495 c 0.002,0.2186 0.005,0.4309 0.005,0.6722 0,2.9131 -0.1485,7.2419 -0.7496,12.4923 z"
       style="fill:#ffde09;fill-rule:evenodd"
       id="path17" />
    <path
       d="m 67.4558,79.7258 c 0.4238,0 3.7241,0 3.7241,0 v -1.2835 c 0,0 -3.3003,0 -3.7241,0 0,-0.3275 0,-1.2483 0,-1.5751 0.4274,0 3.9779,0 3.9779,0 V 75.5837 H 71.192 66.0785 v 7.2171 h 5.5154 v -1.2843 c 0,0 -3.708,0 -4.1381,0 0,-0.3406 0,-1.4498 0,-1.7907 z"
       style="fill:#1d5489;fill-rule:evenodd"
       id="path18" />
    <path
       d="m 74.7251,81.3758 h -0.2426 -1.1827 v 1.425 h 1.4253 z"
       style="fill:#1d5489;fill-rule:evenodd"
       id="path19" />
    <path
       d="m 66.1378,91.2607 c -0.1515,0.6938 -0.5763,1.5211 -1.7379,1.5211 -0.5583,0 -1.0665,-0.2228 -1.3951,-0.6109 -0.4742,-0.5531 -0.5257,-1.5282 -0.5257,-1.9217 0,-0.9031 0.2599,-2.4189 1.9964,-2.4189 1.0205,0 1.3639,0.6289 1.5648,1.2442 l 0.0694,0.2118 1.3386,-0.3173 -0.0696,-0.2437 c -0.3886,-1.3606 -1.4439,-2.1407 -2.8946,-2.1407 -1.5736,0 -3.4116,0.9618 -3.4116,3.6742 0,0.5193 0.0908,1.8312 0.9345,2.8016 0.5557,0.6421 1.3858,0.9672 2.4685,0.9672 0.72,0 2.4571,-0.237 3.0175,-2.4298 l 0.0602,-0.2351 -1.362,-0.3473 z"
       style="fill:#1d5489;fill-rule:evenodd"
       id="path20" />
    <path
       d="m 67.9397,92.4896 v 1.425 h 1.4254 v -1.425 h -0.2424 z"
       style="fill:#1d5489;fill-rule:evenodd"
       id="path21" />
    <path
       d="m 78.1118,88.8861 c 0,-0.6871 -0.2684,-1.3006 -0.7373,-1.6831 -0.6118,-0.5055 -1.472,-0.5055 -2.1004,-0.5055 h -2.5388 -0.2417 v 7.2171 h 1.3771 c 0,0 0,-2.3248 0,-2.7269 0.358,0 1.4788,0 1.4788,0 0.4341,0 0.9585,-0.0334 1.5601,-0.2818 0.7308,-0.3046 1.2022,-1.0976 1.2022,-2.0198 z m -1.4057,0.0281 c 0,0.6839 -0.4154,0.9898 -1.3473,0.9898 0,0 -1.1293,0 -1.4881,0 0,-0.3479 0,-1.5749 0,-1.923 0.3575,0 1.4694,0 1.4694,0 0.565,0 0.8477,0.0096 1.0788,0.219 0.2498,0.2252 0.2872,0.5439 0.2872,0.7142 z"
       style="fill:#1d5489;fill-rule:evenodd"
       id="path22" />
    <path
       d="m 78.3692,92.4896 h -1.183 v 1.425 h 1.4253 v -1.425 z"
       style="fill:#1d5489;fill-rule:evenodd"
       id="path23" />
  </g>
</svg>
