<?xml version="1.0" encoding="UTF-8" standalone="no"?>
<svg
   version="1.1"
   width="1.6214805in"
   height="1.6214805in"
   viewBox="0 0 116.74659 116.74659"
   id="svg42"
   sodipodi:docname="ec_sao_bento-sp.cdr"
   xmlns:inkscape="http://www.inkscape.org/namespaces/inkscape"
   xmlns:sodipodi="http://sodipodi.sourceforge.net/DTD/sodipodi-0.dtd"
   xmlns="http://www.w3.org/2000/svg"
   xmlns:svg="http://www.w3.org/2000/svg">
  <defs
     id="defs42" />
  <sodipodi:namedview
     id="namedview42"
     pagecolor="#ffffff"
     bordercolor="#000000"
     borderopacity="0.25"
     inkscape:showpageshadow="2"
     inkscape:pageopacity="0.0"
     inkscape:pagecheckerboard="0"
     inkscape:deskcolor="#d1d1d1"
     inkscape:document-units="in" />
  <g
     id="Layer1003"
     transform="translate(-49.626698,-49.626698)">
    <path
       d="m 49.6267,107.9997 c 0,32.1866 26.1861,58.3736 58.3732,58.3736 32.1864,0 58.3734,-26.187 58.3734,-58.3736 0,-32.1869 -26.187,-58.373 -58.3734,-58.373 -32.1871,0 -58.3732,26.1861 -58.3732,58.373 z"
       style="fill:#004394;fill-rule:evenodd"
       id="path10" />
    <path
       d="m 51.1578,107.9997 c 0,31.3433 25.4994,56.8425 56.8421,56.8425 31.3431,0 56.8423,-25.4992 56.8423,-56.8425 0,-31.3425 -25.4992,-56.8419 -56.8423,-56.8419 -31.3427,0 -56.8421,25.4994 -56.8421,56.8419 z"
       style="fill:#ffffff;fill-rule:evenodd"
       id="path11" />
    <path
       d="m 65.1291,107.9997 c 0,23.64 19.2318,42.8712 42.8708,42.8712 23.6398,0 42.871,-19.2312 42.871,-42.8712 0,-23.6388 -19.2312,-42.8706 -42.871,-42.8706 -23.639,0 -42.8708,19.2318 -42.8708,42.8706 z"
       style="fill:#004394;fill-rule:evenodd"
       id="path12" />
    <path
       d="m 66.6602,107.9997 c 0,-22.7948 18.5447,-41.3395 41.3397,-41.3395 22.7948,0 41.3399,18.5447 41.3399,41.3395 0,22.795 -18.5451,41.3401 -41.3399,41.3401 -22.795,0 -41.3397,-18.5451 -41.3397,-41.3401 z"
       style="fill:#ffffff;fill-rule:evenodd"
       id="path13" />
    <path
       d="m 132.3753,109.1145 c -0.9615,-1.4907 -2.1876,-2.4379 -3.6782,-2.8423 1.2603,-0.8216 2.2053,-1.8564 2.8349,-3.1034 0.6294,-1.247 0.945,-2.707 0.945,-4.3795 0,-2.2009 -0.628,-3.8867 -1.884,-5.0574 -1.256,-1.1708 -3.0549,-1.7562 -5.3993,-1.7562 h -3.946 c 0.0598,-0.6317 0.0897,-1.4481 0.0897,-2.4581 0,-1.7465 -0.106,-3.0727 -0.3153,-3.9819 -0.2094,-0.9079 -0.5802,-1.6526 -1.1095,-2.2357 -0.8838,-0.9779 -1.8435,-1.7116 -2.8814,-2.2009 -1.0375,-0.4886 -2.1754,-0.7338 -3.4119,-0.7338 -2.1251,0 -3.9501,0.9383 -5.4796,2.8058 -0.4284,-0.4434 -0.9162,-0.7865 -1.7075,-1.2619 -1.4653,-0.8807 -2.7083,-1.2624 -4.2722,-1.2624 -2.2264,0 -4.9107,1.5932 -6.696,3.5071 -1.5662,1.6787 -3.1807,4.6634 -4.357,7.8218 h -6.9857 c -0.4919,0 -0.853,0.1076 -1.0847,0.3229 -0.2318,0.2153 -0.3477,0.5511 -0.3477,1.0086 0,0.527 0.2033,0.9778 0.6115,1.3524 0.0561,0.0553 0.1055,0.1039 0.1473,0.1458 0.225,0.2363 0.3619,0.4373 0.4113,0.6033 0.0493,0.1659 0.0739,0.4299 0.0739,0.7902 v 22.2769 0.2093 c 0,0.4739 -0.0455,0.8015 -0.1361,0.9823 -0.0904,0.1808 -0.2751,0.3694 -0.5532,0.5635 -0.3484,0.2512 -0.5682,0.4801 -0.6586,0.6895 -0.0905,0.2093 -0.1354,0.4814 -0.1354,0.8149 0,0.3768 0.0868,0.6623 0.2602,0.8567 0.1734,0.196 0.4336,0.2931 0.7805,0.2931 h 6.6522 c 0.6015,1.8195 1.277,2.9844 2.3812,4.6052 1.0138,1.4743 2.1172,2.5748 3.3089,3.3001 1.1917,0.725 2.515,1.0885 3.9713,1.0885 1.1334,0 2.1965,-0.2245 3.1911,-0.6731 0.7543,0.7224 1.5673,1.337 2.2276,1.7616 2.4469,1.5714 5.4761,1.7524 7.0479,1.7524 7.2324,0 12.5179,-5.0658 13.2356,-11.8347 h 0.3963 c 2.506,0 4.4514,-0.7596 5.8373,-2.2773 1.3846,-1.5192 2.077,-3.6438 2.077,-6.3745 0,-1.922 -0.4801,-3.6281 -1.4414,-5.1188 z m -5.202,-12.9283 c 0.6326,0.6063 0.9496,1.6477 0.9496,3.1243 0,1.7689 -1.3788,3.2072 -2.6033,4.3152 -1.1632,1.0533 -4.8162,1.6738 -7.0155,1.8637 -0.0568,-0.0493 -0.1137,-0.0979 -0.1824,-0.1532 -0.0493,-0.0404 -0.1003,-0.0763 -0.1509,-0.1136 v -8.5243 c 0,-0.5846 0.1044,-0.9682 0.3137,-1.1491 0.208,-0.1809 0.7716,-0.2721 1.6912,-0.2721 h 3.6051 c 1.6282,0 2.7586,0.3035 3.3925,0.9091 z m -9.0025,17.4012 c 0.9119,1.022 2.3413,2.831 2.5865,6.1488 -0.248,-0.006 -0.4872,-0.009 -0.7058,-0.009 -0.8357,0 -1.359,-0.1047 -1.567,-0.314 -0.2093,-0.2094 -0.3137,-0.6894 -0.3137,-1.443 z M 113.8809,84.67 c 0.9719,0 1.8211,0.39 2.5508,1.1693 0.7283,0.7798 1.3351,1.9378 1.8212,3.4734 0.1106,0.2808 0.2316,0.6878 0.3648,1.223 0.1316,0.5033 0.2676,0.9914 0.4067,1.44 h -4.6487 c -0.6339,0 -1.0839,0.1256 -1.3531,0.3761 -0.2677,0.2512 -0.4021,0.669 -0.4021,1.2536 0,0.5578 0.2811,1.0385 0.8447,1.4422 0.1509,0.1114 0.2751,0.2019 0.3708,0.2714 0.0957,0.0837 0.1645,0.2302 0.2064,0.4388 0.0403,0.2094 0.0614,0.5226 0.0614,0.9405 v 6.6694 c -1.8692,-0.7745 -2.9349,-1.3898 -3.8409,-1.9041 -1.7778,-1.0101 -3.1942,-3.1878 -2.426,-8.1079 0.2871,1.6306 0.7139,2.447 1.2837,2.447 0.3528,0 0.619,-0.2631 0.7954,-0.7925 0.1764,-0.5278 0.2645,-1.3202 0.2645,-2.3789 0,-3.3014 -0.0671,-4.683 -0.1987,-5.6743 -0.002,-0.0187 -0.007,-0.0344 -0.009,-0.0531 0.856,-1.1767 2.1752,-2.2339 3.9081,-2.2339 z M 87.4257,97.9962 c 0,-1.2261 0.1151,-2.0095 0.3454,-2.3505 0.2303,-0.3409 0.6729,-0.5121 1.3286,-0.5121 h 1.0155 c -0.4702,1.7741 -0.8414,3.6079 -1.1112,5.5031 -0.1717,1.1999 -0.2991,2.4298 -0.3896,3.6835 h -1.1887 z m 0.2721,21.2286 c -0.1816,-0.2079 -0.2721,-0.6294 -0.2721,-1.2666 v -9.9539 h 1.0434 c -0.0023,0.2183 -0.0109,0.4328 -0.0109,0.6527 0,3.9338 0.1263,7.5581 0.8107,10.8788 h -0.2948 c -0.6699,0 -1.0953,-0.1031 -1.2763,-0.311 z m 11.843,8.3478 c -2.0672,0 -3.7441,-1.5761 -5.0419,-4.6875 h 5.0246 c 0.0112,1.1005 0.2168,2.3638 0.625,3.7964 0.1185,0.4155 0.2083,0.6878 0.2912,0.9016 -0.3162,0.007 -0.6149,-0.0105 -0.8989,-0.0105 z m 19.6048,-0.6371 c -2.3744,3.2432 -5.1766,3.5347 -6.7436,3.5347 -2.1024,0 -4.3146,-0.4872 -6.0488,-1.9422 0.8001,-0.9689 1.5405,-2.1455 2.2201,-3.5391 0.3962,-0.8134 0.6998,-1.5924 0.9091,-2.34 0.2093,-0.7476 0.3154,-1.4279 0.3154,-2.0439 0,-0.703 -0.112,-1.2965 -0.3333,-1.781 -0.2213,-0.483 -0.4771,-0.725 -0.7656,-0.725 -0.4007,0 -0.933,1.2065 -1.5983,2.5732 -0.2662,0.5292 -0.4771,0.927 -0.6325,1.1916 -0.6453,1.2412 -1.5521,2.5554 -2.2993,3.4808 -0.2093,-0.5143 -0.4007,-1.066 -0.5739,-1.6581 -0.0896,-0.3961 -0.2332,-0.9794 -0.4336,-1.7478 -0.3625,-1.5702 -0.7677,-2.5554 -1.2155,-2.9651 0.0164,-0.4456 0.0254,-0.9316 0.0254,-1.4653 0,-0.444 -0.0979,-0.7925 -0.2923,-1.0421 -0.1952,-0.2498 -0.453,-0.3754 -0.773,-0.3754 -0.4599,0 -0.9264,0.4081 -1.3996,1.2247 -0.2227,0.3872 -0.397,0.6503 -0.5218,0.7879 -0.5016,0.5263 -1.0347,0.8955 -1.5984,1.1109 -0.5637,0.2138 -1.4586,0.3215 -2.6832,0.3215 h -1.2936 c -0.7824,-3.1414 -1.1865,-6.9853 -1.2127,-11.5315 h 2.6947 c 0.6557,0 1.2628,0.2319 1.8205,0.6938 0.5577,0.4627 0.9277,0.6938 1.1095,0.6938 0.3902,0 0.669,-0.1466 0.8364,-0.4412 0.1675,-0.2937 0.2512,-0.7909 0.2512,-1.4907 v -2.6584 c 0,-0.5308 -0.0942,-0.9435 -0.2825,-1.2373 -0.1884,-0.293 -0.4501,-0.4403 -0.7842,-0.4403 -0.3349,0 -0.6908,0.2033 -1.0676,0.6086 -0.1256,0.1405 -0.2236,0.2385 -0.2931,0.2938 -0.1256,0.0838 -0.3215,0.154 -0.5861,0.21 -0.2646,0.0562 -0.572,0.0838 -0.9203,0.0838 h -2.678 c 0.2168,-3.5691 0.7735,-6.6283 1.4904,-9.1792 1.0081,0.0188 1.844,0.1174 2.4877,0.3059 0.7124,0.2093 1.2642,0.5434 1.6559,1.0032 0.1675,0.181 0.3768,0.4456 0.6288,0.794 0.5726,0.7939 1.0682,1.1909 1.4877,1.1909 0.2647,0 0.4605,-0.1316 0.5862,-0.3955 0.1255,-0.2639 0.189,-0.6736 0.189,-1.2298 0,-2.0694 -0.154,-3.3926 -0.462,-3.969 -0.308,-0.5765 -1.1274,-0.865 -2.4566,-0.865 h -3.0499 c 1.4527,-3.3976 4.3799,-7.2006 6.3913,-7.2006 1.3457,0 2.9154,0.3309 3.9859,1.7095 0.1925,0.2477 0.3723,0.5165 0.5458,0.7946 -1.271,2.897 -2.1793,6.3591 -2.1793,10.4075 0,2.4259 0.5854,5.2183 1.5595,6.7898 1.1136,1.7964 2.5553,3.4163 4.9811,4.5886 1.5473,0.7476 1.4289,0.669 3.0216,1.2351 0.3096,0.1106 0.5293,0.1989 0.6625,0.2451 0.1001,0.0384 0.1898,0.0704 0.2811,0.1041 v 6.6944 c 0,0.5698 -0.0375,1.0496 -0.1137,1.4384 -0.0763,0.3888 -0.1959,0.6459 -0.362,0.7701 -0.0418,0.0553 -0.1164,0.1256 -0.2272,0.2078 -0.6474,0.5697 -0.9718,1.1527 -0.9718,1.7494 0,0.4306 0.121,0.7685 0.3617,1.0108 0.2424,0.2438 0.5833,0.3648 1.0243,0.3648 h 6.8883 c -0.1509,1.4324 -0.5456,2.6689 -1.5578,4.0504 z m 8.7395,-8.6617 c -0.6175,0.5908 -1.4428,0.948 -2.346,1.1649 -0.3454,-5.7026 -2.24,-8.8215 -3.8233,-10.6435 0.8493,-0.1121 1.7687,-0.2459 2.3086,-0.4022 1.2396,0.279 2.6795,0.3806 4.4019,2.1039 0.8314,0.8306 1.0363,1.9109 1.0363,3.3746 0,1.9667 -0.5442,3.4141 -1.5775,4.4023 z"
       style="fill:#004394;fill-rule:evenodd"
       id="path14" />
    <path
       d="m 78.1368,142.2465 c -0.8961,0.0375 -1.6007,0.38 -2.0942,1.0199 -0.4526,0.5862 -0.5868,1.2768 -0.3992,2.0543 0.1791,0.7432 0.7099,1.6911 1.5775,2.8156 0.6156,0.7984 0.9774,1.3935 1.0762,1.7703 0.1189,0.4725 0.0508,0.8672 -0.2078,1.2035 -0.2898,0.374 -0.7016,0.5638 -1.2602,0.5758 -0.5658,0.0136 -1.1684,-0.2243 -1.7912,-0.7058 -0.4478,-0.3439 -0.769,-0.722 -0.9547,-1.1199 -0.1869,-0.3992 -0.274,-0.8089 -0.2587,-1.2169 4e-4,0 0.2707,-1.0932 0.2707,-1.0932 l -0.1403,-0.0867 -1.2869,-0.5697 -0.0725,0.1869 c -0.2138,0.5563 -0.3144,1.0571 -0.2986,1.4909 0.0197,0.6264 0.1995,1.2513 0.5344,1.854 0.3339,0.5995 0.806,1.1364 1.4033,1.5983 0.96,0.7403 1.9292,1.1035 2.8812,1.0795 0.9675,-0.0254 1.7282,-0.3871 2.2605,-1.0781 0.4754,-0.616 0.6515,-1.3052 0.5225,-2.0483 -0.1337,-0.7282 -0.6346,-1.6447 -1.5314,-2.8066 -0.7081,-0.918 -1.1028,-1.5998 -1.1734,-2.0245 -0.0744,-0.4081 -0.0112,-0.7326 0.1902,-0.9942 0.2549,-0.3305 0.6171,-0.498 1.1076,-0.51 0.4994,-0.0135 1.0123,0.1795 1.5244,0.5742 0.4852,0.3738 0.8145,0.8194 0.979,1.3218 0.1645,0.5039 0.1465,1.0211 -0.0557,1.5805 l -0.0628,0.1718 1.4354,0.5862 0.0673,-0.1884 c 0.176,-0.4919 0.2508,-0.9524 0.2228,-1.371 -0.0411,-0.5997 -0.2295,-1.1782 -0.5593,-1.7165 -0.3255,-0.5309 -0.7546,-1.0034 -1.2754,-1.4055 -0.8616,-0.6655 -1.7468,-0.9841 -2.6307,-0.9482 z"
       style="fill:#004394;fill-rule:evenodd"
       id="path15" />
    <path
       d="m 90.4554,150.9622 c -0.1192,-0.6324 -0.3817,-1.238 -0.7801,-1.7986 -0.4,-0.5638 -0.9592,-1.0303 -1.6616,-1.3862 -0.8044,-0.4081 -1.6559,-0.5907 -2.5307,-0.5442 -0.8818,0.0478 -1.7206,0.3841 -2.494,1.0002 -0.764,0.6086 -1.3886,1.3847 -1.8562,2.3072 -0.7455,1.4713 -0.9021,2.9232 -0.4662,4.3152 0.3786,1.1932 1.1783,2.1068 2.3779,2.7136 0.3618,0.1827 0.8099,0.3262 1.3318,0.4247 0.5282,0.1017 1.0541,0.1049 1.5632,0.0106 0.3857,-0.0704 0.8104,-0.2167 1.2608,-0.4366 0.452,-0.2199 0.9136,-0.5516 1.3723,-0.9855 0.459,-0.4334 0.8731,-1.0122 1.2302,-1.7149 0.3256,-0.6429 0.5479,-1.3038 0.6609,-1.9617 0.1124,-0.6623 0.1098,-1.3158 -0.0083,-1.9438 z m -2.1059,3.2267 c -0.6105,1.2052 -1.3735,1.9811 -2.2672,2.3056 -0.9024,0.3273 -1.7397,0.2841 -2.5594,-0.1316 -0.7629,-0.3858 -1.2568,-1.0107 -1.5106,-1.9123 -0.2526,-0.8943 -0.0591,-1.9812 0.5742,-3.2312 0.6417,-1.268 1.4182,-2.0829 2.3067,-2.4223 0.8953,-0.3409 1.7113,-0.3125 2.4944,0.0838 0.8064,0.4083 1.3042,0.9988 1.5224,1.8062 0.2775,1.0423 0.0891,2.2205 -0.5605,3.5018 z"
       style="fill:#004394;fill-rule:evenodd"
       id="path16" />
    <path
       d="m 98.9894,153.1676 c -0.2097,-0.5623 -0.588,-1.0511 -1.1252,-1.4502 -0.5248,-0.3903 -1.2769,-0.7388 -2.2353,-1.0333 l -3.476,-1.0676 -0.0564,0.1824 -3.0567,9.9476 1.4175,0.4366 c 0,0 1.2534,-4.0773 1.3565,-4.4139 0.3103,0.0943 2.5046,0.7702 2.69,0.827 0.0462,0.2077 1.1584,5.1854 1.1584,5.1854 l 1.5228,0.4681 c 0,0 -1.1191,-5.1197 -1.2048,-5.513 0.7784,-0.0105 1.4433,-0.1481 1.9416,-0.4499 0.5629,-0.3395 0.9427,-0.821 1.1292,-1.4281 0.07,-0.2272 0.1076,-0.4559 0.1133,-0.6878 0.0078,-0.3319 -0.0505,-0.6684 -0.1749,-1.0033 z m -1.4635,1.1977 c -0.1047,0.3409 -0.2871,0.6025 -0.5584,0.7985 -0.2681,0.1943 -0.6011,0.2917 -0.9903,0.287 -0.5809,0.001 -1.1464,-0.0807 -1.6835,-0.2452 0,0 -1.7981,-0.5532 -2.1079,-0.6473 0.0968,-0.3142 0.9162,-2.9816 1.0125,-3.2941 0.3178,0.0971 2.49,0.7656 2.49,0.7656 0.7951,0.2438 1.3437,0.5847 1.6316,1.0121 0.2834,0.4203 0.3507,0.8526 0.206,1.3234 z"
       style="fill:#004394;fill-rule:evenodd"
       id="path17" />
    <path
       d="m 108.26,156.2031 c -0.1405,-0.6552 -0.3857,-1.262 -0.7288,-1.8019 -0.3458,-0.5427 -0.8143,-1.0078 -1.3925,-1.38 -0.5805,-0.3754 -1.2724,-0.6012 -2.0574,-0.6698 -0.8982,-0.0794 -1.7568,0.0658 -2.5516,0.435 -0.7999,0.3708 -1.4541,0.9944 -1.9445,1.854 -0.4838,0.8477 -0.7752,1.8019 -0.8665,2.832 -0.1457,1.6417 0.2475,3.0488 1.1689,4.1792 0.7951,0.9673 1.8769,1.5175 3.2159,1.6371 0.4037,0.0359 0.8727,0.002 1.3946,-0.1 0.5267,-0.1017 1.0161,-0.2947 1.4548,-0.5728 0.3301,-0.2047 0.6699,-0.4978 1.009,-0.8718 0.3382,-0.3722 0.644,-0.8521 0.9079,-1.4248 0.2661,-0.5742 0.4359,-1.2634 0.5054,-2.0485 0.0636,-0.7193 0.0247,-1.4145 -0.1152,-2.0677 z m -1.4862,1.9764 c -0.1196,1.3457 -0.5398,2.3491 -1.2489,2.983 -0.7158,0.6386 -1.509,0.9105 -2.4255,0.8284 -0.8512,-0.0747 -1.5424,-0.4725 -2.1128,-1.2157 -0.5664,-0.7356 -0.7907,-1.8166 -0.6669,-3.2131 0.1261,-1.416 0.5443,-2.4611 1.2433,-3.1055 0.7042,-0.6475 1.4717,-0.9256 2.347,-0.8478 0.9002,0.0791 1.582,0.4425 2.0841,1.111 0.644,0.8656 0.9068,2.0289 0.7797,3.4597 z"
       style="fill:#004394;fill-rule:evenodd"
       id="path18" />
    <path
       d="m 112.8671,152.2585 c -0.8822,0.0913 -1.6698,0.3963 -2.3397,0.9077 -0.6742,0.5129 -1.1646,1.238 -1.4593,2.1545 -0.2901,0.9063 -0.3857,1.866 -0.2832,2.8544 0.116,1.1095 0.4306,2.0738 0.9367,2.8678 0.5114,0.7985 1.1551,1.3816 1.9135,1.7345 0.7565,0.3515 1.5775,0.4844 2.4402,0.3961 0.7131,-0.0745 1.3816,-0.2958 1.9886,-0.6563 0.6085,-0.3618 1.1064,-0.8492 1.4803,-1.4457 0.2857,-0.4562 0.4918,-1.0303 0.6174,-1.7078 l 0.0375,-0.2093 -1.5746,-0.1224 -0.0283,0.1734 c -0.0853,0.5024 -0.2034,0.8972 -0.3529,1.1707 -0.2302,0.4306 -0.5426,0.7805 -0.93,1.039 -0.3902,0.2604 -0.8463,0.4187 -1.3577,0.4711 -0.8478,0.0884 -1.5669,-0.1465 -2.2009,-0.7146 -0.7674,-0.7014 -1.2316,-1.7794 -1.379,-3.2058 -0.1435,-1.3772 0.0883,-2.4896 0.687,-3.3074 0.4928,-0.6669 1.1571,-1.0347 2.0271,-1.1244 0.6326,-0.0658 1.2128,0.0598 1.7241,0.3724 0.5128,0.311 0.9254,0.8387 1.2277,1.5654 l 0.0626,0.1525 1.5207,-0.3798 -0.0807,-0.2033 c -0.2439,-0.6177 -0.5563,-1.1215 -0.9285,-1.4996 -0.5023,-0.5144 -1.0646,-0.8808 -1.6732,-1.0902 -0.6055,-0.2077 -1.3039,-0.2735 -2.0754,-0.1929 z"
       style="fill:#004394;fill-rule:evenodd"
       id="path19" />
    <path
       d="m 121.4616,150.6572 -0.1302,0.0375 -1.791,0.5217 -0.6804,11.2366 1.4519,-0.4246 c 0,0 0.1882,-3.0997 0.2033,-3.3479 0.2361,-0.0688 3.8605,-1.1244 4.0983,-1.1932 0.1449,0.2018 1.9544,2.7197 1.9544,2.7197 l 1.4488,-0.4214 z m -0.8582,6.5534 c 0.0269,-0.444 0.2452,-4.0594 0.296,-4.8951 0.4891,0.6786 2.5987,3.6184 2.8559,3.9772 -0.4143,0.1211 -2.7363,0.7969 -3.1519,0.9179 z"
       style="fill:#004394;fill-rule:evenodd"
       id="path20" />
    <path
       d="m 135.7186,152.6683 c -0.2452,-0.4844 -0.6684,-0.8584 -1.2592,-1.1096 -0.4813,-0.2033 -1.0734,-0.2676 -1.7448,-0.2227 0.3513,-0.4575 0.6117,-0.9136 0.7057,-1.3576 0.0419,-0.196 0.0628,-0.3858 0.0628,-0.5682 0,-0.3499 -0.0763,-0.6745 -0.2258,-0.9703 -0.335,-0.6625 -0.963,-1.0825 -1.866,-1.25 -0.8852,-0.1631 -1.9512,0.0658 -3.1683,0.6832 l -3.6274,1.8348 4.7847,9.4556 3.8084,-1.9274 c 1.199,-0.6056 2.0139,-1.3532 2.4206,-2.2204 0.4143,-0.8836 0.4502,-1.6731 0.1093,-2.3474 z m -9.2165,-2.4776 c 0.2975,-0.1511 2.3608,-1.1946 2.3608,-1.1946 0.7792,-0.3947 1.4414,-0.5458 1.9648,-0.4472 0.5113,0.0957 0.8552,0.3276 1.048,0.7117 0.0897,0.1781 0.1361,0.3603 0.1361,0.5517 0,0.2484 -0.0763,0.5116 -0.2302,0.7926 -0.2781,0.5128 -1.0064,1.0706 -2.1651,1.6567 0,0 -1.3652,0.6893 -1.6447,0.8314 -0.1465,-0.2887 -1.3234,-2.6136 -1.4697,-2.9023 z m 7.7526,4.3736 c -0.3184,0.6339 -0.8792,1.1571 -1.6657,1.555 0,0 -2.1591,1.0929 -2.4581,1.244 -0.1479,-0.293 -1.4398,-2.8455 -1.5879,-3.1385 0.2944,-0.1481 2.174,-1.1005 2.1756,-1.1005 0.5606,-0.2841 1.1033,-0.4679 1.6102,-0.5472 0.4905,-0.0762 0.9032,-0.0449 1.2261,0.0956 0.32,0.1392 0.5473,0.3485 0.6938,0.64 0.1077,0.2137 0.1615,0.423 0.1615,0.6324 0,0.2065 -0.0509,0.4113 -0.1555,0.6192 z"
       style="fill:#004394;fill-rule:evenodd"
       id="path21" />
    <path
       d="m 135.4375,143.2918 -0.1092,0.0807 -1.4982,1.1141 3.2805,10.7683 1.2125,-0.9031 c 0,0 -0.9045,-2.9709 -0.9763,-3.2086 0.1974,-0.1467 3.2267,-2.3999 3.4256,-2.5478 0.2062,0.1403 2.7779,1.8688 2.7779,1.8688 l 1.2128,-0.8999 z m 1.4801,6.4427 c -0.13,-0.426 -1.1856,-3.8903 -1.4294,-4.6918 0.6953,0.468 3.6961,2.4849 4.0625,2.7333 -0.3453,0.2572 -2.2863,1.7 -2.6331,1.9585 z"
       style="fill:#004394;fill-rule:evenodd"
       id="path22" />
    <path
       d="m 64.1048,116.0443 -1.1261,0.3246 c 0,0 1.6417,5.6998 1.7411,6.0467 -0.3159,0.0913 -3.1094,0.8955 -3.4256,0.9868 -0.0964,-0.3365 -1.1849,-4.1164 -1.1849,-4.1164 l -1.3106,0.3784 c 0,0 1.0889,3.7799 1.1853,4.1148 -0.3068,0.0881 -2.5433,0.7327 -2.8506,0.821 -0.0986,-0.3441 -1.589,-5.5175 -1.589,-5.5175 l -1.2874,0.3708 2.0062,6.9663 10.1843,-2.9337 -2.1587,-7.494 z"
       style="fill:#004394;fill-rule:evenodd"
       id="path23" />
    <path
       d="m 60.6528,107.3015 c -0.7722,0.0584 -1.4006,0.3986 -1.8671,1.01 -0.4569,0.6049 -0.804,1.6224 -1.0621,3.1101 -0.2043,1.1806 -0.4444,1.9551 -0.7135,2.3042 -0.2531,0.3379 -0.5372,0.5135 -0.8698,0.539 -0.4113,0.0314 -0.775,-0.1331 -1.1136,-0.5017 -0.3454,-0.376 -0.5466,-0.9061 -0.5974,-1.576 -0.0478,-0.6354 0.061,-1.1976 0.3234,-1.6709 0.2595,-0.4678 0.6669,-0.8199 1.2107,-1.0466 l 0.1664,-0.0688 -0.5252,-1.5087 -0.188,0.0793 c -0.483,0.2042 -0.8758,0.4649 -1.1682,0.7759 -0.4172,0.4466 -0.7181,0.9893 -0.8949,1.6134 -0.1749,0.6169 -0.2377,1.2732 -0.1865,1.9514 0.0852,1.122 0.4427,2.0229 1.0628,2.6768 0.6305,0.6653 1.3572,0.9733 2.1597,0.9119 0.7395,-0.0552 1.3428,-0.429 1.7939,-1.1079 0.4382,-0.6582 0.7749,-1.6891 1.0291,-3.153 0.1776,-1.0242 0.3761,-1.7142 0.5906,-2.0507 0.2756,-0.4186 0.6176,-0.6391 1.0437,-0.6712 0.4736,-0.0359 0.8919,0.1503 1.2792,0.5704 0.3932,0.4254 0.6238,1.0518 0.6852,1.8622 0.044,0.5823 -0.0217,1.0893 -0.1952,1.5064 -0.1734,0.418 -0.4238,0.7671 -0.7442,1.0371 -0.1922,0.1599 -0.4807,0.317 -0.8572,0.4664 l -0.1655,0.0658 0.4938,1.5599 0.1906,-0.0748 c 0.5558,-0.2183 0.9943,-0.4858 1.3038,-0.7985 0.4537,-0.4441 0.797,-1.0125 1.0187,-1.6854 0.2201,-0.6676 0.302,-1.3995 0.2433,-2.1748 -0.0942,-1.2462 -0.4744,-2.2398 -1.1304,-2.9546 -0.668,-0.7274 -1.4469,-1.0624 -2.3161,-0.9966 z"
       style="fill:#004394;fill-rule:evenodd"
       id="path24" />
    <path
       d="m 59.3116,103.6338 c 0.044,-0.3244 0.317,-2.3212 0.317,-2.3212 0.0587,-0.4284 0.0878,-0.8247 0.0878,-1.1865 0,-0.2841 -0.0179,-0.5473 -0.0545,-0.7872 -0.0831,-0.5457 -0.2326,-1.034 -0.4438,-1.4519 -0.2145,-0.4261 -0.4874,-0.7685 -0.8107,-1.0182 -0.3275,-0.252 -0.7256,-0.412 -1.1827,-0.4748 -0.7948,-0.1076 -1.5397,0.1772 -2.2144,0.8471 -0.6617,0.6571 -1.0924,1.6881 -1.2803,3.0644 l -0.5488,4.0116 10.5005,1.4355 0.2045,-1.4937 c 0,0 -4.2262,-0.5772 -4.5746,-0.6251 z m -0.9517,-2.4013 c 0,0 -0.2639,1.9303 -0.3081,2.2533 -0.324,-0.0448 -3.0891,-0.4223 -3.4132,-0.4665 0.0434,-0.3192 0.286,-2.0933 0.286,-2.0933 0.1417,-1.0339 0.3683,-1.7733 0.6739,-2.1971 0.3892,-0.5294 0.861,-0.7491 1.4415,-0.6692 0.5099,0.0696 0.8832,0.3334 1.1423,0.8067 0.1712,0.3125 0.2569,0.7528 0.2569,1.3165 0,0.3125 -0.0266,0.6632 -0.0793,1.0496 z"
       style="fill:#004394;fill-rule:evenodd"
       id="path25" />
    <path
       d="m 67.0321,89.3015 c -0.1024,-0.385 -0.2882,-0.8029 -0.5509,-1.2403 -0.2636,-0.4373 -0.6377,-0.8709 -1.1114,-1.2889 -0.4773,-0.4197 -1.0941,-0.7752 -1.8338,-1.0567 -0.6743,-0.2572 -1.3558,-0.4056 -2.0253,-0.4411 -0.6718,-0.0359 -1.327,0.0457 -1.9475,0.2419 -0.625,0.1985 -1.2064,0.5405 -1.7281,1.0171 -0.5241,0.4785 -0.9368,1.1072 -1.2269,1.869 -0.333,0.8736 -0.4373,1.7677 -0.3099,2.6577 0.129,0.8979 0.5436,1.7177 1.2318,2.4376 0.6799,0.7117 1.5161,1.2598 2.4857,1.6283 1.539,0.5869 3.0054,0.572 4.359,-0.0434 1.1577,-0.5315 1.9957,-1.4608 2.4914,-2.7632 0.1498,-0.3928 0.2512,-0.869 0.3021,-1.4151 0.0133,-0.147 0.0205,-0.2928 0.0205,-0.4374 0,-0.3999 -0.0523,-0.7902 -0.1567,-1.1655 z m -1.4167,2.673 c -0.3174,0.8325 -0.9009,1.4172 -1.7838,1.7864 -0.8728,0.3664 -1.9774,0.2999 -3.2824,-0.1973 -1.3235,-0.5046 -2.2087,-1.2022 -2.6304,-2.0728 -0.4198,-0.8668 -0.4694,-1.7347 -0.148,-2.5795 0.3356,-0.8796 0.8814,-1.465 1.6686,-1.7883 1.0156,-0.4105 2.2096,-0.36 3.5482,0.1499 1.2653,0.4822 2.1139,1.1718 2.5221,2.0499 0.4122,0.8885 0.447,1.7557 0.1057,2.6517 z"
       style="fill:#004394;fill-rule:evenodd"
       id="path26" />
    <path
       d="m 73.087,80.7073 0.942,-1.4043 c 0,0 -5.3031,-0.314 -5.7002,-0.3375 0.1421,-0.4797 0.2512,-0.9432 0.2512,-1.3499 0,-0.2437 -0.0254,-0.474 -0.0769,-0.6896 -0.1563,-0.6516 -0.5035,-1.1621 -1.0332,-1.5169 -0.4819,-0.3238 -1.0377,-0.4631 -1.6511,-0.4149 -0.6067,0.0479 -1.1913,0.2841 -1.7383,0.7016 -0.5333,0.4071 -1.0967,1.0496 -1.673,1.9094 l -2.0903,3.1175 8.8019,5.902 0.8395,-1.2515 c 0,0 -3.5428,-2.3755 -3.8352,-2.5714 0.1817,-0.271 1.5101,-2.2518 1.6167,-2.4111 0.2097,0.0128 5.3469,0.3166 5.3469,0.3166 z m -5.982,-2.1019 c -0.1783,0.5686 -0.434,1.1031 -0.7591,1.5883 0,0 -1.0934,1.631 -1.2751,1.9019 -0.2718,-0.1824 -2.5893,-1.7362 -2.8615,-1.9187 0.1862,-0.2773 1.5061,-2.2461 1.5061,-2.2461 0.4806,-0.717 0.9781,-1.1649 1.4792,-1.3307 0.49,-0.1623 0.9266,-0.1081 1.3344,0.1651 0.2986,0.2008 0.4949,0.4539 0.5996,0.7742 0.0486,0.1484 0.0728,0.305 0.0728,0.4695 0,0.1894 -0.032,0.3887 -0.0964,0.5965 z"
       style="fill:#004394;fill-rule:evenodd"
       id="path27" />
    <path
       d="m 72.2875,66.2284 -6.1551,6.16 0.9644,0.964 c 0,0 2.3778,-2.3796 2.6211,-2.6234 0.2598,0.2594 6.5323,6.5271 6.5323,6.5271 l 1.0653,-1.0657 c 0,0 -6.2724,-6.2679 -6.5322,-6.5274 0.2429,-0.2434 2.6039,-2.6062 2.6039,-2.6062 l -0.9645,-0.9637 z"
       style="fill:#004394;fill-rule:evenodd"
       id="path28" />
    <path
       d="m 80.6834,60.3534 -5.8705,3.9171 5.8822,8.8158 6.4873,-4.3287 -0.7566,-1.1345 c 0,0 -4.935,3.2928 -5.2341,3.4926 -0.1826,-0.2738 -1.796,-2.6914 -1.9784,-2.9652 0.2905,-0.1939 3.5623,-2.377 3.5623,-2.377 l -0.7569,-1.1341 c 0,0 -3.2715,2.1827 -3.562,2.3766 -0.1776,-0.2657 -1.4691,-2.2016 -1.6466,-2.4674 0.2975,-0.1985 4.7757,-3.1867 4.7757,-3.1867 l -0.7431,-1.1147 z"
       style="fill:#004394;fill-rule:evenodd"
       id="path29" />
    <path
       d="m 92.9547,55.0921 c -0.8799,0.2553 -1.6264,0.7027 -2.2186,1.3296 -0.5962,0.6313 -0.9696,1.4376 -1.1097,2.3961 -0.138,0.9473 -0.0674,1.9112 0.2093,2.8667 0.3102,1.0717 0.7995,1.9636 1.4541,2.6506 0.6586,0.692 1.4151,1.1465 2.248,1.351 0.8287,0.204 1.6855,0.1813 2.546,-0.0681 0.7113,-0.2063 1.3528,-0.5468 1.9064,-1.0125 0.5573,-0.4688 0.9786,-1.0419 1.2522,-1.7028 0.2105,-0.4982 0.3215,-1.1041 0.3297,-1.7994 l 0.0026,-0.2198 -1.6107,0.2048 v 0.1686 c -3e-4,0.5076 -0.0531,0.9128 -0.1566,1.2044 -0.1611,0.4601 -0.4202,0.8605 -0.77,1.1909 -0.3507,0.3304 -0.7884,0.5731 -1.3009,0.7214 -0.8489,0.246 -1.6234,0.1484 -2.3684,-0.2983 -0.9012,-0.5446 -1.5606,-1.5172 -1.9587,-2.8913 -0.3865,-1.333 -0.345,-2.4701 0.123,-3.3807 0.3864,-0.754 0.9984,-1.2433 1.8709,-1.496 0.6339,-0.1839 1.2481,-0.1694 1.8252,0.043 0.5772,0.212 1.0886,0.6538 1.5207,1.3125 l 0.0889,0.136 1.4769,-0.6564 -0.1185,-0.1872 c -0.3566,-0.563 -0.7633,-1.003 -1.2085,-1.308 -0.6011,-0.4115 -1.2372,-0.6658 -1.891,-0.7555 -0.652,-0.0901 -1.3727,-0.0224 -2.1423,0.2004 z"
       style="fill:#004394;fill-rule:evenodd"
       id="path30" />
    <path
       d="m 101.8833,53.5061 -1.3117,0.1061 0.8576,10.5637 7.082,-0.5749 -0.1128,-1.3835 c 0,0 -5.2232,0.4243 -5.5791,0.4531 -0.0299,-0.3656 -0.7454,-9.1803 -0.7454,-9.1803 z"
       style="fill:#004394;fill-rule:evenodd"
       id="path31" />
    <path
       d="m 109.3343,53.2201 -0.7125,6.7827 c -0.0531,0.508 0.0203,1.081 0.2193,1.7031 0.2031,0.6372 0.6391,1.1964 1.2946,1.6622 0.6483,0.4612 1.5068,0.751 2.5506,0.8602 1.3023,0.1367 2.3984,-0.1047 3.258,-0.7174 0.8672,-0.6179 1.3712,-1.5334 1.4968,-2.7209 l 0.7161,-6.8361 -1.4982,-0.1574 -0.7191,6.842 c -0.0494,0.4703 -0.2034,0.8995 -0.4578,1.2759 -0.2525,0.3731 -0.5935,0.6314 -1.0406,0.7895 -0.4546,0.1603 -1.0391,0.2044 -1.7388,0.1309 -0.8792,-0.0921 -1.5563,-0.3926 -2.0122,-0.8927 -0.4561,-0.5009 -0.6377,-1.1267 -0.5554,-1.9136 l 0.7183,-6.8417 -1.4988,-0.1573 z"
       style="fill:#004394;fill-rule:evenodd"
       id="path32" />
    <path
       d="m 129.1038,58.1913 c -0.5116,-0.7558 -1.443,-1.3767 -2.7678,-1.8447 l -3.9428,-1.3925 -0.063,0.1803 -3.4673,9.8127 4.1491,1.4649 c 1.3055,0.4613 2.4388,0.5447 3.3673,0.2479 0.9481,-0.3032 1.5566,-0.8191 1.8078,-1.533 0.0793,-0.2206 0.118,-0.4509 0.118,-0.6897 0,-0.3196 -0.0702,-0.6545 -0.2107,-1.001 -0.196,-0.4901 -0.5981,-0.9659 -1.1184,-1.4276 0.5967,-0.0545 1.1258,-0.1765 1.5265,-0.4145 0.5069,-0.3018 0.8509,-0.6987 1.02,-1.1798 0.0791,-0.2231 0.1179,-0.4512 0.1179,-0.6837 0,-0.496 -0.1793,-1.0115 -0.5366,-1.5393 z m -2.4418,6.3001 c -0.1585,0.449 -0.4589,0.7312 -0.9167,0.8628 -0.6997,0.2036 -1.4892,0.1524 -2.3505,-0.1515 0,0 -2.3698,-0.8373 -2.6867,-0.949 0.109,-0.3095 1.0616,-3.0069 1.1708,-3.3164 0.311,0.1102 2.3772,0.8403 2.3772,0.8403 0.6132,0.216 1.1395,0.4866 1.5656,0.8036 0.4113,0.3074 0.6848,0.6321 0.812,0.9659 0.0685,0.178 0.103,0.3499 0.103,0.5185 0,0.1439 -0.0253,0.2853 -0.0747,0.4258 z m 1.2695,-4.5275 c -0.1527,0.4314 -0.4996,0.7113 -1.0586,0.8568 -0.5801,0.151 -1.5131,0.0019 -2.7751,-0.4441 0,0 -1.4998,-0.5297 -1.7975,-0.6348 0.1077,-0.3065 0.9841,-2.784 1.0918,-3.0906 0.3153,0.1114 2.5745,0.9095 2.5745,0.9095 0.8525,0.3009 1.4386,0.6833 1.7405,1.1368 0.2962,0.4418 0.3693,0.8563 0.2244,1.2664 z"
       style="fill:#004394;fill-rule:evenodd"
       id="path33" />
    <path
       d="m 138.5908,63.2522 c -0.9165,0.0269 -1.6298,0.3641 -2.1186,1.003 -0.4518,0.5876 -0.5758,1.2863 -0.3694,2.076 0.1988,0.7649 0.743,1.7031 1.6656,2.869 0.646,0.8142 1.0272,1.422 1.1364,1.8066 0.1272,0.484 0.0642,0.8856 -0.1957,1.2246 -0.2888,0.3775 -0.7074,0.5656 -1.2772,0.5749 -0.5801,0.0093 -1.2005,-0.2366 -1.8465,-0.7304 -0.4635,-0.3551 -0.797,-0.742 -0.9928,-1.1495 -0.1958,-0.4089 -0.29,-0.8279 -0.2767,-1.2459 0.009,-0.2508 0.0837,-0.5707 0.2229,-0.9501 l 0.0614,-0.1672 -1.4925,-0.6713 -0.0717,0.1921 c -0.2078,0.5611 -0.3005,1.0672 -0.2736,1.5046 0.03,0.6347 0.2243,1.269 0.5786,1.8825 0.3515,0.6085 0.8419,1.1573 1.4593,1.6305 0.9929,0.7603 1.9873,1.1386 2.9562,1.1255 0.9884,-0.0134 1.7584,-0.3712 2.2862,-1.0627 0.4725,-0.6145 0.6368,-1.3094 0.4919,-2.0654 -0.1466,-0.7429 -0.6745,-1.6802 -1.6118,-2.8648 -0.7433,-0.9377 -1.1604,-1.633 -1.2411,-2.0666 -0.0851,-0.4142 -0.0269,-0.7436 0.1765,-1.0082 0.2512,-0.3267 0.616,-0.4889 1.1154,-0.4957 0.5113,-0.0067 1.0407,0.1967 1.5743,0.6052 0.5056,0.3865 0.8509,0.8421 1.0304,1.3539 0.1764,0.5058 0.1674,1.0441 -0.027,1.5995 l -0.0598,0.1704 1.4759,0.6139 0.0658,-0.1929 c 0.1703,-0.496 0.2376,-0.9629 0.2002,-1.388 -0.0553,-0.6078 -0.26,-1.1938 -0.6085,-1.7426 -0.3425,-0.5417 -0.7911,-1.0257 -1.3294,-1.4388 -0.8939,-0.6841 -1.803,-1.0178 -2.7047,-0.9921 z"
       style="fill:#004394;fill-rule:evenodd"
       id="path34" />
    <path
       d="m 140.1771,75.2364 -1.232,1.2029 1.3203,1.3523 1.3683,-1.3367 -1.3204,-1.3524 z"
       style="fill:#004394;fill-rule:evenodd"
       id="path35" />
    <path
       d="m 152.9674,76.689 -2.4029,-3.4237 -0.1569,0.1099 -8.52,5.9763 2.5272,3.6014 c 0.7954,1.134 1.67,1.8596 2.5985,2.1567 0.9465,0.3036 1.742,0.2371 2.361,-0.1977 0.4485,-0.314 0.7536,-0.7951 0.9077,-1.4301 0.0538,-0.2273 0.0821,-0.4721 0.0821,-0.7334 0,-0.3279 -0.0927,-0.7091 -0.1794,-1.0867 0.5233,0.3073 1.0287,0.5177 1.4982,0.5566 0.5875,0.0486 1.0975,-0.0755 1.5162,-0.3682 0.607,-0.4262 0.927,-1.117 0.9493,-2.053 0.0212,-0.9135 -0.3768,-1.959 -1.181,-3.1081 z m -3.94,6.0347 c -0.0883,0.342 -0.2601,0.5989 -0.5263,0.785 -0.3888,0.2732 -0.7969,0.3289 -1.247,0.1697 -0.6878,-0.2404 -1.3009,-0.7405 -1.8242,-1.4874 0,0 -1.4444,-2.0589 -1.6372,-2.334 0.2676,-0.1885 2.6091,-1.8309 2.8782,-2.0197 0.19,0.271 1.4474,2.0649 1.4474,2.0649 0.3738,0.5319 0.646,1.0579 0.8074,1.5633 0.1003,0.3106 0.1509,0.5951 0.1509,0.85 0,0.1458 -0.0163,0.2818 -0.0492,0.4082 z m 3.6902,-3.3258 c -0.0166,0.5316 -0.1974,0.9114 -0.5532,1.1615 -0.3753,0.2623 -0.8194,0.2896 -1.3607,0.0833 -0.5576,-0.2138 -1.2321,-0.8776 -2.0006,-1.973 0,0 -0.9135,-1.3015 -1.0945,-1.5602 0.2662,-0.1865 2.4179,-1.6959 2.6824,-1.8824 0.1928,0.2736 1.5684,2.2345 1.5684,2.2345 0.504,0.7181 0.7582,1.3525 0.7582,1.8863 0,0.0167 0,0.0335 0,0.05 z"
       style="fill:#004394;fill-rule:evenodd"
       id="path36" />
    <path
       d="m 157.0597,83.7635 -9.5947,4.0308 3.0203,7.1905 1.2574,-0.5286 c 0,0 -2.2966,-5.4687 -2.4372,-5.8003 0.3035,-0.1274 2.9829,-1.2533 3.2865,-1.3808 0.1362,0.3222 1.6581,3.9482 1.6581,3.9482 l 1.2575,-0.5282 c 0,0 -1.5234,-3.6264 -1.6582,-3.9482 0.2946,-0.1237 2.4402,-1.0253 2.7348,-1.1491 0.1392,0.3297 2.2233,5.2935 2.2233,5.2935 l 1.2352,-0.5185 -2.8066,-6.6832 z"
       style="fill:#004394;fill-rule:evenodd"
       id="path37" />
    <path
       d="m 161.025,94.131 -10.2512,1.7921 0.2602,1.4847 c 0,0 7.7077,-1.3479 8.7709,-1.5333 -0.7908,0.7715 -7.7213,7.5374 -7.7213,7.5374 l 0.2438,1.395 10.4394,-1.8242 -0.26,-1.4847 c 0,0 -6.7643,1.1819 -7.8095,1.3643 0.7804,-0.761 6.875,-6.7105 6.875,-6.7105 l -0.3589,-2.0536 z"
       style="fill:#004394;fill-rule:evenodd"
       id="path38" />
    <path
       d="m 161.5842,106.3416 c 0,0 -0.1495,3.1693 -0.1659,3.513 -0.3664,-0.0172 -9.224,-0.4358 -9.224,-0.4358 l -0.0718,1.5058 c 0,0 8.8576,0.4178 9.2241,0.4358 -0.0166,0.3431 -0.1735,3.6808 -0.1735,3.6808 l 1.3621,0.0642 0.4202,-8.8909 -1.3622,-0.0643 z"
       style="fill:#004394;fill-rule:evenodd"
       id="path39" />
    <path
       d="m 161.3091,118.8765 c -0.2332,-0.8764 -0.7401,-1.6433 -1.5072,-2.2787 -0.758,-0.628 -1.6523,-1.0751 -2.6571,-1.3294 -1.5953,-0.405 -3.0502,-0.2196 -4.3242,0.5487 -1.0885,0.6611 -1.8135,1.6822 -2.1544,3.0323 -0.1031,0.4067 -0.1496,0.8927 -0.1362,1.4414 0.0135,0.5562 0.1212,1.0871 0.3202,1.5761 0.1463,0.3692 0.3781,0.7624 0.6906,1.1677 0.3126,0.4037 0.7342,0.7909 1.2546,1.1513 0.5216,0.3618 1.1752,0.643 1.9423,0.8373 0.7026,0.1779 1.3964,0.2469 2.0634,0.2034 0.6713,-0.0419 1.3126,-0.199 1.9063,-0.4649 0.5981,-0.2692 1.1364,-0.6775 1.5985,-1.2114 0.4649,-0.535 0.8028,-1.2081 1.0032,-1.9975 0.2288,-0.906 0.2288,-1.8063 0,-2.6763 z m -1.2141,2.3054 c -0.2289,0.9004 -0.7161,1.5626 -1.4504,1.9693 -0.9615,0.5248 -2.1531,0.6131 -3.542,0.2616 -1.313,-0.3317 -2.2355,-0.9194 -2.7425,-1.7433 -0.5111,-0.8359 -0.6473,-1.6925 -0.4126,-2.6227 0.2169,-0.8507 0.7432,-1.5176 1.5655,-1.9811 0.8254,-0.4635 1.9305,-0.5263 3.2836,-0.184 1.3725,0.3485 2.3325,0.939 2.8528,1.7555 0.5249,0.8239 0.6699,1.6568 0.4456,2.5447 z"
       style="fill:#004394;fill-rule:evenodd"
       id="path40" />
    <g
       id="Layer1004">
      <path
         d="m 70.2604,137.6353 c 0,1.2695 -1.0281,2.2966 -2.2967,2.2966 -1.2687,0 -2.2966,-1.0271 -2.2966,-2.2966 0,-1.268 1.0279,-2.2967 2.2966,-2.2967 1.2686,0 2.2967,1.0287 2.2967,2.2967 z"
         style="fill:#004394;fill-rule:evenodd"
         id="path41" />
      <path
         d="m 150.4614,137.6353 c 0,1.2695 -1.0287,2.2966 -2.2967,2.2966 -1.2695,0 -2.2966,-1.0271 -2.2966,-2.2966 0,-1.268 1.0271,-2.2967 2.2966,-2.2967 1.268,0 2.2967,1.0287 2.2967,2.2967 z"
         style="fill:#004394;fill-rule:evenodd"
         id="path42" />
    </g>
  </g>
</svg>
