<?xml version="1.0" encoding="UTF-8" standalone="no"?>
<svg
   version="1.1"
   width="1.5648708in"
   height="1.573378in"
   viewBox="0 0 112.6707 113.28321"
   id="svg26"
   sodipodi:docname="ec_9_de_julho_pr.cdr"
   xmlns:inkscape="http://www.inkscape.org/namespaces/inkscape"
   xmlns:sodipodi="http://sodipodi.sourceforge.net/DTD/sodipodi-0.dtd"
   xmlns="http://www.w3.org/2000/svg"
   xmlns:svg="http://www.w3.org/2000/svg">
  <defs
     id="defs26" />
  <sodipodi:namedview
     id="namedview26"
     pagecolor="#ffffff"
     bordercolor="#000000"
     borderopacity="0.25"
     inkscape:showpageshadow="2"
     inkscape:pageopacity="0.0"
     inkscape:pagecheckerboard="0"
     inkscape:deskcolor="#d1d1d1"
     inkscape:document-units="in" />
  <g
     id="Layer1003"
     transform="translate(-51.664501,-51.358398)">
    <path
       d="M 51.6645,51.3584 H 164.3352 V 87.0158 L 107.9999,164.6416 51.6645,87.0158 Z"
       style="fill:#006bb4;fill-rule:evenodd"
       id="path10" />
    <path
       d="m 56.6026,56.2962 h 102.795 v 25.362 H 56.6026 Z"
       style="fill:#ffffff;fill-rule:evenodd"
       id="path11" />
    <path
       d="M 158.539,86.5959 107.9999,156.2347 57.4608,86.5959 Z"
       style="fill:#ffffff;fill-rule:evenodd"
       id="path12" />
    <path
       d="m 60.2642,74.3392 h 5.3256 v -2.768 H 63.273 v -1.4744 h 2.0913 V 67.5843 H 63.273 v -1.3688 h 2.3168 v -2.6027 h -5.3256 z"
       style="fill:#006bb4;fill-rule:evenodd"
       id="path13" />
    <path
       d="m 67.2206,72.8348 c 0,0.9328 0.7373,1.6874 1.6699,1.6874 0.9328,0 1.6701,-0.7546 1.6701,-1.6874 0,-0.9328 -0.7373,-1.6699 -1.6701,-1.6699 -0.9326,0 -1.6699,0.722 -1.6699,1.6699 z"
       style="fill:#006bb4;fill-rule:evenodd"
       id="path14" />
    <path
       d="m 77.8028,74.1738 v -2.6929 c -0.3763,0.2406 -0.7674,0.3459 -1.1584,0.3459 -1.0983,0 -1.7604,-1.008 -1.7604,-2.8884 0,-1.9558 0.6319,-2.9638 1.8205,-2.9638 0.3459,0 0.722,0.1053 1.0983,0.316 v -2.5725 c -0.5567,-0.1956 -1.1435,-0.3008 -1.7755,-0.3008 -2.4219,0 -4.2725,2.1513 -4.2725,5.4759 0,1.9256 0.4514,3.3548 1.4594,4.378 0.8276,0.8423 1.8355,1.281 2.9036,1.281 0.5717,0 1.1283,-0.1353 1.685,-0.3784 z"
       style="fill:#006bb4;fill-rule:evenodd"
       id="path15" />
    <path
       d="m 79.0121,72.8348 c 0,0.9328 0.7372,1.6874 1.6698,1.6874 0.9327,0 1.6701,-0.7546 1.6701,-1.6874 0,-0.9328 -0.7374,-1.6699 -1.6701,-1.6699 -0.9326,0 -1.6698,0.722 -1.6698,1.6699 z"
       style="fill:#006bb4;fill-rule:evenodd"
       id="path16" />
    <path
       d="m 90.6562,67.2235 c 0,0.9626 -0.2255,1.444 -0.6769,1.444 -0.4363,0 -0.6168,-0.4514 -0.6168,-1.3989 0,-0.9929 0.1655,-1.4594 0.6469,-1.4594 0.4363,0 0.6468,0.4665 0.6468,1.4143 z m -0.6168,3.3698 c -0.6318,1.3237 -1.4443,2.5576 -2.4218,3.7459 h 3.204 c 1.7754,-2.6026 2.6479,-4.9343 2.6479,-6.8902 0,-2.4221 -1.4442,-4.047 -3.5805,-4.047 -1.9708,0 -3.3701,1.6098 -3.3701,4.1974 0,2.001 1.0682,3.2645 2.4374,3.2645 0.3461,0 0.707,-0.0902 1.0831,-0.2706 z"
       style="fill:#006bb4;fill-rule:evenodd"
       id="path17" />
    <path
       d="m 98.0279,63.6128 v 10.7264 h 2.8886 c 2.9785,0 4.5131,-1.8053 4.5131,-5.3557 0,-1.8505 -0.4213,-3.2195 -1.1884,-4.0619 -1.0681,-1.1433 -2.2416,-1.3088 -3.9868,-1.3088 z m 2.9939,2.5726 h 0.1053 c 1.038,0 1.2786,0.8574 1.2786,2.738 0,1.8654 -0.2557,2.7079 -1.2486,2.7079 h -0.1353 z"
       style="fill:#006bb4;fill-rule:evenodd"
       id="path18" />
    <path
       d="m 106.985,74.3392 h 5.3256 v -2.768 h -2.3169 v -1.4744 h 2.0913 v -2.5125 h -2.0913 v -1.3688 h 2.3169 v -2.6027 h -5.3256 z"
       style="fill:#006bb4;fill-rule:evenodd"
       id="path19" />
    <path
       d="m 118.3886,63.6128 v 7.0256 c 0,0.9027 -0.1658,1.3388 -0.7976,1.3388 -0.3308,0 -0.6167,-0.1955 -1.008,-0.5266 v 2.6327 c 0.5567,0.3185 1.1284,0.4689 1.7755,0.4689 1.8051,0 3.0239,-1.3111 3.0239,-3.5376 v -7.4018 z"
       style="fill:#006bb4;fill-rule:evenodd"
       id="path20" />
    <path
       d="m 123.2987,70.5031 c 0,2.7831 1.1132,4.0491 3.6858,4.0491 2.5726,0 3.7008,-1.266 3.7008,-4.0491 v -6.8903 h -3.0086 v 7.176 c 0,0.6167 -0.2108,0.9178 -0.6922,0.9178 -0.4814,0 -0.6918,-0.3011 -0.6918,-0.9178 v -7.176 h -2.994 z"
       style="fill:#006bb4;fill-rule:evenodd"
       id="path21" />
    <path
       d="m 132.5719,74.3392 h 5.2053 v -2.6629 h -2.1965 v -8.0635 h -3.0088 z"
       style="fill:#006bb4;fill-rule:evenodd"
       id="path22" />
    <path
       d="m 139.3927,74.3392 h 2.9938 v -4.1973 h 1.2786 v 4.1973 h 2.9942 V 63.6128 h -2.9942 v 3.8513 h -1.2786 v -3.8513 h -2.9938 z"
       style="fill:#006bb4;fill-rule:evenodd"
       id="path23" />
    <path
       d="m 148.305,68.9835 c 0,3.5957 1.5042,5.5687 4.0166,5.5687 2.5124,0 4.0018,-1.973 4.0018,-5.5687 0,-3.5956 -1.4894,-5.5815 -4.0018,-5.5815 -2.5124,0 -4.0166,1.9859 -4.0166,5.5815 z m 3.0237,-0.0751 c 0,-1.9859 0.1803,-2.9038 0.9929,-2.9038 0.8122,0 0.9781,0.9179 0.9781,2.9038 0,2.0006 -0.1659,2.9034 -0.9781,2.9034 -0.8126,0 -0.9929,-0.9028 -0.9929,-2.9034 z"
       style="fill:#006bb4;fill-rule:evenodd"
       id="path24" />
    <path
       d="M 101.94,144.4453 61.4227,88.6159 H 101.94 Z"
       style="fill:#e30016;fill-rule:evenodd"
       id="path25" />
    <path
       d="m 154.5773,88.6159 -40.5176,55.8294 V 88.6159 Z"
       style="fill:#006bb4;fill-rule:evenodd"
       id="path26" />
  </g>
</svg>
