<?xml version="1.0" encoding="UTF-8" standalone="no"?>
<svg
   version="1.1"
   width="3in"
   height="3in"
   viewBox="0 0 216 216"
   id="svg18"
   sodipodi:docname="ad_cabense_pe.cdr"
   xmlns:inkscape="http://www.inkscape.org/namespaces/inkscape"
   xmlns:sodipodi="http://sodipodi.sourceforge.net/DTD/sodipodi-0.dtd"
   xmlns="http://www.w3.org/2000/svg"
   xmlns:svg="http://www.w3.org/2000/svg">
  <defs
     id="defs18" />
  <sodipodi:namedview
     id="namedview18"
     pagecolor="#ffffff"
     bordercolor="#000000"
     borderopacity="0.25"
     inkscape:showpageshadow="2"
     inkscape:pageopacity="0.0"
     inkscape:pagecheckerboard="0"
     inkscape:deskcolor="#d1d1d1"
     inkscape:document-units="in" />
  <g
     id="Layer1003">
    <path
       d="m 151.883,81.6467 c 0,-6.0601 4.1948,-12.4434 8.4241,-17.148 l 2.0137,-2.2399 -21.7136,-18.1375 -1.8931,1.6943 c -9.8989,8.8603 -19.6773,10.639 -28.6709,2.698 l -2.0433,-1.8041 -2.0434,1.8041 c -8.9936,7.941 -18.7723,6.1623 -28.6709,-2.698 l -1.8931,-1.6943 -21.7137,18.1375 2.0135,2.2399 c 4.2296,4.7046 8.4241,11.0879 8.4241,17.148 0,14.9837 -11.7656,18.9108 -11.7656,39.1137 0,9.1359 3.8137,18.5769 10.4676,25.2306 11.6148,11.6148 31.7205,10.9793 39.9965,19.2556 0.9643,0.9644 1.8894,2.0838 2.8896,3.4653 l 2.2954,3.1668 2.2953,-3.1668 c 1.0003,-1.3815 1.9253,-2.5009 2.8896,-3.4653 8.276,-8.2763 28.3816,-7.6408 39.9965,-19.2556 6.6539,-6.6537 10.4676,-16.0947 10.4676,-25.2306 0,-20.2029 -11.7659,-24.13 -11.7659,-39.1137 z"
       style="fill:#0076be;fill-rule:evenodd"
       id="path10" />
    <path
       d="m 156.0244,62.725 c -4.1296,-3.4495 -11.8041,-9.8599 -15.3447,-12.8175 -0.7599,0.6477 -1.5197,1.2529 -2.2792,1.824 l -81.6507,68.5136 c -0.0018,0.1712 -0.0047,0.3409 -0.0047,0.5153 0,7.1244 2.653,14.3763 7.1995,19.9313 l 90.3267,-75.7935 c 0.5817,-0.7619 1.1706,-1.4888 1.7531,-2.1732 z"
       style="fill:#ffffff;fill-rule:evenodd"
       id="path11" />
    <path
       d="m 90.8334,57.7429 c -5.0851,-0.7456 -10.2956,-3.3891 -15.5135,-7.8354 -1.294,1.0808 -3.141,2.6237 -5.1643,4.3138 v 51.7251 L 90.8334,88.5957 Z"
       style="fill:#ffffff;fill-rule:evenodd"
       id="path12" />
    <path
       d="m 128.4943,56.994 c -1.1148,0.3402 -2.2242,0.5869 -3.3282,0.749 v 2.0437 z"
       style="fill:#ffffff;fill-rule:evenodd"
       id="path13" />
    <path
       d="m 70.1556,138.5301 v 7.7485 c 5.0196,3.2696 11.1348,5.1465 17.0956,6.9738 1.2083,0.3704 2.4049,0.7373 3.5822,1.1132 v -33.1864 z"
       style="fill:#ffffff;fill-rule:evenodd"
       id="path14" />
    <path
       d="m 125.1661,92.3704 v 61.9952 c 1.1772,-0.3759 2.3741,-0.7428 3.5824,-1.1132 5.9607,-1.8273 12.0759,-3.7042 17.0956,-6.9738 V 75.0195 Z"
       style="fill:#ffffff;fill-rule:evenodd"
       id="path15" />
    <path
       d="m 92.7507,114.2104 -2.8202,2.3663 -3.5665,-1.9754 -5.1292,4.3039 1.3889,3.8027 -2.7484,2.3062 -5.7681,-17.024 2.7392,-2.2987 z m -9.0297,-1.0723 -5.7639,-3.278 2.2631,6.2158 z"
       style="fill:#0076be;fill-rule:evenodd"
       id="path16" />
    <path
       d="m 93.0606,92.0863 4.735,-3.9731 c 1.0663,-0.8947 1.9468,-1.496 2.6461,-1.8029 0.9383,-0.4107 1.9145,-0.5576 2.9254,-0.4387 1.0115,0.1134 2.0021,0.4631 2.97,1.046 0.9667,0.5883 1.9546,1.4803 2.9647,2.6842 0.8848,1.0544 1.518,2.076 1.8971,3.0612 0.4618,1.2003 0.639,2.3395 0.5255,3.4175 -0.0796,0.8148 -0.3999,1.6643 -0.9594,2.5509 -0.4177,0.661 -1.1071,1.3924 -2.0663,2.1972 l -4.8722,4.0883 z m 4.4123,-0.0014 7.1288,8.4957 1.9328,-1.6217 c 0.723,-0.6067 1.2132,-1.0841 1.4656,-1.4382 0.3305,-0.4556 0.532,-0.9251 0.5992,-1.4094 0.0673,-0.4837 -0.0572,-1.0872 -0.362,-1.8087 -0.3081,-0.7187 -0.8777,-1.5798 -1.7099,-2.5714 -0.8321,-0.9916 -1.5584,-1.6753 -2.1777,-2.0617 -0.6226,-0.3841 -1.2161,-0.5935 -1.7776,-0.6261 -0.5676,-0.033 -1.1358,0.1026 -1.7075,0.404 -0.4315,0.22 -1.1721,0.7752 -2.2296,1.6625 z"
       style="fill:#0076be;fill-rule:evenodd"
       id="path17" />
    <path
       d="m 130.741,74.2946 3.1764,-1.3108 c 0.7903,1.7244 1.0232,3.3002 0.6984,4.7334 -0.3241,1.4275 -1.1764,2.7234 -2.5533,3.8788 -1.7032,1.4289 -3.5929,2.022 -5.6646,1.7797 -2.0735,-0.2452 -3.9592,-1.3761 -5.6512,-3.3926 -1.7924,-2.136 -2.6308,-4.2575 -2.5212,-6.3652 0.1121,-2.1052 1.0644,-3.9124 2.8629,-5.4214 1.5685,-1.3161 3.2328,-1.9233 4.9918,-1.8164 1.0442,0.0553 2.1423,0.478 3.2976,1.2603 l -2.0524,2.7655 c -0.7083,-0.541 -1.4664,-0.8012 -2.2734,-0.7805 -0.8043,0.0183 -1.5506,0.3186 -2.2374,0.8948 -0.95,0.7974 -1.4382,1.787 -1.4555,2.9674 -0.0201,1.1774 0.612,2.531 1.8953,4.0603 1.3612,1.6222 2.6209,2.5353 3.7828,2.7312 1.1616,0.2013 2.2086,-0.092 3.1409,-0.8743 0.6899,-0.5791 1.0985,-1.2936 1.2258,-2.1486 0.1299,-0.8521 -0.0939,-1.8403 -0.6629,-2.9616 z"
       style="fill:#0076be;fill-rule:evenodd"
       id="path18" />
  </g>
</svg>
