<?xml version="1.0" encoding="UTF-8" standalone="no"?>
<svg
   version="1.1"
   width="3in"
   height="3in"
   viewBox="0 0 216 216"
   id="svg24"
   sodipodi:docname="estanciano_ec-se.cdr"
   inkscape:export-filename="estanciano_ec-se.cdr.png"
   inkscape:export-xdpi="48"
   inkscape:export-ydpi="48"
   xmlns:inkscape="http://www.inkscape.org/namespaces/inkscape"
   xmlns:sodipodi="http://sodipodi.sourceforge.net/DTD/sodipodi-0.dtd"
   xmlns="http://www.w3.org/2000/svg"
   xmlns:svg="http://www.w3.org/2000/svg">
  <defs
     id="defs24" />
  <sodipodi:namedview
     id="namedview24"
     pagecolor="#ffffff"
     bordercolor="#000000"
     borderopacity="0.25"
     inkscape:showpageshadow="2"
     inkscape:pageopacity="0.0"
     inkscape:pagecheckerboard="0"
     inkscape:deskcolor="#d1d1d1"
     inkscape:document-units="in" />
  <g
     id="Layer1003">
    <path
       d="m 157.4645,109.469 c -2.6638,-4.7371 -8.1111,-12.3054 -8.1111,-21.8693 0,-9.5641 7.7651,-16.2043 7.7651,-16.2043 L 134.9199,49.5873 c 0,0 -13.3422,7.1461 -26.9198,7.1461 -13.5779,0 -26.9199,-7.1461 -26.9199,-7.1461 L 58.8818,71.3954 c 0,0 7.7654,6.6402 7.7654,16.2043 0,9.5639 -5.4477,16.7985 -8.1118,21.8693 0,0 -6.2968,12.1703 -2.5403,22.4018 3.7565,10.2315 13.181,16.6871 29.973,20.0151 16.7922,3.328 22.032,14.5265 22.032,14.5265 0,0 5.2397,-11.1985 22.0317,-14.5265 16.7927,-3.328 26.2165,-9.7836 29.9734,-20.0151 3.7561,-10.2315 -2.5407,-22.4018 -2.5407,-22.4018 z"
       style="fill:#009d35;fill-rule:evenodd"
       id="path10" />
    <path
       d="m 61.3151,71.3915 c 2.1192,-2.0817 18.5747,-18.2475 20.0881,-19.7341 3.5228,1.7233 14.8541,6.7783 26.5969,6.7783 11.7421,0 23.0744,-5.055 26.5972,-6.7783 L 66.1249,98.9012 c 1.2897,-3.3852 2.225,-7.2032 2.225,-11.3015 0,-7.8167 -4.6728,-13.721 -7.0348,-16.2082 z"
       style="fill:#ffec00;fill-rule:evenodd"
       id="path11" />
    <path
       d="m 158.407,131.2841 c -3.5781,9.744 -12.6997,15.7592 -28.7064,18.9313 -12.6657,2.5105 -19.0543,9.2656 -21.7005,12.9701 C 105.354,159.481 98.9653,152.7259 86.2992,150.2154 73.0948,147.5985 64.5798,143.044 59.9937,136.0611 l 3.6355,-2.5081 c 4.9404,4.7488 9.8814,7.6479 14.8225,9.2551 v -19.4827 l 14.7742,-10.1935 v 33.274 c 5.538,1.5746 10.5449,4.0539 14.7742,8.2591 v -51.7267 l 14.3526,-9.9029 v 52.9469 c 4.7826,-1.0117 9.5665,-2.2136 14.3518,-4.0997 V 83.1331 l 17.5827,-12.1313 c 0.1591,0.1551 0.2984,0.2926 0.3975,0.3897 -2.3613,2.4872 -7.0339,8.3915 -7.0339,16.2082 0,9.7757 5.2913,17.9912 8.1334,22.4051 0,0 0.1363,0.211 0.1996,0.3087 0.3011,0.605 3.5116,7.2236 3.5116,14.3847 0,2.1989 -0.3037,4.4476 -1.0884,6.5859 z"
       style="fill:#ffec00;fill-rule:evenodd"
       id="path12" />
    <path
       d="m 66.833,103.4668 12.7913,-8.8254 2.2763,3.2987 -8.0076,5.5246 1.695,2.4573 7.4285,-5.1256 2.1741,3.1518 -7.4281,5.1243 2.0996,3.0441 8.2414,-5.6865 2.4149,3.5001 -13.0254,8.9868 z m 23.0143,0.5815 4.5865,-3.1647 2.9661,4.299 -4.5866,3.1642 z m -0.2403,-16.2947 12.7913,-8.8255 2.276,3.2987 -8.0073,5.5246 1.695,2.4574 7.4285,-5.1256 2.1742,3.1517 -7.4282,5.1248 2.0995,3.0435 8.2411,-5.6864 2.415,3.5002 -13.0251,8.9868 z m 23.014,0.5814 4.5865,-3.1647 2.9663,4.2989 -4.5865,3.1641 z m 16.359,-14.2603 5.0574,-1.6205 c 0.5286,1.3656 0.7613,2.6501 0.7005,3.8539 -0.061,1.2052 -0.4035,2.3178 -1.0237,3.3348 -0.6176,1.021 -1.6216,2.0056 -3.0023,2.9584 -1.6803,1.1589 -3.2229,1.8624 -4.6197,2.1092 -1.4019,0.2453 -2.9165,0.0216 -4.5383,-0.6752 -1.6184,-0.6992 -3.0914,-2.0033 -4.4144,-3.9205 -1.7648,-2.5577 -2.4425,-4.9944 -2.0289,-7.3029 0.4118,-2.3123 1.8626,-4.3274 4.3482,-6.0428 1.946,-1.3428 3.7452,-2.0052 5.4037,-1.9867 1.6593,0.0186 3.3203,0.6558 4.9841,1.9135 l -3.568,3.8476 c -0.4728,-0.3697 -0.8654,-0.6083 -1.1792,-0.7157 -0.5163,-0.1798 -1.0373,-0.2346 -1.5593,-0.1668 -0.5249,0.0703 -1.0234,0.2713 -1.502,0.6008 -1.0789,0.7447 -1.6092,1.7534 -1.584,3.021 0.0112,0.9476 0.4916,2.114 1.4469,3.4989 1.1843,1.7156 2.2562,2.7068 3.2129,2.9862 0.9612,0.2768 1.9102,0.0895 2.8486,-0.5581 0.9136,-0.6302 1.4281,-1.3623 1.5409,-2.1994 0.1152,-0.8331 -0.06,-1.8113 -0.5234,-2.9357 z m 7.9873,-2.5375 4.5864,-3.1648 2.9662,4.2983 -4.5864,3.1648 z"
       style="fill:#ffffff;fill-rule:evenodd"
       id="path13" />
    <path
       d="m 81.5202,64.1309 h 0.0088 7e-4 c 2.4271,0.1068 4.5884,1.1928 6.1171,2.8593 1.5293,1.6666 2.4262,3.9139 2.3245,6.3422 l -3e-4,0.0086 -4e-4,0.0085 v 0.0013 c -0.03,0.6778 -0.1368,1.338 -0.3124,1.9709 -0.1747,0.6309 -0.4178,1.2331 -0.7206,1.7976 -1.5542,2.9029 -4.676,4.8269 -8.1728,4.677 h -0.0088 -7e-4 C 78.3278,81.6894 76.1669,80.6036 74.6381,78.937 73.1088,77.2705 72.212,75.0232 72.3137,72.5947 l 3e-4,-0.0085 3e-4,-0.0084 v -0.0014 c 0.03,-0.6778 0.1369,-1.338 0.3125,-1.9708 0.1747,-0.631 0.4178,-1.2326 0.7206,-1.7977 1.5541,-2.9029 4.6761,-4.8269 8.1728,-4.677 z"
       style="fill:#009d35;fill-rule:evenodd"
       id="path14" />
    <path
       d="m 78.2995,80.369 4.3532,0.3806 1.5962,-2.1105 -0.9891,-1.7324 -4.5425,-0.1408 -1.5594,1.7351 1.1136,1.8653 z"
       style="fill:#ffec00;fill-rule:evenodd"
       id="path15" />
    <path
       d="m 81.5111,64.5655 -0.0078,-5e-4 c -1.0944,-0.0469 -2.1506,0.1198 -3.1272,0.4627 l 0.1159,0.6648 0.0085,0.0033 2.6114,0.8466 2.0459,-0.7092 0.0329,-0.0899 0.3085,-0.8486 C 82.8657,64.709 82.2,64.5955 81.5121,64.5655 c -4e-4,-5e-4 -7e-4,0 -0.001,0 z"
       style="fill:#ffec00;fill-rule:evenodd"
       id="path16" />
    <path
       d="m 73.8645,68.7682 c -0.0463,0.0802 -0.0915,0.161 -0.1355,0.2431 -0.2871,0.5371 -0.5185,1.1092 -0.6847,1.709 -0.1656,0.5976 -0.2669,1.2253 -0.2955,1.8744 0,0 0,0 0,7e-4 l -4e-4,0.0078 -3e-4,0.0084 c -0.0186,0.4485 -0.0017,0.8904 0.0485,1.3231 l 0.3087,-0.35 0.0403,-0.0462 1.4127,-1.9657 0.223,-2.6632 z"
       style="fill:#ffec00;fill-rule:evenodd"
       id="path17" />
    <path
       d="m 74.6232,78.2572 c 0.1072,0.1324 0.2187,0.2608 0.3336,0.3865 0.8377,0.9132 1.8749,1.6425 3.0455,2.1164 l -1.2671,-2.1222 -2.0917,-0.3787 z"
       style="fill:#ffec00;fill-rule:evenodd"
       id="path18" />
    <path
       d="m 82.8618,81.1915 c 1.9345,-0.406 3.6385,-1.4834 4.8413,-2.9851 l -0.2655,-0.1511 -0.0215,0.0051 -2.7397,0.7326 z"
       style="fill:#ffec00;fill-rule:evenodd"
       id="path19" />
    <path
       d="M 89.5431,72.8346 C 89.519,71.2299 89.0389,69.7243 88.2233,68.4482 l -0.7225,0.3702 0.0583,2.3659 0.0212,0.0287 1.4427,1.911 z"
       style="fill:#ffec00;fill-rule:evenodd"
       id="path20" />
    <path
       d="m 83.64,76.6983 0.9517,1.6685 2.6004,-0.6949 1.459,-4.3211 -1.3289,-1.7605 -2.3154,0.6186 z"
       style="fill:#ffec00;fill-rule:evenodd"
       id="path21" />
    <path
       d="m 84.8628,71.7982 2.2617,-0.6035 -0.0585,-2.375 -3.7463,-2.5823 -1.9904,0.6896 -0.091,2.122 z"
       style="fill:#ffec00;fill-rule:evenodd"
       id="path22" />
    <path
       d="m 80.8056,68.9937 0.0886,-2.0667 -2.4122,-0.7821 -3.2614,2.7399 -0.2096,2.5054 2.0475,0.6688 z"
       style="fill:#ffec00;fill-rule:evenodd"
       id="path23" />
    <path
       d="m 77.0367,72.5081 -2.1199,-0.6929 -1.382,1.924 1.3559,4.125 1.9407,0.3513 1.4997,-1.6685 z"
       style="fill:#ffec00;fill-rule:evenodd"
       id="path24" />
  </g>
</svg>
