<?xml version="1.0" encoding="UTF-8" standalone="no"?>
<svg
   version="1.1"
   width="1.6268611in"
   height="1.6261865in"
   viewBox="0 0 117.134 117.08543"
   id="svg19"
   sodipodi:docname="nacional_fast-am.cdr"
   xmlns:inkscape="http://www.inkscape.org/namespaces/inkscape"
   xmlns:sodipodi="http://sodipodi.sourceforge.net/DTD/sodipodi-0.dtd"
   xmlns="http://www.w3.org/2000/svg"
   xmlns:svg="http://www.w3.org/2000/svg">
  <defs
     id="defs19" />
  <sodipodi:namedview
     id="namedview19"
     pagecolor="#ffffff"
     bordercolor="#000000"
     borderopacity="0.25"
     inkscape:showpageshadow="2"
     inkscape:pageopacity="0.0"
     inkscape:pagecheckerboard="0"
     inkscape:deskcolor="#d1d1d1"
     inkscape:document-units="in" />
  <g
     id="Layer1003"
     transform="matrix(1,0,0,0.85977361,-49.4328,-34.312709)">
    <path
       d="M 107.9569,39.9281 C 106.3448,40.0128 96.736,38.5538 78.4552,54.7386 64.5581,67.0418 53.3311,67.6661 51.2219,67.6661 h -1.7891 l 0.9721,1.5047 c 0.0737,0.1142 7.3722,11.6714 7.3863,34.3743 0.0162,29.8495 5.9473,39.9489 15.507,46.5724 2.7813,1.9222 5.6987,3.4905 8.7885,5.1468 7.4686,4.0081 15.9348,8.5496 25.1582,19.8934 l 0.755,0.933 0.7564,-0.933 c 9.2907,-11.4239 17.8061,-16.0797 25.3208,-20.183 3.0298,-1.6557 5.8963,-3.2204 8.6257,-5.112 9.5623,-6.6204 15.4894,-16.7229 15.5085,-46.5725 0.0112,-22.7018 7.3124,-34.259 7.3849,-34.3731 l 0.9706,-1.5037 -1.7889,-0.0011 c -2.1092,0 -13.3312,-0.6231 -27.2332,-12.9275 -18.3215,-16.2214 -28.1554,-14.472 -29.5878,-14.5567 z"
       style="fill:#224c99;fill-rule:evenodd"
       id="path10" />
    <path
       d="m 108.2565,41.8593 c -0.4715,0.1961 9.581,-2.2192 27.9976,14.0861 12.3375,10.9199 22.7488,12.9589 26.9171,13.3244 -1.9337,3.6343 -6.8977,14.7802 -6.9091,34.0194 -0.0189,29.1272 -5.3903,38.5446 -14.667,44.9708 -2.6493,1.831 -5.4664,3.3725 -8.4509,5.0017 -7.4688,4.0808 -15.9118,8.7443 -25.1443,19.7947 -9.1716,-10.9711 -17.5678,-15.5235 -24.9922,-19.5091 -3.039,-1.629 -5.9103,-3.171 -8.5991,-5.0325 C 65.1318,142.0893 59.7566,132.6713 59.7401,103.544 59.7287,84.3038 54.766,73.1579 52.8284,69.5225 56.9982,69.157 67.4119,67.118 79.7467,56.1978 98.1724,39.8861 107.8096,42.0452 108.2565,41.8593 Z"
       style="fill:#ffffff;fill-rule:evenodd"
       id="path11" />
    <path
       d="m 152.0064,92.0517 c 0.8982,-8.2897 2.6492,-14.7093 4.29,-19.1655 -5.908,-1.6419 -14.2028,-5.2684 -23.2701,-13.2928 -10.1374,-8.9724 -16.9968,-11.6575 -20.621,-12.4403 v 44.8986 z"
       style="fill:#e41e15;fill-rule:evenodd"
       id="path12" />
    <path
       d="m 103.5221,47.2736 c -3.6964,0.8871 -10.542,3.7168 -20.5447,12.5722 -9.0676,8.0258 -17.3662,11.6523 -23.2715,13.2941 1.6203,4.4084 3.3523,10.7476 4.261,18.9118 h 39.5552 z"
       style="fill:#e41e15;fill-rule:evenodd"
       id="path13" />
    <path
       d="m 123.0075,100.934 c 4.0119,-3.015 18.9286,-14.2169 18.9286,-14.2169 0,0 -25.2456,0 -25.3371,0 -0.0229,-0.0683 -8.5141,-24.2904 -8.5141,-24.2904 0,0 -8.6703,24.2221 -8.6946,24.2904 -0.0938,0 -26.0185,0 -26.0185,0 0,0 15.7011,11.1828 19.9612,14.2169 H 64.5517 c 0.0218,0.8677 0.0598,1.708 0.0609,2.6062 0.0166,29.8048 5.955,36.3871 12.5698,40.97 2.4627,1.7013 5.2152,3.1788 8.1297,4.7434 5.3065,2.8511 11.5279,6.239 18.21,12.1774 v -46.9656 c 1.6805,-1.1872 4.4955,-3.1781 4.5628,-3.2218 0.0574,0.0358 2.6451,1.8082 4.3204,2.9557 v 47.2661 c 6.757,-6.0644 13.0418,-9.5471 18.4015,-12.4783 2.8666,-1.5646 5.5767,-3.0453 8.0131,-4.7358 6.6123,-4.5795 12.5506,-11.1574 12.5697,-40.9649 0,-0.8121 0.0381,-1.5657 0.0532,-2.3524 z"
       style="fill:#224c99;fill-rule:evenodd"
       id="path14" />
    <path
       d="m 137.9355,88.0494 c -2.3528,1.7716 -14.1343,10.6168 -16.9206,12.7066 l -11.8225,-3.6682 c 1.1827,-1.4669 4.3345,-5.3674 7.2999,-9.0384 3.6963,0 18.512,0 21.4432,0 z"
       style="fill:#ffe000;fill-rule:evenodd"
       id="path15" />
    <path
       d="m 108.0711,66.4198 c 0.9363,2.6647 6.0918,17.3814 7.3212,20.876 l -7.3759,9.122 -7.4179,-9.1258 c 1.2549,-3.5022 6.5209,-18.2139 7.4726,-20.8722 z"
       style="fill:#ffe000;fill-rule:evenodd"
       id="path16" />
    <path
       d="m 77.5453,88.0494 c 3.2192,0 19.4444,0 21.9518,0 l 7.3824,9.0867 -11.5497,3.5832 C 92.3367,98.5876 80.0348,89.8245 77.5453,88.0494 Z"
       style="fill:#ffe000;fill-rule:evenodd"
       id="path17" />
    <path
       d="m 88.284,123.6065 c 0.9933,-2.897 6.1731,-17.9534 7.4305,-21.6095 l 11.6334,-3.6086 v 11.7403 c -3.2599,2.3016 -16.5568,11.7041 -19.0639,13.4778 z"
       style="fill:#ffe000;fill-rule:evenodd"
       id="path18" />
    <path
       d="m 108.68,110.0311 c 0,-4.8211 0,-10.016 0,-11.7075 l 12.0416,3.7397 c 1.3513,3.7381 6.7606,18.6844 7.7999,21.5547 -2.5887,-1.7696 -16.7914,-11.496 -19.8415,-13.5869 z"
       style="fill:#ffe000;fill-rule:evenodd"
       id="path19" />
  </g>
</svg>
