<?xml version="1.0" encoding="UTF-8" standalone="no"?>
<svg
   version="1.1"
   width="1.7867652in"
   height="1.2566209in"
   viewBox="0 0 128.6471 90.476704"
   id="svg15"
   sodipodi:docname="ass_ferroviaria_esp-sp.cdr"
   xmlns:inkscape="http://www.inkscape.org/namespaces/inkscape"
   xmlns:sodipodi="http://sodipodi.sourceforge.net/DTD/sodipodi-0.dtd"
   xmlns="http://www.w3.org/2000/svg"
   xmlns:svg="http://www.w3.org/2000/svg">
  <defs
     id="defs15" />
  <sodipodi:namedview
     id="namedview15"
     pagecolor="#ffffff"
     bordercolor="#000000"
     borderopacity="0.25"
     inkscape:showpageshadow="2"
     inkscape:pageopacity="0.0"
     inkscape:pagecheckerboard="0"
     inkscape:deskcolor="#d1d1d1"
     inkscape:document-units="in" />
  <g
     id="Layer1003"
     transform="translate(-43.676498,-62.7616)">
    <path
       d="m 172.3236,108.0006 c 0,24.984 -28.7987,45.2377 -64.3238,45.2377 -35.5247,0 -64.3233,-20.2537 -64.3233,-45.2377 0,-24.9855 28.7986,-45.239 64.3233,-45.239 35.5251,0 64.3238,20.2535 64.3238,45.239 z"
       style="fill:#550000;fill-rule:evenodd"
       id="path10" />
    <path
       d="m 49.3314,108.0006 c 0,21.826 26.3184,39.5829 58.6684,39.5829 32.3499,0 58.6689,-17.7569 58.6689,-39.5829 0,-21.8267 -26.319,-39.5843 -58.6689,-39.5843 -32.35,0 -58.6684,17.7576 -58.6684,39.5843 z"
       style="fill:#ffffff;fill-rule:evenodd"
       id="path11" />
    <path
       d="m 51.8053,108.0006 c 0,20.4621 25.2088,37.1089 56.1945,37.1089 30.9857,0 56.1949,-16.6468 56.1949,-37.1089 0,-20.4626 -25.2092,-37.1103 -56.1949,-37.1103 -30.9857,0 -56.1945,16.6477 -56.1945,37.1103 z"
       style="fill:#550000;fill-rule:evenodd"
       id="path12" />
    <path
       d="m 148.0795,119.725 c -1.7286,1.8894 -3.8713,3.6909 -6.399,5.3608 -2.3595,1.558 -4.9453,2.9232 -7.7036,4.0967 v -18.0019 h 12.7233 v -6.3615 H 133.9769 V 86.8175 c 2.7583,1.1739 5.3428,2.539 7.7022,4.0969 2.162,1.4279 4.0422,2.952 5.6231,4.5451 l 4.3212,-4.6718 c -1.8473,-1.8347 -3.9995,-3.5708 -6.4392,-5.1819 -5.1052,-3.3718 -11.025,-5.961 -17.5688,-7.6763 v 60.1032 c 6.4886,-1.7153 12.5009,-4.2915 17.5704,-7.6388 2.8385,-1.8747 5.2875,-3.9186 7.3212,-6.0903 z"
       style="fill:#ffffff;fill-rule:evenodd"
       id="path13" />
    <path
       d="m 70.8147,85.6058 c -9.2954,6.1387 -14.4148,14.0921 -14.4148,22.3948 0,7.4363 4.1075,14.5931 11.6447,20.4158 l 4.2432,-4.7636 c -4.9763,-3.7476 -8.1237,-8.0502 -9.1529,-12.4722 h 18.1815 v 24.4928 c 2.1105,0.8242 4.1137,1.5482 6.3615,2.1681 V 78.0979 c -6.2988,1.7143 -11.9218,4.2446 -16.8632,7.5079 z m -7.6746,19.2133 c 1.1635,-4.9962 5.027,-9.8407 11.1802,-13.9047 2.1575,-1.4247 4.5021,-2.6904 6.9961,-3.7945 v 17.6992 z"
       style="fill:#ffffff;fill-rule:evenodd"
       id="path14" />
    <path
       d="m 120.1934,81.8355 v -6.3617 l -25.447,7e-4 v 63.9698 h 6.3617 v -28.2637 h 16.0811 v -6.3615 H 101.1081 V 81.8355 Z"
       style="fill:#ffffff;fill-rule:evenodd"
       id="path15" />
  </g>
</svg>
