<?xml version="1.0" encoding="UTF-8" standalone="no"?>
<svg
   version="1.1"
   width="3in"
   height="3in"
   viewBox="0 0 216 216"
   id="svg26"
   sodipodi:docname="FIGUEI~1.cdr"
   xmlns:inkscape="http://www.inkscape.org/namespaces/inkscape"
   xmlns:sodipodi="http://sodipodi.sourceforge.net/DTD/sodipodi-0.dtd"
   xmlns="http://www.w3.org/2000/svg"
   xmlns:svg="http://www.w3.org/2000/svg">
  <defs
     id="defs26" />
  <sodipodi:namedview
     id="namedview26"
     pagecolor="#ffffff"
     bordercolor="#000000"
     borderopacity="0.25"
     inkscape:showpageshadow="2"
     inkscape:pageopacity="0.0"
     inkscape:pagecheckerboard="0"
     inkscape:deskcolor="#d1d1d1"
     inkscape:document-units="in" />
  <g
     id="Layer1003">
    <path
       d="m 156.4374,79.0212 c 0.2798,-0.9792 0.6999,-1.8195 0.9802,-2.7998 0.4197,-0.979 0.8393,-1.8194 1.259,-2.5194 0.6998,-1.2588 1.3997,-2.1002 2.2407,-2.7996 0.1393,-0.2803 0.4196,-0.5594 0.6998,-0.6999 L 138.6578,47.8037 c -1.3997,1.1195 -3.6388,2.0998 -6.9992,2.9408 -0.8398,0.2785 -1.8195,0.5589 -2.6604,0.6999 -1.2588,0.2786 -2.5194,0.5589 -3.9198,0.8392 -4.1995,0.56 -8.9585,0.9791 -14.1383,0.9791 0,0 0,0 -0.141,0 -0.5589,0 -1.1196,0 -1.539,0 H 106.88 c -0.4201,0 -0.7002,0 -1.1201,0 -0.1393,0 -0.4196,0 -0.6996,0 -5.4602,0 -10.3598,-0.4191 -14.6995,-1.1185 -1.1195,-0.2818 -2.2389,-0.4212 -3.2196,-0.6998 -0.9799,-0.141 -1.8193,-0.4214 -2.7998,-0.6999 -3.219,-0.841 -5.5992,-1.8213 -6.9995,-2.9408 L 54.383,70.2025 c 0.2801,0.1405 0.5605,0.4196 0.8408,0.6999 1.2593,1.1194 2.3786,2.9401 3.3589,5.319 1.8195,4.1995 2.8001,9.2389 2.9405,14.9793 0,0.7005 0,1.3999 0,2.0998 0,4.7591 -0.421,9.1002 -1.5405,12.8802 -0.1395,0.5599 -0.2804,0.9785 -0.4201,1.3992 -0.2801,0.8397 -0.56,1.82 -0.9799,2.6603 -0.2803,0.7006 -0.559,1.5396 -0.9803,2.1003 0,0.2788 -0.1394,0.5594 -0.2787,0.6996 -0.1413,0.5594 -0.2806,0.9788 -0.5605,1.5398 0,0.2787 -0.1397,0.5602 -0.2801,0.8392 -0.8396,2.9393 -1.4003,6.1602 -1.5396,9.5204 -0.1411,0.7 -0.1411,1.2594 0,1.8183 0,1.4001 0,2.6602 0.2803,3.9209 0.2786,2.6607 1.1196,5.1786 2.0999,7.5602 1.8193,4.0586 4.339,7.6996 7.4191,10.7782 3.2196,3.0802 6.8589,5.18 11.1996,6.1602 4.1995,1.1193 8.5387,1.8198 12.8793,2.2392 0.8392,0 1.5391,0.1395 2.2393,0.2803 3.6395,0.5591 6.8602,1.8198 9.66,3.7801 2.6589,1.8193 4.8996,3.9194 6.9995,6.1601 0,0.1395 0.1393,0.2789 0.279,0.559 0.1406,-0.2801 0.2799,-0.4195 0.4212,-0.559 1.2588,-1.4 2.6587,-2.9407 4.3389,-4.1995 0.8392,-0.7002 1.6801,-1.4001 2.5198,-1.9606 1.819,-1.2607 3.78,-2.2394 6.0191,-2.9391 1.8212,-0.5606 3.7799,-0.9818 5.8803,-1.1213 3.4995,-0.279 6.8599,-0.8395 10.2191,-1.5394 0.8403,-0.1393 1.8206,-0.4209 2.7997,-0.6998 3.3603,-0.8393 6.4404,-2.3804 9.24,-4.4799 0.5594,-0.5594 1.2588,-1.1199 1.8195,-1.6803 2.3801,-2.3788 4.3394,-4.8996 6.0195,-7.6997 0.4196,-0.9787 0.9803,-1.9603 1.4,-3.0785 0,0 0,0 0,-0.1409 1.1194,-2.3804 1.8193,-4.8997 2.2407,-7.4193 0,-0.1393 0,-0.2802 0,-0.4212 0.2786,-1.8179 0.2786,-3.4997 0.2786,-5.318 -0.1393,-3.7814 -0.8392,-7.1405 -1.9588,-10.3596 -0.1409,-0.4212 -0.2803,-0.9804 -0.5605,-1.4 0,0 0,0 0,-0.1398 0,-0.1402 -0.8393,-2.0993 -1.259,-2.7999 -0.141,-0.4207 -0.2803,-0.8403 -0.4212,-1.2605 -0.1394,-0.4207 -0.4196,-0.9802 -0.559,-1.3998 -1.2605,-4.1995 -1.9604,-8.9598 -1.9604,-14.2794 0,-0.1405 0,-0.1405 0,-0.2803 0,-5.319 0.6999,-9.9383 1.9604,-13.999 z"
       style="fill:#1b1918;fill-rule:evenodd"
       id="path10" />
    <path
       d="m 154.1966,77.2017 c 0.1411,-0.6999 0.4213,-1.3999 0.7,-1.9593 0.4207,-1.1208 0.841,-1.9605 1.3997,-2.7992 0,-0.1416 0,-0.1416 0.1411,-0.1416 0.2798,-0.8403 0.6999,-1.3992 1.2588,-2.0991 l -19.458,-18.8991 c -1.3999,0.8408 -3.3603,1.5402 -5.7403,2.2407 -0.1394,0 -0.2787,0 -0.4203,0 -0.8386,0.2787 -1.6795,0.4185 -2.5187,0.6999 -0.5607,0.1393 -1.1201,0.2787 -1.6802,0.2787 z"
       style="fill:#ffffff;fill-rule:evenodd"
       id="path11" />
    <path
       d="m 57.8826,129.418 c 0,0.2806 0,0.5607 0.1411,0.8395 0.2787,2.3817 0.9789,4.6213 1.959,6.8604 1.5405,3.639 3.7801,6.8601 6.4401,9.6598 0.1397,0 0.2792,0.1396 0.2792,0.1396 2.7999,2.7995 6.1601,4.6206 9.9402,5.5995 3.3588,0.8395 6.9995,1.5395 10.6389,1.9606 z"
       style="fill:#ffffff;fill-rule:evenodd"
       id="path12" />
    <path
       d="m 61.3828,75.5215 c 1.9603,4.8994 2.9401,10.7798 2.9401,17.779 0,0 0,0.1411 0,0.2803 l 10.8469,9.2696 c 0.8037,-4.1413 2.3996,-7.9746 4.73,-11.5007 z"
       style="fill:#ffffff;fill-rule:evenodd"
       id="path13" />
    <path
       d="m 134.5976,153.6377 c 1.6808,-0.4207 3.221,-0.6997 4.9001,-1.1209 2.7996,-0.6999 5.4601,-1.9606 7.6992,-3.639 L 130.815,134.8744 c -3.258,2.8793 -6.8379,4.9911 -10.7374,6.3557 z"
       style="fill:#ffffff;fill-rule:evenodd"
       id="path14" />
    <path
       d="m 73.4228,55.503 -7.6995,7.6997 22.6461,19.3101 c 3.2534,-2.3925 6.7602,-4.1639 10.5539,-5.2482 z"
       style="fill:#ffffff;fill-rule:evenodd"
       id="path15" />
    <path
       d="m 158.3961,128.0183 -16.2437,-13.8625 c -0.4978,4.0315 -1.6637,7.7572 -3.5381,11.1981 l 16.4232,14.0032 c 0.4196,-0.7 0.7001,-1.3999 1.1197,-2.0998 0,-0.1394 0,-0.2789 0.1391,-0.2789 h -0.1391 c 0.9801,-2.0996 1.539,-4.4799 1.82,-6.7209 0.1404,-0.8395 0.2797,-1.5391 0.4189,-2.2392 z"
       style="fill:#ffffff;fill-rule:evenodd"
       id="path16" />
    <path
       d="m 137.6941,92.2245 c 0.1274,0.2068 0.2679,0.4077 0.3896,0.6156 l 14.9929,12.7799 c -0.9798,-3.6395 -1.3994,-7.8391 -1.3994,-12.3195 0,-0.9797 0,-1.8195 0,-2.6587 L 111.2203,56.0624 c -0.1409,0 -0.1409,0 -0.2802,0 0,0 0,0 -0.141,0 -0.5589,0 -1.1196,0 -1.539,0 H 106.88 c -0.4201,0 -0.7002,0 -1.1201,0 -0.1393,0 -0.4196,0 -0.6996,0 -3.7802,0 -7.4197,-0.2792 -10.7797,-0.5594 l 26.6079,22.6801 c 2.4759,0.9546 4.8185,2.2147 7.0339,3.7623 l 10.4552,1.5556 c 0.2175,3.1395 0.002,6.0224 -0.6835,8.7235 z"
       style="fill:#ffffff;fill-rule:evenodd"
       id="path17" />
    <path
       d="m 75.6619,125.3581 c 0.4185,-1.0845 0.8461,-2.1274 1.2946,-3.173 -0.2775,-0.6797 -0.5372,-1.3675 -0.7671,-2.069 L 62.3626,108.2805 c -0.1393,0 -0.1393,0 -0.1393,0.1391 -0.2805,0.9803 -0.7001,1.9606 -0.9803,2.7998 -0.4195,0.8394 -0.6997,1.5394 -0.9802,2.2393 -0.1395,0.1408 -0.1395,0.2817 -0.2801,0.5602 0,0 0,0 0,0.1398 -0.1395,0.2816 -0.2804,0.6999 -0.4201,1.1209 -0.1393,0.1395 -0.1393,0.1395 -0.1393,0.2789 -0.1408,0.7002 -0.4207,1.2607 -0.5604,1.8212 l 51.6574,44.2365 c 0.9787,-0.8393 2.0999,-1.6787 3.2194,-2.5195 1.5397,-0.9802 3.2199,-1.8195 5.0394,-2.5197 l -16.2932,-13.9486 c -5.664,-0.9362 -10.7549,-3.2345 -15.3142,-6.9186 -0.3184,0.4332 -0.6467,0.8596 -1.0104,1.2686 z"
       style="fill:#ffffff;fill-rule:evenodd"
       id="path18" />
    <path
       d="m 85.7417,111.0801 c 3.08,-2.3807 6.7194,-4.6209 11.0584,-6.4393 3.6406,-1.6811 7.4207,-3.3602 11.34,-5.0404 4.0588,-1.6801 7.4198,-4.1995 9.9391,-7.2796 2.5579,-2.96 3.5488,-6.5762 3.3739,-10.8302 -3.9395,-1.8036 -8.2434,-2.7481 -12.8931,-2.7481 -8.6798,0 -15.9596,3.079 -22.1185,9.0996 v -0.1409 c -6.0193,6.0195 -9.0996,13.299 -9.0996,21.8392 0,3.2403 0.4487,6.2958 1.3279,9.1734 1.7429,-2.8436 4.038,-5.4492 7.0719,-7.6337 z"
       style="fill:#ffffff;fill-rule:evenodd"
       id="path19" />
    <path
       d="m 130.8188,105.62 c -2.38,3.0794 -5.7404,5.4601 -9.7988,7.1388 -4.0604,1.5407 -7.9802,3.0814 -11.7599,4.8996 -3.9198,1.6813 -7.6999,3.6403 -11.3389,6.1603 -3.6406,2.3802 -6.5802,5.46 -8.8205,9.0993 -0.1216,0.1738 -0.2367,0.3474 -0.3557,0.5209 5.6532,4.6291 12.1933,6.8998 19.815,6.8998 8.5384,0 15.9595,-2.9407 21.979,-8.9599 6.1584,-6.0207 9.0991,-13.2992 9.0991,-21.8384 0,-5.0388 -1.0527,-9.6257 -3.1564,-13.7867 -1.3834,3.379 -3.284,6.7353 -5.6629,9.8663 z"
       style="fill:#ffffff;fill-rule:evenodd"
       id="path20" />
    <path
       d="m 120.3195,94.1419 c -2.9403,3.4997 -6.5798,6.1584 -11.0594,8.1173 -3.9198,1.5408 -7.6999,3.221 -11.3389,4.9 v 0 c -4.0607,1.8205 -7.5604,3.7816 -10.4995,6.16 -3.0803,2.2393 -5.3206,5.0392 -6.9995,7.9795 -0.5607,1.2596 -0.9803,2.2413 -1.5407,3.3595 l 7.1403,7.8403 c 0.1395,-0.2805 0.4197,-0.7003 0.7,-1.1197 2.3789,-3.9208 5.5998,-7.1389 9.7993,-9.939 3.6393,-2.3813 7.5588,-4.6206 11.619,-6.4404 3.7803,-1.6802 7.6994,-3.2196 11.6193,-4.7592 0,0 0.1393,0 0.1393,-0.1404 3.6406,-1.4004 6.5801,-3.4995 8.6794,-6.1594 2.5198,-3.3598 4.3411,-6.8593 5.7404,-10.3596 0,-0.1392 0.1398,-0.2803 0.1398,-0.4208 0.8392,-2.2396 1.2606,-4.618 1.2606,-7.2789 l -11.4797,-1.6796 c -0.2803,3.9193 -1.5403,7.1403 -3.9197,9.9404 z"
       style="fill:#ffffff;fill-rule:evenodd"
       id="path21" />
    <path
       d="m 119.7594,102.1198 c -0.8398,-1.1196 -0.9803,-2.2391 -0.5607,-3.3603 0.2803,-0.9786 1.2606,-1.9593 2.5211,-2.939 1.1195,-0.7 2.0992,-0.9792 2.939,-1.1201 0.8399,0 1.6802,0.1409 2.3801,0.7005 l -2.0998,1.9587 c -0.2803,-0.2785 -0.4196,-0.2785 -0.5606,-0.2785 -0.1393,-0.14 -0.4196,-0.14 -0.6993,-0.14 -0.4203,0.14 -0.7006,0.14 -0.8399,0.4185 -0.6999,0.282 -0.9801,0.8409 -0.9801,1.3999 -0.1394,0.4213 0,0.9814 0.4196,1.5408 0.5605,0.841 0.9801,1.2588 1.5402,1.2588 0.2793,0.1411 0.8398,0 1.4005,-0.4178 0.4196,-0.282 0.8392,-0.5607 0.979,-0.9819 0,-0.4185 0,-0.8394 -0.1398,-1.3999 l 2.6603,-0.8392 c 0.2792,0.56 0.2792,1.1212 0.14,1.6801 -0.14,0.559 -0.4202,1.1195 -0.8394,1.6802 -0.2802,0.4196 -0.8408,0.9786 -1.6806,1.3998 -0.8403,0.7 -1.6802,0.9791 -2.3801,1.1196 -0.7,0.1404 -1.5392,0.1404 -2.3802,-0.1405 -0.6998,-0.2791 -1.3997,-0.8398 -1.8193,-1.5397 z"
       style="fill:#1b1918;fill-rule:evenodd"
       id="path22" />
    <path
       d="m 90.6414,115.2796 0.8394,1.12 3.3603,-2.1001 0.8392,1.259 -3.3587,2.2405 1.8195,2.8001 -2.6603,1.6801 -4.3396,-6.7207 6.4393,-4.1997 0.9803,1.4 z"
       style="fill:#1b1918;fill-rule:evenodd"
       id="path23" />
    <path
       d="m 109.8204,112.6193 -2.9404,1.2604 -2.9396,-7.4205 7.139,-2.939 0.7005,1.6795 -4.3395,1.6802 0.5591,1.2612 3.6404,-1.5408 0.7001,1.5408 -3.78,1.5391 z"
       style="fill:#1b1918;fill-rule:evenodd"
       id="path24" />
    <path
       d="m 96.8001,104.6408 c 3.6406,-1.6811 7.4207,-3.3602 11.34,-5.0404 4.0588,-1.6801 7.4198,-4.1995 9.9391,-7.2796 1.2232,-1.4167 2.0754,-2.986 2.6287,-4.6978 -1.2946,-0.3512 -2.5823,-0.4807 -3.7483,-0.4807 -1.1201,0 -2.2396,0.1391 -3.2199,0.5589 -0.6999,-1.259 -1.8193,-2.0998 -3.2194,-2.2409 -1.9603,-0.4184 -2.9404,0.2814 -3.221,1.9605 -1.1195,0 -2.0996,0.2804 -3.2194,0.7 -0.1395,0 -0.2803,0 -0.5594,0 -0.9797,0 -2.0996,0 -3.0798,0.2803 -1.8196,0.2802 -3.0801,1.1194 -4.0602,2.38 -0.2806,-0.1393 -0.4199,-0.1393 -0.5592,-0.1393 -0.2803,0 -0.4209,0 -0.4209,0.1393 -0.5593,0.8392 -1.2593,1.8195 -2.1001,2.6605 -0.8392,0.979 -1.5394,2.0998 -1.9593,3.3586 -0.1407,-0.1405 -0.28,-0.2798 -0.4196,-0.2798 -1.8207,-0.8392 -2.9406,-0.5606 -3.2207,0.9796 -0.8396,-0.1404 -1.1195,0.2809 -0.8396,1.1201 -0.1393,0 -0.2799,0 -0.5605,0 -0.1393,-0.1398 -0.2788,0 -0.2788,0 -0.6999,0.9803 -0.9802,2.0998 -1.1209,3.2211 -0.5595,-0.141 -1.1197,0 -1.5394,0.418 -1.1198,1.1212 -1.6805,2.6603 -1.2604,4.6207 0.2802,2.0998 1.2604,3.5003 2.7998,4.3395 0,0.167 0.015,0.3251 0.0216,0.488 0.2695,-0.2117 0.536,-0.4241 0.8192,-0.6273 3.08,-2.3807 6.7194,-4.6209 11.0584,-6.4393 z"
       style="fill:#008000;fill-rule:evenodd"
       id="path25" />
    <path
       d="m 121.02,112.7588 c -4.0604,1.5407 -7.9802,3.0814 -11.7599,4.8996 -3.9198,1.6813 -7.6999,3.6403 -11.3389,6.1603 -1.4452,0.9445 -2.748,2.0287 -3.9715,3.1854 0.2665,0.2237 0.5524,0.425 0.8914,0.5945 0.6999,0.2805 1.68,0.5593 2.5195,0.5593 0.9802,0 1.8197,0 2.6602,-0.2788 0.9789,-0.1395 1.2593,-0.4211 0.8395,-0.9806 0.4198,-0.559 0.9802,-0.6996 1.6805,-0.8405 0.9797,0 1.8194,0.2815 2.6589,0.6998 0.4209,0.2819 0.9801,0.4212 1.3997,0.5607 0,0.1395 0,0.1395 0,0.2801 0,0.5593 0,1.2592 0,1.9592 -0.6997,-0.1398 -1.3997,0.1408 -1.8195,0.8407 -0.1395,0 -0.1395,0.1409 -0.1395,0.1409 -0.7,0 -1.2605,0 -1.8195,-0.1409 -0.9804,-0.141 -1.6803,0.2802 -1.9606,1.1196 -0.5605,0 -0.9801,0.1395 -1.5392,0.4212 -0.841,0.4183 -1.3999,1.1182 -1.2606,2.0999 0.1397,0.2789 0.2803,0.559 0.5606,0.559 0.5592,0.1407 0.979,0.2806 1.3997,0.2806 -0.28,0.4192 -0.28,0.8388 0,1.539 0,0 0.1396,0.1394 0.4199,0.1394 0.559,0 1.2591,0 1.8195,0 0.7001,0 1.4001,0 2.1,0 0.7001,0 1.2604,0 1.9606,-0.1394 0.8392,0 1.6787,-0.1393 2.5192,-0.1393 0.2806,-0.1397 0.5594,-0.1397 0.8395,-0.2803 0.9803,0.1406 1.5408,-0.1409 1.5408,-0.8408 0.7001,0 1.259,0 1.8195,0 0.6999,0.1406 1.3999,0.1406 2.0998,0.1406 0.8399,0.141 1.4004,0 1.9588,-0.4192 0.8409,-0.5607 0.9808,-1.1211 0.5606,-1.8213 -0.2798,-0.279 -0.5606,-0.4183 -0.8392,-0.4183 -0.1405,0 -0.2798,0 -0.2798,0 -0.4201,-0.5607 -0.9801,-0.841 -1.5408,-1.2604 -0.2792,0 -0.5595,-0.1395 -0.8397,-0.1395 -0.2805,0 -0.4198,0.1395 -0.5607,0.1395 0,0 -0.1394,0 -0.1394,-0.1395 -0.4196,-0.1408 -0.9801,-0.2814 -1.539,-0.2814 -0.4214,0 -0.841,0 -1.2606,0 0,-0.2792 0,-0.7004 0,-1.1187 0,-0.9814 0,-1.8209 0,-2.6602 0,-0.1393 0,-0.2805 0,-0.4212 0.5605,0 1.1201,0 1.5391,-0.1393 0.9808,0 1.8212,0 2.6609,0 0.7001,-0.1396 1.3994,-0.279 2.0998,-0.4196 0.4196,-0.1409 0.8394,-0.4199 0.9797,-0.8408 0.5595,0 0.9803,0 1.6801,0 0.7001,0.1406 1.4006,-0.1397 1.9593,-0.5594 0.1411,-0.1405 0.2805,-0.1405 0.5607,-0.4195 0.4196,-0.6998 0.6999,-1.4 0.6999,-2.2394 0.8399,0 1.5392,-0.1409 2.2391,-0.5605 0.6999,-0.2806 1.4004,-0.8394 2.1004,-1.4001 0.1405,-0.1393 0.419,-0.4207 0.5606,-0.8395 0.4191,0.1396 0.8387,0.279 1.3999,0.279 0.6998,0 1.1194,-0.4195 1.1194,-1.1195 0.7001,0 1.2606,-0.5589 1.5393,-1.5408 0.1404,-0.2789 0.2796,-0.5588 0.2796,-0.9787 0.1416,-0.1395 0.2809,-0.2803 0.4203,-0.2803 0.4213,0 0.6998,-0.1409 0.8409,-0.5593 0,-0.1407 0.2803,-0.1407 0.6999,-0.1407 0.4196,0 0.5589,-0.5591 0.5589,-1.3999 0,-0.9802 0.2803,-1.68 0.5607,-2.3801 0.4196,-0.8392 0.4196,-1.679 0.1392,-2.6604 -0.4196,-0.6999 -0.6999,-1.5391 -0.979,-2.3783 -0.1405,-0.14 -0.1405,-0.2805 -0.2798,-0.2805 -0.2803,-0.7005 -0.841,-1.2594 -1.6802,-1.5408 -0.1642,-0.082 -0.3199,-0.1653 -0.4734,-0.2491 -0.3521,0.5034 -0.6913,1.0142 -1.0663,1.5097 -2.38,3.0794 -5.7404,5.4601 -9.7988,7.1388 z"
       style="fill:#008000;fill-rule:evenodd"
       id="path26" />
  </g>
</svg>
