<?xml version="1.0" encoding="UTF-8" standalone="no"?>
<svg
   version="1.1"
   width="1.4979072in"
   height="1.5004684in"
   viewBox="0 0 107.84932 108.03372"
   id="svg12"
   sodipodi:docname="flamengo.cdr"
   xmlns:inkscape="http://www.inkscape.org/namespaces/inkscape"
   xmlns:sodipodi="http://sodipodi.sourceforge.net/DTD/sodipodi-0.dtd"
   xmlns="http://www.w3.org/2000/svg"
   xmlns:svg="http://www.w3.org/2000/svg">
  <defs
     id="defs12" />
  <sodipodi:namedview
     id="namedview12"
     pagecolor="#ffffff"
     bordercolor="#000000"
     borderopacity="0.25"
     inkscape:showpageshadow="2"
     inkscape:pageopacity="0.0"
     inkscape:pagecheckerboard="0"
     inkscape:deskcolor="#d1d1d1"
     inkscape:document-units="in" />
  <g
     id="Layer1003"
     transform="matrix(1.0200686,0,0,0.85838534,-56.2426,-38.688631)">
    <path
       d="M 108,170.9283 C 91.6322,164.5378 78.5083,155.709 69.3512,143.4515 59.8362,130.7146 55.1361,114.2952 55.1361,91.4392 V 45.0714 h 105.7275 v 46.3678 c 0,22.856 -4.6997,39.2754 -14.2151,52.0123 -9.157,12.2575 -22.2806,21.0863 -38.6485,27.4768 z"
       style="fill:#1b1918;fill-rule:evenodd"
       id="path10" />
    <path
       d="M 108,167.2984 C 100.6514,164.357 93.9454,160.9127 88.0028,156.769 h 39.9941 c -5.9426,4.1437 -12.6486,7.588 -19.9969,10.5294 z M 72.4324,141.8235 c -3.1392,-4.2413 -5.798,-8.9691 -7.9233,-14.2656 h 86.9816 c -2.1254,5.2965 -4.7842,10.0243 -7.9231,14.2656 z M 59.9437,110.9144 c -0.7238,-4.3421 -1.1842,-8.9767 -1.3673,-13.9263 h 98.8469 c -0.183,4.9496 -0.6435,9.5842 -1.3673,13.9263 z M 109.7324,64.515 h 47.7843 V 80.896 H 109.7324 Z M 58.4831,48.4283 h 47.8925 v 45.216 H 58.4831 Z"
       style="fill:#e41e15;fill-rule:evenodd"
       id="path11" />
    <path
       d="M 90.396,91.6069 C 89.2355,91.2366 87.815,88.0715 87.8704,86.5494 V 86.3277 C 86.3554,83.7545 84.8161,81.69 83.7525,80.3809 l 0.0062,6.6938 c -0.0821,2.2541 -0.6308,3.6922 -2.2567,4.474 1.3288,0.1895 3.3645,0.4631 4.5767,-1.3456 0.3347,0.7849 2.6262,1.9925 4.3173,1.4038 z m 4.1173,-14.9218 c 0.4169,0.9381 0.6956,2.5786 -1.8774,4.6477 3.1304,-0.4117 4.5577,-1.5719 4.6895,-3.0926 0.2457,-2.8285 -0.6932,-2.849 -0.0441,-6.6547 0.2213,-1.2973 1.019,-2.195 2.4279,-3.3284 -2.9319,0.4403 -4.7077,1.891 -5.6322,5.1163 l -6.1978,-0.0202 -0.0025,-11.0048 1.9454,-0.0018 c -0.1806,-1.2152 -0.5374,-2.4057 -1.2779,-3.7317 l -2.9754,-0.0014 c -1.4986,-0.0068 -2.1615,-0.586 -3.6117,-0.0645 1.0525,0.6163 1.8137,1.4366 1.8129,2.358 l 0.0019,12.6719 c 1.3858,0.7114 2.8295,1.8582 3.9619,3.1059 z m 2.6526,-14.3444 3.1723,-0.0028 c 0,1.766 2.0359,5.2904 5.0718,5.3837 -1.5299,-2.1988 -2.14,-3.7304 -1.4592,-6.7376 1.5088,-3.9296 0.33,-7.0608 -1.442,-7.4963 0.3342,1.1001 0.5554,4.3077 -1.2731,5.133 L 95.343,58.618 c 0.5668,1.8898 1.3993,3.4146 1.8229,3.7227 z M 82.8224,84.9085 C 70.2966,89.3979 64.714,83.2992 61.2838,74.2425 c -0.4948,-1.16 -0.5197,-1.9403 -1.8848,-2.8159 1.5308,-0.4911 1.794,-1.427 2.0328,-2.3921 0.8436,-6.1204 4.6551,-11.3149 10.6121,-13.1944 v 3.0187 c -4.2202,2.1136 -6.4961,7.7267 -6.335,12.9542 0.1825,5.9242 5.7173,12.076 11.3115,11.938 1.8435,-0.0455 3.9326,-0.2615 5.8071,-1.6584 z M 78.062,54.8587 c 0.9129,-0.0581 1.8877,-0.0943 2.9321,-0.1125 -0.2385,1.3366 -0.7041,6.5144 1.3792,8.2611 -0.3962,0.8518 -1.4825,1.8033 -2.5241,1.7791 -0.706,-0.0166 -0.9219,-0.3417 -1.2869,-0.8607 -0.1752,-0.249 -0.3416,-0.5032 -0.5003,-0.7611 z m -0.9663,21.4639 -0.0125,6.4488 c -0.4179,0.046 -0.9105,0.0481 -1.5308,-0.0724 -0.665,-0.1292 -1.6259,-0.3819 -2.5714,-0.9725 l 0.0029,-26.9411 c -2e-4,-1.6573 -1.2444,-3.1547 -3.3517,-3.9948 2.0449,-1.324 5.9593,-0.0996 6.5976,1.3847 2.0566,-1.3204 4.4901,-1.9564 6.9049,-1.9321 4.6101,0.0466 9.1523,2.5001 10.8727,7.1937 0.9077,2.4766 1.3537,5.011 3.1919,5.9454 -0.4955,0.2655 -0.8837,0.606 -1.2264,1.0494 -0.9465,1.2261 -1.5422,3.0902 -3.0821,5.3636 -0.6126,0.9045 -1.3568,1.7905 -2.2645,2.6365 H 88.806 v -2.1754 c 1.2871,-2.0829 1.9863,-4.6795 1.9558,-7.2091 -0.0447,-3.68 -2.9043,-9.3297 -9.4547,-9.7029 -1.8747,-0.1067 -3.4822,0.4655 -4.2114,0.9309 v 18.6584 c 3.8274,0 6.6063,1.3589 8.672,3.1716 1.9788,1.7361 3.3659,3.9763 4.5889,6.2801 1.7549,3.3069 2.9572,6.1952 5.1001,6.1295 1.6067,-0.077 2.3552,-0.8489 3.0518,-1.8568 0.7139,3.3004 -1.8225,4.6813 -3.3936,4.7128 -1.672,0.0337 -3.6593,-1.3805 -4.9496,-3.223 -1.9239,-2.7473 -3.7954,-6.6519 -6.472,-9.2198 -2.9949,-2.8732 -5.103,-2.6092 -6.5976,-2.6055 z m 0.3676,10.9383 c 0.4417,1.7861 1.3095,3.9138 2.8318,4.8653 -3.9464,-0.0417 -4.2387,-1.4099 -4.8007,-2.0177 -0.9479,0.9479 -2.3956,2.497 -5.3979,2.2001 1.6922,-1.5748 2.4259,-3.1492 2.7157,-5.0918 1.4745,0.2262 3.2767,0.2851 4.6511,0.0441 z"
       style="fill:#ffffff;fill-rule:evenodd"
       id="path12" />
  </g>
</svg>
