<?xml version="1.0" encoding="UTF-8" standalone="no"?>
<svg
   version="1.1"
   width="1.6581125in"
   height="1.6602378in"
   viewBox="0 0 119.3841 119.53712"
   id="svg14"
   sodipodi:docname="fluminense_fc-rj3.cdr"
   xmlns:inkscape="http://www.inkscape.org/namespaces/inkscape"
   xmlns:sodipodi="http://sodipodi.sourceforge.net/DTD/sodipodi-0.dtd"
   xmlns="http://www.w3.org/2000/svg"
   xmlns:svg="http://www.w3.org/2000/svg">
  <defs
     id="defs14" />
  <sodipodi:namedview
     id="namedview14"
     pagecolor="#ffffff"
     bordercolor="#000000"
     borderopacity="0.25"
     inkscape:showpageshadow="2"
     inkscape:pageopacity="0.0"
     inkscape:pagecheckerboard="0"
     inkscape:deskcolor="#d1d1d1"
     inkscape:document-units="in" />
  <g
     id="Layer1000"
     style="display:none"
     transform="translate(-50.005032,-45.67783)">
    <path
       d="M 0,216.0002 H 215.9998 V -2e-4 H 0 Z"
       style="fill:#d7dddd;fill-rule:evenodd"
       id="path1" />
    <g
       id="Layer1001">
      <path
         d="M 75.7414,206.2579 74.0892,216 H 0 v -9.7421 z"
         style="fill:#e30016;fill-rule:evenodd"
         id="path2" />
      <path
         d="M 75.7414,206.2579 74.0892,216 h 141.911 v -9.7421 z"
         style="fill:#1b1918;fill-rule:evenodd"
         id="path3" />
      <path
         d="m 86.6423,209.4519 c 0.9906,0 1.7957,0.7961 1.7957,1.7692 0,0.9906 -0.8051,1.7869 -1.7957,1.7869 -0.9731,0 -1.7869,-0.7963 -1.7869,-1.7869 0,-0.9731 0.8138,-1.7692 1.7869,-1.7692 z m 0,4.1223 c 1.3004,0 2.3529,-1.0527 2.3529,-2.3531 0,-1.2826 -1.0525,-2.3354 -2.3529,-2.3354 -1.2916,0 -2.3443,1.0528 -2.3443,2.3354 0,1.3004 1.0527,2.3531 2.3443,2.3531 z m 7.4572,-4.6444 c -0.3273,0 -0.4953,0.2832 -0.4953,0.6193 v 0.2301 c 0,0 -0.5131,-0.8494 -1.5658,-0.8494 -1.2561,0 -2.1585,1.0087 -2.1585,2.1939 0,1.212 0.9112,2.0523 2.1497,2.0523 1.1499,0 1.5746,-0.7342 1.5746,-0.7342 v 0.4866 c 0,0.9288 -0.5131,1.5658 -1.557,1.5658 -0.6989,0 -1.3711,-0.4335 -1.3711,-0.4335 -0.0443,-0.0265 -0.1061,-0.0355 -0.1504,-0.0355 -0.1681,0 -0.283,0.1239 -0.283,0.2832 0,0.0884 0.0353,0.1592 0.1415,0.2299 0,0 0.6811,0.4953 1.6717,0.4953 1.0528,0 2.1143,-0.4953 2.1143,-2.1052 v -3.3438 c 0,-0.0886 0.062,-0.1151 0.062,-0.1151 0.1062,-0.0441 0.1681,-0.1503 0.1681,-0.2565 0,-0.168 -0.1415,-0.2832 -0.3008,-0.2832 z m -2.017,0.5487 c 0.9465,0 1.5658,0.7695 1.5658,1.6276 0,0.92 -0.6458,1.5303 -1.5834,1.5303 -0.9465,0 -1.5835,-0.6368 -1.5835,-1.5215 0,-0.8757 0.6547,-1.6364 1.6011,-1.6364 z m 3.68,-0.5487 c -0.1593,0 -0.3007,0.1152 -0.3007,0.2832 0,0.1062 0.0618,0.2124 0.168,0.2565 0,0 0.0621,0.0265 0.0621,0.1151 v 3.2907 c 0,0.0884 -0.0621,0.1149 -0.0621,0.1149 -0.1062,0.0443 -0.168,0.1505 -0.168,0.2567 0,0.168 0.1414,0.283 0.3007,0.283 0.3273,0 0.4955,-0.283 0.4955,-0.6193 v -2.6183 c 0,-0.5574 0.5307,-0.8228 1.035,-0.8228 0.2033,0 0.4245,0.0443 0.6103,0.1061 0.1858,0.0621 0.3893,-0.053 0.3893,-0.2654 0,-0.1503 -0.0796,-0.2387 -0.1948,-0.283 -0.2652,-0.0974 -0.5396,-0.1415 -0.8048,-0.1415 -0.4335,0 -0.8494,0.2034 -1.0705,0.5485 0,-0.0797 -0.0176,-0.1593 -0.0265,-0.1858 -0.0707,-0.1858 -0.2212,-0.3186 -0.4335,-0.3186 z m 7.5281,4.6001 c 0.1592,0 0.3007,-0.115 0.3007,-0.283 0,-0.1062 -0.0618,-0.2124 -0.168,-0.2567 0,0 -0.0619,-0.0265 -0.0619,-0.1149 v -3.2907 c 0,-0.0886 0.0619,-0.1151 0.0619,-0.1151 0.1062,-0.0441 0.168,-0.1503 0.168,-0.2565 0,-0.168 -0.1415,-0.2832 -0.3007,-0.2832 -0.3273,0 -0.4953,0.2832 -0.4953,0.6193 v 2.1938 c 0,0.7342 -0.5662,1.2208 -1.3182,1.2208 -0.9996,0 -1.4594,-0.451 -1.4594,-1.4507 v -1.9639 c 0,-0.3361 -0.1683,-0.6193 -0.4955,-0.6193 -0.1593,0 -0.3008,0.1152 -0.3008,0.2832 0,0.1062 0.0619,0.2124 0.168,0.2565 0,0 0.0621,0.0265 0.0621,0.1151 v 1.9284 c 0,1.318 0.6899,2.0169 2.008,2.0169 0.398,0 1.0791,-0.2389 1.3358,-0.7077 -0.0266,0.3361 0.1061,0.7077 0.4953,0.7077 z m 1.7514,1.5037 c 0.3273,0 0.4955,-0.2858 0.4955,-0.6235 v -1.7206 c 0.3714,0.6015 0.9641,0.8404 1.5568,0.8404 1.2208,0 2.1053,-1.0438 2.1053,-2.247 0,-1.256 -0.858,-2.3531 -2.1053,-2.3531 -0.6015,0 -1.2473,0.3275 -1.5568,0.9466 v -0.3273 c 0,-0.3361 -0.1682,-0.6193 -0.4955,-0.6193 -0.1593,0 -0.3008,0.1152 -0.3008,0.2832 0,0.1062 0.0619,0.2124 0.1681,0.2565 0,0 0.062,0.0265 0.062,0.1151 v 4.7901 c 0,0.0884 -0.062,0.115 -0.062,0.115 -0.1062,0.0457 -0.1681,0.1519 -0.1681,0.2581 0,0.1694 0.1415,0.2858 0.3008,0.2858 z m 2.0435,-5.5376 c 0.9554,0 1.5481,0.9112 1.5481,1.7869 0,0.8935 -0.6017,1.6808 -1.5481,1.6808 -0.9465,0 -1.548,-0.7695 -1.548,-1.6718 0,-0.8669 0.5837,-1.7959 1.548,-1.7959 z m 5.3431,-0.0441 c 0.9906,0 1.7957,0.7961 1.7957,1.7692 0,0.9906 -0.8051,1.7869 -1.7957,1.7869 -0.9731,0 -1.787,-0.7963 -1.787,-1.7869 0,-0.9731 0.8139,-1.7692 1.787,-1.7692 z m 0,4.1223 c 1.3003,0 2.3528,-1.0527 2.3528,-2.3531 0,-1.2826 -1.0525,-2.3354 -2.3528,-2.3354 -1.2916,0 -2.3444,1.0528 -2.3444,2.3354 0,1.3004 1.0528,2.3531 2.3444,2.3531 z m 3.8125,-2.6273 c 0.0886,-0.7873 0.7697,-1.495 1.5835,-1.495 0.8314,0 1.495,0.7077 1.6012,1.495 z m 3.4589,0.5661 c 0.1502,0 0.3007,-0.1239 0.3007,-0.2919 0,-1.212 -0.8934,-2.3354 -2.1761,-2.3354 -1.2738,0 -2.1585,1.1324 -2.1585,2.3354 0,1.256 0.8847,2.3531 2.1585,2.3531 0.8051,0 1.3801,-0.2389 1.778,-0.6636 0.0531,-0.0531 0.0796,-0.1237 0.0796,-0.2033 0,-0.1505 -0.1415,-0.2655 -0.283,-0.2655 -0.0796,0 -0.1592,0.0266 -0.2211,0.0884 -0.292,0.292 -0.7342,0.4778 -1.3535,0.4778 -0.8316,0 -1.4684,-0.7166 -1.5835,-1.495 z m 1.6985,2.0169 c 0.3273,0 0.4953,-0.283 0.4953,-0.6193 v -3.4146 h 1.1854 c 0.1503,0 0.2477,-0.1415 0.2477,-0.283 0,-0.168 -0.1327,-0.2832 -0.283,-0.2832 h -1.1501 v -0.3891 c 0,-0.6193 0.1858,-0.92 0.7342,-0.92 0.1593,0 0.3539,0.0531 0.5043,0.0974 0.1858,0.0441 0.3804,-0.0797 0.3804,-0.2742 0,-0.1417 -0.0974,-0.2477 -0.2123,-0.2832 -0.1946,-0.0619 -0.4247,-0.1062 -0.6724,-0.1062 -0.9375,0 -1.3004,0.6989 -1.3004,1.4862 v 0.3891 h -0.2652 c -0.177,0 -0.2832,0.1328 -0.2832,0.2832 0,0.1415 0.0974,0.283 0.2477,0.283 h 0.3007 v 3.3793 c 0,0.0884 -0.0618,0.1149 -0.0618,0.1149 -0.1062,0.0443 -0.1681,0.1505 -0.1681,0.2567 0,0.168 0.1415,0.283 0.3008,0.283 z m 5.6703,-1.1499 c 0,-0.7432 -0.8404,-1.1501 -1.495,-1.4156 -0.4244,-0.168 -1.0525,-0.4069 -1.0525,-0.8314 0,-0.3716 0.4598,-0.6811 0.9907,-0.6811 0.3185,0 0.6458,0.1062 0.8934,0.3008 0.2124,0.1592 0.4688,0 0.4688,-0.2036 0,-0.0796 -0.0353,-0.168 -0.1149,-0.2389 -0.3185,-0.2564 -0.7696,-0.4245 -1.2473,-0.4245 -0.8226,0 -1.5568,0.5307 -1.5568,1.2384 0,0.7962 0.8934,1.1766 1.4771,1.4065 0.5044,0.2036 1.0615,0.3981 1.0615,0.8494 0,0.3626 -0.5041,0.628 -1.0527,0.628 -0.3714,0 -0.7252,-0.0974 -0.9818,-0.2832 -0.2477,-0.168 -0.4866,-0.009 -0.4866,0.1948 0,0.0884 0.0355,0.1768 0.1239,0.2387 0.3627,0.2389 0.8757,0.4159 1.3092,0.4159 0.6901,0 1.663,-0.3185 1.663,-1.1942 z m 6.3869,-0.7698 c -0.2829,0.6812 -0.9375,1.3447 -1.7248,1.3447 -0.8228,0 -1.3094,-0.7697 -1.3094,-1.5658 0,-1.0615 0.8228,-2.0877 1.8754,-2.0877 1.265,0 1.5127,1.3004 1.1588,2.3088 z m 0.0709,0.9643 c 0.1858,0.6369 0.6811,0.9554 1.3445,0.9554 1.3712,0 1.7338,-1.6896 1.7338,-2.7954 0,-1.1411 -0.3716,-2.0789 -1.1854,-2.8927 -0.8314,-0.8314 -1.9903,-1.2118 -3.158,-1.2118 -2.468,0 -4.3699,2.0965 -4.3699,4.37 0,2.3528 1.9727,4.3874 4.3877,4.3874 0.9288,0 1.8135,-0.2917 2.5564,-0.8314 0.0797,-0.0618 0.1238,-0.1504 0.1238,-0.2476 0,-0.177 -0.1415,-0.2832 -0.2918,-0.2832 -0.0621,0 -0.1239,0.0178 -0.177,0.0531 -0.628,0.4512 -1.371,0.7076 -2.1495,0.7076 -2.0965,0 -3.8569,-1.6542 -3.8569,-3.7859 0,-2.0789 1.6983,-3.7772 3.7772,-3.7772 1.0705,0 2.1055,0.3448 2.8397,1.1499 0.5927,0.6545 0.92,1.3269 0.92,2.2203 0,0.7696 -0.1152,2.3442 -1.1501,2.3442 -0.5307,0 -0.8226,-0.3273 -0.8226,-0.8492 0,-0.2477 0.053,-0.4953 0.0884,-0.7432 0.0708,-0.4776 0.1415,-0.9553 0.2211,-1.4329 0.0265,-0.1592 0.2476,-0.1682 0.2476,-0.3804 0,-0.1504 -0.1059,-0.2919 -0.2742,-0.2919 -0.2033,0 -0.3714,0.1415 -0.46,0.3095 -0.336,-0.5306 -0.9022,-0.8226 -1.548,-0.8226 -1.4329,0 -2.4768,1.3357 -2.4768,2.6804 0,1.0792 0.6723,2.123 1.8577,2.123 0.7253,0 1.3798,-0.407 1.8223,-0.9554 z m 8.1206,-3.6447 c -0.3273,0 -0.4954,0.2832 -0.4954,0.6193 v 0.2301 c 0,0 -0.513,-0.8494 -1.5658,-0.8494 -1.256,0 -2.1585,1.0087 -2.1585,2.1939 0,1.212 0.9112,2.0523 2.1498,2.0523 1.1499,0 1.5745,-0.7342 1.5745,-0.7342 v 0.4866 c 0,0.9288 -0.513,1.5658 -1.557,1.5658 -0.6989,0 -1.371,-0.4335 -1.371,-0.4335 -0.0443,-0.0265 -0.1062,-0.0355 -0.1505,-0.0355 -0.168,0 -0.283,0.1239 -0.283,0.2832 0,0.0884 0.0354,0.1592 0.1415,0.2299 0,0 0.6811,0.4953 1.6718,0.4953 1.0527,0 2.1142,-0.4953 2.1142,-2.1052 v -3.3438 c 0,-0.0886 0.0621,-0.1151 0.0621,-0.1151 0.1062,-0.0441 0.168,-0.1503 0.168,-0.2565 0,-0.168 -0.1415,-0.2832 -0.3007,-0.2832 z m -2.0171,0.5487 c 0.9466,0 1.5658,0.7695 1.5658,1.6276 0,0.92 -0.6458,1.5303 -1.5833,1.5303 -0.9466,0 -1.5836,-0.6368 -1.5836,-1.5215 0,-0.8757 0.6548,-1.6364 1.6011,-1.6364 z m 3.6801,4.0514 c 0.3272,0 0.4955,-0.283 0.4955,-0.6193 v -2.2026 c 0,-0.7342 0.4953,-1.212 1.2295,-1.212 0.5131,0 1.1234,0.2742 1.1234,1.1146 v 2.6363 c 0,0.1503 0.1327,0.283 0.2832,0.283 0.1592,0 0.283,-0.1327 0.283,-0.283 v -2.5567 c 0,-0.7695 0.4777,-1.1942 1.2295,-1.1942 0.5131,0 1.1235,0.3273 1.1235,1.1146 v 2.3 c 0,0.3363 0.1681,0.6193 0.4954,0.6193 0.1592,0 0.3007,-0.115 0.3007,-0.283 0,-0.1062 -0.0618,-0.2124 -0.168,-0.2567 0,0 -0.0619,-0.0265 -0.0619,-0.1149 v -2.2557 c 0,-1.1501 -0.8404,-1.6898 -1.672,-1.6898 -0.5749,0 -1.1323,0.2567 -1.4418,0.7786 -0.3008,-0.6103 -0.9288,-0.7786 -1.4774,-0.7786 -0.4776,0 -0.9464,0.1858 -1.2471,0.6458 0,-0.009 0,-0.053 0,-0.0618 -0.0178,-0.3185 -0.1858,-0.584 -0.4955,-0.584 -0.1593,0 -0.3008,0.1152 -0.3008,0.2832 0,0.1062 0.0619,0.2124 0.168,0.2565 0,0 0.0621,0.0265 0.0621,0.1151 v 3.2907 c 0,0.0884 -0.0621,0.1149 -0.0621,0.1149 -0.1061,0.0443 -0.168,0.1505 -0.168,0.2567 0,0.168 0.1415,0.283 0.3008,0.283 z m 11.0664,0.0443 c 0.1592,0 0.3007,-0.1593 0.3007,-0.3273 0,-0.1062 -0.0619,-0.2124 -0.168,-0.2567 0,0 -0.0619,-0.0265 -0.0619,-0.1149 v -2.415 c 0,-0.2476 -0.009,-0.5043 -0.0886,-0.7076 -0.2565,-0.6636 -0.9907,-0.867 -1.7249,-0.867 -0.4246,0 -0.8581,0.0797 -1.1854,0.2034 -0.1149,0.0443 -0.1946,0.1505 -0.1946,0.2654 0,0.1593 0.115,0.2742 0.2742,0.2742 0.0354,0 0.0884,-0.009 0.124,-0.0175 0.3538,-0.0974 0.628,-0.1593 1.0172,-0.1593 0.513,0 1.0173,0.115 1.1588,0.5041 0.0266,0.0709 0.0531,0.3185 0.0531,0.5221 0,0.0884 0,0.1946 0,0.2477 -0.2832,-0.1771 -0.7076,-0.292 -1.088,-0.292 -1.0793,0 -2.017,0.5218 -2.017,1.672 0,0.9553 0.8138,1.4684 1.6897,1.4684 0.5219,0 1.1677,-0.2742 1.4153,-0.7255 0,0.0885 0,0.1946 0.0176,0.2655 0.0621,0.2386 0.2213,0.46 0.4778,0.46 z m -0.4954,-1.7073 c 0,0.7252 -0.7432,1.1499 -1.3977,1.1499 -0.5662,0 -1.1412,-0.292 -1.1412,-0.92 0,-0.7785 0.7077,-1.0968 1.4243,-1.0968 0.3892,0 0.7165,0.053 1.1146,0.2742 z m 2.4503,1.663 c 0.1593,0 0.3008,-0.115 0.3008,-0.283 0,-0.1062 -0.0619,-0.2124 -0.1681,-0.2567 0,0 -0.0618,-0.0265 -0.0618,-0.1149 v -3.3262 c 0,-0.3361 -0.1681,-0.6193 -0.4954,-0.6193 -0.1592,0 -0.3007,0.1152 -0.3007,0.2832 0,0.1062 0.0619,0.2124 0.168,0.2565 0,0 0.0619,0.0265 0.0619,0.1151 v 3.326 c 0,0.3363 0.168,0.6193 0.4953,0.6193 z m -0.3007,-5.6616 c 0.2301,0 0.4159,-0.1855 0.4159,-0.4157 0,-0.2211 -0.1948,-0.3981 -0.4159,-0.3981 -0.2212,0 -0.407,0.177 -0.407,0.4069 0,0.2214 0.1858,0.4069 0.407,0.4069 z m 2.2114,5.6616 c 0.1592,0 0.3007,-0.115 0.3007,-0.283 0,-0.1062 -0.0619,-0.2124 -0.168,-0.2567 0,0 -0.0619,-0.0265 -0.0619,-0.1149 v -5.2015 c 0,-0.3361 -0.168,-0.6193 -0.4953,-0.6193 -0.1593,0 -0.3008,0.1152 -0.3008,0.2832 0,0.1062 0.0619,0.2123 0.1681,0.2564 0,0 0.0618,0.0266 0.0618,0.115 v 5.2015 c 0,0.3363 0.1681,0.6193 0.4954,0.6193 z m 2.0789,0 v 0 c 0.2476,0 0.4512,-0.1946 0.4512,-0.4513 0,-0.2476 -0.2036,-0.451 -0.4512,-0.451 -0.2565,0 -0.4511,0.2034 -0.4511,0.451 0,0.2567 0.1946,0.4513 0.4511,0.4513 z m 3.8037,0.0443 c 0.5131,0 1.0262,-0.1683 1.4243,-0.4866 0.3451,-0.2742 -0.0353,-0.7166 -0.3538,-0.46 -0.3185,0.2565 -0.6901,0.3714 -1.0705,0.3714 -0.9819,0 -1.8045,-0.7961 -1.8045,-1.7602 0,-0.9996 0.8226,-1.7781 1.8045,-1.7781 0.3804,0 0.752,0.1149 1.0705,0.3626 0.3361,0.2654 0.7076,-0.1856 0.3538,-0.46 -0.4069,-0.3183 -0.9112,-0.4776 -1.4243,-0.4776 -1.3004,0 -2.3619,1.0528 -2.3619,2.3531 0,1.2827 1.0615,2.3354 2.3619,2.3354 z m 4.8036,-4.1223 c 0.9906,0 1.7957,0.7961 1.7957,1.7692 0,0.9906 -0.8051,1.7869 -1.7957,1.7869 -0.9731,0 -1.7869,-0.7963 -1.7869,-1.7869 0,-0.9731 0.8138,-1.7692 1.7869,-1.7692 z m 0,4.1223 c 1.3004,0 2.3529,-1.0527 2.3529,-2.3531 0,-1.2826 -1.0525,-2.3354 -2.3529,-2.3354 -1.2916,0 -2.3443,1.0528 -2.3443,2.3354 0,1.3004 1.0527,2.3531 2.3443,2.3531 z m 3.5824,-0.0443 c 0.3273,0 0.4955,-0.283 0.4955,-0.6193 v -2.2026 c 0,-0.7342 0.4954,-1.212 1.2296,-1.212 0.5131,0 1.1233,0.2742 1.1233,1.1146 v 2.6363 c 0,0.1503 0.1327,0.283 0.2832,0.283 0.1593,0 0.283,-0.1327 0.283,-0.283 v -2.5567 c 0,-0.7695 0.4778,-1.1942 1.2295,-1.1942 0.5131,0 1.1236,0.3273 1.1236,1.1146 v 2.3 c 0,0.3363 0.168,0.6193 0.4953,0.6193 0.1593,0 0.3008,-0.115 0.3008,-0.283 0,-0.1062 -0.0619,-0.2124 -0.1681,-0.2567 0,0 -0.0618,-0.0265 -0.0618,-0.1149 v -2.2557 c 0,-1.1501 -0.8404,-1.6898 -1.672,-1.6898 -0.575,0 -1.1323,0.2567 -1.4419,0.7786 -0.3007,-0.6103 -0.9288,-0.7786 -1.4774,-0.7786 -0.4775,0 -0.9463,0.1858 -1.2471,0.6458 0,-0.009 0,-0.053 0,-0.0618 -0.0177,-0.3185 -0.1858,-0.584 -0.4955,-0.584 -0.1592,0 -0.3007,0.1152 -0.3007,0.2832 0,0.1062 0.0618,0.2124 0.168,0.2565 0,0 0.0621,0.0265 0.0621,0.1151 v 3.2907 c 0,0.0884 -0.0621,0.1149 -0.0621,0.1149 -0.1062,0.0443 -0.168,0.1505 -0.168,0.2567 0,0.168 0.1415,0.283 0.3007,0.283 z"
         style="fill:#ffcb00;fill-rule:evenodd"
         id="path4" />
      <g
         id="Layer1002">
        <path
           d="m 76.9488,206.2591 -1.5166,9.7401 0.3083,8e-4 1.5449,-9.7405 z"
           style="fill:#ffcb00;fill-rule:evenodd"
           id="path5" />
        <path
           d="m 77.8245,206.2584 -1.5177,9.7407 0.3083,8e-4 1.5444,-9.7415 z"
           style="fill:#ffcb00;fill-rule:evenodd"
           id="path6" />
        <path
           d="m 78.6505,206.2586 -1.5164,9.7389 0.3084,8e-4 1.5445,-9.7378 z"
           style="fill:#ffffff;fill-rule:evenodd"
           id="path7" />
        <path
           d="m 76.4585,206.2584 -0.3371,4e-4 -1.5165,9.7403 0.3083,8e-4 z"
           style="fill:#ffffff;fill-rule:evenodd"
           id="path8" />
      </g>
      <path
         d="m 42.0562,211.9053 0.9077,0.2292 c -0.1897,0.7438 -0.5304,1.309 -1.0225,1.6992 -0.492,0.3901 -1.0939,0.5862 -1.8057,0.5862 -0.7358,0 -1.3345,-0.1499 -1.7963,-0.4509 -0.4618,-0.2993 -0.8122,-0.734 -1.0527,-1.3026 -0.2403,-0.57 -0.3614,-1.1799 -0.3614,-1.8328 0,-0.7118 0.1354,-1.3329 0.4077,-1.8631 0.2722,-0.5305 0.6593,-0.9333 1.1608,-1.2087 0.5016,-0.2755 1.0543,-0.4125 1.6562,-0.4125 0.6848,0 1.2596,0.1736 1.7247,0.5223 0.4665,0.3487 0.7913,0.8377 0.9745,1.4682 l -0.8886,0.2103 c -0.1576,-0.4969 -0.3885,-0.86 -0.6895,-1.0862 -0.3009,-0.2276 -0.6801,-0.3407 -1.137,-0.3407 -0.5239,0 -0.9635,0.1259 -1.3155,0.3775 -0.3518,0.2515 -0.6003,0.5906 -0.742,1.0143 -0.1433,0.4253 -0.215,0.863 -0.215,1.3139 0,0.5812 0.0844,1.0892 0.2532,1.5223 0.1689,0.4347 0.4316,0.7581 0.7883,0.9731 0.3567,0.2148 0.742,0.3215 1.1577,0.3215 0.5063,0 0.9333,-0.1466 1.2834,-0.4379 0.3504,-0.293 0.5876,-0.7261 0.712,-1.3026 z m 1.6066,-0.0797 c 0,-0.9157 0.2548,-1.5939 0.7661,-2.0352 0.4251,-0.366 0.9459,-0.5492 1.559,-0.5492 0.6799,0 1.2373,0.223 1.6704,0.6687 0.4316,0.4443 0.6482,1.0607 0.6482,1.8457 0,0.637 -0.0955,1.137 -0.2866,1.5017 -0.1911,0.3646 -0.4698,0.648 -0.8361,0.8504 -0.3647,0.2021 -0.7644,0.3026 -1.1959,0.3026 -0.6944,0 -1.2548,-0.2214 -1.6834,-0.6656 -0.4283,-0.4443 -0.6417,-1.0846 -0.6417,-1.9191 z m 0.86,0.002 c 0,0.6337 0.1386,1.1082 0.4157,1.422 0.2787,0.3153 0.6274,0.4729 1.0494,0.4729 0.4172,0 0.7643,-0.1576 1.0429,-0.4745 0.2771,-0.3169 0.4157,-0.7993 0.4157,-1.4476 0,-0.6115 -0.14,-1.0748 -0.4187,-1.3886 -0.2787,-0.3152 -0.626,-0.4728 -1.0399,-0.4728 -0.422,0 -0.7707,0.156 -1.0494,0.4698 -0.2771,0.3136 -0.4157,0.7866 -0.4157,1.4188 z m 4.7695,2.4778 v -4.9589 h 0.7548 v 0.7039 c 0.363,-0.5398 0.8886,-0.8089 1.5748,-0.8089 0.2995,0 0.5733,0.0541 0.8234,0.1607 0.2499,0.1068 0.4378,0.2485 0.5621,0.422 0.1241,0.1736 0.2117,0.3806 0.2611,0.6195 0.0303,0.1562 0.0462,0.4283 0.0462,0.8169 v 3.0448 h -0.8408 v -3.013 c 0,-0.3424 -0.0318,-0.5986 -0.0972,-0.7675 -0.0653,-0.1688 -0.1815,-0.3042 -0.3471,-0.4061 -0.1656,-0.1002 -0.3616,-0.1513 -0.5843,-0.1513 -0.3569,0 -0.6642,0.1132 -0.9237,0.3408 -0.2597,0.2262 -0.3885,0.6577 -0.3885,1.2916 v 2.7055 z m 7.1389,-0.7501 0.1145,0.7421 c -0.2356,0.0495 -0.4473,0.075 -0.6321,0.075 -0.3042,0 -0.5398,-0.0478 -0.7087,-0.145 -0.1672,-0.0972 -0.285,-0.2229 -0.3534,-0.3806 -0.0686,-0.1576 -0.1019,-0.489 -0.1019,-0.9937 v -2.8568 h -0.6211 v -0.6498 h 0.6211 v -1.2261 l 0.8408,-0.5049 v 1.731 h 0.8408 v 0.6498 h -0.8408 v 2.9046 c 0,0.2405 0.0143,0.3949 0.0445,0.4633 0.0286,0.0686 0.0764,0.1227 0.1433,0.1641 0.067,0.0398 0.1626,0.0605 0.2867,0.0605 0.0923,0 0.215,-0.0111 0.3663,-0.0335 z m 4.0688,0.129 c -0.3122,0.2661 -0.6132,0.4523 -0.9015,0.5621 -0.2881,0.1101 -0.5972,0.1642 -0.9283,0.1642 -0.5446,0 -0.9635,-0.1323 -1.2565,-0.3982 -0.293,-0.2644 -0.4394,-0.6035 -0.4394,-1.0159 0,-0.2422 0.0557,-0.4635 0.1656,-0.6642 0.1115,-0.2005 0.2564,-0.3598 0.4347,-0.4808 0.1798,-0.1211 0.3805,-0.2134 0.6051,-0.2755 0.1656,-0.0431 0.4157,-0.0845 0.7485,-0.126 0.6783,-0.0794 1.1799,-0.1766 1.5001,-0.288 0.0031,-0.1148 0.0047,-0.1881 0.0047,-0.2183 0,-0.3408 -0.0796,-0.5813 -0.2389,-0.7213 -0.215,-0.1895 -0.5349,-0.2834 -0.9586,-0.2834 -0.3965,0 -0.6895,0.07 -0.8775,0.2086 -0.1895,0.1385 -0.3279,0.3837 -0.4188,0.7373 l -0.8216,-0.1147 c 0.0747,-0.352 0.1975,-0.6371 0.3694,-0.8535 0.1719,-0.2166 0.4204,-0.3822 0.7452,-0.5 0.3234,-0.1164 0.7007,-0.1752 1.1274,-0.1752 0.4237,0 0.7694,0.0492 1.0352,0.1497 0.2644,0.1002 0.4602,0.2244 0.5843,0.3756 0.1244,0.1513 0.212,0.3424 0.2628,0.5734 0.0272,0.1433 0.0415,0.4014 0.0415,0.7724 v 1.1147 c 0,0.7788 0.0175,1.2708 0.0526,1.4793 0.0333,0.2086 0.1034,0.4077 0.2054,0.5988 H 60.6623 C 60.5779,214.1283 60.5238,213.9213 60.5,213.684 Z m -0.067,-1.8631 c -0.3057,0.1242 -0.7644,0.2293 -1.3759,0.3153 -0.3471,0.0494 -0.5923,0.1051 -0.7357,0.1672 -0.1433,0.0621 -0.2532,0.1529 -0.3311,0.2707 -0.078,0.1195 -0.1179,0.2516 -0.1179,0.3982 0,0.2213 0.0844,0.4075 0.2549,0.5557 0.1702,0.1481 0.4187,0.223 0.7452,0.223 0.3232,0 0.6115,-0.07 0.8647,-0.2119 0.2515,-0.1401 0.4379,-0.3328 0.5557,-0.5764 0.0907,-0.1895 0.1354,-0.4682 0.1354,-0.8361 z m 3.9669,1.7341 0.1145,0.7421 c -0.2356,0.0495 -0.4473,0.075 -0.6321,0.075 -0.3042,0 -0.5398,-0.0478 -0.7087,-0.145 -0.1672,-0.0972 -0.285,-0.2229 -0.3534,-0.3806 -0.0686,-0.1576 -0.1019,-0.489 -0.1019,-0.9937 v -2.8568 h -0.6211 v -0.6498 h 0.6211 v -1.2261 l 0.8408,-0.5049 v 1.731 h 0.8408 v 0.6498 h -0.8408 v 2.9046 c 0,0.2405 0.0143,0.3949 0.0445,0.4633 0.0286,0.0686 0.0764,0.1227 0.1433,0.1641 0.067,0.0398 0.1625,0.0605 0.2867,0.0605 0.0923,0 0.215,-0.0111 0.3663,-0.0335 z m 0.5143,-1.7294 c 0,-0.9157 0.2548,-1.5939 0.766,-2.0352 0.4251,-0.366 0.946,-0.5492 1.5591,-0.5492 0.6799,0 1.2373,0.223 1.6703,0.6687 0.4317,0.4443 0.6483,1.0607 0.6483,1.8457 0,0.637 -0.0956,1.137 -0.2867,1.5017 -0.1911,0.3646 -0.4698,0.648 -0.8361,0.8504 -0.3646,0.2021 -0.7644,0.3026 -1.1958,0.3026 -0.6944,0 -1.2548,-0.2214 -1.6834,-0.6656 -0.4284,-0.4443 -0.6417,-1.0846 -0.6417,-1.9191 z m 0.86,0.002 c 0,0.6337 0.1386,1.1082 0.4157,1.422 0.2786,0.3153 0.6274,0.4729 1.0494,0.4729 0.4171,0 0.7642,-0.1576 1.0429,-0.4745 0.2771,-0.3169 0.4157,-0.7993 0.4157,-1.4476 0,-0.6115 -0.14,-1.0748 -0.4187,-1.3886 -0.2787,-0.3152 -0.626,-0.4728 -1.0399,-0.4728 -0.422,0 -0.7708,0.156 -1.0494,0.4698 -0.2771,0.3136 -0.4157,0.7866 -0.4157,1.4188 z"
         style="fill:#ffffff;fill-rule:evenodd"
         id="path9" />
    </g>
  </g>
  <g
     id="Layer1003"
     transform="translate(-50.005032,-45.67783)">
    <g
       id="Layer1004"
       transform="matrix(1.0000596,0,0,0.83909521,1.6910119,14.83035)">
      <path
         d="m 167.5977,60.3681 c -23.524,4.457 -43.4015,-3.3844 -59.6084,-23.5478 -16.1833,20.1873 -36.0369,28.0286 -59.5609,23.5478 -0.4767,16.779 1.1441,32.1042 4.8621,45.9993 0.1669,0.858 0.5244,2.0973 1.0487,3.7182 8.5564,29.0772 26.4318,52.1243 53.6501,69.0943 27.1705,-16.97 45.0458,-40.0171 53.7214,-69.0943 0.5004,-2.026 0.8102,-3.2415 0.9771,-3.7182 3.6705,-13.8236 5.2912,-29.1725 4.9099,-45.9993 z"
         style="display:inline;fill:#800000;fill-rule:evenodd;stroke:#000000;stroke-width:0.072;stroke-dasharray:none;stroke-opacity:1"
         id="path10" />
    </g>
    <g
       id="Layer1005"
       style="display:inline"
       transform="matrix(1.0380156,0,0,0.86873288,-2.4082328,11.265279)">
      <path
         d="M 163.9036,64.7535 C 142.2148,67.5898 123.6242,60.2251 108.0369,42.6119 92.4258,60.2251 73.7875,67.6374 52.0988,64.7535 c -0.0953,14.6818 1.4777,28.267 4.7906,40.6606 0,0.0237 0,0.0954 0.0239,0.1428 0.1669,0.7629 0.5006,1.9067 0.9772,3.3845 0,0.0478 0,0.0478 0.0476,0.0715 8.0798,27.5044 24.7635,49.4317 50.0512,65.7577 25.2399,-16.326 41.9236,-38.2533 50.1225,-65.7577 0.4639,-1.8553 0.7841,-3.0747 0.9613,-3.623 l -0.008,0.0242 c 3.2416,-12.3221 4.886,-25.9074 4.8386,-40.6606 z"
         style="display:inline;fill:#ffffff;fill-rule:evenodd"
         id="path11" />
    </g>
    <path
       d="m 109.73434,56.825472 c -14.587261,12.27932 -31.533972,17.979043 -50.81692,17.039004 0.31002,10.159514 1.83541,19.598998 4.576574,28.298564 0.0476,0.15986 0.0713,0.31986 0.0953,0.45984 0.119106,0.37993 0.309818,0.87987 0.548133,1.47982 h 9.74868 c 0.238313,-0.27985 0.476727,-0.53979 0.643437,-0.79999 3.694621,-5.259624 8.390103,-9.199341 14.08674,-11.819165 0.16691,-0.08005 0.333621,-0.159932 0.50053,-0.219928 2.121327,-0.940037 4.361859,-1.680036 6.697799,-2.260019 0.16671,-0.03986 0.33362,-0.100021 0.500529,-0.139876 1.33468,-0.299978 2.717164,-0.560096 4.147258,-0.760136 v 4.719826 c -1.453898,0.259952 -2.812578,0.579899 -4.147258,0.9199 -0.166909,0.02014 -0.333819,0.08014 -0.500529,0.140045 -2.478848,0.65995 -4.695679,1.48008 -6.697799,2.440005 -0.166909,0.09994 -0.33362,0.159848 -0.50053,0.239898 -3.956735,1.959874 -6.936113,4.45971 -8.985737,7.53944 h 9.486268 v -7.279406 c 2.00212,-0.980063 4.218951,-1.799941 6.697799,-2.480028 v 9.479584 c 1.33468,-0.22016 2.86027,-0.42021 4.647786,-0.55992 0.16681,-0.0401 0.33372,-0.0401 0.50062,-0.0602 1.88292,-0.17992 4.02815,-0.31988 6.36398,-0.40001 0.16681,-0.0399 0.33363,-0.0399 0.50054,-0.0399 0.85814,-0.02 1.73991,-0.0601 2.64577,-0.08 0.1668,-0.0199 0.33369,-0.0199 0.52432,-0.0199 0.024,-0.14005 0.0477,-0.26011 0.0954,-0.39999 0.23841,-0.93996 0.57204,-1.93991 1.00106,-2.999861 h -4.76699 v 3.099881 c -2.33583,0.10001 -4.48106,0.23981 -6.36397,0.3999 V 85.763936 c 2.07361,-0.480048 4.19496,-0.799994 6.36397,-0.960092 v 11.979342 h 9.03345 l 2.52655,2.759871 c -1.04867,0.859813 -1.85921,1.719973 -2.47884,2.599773 -0.0953,0.14005 -0.19073,0.28009 -0.26204,0.42013 0.16674,0 0.35745,0 0.57184,0 1.02477,-0.0201 2.07374,-0.0201 3.16998,-0.0201 0.16694,0.52015 0.33384,1.0201 0.50085,1.55988 h 34.87088 c 0.19062,-0.70006 0.35751,-1.27979 0.50041,-1.67978 0.0477,-0.08 0.0477,-0.14003 0.0718,-0.22009 2.74097,-8.699495 4.26627,-18.138814 4.62399,-28.338352 -19.25904,0.899929 -36.15836,-4.759683 -50.72153,-17.039004 z m -8.77132,28.518245 c -0.1669,0.02022 -0.33381,0.08022 -0.50062,0.100104 -1.596899,0.380026 -3.12229,0.859821 -4.647781,1.439971 v 1.679952 c -2.33594,0.539876 -4.576472,1.279789 -6.697799,2.219828 V 87.52377 c -0.905753,-0.959923 -2.240534,-1.439969 -3.980537,-1.420083 l 3.956737,-3.31963 c 4.504766,0.239982 7.698858,0.03994 9.605671,-0.559928 0.548229,-0.200042 1.144069,-0.340086 1.835219,-0.480047 0.16689,-0.05999 0.33371,-0.08005 0.54832,-0.100103 1.5969,-0.319861 3.4799,-0.599954 5.69664,-0.79991 0.1668,-0.04002 0.38132,-0.04002 0.54813,-0.04002 0.16681,-0.01988 0.33363,-0.01988 0.50054,-0.01988 2.76476,-0.140045 6.24477,0.139959 10.41611,0.799907 -0.30991,0.999951 -0.33382,2.039926 -0.1192,3.159782 -3.57541,-0.479878 -7.00782,-0.599953 -10.29691,-0.399995 -0.16691,0 -0.33373,0 -0.50054,0.02005 -2.16902,0.179901 -4.29036,0.479878 -6.36398,0.979811 z m 19.09186,6.179767 c -4.02806,-0.539873 -8.0799,-0.459823 -12.22734,0.220013 V 87.52377 c 3.76581,-0.100018 7.60365,0.05999 11.48858,0.499934 0.23823,0.419882 0.45282,0.81988 0.73876,1.240014 0.0241,0.09994 0.1432,0.139792 0.2384,0.179818 0.0239,0.02014 0.0955,0.02014 0.1432,0.02014 -0.19081,0.71986 -0.3101,1.399946 -0.3816,2.059808 z m -0.14282,-3.419898 c -0.0954,-0.179818 -0.16682,-0.319779 -0.26242,-0.459908 -0.45283,-0.81988 -0.76264,-1.619875 -0.92946,-2.399895 -0.0239,-0.139963 -0.0714,-0.279841 -0.0954,-0.419886 -0.2143,-1.099886 -0.16691,-2.15983 0.14312,-3.159863 0.0237,-0.139962 0.0952,-0.25987 0.11901,-0.399998 0.61973,-1.619956 1.883,-3.139728 3.81372,-4.519702 -1.35859,-0.799993 -2.47894,-1.679953 -3.3846,-2.679818 -2.83646,1.099885 -6.84071,2.079865 -11.98912,2.839833 v 3.479812 c -0.21441,0 -0.40511,0 -0.61973,0.01997 -2.14514,0.199956 -4.00434,0.459991 -5.55365,0.780022 0.0954,-3.339935 -1.8829,-5.219844 -5.887337,-5.579732 l 3.813728,-3.199804 c 6.888519,0.539871 14.039029,-0.220013 21.403869,-2.299876 2.78887,2.299876 6.55479,4.379739 11.32169,6.1796 -1.02486,0.259951 -1.5015,0.739997 -1.4774,1.479911 -1.52567,-0.399995 -2.66975,-0.399995 -3.45609,0 -1.76401,0.860074 -3.14641,2.219826 -4.19537,4.099819 -0.119,0.139877 -0.1905,0.259951 -0.23821,0.399997 -0.45283,0.879875 -0.85795,1.879826 -1.16776,2.979713 -0.0239,0.160013 -0.11931,0.259949 -0.14322,0.400078 -0.16681,0.659782 -0.33351,1.379977 -0.45283,2.119891 0,0.139878 0,0.279838 -0.0476,0.419883 -0.0239,0.28009 -0.0955,0.580152 -0.14322,0.85999 -0.23822,-0.319947 -0.40492,-0.619925 -0.57184,-0.940038 z m 0.95325,6.919767 c -0.30963,-0.959926 -0.42883,-1.959875 -0.33373,-2.99985 0,-0.139962 0,-0.280006 0.0241,-0.420051 0.11902,-1.059944 0.35754,-2.159916 0.81016,-3.299826 0.0241,-0.139877 0.1192,-0.279922 0.19083,-0.43977 0.3098,-0.760137 0.73882,-1.520105 1.21556,-2.320098 -0.33372,-0.09994 -0.69124,-0.139962 -0.97739,-0.200041 0.28615,-1.119772 0.69137,-2.119723 1.168,-2.999763 3.31329,0.380108 6.12575,0.180069 8.39019,-0.599872 l 1.93043,2.939855 c -3.1938,0.879958 -5.45812,2.239881 -6.84072,4.159647 -0.11918,0.120158 -0.16661,0.220178 -0.2383,0.359971 -0.64335,0.979979 -1.04877,2.07995 -1.23939,3.319965 -0.0239,0.140044 -0.0239,0.279837 -0.0239,0.419883 v 0.02006 c -0.0237,0.379943 -0.0714,0.719945 -0.0714,1.09997 0,2.039757 0.92956,3.659797 2.74097,4.859697 -3.69441,0.259955 -5.93505,-1.059854 -6.74539,-3.899772 z m 20.1886,6.899627 c -3.28949,0.4199 -5.81582,0.10002 -7.60355,-0.98006 -1.04876,-0.81989 -1.78752,-1.699843 -2.19281,-2.679653 -0.69106,-1.680035 -1.4539,-2.879942 -2.33585,-3.620026 -0.85796,-0.699888 -1.97832,-1.359838 -3.43241,-1.959791 0.1669,-1.219792 0.54852,-2.3399 1.19165,-3.299825 3.00358,0.99995 6.60252,1.499882 10.79786,1.599986 -0.31012,0.559844 0,1.359755 0.97706,2.379842 -2.47886,0.260037 -3.76593,0.879875 -3.83752,1.859856 -0.54833,3.139892 1.19196,4.439825 5.14858,3.959773 1.73972,0.05995 2.62158,0.459913 2.64559,1.199908 -0.23852,0.88004 -0.66757,1.38006 -1.3586,1.53999 z"
       style="display:inline;fill:#800000;fill-rule:evenodd;stroke-width:0.91605"
       id="path13" />
    <path
       d="m 141.00632,107.22254 c -0.23832,-0.29997 -0.40523,-0.60004 -0.47684,-0.91998 -0.0476,-0.33966 -0.11921,-0.68 -0.16692,-0.99995 l -0.83414,0.81996 c -0.28621,0.38018 -0.64364,0.71996 -1.00116,1.09997 h -17.73325 c 0.0473,0.88003 -0.024,1.78005 -0.16691,2.6799 -0.57222,-1.17994 -1.38239,-2.06007 -2.50265,-2.6799 -0.76295,-0.41989 -1.64479,-0.75981 -2.62196,-0.93988 -0.19062,-0.0401 -0.33371,-0.06 -0.50071,-0.08 0,0.0399 0,0.0999 0,0.20003 0,0.0601 0,0.12 0.024,0.21985 0.0478,0.20004 0.0478,0.4 0.0953,0.60004 0.40512,1.47991 1.66849,3.04012 3.76594,4.69976 l -1.12007,0.54022 c -0.45304,0.57964 -0.45304,1.1597 0,1.69992 -3.2179,-1.08008 -5.43444,-2.76003 -6.531,-5.06 -0.33362,-0.57999 -0.47673,-1.19982 -0.59582,-1.8799 -0.0239,-0.29997 -0.0479,-0.57998 -0.0954,-0.90002 0,-0.1199 0,-0.28007 0,-0.41988 -0.16681,-0.0199 -0.3337,-0.0199 -0.50062,-0.0199 -0.71506,0 -1.43009,0.0199 -2.21664,0.0398 -0.16691,0 -0.33373,0 -0.50053,0.0404 -1.90691,0.0795 -4.00432,0.27966 -6.36398,0.63963 -0.16691,0.02 -0.33382,0.02 -0.50062,0.04 -1.120273,0.16011 -2.312049,0.35999 -3.503718,0.58 -0.405224,0.0402 -0.810449,0.0999 -1.215772,0.18006 -0.07141,3.11968 -0.405125,6.23951 -1.048563,9.37966 -0.02389,0.13979 -0.0715,0.25951 -0.0954,0.39974 -0.405223,1.85978 -0.929555,3.73968 -1.525391,5.5799 -0.0478,0.13988 -0.119206,0.27974 -0.143107,0.43977 -0.30972,0.87997 -0.619638,1.76016 -0.953359,2.63979 2.407346,0.19986 4.266457,1.49989 5.67274,3.93989 -0.714944,1.28004 -1.525493,2.41987 -2.478848,3.38004 0,-0.0204 0,-0.0204 -0.02389,-0.0603 -1.811309,-3.0397 -4.767085,-4.29977 -8.914331,-3.7198 l -2.359642,-2.4197 c 1.406283,-1.06021 2.574154,-2.86005 3.432206,-5.45982 0.02391,-0.1398 0.0953,-0.30015 0.119206,-0.43994 0.524433,-1.57993 0.881951,-3.41998 1.167969,-5.49959 0.0238,-0.17998 0.0238,-0.32036 0.0476,-0.46025 0.286117,-2.29979 0.452928,-4.95973 0.476728,-7.87951 h -9.843987 c 1.978317,3.79974 4.910191,6.51959 8.842826,8.13964 -0.309719,2.10008 -0.69114,3.95968 -1.120067,5.51964 -5.553831,-2.34006 -10.0824,-6.09962 -13.610111,-11.27937 -0.83415,-1.19999 -1.644597,-1.99998 -2.454946,-2.37991 H 65.25763 c 7.69896,20.23914 22.548243,36.61777 44.42904,49.11709 21.83309,-12.49932 36.68237,-28.87795 44.45254,-49.11709 z m -40.0433,-0.20003 c 2.35966,-0.31987 4.45708,-0.55978 6.36398,-0.61986 v 11.37947 c -2.24054,0.0799 -4.36187,0.0597 -6.36398,-0.0801 z m -5.053096,27.27862 c 1.263176,-0.26019 2.526552,-0.38009 3.694525,-0.39997 1.072561,1.93973 2.431151,3.67976 4.075731,5.17971 -3.38459,-0.79998 -5.958748,-2.37991 -7.770256,-4.77974 z m 11.989016,1.01986 c -2.50255,-1.23986 -5.14821,-1.88007 -7.98467,-1.88007 -0.166822,0 -0.357631,0 -0.524444,0.0403 -1.239469,0.0199 -2.478842,0.15975 -3.742117,0.41995 -0.16681,0.0199 -0.33372,0.0799 -0.50063,0.11999 -0.119107,0.0198 -0.19051,0.0198 -0.238314,0.0601 0.0478,-0.0601 0.119207,-0.11992 0.16691,-0.16009 0.0953,-0.10011 0.238314,-0.22001 0.35742,-0.33975 0.929657,-0.94021 1.763906,-2.04019 2.526651,-3.26005 0.0953,-0.17997 0.166812,-0.35973 0.262216,-0.51999 0.881855,-1.67997 1.596893,-3.59981 2.097418,-5.7196 2.14514,0.0802 4.38566,0.02 6.72161,-0.17999 -0.0953,1.56004 0.19071,2.95999 0.78655,4.17986 1.59709,3.33968 6.45929,6.33953 14.51566,8.97959 -5.69665,0.77958 -10.51144,0.19995 -14.44426,-1.74013 z m 39.44734,-20.27901 c -2.47872,-0.40001 -4.74298,-1.07965 -6.86451,-2.03975 -2.81246,1.16021 -4.24263,3.25996 -4.26663,6.33953 -5.17204,-0.22001 -9.98671,0.26011 -14.46767,1.42015 -5.05322,1.37965 -9.77249,2.25962 -14.15834,2.65962 -0.16684,0.02 -0.33363,0.02 -0.50054,0.0602 -2.31193,0.19997 -4.52855,0.2598 -6.64999,0.15978 -0.16691,-0.0198 -0.35753,-0.0198 -0.52433,-0.0198 -2.192838,-0.12001 -4.338064,-0.38012 -6.340184,-0.73976 0.619637,-1.8602 1.120266,-3.74001 1.525389,-5.57999 1.668602,0.36023 3.456108,0.62 5.362925,0.76024 0.16681,0.0399 0.33372,0.0399 0.50062,0.0597 2.00211,0.1402 4.14725,0.1402 6.36398,0.0603 0.16681,0 0.33363,0 0.50054,-0.0403 3.83743,-0.19988 7.96108,-0.69997 12.41813,-1.5796 8.12789,-1.6401 14.44426,-4.75984 18.94894,-9.33962 0.2861,-0.29997 0.54832,-0.58 0.81045,-0.90003 0.0477,0.32003 0.167,0.60006 0.3575,0.90003 0.97729,1.38004 4.05217,2.17988 9.24816,2.31967 -2.76484,1.68012 -3.52752,3.49994 -2.26444,5.49977 z"
       style="display:inline;fill:#006900;fill-opacity:1;fill-rule:evenodd;stroke-width:0.91605"
       id="path14" />
  </g>
</svg>
