<?xml version="1.0" encoding="UTF-8" standalone="no"?>
<svg
   version="1.1"
   width="1.6881847in"
   height="1.6919926in"
   viewBox="0 0 121.5493 121.82347"
   id="svg23"
   sodipodi:docname="fortaleza_ec-ce.cdr"
   xmlns:inkscape="http://www.inkscape.org/namespaces/inkscape"
   xmlns:sodipodi="http://sodipodi.sourceforge.net/DTD/sodipodi-0.dtd"
   xmlns="http://www.w3.org/2000/svg"
   xmlns:svg="http://www.w3.org/2000/svg">
  <defs
     id="defs23" />
  <sodipodi:namedview
     id="namedview23"
     pagecolor="#ffffff"
     bordercolor="#000000"
     borderopacity="0.25"
     inkscape:showpageshadow="2"
     inkscape:pageopacity="0.0"
     inkscape:pagecheckerboard="0"
     inkscape:deskcolor="#d1d1d1"
     inkscape:document-units="in" />
  <g
     id="Layer1003"
     transform="translate(-47.225201,-42.844501)">
    <path
       d="m 47.2252,42.845528 v 35.863269 l 60.7747,85.959173 60.7746,-85.960202 V 42.8445 Z"
       style="fill:#1e44c2;fill-opacity:1;fill-rule:evenodd;stroke-width:0.966886"
       id="path10" />
    <path
       d="m 165.107,74.790479 c 0,-6.967207 0,-24.061292 0,-28.517346 -6.684,0 -107.5303,9.35e-4 -114.2144,9.35e-4 0,4.455119 0,21.549204 0,28.516411 z"
       style="fill:#ffffff;fill-rule:evenodd;stroke-width:0.966886"
       id="path11" />
    <path
       d="m 51.2754,78.219019 c 4.7761,6.755646 51.4853,72.820711 56.7245,80.230851 5.2391,-7.41014 51.9468,-73.473149 56.7246,-80.230851 z"
       style="fill:#ffffff;fill-rule:evenodd;stroke-width:0.966886"
       id="path12" />
    <path
       d="m 106.1661,81.647558 c -21.5088,0 -42.5868,0 -48.0707,0 5.6844,8.039596 38.8378,54.931702 48.0707,67.990802 z"
       style="fill:#1e44c2;fill-opacity:1;fill-rule:evenodd;stroke-width:0.966886"
       id="path13" />
    <path
       d="m 109.8336,81.647558 v 67.990802 c 9.2329,-13.0591 42.3862,-59.951206 48.0706,-67.990802 -5.4837,0 -26.5613,0 -48.0706,0 z"
       style="fill:#bd2910;fill-opacity:1;fill-rule:evenodd;stroke-width:0.966886"
       id="path14" />
    <path
       d="m 56.7368,49.412892 h 7.9242 v 4.377525 h -3.2417 v 4.193917 h 2.8815 v 4.163253 h -2.8815 v 9.214259 h -4.6825 z"
       style="fill:#1e44c2;fill-opacity:1;fill-rule:evenodd;stroke-width:0.966886"
       id="path15" />
    <path
       d="m 72.9485,65.144685 c 0,1.293298 -0.045,2.112243 -0.1345,2.456649 -0.0895,0.343471 -0.2983,0.515674 -0.6262,0.515674 -0.328,0 -0.5342,-0.149298 -0.6187,-0.447709 -0.0848,-0.298503 -0.1268,-1.08585 -0.1268,-2.361947 V 55.046414 c 0,-1.130725 0.0671,-1.81187 0.2011,-2.042409 0.134,-0.230539 0.3259,-0.346276 0.5746,-0.346276 0.2977,0 0.4942,0.142568 0.5889,0.42761 0.0942,0.285041 0.1416,0.938515 0.1416,1.961075 z m 4.6826,-6.6343 c 0,-2.259486 -0.044,-3.840817 -0.131,-4.744929 -0.0869,-0.903084 -0.3653,-1.739044 -0.8345,-2.507319 -0.4691,-0.768183 -1.0908,-1.343969 -1.8648,-1.728667 -0.7742,-0.383577 -1.645,-0.575786 -2.6125,-0.575786 -1.0162,0 -1.9063,0.203708 -2.6708,0.610189 -0.7644,0.406668 -1.3717,0.989372 -1.8214,1.748766 -0.4503,0.75874 -0.7189,1.596664 -0.8058,2.514051 -0.0871,0.917481 -0.1306,2.478619 -0.1306,4.683695 v 3.753781 c 0,2.259672 0.0435,3.84091 0.1306,4.744929 0.0869,0.904112 0.3652,1.739324 0.8345,2.507412 0.4691,0.768089 1.0882,1.344997 1.8576,1.728574 0.7696,0.38367 1.6379,0.575973 2.6059,0.575973 1.0253,0 1.9207,-0.203802 2.6851,-0.61047 0.7643,-0.406481 1.3712,-0.988998 1.8214,-1.747645 0.4497,-0.759674 0.7184,-1.597598 0.8053,-2.515078 0.087,-0.917388 0.131,-2.478526 0.131,-4.683695 z"
       style="fill:#1e44c2;fill-opacity:1;fill-rule:evenodd;stroke-width:0.966886"
       id="path16" />
    <path
       d="m 86.3152,53.502384 c 0.2057,0.216235 0.309,0.67161 0.309,1.365096 v 1.203551 c 0,0.965252 -0.1054,1.535335 -0.3162,1.710436 -0.2108,0.176036 -0.5858,0.264101 -1.1246,0.264101 v -4.867397 c 0.5485,0 0.9262,0.108071 1.1318,0.324213 z m -5.8143,17.859462 h 4.6825 v -9.887738 c 0.6565,0 1.0607,0.139576 1.2127,0.419943 0.1519,0.280367 0.2281,1.006293 0.2281,2.180022 v 7.287773 h 4.3551 V 65.57407 c 0,-1.770642 -0.0389,-2.852473 -0.1161,-3.245772 -0.0773,-0.393206 -0.2753,-0.824555 -0.5945,-1.294233 -0.3193,-0.469772 -0.9425,-0.844748 -1.8705,-1.125022 1.0242,-0.1177 1.7108,-0.469772 2.0587,-1.05715 0.348,-0.587379 0.5224,-1.73624 0.5224,-3.444807 0,-1.871234 -0.2466,-3.234367 -0.7393,-4.088557 -0.4927,-0.854377 -1.1302,-1.386224 -1.9131,-1.593952 -0.7827,-0.207448 -2.2849,-0.311685 -4.507,-0.311685 h -3.319 z"
       style="fill:#1e44c2;fill-opacity:1;fill-rule:evenodd;stroke-width:0.966886"
       id="path17" />
    <path
       d="m 103.3635,49.412892 v 4.377525 h -2.816 V 71.361846 H 95.8649 V 53.790417 h -2.7833 v -4.377525 z"
       style="fill:#1e44c2;fill-opacity:1;fill-rule:evenodd;stroke-width:0.966886"
       id="path18" />
    <path
       d="m 108.6201,63.525117 c 0.1208,-1.941069 0.4156,-5.0195 0.8862,-9.23548 0.2293,3.671699 0.4585,6.750037 0.6866,9.23548 z m -2.6911,-14.112225 -2.3986,21.948954 h 4.838 l 0.263,-3.948981 h 1.6995 l 0.2478,3.948981 h 4.8217 l -2.7096,-21.948954 z"
       style="fill:#1e44c2;fill-opacity:1;fill-rule:evenodd;stroke-width:0.966886"
       id="path19" />
    <path
       d="m 121.9903,49.412892 v 17.571429 h 2.8489 v 4.377525 h -7.5314 V 49.412892 Z"
       style="fill:#1e44c2;fill-opacity:1;fill-rule:evenodd;stroke-width:0.966886"
       id="path20" />
    <path
       d="m 127.0923,49.412892 h 7.826 v 4.377525 h -3.1435 v 4.193917 h 2.947 v 4.163253 h -2.947 v 4.836734 h 3.471 v 4.377525 h -8.1535 z"
       style="fill:#1e44c2;fill-opacity:1;fill-rule:evenodd;stroke-width:0.966886"
       id="path21" />
    <path
       d="m 145.54,49.412892 v 4.377525 l -3.5293,13.193904 h 3.5293 v 4.377525 h -8.6775 v -3.175097 l 3.6298,-14.396332 h -3.204 v -4.377525 z"
       style="fill:#1e44c2;fill-opacity:1;fill-rule:evenodd;stroke-width:0.966886"
       id="path22" />
    <path
       d="m 152.3122,63.525117 c 0.1195,-1.941069 0.4153,-5.0195 0.886,-9.23548 0.2292,3.671699 0.4576,6.750037 0.6868,9.23548 z m -2.6914,-14.112225 -2.3985,21.948954 h 4.838 l 0.2631,-3.948981 h 1.6986 l 0.2486,3.948981 h 4.8217 l -2.7096,-21.948954 z"
       style="fill:#1e44c2;fill-opacity:1;fill-rule:evenodd;stroke-width:0.966886"
       id="path23" />
  </g>
</svg>
