<?xml version="1.0" encoding="UTF-8" standalone="no"?>
<svg
   version="1.1"
   width="1.8098708in"
   height="1.8141283in"
   viewBox="0 0 130.3107 130.61724"
   id="svg16"
   sodipodi:docname="galicia_ec-ba.cdr"
   xmlns:inkscape="http://www.inkscape.org/namespaces/inkscape"
   xmlns:sodipodi="http://sodipodi.sourceforge.net/DTD/sodipodi-0.dtd"
   xmlns="http://www.w3.org/2000/svg"
   xmlns:svg="http://www.w3.org/2000/svg">
  <defs
     id="defs16" />
  <sodipodi:namedview
     id="namedview16"
     pagecolor="#ffffff"
     bordercolor="#000000"
     borderopacity="0.25"
     inkscape:showpageshadow="2"
     inkscape:pageopacity="0.0"
     inkscape:pagecheckerboard="0"
     inkscape:deskcolor="#d1d1d1"
     inkscape:document-units="in" />
  <g
     id="Layer1003"
     transform="matrix(1,0,0,0.79575855,-42.844501,-20.633302)">
    <path
       d="M 173.1552,61.4322 C 161.0586,57.7931 153.4856,48.9418 150.5353,34.7803 137.2584,38.2226 122.998,35.272 107.7541,25.9291 92.9035,35.272 78.8399,38.2226 65.4645,34.7803 c 0,0.3928 -0.0985,0.7855 -0.1969,1.0814 -3.1469,13.473 -10.523,22.0304 -22.4231,25.5705 2.852,56.4519 24.587,99.3313 65.2044,128.6387 11.4088,-8.3597 21.4396,-17.6039 29.8981,-28.128 7.1792,-8.8514 13.1781,-18.3903 18.1943,-28.815 10.0316,-20.7518 15.7358,-44.7481 17.0139,-71.6957 z"
       style="fill:#102a83;fill-rule:evenodd"
       id="path10" />
    <path
       d="m 170.107,63.4971 c -1.5741,25.1767 -6.8845,47.6988 -16.1294,67.3683 L 67.6283,38.4183 c 0,0 0,0 0.098,-0.0979 12.6873,2.4587 26.0621,-0.5897 40.0278,-8.9493 14.3583,8.3596 27.9311,11.408 40.6173,8.9493 3.3444,12.7852 10.6215,21.1448 21.7356,25.1767 z"
       style="fill:#ffffff;fill-rule:evenodd"
       id="path11" />
    <path
       d="m 45.9918,63.4971 89.8892,96.2827 c -7.8678,9.8348 -17.2109,18.6862 -27.8321,26.6519 C 69.7918,158.0089 49.1386,116.9986 45.9918,63.4971 Z"
       style="fill:#ffffff;fill-rule:evenodd"
       id="path12" />
    <g
       id="Layer1004">
      <path
         d="m 117.6868,74.905 c 1.2792,-1.2774 2.9503,-1.9669 4.8194,-1.9669 1.5733,0 2.8525,0.3938 4.032,1.2793 -4.032,-4.5237 -8.9494,-6.8843 -14.8504,-7.2781 l -4.4255,-11.7039 -4.4256,11.7039 c -5.8024,0.3938 -10.7198,2.7544 -14.7522,7.2781 1.1803,-0.8855 2.4587,-1.2793 4.0324,-1.2793 1.8684,0 3.5407,0.6895 4.8189,1.9669 1.3768,1.3773 2.0654,2.9505 2.0654,4.9174 0,1.8691 -0.6886,3.5412 -2.0654,4.8195 -1.2782,1.3772 -2.9505,2.0649 -4.8189,2.0649 -1.9671,0 -3.5406,-0.6877 -4.9174,-2.0649 -1.2788,-1.2783 -1.967,-2.9504 -1.967,-4.8195 0,-1.2774 0.2949,-2.3598 0.7866,-3.3432 -4.0324,4.5245 -6.3925,9.0481 -7.1792,13.5717 l -9.0481,5.2133 9.2444,3.7361 c 0.8856,4.2297 3.7376,8.5574 8.5565,13.2769 -1.1804,-1.3761 -1.7699,-2.9505 -1.7699,-4.8185 0,-2.0658 0.6879,-3.8349 2.1633,-5.2122 1.3767,-1.4752 3.1473,-2.1639 5.2128,-2.1639 1.9668,0 3.7369,0.6887 5.2122,2.1639 1.3767,1.3773 2.1639,3.1464 2.1639,5.2122 0,1.967 -0.7872,3.7372 -2.1639,5.2122 -1.4753,1.3775 -3.2454,2.1639 -5.2122,2.1639 -0.4919,0 -0.8856,-0.0989 -1.3774,-0.0989 l 15.4408,54.8787 15.5387,-54.8787 c -0.3927,0 -0.8846,0.0989 -1.3763,0.0989 -1.967,0 -3.7379,-0.7864 -5.2133,-2.1639 -1.3761,-1.475 -2.1628,-3.2452 -2.1628,-5.2122 0,-2.0658 0.7867,-3.8349 2.1628,-5.2122 1.4754,-1.4752 3.2463,-2.1639 5.2133,-2.1639 2.0649,0 3.835,0.6887 5.2122,2.1639 1.4753,1.3773 2.1639,3.1464 2.1639,5.2122 0,1.868 -0.5907,3.4424 -1.771,4.8185 4.8195,-4.7195 7.672,-9.0472 8.5564,-13.2769 l 9.2452,-3.7361 -9.0483,-5.2133 c -0.7865,-4.5236 -3.1473,-9.0472 -7.1792,-13.5717 0.4917,0.9834 0.7867,2.0658 0.7867,3.3432 0,1.8691 -0.6888,3.5412 -1.967,4.8195 -1.3774,1.3772 -2.9504,2.0649 -4.9174,2.0649 -1.8691,0 -3.5402,-0.6877 -4.8194,-2.0649 -1.3764,-1.2783 -2.0649,-2.9504 -2.0649,-4.8195 0,-1.9669 0.6885,-3.5401 2.0649,-4.9174 z"
         style="fill:#e41e15;fill-rule:evenodd"
         id="path13" />
    </g>
    <g
       id="Layer1005">
      <path
         d="m 140.7984,123.7851 c -1.1792,-1.1813 -2.9504,-1.8691 -5.2122,-1.7712 -2.7535,-0.0979 -5.0153,0.9836 -6.5893,3.2463 -1.5733,2.261 -2.36,5.5072 -2.36,9.7358 0,3.0493 0.3929,5.6062 1.3763,7.5729 0.8855,2.065 1.9671,3.4424 3.1473,4.2289 1.2785,0.7867 2.8525,1.1805 4.8194,1.1805 1.4754,0 2.7536,-0.2958 3.8351,-0.9837 0.9834,-0.5895 1.8691,-1.5732 2.4587,-2.8524 h 0.099 c 0.5896,-1.1795 1.0813,-2.6545 1.3763,-4.2288 l -4.0319,-1.7699 c -0.3938,1.3772 -0.7867,2.4587 -1.1805,3.3442 0,0 -0.1969,0.2937 -0.5896,0.6875 -0.2948,0.4919 -1.0824,0.7875 -2.3608,0.7875 -1.2782,0 -2.3597,-0.5906 -3.0483,-1.7709 h -0.0989 c -0.5897,-1.1795 -0.8847,-3.3441 -0.8847,-6.3927 -0.0987,-2.4587 0.1968,-4.2285 0.7867,-5.2122 0.6886,-1.7702 1.8688,-2.6556 3.3442,-2.6556 0.6877,0 1.3763,0.1969 1.967,0.5899 0,0 0,0 0,0.0987 0.4917,0.393 0.8844,0.8847 1.2782,1.5743 0.1968,0.2938 0.3929,0.6875 0.4919,1.2774 l 4.1307,-1.1795 c -0.5907,-2.4587 -1.4751,-4.2296 -2.7546,-5.507 z"
         style="fill:#ffffff;fill-rule:evenodd"
         id="path14" />
    </g>
    <g
       id="Layer1006">
      <path
         d="M 114.2447,93.3952 V 87.8881 H 103.6232 V 116.31 h 10.6215 v -5.6059 h -5.802 v -6.1958 h 4.0319 v -4.9174 h -4.0319 v -6.1957 z"
         style="fill:#ffffff;fill-rule:evenodd"
         id="path15" />
    </g>
    <g
       id="Layer1007">
      <path
         d="m 83.1672,71.463 v -5.8021 h -7.2777 v 3.5411 h 2.6551 c 0.0984,-0.0989 0.1969,0 0.2953,0 0,0.098 0.0984,0.196 0.1963,0.2939 0,0 0,0.099 0,0.2959 -0.2947,1.5731 -0.688,2.7535 -1.1798,3.737 0,0 0,0 -0.0985,0 -0.6885,0.9835 -1.672,1.4751 -2.8519,1.4751 -1.4752,0 -2.4587,-0.5906 -3.2459,-1.7701 0,-0.0978 -0.0978,-0.3937 -0.4916,-0.9833 -0.2948,-0.5898 -0.4917,-2.4587 -0.3933,-5.6061 -0.0984,-2.5575 0.1969,-4.4256 0.7871,-5.508 0.6882,-1.7691 1.8685,-2.6547 3.3437,-2.6547 0.7866,0 1.3768,0.196 1.9669,0.5897 0,0 0,0 0.0984,0 0.3934,0.4919 0.8851,1.0814 1.2785,1.6721 0.1969,0.2949 0.3932,0.7866 0.4917,1.4753 l 4.2288,-1.2784 c -0.5898,-2.5566 -1.5733,-4.5237 -2.8521,-5.9008 -1.2783,-1.2793 -2.9503,-1.8691 -5.2122,-1.8691 -2.8521,0 -5.1142,1.0816 -6.6879,3.3443 -1.6717,2.4587 -2.4587,5.8028 -2.4587,10.2285 0,3.2443 0.3938,5.9989 1.3771,8.0638 0.8851,2.0649 1.9671,3.5401 3.2454,4.3277 1.2782,0.8856 2.852,1.2783 4.8189,1.2783 1.5737,0 2.8521,-0.3927 3.9339,-1.0824 0.9835,-0.5897 1.8686,-1.5732 2.5572,-2.9503 0.6886,-1.3765 1.1804,-3.0485 1.4753,-4.9174 z"
         style="fill:#ffffff;fill-rule:evenodd"
         id="path16" />
    </g>
  </g>
</svg>
