<?xml version="1.0" encoding="UTF-8" standalone="no"?>
<svg
   version="1.1"
   width="1.3384042in"
   height="1.4731346in"
   viewBox="0 0 96.365101 106.06569"
   id="svg43"
   sodipodi:docname="gama.cdr"
   xmlns:inkscape="http://www.inkscape.org/namespaces/inkscape"
   xmlns:sodipodi="http://sodipodi.sourceforge.net/DTD/sodipodi-0.dtd"
   xmlns="http://www.w3.org/2000/svg"
   xmlns:svg="http://www.w3.org/2000/svg">
  <defs
     id="defs43" />
  <sodipodi:namedview
     id="namedview43"
     pagecolor="#ffffff"
     bordercolor="#000000"
     borderopacity="0.25"
     inkscape:showpageshadow="2"
     inkscape:pageopacity="0.0"
     inkscape:pagecheckerboard="0"
     inkscape:deskcolor="#d1d1d1"
     inkscape:document-units="in" />
  <g
     id="Layer1003"
     transform="translate(-59.817501,-61.868874)">
    <path
       d="M 155.9573,61.868869 H 59.8175 v 61.420051 c 0.1321,6.17543 1.1103,11.43443 3.0788,16.55415 1.6197,4.29957 4.0772,8.43586 7.5124,12.64403 4.1117,4.49723 8.605,7.80196 14.5765,10.72363 2.1073,0.9336 4.4283,1.81455 6.9067,2.62224 l 0.0351,0.011 0.0178,0.004 c 4.5245,1.11029 8.5787,1.74685 13.1452,2.06398 l 0.0355,0.002 c 4.4878,0.10225 8.8944,-0.17387 13.8679,-0.86856 l 0.0449,-0.007 0.0221,-0.005 c 3.8147,-0.89078 7.9013,-1.9694 11.9391,-3.81359 5.8336,-2.85328 10.288,-6.1543 14.4491,-10.70595 3.2958,-3.88492 5.7988,-8.0614 7.6568,-12.77365 1.9803,-5.47295 2.9575,-10.69523 3.0771,-16.43949 l 1e-4,-61.431011 z"
       style="fill:#105b24;fill-opacity:1;fill-rule:evenodd;stroke-width:0.940662"
       id="path10" />
    <path
       d="m 71.3068,151.8861 c 3.9986,4.37221 8.3853,7.59589 14.2071,10.44482 2.0472,0.90635 4.3184,1.76784 6.7503,2.56093 4.4404,1.08864 8.4212,1.71368 12.902,2.02559 4.4067,0.0996 8.7394,-0.17201 13.6311,-0.85432 3.7458,-0.87538 7.7528,-1.93373 11.6741,-3.72468 5.6871,-2.78169 10.036,-6.00537 14.0913,-10.44083 3.2135,-3.78829 5.6599,-7.87275 7.4754,-12.47679 1.9415,-5.36641 2.9005,-10.4948 3.018,-16.1319 0,0 0,-59.636377 0,-60.42336 -0.8884,0 -93.2236,0 -94.1121,0 0,0.786983 -1e-4,60.41575 -1e-4,60.41575 0.1297,6.06059 1.089,11.22128 3.0198,16.24305 1.5839,4.2047 3.9908,8.25403 7.3431,12.36174 z"
       style="fill:#ffffff;fill-rule:evenodd;stroke-width:0.940662"
       id="path11" />
    <path
       d="m 152.3452,84.336368 h -88.914 v 39.060592 c 0,10.95998 4.0105,21.11784 11.2927,28.6024 8.0953,8.3204 19.5812,12.71835 33.216,12.71835 13.688,0 25.2107,-4.39786 33.3225,-12.71807 7.292,-7.47953 11.308,-17.63758 11.308,-28.60268 V 84.336368 Z m -11.5573,67.535752 c -1.7513,1.77908 -3.6617,3.37508 -5.7191,4.78269 V 84.735081 c 2.0443,0 3.9607,0 5.7191,0 z m -24.8172,11.90234 V 84.735081 c 1.8898,0 3.7589,0 5.5938,0 v 77.942009 c -1.806,0.46338 -3.6721,0.82963 -5.5938,1.09737 z M 75.4579,152.13165 V 84.735081 c 1.7259,0 3.601,0 5.5956,0 v 72.020249 c -2.0076,-1.36373 -3.8763,-2.90663 -5.5956,-4.62368 z m 19.0999,10.59534 V 84.735081 c 1.8751,0 3.786,0 5.7174,0 v 79.085929 c -1.965,-0.26201 -3.8722,-0.62727 -5.7174,-1.09402 z"
       style="fill:#105b24;fill-opacity:1;fill-rule:evenodd;stroke-width:0.940662"
       id="path12" />
    <path
       d="M 96.2606,140.29585 C 85.3123,136.2076 77.6477,126.51853 77.6477,115.43077 c 0,-8.71945 4.6236,-16.470892 11.9217,-21.315428 v -0.106623 h -9.1231 l -12.1662,20.238131 13.0176,29.92392 h 14.9629 z"
       style="fill:#ffffff;fill-rule:evenodd;stroke-width:0.940662"
       id="path13" />
    <path
       d="M 89.5694,93.809361 H 80.311 L 68.0329,114.23349 81.143,144.37013 h 15.343 v -4.20657 l -0.1378,-0.0514 c -5.3991,-2.01605 -10.0026,-5.38235 -13.3128,-9.73527 -3.3772,-4.44104 -5.1624,-9.60926 -5.1624,-14.94604 0,-8.45365 4.3124,-16.164731 11.8316,-21.155975 l 0.0901,-0.05973 v -0.40575 z m -0.4928,0.398624 c -7.4081,5.07265 -11.6542,12.780105 -11.6542,21.222785 0,5.41641 1.8117,10.66152 5.2393,15.16866 3.3305,4.37955 7.9541,7.77134 13.3736,9.82331 0,0.22484 0,3.20244 0,3.54868 -0.4325,0 -14.2845,0 -14.5829,0 -0.1099,-0.25254 -12.852,-29.54319 -12.9252,-29.71121 0.0953,-0.15857 11.929,-19.843755 12.0543,-20.052225 0.2485,0 7.6268,0 8.4951,0 z"
       style="fill:#105b24;fill-opacity:1;fill-rule:evenodd;stroke-width:0.940662"
       id="path14" />
    <path
       d="m 119.9837,140.29585 c 10.95,-4.08825 18.6129,-13.77732 18.6129,-24.86508 0,-8.71945 -4.6202,-16.470892 -11.9202,-21.315428 v -0.106623 h 9.125 l 12.1644,20.238131 -13.0192,29.92392 h -14.9629 z"
       style="fill:#ffffff;fill-rule:evenodd;stroke-width:0.940662"
       id="path15" />
    <path
       d="m 135.8014,93.809361 h -9.3503 v 0.405704 l 0.0901,0.05973 c 7.5183,4.989386 11.8302,12.700555 11.8302,21.155975 0,5.33696 -1.785,10.50525 -5.1619,14.94604 -3.3101,4.353 -7.9138,7.71941 -13.3134,9.73526 l -0.1376,0.0515 v 4.20656 h 15.3428 L 148.213,114.23358 135.9367,93.809361 Z m -0.1353,0.398624 c 0.1252,0.20847 11.9573,19.893655 12.0525,20.052045 -0.0731,0.1682 -12.8167,29.45885 -12.9266,29.71139 -0.2985,0 -14.1505,0 -14.583,0 0,-0.34624 0,-3.32384 0,-3.54868 5.42,-2.05197 10.0438,-5.44366 13.3744,-9.82331 3.4271,-4.50688 5.2385,-9.75208 5.2385,-15.16866 0,-8.44436 -4.2455,-16.151993 -11.6525,-21.222785 0.8683,0 8.2483,0 8.4967,0 z"
       style="fill:#105b24;fill-opacity:1;fill-rule:evenodd;stroke-width:0.940662"
       id="path16" />
    <path
       d="m 108.062,122.10331 6.5688,-3.12165 v -7.53395 l -6.5688,-3.12297 -6.5691,3.12297 v 7.53395 z"
       style="fill:#ffffff;fill-rule:evenodd;stroke-width:0.940662"
       id="path17" />
    <path
       d="m 107.9555,108.14919 -6.6879,3.17934 v 7.77241 l 6.7944,3.22863 6.7941,-3.22863 v -7.77232 l -6.7941,-3.23013 z m 0.1065,0.4019 c 0.2027,0.0963 6.1185,2.90885 6.3435,3.01591 0,0.22722 0,7.06824 0,7.29538 -0.225,0.10699 -6.141,2.9185 -6.3435,3.01459 -0.2025,-0.0961 -6.1187,-2.90761 -6.3438,-3.01459 0,-0.22714 0,-7.06816 0,-7.29538 0.2251,-0.10709 6.1412,-2.91964 6.3438,-3.01591 z"
       style="fill:#198e39;fill-rule:evenodd;stroke-width:0.940662"
       id="path18" />
    <path
       d="m 114.6308,93.361983 c -2.1895,-0.537368 -4.3793,-0.753447 -6.5688,-0.753447 -2.3118,0 -4.5014,0.322616 -6.5691,0.753447 v 4.305665 l 6.5691,3.123162 6.5688,-3.123162 z"
       style="fill:#ffffff;fill-rule:evenodd;stroke:#009732;stroke-width:0.188133;stroke-linecap:butt;stroke-linejoin:miter;stroke-dasharray:none"
       id="path19" />
    <path
       d="m 125.5808,98.637086 c -3.1649,-2.476244 -6.8116,-4.305664 -10.95,-5.275103 v 4.305665 l 6.5707,3.123162 4.3793,-2.045684 c 3.2836,2.691004 5.9601,6.243304 7.1779,10.334484 l -4.9866,2.3681 -6.6927,-3.12297 v -7.53393 z"
       style="fill:#ffffff;fill-rule:evenodd;stroke-width:0.940662"
       id="path20" />
    <path
       d="m 114.4055,93.361983 v 4.424854 c 0,0 6.0016,2.852753 6.4486,3.065113 0,0.12043 0,7.59304 0,7.59304 l 6.9189,3.22855 5.2488,-2.49262 -0.0454,-0.15219 c -1.1416,-3.83564 -3.5985,-7.39369 -7.101,-10.305991 0.0431,-0.02062 0.0961,-0.04602 0.0961,-0.04602 l -0.2414,-0.188915 c -3.307,-2.587469 -7.0219,-4.376806 -11.0416,-5.318548 l -0.283,-0.06628 z m 0.4506,0.267136 c 3.7427,0.918205 7.2132,2.589503 10.3257,4.972219 -0.4902,0.234573 -3.7521,1.795272 -4.0419,1.933832 -0.3135,-0.149 -6.0609,-2.880795 -6.2838,-2.986799 0,-0.210947 0,-3.463114 0,-3.919252 z m 6.4506,7.337951 c 0,0 3.9602,-1.849866 4.2332,-1.977372 3.4097,2.827002 5.8074,6.275332 6.9496,9.991422 -0.2977,0.1414 -4.5227,2.14797 -4.7183,2.24088 -0.2016,-0.0941 -6.2384,-2.91106 -6.4665,-3.01742 0,-0.22723 0,-6.9041 0,-7.23654 z"
       style="fill:#105b24;fill-opacity:1;fill-rule:evenodd;stroke-width:0.940662"
       id="path21" />
    <path
       d="m 132.7587,109.07961 c 0.7293,2.04399 1.0956,4.19771 1.0956,6.35116 0,2.04408 -0.3663,4.09119 -0.8514,6.02721 l -5.2308,-2.47632 v -7.53395 z"
       style="fill:#ffffff;fill-rule:evenodd;stroke-width:0.940662"
       id="path22" />
    <path
       d="m 132.652,108.90396 -5.1052,2.42457 v 7.77258 l 5.6117,2.65666 0.0643,-0.25668 c 0.5765,-2.30078 0.8568,-4.28638 0.8568,-6.07032 0,-2.19716 -0.3721,-4.35415 -1.1061,-6.41124 l -0.0819,-0.22945 z m -0.0359,0.46959 c 0.6665,1.94817 1.0129,3.98323 1.0129,6.05722 0,1.70926 -0.2557,3.54107 -0.7873,5.72487 -0.47,-0.22263 -4.6289,-2.1914 -4.8443,-2.29335 0,-0.22766 0,-7.06807 0,-7.29529 0.2147,-0.10204 4.1804,-1.98533 4.6187,-2.19345 z"
       style="fill:#105b24;fill-opacity:1;fill-rule:evenodd;stroke-width:0.940662"
       id="path23" />
    <path
       d="m 125.9471,131.90043 c 3.2837,-2.80045 5.7159,-6.45948 7.0558,-10.44245 l -5.2308,-2.47632 -6.6927,3.12165 v 7.53686 l 4.8677,2.26026 c -3.1648,2.69232 -7.059,4.62837 -11.3163,5.5978 v -4.73641 l 6.5707,-3.12165 z"
       style="fill:#ffffff;fill-rule:evenodd;stroke-width:0.940662"
       id="path24" />
    <path
       d="m 127.6671,118.80531 -6.813,3.17767 c 0,0 0,7.47562 0,7.59597 -0.447,0.21235 -6.4486,3.0636 -6.4486,3.0636 v 5.11291 l 0.2814,-0.0641 c 4.2151,-0.95988 8.1145,-2.87947 11.2931,-5.54888 3e-4,9e-5 0.005,0.002 0.005,0.002 l 0.3435,-0.29252 c 0,0 -0.009,-0.004 -0.0102,-0.005 3.168,-2.76974 5.5548,-6.33267 6.9004,-10.3328 l 0.0525,-0.15581 -5.4984,-2.60305 z m -6.5248,11.08917 c 0.2936,0.13644 3.9252,1.8226 4.4139,2.04948 -3.0309,2.51483 -6.7168,4.3368 -10.7001,5.28847 0,-0.46118 0,-4.13781 0,-4.35142 0.2231,-0.10588 5.9772,-2.83956 6.2862,-2.98653 z m 6.6291,-10.68709 c 0.1958,0.0928 4.6513,2.20194 4.958,2.34723 -1.3473,3.91474 -3.7025,7.39971 -6.8254,10.09884 -0.2812,-0.13396 -4.5991,-2.19044 -4.5993,-2.19051 0,-0.33254 0,-7.01207 0,-7.23939 0.2281,-0.10643 6.2653,-2.92238 6.4667,-3.01617 z"
       style="fill:#105b24;fill-opacity:1;fill-rule:evenodd;stroke-width:0.940662"
       id="path25" />
    <path
       d="m 114.6308,137.49823 c -2.1895,0.53737 -4.3793,0.75344 -6.5688,0.75344 -2.3118,0 -4.5014,-0.21607 -6.5691,-0.75344 v -4.73641 l 6.5691,-3.12165 6.5688,3.12165 z"
       style="fill:#ffffff;fill-rule:evenodd;stroke:#009732;stroke-width:0.188133;stroke-linecap:butt;stroke-linejoin:miter;stroke-dasharray:none"
       id="path26" />
    <path
       d="m 90.1784,131.90043 c 3.1632,2.58428 6.9353,4.62837 11.3145,5.5978 v -4.73641 l -6.5705,-3.12165 z"
       style="fill:#ffffff;fill-rule:evenodd;stroke:#009732;stroke-width:0.188133;stroke-linecap:butt;stroke-linejoin:miter;stroke-dasharray:none"
       id="path27" />
    <path
       d="m 83.1227,121.45798 c 1.216,3.98297 3.7703,7.642 7.0557,10.44245 l 4.6236,-2.26026 v -7.53686 l -6.5707,-3.12165 -5.1086,2.36829 c -0.609,-1.82799 -0.8514,-3.8751 -0.8514,-5.91918 0,-2.15345 0.3645,-4.30717 0.9735,-6.35116 l 4.9865,2.3681 6.5707,-3.12297 v -7.53393 l -4.259,-2.045684 c -3.4058,2.691004 -5.9601,6.351344 -7.2982,10.334484 l 4.9865,2.3681 v 7.53395 z"
       style="fill:#ffffff;fill-rule:evenodd;stroke-width:0.940662"
       id="path28" />
    <path
       d="m 90.3929,98.596383 c -3.3248,2.627117 -5.8968,6.241617 -7.2768,10.195737 -0.002,-8.9e-4 -0.0164,-0.008 -0.0164,-0.008 0,0 -0.0701,0.23528 -0.0719,0.24122 -0.0018,0.005 -0.0512,0.15273 -0.0512,0.15273 0,0 0.0087,0.004 0.0099,0.005 -0.6208,2.13185 -0.9405,4.23335 -0.9405,6.24771 0,2.22468 0.2852,4.21205 0.8431,5.91309 -0.0094,0.005 -0.0301,0.0147 -0.0301,0.0147 l 0.0462,0.1514 c 1.1889,3.89447 3.7164,7.63551 7.1169,10.534 l 0.1198,0.10204 4.8854,-2.38821 v -7.77372 c 0,0 -6.3417,-3.01291 -6.5707,-3.12167 0,-0.22722 0,-7.06815 0,-7.29538 0.229,-0.10885 6.5707,-3.12297 6.5707,-3.12297 v -7.77272 l -4.5161,-2.16903 z m -7.8963,16.834387 c 0,-1.95055 0.3082,-3.98615 0.901,-6.05235 0.4544,0.21573 4.3942,2.08682 4.6084,2.18858 0,0.22722 0,7.06426 0,7.29407 -0.2185,0.10126 -4.2864,1.98709 -4.7338,2.1945 -0.5097,-1.62697 -0.7756,-3.5124 -0.7756,-5.6248 z m 8.0837,-16.440895 c 0.2625,0.126179 3.7814,1.816325 3.9964,1.919585 0,0.22617 0,7.06887 0,7.29609 -0.2251,0.10698 -6.1429,2.91973 -6.3454,3.01592 -0.1972,-0.0935 -4.407,-2.09293 -4.7127,-2.23805 1.3337,-3.86864 3.8325,-7.40563 7.0617,-9.993545 z m -2.3479,20.218575 c 0.2046,0.0971 6.1192,2.90708 6.3443,3.01405 0,0.22732 0,7.07586 0,7.30016 -0.2138,0.10446 -4.082,1.99542 -4.3566,2.12957 -3.2396,-2.79726 -5.6555,-6.37082 -6.8279,-10.09761 0.2959,-0.14343 4.6415,-2.24981 4.8402,-2.34617 z"
       style="fill:#105b24;fill-opacity:1;fill-rule:evenodd;stroke-width:0.940662"
       id="path29" />
    <path
       d="m 90.543,98.745126 c 3.0412,-2.584284 6.8133,-4.413704 10.9499,-5.383143 v 4.305665 l -6.5705,3.123162 z"
       style="fill:#ffffff;fill-rule:evenodd;stroke:#009732;stroke-width:0.188133;stroke-linecap:butt;stroke-linejoin:miter;stroke-dasharray:none"
       id="path30" />
    <path
       d="m 114.5087,111.44771 6.5707,-3.12297 v -7.53393 l -6.5707,-3.123162 -6.5688,3.123162 v 7.53393 z"
       style="fill:#ffffff;fill-rule:evenodd;stroke-width:0.940662"
       id="path31" />
    <path
       d="m 114.4021,97.492095 -6.6875,3.179525 v 7.7724 l 6.7941,3.23004 6.796,-3.23004 v -7.7724 l -6.796,-3.230315 z m 0.1066,0.401808 c 0.2027,0.09628 6.1203,2.909207 6.3454,3.016177 0,0.22714 0,7.06825 0,7.29547 -0.2251,0.10698 -6.1427,2.91965 -6.3454,3.01592 -0.2025,-0.0963 -6.1184,-2.90885 -6.3435,-3.01583 0,-0.22723 0,-7.0685 0,-7.29564 0.2251,-0.10699 6.1409,-2.919825 6.3435,-3.016097 z"
       style="fill:#105b24;fill-opacity:1;fill-rule:evenodd;stroke-width:0.940662"
       id="path32" />
    <path
       d="m 114.5087,118.98166 6.5707,3.12165 v 7.53686 l -6.5707,3.12165 -6.5688,-3.12165 v -7.53686 z"
       style="fill:#ffffff;fill-rule:evenodd;stroke-width:0.940662"
       id="path33" />
    <path
       d="m 114.4021,118.80611 -6.6875,3.17793 v 7.77541 l 6.7941,3.22863 6.796,-3.22863 v -7.77541 l -6.796,-3.22864 z m 0.1066,0.40189 c 0.2025,0.0962 6.1202,2.90753 6.3454,3.0145 0,0.22732 0,7.07116 0,7.29848 -0.2252,0.10687 -6.1429,2.91841 -6.3454,3.0145 -0.2025,-0.0961 -6.1184,-2.9076 -6.3435,-3.0145 0,-0.22723 0,-7.07125 0,-7.29848 0.2251,-0.10699 6.141,-2.91831 6.3435,-3.0145 z"
       style="fill:#105b24;fill-opacity:1;fill-rule:evenodd;stroke-width:0.940662"
       id="path34" />
    <path
       d="m 94.9224,122.10331 -6.6911,-3.12165 v -7.53395 l 6.6911,-3.12297 6.5705,3.12297 v 7.53395 z"
       style="fill:#ffffff;fill-rule:evenodd;stroke-width:0.940662"
       id="path35" />
    <path
       d="m 94.8172,108.14848 -6.8112,3.17907 v 7.77436 l 6.9173,3.22722 6.7949,-3.22819 v -7.77241 l -6.7949,-3.2295 z m 0.1041,0.40208 c 0.2009,0.0955 6.1213,2.90938 6.3463,3.01644 0,0.22722 0,7.06815 0,7.29538 -0.2252,0.10699 -6.1455,2.91973 -6.3463,3.01511 -0.2016,-0.0941 -6.2366,-2.90963 -6.4647,-3.01598 0,-0.22919 0,-7.06445 0,-7.29354 0.2281,-0.10633 6.263,-2.92327 6.4647,-3.01741 z"
       style="fill:#105b24;fill-opacity:1;fill-rule:evenodd;stroke-width:0.940662"
       id="path36" />
    <path
       d="m 101.3708,111.44771 -6.5688,-3.12297 v -7.53393 l 6.5688,-3.123162 6.5691,3.123162 v 7.53393 z"
       style="fill:#ffffff;fill-rule:evenodd;stroke-width:0.940662"
       id="path37" />
    <path
       d="m 101.2642,97.492095 -6.6875,3.179525 v 7.7724 l 6.7941,3.23004 6.7944,-3.23004 v -7.7724 l -6.7944,-3.230315 z m 0.1066,0.401808 c 0.2027,0.09636 6.1188,2.909117 6.3438,3.016177 0,0.22714 0,7.06825 0,7.29547 -0.225,0.10709 -6.1411,2.91965 -6.3438,3.01592 -0.2026,-0.0963 -6.1185,-2.90885 -6.3435,-3.01583 0,-0.22723 0,-7.0685 0,-7.29564 0.225,-0.10699 6.1409,-2.919737 6.3435,-3.016097 z"
       style="fill:#105b24;fill-opacity:1;fill-rule:evenodd;stroke-width:0.940662"
       id="path38" />
    <path
       d="m 101.3708,118.98166 -6.5688,3.12165 v 7.53686 l 6.5688,3.12165 6.5691,-3.12165 v -7.53686 z"
       style="fill:#ffffff;fill-rule:evenodd;stroke-width:0.940662"
       id="path39" />
    <path
       d="m 101.2642,118.80611 -6.6875,3.17793 v 7.77541 l 6.7941,3.22863 6.7944,-3.22863 v -7.77541 l -6.7944,-3.22864 z m 0.1066,0.40189 c 0.2025,0.0962 6.1188,2.90753 6.3438,3.0145 0,0.22723 0,7.07125 0,7.29848 -0.225,0.10687 -6.1413,2.91841 -6.3438,3.0145 -0.2025,-0.0961 -6.1185,-2.9076 -6.3435,-3.0145 0,-0.22723 0,-7.07125 0,-7.29848 0.225,-0.10699 6.141,-2.91831 6.3435,-3.0145 z"
       style="fill:#105b24;fill-opacity:1;fill-rule:evenodd;stroke-width:0.940662"
       id="path40" />
    <path
       d="m 121.2015,122.10331 6.5706,-3.12165 v -7.53395 l -6.5706,-3.12297 -6.5707,3.12297 v 7.53395 z"
       style="fill:#ffffff;fill-rule:evenodd;stroke-width:0.940662"
       id="path41" />
    <path
       d="m 121.0949,108.14919 -6.6894,3.17934 v 7.77241 l 6.796,3.22863 6.7959,-3.22863 v -7.77241 l -6.7959,-3.23004 z m 0.1066,0.4019 c 0.2025,0.0963 6.1203,2.90893 6.3453,3.01591 0,0.22722 0,7.06815 0,7.29538 -0.2252,0.10699 -6.1428,2.9185 -6.3453,3.01467 -0.2025,-0.0962 -6.1202,-2.90769 -6.3454,-3.01467 0,-0.22723 0,-7.06816 0,-7.29538 0.2251,-0.10698 6.1429,-2.91964 6.3454,-3.01591 z"
       style="fill:#105b24;fill-opacity:1;fill-rule:evenodd;stroke-width:0.940662"
       id="path42" />
    <path
       d="M 152.3452,81.752085 H 63.6565 V 65.174481 h 88.6887 z M 99.7753,74.743567 c 0.2192,0 8.3994,0 8.3994,0 v -2.591538 c 0,0 -8.1802,0 -8.3994,0 0,-0.176262 0,-2.14195 0,-2.318212 0.2227,0 20.3021,0 20.3021,0 V 67.242279 H 119.9648 96.8465 V 79.65314 h 23.353 v -2.591539 c 0,0 -20.2015,0 -20.4242,0 0,-0.176351 0,-2.141772 0,-2.318034 z m 38.1015,-2.488543 v 2.591451 c 0,0 6.8257,0 7.0438,0 0,0.174669 0,1.970377 0,2.144957 -0.2207,0 -16.4369,0 -16.6576,0 0,-0.191304 0,-6.896319 0,-7.087535 0.2226,0 19.5523,0 19.5523,0 v -2.591539 h -0.1126 -22.3685 v 12.270613 h 22.5152 V 72.255024 Z M 67.9114,67.200072 v 7.452798 c 0,0 20.093,0 20.3158,0 0,0.177412 0,2.273437 0,2.450938 -0.2228,0 -20.163,0 -20.163,0 v 2.591539 H 91.156 v -7.634104 c 0,0 -20.0931,0 -20.3159,0 0,-0.17573 0,-2.093814 0,-2.269633 0.2228,0 20.4056,0 20.4056,0 v -2.591538 h -0.1126 z"
       style="fill:#105b24;fill-opacity:1;fill-rule:evenodd;stroke-width:0.940662"
       id="path43" />
  </g>
</svg>
