<?xml version="1.0" encoding="UTF-8" standalone="no"?>
<svg
   version="1.1"
   width="1.7914639in"
   height="1.7931252in"
   viewBox="0 0 128.9854 129.10501"
   id="svg15"
   sodipodi:docname="alagoas_fc.cdr"
   xmlns:inkscape="http://www.inkscape.org/namespaces/inkscape"
   xmlns:sodipodi="http://sodipodi.sourceforge.net/DTD/sodipodi-0.dtd"
   xmlns="http://www.w3.org/2000/svg"
   xmlns:svg="http://www.w3.org/2000/svg">
  <defs
     id="defs15" />
  <sodipodi:namedview
     id="namedview15"
     pagecolor="#ffffff"
     bordercolor="#000000"
     borderopacity="0.25"
     inkscape:showpageshadow="2"
     inkscape:pageopacity="0.0"
     inkscape:pagecheckerboard="0"
     inkscape:deskcolor="#d1d1d1"
     inkscape:document-units="in" />
  <g
     id="Layer1003"
     transform="matrix(1,0,0,0.83527054,-43.507301,-25.656586)">
    <path
       d="m 108,30.7165 c -7.6958,10.091 -15.4311,17.5514 -29.1151,23.2251 -10.837,4.4959 -24.8155,5.9489 -35.3776,6.0665 2.9054,28.6636 10.2676,51.7124 22.1648,73.2487 10.9944,19.927 23.834,34.0822 42.3279,52.0264 18.4939,-17.9442 31.3337,-32.0994 42.3275,-52.0264 11.8977,-21.5363 19.2597,-44.5851 22.1652,-73.2487 C 161.9305,59.8905 147.952,58.4375 137.1149,53.9416 123.4311,48.2679 115.6957,40.8075 108,30.7165 Z"
       style="fill:#063a8b;fill-rule:evenodd"
       id="path10" />
    <path
       d="M 108,36.9596 C 100.1863,46.442 92.2941,52.2532 80.9856,57.24 c -9.6983,4.2798 -23.2449,6.1646 -33.1789,6.5571 3.3377,26.6415 10.209,47.3929 21.1836,67.4967 9.7181,17.8069 22.0669,31.8437 39.0097,48.6296 16.9427,-16.7859 29.2916,-30.8227 39.0097,-48.6296 C 157.9843,111.19 164.8558,90.4386 168.1933,63.7971 158.2593,63.4046 144.7127,61.5198 135.0145,57.24 123.7058,52.2532 115.8139,46.442 108,36.9596 Z"
       style="fill:#ffffff;fill-rule:evenodd"
       id="path11" />
    <path
       d="M 108,172.8952 V 44.4789 c -6.9302,7.7155 -16.0201,13.4284 -23.4412,16.6483 -11.5833,5.0456 -21.2815,6.4984 -31.039,7.264 3.1805,21.1835 8.1083,36.8308 16.8054,54.6569 8.7365,17.9444 22.0669,34.2589 37.6748,49.8471 z"
       style="fill:#063a8b;fill-rule:evenodd"
       id="path12" />
    <path
       d="m 108,44.4789 v 128.4163 c 15.6079,-15.5882 28.9384,-31.9027 37.6748,-49.8471 8.6971,-17.8261 13.6249,-33.4734 16.8054,-54.6569 -9.7575,-0.7656 -19.4556,-2.2184 -31.039,-7.264 C 124.0201,57.9073 114.9302,52.1944 108,44.4789 Z"
       style="fill:#ffe400;fill-rule:evenodd"
       id="path13" />
    <path
       d="M 130.4119,125.6728 120.3885,74.7223 h 5.6224 V 58.4756 H 89.9891 v 16.2467 h 5.6223 l -10.0235,50.9505 h -4.9437 v 15.0065 h 22.8385 v -15.0065 h -5.254 l 1.5703,-7.9679 h 16.402 l 1.5702,7.9679 h -5.2543 v 15.0065 h 22.8392 V 125.6728 Z M 102.203,105.4906 108,76.0019 l 5.7967,29.4887 z"
       style="fill:#1b1918;fill-rule:evenodd"
       id="path14" />
    <path
       d="m 129.152,127.1849 -10.6246,-53.994 h 5.9714 V 60.0072 H 91.5014 v 13.1837 h 5.9712 l -10.6243,53.994 h -4.6727 v 11.9629 h 19.7756 v -11.9629 h -5.5643 l 2.1521,-10.9922 h 18.9219 l 2.1521,10.9922 h -5.564 v 11.9629 h 19.7754 v -11.9629 z m -28.7907,-20.1823 6.65,-33.8117 h 1.9775 l 6.65,33.8117 z"
       style="fill:#ffffff;fill-rule:evenodd"
       id="path15" />
  </g>
</svg>
