<?xml version="1.0" encoding="UTF-8" standalone="no"?>
<svg
   version="1.1"
   width="1.7533765in"
   height="1.7533749in"
   viewBox="0 0 126.24311 126.243"
   id="svg36"
   sodipodi:docname="goianesia_ec_go.cdr"
   xmlns:inkscape="http://www.inkscape.org/namespaces/inkscape"
   xmlns:sodipodi="http://sodipodi.sourceforge.net/DTD/sodipodi-0.dtd"
   xmlns="http://www.w3.org/2000/svg"
   xmlns:svg="http://www.w3.org/2000/svg">
  <defs
     id="defs36" />
  <sodipodi:namedview
     id="namedview36"
     pagecolor="#ffffff"
     bordercolor="#000000"
     borderopacity="0.25"
     inkscape:showpageshadow="2"
     inkscape:pageopacity="0.0"
     inkscape:pagecheckerboard="0"
     inkscape:deskcolor="#d1d1d1"
     inkscape:document-units="in" />
  <g
     id="Layer1003"
     transform="translate(-44.878403,-44.8783)">
    <path
       d="m 108.0001,44.8783 c 34.7592,0 63.1214,28.3623 63.1214,63.1215 0,34.7593 -28.3622,63.1215 -63.1214,63.1215 -34.7594,0 -63.1217,-28.3622 -63.1217,-63.1215 0,-34.7592 28.3623,-63.1215 63.1217,-63.1215 z"
       style="fill:#004a99;fill-rule:evenodd"
       id="path10" />
    <path
       d="m 108.0001,46.8023 c 33.701,0 61.1976,27.4964 61.1976,61.1975 0,33.7011 -27.4966,61.1976 -61.1976,61.1976 -33.7013,0 -61.1977,-27.4965 -61.1977,-61.1976 0,-33.7011 27.4964,-61.1975 61.1977,-61.1975 z"
       style="fill:#ffffff;fill-rule:evenodd"
       id="path11" />
    <path
       d="m 108.0001,64.0857 c 24.1775,0 43.9141,19.7366 43.9141,43.9141 0,24.1777 -19.7366,43.9142 -43.9141,43.9142 -24.1777,0 -43.9142,-19.7365 -43.9142,-43.9142 0,-24.1775 19.7365,-43.9141 43.9142,-43.9141 z"
       style="fill:#004a99;fill-rule:evenodd"
       id="path12" />
    <path
       d="m 108.0001,66.0097 c 23.1194,0 41.99,18.8708 41.99,41.9901 0,23.1195 -18.8706,41.9903 -41.99,41.9903 -23.1195,0 -41.9903,-18.8708 -41.9903,-41.9903 0,-23.1193 18.8708,-41.9901 41.9903,-41.9901 z"
       style="fill:#ffffff;fill-rule:evenodd"
       id="path13" />
    <path
       d="m 108.0001,68.6391 c 21.6764,0 39.3607,17.6843 39.3607,39.3607 0,21.6765 -17.6843,39.3608 -39.3607,39.3608 -21.6766,0 -39.3609,-17.6843 -39.3609,-39.3608 0,-21.6764 17.6843,-39.3607 39.3609,-39.3607 z"
       style="fill:#004a99;fill-rule:evenodd"
       id="path14" />
    <path
       d="m 108.0001,74.6514 c 8.0964,0 15.5357,2.902 21.3236,7.7439 l -5.3711,6.4453 c -4.3287,-3.6074 -9.9083,-5.7879 -15.9525,-5.7879 -13.7402,0 -24.9473,11.2069 -24.9473,24.9471 0,13.7402 11.2071,24.9472 24.9473,24.9472 10.1488,0 18.9188,-6.1086 22.7987,-14.8464 h -18.9669 v -8.4014 h 29.4846 c -0.8979,17.5882 -15.5199,31.649 -33.3164,31.649 -18.3577,0 -33.3485,-14.9906 -33.3485,-33.3484 0,-18.3576 14.9908,-33.3484 33.3485,-33.3484 z"
       style="fill:#ffffff;fill-rule:evenodd"
       id="path15" />
    <path
       d="m 68.4629,76.6395 1.8598,-2.2927 c 0.8658,1.1062 0.8177,2.2446 -0.1283,3.415 -1.2184,1.5071 -3.0623,1.6033 -4.7938,0.2084 -1.7477,-1.4108 -2.0201,-3.2707 -0.8176,-4.7457 0.7855,-0.994 1.8758,-1.3948 3.3027,-1.2345 l 0.2085,-2.3248 c -2.2608,-0.0962 -3.9923,0.6413 -5.323,2.2927 -1.1062,1.3628 -1.5392,2.7096 -1.3468,4.1686 0.2085,1.491 0.9941,2.8218 2.2927,3.896 1.3308,1.0742 2.7737,1.5391 4.2808,1.4109 1.4751,-0.1122 2.7416,-0.8338 3.7998,-2.1485 1.4589,-1.7956 1.7636,-3.7036 0.8979,-5.7719 -0.3367,-0.7695 -0.93,-1.539 -1.7958,-2.2446 -0.1281,-0.0961 -0.2404,-0.1923 -0.3687,-0.2886 l -3.5913,4.4252 z"
       style="fill:#004a99;fill-rule:evenodd"
       id="path16" />
    <path
       d="m 80.5357,70.7554 c 1.3146,-0.9459 2.0522,-2.1163 2.2124,-3.5753 0.1604,-1.459 -0.2564,-2.902 -1.2504,-4.2809 -1.0102,-1.3948 -2.2607,-2.2285 -3.7357,-2.5332 -1.3789,-0.3045 -2.7416,0.0321 -4.0564,0.9942 -1.3146,0.946 -2.0683,2.1484 -2.2126,3.5593 -0.1602,1.491 0.2726,2.9339 1.2666,4.3129 1.0102,1.3787 2.2447,2.2285 3.6877,2.5332 1.4269,0.2885 2.7736,-0.0482 4.0884,-1.0102 z M 79.253,68.9757 c -1.3467,0.9781 -3.0142,0.5291 -4.345,-1.2986 -1.3306,-1.8278 -1.2345,-3.5753 0.0963,-4.5374 1.3307,-0.9778 3.0142,-0.529 4.377,1.3469 1.2826,1.7636 1.2025,3.5272 -0.1283,4.4891 z"
       style="fill:#004a99;fill-rule:evenodd"
       id="path17" />
    <path
       d="m 86.8687,66.5067 2.3568,-1.0421 -4.5373,-10.1969 -2.3568,1.0582 z"
       style="fill:#004a99;fill-rule:evenodd"
       id="path18" />
    <path
       d="m 91.0051,64.1499 2.5332,-0.5932 0.1925,-2.2286 4.5853,-1.0582 1.2024,1.9079 2.5974,-0.5932 -6.7499,-9.8923 -2.5973,0.5933 z m 2.8859,-4.6816 0.5452,-5.5313 2.9019,4.7457 z"
       style="fill:#004a99;fill-rule:evenodd"
       id="path19" />
    <path
       d="m 110.9821,61.5205 2.3248,0.032 0.1925,-11.1428 -2.2607,-0.0481 -0.0803,4.4572 c -0.0161,1.3146 0.0481,2.6133 0.1764,3.8478 -0.3366,-0.8017 -0.7213,-1.5713 -1.1703,-2.2767 l -3.8479,-6.1084 -2.3247,-0.0482 -0.1925,11.159 2.2446,0.0319 0.0802,-4.4571 c 0.0161,-1.3147 -0.0481,-2.6134 -0.1764,-3.8639 0.529,1.1223 0.962,1.924 1.2506,2.3728 z"
       style="fill:#004a99;fill-rule:evenodd"
       id="path20" />
    <path
       d="m 126.9189,49.5759 -1.7478,-0.497 -2.0522,2.1165 0.9621,0.2724 z m -10.6138,12.3294 9.219,2.6294 0.609,-2.1164 -6.7338,-1.9239 0.6895,-2.421 6.349,1.8117 0.5771,-1.9881 -6.3489,-1.8117 0.5932,-2.0843 6.7339,1.9401 0.6091,-2.1165 -9.2188,-2.6453 z"
       style="fill:#004a99;fill-rule:evenodd"
       id="path21" />
    <path
       d="m 129.7406,63.4765 -2.0683,0.6574 c 0.4169,1.491 1.2346,2.5332 2.5332,3.2546 2.1163,1.1704 4.2007,0.6413 5.1947,-1.1704 0.7857,-1.4269 0.6252,-2.6775 -0.5613,-3.9922 l -1.0421,-1.1544 c -0.5932,-0.6573 -0.7854,-1.1542 -0.5129,-1.6833 0.3206,-0.5452 1.0742,-0.7055 1.8278,-0.2888 0.6573,0.3689 1.0259,0.9139 1.2345,1.7957 l 2.0361,-0.497 c -0.2406,-1.3146 -1.0099,-2.3407 -2.3569,-3.0782 -2.0041,-1.1064 -3.9119,-0.6094 -4.922,1.2024 -0.7376,1.3467 -0.5129,2.5653 0.6733,3.8799 l 0.9459,1.0743 c 0.6415,0.6895 0.8179,1.2025 0.5132,1.7636 -0.401,0.7055 -1.1703,0.8658 -2.0363,0.3848 -0.7215,-0.4008 -1.2184,-1.1223 -1.4589,-2.1484 z"
       style="fill:#004a99;fill-rule:evenodd"
       id="path22" />
    <path
       d="m 135.6727,70.6272 2.0202,1.5872 6.8622,-8.7861 -2.0202,-1.5872 z"
       style="fill:#004a99;fill-rule:evenodd"
       id="path23" />
    <path
       d="m 139.3765,73.4811 1.7314,1.9239 2.0522,-0.9139 3.1586,3.5112 -1.0904,1.9721 1.7797,1.972 5.3711,-10.6939 -1.7797,-1.9882 z m 5.483,0.2565 5.1147,-2.2126 -2.7418,4.842 z"
       style="fill:#004a99;fill-rule:evenodd"
       id="path24" />
    <path
       d="m 51.5642,123.4234 3.1263,9.0587 2.0844,-0.7215 -2.2767,-6.6217 2.3728,-0.8176 2.1485,6.2368 1.956,-0.6733 -2.1484,-6.2368 2.0521,-0.7054 2.2768,6.6214 2.0842,-0.7054 -3.1263,-9.0747 z"
       style="fill:#004a99;fill-rule:evenodd"
       id="path25" />
    <path
       d="m 59.4043,134.9031 -2.1323,-0.4329 c -0.3368,1.5069 -0.1284,2.8217 0.6573,4.0884 1.2826,2.0522 3.3509,2.5812 5.0985,1.4909 1.3948,-0.8818 1.8437,-2.0361 1.4589,-3.7677 l -0.3527,-1.507 c -0.2084,-0.8818 -0.1283,-1.4109 0.3688,-1.7316 0.5291,-0.3206 1.2666,-0.0962 1.7316,0.6413 0.4007,0.6254 0.4489,1.2986 0.2084,2.1645 l 2.0201,0.545 c 0.4168,-1.2665 0.2405,-2.5332 -0.5612,-3.8157 -1.2184,-1.9561 -3.1424,-2.4372 -4.89,-1.3468 -1.3147,0.8177 -1.6994,1.988 -1.2987,3.7196 l 0.3207,1.3948 c 0.2084,0.914 0.1121,1.4431 -0.4169,1.7798 -0.6893,0.4329 -1.443,0.1924 -1.9721,-0.6414 -0.4328,-0.7054 -0.5129,-1.5711 -0.2404,-2.5812 z"
       style="fill:#004a99;fill-rule:evenodd"
       id="path26" />
    <path
       d="m 62.0015,143.8814 1.6194,1.9399 3.3027,-2.7576 1.5713,1.86 c 1.8278,2.1964 3.7356,2.5491 5.4833,1.0901 1.6514,-1.3787 1.6514,-3.2386 -0.1122,-5.3388 l -3.3189,-3.9602 z m 6.3651,-2.0361 2.3568,-1.9721 0.8979,1.0582 c 1.2186,1.4591 1.6353,2.2607 0.6092,3.1264 -0.9619,0.8017 -1.7635,0.2888 -2.9821,-1.1543 z"
       style="fill:#004a99;fill-rule:evenodd"
       id="path27" />
    <path
       d="m 74.0904,155.8741 c 1.3148,0.9459 2.6615,1.2826 4.0885,0.994 1.4429,-0.3047 2.6934,-1.1543 3.6874,-2.5171 1.0102,-1.395 1.427,-2.854 1.2666,-4.329 -0.1442,-1.4108 -0.8818,-2.6132 -2.1964,-3.5592 -1.3147,-0.962 -2.6936,-1.2986 -4.0724,-1.01 -1.475,0.3046 -2.7255,1.1703 -3.7196,2.5332 -1.01,1.3948 -1.4269,2.8217 -1.2666,4.2967 0.1604,1.4429 0.8979,2.6294 2.2125,3.5914 z m 1.2987,-1.7797 c -1.3307,-0.9779 -1.4269,-2.7095 -0.1122,-4.5373 1.3467,-1.8438 3.0302,-2.2766 4.3609,-1.3147 1.3308,0.9781 1.427,2.7095 0.0642,4.5855 -1.2828,1.7636 -2.9822,2.2286 -4.3129,1.2665 z"
       style="fill:#004a99;fill-rule:evenodd"
       id="path28" />
    <path
       d="m 83.7583,161.1489 1.6834,-4.1525 0.449,0.1764 2.1643,5.7238 3.0784,1.2345 -2.4851,-5.9163 c 2.1483,0.5452 3.6716,-0.1121 4.377,-1.8438 0.8177,-2.02 -0.1603,-3.5592 -2.95,-4.6976 l -4.4732,-1.8117 -4.1846,10.3411 z m 2.3568,-5.82 1.1384,-2.7898 1.2505,0.4972 c 1.7957,0.7375 2.5493,1.2505 2.0682,2.469 -0.4648,1.1384 -1.4269,1.042 -3.1905,0.3208 z"
       style="fill:#004a99;fill-rule:evenodd"
       id="path29" />
    <path
       d="m 96.6006,165.3014 2.5172,0.4971 1.7315,-8.8662 3.6075,0.7054 0.4008,-2.1002 -9.748,-1.8919 -0.4008,2.1002 3.6073,0.7055 z"
       style="fill:#004a99;fill-rule:evenodd"
       id="path30" />
    <path
       d="m 106.5892,166.7445 9.5233,-0.8337 -0.1923,-2.1966 -6.9742,0.6093 -0.2244,-2.5173 6.5733,-0.5771 -0.1763,-2.0522 -6.5733,0.5772 -0.1925,-2.1644 6.9743,-0.6093 -0.1924,-2.1805 -9.5235,0.8337 z"
       style="fill:#004a99;fill-rule:evenodd"
       id="path31" />
    <path
       d="m 130.7507,161.0207 -0.9621,-2.6614 c -0.4007,1.2986 -1.2184,2.1482 -2.421,2.5812 -1.9399,0.7215 -3.6394,-0.1283 -4.4089,-2.2446 -0.7696,-2.0844 0,-3.8319 1.9399,-4.5373 1.1865,-0.433 2.373,-0.2886 3.5272,0.4488 l -0.9779,-2.6613 c -1.1865,-0.2727 -2.3729,-0.1924 -3.5913,0.2564 -1.6195,0.5772 -2.7096,1.5553 -3.3189,2.9181 -0.6252,1.3948 -0.6413,2.9179 -0.0642,4.4892 0.5772,1.6193 1.5714,2.7577 2.934,3.415 1.347,0.6573 2.8059,0.6894 4.4251,0.0962 1.2186,-0.433 2.1805,-1.1384 2.9181,-2.1003 z"
       style="fill:#004a99;fill-rule:evenodd"
       id="path32" />
    <path
       d="m 134.1977,160.2992 7.5356,-4.5212 -1.1223,-1.8919 -5.323,3.1906 -4.6176,-7.6637 -2.2124,1.3306 z"
       style="fill:#004a99;fill-rule:evenodd"
       id="path33" />
    <path
       d="m 142.118,148.6433 -4.0082,-4.1365 -1.8597,1.7797 4.3448,4.4891 c 2.3569,2.437 4.7617,2.5492 7.0063,0.3848 2.2447,-2.1805 2.2125,-4.5853 -0.1283,-7.0224 l -4.3448,-4.4893 -1.8438,1.7958 3.9921,4.1365 c 1.5872,1.6515 1.86,2.9821 0.8018,4.0083 -1.0582,1.0099 -2.373,0.6893 -3.9602,-0.946 z"
       style="fill:#004a99;fill-rule:evenodd"
       id="path34" />
    <path
       d="m 153.7419,144.4746 2.5493,-3.6394 c 1.8436,-2.6293 1.9239,-4.409 -0.0483,-5.7879 -1.1543,-0.8176 -2.3246,-0.7213 -3.5914,0.2727 0.1123,-1.0743 -0.2404,-1.7958 -1.1223,-2.421 -0.9137,-0.6413 -1.8277,-0.7055 -2.7736,-0.1764 -0.6092,0.3367 -1.1705,1.1223 -1.9559,2.2285 l -2.1805,3.1426 z m -2.5173,-4.8419 1.1064,-1.5712 c 0.8496,-1.2345 1.5873,-1.5711 2.4852,-0.946 0.8976,0.6254 0.8176,1.427 -0.0322,2.6615 l -1.1062,1.5712 z m -3.6714,-2.5652 0.6894,-0.994 c 0.8176,-1.1545 1.4911,-1.4751 2.3088,-0.8979 0.8176,0.5612 0.7374,1.3148 -0.0642,2.469 l -0.6894,0.994 z"
       style="fill:#004a99;fill-rule:evenodd"
       id="path35" />
    <path
       d="m 160.6841,133.5563 3.4311,-8.9464 -2.0521,-0.7855 -2.5174,6.5414 -2.3568,-0.8979 2.3729,-6.1726 -1.94,-0.7376 -2.3568,6.1567 -2.0202,-0.7696 2.5173,-6.5414 -2.0524,-0.7857 -3.4469,8.9463 z"
       style="fill:#004a99;fill-rule:evenodd"
       id="path36" />
  </g>
</svg>
