<?xml version="1.0" encoding="UTF-8" standalone="no"?>
<svg
   version="1.1"
   width="3in"
   height="3in"
   viewBox="0 0 216 216"
   id="svg22"
   sodipodi:docname="grapiuna_ac_ba.cdr"
   xmlns:inkscape="http://www.inkscape.org/namespaces/inkscape"
   xmlns:sodipodi="http://sodipodi.sourceforge.net/DTD/sodipodi-0.dtd"
   xmlns="http://www.w3.org/2000/svg"
   xmlns:svg="http://www.w3.org/2000/svg">
  <defs
     id="defs22" />
  <sodipodi:namedview
     id="namedview22"
     pagecolor="#ffffff"
     bordercolor="#000000"
     borderopacity="0.25"
     inkscape:showpageshadow="2"
     inkscape:pageopacity="0.0"
     inkscape:pagecheckerboard="0"
     inkscape:deskcolor="#d1d1d1"
     inkscape:document-units="in" />
  <g
     id="Layer1003">
    <path
       d="m 58.3784,40.3781 h 99.2428 v 106.5602 l -49.6213,28.6836 -49.6215,-28.6836 z"
       style="fill:#1b1918;fill-rule:evenodd"
       id="path10" />
    <path
       d="m 59.9414,41.9583 h 96.1169 V 146.045 L 107.9999,173.8012 59.9414,146.045 Z"
       style="fill:#ffffff;fill-rule:evenodd"
       id="path11" />
    <path
       d="m 61.5043,43.5212 h 92.9912 V 145.1346 L 107.9999,171.998 61.5043,145.1346 Z"
       style="fill:#1b1918;fill-rule:evenodd"
       id="path12" />
    <path
       d="m 63.0845,45.0843 h 89.8307 v 99.1399 l -44.9153,25.9529 -44.9154,-25.9529 z"
       style="fill:#ffffff;fill-rule:evenodd"
       id="path13" />
    <path
       d="m 121.9295,160.3182 -13.9296,8.0555 -13.9296,-8.0555 V 84.5205 h 27.8592 z"
       style="fill:#ffec00;fill-rule:evenodd"
       id="path14" />
    <path
       d="M 64.6478,143.3312 92.5071,159.425 V 84.5205 H 64.6478 Z"
       style="fill:#1b1918;fill-rule:evenodd"
       id="path15" />
    <path
       d="M 64.6478,46.6473 V 82.9574 H 151.352 V 46.6473 Z"
       style="fill:#1b1918;fill-rule:evenodd"
       id="path16" />
    <path
       d="M 123.4924,159.425 151.352,143.3312 V 84.5205 h -27.8596 z"
       style="fill:#1b1918;fill-rule:evenodd"
       id="path17" />
    <path
       d="m 77.5812,66.5715 v -2.8856 h 7.4714 v 6.836 c -0.7213,0.7043 -1.7861,1.3226 -3.1602,1.855 -1.3742,0.5326 -2.7654,0.7903 -4.1738,0.7903 -1.8036,0 -3.3665,-0.378 -4.6891,-1.1165 -1.3398,-0.7557 -2.3359,-1.8379 -3.0059,-3.2292 -0.6698,-1.4084 -1.0131,-2.937 -1.0131,-4.5687 0,-1.7864 0.3778,-3.3838 1.1163,-4.775 0.7557,-1.3741 1.8548,-2.439 3.2979,-3.1775 1.0991,-0.584 2.4732,-0.8588 4.105,-0.8588 2.1298,0 3.7957,0.4466 4.9811,1.3395 1.2022,0.8932 1.975,2.13 2.3186,3.6931 l -3.4352,0.6526 c -0.2405,-0.8416 -0.7041,-1.5115 -1.3741,-1.9924 -0.6698,-0.498 -1.4942,-0.7386 -2.4904,-0.7386 -1.5115,0 -2.7138,0.4809 -3.607,1.4428 -0.8932,0.9618 -1.3398,2.3874 -1.3398,4.2597 0,2.0439 0.4466,3.5726 1.3569,4.586 0.8931,1.0132 2.0784,1.5286 3.5554,1.5286 0.7216,0 1.4429,-0.1374 2.1815,-0.4294 0.7213,-0.2748 1.3569,-0.6354 1.8722,-1.0306 v -2.1813 z"
       style="fill:#ffec00;fill-rule:evenodd"
       id="path18" />
    <path
       d="m 86.9249,72.8752 v -3.2806 h 3.2807 v 3.2806 z"
       style="fill:#ffec00;fill-rule:evenodd"
       id="path19" />
    <path
       d="m 115.4884,72.8752 h -3.7614 l -1.4944,-3.8991 h -6.8359 l -1.4255,3.8991 h -3.6757 l 6.6814,-17.1417 h 3.6413 z m -6.3722,-6.7846 -2.3529,-6.3551 -2.3016,6.3551 z"
       style="fill:#ffec00;fill-rule:evenodd"
       id="path20" />
    <path
       d="m 118.6316,72.8752 v -3.2806 h 3.2979 v 3.2806 z"
       style="fill:#ffec00;fill-rule:evenodd"
       id="path21" />
    <path
       d="m 143.623,66.5715 3.3492,1.0649 c -0.5152,1.8722 -1.3743,3.2634 -2.5594,4.1738 -1.2022,0.9104 -2.7137,1.357 -4.5687,1.357 -2.2673,0 -4.1394,-0.773 -5.6167,-2.336 -1.4597,-1.5459 -2.1984,-3.6757 -2.1984,-6.3724 0,-2.8511 0.7387,-5.0669 2.2157,-6.647 1.4772,-1.5802 3.418,-2.3703 5.8227,-2.3703 2.0956,0 3.7959,0.6182 5.1012,1.855 0.7902,0.7386 1.374,1.7864 1.7691,3.1603 l -3.4349,0.8245 c -0.2063,-0.8932 -0.6186,-1.5975 -1.2712,-2.1127 -0.6526,-0.5153 -1.4257,-0.7729 -2.3531,-0.7729 -1.2537,0 -2.3017,0.4639 -3.0917,1.3741 -0.7903,0.9103 -1.1851,2.3875 -1.1851,4.4313 0,2.1642 0.3948,3.7102 1.1678,4.6376 0.7903,0.9105 1.8037,1.3741 3.0404,1.3741 0.9272,0 1.7175,-0.2921 2.3872,-0.8759 0.6528,-0.5841 1.1338,-1.5114 1.4259,-2.7654 z"
       style="fill:#ffec00;fill-rule:evenodd"
       id="path22" />
  </g>
</svg>
