<?xml version="1.0" encoding="UTF-8" standalone="no"?>
<svg
   version="1.1"
   width="1.4937472in"
   height="1.4937472in"
   viewBox="0 0 107.5498 107.5498"
   id="svg36"
   sodipodi:docname="gremio.cdr"
   xmlns:inkscape="http://www.inkscape.org/namespaces/inkscape"
   xmlns:sodipodi="http://sodipodi.sourceforge.net/DTD/sodipodi-0.dtd"
   xmlns="http://www.w3.org/2000/svg"
   xmlns:svg="http://www.w3.org/2000/svg">
  <defs
     id="defs36" />
  <sodipodi:namedview
     id="namedview36"
     pagecolor="#ffffff"
     bordercolor="#000000"
     borderopacity="0.25"
     inkscape:showpageshadow="2"
     inkscape:pageopacity="0.0"
     inkscape:pagecheckerboard="0"
     inkscape:deskcolor="#d1d1d1"
     inkscape:document-units="in" />
  <g
     id="Layer1003"
     transform="translate(-54.225101,-64.553398)">
    <path
       d="m 161.7749,118.3283 c 0,29.6987 -24.0754,53.7749 -53.7748,53.7749 -29.6991,0 -53.775,-24.0762 -53.775,-53.7749 0,-29.6991 24.0759,-53.7749 53.775,-53.7749 29.6994,0 53.7748,24.0758 53.7748,53.7749 z"
       style="fill:#1b1918;fill-rule:evenodd"
       id="path10" />
    <path
       d="m 159.3005,118.3283 c 0,28.3322 -22.9673,51.3005 -51.3004,51.3005 -28.3331,0 -51.3005,-22.9683 -51.3005,-51.3005 0,-28.3327 22.9674,-51.3004 51.3005,-51.3004 28.3331,0 51.3004,22.9677 51.3004,51.3004 z"
       style="fill:#ffffff;fill-rule:evenodd"
       id="path11" />
    <path
       d="m 93.411,164.4893 c 4.6043,1.4541 9.5043,2.2426 14.5891,2.2426 5.0847,0 9.9847,-0.7885 14.5885,-2.2426 -4.1181,-3.1808 -9.1531,-5.0603 -14.5885,-5.0603 -5.4356,0 -10.4705,1.8795 -14.5891,5.0603 z"
       style="fill:#0092cf;fill-rule:evenodd"
       id="path12" />
    <path
       d="m 122.5886,72.1669 c -4.6038,-1.4537 -9.5038,-2.242 -14.5885,-2.242 -5.0848,0 -9.9848,0.7883 -14.5886,2.242 4.1187,3.1812 9.153,5.0608 14.5886,5.0608 5.4354,0 10.4694,-1.8796 14.5885,-5.0608 z"
       style="fill:#0092cf;fill-rule:evenodd"
       id="path13" />
    <path
       d="m 126.5692,99.3425 c 7.0971,-2.6046 13.4899,-6.6484 18.8,-11.7793 -5.3195,-6.4541 -12.2811,-11.4974 -20.242,-14.5104 -2.6763,2.302 -5.76,4.0777 -9.1143,5.1815 5.4224,3.9343 9.4349,11.735 10.5563,21.1082 z"
       style="fill:#0092cf;fill-rule:evenodd"
       id="path14" />
    <path
       d="m 99.9873,78.2343 c -3.3539,-1.1038 -6.4376,-2.8795 -9.114,-5.1815 -7.9609,3.013 -14.9233,8.0563 -20.2424,14.5104 5.3106,5.1309 11.703,9.1747 18.8001,11.7793 1.1217,-9.3732 5.1339,-17.1739 10.5563,-21.1082 z"
       style="fill:#0092cf;fill-rule:evenodd"
       id="path15" />
    <path
       d="m 89.4305,137.3143 c -7.0972,2.6046 -13.4894,6.6483 -18.8001,11.7791 5.3196,6.4542 12.282,11.4974 20.2426,14.5103 2.6762,-2.3018 5.7604,-4.0775 9.1143,-5.1819 -5.4224,-3.9342 -9.435,-11.7349 -10.5568,-21.1075 z"
       style="fill:#0092cf;fill-rule:evenodd"
       id="path16" />
    <path
       d="m 126.5692,137.3143 c -1.1214,9.3726 -5.1339,17.1733 -10.5563,21.1075 3.3543,1.1044 6.438,2.8801 9.1143,5.1819 7.9609,-3.0129 14.9225,-8.0561 20.242,-14.5103 -5.3101,-5.1308 -11.7029,-9.1745 -18.8,-11.7791 z"
       style="fill:#0092cf;fill-rule:evenodd"
       id="path17" />
    <path
       d="m 146.7903,147.2847 c 6.0382,-8.075 9.6133,-18.0985 9.6133,-28.9564 0,-10.858 -3.5751,-20.8813 -9.6133,-28.9565 -10.0375,9.618 -23.7208,15.5581 -38.7902,15.5581 -15.0701,0 -28.7523,-5.9401 -38.7908,-15.5581 -6.0373,8.0752 -9.6128,18.0985 -9.6128,28.9565 0,10.8579 3.5755,20.8814 9.6128,28.9564 10.0385,-9.6178 23.7207,-15.5578 38.7908,-15.5578 15.0694,0 28.7527,5.94 38.7902,15.5578 z"
       style="fill:#1b1918;fill-rule:evenodd"
       id="path18" />
    <path
       d="m 116.7361,93.4245 c 0.5301,-0.173 1.0129,-0.7191 1.0129,-1.5927 0,-0.5309 -0.1453,-0.9653 -0.4828,-1.3028 -0.3376,-0.3381 -0.7714,-0.4829 -1.3995,-0.4829 -1.2485,0 -1.6935,0.7157 -2.0747,1.2067 l 0.8676,0.579 c 0.3819,-0.4843 0.7809,-0.6271 1.0148,-0.6271 0.4299,0 0.8204,0.3569 0.8204,0.8204 0,0.3375 -0.1189,0.5625 -0.3376,0.7719 -0.1755,0.1668 -0.4356,0.2899 -0.8215,0.2899 h -0.3374 v 1.0133 h 0.4827 c 0.3857,0 0.6866,0.0881 0.8685,0.3377 0.1471,0.2017 0.2897,0.4432 0.2897,0.9174 0,0.9054 -0.5349,1.0609 -0.9176,1.0609 -0.251,0 -0.432,-0.0263 -0.5792,-0.1442 -0.1866,-0.1509 -0.3374,-0.3857 -0.4338,-0.6271 l -1.1099,0.4338 c 0.1443,0.4828 0.3858,0.8694 0.7725,1.1108 0.3374,0.2415 0.8204,0.3857 1.3993,0.3857 0.6271,0 1.1581,-0.1933 1.5448,-0.579 0.3856,-0.4347 0.5789,-0.9656 0.5789,-1.689 0,-0.5318 -0.1753,-1.5728 -1.1581,-1.8827 z"
       style="fill:#1b1918;fill-rule:evenodd"
       id="path19" />
    <path
       d="m 107.3244,93.2317 c 0,1.3994 -0.2414,2.5093 -0.6757,3.2337 -0.3381,0.5789 -0.8214,0.9618 -1.448,1.1098 -0.1561,0.0368 -0.3626,0.0481 -0.5309,0.0481 -0.3946,0 -0.7266,-0.1018 -1.1585,-0.3856 l 0.4347,-0.9657 c 0.2292,0.1084 0.5254,0.1934 0.7724,0.1934 0.2961,0 0.5752,-0.1435 0.8204,-0.4338 0.241,-0.2906 0.3857,-0.7733 0.4823,-1.4005 -0.2673,0.2197 -0.4333,0.4348 -1.0617,0.4348 -0.531,0 -0.9653,-0.1934 -1.3029,-0.628 -0.338,-0.4339 -0.4829,-1.0134 -0.4829,-1.7372 0,-0.8689 0.193,-1.496 0.531,-1.9308 0.3377,-0.4342 0.8685,-0.6757 1.4961,-0.7238 h 0.0481 c 0.7243,0 1.2552,0.2896 1.5928,0.8204 0.3381,0.531 0.4828,1.3033 0.4828,2.3652 z m -2.1237,0.7237 c 0.307,0 0.4777,-0.1608 0.5791,-0.386 0.1065,-0.2373 0.1447,-0.5791 0.1447,-1.0134 0,-0.4347 -0.0349,-0.7983 -0.1447,-1.0138 -0.1278,-0.2508 -0.3377,-0.3375 -0.5791,-0.3375 -0.2013,0 -0.4276,0.1155 -0.5309,0.3375 -0.1311,0.282 -0.1928,0.6681 -0.1928,1.0138 0,0.6955 0.2008,1.3994 0.7237,1.3994 z"
       style="fill:#1b1918;fill-rule:evenodd"
       id="path20" />
    <path
       d="m 98.2026,90.7699 v 0.9656 l 1.3032,-0.3861 V 96.272 H 98.106 v 1.1099 h 3.9578 V 96.272 h -1.3033 v -6.0811 z"
       style="fill:#1b1918;fill-rule:evenodd"
       id="path21" />
    <path
       d="m 116.2533,140.6262 h -1.4965 l -1.7852,7.2395 h 1.2063 l 0.4346,-1.786 h 1.689 l 0.3856,1.786 h 1.3524 z m -1.3993,4.2954 0.4338,-2.1236 0.1574,-0.8205 h 0.0199 l 0.1441,0.7723 0.4508,2.1718 z"
       style="fill:#1b1918;fill-rule:evenodd"
       id="path22" />
    <path
       d="m 97.9611,140.7233 v 7.1424 h 1.3514 v -3.0884 h 1.8342 v -1.1589 h -1.8342 v -1.7373 h 2.6546 v -1.1578 z"
       style="fill:#1b1918;fill-rule:evenodd"
       id="path23" />
    <path
       d="m 101.8831,105.2467 c 0,0 2.5919,0.0481 2.7042,0.0501 0.0504,0.0951 2.1227,3.9851 2.2628,4.2481 -0.2636,0 -1.5291,0 -1.5291,0 l -2.0737,-2.6639 -2.1996,2.699 c 0,0 -1.1968,-0.0265 -1.4552,-0.0322 0.1387,-0.2594 2.2906,-4.3011 2.2906,-4.3011 z"
       style="fill:#ffffff;fill-rule:evenodd"
       id="path24" />
    <path
       d="m 138.4049,126.8541 c -1.5748,-1.67 -2.3405,-3.8738 -2.3405,-6.7398 0,-2.8573 0.7875,-5.1413 2.3387,-6.7879 1.5051,-1.6456 3.6089,-2.4791 6.2533,-2.4791 2.6441,0 4.7471,0.8335 6.2502,2.4783 1.5749,1.671 2.3407,3.8908 2.3407,6.7887 0,2.866 -0.7658,5.0698 -2.3397,6.739 l -0.001,8e-4 c -1.4879,1.6288 -3.5919,2.4794 -6.2523,2.5265 -2.614,0 -4.7177,-0.8506 -6.2494,-2.5265 z m 2.5095,-11.3878 c -0.893,1.1418 -1.3268,2.6612 -1.3268,4.648 0,1.955 0.4338,3.458 1.324,4.5955 0.8835,1.1297 2.1086,1.6785 3.7448,1.6785 1.6362,0 2.86,-0.5488 3.7438,-1.6785 0.8901,-1.1375 1.3229,-2.6405 1.3229,-4.5955 0,-1.9868 -0.4328,-3.5062 -1.3229,-4.6443 l -0.002,-0.002 c -0.8958,-1.0957 -2.1197,-1.6277 -3.7417,-1.6277 -1.573,0 -2.7971,0.532 -3.742,1.6259 z"
       style="fill:#ffffff;fill-rule:evenodd"
       id="path25" />
    <path
       d="m 134.6179,111.3301 c 0,0.1904 0,17.3299 0,17.5205 -0.1792,0 -3.2969,0 -3.4761,0 0,-0.1906 0,-17.3301 0,-17.5205 0.1792,0 3.2969,0 3.4761,0 z"
       style="fill:#ffffff;fill-rule:evenodd"
       id="path26" />
    <path
       d="m 128.8728,111.3301 c 0,0.1904 0,17.3299 0,17.5205 -0.1763,0 -3.0554,0 -3.2325,0 0,-0.1906 0,-14.1906 0,-14.1906 l -0.1906,-0.0236 c 0,0 -3.5647,14.0699 -3.6003,14.2142 -0.1415,0 -3.4261,0 -3.5667,0 -0.0378,-0.1443 -3.6495,-14.2142 -3.6495,-14.2142 l -0.1905,0.0236 c 0,0 0,14 0,14.1906 -0.1763,0 -3.0562,0 -3.2327,0 0,-0.1906 0,-17.3301 0,-17.5205 0.1831,0 5.0915,0 5.2338,0 0.0377,0.1433 3.5976,13.7511 3.5976,13.7511 0,0 3.5599,-13.6078 3.5976,-13.7511 0.1425,0 5.051,0 5.2338,0 z"
       style="fill:#ffffff;fill-rule:evenodd"
       id="path27" />
    <path
       d="m 109.5202,111.3301 c 0,0.1755 0,2.6726 0,2.8479 -0.1894,0 -9.2665,0 -9.2665,0 v 4.005 c 0,0 8.306,0 8.4951,0 0,0.1755 0,2.6726 0,2.848 -0.1891,0 -8.4951,0 -8.4951,0 v 4.7302 c 0,0 9.5598,0 9.7493,0 0,0.1763 0,2.9129 0,3.0894 -0.1886,0 -12.9387,0 -13.1273,0 0,-0.1906 0,-17.3301 0,-17.5205 0.1886,0 12.4559,0 12.6445,0 z"
       style="fill:#ffffff;fill-rule:evenodd"
       id="path28" />
    <path
       d="m 89.4909,111.3311 c 1.9308,0 3.3543,0.3979 4.2309,1.1816 0.8949,0.8006 1.3674,2.0944 1.3674,3.7418 0,1.0137 -0.2292,1.9313 -0.6621,2.6528 -0.404,0.6734 -1.0519,1.1627 -1.9265,1.4541 l -0.2839,0.0943 0.2857,0.0896 c 0.7431,0.232 1.3081,0.6507 1.6343,1.2117 0.3074,0.4831 0.4668,1.2723 0.5178,2.5604 l 0.0961,2.1736 c 0.051,1.0931 0.2641,1.6975 0.6761,1.9662 0,0.0566 0,0.2764 0,0.3934 -0.181,0 -3.7226,0 -3.8447,0 -0.1311,-0.281 -0.1933,-0.4989 -0.2461,-0.7261 -0.0664,-0.2829 -0.1386,-0.647 -0.1556,-1.3986 l -0.049,-1.8831 c -0.0505,-1.1638 -0.2589,-1.89 -0.6555,-2.286 -0.3512,-0.4017 -1.041,-0.6072 -2.0467,-0.6072 h -4.0065 c 0,0 0,6.7143 0,6.901 -0.1782,0 -3.2968,0 -3.475,0 0,-0.1896 0,-17.3291 0,-17.5195 0.1886,0 8.5433,0 8.5433,0 z m -4.9716,2.8479 h -0.0967 v 4.8754 h 4.3922 c 0.9528,0 1.6917,-0.2084 2.1369,-0.6016 0.4394,-0.3452 0.6624,-0.9703 0.6624,-1.8607 0,-0.774 -0.2145,-1.3644 -0.6554,-1.8058 -0.455,-0.4045 -1.11,-0.6073 -1.9506,-0.6073 z"
       style="fill:#ffffff;fill-rule:evenodd"
       id="path29" />
    <path
       d="m 65.0449,126.8069 c -1.5211,-1.6644 -2.2916,-3.9313 -2.2916,-6.7416 0,-2.8159 0.7493,-5.0046 2.2906,-6.6907 1.4853,-1.6767 3.5236,-2.5273 6.0585,-2.5273 2.2354,0 3.9998,0.5149 5.3951,1.5738 1.3792,1.0931 2.1967,2.5152 2.448,4.2182 -0.2216,0 -3.4222,0 -3.5354,0 -0.2301,-0.8024 -0.7299,-1.5502 -1.4018,-2.0566 -0.6968,-0.5244 -1.6257,-0.7903 -2.7607,-0.7903 -1.539,0 -2.7163,0.5488 -3.599,1.6776 l -0.0019,0.002 c -0.8455,1.1439 -1.2741,2.6735 -1.2741,4.5464 0,1.9539 0.4334,3.4572 1.3241,4.5954 0.9458,1.1466 2.2047,1.7266 3.7433,1.7266 1.2123,0 2.1812,-0.3555 2.962,-1.0872 0.777,-0.6318 1.276,-1.5937 1.4778,-2.8555 l 0.0179,-0.1113 c 0,0 -3.8386,0 -4.0225,0 0,-0.1755 0,-2.6725 0,-2.848 0.1854,0 6.9572,0 7.1425,0 0,0.1876 0,9.2246 0,9.4124 -0.1721,0 -2.1454,0 -2.2864,0 -0.0297,-0.1424 -0.4635,-2.2134 -0.4635,-2.2134 l -0.1278,0.1773 c -0.6233,0.8629 -1.3744,1.5193 -2.2331,1.9492 -0.7737,0.4094 -1.7488,0.6169 -2.9007,0.6169 -2.4381,0 -4.444,-0.8658 -5.9613,-2.5737 z"
       style="fill:#ffffff;fill-rule:evenodd"
       id="path30" />
    <path
       d="m 105.8283,144.053 c 0.4343,0.1443 0.7719,0.3377 1.0133,0.6753 0.2414,0.3385 0.3381,0.7242 0.3381,1.2071 0,0.6271 -0.1868,1.1183 -0.6276,1.4475 -0.4121,0.3073 -0.9553,0.4828 -1.5164,0.4828 h -2.0553 v -7.1424 h 2.1237 c 1.0359,0 1.8342,0.6298 1.8342,1.737 0,0.3856 -0.0967,0.7243 -0.2896,1.0138 -0.1852,0.28 -0.4786,0.4592 -0.8204,0.5789 z m -1.0619,-2.268 h -0.4342 v 1.8334 h 0.4342 c 0.5588,0 0.8685,-0.4244 0.8685,-0.9647 0,-0.6942 -0.3097,-0.8687 -0.8685,-0.8687 z m 1.0619,4.005 c 0,-0.4553 -0.1358,-0.7194 -0.314,-0.8835 -0.1891,-0.1735 -0.5569,-0.2264 -0.7965,-0.2264 h -0.3856 v 2.1237 h 0.7035 c 0.3499,0 0.7926,-0.2149 0.7926,-1.0138 z"
       style="fill:#1b1918;fill-rule:evenodd"
       id="path34" />
    <path
       d="m 108.4825,140.7233 v 7.1424 h 1.3507 v -2.7028 h 0.6282 c 0.5789,-0.048 1.0618,-0.2413 1.4485,-0.579 0.4338,-0.4348 0.6271,-0.9655 0.6271,-1.689 0,-0.7241 -0.1933,-1.255 -0.58,-1.6417 -0.3376,-0.3376 -0.8675,-0.5299 -1.4956,-0.5299 z m 2.6371,2.1716 c 0,0.8273 -0.3772,1.2542 -0.9477,1.2542 h -0.3387 v -2.3641 h 0.3387 c 0.4951,0 0.9477,0.2198 0.9477,1.1099 z"
       style="fill:#1b1918;fill-rule:evenodd"
       id="path35" />
    <path
       d="m 108.9656,91.0599 c -0.3866,0.6271 -0.5793,1.5923 -0.5793,2.7989 0,1.2071 0.1927,2.1237 0.5793,2.7517 0.3859,0.6272 0.9169,0.9647 1.6409,0.9647 0.7243,0 1.2542,-0.3375 1.6408,-0.9647 0.3858,-0.628 0.5792,-1.5446 0.5792,-2.7517 0,-1.2066 -0.1934,-2.1718 -0.5792,-2.7989 -0.3866,-0.6762 -0.9165,-1.0138 -1.6408,-1.0138 -0.724,0 -1.255,0.3376 -1.6409,1.0138 z m 2.5095,2.7989 c 0,0.8977 -0.0482,1.6173 -0.1933,1.9992 -0.1425,0.3734 -0.3385,0.5582 -0.6771,0.5582 -0.3377,0 -0.5337,-0.1848 -0.6751,-0.5582 -0.1453,-0.3819 -0.1925,-1.1015 -0.1925,-1.9992 0,-0.9318 0.0472,-1.6786 0.1925,-2.0752 0.1423,-0.387 0.3374,-0.5789 0.6761,-0.5789 0.3385,0 0.5347,0.1919 0.6761,0.5789 0.1451,0.3966 0.1933,1.1434 0.1933,2.0752 z"
       style="fill:#1b1918;fill-rule:evenodd"
       id="path36" />
  </g>
</svg>
