<?xml version="1.0" encoding="UTF-8" standalone="no"?>
<svg
   version="1.1"
   width="1.6745148in"
   height="1.6250604in"
   viewBox="0 0 120.56506 117.00435"
   id="svg33"
   sodipodi:docname="gremio_novorizontino-sp.cdr"
   xmlns:inkscape="http://www.inkscape.org/namespaces/inkscape"
   xmlns:sodipodi="http://sodipodi.sourceforge.net/DTD/sodipodi-0.dtd"
   xmlns="http://www.w3.org/2000/svg"
   xmlns:svg="http://www.w3.org/2000/svg">
  <defs
     id="defs33" />
  <sodipodi:namedview
     id="namedview33"
     pagecolor="#ffffff"
     bordercolor="#000000"
     borderopacity="0.25"
     inkscape:showpageshadow="2"
     inkscape:pageopacity="0.0"
     inkscape:pagecheckerboard="0"
     inkscape:deskcolor="#d1d1d1"
     inkscape:document-units="in" />
  <g
     id="Layer1003"
     transform="matrix(1,0,0,1.0657085,-47.7173,-56.594236)">
    <path
       d="m 142.971,53.4105 c -18.4928,7.2055 -34.7367,6.6691 -34.8987,6.6585 h -0.1452 c -0.161,0.0106 -16.4059,0.547 -34.8979,-6.6585 l -0.7846,-0.3057 -15.096,20.3469 0.6713,0.6567 c 0.065,0.0634 6.4856,6.4389 6.2972,14.5994 -0.1126,4.8531 -2.5256,9.4164 -7.1732,13.5635 -7.9993,7.1376 -10.9348,15.9132 -8.266,24.7102 4.0247,13.269 20.1782,24.5526 39.283,27.4407 14.124,2.135 19.1729,7.5255 19.2222,7.5806 l 0.8136,0.8922 0.8199,-0.8922 c 0.0487,-0.0551 5.0987,-5.4456 19.2224,-7.5806 19.1039,-2.8881 35.2577,-14.1717 39.2833,-27.4407 2.668,-8.797 -0.2681,-17.5726 -8.2673,-24.7102 -4.6468,-4.1471 -7.0595,-8.7104 -7.1715,-13.5635 -0.189,-8.1605 6.2306,-14.536 6.2961,-14.5994 l 0.671,-0.656 -0.557,-0.7528 -14.5375,-19.5948 z"
       style="fill:#1b1918;fill-rule:evenodd"
       id="path10" />
    <path
       d="m 73.02,55.717 c 18.3258,6.9454 33.8443,6.5838 34.9799,6.5141 1.1362,0.0697 16.6533,0.4313 34.9806,-6.5141 0.8764,1.1826 12.0582,16.2537 13.0128,17.5401 -1.7286,1.9226 -6.3024,7.7044 -6.3024,15.0888 0,0.1301 0.002,0.2608 0.004,0.392 0.1203,5.4785 2.7771,10.572 7.8947,15.1384 5.6408,5.0336 8.5228,10.718 8.5228,16.6872 0,1.9071 -0.294,3.8436 -0.8863,5.7971 -3.7915,12.4981 -19.2191,23.1577 -37.5185,25.9243 -11.947,1.8056 -17.7308,5.8235 -19.708,7.513 -1.9772,-1.6895 -7.7611,-5.7074 -19.7088,-7.513 -18.2982,-2.7666 -33.7266,-13.4262 -37.5176,-25.9243 -0.5927,-1.9535 -0.887,-3.89 -0.887,-5.7971 0,-5.9692 2.8827,-11.6536 8.5238,-16.6872 5.1178,-4.5664 7.774,-9.6599 7.8944,-15.1384 0.003,-0.1312 0.0042,-0.2616 0.0042,-0.3917 0,-7.3844 -4.5743,-13.1665 -6.3028,-15.0891 C 60.9604,71.9707 72.1422,56.8996 73.02,55.717 Z"
       style="fill:#ffffff;fill-rule:evenodd"
       id="path11" />
    <path
       d="m 107.9999,64.3968 c -2.1229,0.1193 -16.6267,0.215 -34.1875,-6.0907 -1.4585,1.9656 -9.6694,13.0315 -11.0377,14.8763 2.3048,2.9165 5.7221,8.3688 5.7221,15.1638 l -0.0047,0.4396 c -0.1341,6.0968 -3.0326,11.7142 -8.6156,16.6956 -5.177,4.6196 -7.8022,9.6937 -7.8022,15.0821 0,1.6969 0.2675,3.4382 0.7952,5.1761 3.5566,11.7263 18.259,21.7629 35.7524,24.4071 10.4131,1.5744 16.4397,4.8329 19.378,6.912 2.9387,-2.0791 8.9648,-5.3376 19.378,-6.912 17.4927,-2.6442 32.1955,-12.6808 35.753,-24.4071 0.5263,-1.7379 0.7946,-3.4802 0.7946,-5.1761 0,-5.3884 -2.6251,-10.4625 -7.8013,-15.0821 -5.5832,-4.9814 -8.4823,-10.5988 -8.6171,-16.6965 0,-0.0034 -0.005,-0.439 -0.005,-0.439 0,-6.7955 3.4177,-12.2475 5.7227,-15.1635 -1.5717,-2.119 -9.5109,-12.8194 -11.0372,-14.8763 -17.5618,6.306 -32.065,6.21 -34.188,6.0907 z"
       style="fill:#1b1918;fill-rule:evenodd"
       id="path12" />
    <path
       d="m 69.5863,88.7974 c -0.095,4.3036 -1.4905,8.3634 -4.1486,12.1366 l 71.3877,-39.7603 c -15.1734,4.4147 -27.1576,4.3957 -28.8255,4.3057 -1.8454,0.0995 -16.3268,0.209 -33.7833,-5.8903 -0.787,1.0609 -4.7016,6.3372 -4.7016,6.3372 0,0 -4.5788,6.1711 -5.3824,7.254 2.5998,3.4651 5.4585,8.7199 5.4585,15.1659 z"
       style="fill:#ffffff;fill-rule:evenodd"
       id="path13" />
    <path
       d="m 82.8654,114.3989 -10.2528,5.7105 v 24.0617 c 3.1739,1.5141 6.6231,2.7622 10.2528,3.6958 z"
       style="fill:#fde32f;fill-rule:evenodd"
       id="path14" />
    <path
       d="m 103.3712,102.9782 -10.2528,5.7106 v 41.1885 c 4.2263,0.922 7.5945,2.1098 10.2528,3.3283 z"
       style="fill:#fde32f;fill-rule:evenodd"
       id="path15" />
    <path
       d="m 123.8769,91.5576 -10.2525,5.7102 v 55.4955 c 2.7057,-1.1553 6.0884,-2.2524 10.2525,-3.0918 z"
       style="fill:#fde32f;fill-rule:evenodd"
       id="path16" />
    <path
       d="m 144.3826,80.1368 -10.2525,5.7103 v 61.7568 c 3.6467,-1.0041 7.0938,-2.3356 10.2525,-3.925 z"
       style="fill:#fde32f;fill-rule:evenodd"
       id="path17" />
    <path
       d="m 155.3902,106.2839 c -0.2592,-0.2313 -0.5062,-0.4657 -0.7544,-0.6995 v 31.0832 c 3.6167,-3.3757 6.2231,-7.2036 7.447,-11.2383 0.4963,-1.6367 0.7476,-3.2745 0.7476,-4.8658 0,-5.0695 -2.5031,-9.8733 -7.4402,-14.2796 z"
       style="fill:#fde32f;fill-rule:evenodd"
       id="path18" />
    <path
       d="m 67.8791,101.8189 c -1.9289,1.0649 -3.2243,2.5859 -3.7438,4.3985 -0.5443,1.8985 -0.2311,4.0447 0.8828,6.0441 1.1338,2.0361 2.7203,3.3929 4.5882,3.9252 1.7489,0.4973 3.6636,0.2419 5.3914,-0.7203 1.8444,-1.0274 2.5477,-2.2607 2.9018,-3.3053 0.2048,0.2516 0.7153,0.879 0.7153,0.879 l 2.6209,-1.4597 -4.0894,-7.3424 -6.2018,3.4545 1.6404,2.945 c 0,0 1.925,-1.0723 2.7238,-1.5175 0.0166,0.1421 0.067,0.3057 0.067,0.4362 0,1.5674 -1.1114,2.33 -1.5126,2.5532 -0.986,0.5494 -1.9062,0.7089 -2.7354,0.4722 -0.9313,-0.2648 -1.7608,-1.0402 -2.4656,-2.3059 -1.3225,-2.3753 -0.9395,-4.4464 1.025,-5.5403 1.5758,-0.8775 2.9458,-0.027 3.105,0.2137 l 0.2764,0.4178 0.4565,-0.2129 3.1426,-1.7507 -0.3291,-0.4884 c -1.372,-2.0327 -4.6045,-3.2433 -8.4594,-1.096 z"
       style="fill:#ffffff;fill-rule:evenodd"
       id="path19" />
    <path
       d="m 89.4965,107.2179 -2.6282,1.4634 -1.3444,-2.4133 2.6284,-1.464 z"
       style="fill:#ffffff;fill-rule:evenodd"
       id="path20" />
    <path
       d="m 101.5972,83.7442 -10.4783,5.8337 7.139,12.8133 11.3091,-6.2961 -1.6965,-3.0442 c 0,0 -6.6301,3.6913 -7.5147,4.1839 -0.3086,-0.5537 -0.8783,-1.5761 -1.1869,-2.1296 0.8669,-0.4831 6.6088,-3.6794 6.6088,-3.6794 l -1.6958,-3.044 c 0,0 -5.7417,3.1966 -6.6088,3.6791 -0.2654,-0.4759 -0.5993,-1.0752 -0.8646,-1.5509 0.8788,-0.4894 7.1941,-4.0054 7.1941,-4.0054 l -1.6961,-3.044 z"
       style="fill:#ffffff;fill-rule:evenodd"
       id="path21" />
    <path
       d="m 131.7754,67.1543 -3.2878,1.7339 c 0,0 2.643,5.0711 3.7581,7.2078 -2.3267,-1.2651 -8.58,-4.6649 -8.58,-4.6649 l -3.9413,2.0784 6.7802,13.0078 3.8177,-2.0137 c 0,0 -2.739,-5.2567 -3.8641,-7.4151 2.3483,1.2711 8.8446,4.7884 8.8446,4.7884 l 3.7833,-1.9954 -6.7801,-13.0072 z"
       style="fill:#ffffff;fill-rule:evenodd"
       id="path22" />
    <path
       d="m 116.7922,91.7769 -2.6282,1.4636 -1.3444,-2.4134 2.6283,-1.4641 z"
       style="fill:#ffffff;fill-rule:evenodd"
       id="path23" />
    <path
       d="m 146.7601,75.0862 -2.6282,1.4635 -1.3442,-2.4133 2.6283,-1.464 z"
       style="fill:#ffffff;fill-rule:evenodd"
       id="path24" />
    <path
       d="m 81.6343,64.8793 c -6.1485,0 -11.1507,5.0022 -11.1507,11.151 0,6.1484 5.0022,11.1504 11.1507,11.1504 6.1484,0 11.1506,-5.002 11.1506,-11.1504 0,-6.1488 -5.0022,-11.151 -11.1506,-11.151 z"
       style="fill:#1b1918;fill-rule:evenodd"
       id="path25" />
    <path
       d="m 81.6343,86.505 c -5.776,0 -10.4749,-4.699 -10.4749,-10.4747 0,-5.776 4.6989,-10.4752 10.4749,-10.4752 5.7759,0 10.4748,4.6992 10.4748,10.4752 0,5.7757 -4.6989,10.4747 -10.4748,10.4747 z"
       style="fill:#ffffff;fill-rule:evenodd"
       id="path26" />
    <path
       d="m 72.1269,74.4448 h 0.1082 c 0.7297,0 0.9244,-0.4808 0.9406,-0.8448 h 0.6217 v 4.8751 h -0.7569 v -3.3577 h -0.9136 z"
       style="fill:#1b1918;fill-rule:evenodd"
       id="path27" />
    <path
       d="m 76.0734,75.653 h 0.1191 c 0.227,0 0.6433,-0.0274 0.6433,-0.6591 0,-0.1785 -0.065,-0.6249 -0.4812,-0.6249 -0.519,0 -0.519,0.6249 -0.519,0.7964 h -0.7027 c 0,-0.913 0.4055,-1.5654 1.2705,-1.5654 0.5135,0 1.1893,0.3297 1.1893,1.3595 0,0.4944 -0.2431,0.8033 -0.4593,0.9272 v 0.0136 c 0.1351,0.0482 0.5784,0.3021 0.5784,1.1329 0,0.9199 -0.5354,1.5722 -1.3084,1.5722 -0.3622,0 -1.3355,-0.1029 -1.3355,-1.6272 h 0.7408 l -0.0056,0.0069 c 0,0.2608 0.0541,0.8513 0.5623,0.8513 0.3028,0 0.5679,-0.2608 0.5679,-0.8032 0,-0.6661 -0.5082,-0.6936 -0.8599,-0.6936 z"
       style="fill:#1b1918;fill-rule:evenodd"
       id="path28" />
    <path
       d="M 79.7444,76.9988 H 78.236 v -0.8926 h 1.5084 z"
       style="fill:#1b1918;fill-rule:evenodd"
       id="path29" />
    <path
       d="m 81.2042,75.653 h 0.1189 c 0.2272,0 0.6436,-0.0274 0.6436,-0.6591 0,-0.1785 -0.0651,-0.6249 -0.4813,-0.6249 -0.519,0 -0.519,0.6249 -0.519,0.7964 h -0.703 c 0,-0.913 0.4055,-1.5654 1.2705,-1.5654 0.5137,0 1.1895,0.3297 1.1895,1.3595 0,0.4944 -0.2434,0.8033 -0.4595,0.9272 v 0.0136 c 0.1351,0.0482 0.5783,0.3021 0.5783,1.1329 0,0.9199 -0.535,1.5722 -1.3083,1.5722 -0.3621,0 -1.3352,-0.1029 -1.3352,-1.6272 h 0.7405 l -0.0053,0.0069 c 0,0.2608 0.0542,0.8513 0.5622,0.8513 0.3029,0 0.5677,-0.2608 0.5677,-0.8032 0,-0.6661 -0.5082,-0.6936 -0.8596,-0.6936 z"
       style="fill:#1b1918;fill-rule:evenodd"
       id="path30" />
    <path
       d="m 84.8751,76.9988 h -1.5083 v -0.8926 h 1.5083 z"
       style="fill:#1b1918;fill-rule:evenodd"
       id="path31" />
    <path
       d="m 88.0377,74.4242 c -0.3674,0.5079 -1.3083,1.9498 -1.4002,4.0509 H 85.859 c 0.0811,-1.9501 1.0435,-3.5019 1.3678,-3.9411 h -1.9084 l 0.0161,-0.8517 h 2.7032 z"
       style="fill:#1b1918;fill-rule:evenodd"
       id="path32" />
    <path
       d="m 89.5028,75.653 h 0.1191 c 0.227,0 0.6433,-0.0274 0.6433,-0.6591 0,-0.1785 -0.0649,-0.6249 -0.4812,-0.6249 -0.5191,0 -0.5191,0.6249 -0.5191,0.7964 h -0.7027 c 0,-0.913 0.4055,-1.5654 1.2706,-1.5654 0.5134,0 1.1893,0.3297 1.1893,1.3595 0,0.4944 -0.2431,0.8033 -0.4594,0.9272 v 0.0136 c 0.1352,0.0482 0.5784,0.3021 0.5784,1.1329 0,0.9199 -0.5353,1.5722 -1.3083,1.5722 -0.3621,0 -1.3355,-0.1029 -1.3355,-1.6272 h 0.7407 l -0.0054,0.0069 c 0,0.2608 0.0541,0.8513 0.5622,0.8513 0.3028,0 0.5678,-0.2608 0.5678,-0.8032 0,-0.6661 -0.5081,-0.6936 -0.8598,-0.6936 z"
       style="fill:#1b1918;fill-rule:evenodd"
       id="path33" />
  </g>
</svg>
