<?xml version="1.0" encoding="UTF-8" standalone="no"?>
<svg
   version="1.1"
   width="1.5927597in"
   height="1.5927597in"
   viewBox="0 0 114.6787 114.6787"
   id="svg47"
   sodipodi:docname="guarani4.cdr"
   xmlns:inkscape="http://www.inkscape.org/namespaces/inkscape"
   xmlns:sodipodi="http://sodipodi.sourceforge.net/DTD/sodipodi-0.dtd"
   xmlns="http://www.w3.org/2000/svg"
   xmlns:svg="http://www.w3.org/2000/svg">
  <defs
     id="defs47" />
  <sodipodi:namedview
     id="namedview47"
     pagecolor="#ffffff"
     bordercolor="#000000"
     borderopacity="0.25"
     inkscape:showpageshadow="2"
     inkscape:pageopacity="0.0"
     inkscape:pagecheckerboard="0"
     inkscape:deskcolor="#d1d1d1"
     inkscape:document-units="in" />
  <g
     id="Layer1000"
     style="display:none"
     transform="translate(-50.6605,-66.228401)">
    <path
       d="M 0,216.0002 H 215.9998 V -2e-4 H 0 Z"
       style="fill:#d7dddd;fill-rule:evenodd"
       id="path1" />
    <g
       id="Layer1001">
      <path
         d="M 75.7414,206.2579 74.0892,216 H 0 v -9.7421 z"
         style="fill:#e30016;fill-rule:evenodd"
         id="path2" />
      <path
         d="M 75.7414,206.2579 74.0892,216 h 141.911 v -9.7421 z"
         style="fill:#1b1918;fill-rule:evenodd"
         id="path3" />
      <path
         d="m 86.6423,209.4519 c 0.9906,0 1.7957,0.7961 1.7957,1.7692 0,0.9906 -0.8051,1.7869 -1.7957,1.7869 -0.9731,0 -1.7869,-0.7963 -1.7869,-1.7869 0,-0.9731 0.8138,-1.7692 1.7869,-1.7692 z m 0,4.1223 c 1.3004,0 2.3529,-1.0527 2.3529,-2.3531 0,-1.2826 -1.0525,-2.3354 -2.3529,-2.3354 -1.2916,0 -2.3443,1.0528 -2.3443,2.3354 0,1.3004 1.0527,2.3531 2.3443,2.3531 z m 7.4572,-4.6444 c -0.3273,0 -0.4953,0.2832 -0.4953,0.6193 v 0.2301 c 0,0 -0.5131,-0.8494 -1.5658,-0.8494 -1.2561,0 -2.1585,1.0087 -2.1585,2.1939 0,1.212 0.9112,2.0523 2.1497,2.0523 1.1499,0 1.5746,-0.7342 1.5746,-0.7342 v 0.4866 c 0,0.9288 -0.5131,1.5658 -1.557,1.5658 -0.6989,0 -1.3711,-0.4335 -1.3711,-0.4335 -0.0443,-0.0265 -0.1061,-0.0355 -0.1504,-0.0355 -0.1681,0 -0.283,0.1239 -0.283,0.2832 0,0.0884 0.0353,0.1592 0.1415,0.2299 0,0 0.6811,0.4953 1.6717,0.4953 1.0528,0 2.1143,-0.4953 2.1143,-2.1052 v -3.3438 c 0,-0.0886 0.062,-0.1151 0.062,-0.1151 0.1062,-0.0441 0.1681,-0.1503 0.1681,-0.2565 0,-0.168 -0.1415,-0.2832 -0.3008,-0.2832 z m -2.017,0.5487 c 0.9465,0 1.5658,0.7695 1.5658,1.6276 0,0.92 -0.6458,1.5303 -1.5834,1.5303 -0.9465,0 -1.5835,-0.6368 -1.5835,-1.5215 0,-0.8757 0.6547,-1.6364 1.6011,-1.6364 z m 3.68,-0.5487 c -0.1593,0 -0.3007,0.1152 -0.3007,0.2832 0,0.1062 0.0618,0.2124 0.168,0.2565 0,0 0.0621,0.0265 0.0621,0.1151 v 3.2907 c 0,0.0884 -0.0621,0.1149 -0.0621,0.1149 -0.1062,0.0443 -0.168,0.1505 -0.168,0.2567 0,0.168 0.1414,0.283 0.3007,0.283 0.3273,0 0.4955,-0.283 0.4955,-0.6193 v -2.6183 c 0,-0.5574 0.5307,-0.8228 1.035,-0.8228 0.2033,0 0.4245,0.0443 0.6103,0.1061 0.1858,0.0621 0.3893,-0.053 0.3893,-0.2654 0,-0.1503 -0.0796,-0.2387 -0.1948,-0.283 -0.2652,-0.0974 -0.5396,-0.1415 -0.8048,-0.1415 -0.4335,0 -0.8494,0.2034 -1.0705,0.5485 0,-0.0797 -0.0176,-0.1593 -0.0265,-0.1858 -0.0707,-0.1858 -0.2212,-0.3186 -0.4335,-0.3186 z m 7.5281,4.6001 c 0.1592,0 0.3007,-0.115 0.3007,-0.283 0,-0.1062 -0.0618,-0.2124 -0.168,-0.2567 0,0 -0.0619,-0.0265 -0.0619,-0.1149 v -3.2907 c 0,-0.0886 0.0619,-0.1151 0.0619,-0.1151 0.1062,-0.0441 0.168,-0.1503 0.168,-0.2565 0,-0.168 -0.1415,-0.2832 -0.3007,-0.2832 -0.3273,0 -0.4953,0.2832 -0.4953,0.6193 v 2.1938 c 0,0.7342 -0.5662,1.2208 -1.3182,1.2208 -0.9996,0 -1.4594,-0.451 -1.4594,-1.4507 v -1.9639 c 0,-0.3361 -0.1683,-0.6193 -0.4955,-0.6193 -0.1593,0 -0.3008,0.1152 -0.3008,0.2832 0,0.1062 0.0619,0.2124 0.168,0.2565 0,0 0.0621,0.0265 0.0621,0.1151 v 1.9284 c 0,1.318 0.6899,2.0169 2.008,2.0169 0.398,0 1.0791,-0.2389 1.3358,-0.7077 -0.0266,0.3361 0.1061,0.7077 0.4953,0.7077 z m 1.7514,1.5037 c 0.3273,0 0.4955,-0.2858 0.4955,-0.6235 v -1.7206 c 0.3714,0.6015 0.9641,0.8404 1.5568,0.8404 1.2208,0 2.1053,-1.0438 2.1053,-2.247 0,-1.256 -0.858,-2.3531 -2.1053,-2.3531 -0.6015,0 -1.2473,0.3275 -1.5568,0.9466 v -0.3273 c 0,-0.3361 -0.1682,-0.6193 -0.4955,-0.6193 -0.1593,0 -0.3008,0.1152 -0.3008,0.2832 0,0.1062 0.0619,0.2124 0.1681,0.2565 0,0 0.062,0.0265 0.062,0.1151 v 4.7901 c 0,0.0884 -0.062,0.115 -0.062,0.115 -0.1062,0.0457 -0.1681,0.1519 -0.1681,0.2581 0,0.1694 0.1415,0.2858 0.3008,0.2858 z m 2.0435,-5.5376 c 0.9554,0 1.5481,0.9112 1.5481,1.7869 0,0.8935 -0.6017,1.6808 -1.5481,1.6808 -0.9465,0 -1.548,-0.7695 -1.548,-1.6718 0,-0.8669 0.5837,-1.7959 1.548,-1.7959 z m 5.3431,-0.0441 c 0.9906,0 1.7957,0.7961 1.7957,1.7692 0,0.9906 -0.8051,1.7869 -1.7957,1.7869 -0.9731,0 -1.787,-0.7963 -1.787,-1.7869 0,-0.9731 0.8139,-1.7692 1.787,-1.7692 z m 0,4.1223 c 1.3003,0 2.3528,-1.0527 2.3528,-2.3531 0,-1.2826 -1.0525,-2.3354 -2.3528,-2.3354 -1.2916,0 -2.3444,1.0528 -2.3444,2.3354 0,1.3004 1.0528,2.3531 2.3444,2.3531 z m 3.8125,-2.6273 c 0.0886,-0.7873 0.7697,-1.495 1.5835,-1.495 0.8314,0 1.495,0.7077 1.6012,1.495 z m 3.4589,0.5661 c 0.1502,0 0.3007,-0.1239 0.3007,-0.2919 0,-1.212 -0.8934,-2.3354 -2.1761,-2.3354 -1.2738,0 -2.1585,1.1324 -2.1585,2.3354 0,1.256 0.8847,2.3531 2.1585,2.3531 0.8051,0 1.3801,-0.2389 1.778,-0.6636 0.0531,-0.0531 0.0796,-0.1237 0.0796,-0.2033 0,-0.1505 -0.1415,-0.2655 -0.283,-0.2655 -0.0796,0 -0.1592,0.0266 -0.2211,0.0884 -0.292,0.292 -0.7342,0.4778 -1.3535,0.4778 -0.8316,0 -1.4684,-0.7166 -1.5835,-1.495 z m 1.6985,2.0169 c 0.3273,0 0.4953,-0.283 0.4953,-0.6193 v -3.4146 h 1.1854 c 0.1503,0 0.2477,-0.1415 0.2477,-0.283 0,-0.168 -0.1327,-0.2832 -0.283,-0.2832 h -1.1501 v -0.3891 c 0,-0.6193 0.1858,-0.92 0.7342,-0.92 0.1593,0 0.3539,0.0531 0.5043,0.0974 0.1858,0.0441 0.3804,-0.0797 0.3804,-0.2742 0,-0.1417 -0.0974,-0.2477 -0.2123,-0.2832 -0.1946,-0.0619 -0.4247,-0.1062 -0.6724,-0.1062 -0.9375,0 -1.3004,0.6989 -1.3004,1.4862 v 0.3891 h -0.2652 c -0.177,0 -0.2832,0.1328 -0.2832,0.2832 0,0.1415 0.0974,0.283 0.2477,0.283 h 0.3007 v 3.3793 c 0,0.0884 -0.0618,0.1149 -0.0618,0.1149 -0.1062,0.0443 -0.1681,0.1505 -0.1681,0.2567 0,0.168 0.1415,0.283 0.3008,0.283 z m 5.6703,-1.1499 c 0,-0.7432 -0.8404,-1.1501 -1.495,-1.4156 -0.4244,-0.168 -1.0525,-0.4069 -1.0525,-0.8314 0,-0.3716 0.4598,-0.6811 0.9907,-0.6811 0.3185,0 0.6458,0.1062 0.8934,0.3008 0.2124,0.1592 0.4688,0 0.4688,-0.2036 0,-0.0796 -0.0353,-0.168 -0.1149,-0.2389 -0.3185,-0.2564 -0.7696,-0.4245 -1.2473,-0.4245 -0.8226,0 -1.5568,0.5307 -1.5568,1.2384 0,0.7962 0.8934,1.1766 1.4771,1.4065 0.5044,0.2036 1.0615,0.3981 1.0615,0.8494 0,0.3626 -0.5041,0.628 -1.0527,0.628 -0.3714,0 -0.7252,-0.0974 -0.9818,-0.2832 -0.2477,-0.168 -0.4866,-0.009 -0.4866,0.1948 0,0.0884 0.0355,0.1768 0.1239,0.2387 0.3627,0.2389 0.8757,0.4159 1.3092,0.4159 0.6901,0 1.663,-0.3185 1.663,-1.1942 z m 6.3869,-0.7698 c -0.2829,0.6812 -0.9375,1.3447 -1.7248,1.3447 -0.8228,0 -1.3094,-0.7697 -1.3094,-1.5658 0,-1.0615 0.8228,-2.0877 1.8754,-2.0877 1.265,0 1.5127,1.3004 1.1588,2.3088 z m 0.0709,0.9643 c 0.1858,0.6369 0.6811,0.9554 1.3445,0.9554 1.3712,0 1.7338,-1.6896 1.7338,-2.7954 0,-1.1411 -0.3716,-2.0789 -1.1854,-2.8927 -0.8314,-0.8314 -1.9903,-1.2118 -3.158,-1.2118 -2.468,0 -4.3699,2.0965 -4.3699,4.37 0,2.3528 1.9727,4.3874 4.3877,4.3874 0.9288,0 1.8135,-0.2917 2.5564,-0.8314 0.0797,-0.0618 0.1238,-0.1504 0.1238,-0.2476 0,-0.177 -0.1415,-0.2832 -0.2918,-0.2832 -0.0621,0 -0.1239,0.0178 -0.177,0.0531 -0.628,0.4512 -1.371,0.7076 -2.1495,0.7076 -2.0965,0 -3.8569,-1.6542 -3.8569,-3.7859 0,-2.0789 1.6983,-3.7772 3.7772,-3.7772 1.0705,0 2.1055,0.3448 2.8397,1.1499 0.5927,0.6545 0.92,1.3269 0.92,2.2203 0,0.7696 -0.1152,2.3442 -1.1501,2.3442 -0.5307,0 -0.8226,-0.3273 -0.8226,-0.8492 0,-0.2477 0.053,-0.4953 0.0884,-0.7432 0.0708,-0.4776 0.1415,-0.9553 0.2211,-1.4329 0.0265,-0.1592 0.2476,-0.1682 0.2476,-0.3804 0,-0.1504 -0.1059,-0.2919 -0.2742,-0.2919 -0.2033,0 -0.3714,0.1415 -0.46,0.3095 -0.336,-0.5306 -0.9022,-0.8226 -1.548,-0.8226 -1.4329,0 -2.4768,1.3357 -2.4768,2.6804 0,1.0792 0.6723,2.123 1.8577,2.123 0.7253,0 1.3798,-0.407 1.8223,-0.9554 z m 8.1206,-3.6447 c -0.3273,0 -0.4954,0.2832 -0.4954,0.6193 v 0.2301 c 0,0 -0.513,-0.8494 -1.5658,-0.8494 -1.256,0 -2.1585,1.0087 -2.1585,2.1939 0,1.212 0.9112,2.0523 2.1498,2.0523 1.1499,0 1.5745,-0.7342 1.5745,-0.7342 v 0.4866 c 0,0.9288 -0.513,1.5658 -1.557,1.5658 -0.6989,0 -1.371,-0.4335 -1.371,-0.4335 -0.0443,-0.0265 -0.1062,-0.0355 -0.1505,-0.0355 -0.168,0 -0.283,0.1239 -0.283,0.2832 0,0.0884 0.0354,0.1592 0.1415,0.2299 0,0 0.6811,0.4953 1.6718,0.4953 1.0527,0 2.1142,-0.4953 2.1142,-2.1052 v -3.3438 c 0,-0.0886 0.0621,-0.1151 0.0621,-0.1151 0.1062,-0.0441 0.168,-0.1503 0.168,-0.2565 0,-0.168 -0.1415,-0.2832 -0.3007,-0.2832 z m -2.0171,0.5487 c 0.9466,0 1.5658,0.7695 1.5658,1.6276 0,0.92 -0.6458,1.5303 -1.5833,1.5303 -0.9466,0 -1.5836,-0.6368 -1.5836,-1.5215 0,-0.8757 0.6548,-1.6364 1.6011,-1.6364 z m 3.6801,4.0514 c 0.3272,0 0.4955,-0.283 0.4955,-0.6193 v -2.2026 c 0,-0.7342 0.4953,-1.212 1.2295,-1.212 0.5131,0 1.1234,0.2742 1.1234,1.1146 v 2.6363 c 0,0.1503 0.1327,0.283 0.2832,0.283 0.1592,0 0.283,-0.1327 0.283,-0.283 v -2.5567 c 0,-0.7695 0.4777,-1.1942 1.2295,-1.1942 0.5131,0 1.1235,0.3273 1.1235,1.1146 v 2.3 c 0,0.3363 0.1681,0.6193 0.4954,0.6193 0.1592,0 0.3007,-0.115 0.3007,-0.283 0,-0.1062 -0.0618,-0.2124 -0.168,-0.2567 0,0 -0.0619,-0.0265 -0.0619,-0.1149 v -2.2557 c 0,-1.1501 -0.8404,-1.6898 -1.672,-1.6898 -0.5749,0 -1.1323,0.2567 -1.4418,0.7786 -0.3008,-0.6103 -0.9288,-0.7786 -1.4774,-0.7786 -0.4776,0 -0.9464,0.1858 -1.2471,0.6458 0,-0.009 0,-0.053 0,-0.0618 -0.0178,-0.3185 -0.1858,-0.584 -0.4955,-0.584 -0.1593,0 -0.3008,0.1152 -0.3008,0.2832 0,0.1062 0.0619,0.2124 0.168,0.2565 0,0 0.0621,0.0265 0.0621,0.1151 v 3.2907 c 0,0.0884 -0.0621,0.1149 -0.0621,0.1149 -0.1061,0.0443 -0.168,0.1505 -0.168,0.2567 0,0.168 0.1415,0.283 0.3008,0.283 z m 11.0664,0.0443 c 0.1592,0 0.3007,-0.1593 0.3007,-0.3273 0,-0.1062 -0.0619,-0.2124 -0.168,-0.2567 0,0 -0.0619,-0.0265 -0.0619,-0.1149 v -2.415 c 0,-0.2476 -0.009,-0.5043 -0.0886,-0.7076 -0.2565,-0.6636 -0.9907,-0.867 -1.7249,-0.867 -0.4246,0 -0.8581,0.0797 -1.1854,0.2034 -0.1149,0.0443 -0.1946,0.1505 -0.1946,0.2654 0,0.1593 0.115,0.2742 0.2742,0.2742 0.0354,0 0.0884,-0.009 0.124,-0.0175 0.3538,-0.0974 0.628,-0.1593 1.0172,-0.1593 0.513,0 1.0173,0.115 1.1588,0.5041 0.0266,0.0709 0.0531,0.3185 0.0531,0.5221 0,0.0884 0,0.1946 0,0.2477 -0.2832,-0.1771 -0.7076,-0.292 -1.088,-0.292 -1.0793,0 -2.017,0.5218 -2.017,1.672 0,0.9553 0.8138,1.4684 1.6897,1.4684 0.5219,0 1.1677,-0.2742 1.4153,-0.7255 0,0.0885 0,0.1946 0.0176,0.2655 0.0621,0.2386 0.2213,0.46 0.4778,0.46 z m -0.4954,-1.7073 c 0,0.7252 -0.7432,1.1499 -1.3977,1.1499 -0.5662,0 -1.1412,-0.292 -1.1412,-0.92 0,-0.7785 0.7077,-1.0968 1.4243,-1.0968 0.3892,0 0.7165,0.053 1.1146,0.2742 z m 2.4503,1.663 c 0.1593,0 0.3008,-0.115 0.3008,-0.283 0,-0.1062 -0.0619,-0.2124 -0.1681,-0.2567 0,0 -0.0618,-0.0265 -0.0618,-0.1149 v -3.3262 c 0,-0.3361 -0.1681,-0.6193 -0.4954,-0.6193 -0.1592,0 -0.3007,0.1152 -0.3007,0.2832 0,0.1062 0.0619,0.2124 0.168,0.2565 0,0 0.0619,0.0265 0.0619,0.1151 v 3.326 c 0,0.3363 0.168,0.6193 0.4953,0.6193 z m -0.3007,-5.6616 c 0.2301,0 0.4159,-0.1855 0.4159,-0.4157 0,-0.2211 -0.1948,-0.3981 -0.4159,-0.3981 -0.2212,0 -0.407,0.177 -0.407,0.4069 0,0.2214 0.1858,0.4069 0.407,0.4069 z m 2.2114,5.6616 c 0.1592,0 0.3007,-0.115 0.3007,-0.283 0,-0.1062 -0.0619,-0.2124 -0.168,-0.2567 0,0 -0.0619,-0.0265 -0.0619,-0.1149 v -5.2015 c 0,-0.3361 -0.168,-0.6193 -0.4953,-0.6193 -0.1593,0 -0.3008,0.1152 -0.3008,0.2832 0,0.1062 0.0619,0.2123 0.1681,0.2564 0,0 0.0618,0.0266 0.0618,0.115 v 5.2015 c 0,0.3363 0.1681,0.6193 0.4954,0.6193 z m 2.0789,0 v 0 c 0.2476,0 0.4512,-0.1946 0.4512,-0.4513 0,-0.2476 -0.2036,-0.451 -0.4512,-0.451 -0.2565,0 -0.4511,0.2034 -0.4511,0.451 0,0.2567 0.1946,0.4513 0.4511,0.4513 z m 3.8037,0.0443 c 0.5131,0 1.0262,-0.1683 1.4243,-0.4866 0.3451,-0.2742 -0.0353,-0.7166 -0.3538,-0.46 -0.3185,0.2565 -0.6901,0.3714 -1.0705,0.3714 -0.9819,0 -1.8045,-0.7961 -1.8045,-1.7602 0,-0.9996 0.8226,-1.7781 1.8045,-1.7781 0.3804,0 0.752,0.1149 1.0705,0.3626 0.3361,0.2654 0.7076,-0.1856 0.3538,-0.46 -0.4069,-0.3183 -0.9112,-0.4776 -1.4243,-0.4776 -1.3004,0 -2.3619,1.0528 -2.3619,2.3531 0,1.2827 1.0615,2.3354 2.3619,2.3354 z m 4.8036,-4.1223 c 0.9906,0 1.7957,0.7961 1.7957,1.7692 0,0.9906 -0.8051,1.7869 -1.7957,1.7869 -0.9731,0 -1.7869,-0.7963 -1.7869,-1.7869 0,-0.9731 0.8138,-1.7692 1.7869,-1.7692 z m 0,4.1223 c 1.3004,0 2.3529,-1.0527 2.3529,-2.3531 0,-1.2826 -1.0525,-2.3354 -2.3529,-2.3354 -1.2916,0 -2.3443,1.0528 -2.3443,2.3354 0,1.3004 1.0527,2.3531 2.3443,2.3531 z m 3.5824,-0.0443 c 0.3273,0 0.4955,-0.283 0.4955,-0.6193 v -2.2026 c 0,-0.7342 0.4954,-1.212 1.2296,-1.212 0.5131,0 1.1233,0.2742 1.1233,1.1146 v 2.6363 c 0,0.1503 0.1327,0.283 0.2832,0.283 0.1593,0 0.283,-0.1327 0.283,-0.283 v -2.5567 c 0,-0.7695 0.4778,-1.1942 1.2295,-1.1942 0.5131,0 1.1236,0.3273 1.1236,1.1146 v 2.3 c 0,0.3363 0.168,0.6193 0.4953,0.6193 0.1593,0 0.3008,-0.115 0.3008,-0.283 0,-0.1062 -0.0619,-0.2124 -0.1681,-0.2567 0,0 -0.0618,-0.0265 -0.0618,-0.1149 v -2.2557 c 0,-1.1501 -0.8404,-1.6898 -1.672,-1.6898 -0.575,0 -1.1323,0.2567 -1.4419,0.7786 -0.3007,-0.6103 -0.9288,-0.7786 -1.4774,-0.7786 -0.4775,0 -0.9463,0.1858 -1.2471,0.6458 0,-0.009 0,-0.053 0,-0.0618 -0.0177,-0.3185 -0.1858,-0.584 -0.4955,-0.584 -0.1592,0 -0.3007,0.1152 -0.3007,0.2832 0,0.1062 0.0618,0.2124 0.168,0.2565 0,0 0.0621,0.0265 0.0621,0.1151 v 3.2907 c 0,0.0884 -0.0621,0.1149 -0.0621,0.1149 -0.1062,0.0443 -0.168,0.1505 -0.168,0.2567 0,0.168 0.1415,0.283 0.3007,0.283 z"
         style="fill:#ffcb00;fill-rule:evenodd"
         id="path4" />
      <g
         id="Layer1002">
        <path
           d="m 76.9488,206.2591 -1.5166,9.7401 0.3083,8e-4 1.5449,-9.7405 z"
           style="fill:#ffcb00;fill-rule:evenodd"
           id="path5" />
        <path
           d="m 77.8245,206.2584 -1.5177,9.7407 0.3083,8e-4 1.5444,-9.7415 z"
           style="fill:#ffcb00;fill-rule:evenodd"
           id="path6" />
        <path
           d="m 78.6505,206.2586 -1.5164,9.7389 0.3084,8e-4 1.5445,-9.7378 z"
           style="fill:#ffffff;fill-rule:evenodd"
           id="path7" />
        <path
           d="m 76.4585,206.2584 -0.3371,4e-4 -1.5165,9.7403 0.3083,8e-4 z"
           style="fill:#ffffff;fill-rule:evenodd"
           id="path8" />
      </g>
      <path
         d="m 42.0562,211.9053 0.9077,0.2292 c -0.1897,0.7438 -0.5304,1.309 -1.0225,1.6992 -0.492,0.3901 -1.0939,0.5862 -1.8057,0.5862 -0.7358,0 -1.3345,-0.1499 -1.7963,-0.4509 -0.4618,-0.2993 -0.8122,-0.734 -1.0527,-1.3026 -0.2403,-0.57 -0.3614,-1.1799 -0.3614,-1.8328 0,-0.7118 0.1354,-1.3329 0.4077,-1.8631 0.2722,-0.5305 0.6593,-0.9333 1.1608,-1.2087 0.5016,-0.2755 1.0543,-0.4125 1.6562,-0.4125 0.6848,0 1.2596,0.1736 1.7247,0.5223 0.4665,0.3487 0.7913,0.8377 0.9745,1.4682 l -0.8886,0.2103 c -0.1576,-0.4969 -0.3885,-0.86 -0.6895,-1.0862 -0.3009,-0.2276 -0.6801,-0.3407 -1.137,-0.3407 -0.5239,0 -0.9635,0.1259 -1.3155,0.3775 -0.3518,0.2515 -0.6003,0.5906 -0.742,1.0143 -0.1433,0.4253 -0.215,0.863 -0.215,1.3139 0,0.5812 0.0844,1.0892 0.2532,1.5223 0.1689,0.4347 0.4316,0.7581 0.7883,0.9731 0.3567,0.2148 0.742,0.3215 1.1577,0.3215 0.5063,0 0.9333,-0.1466 1.2834,-0.4379 0.3504,-0.293 0.5876,-0.7261 0.712,-1.3026 z m 1.6066,-0.0797 c 0,-0.9157 0.2548,-1.5939 0.7661,-2.0352 0.4251,-0.366 0.9459,-0.5492 1.559,-0.5492 0.6799,0 1.2373,0.223 1.6704,0.6687 0.4316,0.4443 0.6482,1.0607 0.6482,1.8457 0,0.637 -0.0955,1.137 -0.2866,1.5017 -0.1911,0.3646 -0.4698,0.648 -0.8361,0.8504 -0.3647,0.2021 -0.7644,0.3026 -1.1959,0.3026 -0.6944,0 -1.2548,-0.2214 -1.6834,-0.6656 -0.4283,-0.4443 -0.6417,-1.0846 -0.6417,-1.9191 z m 0.86,0.002 c 0,0.6337 0.1386,1.1082 0.4157,1.422 0.2787,0.3153 0.6274,0.4729 1.0494,0.4729 0.4172,0 0.7643,-0.1576 1.0429,-0.4745 0.2771,-0.3169 0.4157,-0.7993 0.4157,-1.4476 0,-0.6115 -0.14,-1.0748 -0.4187,-1.3886 -0.2787,-0.3152 -0.626,-0.4728 -1.0399,-0.4728 -0.422,0 -0.7707,0.156 -1.0494,0.4698 -0.2771,0.3136 -0.4157,0.7866 -0.4157,1.4188 z m 4.7695,2.4778 v -4.9589 h 0.7548 v 0.7039 c 0.363,-0.5398 0.8886,-0.8089 1.5748,-0.8089 0.2995,0 0.5733,0.0541 0.8234,0.1607 0.2499,0.1068 0.4378,0.2485 0.5621,0.422 0.1241,0.1736 0.2117,0.3806 0.2611,0.6195 0.0303,0.1562 0.0462,0.4283 0.0462,0.8169 v 3.0448 h -0.8408 v -3.013 c 0,-0.3424 -0.0318,-0.5986 -0.0972,-0.7675 -0.0653,-0.1688 -0.1815,-0.3042 -0.3471,-0.4061 -0.1656,-0.1002 -0.3616,-0.1513 -0.5843,-0.1513 -0.3569,0 -0.6642,0.1132 -0.9237,0.3408 -0.2597,0.2262 -0.3885,0.6577 -0.3885,1.2916 v 2.7055 z m 7.1389,-0.7501 0.1145,0.7421 c -0.2356,0.0495 -0.4473,0.075 -0.6321,0.075 -0.3042,0 -0.5398,-0.0478 -0.7087,-0.145 -0.1672,-0.0972 -0.285,-0.2229 -0.3534,-0.3806 -0.0686,-0.1576 -0.1019,-0.489 -0.1019,-0.9937 v -2.8568 h -0.6211 v -0.6498 h 0.6211 v -1.2261 l 0.8408,-0.5049 v 1.731 h 0.8408 v 0.6498 h -0.8408 v 2.9046 c 0,0.2405 0.0143,0.3949 0.0445,0.4633 0.0286,0.0686 0.0764,0.1227 0.1433,0.1641 0.067,0.0398 0.1626,0.0605 0.2867,0.0605 0.0923,0 0.215,-0.0111 0.3663,-0.0335 z m 4.0688,0.129 c -0.3122,0.2661 -0.6132,0.4523 -0.9015,0.5621 -0.2881,0.1101 -0.5972,0.1642 -0.9283,0.1642 -0.5446,0 -0.9635,-0.1323 -1.2565,-0.3982 -0.293,-0.2644 -0.4394,-0.6035 -0.4394,-1.0159 0,-0.2422 0.0557,-0.4635 0.1656,-0.6642 0.1115,-0.2005 0.2564,-0.3598 0.4347,-0.4808 0.1798,-0.1211 0.3805,-0.2134 0.6051,-0.2755 0.1656,-0.0431 0.4157,-0.0845 0.7485,-0.126 0.6783,-0.0794 1.1799,-0.1766 1.5001,-0.288 0.0031,-0.1148 0.0047,-0.1881 0.0047,-0.2183 0,-0.3408 -0.0796,-0.5813 -0.2389,-0.7213 -0.215,-0.1895 -0.5349,-0.2834 -0.9586,-0.2834 -0.3965,0 -0.6895,0.07 -0.8775,0.2086 -0.1895,0.1385 -0.3279,0.3837 -0.4188,0.7373 l -0.8216,-0.1147 c 0.0747,-0.352 0.1975,-0.6371 0.3694,-0.8535 0.1719,-0.2166 0.4204,-0.3822 0.7452,-0.5 0.3234,-0.1164 0.7007,-0.1752 1.1274,-0.1752 0.4237,0 0.7694,0.0492 1.0352,0.1497 0.2644,0.1002 0.4602,0.2244 0.5843,0.3756 0.1244,0.1513 0.212,0.3424 0.2628,0.5734 0.0272,0.1433 0.0415,0.4014 0.0415,0.7724 v 1.1147 c 0,0.7788 0.0175,1.2708 0.0526,1.4793 0.0333,0.2086 0.1034,0.4077 0.2054,0.5988 H 60.6623 C 60.5779,214.1283 60.5238,213.9213 60.5,213.684 Z m -0.067,-1.8631 c -0.3057,0.1242 -0.7644,0.2293 -1.3759,0.3153 -0.3471,0.0494 -0.5923,0.1051 -0.7357,0.1672 -0.1433,0.0621 -0.2532,0.1529 -0.3311,0.2707 -0.078,0.1195 -0.1179,0.2516 -0.1179,0.3982 0,0.2213 0.0844,0.4075 0.2549,0.5557 0.1702,0.1481 0.4187,0.223 0.7452,0.223 0.3232,0 0.6115,-0.07 0.8647,-0.2119 0.2515,-0.1401 0.4379,-0.3328 0.5557,-0.5764 0.0907,-0.1895 0.1354,-0.4682 0.1354,-0.8361 z m 3.9669,1.7341 0.1145,0.7421 c -0.2356,0.0495 -0.4473,0.075 -0.6321,0.075 -0.3042,0 -0.5398,-0.0478 -0.7087,-0.145 -0.1672,-0.0972 -0.285,-0.2229 -0.3534,-0.3806 -0.0686,-0.1576 -0.1019,-0.489 -0.1019,-0.9937 v -2.8568 h -0.6211 v -0.6498 h 0.6211 v -1.2261 l 0.8408,-0.5049 v 1.731 h 0.8408 v 0.6498 h -0.8408 v 2.9046 c 0,0.2405 0.0143,0.3949 0.0445,0.4633 0.0286,0.0686 0.0764,0.1227 0.1433,0.1641 0.067,0.0398 0.1625,0.0605 0.2867,0.0605 0.0923,0 0.215,-0.0111 0.3663,-0.0335 z m 0.5143,-1.7294 c 0,-0.9157 0.2548,-1.5939 0.766,-2.0352 0.4251,-0.366 0.946,-0.5492 1.5591,-0.5492 0.6799,0 1.2373,0.223 1.6703,0.6687 0.4317,0.4443 0.6483,1.0607 0.6483,1.8457 0,0.637 -0.0956,1.137 -0.2867,1.5017 -0.1911,0.3646 -0.4698,0.648 -0.8361,0.8504 -0.3646,0.2021 -0.7644,0.3026 -1.1958,0.3026 -0.6944,0 -1.2548,-0.2214 -1.6834,-0.6656 -0.4284,-0.4443 -0.6417,-1.0846 -0.6417,-1.9191 z m 0.86,0.002 c 0,0.6337 0.1386,1.1082 0.4157,1.422 0.2786,0.3153 0.6274,0.4729 1.0494,0.4729 0.4171,0 0.7642,-0.1576 1.0429,-0.4745 0.2771,-0.3169 0.4157,-0.7993 0.4157,-1.4476 0,-0.6115 -0.14,-1.0748 -0.4187,-1.3886 -0.2787,-0.3152 -0.626,-0.4728 -1.0399,-0.4728 -0.422,0 -0.7708,0.156 -1.0494,0.4698 -0.2771,0.3136 -0.4157,0.7866 -0.4157,1.4188 z"
         style="fill:#ffffff;fill-rule:evenodd"
         id="path9" />
    </g>
  </g>
  <g
     id="Layer1003"
     transform="translate(-50.6605,-66.228401)">
    <path
       d="m 107.9998,66.2284 c 31.6676,0 57.3394,25.6719 57.3394,57.3394 0,31.6674 -25.6718,57.3393 -57.3394,57.3393 -31.6675,0 -57.3393,-25.6719 -57.3393,-57.3393 0,-31.6675 25.6718,-57.3394 57.3393,-57.3394 z"
       style="fill:#009953;fill-rule:evenodd"
       id="path10" />
    <path
       d="m 107.9998,70.2356 c -29.4546,0 -53.3324,23.8777 -53.3324,53.3322 0,29.4544 23.8778,53.3319 53.3324,53.3319 29.4546,0 53.332,-23.8775 53.332,-53.3319 0,-29.4545 -23.8774,-53.3322 -53.332,-53.3322 z"
       style="fill:#ffffff;fill-rule:evenodd"
       id="path11" />
    <path
       d="m 107.9998,174.2915 c -28.0141,0 -50.7238,-22.7095 -50.7238,-50.7237 0,-28.0139 22.7097,-50.7237 50.7238,-50.7237 28.0144,0 50.7239,22.7098 50.7239,50.7237 0,28.0142 -22.7095,50.7237 -50.7239,50.7237 z"
       style="fill:#009953;fill-rule:evenodd"
       id="path12" />
    <path
       d="m 107.9998,92.5461 c -17.1327,0 -31.0216,13.8889 -31.0216,31.022 0,17.1325 13.8889,31.0214 31.0216,31.0214 17.1327,0 31.0218,-13.8889 31.0218,-31.0214 0,-17.1331 -13.8891,-31.022 -31.0218,-31.022 z"
       style="fill:#ffffff;fill-rule:evenodd"
       id="path13" />
    <path
       d="m 107.9998,151.9805 c -15.6918,0 -28.4129,-12.721 -28.4129,-28.4127 0,-15.6921 12.7211,-28.413 28.4129,-28.413 15.692,0 28.4126,12.7209 28.4126,28.413 0,15.6917 -12.7206,28.4127 -28.4126,28.4127 z"
       style="fill:#009953;fill-rule:evenodd"
       id="path14" />
    <path
       d="m 78.0253,102.8455 -2.6096,-1.9205 1.066,-1.4484 c 0.1743,-0.2379 0.3541,-0.4067 0.537,-0.5071 0.1816,-0.0999 0.3767,-0.1344 0.5843,-0.1044 0.2078,0.0297 0.4412,0.1138 0.7008,0.2531 0.0297,0.019 0.2038,0.123 0.5232,0.3206 0.3201,0.1949 0.5675,0.3397 0.7438,0.4323 0.1753,0.0918 0.3434,0.1566 0.5008,0.1945 l 1.0704,-1.4551 c -0.1746,-0.0031 -0.3641,-0.0533 -0.5687,-0.1507 -0.2052,-0.0968 -0.4287,-0.2229 -0.671,-0.3776 -0.2437,-0.156 -0.426,-0.2744 -0.5465,-0.3544 -0.4125,-0.2611 -0.8096,-0.4231 -1.1946,-0.4854 -0.3853,-0.0623 -0.7412,0.038 -1.0662,0.3046 l -0.0189,-0.0144 c 0.1127,-0.4685 0.0919,-0.8902 -0.0629,-1.2656 -0.1547,-0.3761 -0.4349,-0.7147 -0.8414,-1.013 -0.3376,-0.2491 -0.7052,-0.3964 -1.1045,-0.4445 -0.3976,-0.0472 -0.7879,0.0154 -1.1682,0.1882 -0.3803,0.1725 -0.7109,0.4499 -0.9922,0.8327 l -2.6208,3.5624 6.6688,4.9071 z m -5.5319,-4.0699 1.1697,-1.5897 c 0.4888,-0.6647 1.0417,-0.7704 1.6588,-0.3166 0.3354,0.2465 0.5159,0.5082 0.5462,0.7851 0.028,0.275 -0.0806,0.5807 -0.3259,0.9145 l -1.1696,1.5894 z"
       style="fill:#ffffff;fill-rule:evenodd"
       id="path15" />
    <path
       d="m 70.6853,130.0188 c 0.3737,-0.3767 0.6525,-0.8217 0.8388,-1.3325 0.1866,-0.5127 0.2608,-1.0777 0.2213,-1.6968 -0.0278,-0.4226 -0.1433,-0.8204 -0.3486,-1.1976 -0.204,-0.3762 -0.5133,-0.6998 -0.9272,-0.9745 l 0.9243,-0.2428 -0.0736,-1.1473 -4.4698,0.2853 0.2194,3.4403 1.3536,-0.0864 -0.1156,-1.8121 c 0.5802,0.0144 1.0352,0.1781 1.3646,0.4902 0.3299,0.3119 0.5141,0.7574 0.551,1.3394 0.0324,0.5092 -0.0705,0.9388 -0.3086,1.2887 -0.2377,0.3509 -0.5603,0.6161 -0.9673,0.794 -0.4058,0.1798 -0.8575,0.2846 -1.3548,0.3166 -0.5117,0.0327 -0.9858,-0.0131 -1.4238,-0.1387 -0.4368,-0.1265 -0.7971,-0.346 -1.0798,-0.663 -0.2832,-0.3175 -0.4407,-0.7319 -0.4727,-1.2418 -0.0182,-0.286 0.0181,-0.5505 0.1092,-0.7917 0.0923,-0.2421 0.2367,-0.451 0.4356,-0.6289 0.1976,-0.1763 0.4418,-0.3091 0.7331,-0.3936 l -0.1097,-1.7155 c -0.4443,0.0687 -0.8435,0.2176 -1.1955,0.4473 -0.3533,0.2283 -0.643,0.5064 -0.8741,0.8382 -0.2285,0.3307 -0.3965,0.6963 -0.5017,1.0972 -0.1055,0.3997 -0.1455,0.8162 -0.1175,1.2493 0.0385,0.6179 0.1842,1.171 0.435,1.6554 0.2493,0.4861 0.5834,0.8919 1.0001,1.2145 0.4182,0.3241 0.8986,0.5594 1.4447,0.7088 0.5449,0.1476 1.122,0.2034 1.7299,0.1641 0.5928,-0.0376 1.1438,-0.1636 1.6546,-0.3768 0.5112,-0.2159 0.9525,-0.5113 1.3251,-0.8893 z"
       style="fill:#ffffff;fill-rule:evenodd"
       id="path16" />
    <path
       d="m 71.6453,138.1345 c -0.0946,-0.9944 -0.9831,-1.7284 -1.9765,-1.6333 -0.9943,0.0943 -1.7283,0.9828 -1.6338,1.9766 0.095,0.9939 0.9831,1.7275 1.9772,1.6331 0.9936,-0.0948 1.7276,-0.9831 1.6331,-1.9764 z"
       style="fill:#ffffff;fill-rule:evenodd"
       id="path17" />
    <path
       d="m 70.0337,120.4736 c 0.5414,-0.1735 0.982,-0.4887 1.3219,-0.9503 0.3401,-0.4622 0.5834,-1.0561 0.7295,-1.7812 0.1095,-0.5459 0.139,-1.0422 0.0896,-1.4909 -0.049,-0.4483 -0.1797,-0.8475 -0.3933,-1.1963 -0.2143,-0.3501 -0.5108,-0.6436 -0.8911,-0.8797 -0.3794,-0.2353 -0.8398,-0.409 -1.3824,-0.5176 l -5.0465,-1.012 -0.3551,1.7692 5.0519,1.0136 c 0.6227,0.1252 1.0478,0.3405 1.2749,0.647 0.2275,0.3061 0.2786,0.7634 0.1574,1.3692 -0.1296,0.6451 -0.3766,1.0492 -0.741,1.2131 -0.3656,0.1648 -0.8178,0.1929 -1.3564,0.0848 l -5.0514,-1.0139 -0.3556,1.7705 5.0463,1.0125 c 0.7256,0.1455 1.3592,0.1319 1.9013,-0.038 z"
       style="fill:#ffffff;fill-rule:evenodd"
       id="path18" />
    <path
       d="m 73.5849,111.1713 -1.4655,-1.3006 1.1661,-2.838 1.946,0.1324 0.7127,-1.7335 -8.8255,-0.3099 -0.7018,1.7069 6.4746,6.0285 z m -2.541,-2.2522 -2.3948,-2.1371 0.0107,-0.0266 3.193,0.1975 z"
       style="fill:#ffffff;fill-rule:evenodd"
       id="path19" />
    <path
       d="m 141.8009,106.401 c -0.3485,0.4486 -0.5322,0.9584 -0.5506,1.5314 -0.0187,0.5726 0.1165,1.2005 0.4085,1.8813 0.219,0.5113 0.4763,0.9367 0.7711,1.2792 0.2939,0.3404 0.6282,0.596 1.0018,0.7619 0.3752,0.1675 0.7856,0.2417 1.2322,0.2207 0.4474,-0.0217 0.9241,-0.1394 1.4332,-0.3579 l 4.7306,-2.0255 -0.7101,-1.6592 -4.7362,2.0276 c -0.5844,0.2495 -1.0574,0.313 -1.4176,0.1903 -0.36,-0.1238 -0.6619,-0.4712 -0.9049,-1.0399 -0.2592,-0.6037 -0.2846,-1.0767 -0.0773,-1.4182 0.2073,-0.3436 0.5645,-0.6234 1.0697,-0.8395 l 4.7355,-2.0272 -0.7102,-1.6603 -4.7306,2.0255 c -0.6805,0.2914 -1.1955,0.6612 -1.5451,1.1098 z"
       style="fill:#ffffff;fill-rule:evenodd"
       id="path20" />
    <path
       d="m 144.2747,119.1522 c 0.1301,0.8021 0.4401,1.446 0.9316,1.9312 0.4916,0.486 1.126,0.6672 1.9005,0.542 0.3395,-0.0548 0.6402,-0.1601 0.901,-0.3156 0.2593,-0.1555 0.4706,-0.3609 0.6334,-0.6144 0.162,-0.2524 0.2614,-0.5496 0.3025,-0.8891 0.2297,0.3269 0.5034,0.5617 0.8204,0.7036 0.3152,0.143 0.6672,0.1813 1.0544,0.1191 0.7262,-0.1176 1.2097,-0.4262 1.4502,-0.9282 0.24,-0.4991 0.2951,-1.1626 0.162,-1.984 l -0.6154,-3.8077 -8.174,1.3209 z m 6.4352,-3.2358 0.2689,1.6663 c 0.0602,0.3756 0.0407,0.6851 -0.0586,0.926 -0.099,0.2414 -0.3273,0.3904 -0.6841,0.448 -0.3263,0.053 -0.5845,-0.008 -0.7797,-0.1785 -0.1947,-0.1695 -0.3182,-0.4212 -0.3714,-0.7532 l -0.2911,-1.7995 z m -3.1385,0.5066 0.3128,1.937 c 0.1376,0.8515 -0.1845,1.3408 -0.9646,1.4673 -0.7186,0.1156 -1.1482,-0.2638 -1.2896,-1.1381 l -0.3068,-1.9025 z"
       style="fill:#ffffff;fill-rule:evenodd"
       id="path21" />
    <path
       d="m 139.6422,105.0314 1.2606,-0.8566 -2.2454,-3.3058 5.5896,-3.7952 -1.0142,-1.4934 -6.85,4.6507 z"
       style="fill:#ffffff;fill-rule:evenodd"
       id="path22" />
    <path
       d="m 99.7657,88.0148 -2.0947,-8.0121 -1.7467,0.4571 2.0946,8.011 z"
       style="fill:#ffffff;fill-rule:evenodd"
       id="path23" />
    <path
       d="m 90.967,91.2016 -2.224,-5.0783 0.0213,-0.0084 5.3499,3.7083 1.6483,-0.7221 -3.3221,-7.5849 -1.5458,0.6773 2.231,5.0936 -0.021,0.0091 -5.3621,-3.7225 -1.6434,0.72 3.3221,7.5852 z"
       style="fill:#ffffff;fill-rule:evenodd"
       id="path24" />
    <path
       d="m 83.3837,96.6779 -0.6833,-1.8364 2.3624,-1.9581 1.6556,1.0301 1.4433,-1.1954 -7.6465,-4.4175 -1.4213,1.1776 2.8865,8.3625 z m -2.2756,-6.2108 2.7274,1.673 -1.638,1.3569 -1.111,-3.0117 z"
       style="fill:#ffffff;fill-rule:evenodd"
       id="path25" />
    <path
       d="m 132.2758,96.4138 c 0.3705,0.3306 0.7655,0.5778 1.1866,0.7417 0.4198,0.1639 0.8471,0.2398 1.2803,0.2285 0.4329,-0.0107 0.8601,-0.1063 1.2804,-0.2878 0.4211,-0.1823 0.8189,-0.4482 1.1939,-0.8005 l -1.302,-1.165 c -0.2802,0.2479 -0.5713,0.4226 -0.8729,0.5263 -0.301,0.1048 -0.6015,0.1265 -0.9021,0.0683 -0.2994,-0.0602 -0.5811,-0.2091 -0.8456,-0.4454 -0.3811,-0.3402 -0.6094,-0.72 -0.6853,-1.1367 -0.0758,-0.4168 -0.0305,-0.8312 0.1333,-1.2453 0.163,-0.4116 0.4114,-0.8033 0.7439,-1.175 0.3415,-0.3817 0.712,-0.6817 1.1126,-0.8988 0.3997,-0.2162 0.8106,-0.3124 1.2341,-0.2842 0.4245,0.0278 0.8271,0.2121 1.208,0.5527 0.3307,0.2969 0.5325,0.6644 0.6032,1.1008 0.0715,0.4391 -0.008,0.8291 -0.2376,1.1698 l 1.2984,1.1617 c 0.275,-0.3808 0.4611,-0.7796 0.5566,-1.1949 0.0971,-0.4157 0.1116,-0.8229 0.0444,-1.2219 -0.067,-0.3985 -0.2083,-0.7816 -0.4242,-1.1489 -0.2144,-0.3676 -0.4896,-0.7029 -0.8267,-1.0036 -0.4627,-0.4146 -0.953,-0.7067 -1.4722,-0.8769 -0.5193,-0.1716 -1.0408,-0.226 -1.5656,-0.1644 -0.5241,0.0629 -1.0333,0.2312 -1.5268,0.5078 -0.4917,0.276 -0.9423,0.6416 -1.3476,1.0955 -0.3964,0.4426 -0.7008,0.9186 -0.9156,1.4294 -0.2134,0.512 -0.3215,1.0322 -0.3222,1.5626 -9e-4,0.5313 0.1125,1.0436 0.339,1.5394 0.2241,0.4959 0.5687,0.9504 1.0317,1.3648 z"
       style="fill:#ffffff;fill-rule:evenodd"
       id="path26" />
    <path
       d="m 118.0568,88.3513 1.7286,0.5229 0.518,-1.7111 -1.7285,-0.5229 z"
       style="fill:#ffffff;fill-rule:evenodd"
       id="path27" />
    <path
       d="m 74.8432,149.9499 c 0.4142,-0.0775 0.8232,-0.2351 1.2313,-0.4746 l -0.9308,-1.3072 c -0.3019,0.1627 -0.5979,0.2622 -0.8895,0.2944 -0.2906,0.0329 -0.565,-0.009 -0.8199,-0.1233 -0.2566,-0.1146 -0.4798,-0.3051 -0.6677,-0.5689 -0.2738,-0.3838 -0.4011,-0.7695 -0.3845,-1.1584 0.017,-0.3866 0.1393,-0.7506 0.37,-1.0865 0.2311,-0.3365 0.5334,-0.6383 0.9054,-0.9021 0.3831,-0.2737 0.7763,-0.467 1.1776,-0.5809 0.402,-0.1135 0.7912,-0.1141 1.1647,-0.005 0.3738,0.1111 0.6966,0.3576 0.969,0.7419 0.2363,0.331 0.3421,0.7023 0.3169,1.1085 -0.0234,0.4057 -0.1737,0.7391 -0.4492,0.9983 l 0.9276,1.3027 c 0.3235,-0.2844 0.5713,-0.6019 0.7403,-0.9553 0.1715,-0.3526 0.2659,-0.7149 0.2862,-1.0857 0.0205,-0.3702 -0.0285,-0.7419 -0.1471,-1.1142 -0.1175,-0.3743 -0.2962,-0.7287 -0.5377,-1.0677 -0.3299,-0.4636 -0.7108,-0.8264 -1.1397,-1.0832 -0.4312,-0.2582 -0.8878,-0.4142 -1.3683,-0.4642 -0.4828,-0.0509 -0.9743,-0.003 -1.4709,0.1453 -0.496,0.1466 -0.9727,0.3826 -1.429,0.7074 -0.4438,0.3154 -0.8138,0.6803 -1.1091,1.0944 -0.2937,0.4144 -0.4954,0.8601 -0.6045,1.334 -0.1078,0.4756 -0.1095,0.9574 -0.0084,1.4475 0.1023,0.4898 0.3192,0.9667 0.6493,1.4306 0.2647,0.3724 0.5685,0.6749 0.911,0.9049 0.3446,0.2316 0.7109,0.3871 1.1012,0.4665 0.3901,0.0784 0.7933,0.0784 1.2058,9e-4 z"
       style="fill:#ffffff;fill-rule:evenodd"
       id="path28" />
    <path
       d="m 136.335,147.2053 c 0.3546,0.3983 0.4905,0.82 0.4081,1.2672 -0.0822,0.4469 -0.3115,0.8907 -0.6887,1.3308 l 0.8628,0.7392 1.2051,-1.4076 3.6738,3.1445 0.974,-1.1374 -5.6587,-4.8439 z"
       style="fill:#ffffff;fill-rule:evenodd"
       id="path29" />
    <path
       d="m 114.7674,82.6002 0.2945,-1.9023 3.9096,0.6072 0.2349,-1.5063 -5.6946,-0.8832 -1.2698,8.1824 1.7839,0.2767 0.5245,-3.3794 3.3897,0.526 0.2159,-1.3956 z"
       style="fill:#ffffff;fill-rule:evenodd"
       id="path30" />
    <path
       d="m 125.5393,159.0857 c -0.1808,-0.1608 -0.3878,-0.2844 -0.6155,-0.366 -0.2302,-0.0835 -0.4711,-0.1205 -0.7262,-0.1084 -0.2548,0.011 -0.4985,0.0724 -0.7299,0.1826 -0.3056,0.1452 -0.5544,0.3551 -0.744,0.6299 -0.1903,0.2745 -0.2969,0.5782 -0.3213,0.9144 -0.0244,0.3369 0.0372,0.6591 0.1826,0.9651 0.1459,0.3061 0.3586,0.5573 0.6355,0.7523 0.2787,0.1935 0.5832,0.3056 0.9154,0.3359 0.3308,0.0311 0.6507,-0.0276 0.9607,-0.1741 0.3119,-0.149 0.5613,-0.361 0.7468,-0.6369 0.1849,-0.2774 0.2916,-0.5846 0.3173,-0.9226 0.0285,-0.3377 -0.0322,-0.6603 -0.1788,-0.9699 -0.113,-0.2381 -0.2618,-0.4393 -0.4426,-0.6023 z"
       style="fill:#ffffff;fill-rule:evenodd"
       id="path31" />
    <path
       d="m 138.2727,152.8626 c -0.216,-0.4245 -0.4765,-0.8169 -0.784,-1.1771 -0.7144,-0.8386 -1.474,-1.3943 -2.279,-1.6709 -0.8054,-0.276 -1.5955,-0.0815 -2.3734,0.5806 -0.3782,0.3226 -0.6401,0.7046 -0.7839,1.1454 -0.1462,0.4407 -0.1653,0.8892 -0.0624,1.3428 0.103,0.4543 0.3178,0.8737 0.6458,1.2584 0.1268,0.1482 0.2701,0.2843 0.4297,0.409 0.1617,0.1252 0.3315,0.2297 0.513,0.3128 0.1828,0.0841 0.3723,0.1425 0.5689,0.1723 0.3044,0.0385 0.6196,0.0119 0.9465,-0.0778 0.3273,-0.0893 0.6084,-0.2336 0.8435,-0.4344 0.279,-0.2379 0.479,-0.4958 0.5967,-0.7716 0.1202,-0.2771 0.1636,-0.5918 0.1331,-0.9441 l 0.0282,10e-4 c 0.3479,0.4511 0.5925,0.9252 0.7345,1.4248 0.1424,0.4992 0.0301,0.9063 -0.3362,1.2187 -0.1242,0.106 -0.269,0.1746 -0.4309,0.2036 -0.1621,0.0299 -0.3232,0.0217 -0.4829,-0.0248 -0.1587,-0.049 -0.3084,-0.1298 -0.4463,-0.2421 l -1.0807,0.9206 c 0.4784,0.4342 1.0027,0.6523 1.5705,0.6499 0.5696,0 1.0981,-0.2087 1.5868,-0.6256 0.3838,-0.3271 0.6451,-0.6944 0.7819,-1.1053 0.1377,-0.4094 0.1732,-0.8339 0.1045,-1.2709 -0.0677,-0.4389 -0.2084,-0.8701 -0.4239,-1.2957 z m -2.4194,0.1979 c -0.0562,0.2095 -0.1823,0.3971 -0.3794,0.5655 -0.2736,0.2334 -0.5752,0.3058 -0.9063,0.2204 -0.3294,-0.085 -0.62,-0.2739 -0.8693,-0.5664 -0.1451,-0.1697 -0.2503,-0.3638 -0.3171,-0.5837 -0.0674,-0.2206 -0.0789,-0.4333 -0.0327,-0.6452 0.0464,-0.2107 0.1546,-0.3885 0.3278,-0.5361 0.1826,-0.156 0.3855,-0.2428 0.6042,-0.2594 0.2225,-0.0154 0.438,0.0246 0.6481,0.1219 0.2117,0.0969 0.3938,0.2342 0.5477,0.4144 0.1669,0.1963 0.2848,0.4025 0.3553,0.6233 0.0708,0.2209 0.0766,0.4346 0.0217,0.6453 z"
       style="fill:#ffffff;fill-rule:evenodd"
       id="path32" />
    <path
       d="m 139.1507,143.3105 c 0.4062,0.3446 0.5996,0.7427 0.5807,1.1976 -0.0192,0.4541 -0.1854,0.9259 -0.4973,1.4136 l 0.9577,0.6118 0.9973,-1.561 4.0753,2.6026 0.8068,-1.2625 -6.2782,-4.009 z"
       style="fill:#ffffff;fill-rule:evenodd"
       id="path33" />
    <path
       d="m 144.6403,124.0105 -0.6317,6.1909 1.5168,0.1548 0.4484,-4.3945 2.0259,0.2069 -0.4031,3.9483 1.405,0.1434 0.4025,-3.9483 1.7743,0.1801 -0.4384,4.3065 1.5163,0.1543 0.622,-6.1024 z"
       style="fill:#ffffff;fill-rule:evenodd"
       id="path34" />
    <path
       d="m 147.2962,137.2697 c -0.2146,-0.2624 -0.483,-0.4532 -0.8033,-0.5734 -0.247,-0.0919 -0.4936,-0.1345 -0.7362,-0.126 -0.2425,0.01 -0.4769,0.0648 -0.6978,0.1638 -0.2231,0.1005 -0.4221,0.2407 -0.5976,0.4272 -0.1754,0.1848 -0.3082,0.3979 -0.3983,0.6374 -0.1186,0.3178 -0.1522,0.6406 -0.0971,0.9707 0.0539,0.3302 0.1884,0.622 0.4039,0.8811 0.2159,0.2596 0.4846,0.4483 0.8017,0.5674 0.3175,0.1188 0.6443,0.1522 0.9796,0.0992 0.3357,-0.0544 0.6313,-0.1847 0.8918,-0.3934 0.2603,-0.2078 0.4497,-0.4725 0.5699,-0.7931 0.1216,-0.3236 0.1538,-0.6497 0.0945,-0.9775 -0.0593,-0.3278 -0.1961,-0.6228 -0.4111,-0.8834 z"
       style="fill:#ffffff;fill-rule:evenodd"
       id="path35" />
    <path
       d="m 128.8572,153.8716 c 0.2556,0.4679 0.2935,0.9096 0.1125,1.3261 -0.1804,0.4171 -0.5047,0.7979 -0.9707,1.143 l 0.6751,0.9133 1.49,-1.1001 2.8725,3.8904 1.2047,-0.8895 -4.4239,-5.9925 z"
       style="fill:#ffffff;fill-rule:evenodd"
       id="path36" />
    <path
       d="m 88.4664,154.0864 -4.1944,3.5343 -0.0175,-0.0114 1.2943,-5.3591 -1.9723,-1.2413 -4.047,6.43 1.3111,0.825 2.8382,-4.5105 0.0182,0.0113 -1.2768,5.4935 1.0804,0.6801 4.4258,-3.578 0.0177,0.0121 -2.8687,4.5577 1.3104,0.8243 4.0475,-6.4298 z"
       style="fill:#ffffff;fill-rule:evenodd"
       id="path37" />
    <path
       d="m 95.1133,160.4496 c 0.1391,-0.2923 0.2276,-0.5864 0.2633,-0.8867 0.0371,-0.2993 0.0119,-0.5976 -0.0756,-0.8947 -0.0878,-0.2969 -0.2545,-0.5789 -0.4994,-0.8441 -0.2444,-0.265 -0.5743,-0.4963 -0.9861,-0.6934 l -3.0603,-1.4634 -3.2778,6.8533 1.4947,0.7151 1.1773,-2.4597 1.5661,0.7499 c 0.5325,0.254 1.0228,0.3641 1.4715,0.3296 0.4503,-0.0338 0.8356,-0.1807 1.1612,-0.4375 0.3222,-0.2559 0.5785,-0.5795 0.7651,-0.9684 z m -1.4452,-0.6915 c -0.1912,0.4001 -0.437,0.6172 -0.7381,0.649 -0.2992,0.0322 -0.6543,-0.0495 -1.0623,-0.2456 l -1.1599,-0.5545 0.9839,-2.0563 1.159,0.5549 c 0.4091,0.1957 0.6944,0.4198 0.858,0.6729 0.1649,0.2542 0.1509,0.5799 -0.0406,0.9796 z"
       style="fill:#ffffff;fill-rule:evenodd"
       id="path38" />
    <path
       d="m 81.3687,148.3799 -7.4813,3.1492 1.1505,1.2153 1.6364,-0.734 1.9363,2.0454 -0.8391,1.5752 1.1818,1.2485 3.5804,-7.2695 z m -2.1509,4.5056 -1.3431,-1.4176 2.6948,-1.2019 0.0164,0.0178 z"
       style="fill:#ffffff;fill-rule:evenodd"
       id="path39" />
    <path
       d="m 102.9412,159.7359 -0.9357,5.0161 -0.0203,-0.003 -2.1474,-5.591 -1.6193,-0.3021 -1.3928,7.4694 1.5224,0.2834 0.9324,-4.9998 0.0208,0.003 2.1448,5.5748 1.6254,0.3029 1.3923,-7.469 z"
       style="fill:#ffffff;fill-rule:evenodd"
       id="path40" />
    <path
       d="m 106.8655,160.0504 -3.0633,7.5174 1.6725,0.0448 0.6378,-1.6753 2.8154,0.0766 0.5213,1.7076 1.7181,0.0471 -2.6081,-7.672 z m -0.2869,4.654 1.0552,-2.7553 0.0243,2e-4 0.8722,2.8083 z"
       style="fill:#ffffff;fill-rule:evenodd"
       id="path41" />
    <path
       d="m 96.0049,158.2854 -1.592,7.069 1.5618,0.5549 1.592,-7.0687 z"
       style="fill:#ffffff;fill-rule:evenodd"
       id="path42" />
    <path
       d="m 116.8815,163.5656 c -0.2005,-0.2514 -0.4291,-0.4415 -0.6863,-0.5671 -0.2577,-0.126 -0.5045,-0.2106 -0.7385,-0.2566 -0.2339,-0.0448 -0.4667,-0.0784 -0.6982,-0.0996 -0.5286,-0.0696 -0.939,-0.1256 -1.2318,-0.1681 -0.2923,-0.0444 -0.5145,-0.0893 -0.6663,-0.1397 -0.1517,-0.0494 -0.264,-0.1144 -0.3375,-0.197 -0.0722,-0.0807 -0.1196,-0.1966 -0.1383,-0.3467 -0.0265,-0.2003 0.006,-0.371 0.0986,-0.5143 0.0919,-0.1412 0.2224,-0.2519 0.3875,-0.3317 0.1667,-0.0806 0.342,-0.1331 0.53,-0.1583 0.4382,-0.0574 0.7996,-0.0176 1.0828,0.1176 0.2815,0.1366 0.4634,0.4135 0.5411,0.8323 l 1.5878,-0.2075 c -0.0563,-0.4303 -0.1842,-0.7884 -0.3873,-1.0772 -0.2022,-0.2888 -0.4525,-0.5101 -0.7527,-0.6689 -0.3021,-0.155 -0.6359,-0.2568 -1.0029,-0.302 -0.3671,-0.0461 -0.7551,-0.0419 -1.1618,0.0116 -0.3443,0.0448 -0.6765,0.1364 -0.9971,0.2729 -0.3219,0.1361 -0.6039,0.3182 -0.8475,0.5465 -0.2423,0.2265 -0.4241,0.496 -0.5427,0.8064 -0.1186,0.3091 -0.1541,0.646 -0.106,1.0144 0.0434,0.3337 0.1415,0.615 0.2958,0.8447 0.1555,0.2297 0.3474,0.4097 0.5773,0.5441 0.2302,0.1346 0.4677,0.233 0.7167,0.2947 0.247,0.0593 0.5536,0.1165 0.9166,0.1709 0.3054,0.0325 0.5949,0.0649 0.8724,0.0981 0.2744,0.0331 0.5212,0.0788 0.738,0.1375 0.2181,0.056 0.3925,0.1431 0.5281,0.2565 0.1326,0.1139 0.2131,0.2673 0.2377,0.4614 0.0452,0.3394 -0.0719,0.6004 -0.3483,0.7825 -0.2779,0.1812 -0.6063,0.2974 -0.982,0.346 -0.4844,0.0625 -0.8955,0.002 -1.2341,-0.184 -0.3389,-0.1868 -0.5397,-0.5152 -0.6018,-0.9866 l -1.5838,0.2069 c 0.057,0.437 0.1933,0.8164 0.4053,1.1369 0.2134,0.3196 0.4849,0.5711 0.8176,0.7541 0.3315,0.1833 0.6929,0.3023 1.0823,0.3619 0.3899,0.0569 0.7982,0.0588 1.2226,0.002 0.66,-0.0854 1.2073,-0.261 1.6452,-0.5272 0.4377,-0.2666 0.7527,-0.5976 0.9432,-0.9945 0.1929,-0.3969 0.2587,-0.8288 0.1978,-1.2934 -0.0521,-0.4006 -0.1779,-0.7279 -0.3795,-0.9798 z"
       style="fill:#ffffff;fill-rule:evenodd"
       id="path43" />
    <path
       d="m 119.9423,44.138 c 0.1566,0 0.274,0 0.3525,0 0.6656,0 0.9791,0.2745 0.9791,0.7834 0,0.2346 -0.1961,0.5088 -0.6271,0.7834 l -7.7915,4.9727 3.5239,8.8882 c 0.0784,0.1962 0.1172,0.3527 0.1172,0.4308 0,0.1565 -0.0388,0.3134 -0.1957,0.4307 -0.1564,0.1565 -0.2738,0.2353 -0.4307,0.2353 -0.2351,0 -0.47,-0.118 -0.7831,-0.3919 l -7.0871,-6.1083 -7.0871,6.1083 c -0.3134,0.2739 -0.5484,0.3919 -0.7442,0.3919 -0.1957,0 -0.3523,-0.0788 -0.47,-0.2353 -0.1565,-0.1173 -0.1957,-0.2742 -0.1957,-0.4307 0,-0.0781 0.0392,-0.2346 0.1177,-0.4308 l 3.5628,-8.8882 -7.831,-4.9727 c -0.4308,-0.2746 -0.6265,-0.5488 -0.6265,-0.7834 0,-0.5089 0.3131,-0.7834 0.9788,-0.7834 0.0785,0 0.1958,0 0.3523,0 l 9.0648,0.7834 2.0947,-8.7709 c 0.0785,-0.4307 0.1958,-0.7442 0.3135,-0.8615 0.0784,-0.1173 0.2742,-0.1961 0.5092,-0.1961 0.1957,0 0.3523,0.0788 0.4697,0.1961 0.1172,0.1173 0.2348,0.4308 0.3521,0.8615 l 2.0167,8.7709 z"
       style="display:none;fill:#ffd500;fill-rule:evenodd"
       id="path44" />
    <path
       d="m 87.7782,123.5678 c 0,-9.3361 6.3284,-17.1896 14.9279,-19.5169 v -4.6526 c -11.1205,2.4246 -19.4494,12.3221 -19.4494,24.1695 0,11.8473 8.3289,21.7446 19.4494,24.1693 v -24.6016 h -10.763 v 4.5214 h 6.2416 v 13.5888 C 91.9786,137.7941 87.7782,131.1731 87.7782,123.5678 Z"
       style="fill:#ffffff;fill-rule:evenodd"
       id="path45" />
    <path
       d="m 107.9998,98.8247 c -1.0277,0 -2.0385,0.07 -3.0331,0.1918 v 49.1028 c 0.9946,0.1217 2.0054,0.1917 3.0331,0.1917 0.5001,0 0.9955,-0.0201 1.4884,-0.049 v -20.6051 h 6.0598 v -4.5214 h -6.0598 v -19.729 c 2.1298,0.1548 4.1643,0.6464 6.0598,1.4102 v -4.8142 c -2.3794,-0.7632 -4.9148,-1.1778 -7.5482,-1.1778 z"
       style="fill:#ffffff;fill-rule:evenodd"
       id="path46" />
    <path
       d="M 122.3303,137.8155 V 109.323 c 1.6796,1.6865 3.0642,3.6663 4.0681,5.8571 l 4.1121,-1.8747 c -2.5404,-5.5639 -7.0792,-10.0228 -12.7016,-12.455 v 45.4267 c 5.6212,-2.4315 10.1602,-6.8867 12.7008,-12.4472 l -4.1169,-1.8771 c -1.0029,2.1923 -2.3842,4.1748 -4.0625,5.8627 z"
       style="fill:#ffffff;fill-rule:evenodd"
       id="path47" />
  </g>
</svg>
