<?xml version="1.0" encoding="UTF-8" standalone="no"?>
<svg
   version="1.1"
   width="1.5037in"
   height="1.5036974in"
   viewBox="0 0 108.2664 108.26621"
   id="svg14"
   sodipodi:docname="IBIS.cdr"
   xmlns:inkscape="http://www.inkscape.org/namespaces/inkscape"
   xmlns:sodipodi="http://sodipodi.sourceforge.net/DTD/sodipodi-0.dtd"
   xmlns="http://www.w3.org/2000/svg"
   xmlns:svg="http://www.w3.org/2000/svg">
  <defs
     id="defs14" />
  <sodipodi:namedview
     id="namedview14"
     pagecolor="#ffffff"
     bordercolor="#000000"
     borderopacity="0.25"
     inkscape:showpageshadow="2"
     inkscape:pageopacity="0.0"
     inkscape:pagecheckerboard="0"
     inkscape:deskcolor="#d1d1d1"
     inkscape:document-units="in" />
  <g
     id="Layer1003"
     transform="translate(-53.866753,-53.867046)">
    <path
       d="m 107.9998,55.1889 c 29.0873,0 52.8115,23.7237 52.8115,52.8109 0,29.0878 -23.7242,52.8116 -52.8115,52.8116 -29.0876,0 -52.8112,-23.7238 -52.8112,-52.8116 0,-29.0872 23.7236,-52.8109 52.8112,-52.8109 z"
       style="fill:#e41e15;fill-rule:evenodd"
       id="path10" />
    <path
       d="m 107.9998,55.1889 c 29.0873,0 52.8115,23.7237 52.8115,52.8109 0,29.0878 -23.7242,52.8116 -52.8115,52.8116 -29.0876,0 -52.8112,-23.7238 -52.8112,-52.8116 0,-29.0872 23.7236,-52.8109 52.8112,-52.8109 z"
       style="fill:none;stroke:#1b1918;stroke-width:2.6437;stroke-linecap:butt;stroke-linejoin:miter;stroke-dasharray:none"
       id="path11" />
    <path
       d="m 107.9998,74.3171 c 18.552,0 33.6826,15.1314 33.6826,33.6827 0,18.5524 -15.1306,33.6832 -33.6826,33.6832 -18.5519,0 -33.6828,-15.1308 -33.6828,-33.6832 0,-18.5513 15.1309,-33.6827 33.6828,-33.6827 z"
       style="fill:none;stroke:#1b1918;stroke-width:1.7625;stroke-linecap:butt;stroke-linejoin:miter;stroke-dasharray:none"
       id="path12" />
    <path
       d="m 70.0536,92.6953 h 45.7224 v 0 c 8.2844,0.1166 8.2072,5.6538 6.7248,11.6738 -0.6839,2.778 -3.2409,9.5067 2.2435,9.6636 3.2819,0.0937 3.6796,-4.8173 3.4432,-8.9428 -0.2121,-3.7015 -2.6224,-11.0262 3.4839,-11.2517 4.0294,-0.1488 3.9079,2.1589 5.6502,2.7164 2.8347,0.9084 13.0346,1.5665 22.6748,2.1867 v 0 l 0.1688,0.9975 v 0 c -6.9194,0.11 -13.8394,0.0821 -20.7586,0.3306 -6.1504,0.4305 -5.5466,2.5247 -5.8403,7.8449 -0.534,9.647 -5.4123,14.1972 -12.9276,16.0887 0.3356,0.7474 0.577,1.1231 1.137,1.4616 1.4978,0.9065 1.5898,1.377 -0.0643,1.377 h -5.0524 v 0 c -0.9666,0 0.4267,-1.1172 -0.9307,-2.0187 -6.6219,0.7841 -14.1579,0.1699 -22.8244,-0.5994 v 0 l -9.6871,6.5436 -1.6924,-2.0555 9.7043,-6.5738 -2.6714,-3.7063 h 14.7043 v 0 c 0.4365,0 1.1444,-0.2966 0.9516,-0.9598 v 0 l -0.4037,-1.3907 v 0 c -0.2249,-0.7769 -0.6248,-0.8662 -1.2525,-0.8662 H 86.2445 l -2.3132,-3.2174 h 17.6201 v 0 c 0.4405,0 1.0567,-0.4011 0.9299,-0.9397 v 0 l -0.2965,-1.2604 v 0 c -0.1752,-0.7436 -0.6254,-1.0169 -1.4171,-1.0169 H 81.6182 l -2.313,-3.2171 H 99.799 v 0 c 0.5814,0 1.1631,-0.3232 0.9786,-0.9767 v 0 l -0.3916,-1.3872 v 0 c -0.2078,-0.7353 -0.776,-0.8532 -1.2915,-0.8532 H 76.992 l -2.3131,-3.2171 h 23.7537 v 0 c 0.5962,0 0.8343,-0.4714 0.7078,-0.8696 v 0 l -0.4555,-1.4316 v 0 C 98.5015,96.2499 97.9912,95.912 97.5794,95.912 H 72.366 Z"
       style="fill:#1b1918;fill-rule:evenodd"
       id="path13" />
    <path
       d="m 66.7283,125.7562 1.0316,1.6757 v 0 c -0.5412,0.3931 -0.8704,0.8199 -0.989,1.2802 -0.1176,0.4578 -0.0447,0.9614 0.2238,1.5123 0.2838,0.5816 0.6213,0.9619 1.0128,1.1347 0.3908,0.176 0.7506,0.184 1.0802,0.0227 0.2127,-0.1031 0.3616,-0.2532 0.4484,-0.4506 0.09,-0.1962 0.1137,-0.4763 0.0707,-0.84 -0.0278,-0.2472 -0.1341,-0.7941 -0.3138,-1.6386 -0.2333,-1.0865 -0.2685,-1.9109 -0.1083,-2.4717 0.2234,-0.7904 0.69,-1.3592 1.3991,-1.7049 0.4567,-0.2226 0.9449,-0.3008 1.4694,-0.2365 0.5226,0.0652 1.0067,0.2911 1.4526,0.6753 0.444,0.3874 0.8343,0.9227 1.1702,1.6104 0.549,1.1264 0.7149,2.0913 0.5004,2.9008 -0.2175,0.8082 -0.7289,1.4266 -1.5385,1.8578 v 0 l -0.9611,-1.7694 v 0 c 0.4232,-0.3019 0.6734,-0.6308 0.7497,-0.9827 0.0779,-0.3531 -0.0082,-0.7839 -0.2559,-1.2928 -0.2563,-0.5255 -0.5643,-0.8861 -0.9258,-1.0767 -0.2311,-0.1248 -0.4632,-0.1303 -0.6951,-0.0171 -0.2128,0.1038 -0.3502,0.2819 -0.4128,0.5346 -0.0812,0.3207 -0.0109,0.9729 0.2122,1.9541 0.2204,0.9817 0.3231,1.7374 0.3073,2.2659 -0.0176,0.5303 -0.1594,1.0069 -0.4281,1.4355 -0.2699,0.4257 -0.6873,0.7763 -1.2525,1.0524 -0.5129,0.2502 -1.0639,0.3429 -1.6495,0.2752 -0.588,-0.0669 -1.1179,-0.3068 -1.5887,-0.7223 -0.4734,-0.4147 -0.8992,-1.0126 -1.2786,-1.7904 -0.5526,-1.1327 -0.716,-2.1292 -0.4885,-2.9915 0.2275,-0.8623 0.8139,-1.597 1.7578,-2.2024 z m 3.4267,12.2908 7.2886,-6.7968 2.2015,2.3606 v 0 c 0.8333,0.8944 1.3407,1.5133 1.5209,1.8524 0.2807,0.5191 0.3707,1.0914 0.2668,1.715 -0.1038,0.6238 -0.4461,1.2062 -1.0245,1.7456 -0.4483,0.4179 -0.9006,0.6877 -1.3564,0.8081 -0.4573,0.1216 -0.8885,0.1395 -1.2971,0.0515 -0.4058,-0.0879 -0.7587,-0.235 -1.0553,-0.4408 -0.3971,-0.2865 -0.9073,-0.7621 -1.529,-1.4294 v 0 l -0.8943,-0.9586 -2.7492,2.5636 z m 7.4269,-4.1749 -2.067,1.9276 0.7503,0.8043 v 0 c 0.5408,0.5804 0.9407,0.9343 1.199,1.0579 0.2584,0.1239 0.5197,0.1657 0.787,0.1263 0.2658,-0.0419 0.5062,-0.1614 0.722,-0.3626 0.2645,-0.2467 0.4107,-0.5287 0.4384,-0.8465 0.0272,-0.3142 -0.0494,-0.6142 -0.2285,-0.8913 -0.1305,-0.2083 -0.4443,-0.5756 -0.9382,-1.1047 v 0 z m 3.4453,8.1282 c 0.5534,-0.8526 1.1437,-1.4848 1.7743,-1.8965 0.4661,-0.3004 0.9739,-0.5159 1.5225,-0.6411 0.5474,-0.1232 1.0705,-0.1402 1.5677,-0.0497 0.6658,0.117 1.3357,0.3969 2.0172,0.8394 1.2315,0.8 1.9685,1.8209 2.2115,3.066 0.2439,1.2429 -0.0764,2.5454 -0.9598,3.9059 -0.8766,1.3505 -1.9295,2.1662 -3.1587,2.4525 -1.2277,0.2846 -2.4564,0.029 -3.6823,-0.7672 -1.2431,-0.8078 -1.9857,-1.8288 -2.2275,-3.0624 -0.2404,-1.2351 0.0722,-2.518 0.9351,-3.8469 z m 1.7744,1.0718 c -0.6142,0.9461 -0.8605,1.8066 -0.7419,2.5785 0.1207,0.7727 0.5173,1.3763 1.1908,1.8134 0.6713,0.4362 1.3807,0.5537 2.1286,0.3476 0.7446,-0.2055 1.4322,-0.7905 2.0615,-1.7603 0.6217,-0.9576 0.8752,-1.8075 0.7642,-2.5523 -0.115,-0.7441 -0.5201,-1.3419 -1.215,-1.7936 -0.6968,-0.4519 -1.4124,-0.5765 -2.1483,-0.377 -0.7338,0.2014 -1.4141,0.7804 -2.0399,1.7437 z m 7.6078,9.9674 2.747,-9.5795 4.0729,1.1676 v 0 c 1.0237,0.2937 1.7413,0.5936 2.1562,0.8984 0.4147,0.3045 0.6993,0.717 0.8521,1.2362 0.1524,0.5219 0.1467,1.0633 -0.0157,1.63 -0.2059,0.7183 -0.5885,1.253 -1.1445,1.6005 -0.5553,0.3448 -1.2738,0.46 -2.1489,0.3395 0.3489,0.366 0.6177,0.7324 0.8061,1.1027 0.1886,0.3698 0.4058,0.9922 0.6537,1.87 v 0 l 0.6352,2.205 -2.3132,-0.6635 -0.8003,-2.4866 v 0 c -0.2837,-0.8877 -0.4885,-1.4531 -0.6156,-1.6996 -0.1274,-0.2467 -0.2838,-0.4336 -0.4678,-0.5663 -0.1849,-0.1304 -0.498,-0.2587 -0.9438,-0.3865 v 0 l -0.3907,-0.1122 -1.1466,3.9994 z m 3.5217,-4.974 1.4296,0.4098 v 0 c 0.9276,0.2661 1.5188,0.3942 1.7731,0.3828 0.2521,-0.012 0.4717,-0.0964 0.6585,-0.2504 0.1843,-0.1548 0.3194,-0.374 0.4021,-0.6618 0.0926,-0.3234 0.08,-0.6072 -0.035,-0.8551 -0.1147,-0.2475 -0.322,-0.4419 -0.6212,-0.586 -0.1503,-0.0646 -0.6179,-0.2106 -1.4028,-0.4361 v 0 l -1.5078,-0.4319 z m 11.0956,8.0088 0.2891,-8.2733 -2.9545,-0.1037 0.0591,-1.6856 7.9145,0.2761 -0.0587,1.6857 -2.9479,-0.1025 -0.2887,8.2738 z m 18.4374,-6.3625 2.0429,-0.0865 v 0 c 0.0906,1.1251 -0.1001,2.054 -0.5725,2.7888 -0.4724,0.7321 -1.2126,1.2833 -2.2175,1.6492 -1.243,0.4524 -2.4203,0.3992 -3.5292,-0.1576 -1.1096,-0.5596 -1.9339,-1.5754 -2.47,-3.0469 -0.5669,-1.5593 -0.6043,-2.9166 -0.114,-4.0725 0.4913,-1.1537 1.3913,-1.9709 2.7039,-2.4482 1.1449,-0.4171 2.1992,-0.4177 3.1608,3e-4 0.5725,0.2434 1.1006,0.7031 1.5874,1.3753 v 0 l -1.7103,1.1289 v 0 c -0.2863,-0.4468 -0.6571,-0.7465 -1.1126,-0.8989 -0.4529,-0.1538 -0.9318,-0.1377 -1.433,0.0444 -0.6929,0.2526 -1.1677,0.7069 -1.4176,1.3633 -0.2509,0.6542 -0.1727,1.5394 0.2334,2.6558 0.431,1.184 0.9497,1.9512 1.5595,2.2971 0.6083,0.3486 1.2534,0.3977 1.9338,0.1505 0.5038,-0.1836 0.8771,-0.4998 1.123,-0.9519 0.246,-0.4501 0.322,-1.0484 0.232,-1.7911 z m 7.2684,0.9341 -5.3834,-8.2898 1.687,-1.0958 4.4685,6.8813 4.1952,-2.7249 0.9154,1.4091 z m 1.904,-13.0722 1.3723,-1.4714 3.9469,3.6808 v 0 c 0.6262,0.5841 1.0508,0.9452 1.2693,1.0821 0.3569,0.2157 0.7371,0.2878 1.1369,0.2195 0.4032,-0.068 0.7955,-0.3085 1.1782,-0.7191 0.3893,-0.4174 0.5984,-0.8124 0.6252,-1.1844 0.0279,-0.37 -0.0636,-0.6936 -0.2718,-0.9676 -0.2085,-0.2762 -0.6018,-0.6813 -1.1787,-1.2191 v 0 l -4.032,-3.7599 1.3719,-1.4717 3.829,3.5704 v 0 c 0.8749,0.8163 1.4568,1.4314 1.7435,1.8485 0.2873,0.4166 0.4545,0.846 0.5049,1.2922 0.0482,0.445 -0.021,0.9168 -0.2052,1.4108 -0.1861,0.4959 -0.55,1.0323 -1.0881,1.6091 -0.6485,0.6958 -1.221,1.1489 -1.7172,1.3587 -0.4968,0.2098 -0.9702,0.2983 -1.4212,0.2681 -0.4505,-0.0301 -0.8483,-0.1444 -1.1922,-0.3411 -0.5072,-0.2925 -1.1677,-0.8193 -1.9841,-1.5806 v 0 z m 6.9304,-7.8039 1.9922,-3.45 v 0 c 0.3937,-0.6837 0.7172,-1.1776 0.9687,-1.4792 0.2503,-0.3034 0.5415,-0.5343 0.8755,-0.6952 0.334,-0.1606 0.6999,-0.2415 1.1035,-0.2447 0.4008,-0.004 0.7895,0.1026 1.1619,0.3173 0.4037,0.2328 0.7128,0.5558 0.9247,0.9684 0.2117,0.4136 0.2942,0.8553 0.248,1.3242 0.456,-0.4361 0.9513,-0.6912 1.4814,-0.7601 0.533,-0.07 1.0488,0.0401 1.547,0.3276 0.3918,0.2265 0.7213,0.5375 0.9876,0.9346 0.2644,0.3963 0.4182,0.8175 0.4564,1.2604 0.039,0.4429 -0.0492,0.9119 -0.2653,1.4061 -0.1368,0.307 -0.5216,1.0196 -1.1553,2.1352 v 0 l -1.6959,2.9383 z m 2.4432,-0.9151 1.9956,1.1527 0.6595,-1.1418 v 0 c 0.3917,-0.6791 0.6252,-1.1065 0.7002,-1.2833 0.1375,-0.3171 0.1708,-0.6111 0.0987,-0.8805 -0.0723,-0.2698 -0.2484,-0.4838 -0.5277,-0.6452 -0.2673,-0.1538 -0.5261,-0.2073 -0.7775,-0.1569 -0.2529,0.0524 -0.4799,0.2134 -0.681,0.4829 -0.1199,0.1612 -0.4166,0.6515 -0.8895,1.4716 v 0 z m 3.4325,1.9818 2.3067,1.3324 0.9303,-1.6118 v 0 c 0.3635,-0.629 0.577,-1.0362 0.6382,-1.2262 0.1036,-0.2856 0.1091,-0.5638 0.0219,-0.831 -0.0886,-0.269 -0.2862,-0.4925 -0.5914,-0.6687 -0.2593,-0.1496 -0.5161,-0.212 -0.7685,-0.1918 -0.2539,0.0223 -0.4908,0.1264 -0.7103,0.3161 -0.2196,0.1895 -0.5575,0.6831 -1.015,1.4748 v 0 z m -52.5658,-57.6503 -3.733,-9.2401 1.8652,-0.7536 3.7333,9.2401 z m 4.3024,-12.0261 3.9542,-0.4854 v 0 c 0.7831,-0.0965 1.3721,-0.1359 1.765,-0.116 0.3923,0.0169 0.7524,0.1111 1.0819,0.2808 0.329,0.1703 0.6137,0.4131 0.8591,0.7337 0.2445,0.3186 0.3933,0.693 0.446,1.1191 0.0568,0.4628 -0.0153,0.9039 -0.2164,1.3215 -0.2036,0.4177 -0.5068,0.7497 -0.909,0.9951 0.6227,0.101 1.1244,0.344 1.4994,0.7257 0.3763,0.3838 0.5982,0.8617 0.6683,1.4326 0.0554,0.4489 0.006,0.8995 -0.1518,1.351 -0.1577,0.4494 -0.4011,0.8257 -0.7316,1.1234 -0.3306,0.2976 -0.7581,0.5093 -1.2827,0.6347 -0.3271,0.0746 -1.1284,0.1966 -2.4009,0.3618 v 0 l -3.3672,0.4137 z m 2.2012,1.4017 0.2808,2.2868 1.3081,-0.1609 v 0 c 0.7786,-0.0955 1.2607,-0.1662 1.4467,-0.2125 0.3361,-0.0811 0.5911,-0.2314 0.7629,-0.4515 0.1718,-0.2194 0.237,-0.4897 0.1976,-0.8098 -0.0378,-0.3061 -0.1514,-0.5446 -0.3427,-0.7153 -0.1939,-0.1702 -0.4593,-0.2543 -0.7957,-0.2529 -0.2011,10e-4 -0.7711,0.0597 -1.7109,0.1747 v 0 z m 0.4831,3.9334 0.3245,2.6437 1.847,-0.2265 v 0 c 0.7211,-0.0886 1.1746,-0.1632 1.3629,-0.2286 0.2907,-0.0896 0.5162,-0.2522 0.677,-0.4828 0.1613,-0.2324 0.221,-0.525 0.1777,-0.875 -0.0363,-0.2971 -0.1408,-0.5385 -0.3092,-0.7288 -0.1701,-0.1896 -0.3962,-0.3156 -0.6796,-0.3768 -0.2834,-0.0611 -0.8809,-0.0343 -1.7881,0.0767 v 0 z m 10.455,3.7726 0.6948,-9.9415 2.007,0.1404 -0.6954,9.9415 z m 6.3879,-2.6885 1.9143,0.4551 v 0 c -0.105,0.661 -0.0358,1.1945 0.2056,1.6043 0.2404,0.407 0.6482,0.7117 1.228,0.9113 0.6118,0.2106 1.1195,0.2405 1.5182,0.0861 0.4007,-0.1513 0.6607,-0.4007 0.78,-0.7475 0.0772,-0.2231 0.0762,-0.4346 -0.001,-0.6363 -0.0748,-0.202 -0.2564,-0.4171 -0.5441,-0.6435 -0.1941,-0.1548 -0.6565,-0.4665 -1.3808,-0.9364 -0.9334,-0.6037 -1.5411,-1.1618 -1.8244,-1.6714 -0.4006,-0.7174 -0.4728,-1.4491 -0.216,-2.1947 0.1653,-0.4805 0.4554,-0.8811 0.8721,-1.2067 0.4151,-0.3236 0.9174,-0.5061 1.5043,-0.5495 0.5884,-0.0403 1.2419,0.0627 1.9666,0.3116 1.1843,0.4076 1.9836,0.9726 2.4048,1.6964 0.4171,0.7257 0.4933,1.5252 0.2261,2.4023 v 0 l -1.9314,-0.572 v 0 c 0.086,-0.5127 0.0303,-0.9219 -0.1648,-1.2245 -0.1946,-0.3051 -0.5591,-0.5486 -1.0951,-0.7332 -0.5526,-0.1902 -1.025,-0.228 -1.4157,-0.1071 -0.2518,0.0757 -0.4202,0.2355 -0.5037,0.4794 -0.0772,0.2235 -0.0488,0.447 0.0856,0.67 0.1698,0.2842 0.681,0.6959 1.5321,1.2316 0.8503,0.5385 1.457,1.0004 1.8204,1.3851 0.3619,0.3874 0.5988,0.8249 0.7118,1.3176 0.1101,0.4919 0.0632,1.0354 -0.1419,1.6298 -0.1856,0.5395 -0.5091,0.995 -0.9717,1.3609 -0.4629,0.3684 -1.0074,0.574 -1.634,0.6128 -0.6278,0.0417 -1.3515,-0.0802 -2.1699,-0.362 -1.1912,-0.4096 -2.0119,-0.9989 -2.4609,-1.7695 -0.4486,-0.7711 -0.5541,-1.7049 -0.3141,-2.8 z"
       style="fill:#1b1918;fill-rule:evenodd"
       id="path14" />
  </g>
</svg>
