<?xml version="1.0" encoding="UTF-8" standalone="no"?>
<svg
   version="1.1"
   width="1.4218612in"
   height="1.4218626in"
   viewBox="0 0 102.374 102.37411"
   id="svg23"
   sodipodi:docname="INTERN~1.cdr"
   xmlns:inkscape="http://www.inkscape.org/namespaces/inkscape"
   xmlns:sodipodi="http://sodipodi.sourceforge.net/DTD/sodipodi-0.dtd"
   xmlns="http://www.w3.org/2000/svg"
   xmlns:svg="http://www.w3.org/2000/svg">
  <defs
     id="defs23" />
  <sodipodi:namedview
     id="namedview23"
     pagecolor="#ffffff"
     bordercolor="#000000"
     borderopacity="0.25"
     inkscape:showpageshadow="2"
     inkscape:pageopacity="0.0"
     inkscape:pagecheckerboard="0"
     inkscape:deskcolor="#d1d1d1"
     inkscape:document-units="in" />
  <g
     id="Layer1003"
     transform="translate(-56.812798,-56.812798)">
    <path
       d="m 107.9998,159.1869 c 28.2696,0 51.187,-22.9177 51.187,-51.1871 0,-28.2692 -22.9174,-51.187 -51.187,-51.187 -28.2694,0 -51.187,22.9178 -51.187,51.187 0,28.2694 22.9176,51.1871 51.187,51.1871 z"
       style="fill:#e41e15;fill-rule:evenodd"
       id="path10" />
    <path
       d="m 107.9998,155.3481 c 26.1493,0 47.3483,-21.199 47.3483,-47.3483 0,-26.1493 -21.199,-47.3483 -47.3483,-47.3483 -26.1491,0 -47.348,21.199 -47.348,47.3483 0,26.1493 21.1989,47.3483 47.348,47.3483 z"
       style="fill:none;stroke:#ffffff;stroke-width:3.6038;stroke-linecap:butt;stroke-linejoin:miter;stroke-dasharray:none"
       id="path11" />
    <path
       d="m 113.8009,141.1386 c 0,3.4533 2.4022,3.6035 2.4022,3.6035 1.6517,0 3.003,-1.2762 3.003,-1.2762 0,5.2552 -4.2791,5.5557 -4.2791,5.5557 -2.4026,0 -3.0783,-1.0511 -3.0783,-1.0511 -1.2765,2.1022 -3.0032,2.6277 -3.0032,2.6277 0,0 -1.8164,-0.5255 -3.0929,-2.6277 0,0 -0.6756,1.0511 -3.0782,1.0511 0,0 -4.2794,-0.3005 -4.2794,-5.5557 0,0 1.3515,1.2762 3.0031,1.2762 0,0 2.4027,-0.1502 2.4027,-3.6035 V 75.4461 c 0,-3.4531 -2.4027,-3.6033 -2.4027,-3.6033 -1.6516,0 -3.0031,1.2765 -3.0031,1.2765 0,-5.2552 4.2794,-5.5561 4.2794,-5.5561 2.4026,0 3.0782,1.0515 3.0782,1.0515 1.2765,-2.1024 3.0929,-2.6278 3.0929,-2.6278 0,0 1.7267,0.5254 3.0032,2.6278 0,0 0.6757,-1.0515 3.0783,-1.0515 0,0 4.2791,0.3009 4.2791,5.5561 0,0 -1.3513,-1.2765 -3.003,-1.2765 0,0 -2.4022,0.1502 -2.4022,3.6033 z"
       style="fill:#ffffff;fill-rule:evenodd"
       id="path12" />
    <path
       d="m 107.5992,130.5029 c 23.2241,-2e-4 32.8335,-12.3125 32.8335,-12.3125 l -3.3033,-2.6027 c -13.8139,9.91 -28.4287,8.4085 -28.4287,8.4085 -23.5241,0 -25.226,-15.4156 -25.226,-15.4156 0,-15.7163 25.226,-16.0167 25.226,-16.0167 19.3198,0 27.8283,10.3109 27.8283,10.3109 h 1.6011 l 0.8012,-0.9011 C 136.4289,97.6693 137.2294,88.56 137.2294,88.56 l -2.8028,-0.9007 -2.7026,3.7035 c -11.8116,-5.6056 -23.0233,-5.5056 -23.0233,-5.5056 -21.522,0 -30.8314,13.1134 -34.1349,17.2174 -3.3034,4.1047 -5.8061,5.3058 -5.8061,5.3058 0,0 2.4027,2.1018 4.805,5.4053 2.4024,3.3033 12.1125,16.7172 34.0345,16.7172 z"
       style="fill:#ffffff;fill-rule:evenodd"
       id="path13" />
    <path
       d="m 107.5992,130.5029 c 23.2241,-2e-4 32.8335,-12.3125 32.8335,-12.3125 l -3.3033,-2.6027 c -13.8139,9.91 -28.4287,8.4085 -28.4287,8.4085 -23.5241,0 -25.226,-15.4156 -25.226,-15.4156 0,-15.7163 25.226,-16.0167 25.226,-16.0167 19.3198,0 27.8283,10.3109 27.8283,10.3109 h 1.6011 l 0.8012,-0.9011 C 136.4289,97.6693 137.2294,88.56 137.2294,88.56 l -2.8028,-0.9007 -2.7026,3.7035 c -11.8116,-5.6056 -23.0233,-5.5056 -23.0233,-5.5056 -21.522,0 -30.8314,13.1134 -34.1349,17.2174 -3.3034,4.1047 -5.8061,5.3058 -5.8061,5.3058 0,0 2.4027,2.1018 4.805,5.4053 2.4024,3.3033 12.1125,16.7172 34.0345,16.7172 z"
       style="fill:none;stroke:#e41e15;stroke-width:3.0031;stroke-linecap:butt;stroke-linejoin:miter;stroke-dasharray:none"
       id="path14" />
    <path
       d="m 107.5992,130.5029 c 23.2241,-2e-4 32.8335,-12.3125 32.8335,-12.3125 l -3.3033,-2.6027 c -13.8139,9.91 -28.4287,8.4085 -28.4287,8.4085 -23.5241,0 -25.226,-15.4156 -25.226,-15.4156 0,-15.7163 25.226,-16.0167 25.226,-16.0167 19.3198,0 27.8283,10.3109 27.8283,10.3109 h 1.6011 l 0.8012,-0.9011 C 136.4289,97.6693 137.2294,88.56 137.2294,88.56 l -2.8028,-0.9007 -2.7026,3.7035 c -11.8116,-5.6056 -23.0233,-5.5056 -23.0233,-5.5056 -21.522,0 -30.8314,13.1134 -34.1349,17.2174 -3.3034,4.1047 -5.8061,5.3058 -5.8061,5.3058 0,0 2.4027,2.1018 4.805,5.4053 2.4024,3.3033 12.1125,16.7172 34.0345,16.7172 z"
       style="fill:#ffffff;fill-rule:evenodd"
       id="path15" />
    <path
       d="m 115.317,104.7265 v 10.7358 c 0,0 8.4083,3.4533 8.4083,9.8351 0,0 0.8263,9.1593 -8.3331,9.1593 v 6.2314 c 0,0 18.2437,-1.1262 18.1687,-17.5679 0,0 2.4024,-12.463 -18.2439,-18.3937 z"
       style="fill:none;stroke:#e41e15;stroke-width:3.0031;stroke-linecap:butt;stroke-linejoin:miter;stroke-dasharray:none"
       id="path16" />
    <path
       d="m 102.149,111.2578 v -11.036 c 0,0 -7.4327,-3.4537 -7.5078,-9.9853 0,0 0.3004,-7.7328 7.5078,-8.1085 v -6.2312 c 0,0 -16.3668,2.8528 -16.3668,16.9675 0,0 -1.8769,13.2135 16.3668,18.3935 z"
       style="fill:none;stroke:#e41e15;stroke-width:3.0031;stroke-linecap:butt;stroke-linejoin:miter;stroke-dasharray:none"
       id="path17" />
    <path
       d="m 115.3772,75.8968 v 6.2312 c 0,0 5.2556,1.727 5.2556,6.9074 0,0 -0.0753,3.0783 -1.8767,6.3814 -1.802,3.3034 0.2998,5.6308 2.1772,5.6308 0,0 2.8528,0.9007 4.1289,-5.5555 1.2759,-6.4567 5.9313,-10.5862 5.9313,-10.5862 v -3.1527 c 0,0 -1.8769,1.2011 -4.3545,0.4506 0,0 -8.7842,-6.307 -11.2618,-6.307 z"
       style="fill:none;stroke:#e41e15;stroke-width:3.0031;stroke-linecap:butt;stroke-linejoin:miter;stroke-dasharray:none"
       id="path18" />
    <path
       d="m 102.194,134.4567 v 6.1563 c 0,0 -6.3817,-1.0511 -17.8683,-9.0091 l -4.2793,-0.3006 -0.8259,-3.2281 c 0,0 4.8499,-0.6578 9.4598,-9.2345 3.2283,-6.0061 6.0062,-5.6305 6.0062,-5.6305 0,0 4.2794,0 4.2794,4.6545 0,0 -0.3755,6.5317 -5.2553,11.2616 0,0 2.5523,4.5046 8.4834,5.3304 z"
       style="fill:none;stroke:#e41e15;stroke-width:3.0031;stroke-linecap:butt;stroke-linejoin:miter;stroke-dasharray:none"
       id="path19" />
    <path
       d="m 115.317,104.7265 v 10.7358 c 0,0 8.4083,3.4533 8.4083,9.8351 0,0 0.8263,9.1593 -8.3331,9.1593 v 6.2314 c 0,0 18.2437,-1.1262 18.1687,-17.5679 0,0 2.4024,-12.463 -18.2439,-18.3937 z"
       style="fill:#ffffff;fill-rule:evenodd"
       id="path20" />
    <path
       d="m 102.149,111.2578 v -11.036 c 0,0 -7.4327,-3.4537 -7.5078,-9.9853 0,0 0.3004,-7.7328 7.5078,-8.1085 v -6.2312 c 0,0 -16.3668,2.8528 -16.3668,16.9675 0,0 -1.8769,13.2135 16.3668,18.3935 z"
       style="fill:#ffffff;fill-rule:evenodd"
       id="path21" />
    <path
       d="m 115.3772,75.8968 v 6.2312 c 0,0 5.2556,1.727 5.2556,6.9074 0,0 -0.0753,3.0783 -1.8767,6.3814 -1.802,3.3034 0.2998,5.6308 2.1772,5.6308 0,0 2.8528,0.9007 4.1289,-5.5555 1.2759,-6.4567 5.9313,-10.5862 5.9313,-10.5862 v -3.1527 c 0,0 -1.8769,1.2011 -4.3545,0.4506 0,0 -8.7842,-6.307 -11.2618,-6.307 z"
       style="fill:#ffffff;fill-rule:evenodd"
       id="path22" />
    <path
       d="m 102.194,134.4567 v 6.1563 c 0,0 -6.3817,-1.0511 -17.8683,-9.0091 l -4.2793,-0.3006 -0.8259,-3.2281 c 0,0 4.8499,-0.6578 9.4598,-9.2345 3.2283,-6.0061 6.0062,-5.6305 6.0062,-5.6305 0,0 4.2794,0 4.2794,4.6545 0,0 -0.3755,6.5317 -5.2553,11.2616 0,0 2.5523,4.5046 8.4834,5.3304 z"
       style="fill:#ffffff;fill-rule:evenodd"
       id="path23" />
  </g>
</svg>
