<?xml version="1.0" encoding="UTF-8" standalone="no"?>
<svg
   version="1.1"
   width="2.0377028in"
   height="1.9090078in"
   viewBox="0 0 146.7146 137.44856"
   id="svg44"
   sodipodi:docname="ipatinga_fc_mg.cdr"
   xmlns:inkscape="http://www.inkscape.org/namespaces/inkscape"
   xmlns:sodipodi="http://sodipodi.sourceforge.net/DTD/sodipodi-0.dtd"
   xmlns="http://www.w3.org/2000/svg"
   xmlns:svg="http://www.w3.org/2000/svg">
  <defs
     id="defs44" />
  <sodipodi:namedview
     id="namedview44"
     pagecolor="#ffffff"
     bordercolor="#000000"
     borderopacity="0.25"
     inkscape:showpageshadow="2"
     inkscape:pageopacity="0.0"
     inkscape:pagecheckerboard="0"
     inkscape:deskcolor="#d1d1d1"
     inkscape:document-units="in" />
  <g
     id="Layer1003"
     transform="matrix(1,0,0,1.0351555,-34.642498,-43.072611)">
    <path
       d="m 48.608,100.9644 c 0,32.7284 26.6262,59.3548 59.3547,59.3548 32.7281,0 59.3546,-26.6264 59.3546,-59.3548 0,-32.7284 -26.6265,-59.3546 -59.3546,-59.3546 -32.7285,0 -59.3547,26.6262 -59.3547,59.3546 z"
       style="fill:#1b1918;fill-rule:evenodd"
       id="path10" />
    <path
       d="m 50.7441,100.9644 c 0,-31.5504 25.6682,-57.2185 57.2186,-57.2185 31.5504,0 57.2183,25.6681 57.2183,57.2185 0,31.5506 -25.6679,57.2183 -57.2183,57.2183 -31.5504,0 -57.2186,-25.6677 -57.2186,-57.2183 z"
       style="fill:#ffffff;fill-rule:evenodd"
       id="path11" />
    <path
       d="M 158.3911,114.8491 V 87.0794 c 0,0 -4.5089,0 -10.3612,0 -0.5502,-1.5872 -1.1911,-3.1318 -1.9181,-4.6276 4.1375,-4.1378 7.3274,-7.3275 7.3274,-7.3275 L 133.8026,55.4875 c 0,0 -3.1899,3.1897 -7.3275,7.3277 -1.4954,-0.7275 -3.0402,-1.3679 -4.6276,-1.9183 0,-5.8525 0,-10.3611 0,-10.3611 H 94.0776 c 0,0 0,4.5086 0,10.3611 -1.5872,0.5504 -3.1318,1.1905 -4.6276,1.9183 -4.1378,-4.138 -7.3274,-7.3277 -7.3274,-7.3277 l -0.7558,0.7553 -18.881,18.8815 c 0,0 3.1896,3.1897 7.3276,7.3275 -0.7277,1.4958 -1.3678,3.0404 -1.9183,4.6276 -5.8525,0 -10.361,0 -10.361,0 v 27.7697 c 0,0 4.5085,0 10.361,0 0.5505,1.5876 1.1908,3.1323 1.9183,4.6279 -4.138,4.1381 -7.3276,7.3275 -7.3276,7.3275 l 19.6368,19.6366 c 0,0 3.1896,-3.1893 7.3274,-7.3274 1.4958,0.7278 3.0404,1.3677 4.6276,1.9181 0,5.8521 0,10.3612 0,10.3612 h 27.7699 c 0,0 0,-4.5091 0,-10.3612 1.5874,-0.5504 3.1315,-1.1903 4.6276,-1.9181 4.1376,4.1381 7.3275,7.3274 7.3275,7.3274 l 19.6366,-19.6366 c 0,0 -3.1899,-3.1899 -7.3274,-7.3275 0.727,-1.4956 1.3679,-3.0403 1.9181,-4.6279 5.8523,0 10.3612,0 10.3612,0 z"
       style="fill:#1b1918;fill-rule:evenodd"
       id="path12" />
    <path
       d="m 37.4008,116.2548 c -0.0891,-0.412 -0.0948,-0.6788 -0.0166,-0.8017 0.0784,-0.1223 0.3134,-0.2259 0.7051,-0.3103 l 2.1876,-0.4746 0.3896,1.7968 c 0.2753,1.2677 0.6922,2.1588 1.2522,2.6714 0.5595,0.514 1.2839,0.6742 2.1735,0.4806 0.9497,-0.2057 1.578,-0.652 1.8851,-1.3379 0.3067,-0.6869 0.3199,-1.6775 0.0388,-2.9735 l -1.2129,-5.5928 0.1272,-0.0121 -0.5087,-5.4122 -1.1959,0.1133 0.0518,0.5523 c 0.0388,0.415 0.0123,0.6788 -0.0803,0.7903 -0.0925,0.1109 -0.3377,0.186 -0.7364,0.2229 l -5.5792,0.5246 c -0.399,0.0364 -0.6535,0.009 -0.7652,-0.0829 -0.1118,-0.0912 -0.1867,-0.3457 -0.226,-0.7612 l -0.0518,-0.5524 -1.1962,0.1127 0.5083,5.4114 1.1969,-0.1117 -0.0566,-0.5994 c -0.0388,-0.4139 -0.0134,-0.6753 0.0765,-0.7845 0.0907,-0.1096 0.3371,-0.1824 0.7406,-0.2203 l 5.5795,-0.5247 c 0.4032,-0.0379 0.6591,-0.0121 0.7685,0.0789 0.1088,0.0909 0.183,0.3426 0.2217,0.7561 l 0.0561,0.5989 1.0093,-0.0944 -1.1158,0.2411 0.1178,0.5427 c 0.0884,0.4085 0.0933,0.6738 0.0152,0.7941 -0.0784,0.1219 -0.3124,0.2255 -0.7027,0.3094 l -5.4781,1.1888 c -0.3916,0.0839 -0.6482,0.0875 -0.7698,0.009 -0.1219,-0.0774 -0.2267,-0.3205 -0.3152,-0.7289 l -0.1178,-0.5423 -1.1745,0.2548 1.1641,5.3688 1.1744,-0.2557 z m 7.0516,-2.4924 0.1902,0.877 c 0.178,0.8204 0.1911,1.4152 0.0402,1.7857 -0.1508,0.3715 -0.4901,0.6141 -1.0201,0.7284 -0.5527,0.1198 -0.982,0.0354 -1.288,-0.2532 -0.3063,-0.2892 -0.5496,-0.8522 -0.7313,-1.6908 l -0.1737,-0.8001 z"
       style="fill:#1b1918;fill-rule:evenodd"
       id="path13" />
    <path
       d="m 41.7235,130.0995 c -0.118,-0.3281 -0.1454,-0.5721 -0.0819,-0.7349 0.0635,-0.1623 0.2745,-0.3872 0.6337,-0.6733 l 6.2808,-5.0555 -0.8541,-2.366 -8.0124,0.1329 c -0.4488,0.0102 -0.7633,-0.0388 -0.9444,-0.1455 -0.1806,-0.1072 -0.3168,-0.2876 -0.4092,-0.5434 l -0.1659,-0.4599 -1.1301,0.4084 1.5028,4.1639 1.1301,-0.4074 -0.213,-0.5919 c -0.1037,-0.2876 -0.1443,-0.4842 -0.1222,-0.5909 0.0223,-0.1071 0.1121,-0.189 0.2699,-0.2456 0.0447,-0.0162 0.1031,-0.0298 0.1759,-0.0404 0.0721,-0.0112 0.174,-0.0178 0.3054,-0.0193 l 1.1289,-0.0197 1.0192,2.8234 -0.8406,0.691 c -0.0906,0.0733 -0.1696,0.1325 -0.237,0.1769 -0.0682,0.044 -0.1245,0.0754 -0.1695,0.0915 -0.1661,0.0602 -0.3001,0.0475 -0.4021,-0.0379 -0.1019,-0.0839 -0.2151,-0.2993 -0.3394,-0.645 l -0.1797,-0.4968 -1.1305,0.4079 1.7864,4.9478 1.1301,-0.4074 z m 4.1404,-7.2628 -2.6148,2.1067 -0.7403,-2.05 z"
       style="fill:#1b1918;fill-rule:evenodd"
       id="path14" />
    <path
       d="m 45.3977,135.1216 5.7788,-3.0417 0.0766,0.1455 c 0.3453,0.6561 0.4083,1.2247 0.1902,1.707 -0.2183,0.4816 -0.7624,0.9517 -1.6319,1.4096 l 0.5953,1.1307 3.4597,-1.8211 -4.4061,-8.3718 -3.4596,1.8217 0.5859,1.114 c 0.8615,-0.4539 1.5552,-0.6338 2.0821,-0.5394 0.5266,0.0931 0.9638,0.4706 1.3122,1.1318 l 0.0764,0.1461 -5.7792,3.0412 c -0.3543,0.1866 -0.6005,0.2583 -0.7394,0.2158 -0.138,-0.0434 -0.3057,-0.2527 -0.5035,-0.6287 L 42.7288,132 l -1.063,0.5595 2.6114,4.9625 1.0633,-0.5601 -0.31,-0.5883 c -0.1954,-0.3715 -0.2716,-0.6257 -0.2284,-0.7647 0.0428,-0.138 0.2411,-0.3003 0.5956,-0.4873 z"
       style="fill:#1b1918;fill-rule:evenodd"
       id="path15" />
    <path
       d="m 62.6512,147.6279 c 0.1448,0.008 0.3571,0.1673 0.6378,0.4797 l 0.2911,0.325 0.8944,-0.8031 -3.0583,-3.4063 -0.8939,0.8037 0.4398,0.4893 c 0.2828,0.3153 0.421,0.5458 0.4133,0.6909 -0.0078,0.1445 -0.1605,0.3508 -0.4583,0.6176 l -3.6483,3.2769 2.4881,-7.7268 -2.8731,-3.199 0.1562,-0.1076 -3.0737,-4.4833 -0.991,0.6803 0.3139,0.4569 c 0.236,0.3447 0.3406,0.5884 0.3137,0.7304 -0.0268,0.1415 -0.2053,0.326 -0.5348,0.5524 l -4.6222,3.1692 c -0.3303,0.2259 -0.5666,0.326 -0.7087,0.2997 -0.1419,-0.0258 -0.3312,-0.2118 -0.5672,-0.556 l -0.314,-0.458 -0.991,0.6799 3.0738,4.4828 0.9908,-0.6793 -0.3401,-0.4959 c -0.2347,-0.3426 -0.3396,-0.5843 -0.3137,-0.7233 0.0257,-0.1389 0.2053,-0.3234 0.54,-0.5529 l 4.6219,-3.1681 c 0.3341,-0.229 0.5704,-0.3306 0.7095,-0.3043 0.1395,0.0257 0.3266,0.2097 0.5618,0.553 l 0.34,0.4963 0.5579,-0.3832 -0.6463,0.5808 0.3263,0.3629 c 0.2819,0.3149 0.419,0.5439 0.4116,0.6885 -0.0075,0.1455 -0.1602,0.3522 -0.4579,0.6201 l -4.1695,3.7429 c -0.2982,0.2684 -0.5194,0.3968 -0.6648,0.3892 -0.1451,-0.009 -0.3583,-0.1694 -0.6402,-0.4827 l -0.3263,-0.3645 -0.894,0.8032 3.0961,3.4477 0.8943,-0.8022 -0.442,-0.4918 c -0.2813,-0.3134 -0.4186,-0.5428 -0.4112,-0.6874 0.0071,-0.1456 0.16,-0.3513 0.4584,-0.6187 l 4.1482,-3.7246 -2.736,8.4546 1.6942,1.8873 5.7395,-5.153 c 0.2977,-0.2668 0.5191,-0.3973 0.6639,-0.3892 z"
       style="fill:#1b1918;fill-rule:evenodd"
       id="path16" />
    <path
       d="m 68.4493,158.2838 c 0.1273,-0.0157 0.2885,0.054 0.4828,0.2072 l 0.4044,0.3195 0.7325,-0.9281 -4.038,-3.1883 -0.7325,0.928 0.6351,0.5014 c 0.2625,0.2077 0.4059,0.3689 0.4293,0.4852 0.024,0.1163 -0.0726,0.3124 -0.2911,0.5889 l -0.4911,0.6217 c -0.2954,0.3745 -0.6333,0.5696 -1.0138,0.5873 -0.3809,0.0177 -0.7844,-0.141 -1.2099,-0.4777 -0.6834,-0.5393 -1.0022,-1.2252 -0.9564,-2.0591 0.0459,-0.834 0.4551,-1.7393 1.2275,-2.7173 0.7576,-0.9599 1.5372,-1.5619 2.34,-1.807 0.8025,-0.2446 1.5309,-0.1092 2.1841,0.4069 0.5976,0.4716 0.919,1.0407 0.9651,1.7084 0.0459,0.6672 -0.1893,1.396 -0.7061,2.1896 l 0.9882,0.7799 2.4938,-3.158 -0.932,-0.737 -0.6967,0.4575 c -0.1622,-0.557 -0.373,-1.0353 -0.6338,-1.436 -0.261,-0.3994 -0.5972,-0.7623 -1.0085,-1.0872 -1.1262,-0.8881 -2.3674,-1.2415 -3.7225,-1.0584 -1.3559,0.1829 -2.4997,0.8648 -3.4319,2.0444 -0.9647,1.2217 -1.3837,2.4924 -1.2571,3.8126 0.1271,1.3198 0.7719,2.4388 1.9354,3.3567 0.4452,0.3518 0.9011,0.6132 1.3682,0.7814 0.4675,0.1699 0.9795,0.2594 1.5365,0.2695 l -0.0763,0.9401 0.8994,0.7096 2.1458,-2.7173 c 0.1594,-0.2011 0.3023,-0.3098 0.4296,-0.3244 z"
       style="fill:#1b1918;fill-rule:evenodd"
       id="path17" />
    <path
       d="m 78.2125,157.1435 -2.1975,-1.2242 -5.9567,5.3597 c -0.332,0.3028 -0.601,0.4727 -0.8082,0.511 -0.2065,0.0374 -0.4285,-0.01 -0.6657,-0.142 l -0.4265,-0.237 -0.5847,1.0488 3.8673,2.1547 0.5848,-1.0493 -0.5496,-0.3058 c -0.2664,-0.1486 -0.4265,-0.2709 -0.4799,-0.3659 -0.0532,-0.0951 -0.0392,-0.2154 0.0424,-0.362 0.0235,-0.0419 0.0588,-0.0904 0.106,-0.1465 0.0474,-0.0551 0.12,-0.127 0.2179,-0.2148 l 0.8386,-0.7557 2.6226,1.4602 -0.1806,1.0741 c -0.0204,0.1142 -0.0415,0.2102 -0.0632,0.2887 -0.0212,0.0778 -0.0441,0.1384 -0.0673,0.1799 -0.0862,0.1541 -0.1953,0.2335 -0.3276,0.236 -0.1327,0.003 -0.3594,-0.0854 -0.6798,-0.2634 l -0.4618,-0.2582 -0.5851,1.0503 4.5957,2.5606 0.585,-1.0503 -0.3374,-0.1881 c -0.3043,-0.1682 -0.4851,-0.3361 -0.5439,-0.4994 -0.0589,-0.1637 -0.0465,-0.4715 0.0358,-0.9244 z m -3.1449,4.4707 -1.9043,-1.0615 2.494,-2.2441 z"
       style="fill:#1b1918;fill-rule:evenodd"
       id="path18" />
    <path
       d="m 85.1062,160.4754 -0.3472,1.1499 0.5313,0.1612 c 0.3999,0.1203 0.6342,0.2441 0.702,0.372 0.0678,0.1274 0.0443,0.3831 -0.0716,0.7668 l -1.6218,5.3704 c -0.1148,0.38 -0.2357,0.6044 -0.3629,0.6722 -0.1268,0.0677 -0.3905,0.042 -0.7898,-0.0794 l -0.5317,-0.1602 -0.3475,1.1499 5.2406,1.5826 0.3472,-1.1504 -0.6326,-0.1911 c -0.4083,-0.1234 -0.6459,-0.2472 -0.7126,-0.3745 -0.0672,-0.1259 -0.0432,-0.3801 0.0717,-0.7602 l 0.6935,-2.2958 0.4333,0.1305 c 0.3899,0.1172 0.6321,0.2971 0.7273,0.5367 0.0947,0.2406 0.0682,0.6071 -0.0808,1.1009 l -0.1303,0.4306 1.1322,0.3422 1.3562,-4.4914 -1.1322,-0.3427 c -0.2231,0.6748 -0.4297,1.0797 -0.6186,1.2166 -0.1889,0.1365 -0.4879,0.1436 -0.8953,0.0203 l -0.4199,-0.1264 0.8324,-2.7577 1.3208,0.3993 c 1.0366,0.3124 1.6537,0.6914 1.851,1.1337 0.1976,0.4428 0.1603,1.2226 -0.1124,2.3392 l 1.1503,0.3482 1.1636,-3.8535 z"
       style="fill:#1b1918;fill-rule:evenodd"
       id="path19" />
    <path
       d="m 122.7452,168.7309 c 0.1149,1.1686 0.0333,1.9722 -0.2431,2.4114 -0.2773,0.4393 -0.9531,0.7491 -2.0284,0.9296 l -1.7582,0.2956 -0.5472,-3.254 0.5388,-0.09 c 0.4863,-0.0824 0.8421,-0.0394 1.0675,0.1274 0.2247,0.1668 0.3797,0.5024 0.4648,1.0078 l 0.0758,0.4514 1.1848,-0.1996 -0.7784,-4.6279 -1.1855,0.1997 c 0.1044,0.6777 0.0902,1.1291 -0.0458,1.352 -0.1347,0.2229 -0.465,0.3786 -0.9888,0.4665 l -0.5394,0.0905 -0.4774,-2.8406 1.9139,-0.3209 c 1.0418,-0.1754 1.7473,-0.1184 2.1181,0.1708 0.3714,0.2896 0.676,0.9462 0.9156,1.9682 l 1.2034,-0.2027 -0.633,-3.7616 -9.3136,1.5665 v -0.0177 l -9.4585,0.145 3e-4,0.0324 -4.1794,-0.5788 -0.1647,1.1903 0.6124,0.0845 c 0.3844,0.0535 0.6168,0.1374 0.6976,0.2517 0.0808,0.1157 0.0942,0.3705 0.0394,0.7662 l -0.6321,4.5642 c -0.1005,0.7218 -0.3242,1.2015 -0.6715,1.4391 -0.3477,0.238 -0.8982,0.3043 -1.6522,0.2006 -0.6267,-0.0874 -1.0552,-0.3038 -1.2858,-0.651 -0.2304,-0.3462 -0.2944,-0.8881 -0.1926,-1.6235 l 0.6178,-4.458 c 0.0546,-0.3958 0.1389,-0.6374 0.2524,-0.7259 0.1139,-0.0875 0.3818,-0.1026 0.8043,-0.0434 l 0.6547,0.0904 0.165,-1.1903 -5.3846,-0.7455 -0.1648,1.1903 0.4842,0.0662 c 0.4176,0.0586 0.6707,0.145 0.7585,0.2613 0.0879,0.1153 0.1048,0.371 0.0498,0.7668 l -0.6398,4.6203 c -0.1481,1.0675 0.0652,1.9343 0.6398,2.5985 0.5745,0.6636 1.4641,1.0801 2.6684,1.2464 1.3372,0.185 2.3866,0.0374 3.1488,-0.4443 0.7623,-0.4811 1.2212,-1.2869 1.3777,-2.415 l 0.6265,-4.5222 c 0.0548,-0.3958 0.1364,-0.638 0.2455,-0.7269 0.1084,-0.0879 0.3526,-0.1056 0.7323,-0.0535 l 0.4111,0.0576 0.0409,2.6617 1.2588,-0.0198 c -0.015,-0.9734 0.1382,-1.6729 0.4602,-2.1011 0.3212,-0.4271 0.8552,-0.647 1.6027,-0.6586 l 0.1645,-0.002 0.1,6.5299 c 0.007,0.4002 -0.0404,0.6524 -0.1422,0.7571 -0.1009,0.1036 -0.3632,0.1583 -0.7875,0.1648 l -0.658,0.0101 0.0178,1.2015 5.6074,-0.0855 -0.0189,-1.2019 -0.6652,0.0101 c -0.4197,0.006 -0.6808,-0.0405 -0.7849,-0.141 -0.1044,-0.1011 -0.1592,-0.3519 -0.1653,-0.7522 l -0.1001,-6.5293 0.1645,-0.004 c 0.7403,-0.0112 1.276,0.1895 1.6076,0.6025 0.3307,0.4129 0.5046,1.1104 0.5196,2.093 l 1.278,-0.0197 -0.0412,-2.6758 0.4862,-0.0824 c 0.4125,-0.0693 0.6771,-0.0622 0.7946,0.0227 0.118,0.0839 0.2097,0.3235 0.276,0.7183 l 0.931,5.5326 c 0.0662,0.3917 0.0571,0.6454 -0.0268,0.7632 -0.0834,0.1172 -0.3316,0.2103 -0.7433,0.2795 l -0.5471,0.092 0.1984,1.1853 9.5554,-1.6078 -0.6836,-4.0624 z"
       style="fill:#1b1918;fill-rule:evenodd"
       id="path20" />
    <path
       d="m 133.8867,165.0861 c -0.5281,-0.2795 -1.1837,-0.3554 -1.9674,-0.228 0.559,-0.3791 0.9368,-0.8051 1.1325,-1.2782 0.1971,-0.4732 0.2062,-0.9741 0.028,-1.5022 -0.2631,-0.7809 -0.7248,-1.2581 -1.3842,-1.4305 -0.6596,-0.1713 -1.5883,-0.0566 -2.7863,0.3473 l -5.4752,1.8459 0.3847,1.1382 0.5248,-0.1774 c 0.3971,-0.1329 0.6594,-0.1678 0.7888,-0.1031 0.1287,0.0647 0.2581,0.2861 0.3861,0.6657 l 1.7886,5.3092 c 0.1276,0.3791 0.1597,0.6349 0.096,0.7643 -0.0637,0.1294 -0.2939,0.2613 -0.6889,0.3942 l -0.5269,0.1784 0.3844,1.1383 5.3327,-1.7974 c 1.4225,-0.4796 2.3711,-1.02 2.8459,-1.6195 0.4739,-0.6009 0.5608,-1.3475 0.2588,-2.2421 -0.2201,-0.6546 -0.5949,-1.1226 -1.1224,-1.4031 z m -6.381,-2.3503 0.8057,-0.271 c 0.7397,-0.2507 1.2899,-0.321 1.647,-0.2123 0.3586,0.1077 0.6209,0.4079 0.7867,0.8993 0.177,0.5245 0.1497,0.9441 -0.0806,1.2616 -0.2305,0.3148 -0.7265,0.6025 -1.49,0.8597 l -0.7314,0.2461 z m 4.9398,5.7757 c -0.2576,0.3599 -0.8214,0.6859 -1.691,0.9785 l -0.8737,0.2952 -1.0604,-3.1454 0.8471,-0.285 c 0.879,-0.2962 1.53,-0.3863 1.9531,-0.2684 0.4233,0.1172 0.7296,0.4534 0.9174,1.0098 0.1961,0.5848 0.1663,1.0564 -0.0925,1.4153 z"
       style="fill:#1b1918;fill-rule:evenodd"
       id="path21" />
    <path
       d="m 141.8025,156.2453 c -1.3303,-0.3695 -2.7155,-0.1703 -4.1537,0.5964 -1.4471,0.7723 -2.3887,1.8151 -2.8239,3.1267 -0.4357,1.3116 -0.2866,2.6531 0.4453,4.0259 0.73,1.3688 1.763,2.2402 3.0981,2.6147 1.3351,0.3755 2.7226,0.1779 4.1613,-0.5889 1.4388,-0.7683 2.3751,-1.812 2.809,-3.1302 0.4353,-1.3197 0.2874,-2.6632 -0.4432,-4.032 -0.7319,-1.3718 -1.7643,-2.2431 -3.0929,-2.6126 z m 1.3918,6.7755 c -0.0947,0.833 -0.5108,1.4466 -1.25,1.8414 -0.7556,0.4033 -1.508,0.416 -2.257,0.0379 -0.7486,-0.3781 -1.4133,-1.111 -1.9938,-2.1988 -0.5739,-1.075 -0.8117,-2.0293 -0.7147,-2.8623 0.0978,-0.8314 0.5138,-1.444 1.2487,-1.8358 0.76,-0.4064 1.5129,-0.42 2.2584,-0.0424 0.7458,0.3765 1.4079,1.1064 1.9859,2.1901 0.5764,1.0801 0.8165,2.0364 0.7225,2.8699 z"
       style="fill:#1b1918;fill-rule:evenodd"
       id="path22" />
    <path
       d="m 152.3629,154.1952 c 0.6634,0.9851 0.9815,1.7256 0.9537,2.2245 -0.0275,0.4978 -0.4387,1.0482 -1.2338,1.6512 l -1.2535,0.9513 -3.9366,-5.1884 c -0.2414,-0.3184 -0.3528,-0.5499 -0.3321,-0.6935 0.0202,-0.1435 0.1984,-0.3432 0.534,-0.5969 l 0.5269,-0.4003 -0.7266,-0.9579 -4.3759,3.3214 0.7266,0.9573 0.4428,-0.3356 c 0.3321,-0.2523 0.5704,-0.369 0.7129,-0.3493 0.143,0.0202 0.3349,0.1886 0.5767,0.5069 l 3.3868,4.4637 c 0.2431,0.3199 0.3553,0.5514 0.3356,0.695 -0.0192,0.144 -0.1956,0.3412 -0.5282,0.5934 l -0.4422,0.3366 0.7266,0.9568 7.3686,-5.5923 -2.4896,-3.2813 z"
       style="fill:#1b1918;fill-rule:evenodd"
       id="path23" />
    <path
       d="m 162.9437,143.7941 -0.8507,0.9543 c 0.6067,0.649 0.9459,1.3035 1.0162,1.9647 0.071,0.6595 -0.1339,1.2611 -0.6169,1.8024 -0.581,0.652 -1.2861,0.931 -2.1158,0.8365 -0.8302,-0.094 -1.7107,-0.556 -2.6405,-1.385 -0.9131,-0.8122 -1.4673,-1.627 -1.6634,-2.4448 -0.1966,-0.8168 -0.0172,-1.5366 0.5383,-2.1602 0.5077,-0.5702 1.0953,-0.8583 1.7623,-0.8643 0.6677,-0.005 1.3763,0.2709 2.1254,0.8298 l 0.8501,-0.9543 -2.991,-2.6636 -0.7928,0.889 0.4142,0.7244 c -0.5661,0.1284 -1.0571,0.3118 -1.4721,0.5488 -0.4147,0.2382 -0.7973,0.5525 -1.1465,0.9442 -0.9561,1.0731 -1.3842,2.2917 -1.2829,3.658 0.1009,1.3652 0.7135,2.5484 1.8366,3.5487 1.1729,1.0448 2.4357,1.5229 3.7883,1.4329 1.3528,-0.0899 2.5694,-0.7419 3.6488,-1.9545 0.8391,-0.9411 1.2224,-1.908 1.1504,-2.8992 -0.0728,-0.9917 -0.5913,-1.9273 -1.558,-2.8078 z"
       style="fill:#1b1918;fill-rule:evenodd"
       id="path24" />
    <path
       d="m 167.7368,136.0941 c 0.9548,0.7056 1.5027,1.298 1.6432,1.7762 0.1408,0.4786 -0.0624,1.1347 -0.6098,1.9692 l -0.8628,1.3162 -5.4467,-3.5715 c -0.3336,-0.2194 -0.5156,-0.3998 -0.5441,-0.5424 -0.0291,-0.1425 0.0723,-0.3891 0.3027,-0.742 l 0.3625,-0.5524 -1.0049,-0.6586 -3.0117,4.593 1.0043,0.6586 0.3041,-0.4645 c 0.2292,-0.3493 0.4141,-0.5383 0.5559,-0.5676 0.1413,-0.0288 0.3797,0.0656 0.713,0.2851 l 4.6857,3.073 c 0.3364,0.2199 0.5187,0.4009 0.5484,0.5424 0.0299,0.1415 -0.0689,0.3866 -0.2985,0.7364 l -0.3047,0.464 1.0051,0.6591 5.0727,-7.7358 -3.4449,-2.2594 z"
       style="fill:#1b1918;fill-rule:evenodd"
       id="path25" />
    <path
       d="m 177.2738,115.8686 c -0.6646,-0.1905 -1.2623,-0.1481 -1.7928,0.1264 -0.5305,0.276 -0.9656,0.7718 -1.3048,1.4896 0.005,-0.6748 -0.1311,-1.2277 -0.4081,-1.6589 -0.2786,-0.4312 -0.6849,-0.7228 -1.2214,-0.877 -0.7921,-0.2274 -1.4464,-0.1183 -1.9627,0.326 -0.5168,0.4448 -0.9495,1.2748 -1.298,2.4899 l -1.5878,5.5316 -1.7726,3.7777 1.0876,0.511 0.2624,-0.5595 c 0.1645,-0.3513 0.3139,-0.549 0.4476,-0.5919 0.1339,-0.0424 0.3809,0.0197 0.7432,0.1905 l 4.1702,1.9571 c 0.6599,0.3099 1.0521,0.6657 1.1762,1.0681 0.1238,0.4023 0.0243,0.9482 -0.2987,1.6366 -0.2689,0.5732 -0.6026,0.9179 -1.0031,1.0346 -0.3993,0.1178 -0.9346,0.0188 -1.6081,-0.2972 l -4.0731,-1.9115 c -0.3624,-0.1699 -0.5681,-0.3225 -0.6181,-0.457 -0.0501,-0.1339 0.0154,-0.3952 0.1966,-0.7809 l 0.2807,-0.5985 -1.0877,-0.51 -2.3096,4.9206 1.0881,0.5105 0.2071,-0.4428 c 0.1794,-0.3811 0.3366,-0.5975 0.4738,-0.647 0.1365,-0.05 0.3857,0.0102 0.7481,0.18 l 4.2227,1.9818 c 0.975,0.4575 1.8649,0.5115 2.6703,0.1593 0.8045,-0.3519 1.4656,-1.0782 1.9824,-2.1785 0.5732,-1.2217 0.7425,-2.2674 0.5095,-3.1383 -0.2336,-0.8715 -0.8666,-1.5483 -1.8982,-2.033 l -4.1323,-1.9388 c -0.3625,-0.1704 -0.5694,-0.3195 -0.6212,-0.4499 -0.0523,-0.1299 0.004,-0.369 0.1658,-0.7157 l 0.2014,-0.4281 -0.0286,-0.0137 0.1191,-0.416 c 0.1157,-0.4013 0.236,-0.6368 0.3631,-0.7071 0.1264,-0.0687 0.3819,-0.0495 0.7665,0.0616 l 5.3864,1.5447 c 0.3844,0.1112 0.6121,0.2295 0.6829,0.3559 0.0704,0.1263 0.0476,0.3907 -0.0673,0.7915 l -0.1527,0.5343 1.1545,0.3305 1.5527,-5.4083 c 0.4137,-1.443 0.5085,-2.5308 0.2849,-3.2621 -0.224,-0.732 -0.7891,-1.2278 -1.6969,-1.4881 z m -4.3175,4.1093 -0.2127,0.7415 -2.8235,-0.8097 0.2348,-0.8178 c 0.215,-0.7511 0.4698,-1.243 0.7622,-1.4759 0.2921,-0.2335 0.6884,-0.278 1.1873,-0.135 0.5312,0.1526 0.862,0.4135 0.9911,0.7825 0.1294,0.3694 0.083,0.9406 -0.1392,1.7144 z m 4.3676,1.0983 -0.2533,0.8856 -3.1906,-0.9154 0.2462,-0.8597 c 0.2562,-0.8912 0.5525,-1.4774 0.8893,-1.759 0.3367,-0.2815 0.788,-0.3417 1.3536,-0.1794 0.5919,0.1693 0.9626,0.4635 1.1109,0.8795 0.1497,0.4164 0.0971,1.0654 -0.1561,1.9484 z"
       style="fill:#1b1918;fill-rule:evenodd"
       id="path26" />
    <path
       d="m 177.2678,104.9734 -0.1484,1.211 c 1.1527,0.2229 1.9003,0.5297 2.2422,0.9209 0.3422,0.3897 0.4466,1.1265 0.3141,2.2082 l -0.2168,1.77 -3.2753,-0.4023 0.0662,-0.5424 c 0.0609,-0.4892 0.2027,-0.8183 0.4261,-0.986 0.2249,-0.1684 0.5901,-0.2214 1.0998,-0.1588 l 0.4529,0.0556 0.1461,-1.1927 -4.6567,-0.5717 -0.1468,1.1933 c 0.6796,0.093 1.1075,0.236 1.282,0.4291 0.1767,0.1926 0.2313,0.5525 0.1663,1.0811 l -0.0666,0.5424 -2.8586,-0.3507 0.2368,-1.9258 c 0.1286,-1.0492 0.3849,-1.7104 0.7675,-1.9833 0.3834,-0.2729 1.0991,-0.3783 2.1469,-0.3164 l 0.1486,-1.2117 -3.786,-0.4643 -1.1803,9.6169 1.1934,0.1462 0.068,-0.551 c 0.0505,-0.4149 0.1329,-0.6662 0.2471,-0.7546 0.1132,-0.0895 0.3698,-0.1092 0.7673,-0.0607 l 5.568,0.6834 c 0.3945,0.0485 0.6366,0.1294 0.7248,0.2426 0.0887,0.1147 0.1067,0.3786 0.0566,0.793 l -0.068,0.55 1.1931,0.147 1.179,-9.6172 z"
       style="fill:#1b1918;fill-rule:evenodd"
       id="path27" />
    <path
       d="m 107.9627,60.6826 c -22.2116,0 -40.2819,18.0704 -40.2819,40.2818 0,22.2115 18.0703,40.2818 40.2819,40.2818 22.2113,0 40.2818,-18.0703 40.2818,-40.2818 0,-22.2114 -18.0705,-40.2818 -40.2818,-40.2818 z m 0,74.9182 c -19.0985,0 -34.6363,-15.5379 -34.6363,-34.6364 0,-19.0984 15.5378,-34.6362 34.6363,-34.6362 19.0983,0 34.6362,15.5378 34.6362,34.6362 0,19.0985 -15.5379,34.6364 -34.6362,34.6364 z"
       style="fill:#004394;fill-rule:evenodd"
       id="path28" />
    <path
       d="m 67.2126,89.2156 c -4.0246,0 -6.9935,0 -7.5424,0 0,1.8765 0,21.6213 0,23.4975 0.5489,0 3.5178,0 7.5424,0 -1.0782,-3.7332 -1.668,-7.6725 -1.668,-11.7487 0,-4.0763 0.5898,-8.0151 1.668,-11.7488 z"
       style="fill:#db0016;fill-rule:evenodd"
       id="path29" />
    <path
       d="m 148.7123,112.7131 c 4.0249,0 6.9938,0 7.5428,0 0,-1.8762 0,-21.621 0,-23.4975 -0.549,0 -3.5179,0 -7.5428,0 1.0781,3.7337 1.6682,7.6725 1.6682,11.7488 0,4.0762 -0.5901,8.0155 -1.6682,11.7487 z"
       style="fill:#db0016;fill-rule:evenodd"
       id="path30" />
    <path
       d="m 119.7115,60.2144 c 0,-4.0246 0,-6.9935 0,-7.5424 -1.8762,0 -21.6211,0 -23.4977,0 0,0.5489 0,3.5178 0,7.5424 3.7338,-1.0783 7.6726,-1.668 11.7489,-1.668 4.0762,0 8.0145,0.5897 11.7488,1.668 z"
       style="fill:#db0016;fill-rule:evenodd"
       id="path31" />
    <path
       d="m 96.2138,141.7142 c 0,4.0248 0,6.9939 0,7.5428 1.8766,0 21.6215,0 23.4977,0 0,-0.5489 0,-3.518 0,-7.5428 -3.7343,1.0781 -7.6726,1.6679 -11.7488,1.6679 -4.0763,0 -8.0151,-0.5898 -11.7489,-1.6679 z"
       style="fill:#db0016;fill-rule:evenodd"
       id="path32" />
    <path
       d="m 138.2556,89.2156 c -9.2338,0 -18.5441,0 -18.5441,0 0,0 0,-9.3109 0,-18.5445 -3.6466,-1.4194 -7.6065,-2.2068 -11.7488,-2.2068 -4.1424,0 -8.1025,0.7874 -11.7489,2.2068 0,9.2336 0,18.5445 0,18.5445 0,0 -9.3109,0 -18.5445,0 -1.4194,3.6464 -2.2068,7.6065 -2.2068,11.7488 0,4.1423 0.7874,8.1025 2.2068,11.7487 9.2336,0 18.5445,0 18.5445,0 0,0 0,9.3108 0,18.5449 3.6464,1.4193 7.6065,2.2063 11.7489,2.2063 4.1423,0 8.1022,-0.787 11.7488,-2.2063 0,-9.2341 0,-18.5449 0,-18.5449 0,0 9.3103,0 18.5441,0 1.4198,-3.6462 2.207,-7.6064 2.207,-11.7487 0,-4.1423 -0.7872,-8.1024 -2.207,-11.7488 z"
       style="fill:#db0016;fill-rule:evenodd"
       id="path33" />
    <path
       d="m 87.46,63.8463 c -2.8458,-2.8457 -4.9495,-4.9494 -5.3374,-5.3374 -1.3268,1.3268 -15.2888,15.2886 -16.6155,16.6154 0.388,0.3879 2.4916,2.4916 5.3374,5.3375 3.8676,-6.9739 9.6417,-12.748 16.6155,-16.6155 z"
       style="fill:#00732c;fill-rule:evenodd"
       id="path34" />
    <path
       d="m 94.0776,71.5868 c -6.7802,3.2175 -12.2752,8.7125 -15.4926,15.4926 7.6337,0 14.6198,0 15.4926,0 0,-0.8729 0,-7.8589 0,-15.4926 z"
       style="fill:#00732c;fill-rule:evenodd"
       id="path35" />
    <path
       d="m 145.0801,80.4618 c 2.8459,-2.8459 4.9494,-4.9496 5.338,-5.3375 -1.3267,-1.3268 -15.2887,-15.2886 -16.6155,-16.6154 -0.3879,0.388 -2.4919,2.4917 -5.3373,5.3374 6.9734,3.8675 12.7471,9.6413 16.6148,16.6155 z"
       style="fill:#00732c;fill-rule:evenodd"
       id="path36" />
    <path
       d="m 137.34,87.0794 c -3.2172,-6.7801 -8.7127,-12.2751 -15.4925,-15.4926 0,7.6337 0,14.6197 0,15.4926 0.8727,0 7.8592,0 15.4925,0 z"
       style="fill:#00732c;fill-rule:evenodd"
       id="path37" />
    <path
       d="m 70.8445,121.467 c -2.8458,2.8456 -4.9494,4.9493 -5.3374,5.3375 1.3267,1.3268 15.2887,15.2887 16.6155,16.6156 0.3879,-0.3882 2.4916,-2.4924 5.3374,-5.3375 -6.9738,-3.8677 -12.7479,-9.6415 -16.6155,-16.6156 z"
       style="fill:#00732c;fill-rule:evenodd"
       id="path38" />
    <path
       d="m 78.585,114.8491 c 3.2174,6.7806 8.7124,12.2753 15.4926,15.493 0,-7.6337 0,-14.62 0,-15.493 -0.8728,0 -7.8589,0 -15.4926,0 z"
       style="fill:#00732c;fill-rule:evenodd"
       id="path39" />
    <path
       d="m 128.4653,138.0826 c 2.8454,2.8451 4.9494,4.9493 5.3373,5.3375 1.3268,-1.3269 15.2888,-15.2888 16.6155,-16.6156 -0.3886,-0.3882 -2.4921,-2.4914 -5.338,-5.3375 -3.8677,6.9741 -9.6414,12.7479 -16.6148,16.6156 z"
       style="fill:#00732c;fill-rule:evenodd"
       id="path40" />
    <path
       d="m 121.8475,130.3421 c 6.7798,-3.2177 12.2753,-8.7124 15.4925,-15.493 -7.6333,0 -14.6198,0 -15.4925,0 0,0.873 0,7.8593 0,15.493 z"
       style="fill:#00732c;fill-rule:evenodd"
       id="path41" />
    <path
       d="m 83.9627,109.6041 v -1.9833 h 1.1593 c 0.7987,0 1.2952,-0.0902 1.4883,-0.2706 0.1931,-0.1807 0.2896,-0.6234 0.2896,-1.3291 V 95.8314 c 0,-0.7051 -0.0965,-1.1479 -0.2896,-1.3285 -0.1931,-0.1807 -0.6896,-0.2711 -1.4883,-0.2711 h -1.1593 v -1.9455 h 9.8035 v 1.9455 h -1.1689 c -0.8148,0 -1.3196,0.0904 -1.5144,0.2711 -0.1949,0.1806 -0.292,0.6234 -0.292,1.3285 v 10.1897 c 0,0.7057 0.0971,1.1484 0.292,1.3291 0.1948,0.1804 0.6996,0.2706 1.5144,0.2706 h 1.1689 v 1.9833 z"
       style="fill:#ffffff;fill-rule:evenodd"
       id="path42" />
    <path
       d="m 95.8856,109.6041 v -1.9833 h 1.0645 c 0.8071,0 1.3083,-0.0889 1.5038,-0.2676 0.1949,-0.1789 0.2927,-0.6168 0.2927,-1.3154 V 95.8559 c 0,-0.7159 -0.0978,-1.1654 -0.2927,-1.3488 -0.1955,-0.1836 -0.6967,-0.2753 -1.5038,-0.2753 h -1.0645 v -1.9455 h 16.8987 v 7.1714 h -2.0978 c 0,-0.9 -0.0622,-1.6684 -0.1847,-2.3037 -0.1229,-0.6353 -0.3124,-1.176 -0.5664,-1.6223 -0.2633,-0.4626 -0.6937,-0.7946 -1.2909,-0.9967 -0.5972,-0.202 -1.4974,-0.3032 -2.7001,-0.3032 h -3.3833 v 5.3402 h 0.4643 c 1.136,0 1.88,-0.1858 2.2321,-0.5589 0.3521,-0.3725 0.5725,-1.2291 0.6607,-2.569 l 2.0599,-0.0125 v 8.6716 l -2.0599,-0.0126 c -0.0798,-1.4895 -0.298,-2.4509 -0.6541,-2.8846 -0.357,-0.4334 -1.0943,-0.6503 -2.2125,-0.6503 h -0.4905 v 4.4821 c 0,0.6902 0.0989,1.1264 0.298,1.3088 0.1991,0.1831 0.7051,0.2742 1.5187,0.2742 h 1.2735 v 1.9833 z"
       style="fill:#ffffff;fill-rule:evenodd"
       id="path43" />
    <path
       d="m 129.6351,102.9289 h 2.3272 c -0.1767,2.2982 -0.918,4.0743 -2.2268,5.3282 -1.3078,1.254 -3.0769,1.8813 -5.3046,1.8813 -1.3304,0 -2.5334,-0.1976 -3.6072,-0.5919 -1.0753,-0.3948 -2.0349,-0.9992 -2.8813,-1.815 -0.9333,-0.8819 -1.6402,-1.9007 -2.1206,-3.0555 -0.4804,-1.1553 -0.72,-2.3968 -0.72,-3.7241 0,-1.3358 0.2335,-2.5599 0.7008,-3.6733 0.4663,-1.1133 1.1706,-2.1194 2.1135,-3.0183 0.8547,-0.8148 1.8095,-1.4299 2.8669,-1.8459 1.0574,-0.4159 2.1934,-0.624 3.4092,-0.624 0.9692,0 1.8824,0.1442 2.7418,0.4314 0.8583,0.2874 1.7011,0.7308 2.5296,1.3304 l 0.534,-1.5329 h 1.9647 v 7.0951 h -2.0981 c -0.2111,-1.6618 -0.7679,-2.948 -1.6691,-3.8594 -0.9022,-0.9106 -2.0657,-1.3665 -3.49,-1.3665 -1.663,0 -2.9673,0.6353 -3.9125,1.9059 -0.9454,1.2708 -1.4186,3.0298 -1.4186,5.2761 0,2.1379 0.4709,3.7894 1.4138,4.9547 0.9417,1.1658 2.2662,1.7481 3.9744,1.7481 1.329,0 2.4079,-0.413 3.2351,-1.2392 0.8274,-0.8261 1.3732,-2.028 1.6378,-3.6052 z"
       style="fill:#ffffff;fill-rule:evenodd"
       id="path44" />
  </g>
</svg>
