<?xml version="1.0" encoding="UTF-8" standalone="no"?>
<svg
   version="1.1"
   width="3in"
   height="3in"
   viewBox="0 0 216 216"
   id="svg16"
   sodipodi:docname="itabuna_ec_ba.cdr"
   xmlns:inkscape="http://www.inkscape.org/namespaces/inkscape"
   xmlns:sodipodi="http://sodipodi.sourceforge.net/DTD/sodipodi-0.dtd"
   xmlns="http://www.w3.org/2000/svg"
   xmlns:svg="http://www.w3.org/2000/svg">
  <defs
     id="defs16" />
  <sodipodi:namedview
     id="namedview16"
     pagecolor="#ffffff"
     bordercolor="#000000"
     borderopacity="0.25"
     inkscape:showpageshadow="2"
     inkscape:pageopacity="0.0"
     inkscape:pagecheckerboard="0"
     inkscape:deskcolor="#d1d1d1"
     inkscape:document-units="in" />
  <g
     id="Layer1003">
    <path
       d="M 107.9999,30.7729 C 93.0724,45.8966 74.8102,52.056 54.2725,46.7793 l -8.2387,9.847 c 9.9256,16.4773 7.8267,31.091 -6.12,46.6855 12.6717,38.5254 34.151,62.9467 68.0861,81.9153 33.935,-18.9686 55.4142,-43.3899 68.0862,-81.9153 C 162.1393,87.7173 160.0403,73.1036 169.966,56.6263 l -8.2388,-9.847 C 141.1898,52.056 122.9275,45.8966 107.9999,30.7729 Z"
       style="fill:#0000ff;fill-rule:evenodd"
       id="path10" />
    <path
       d="m 166.2977,56.9599 -5.708,-6.8263 C 140.817,54.8805 122.1819,48.5446 107.9999,34.9707 93.8177,48.5446 75.1828,54.8805 55.4102,50.1336 l -5.7083,6.8263 c 9.1213,15.8886 7.1009,31.6598 -6.3554,47.0189 11.2986,34.406 32.6797,59.9457 64.6534,77.7566 31.9733,-17.8109 53.3548,-43.3506 64.6532,-77.7566 -13.4563,-15.3591 -15.4768,-31.1303 -6.3554,-47.0189 z"
       style="fill:#ffffff;fill-rule:evenodd"
       id="path11" />
    <path
       d="m 57.3325,55.6848 -1.5889,1.9028 c 8.219,16.6734 4.9825,33.0132 -6.689,47.4307 10.1218,29.4041 28.6587,52.2367 54.9241,68.4983 v -14.6531 h -6.8066 v -8.0619 h 6.8066 v -12.8291 c -21.185,-1.4121 -32.9348,-15.1432 -32.9348,-29.3842 0,-14.2212 11.7498,-27.9718 32.9348,-29.3646 V 68.3762 h -6.8066 v -8.062 h 6.8066 V 44.8962 C 90.5615,54.606 73.9862,58.9018 57.3325,55.6848 Z"
       style="fill:#0000ff;fill-rule:evenodd"
       id="path12" />
    <path
       d="m 83.441,108.5883 c 0,8.2387 6.3947,18.7331 20.5377,20.2827 v -5.5317 c -4.1587,-0.1567 -8.2976,-0.51 -12.103,-0.9806 V 94.8378 c 3.8054,-0.4707 7.9443,-0.8238 12.103,-1.0004 v -5.512 C 89.8357,89.8553 83.441,100.3498 83.441,108.5883 Z"
       style="fill:#0000ff;fill-rule:evenodd"
       id="path13" />
    <path
       d="m 101.311,117.2389 c 0.8631,0.039 1.7458,0.0982 2.6677,0.1569 v -5.8063 h -2.6677 z"
       style="fill:#0000ff;fill-rule:evenodd"
       id="path14" />
    <path
       d="m 101.311,105.5872 h 2.6677 v -5.7866 c -0.9219,0.0588 -1.8046,0.1177 -2.6677,0.157 z"
       style="fill:#0000ff;fill-rule:evenodd"
       id="path15" />
    <path
       d="m 160.256,57.5876 -1.5889,-1.9028 c -16.6536,3.217 -33.2288,-1.0788 -46.646,-10.7886 v 15.418 h 6.8066 v 8.062 h -6.8066 v 11.0044 c 3.4719,0.4118 7.1792,1.1574 10.3177,1.9224 1.8831,0.4708 8.0426,-2.5501 10.3572,-4.3547 4.178,8.7487 6.0808,13.9076 7.3559,23.8331 h -3.6094 c -4.276,-8.984 -13.1422,-11.9853 -24.4214,-12.554 v 5.5316 c 10.1608,0.2354 18.9683,1.8635 21.1063,5.8651 v 3.2954 h -2.393 c -3.5898,-3.1974 -11.1807,-3.6878 -18.7133,-3.4915 v 6.1592 h 13.5741 c 2.1184,0 2.1184,6.0023 0,6.0023 h -13.5741 v 6.1791 c 7.5326,0.1962 15.1235,-0.2943 18.7133,-3.4917 h 2.393 v 3.2955 c -2.138,4.0017 -10.9455,5.6296 -21.1063,5.8652 v 5.512 c 11.2792,-0.5493 20.1454,-3.5703 24.4214,-12.5541 h 3.6094 c -1.2751,9.9451 -3.1779,15.0845 -7.3559,23.8329 -2.3146,-1.7849 -8.4741,-4.8058 -10.3572,-4.335 -3.1385,0.7652 -6.8458,1.5103 -10.3177,1.9027 v 13.0055 h 6.8066 v 8.0619 h -6.8066 v 14.6531 C 138.2866,157.255 156.8235,134.4224 166.9448,105.0183 155.2737,90.6008 152.0371,74.261 160.256,57.5876 Z"
       style="fill:#0000ff;fill-rule:evenodd"
       id="path16" />
  </g>
</svg>
