<?xml version="1.0" encoding="UTF-8" standalone="no"?>
<svg
   version="1.1"
   width="1.7198147in"
   height="1.7227799in"
   viewBox="0 0 123.82666 124.04015"
   id="svg12"
   sodipodi:docname="amapa_clube-ap.cdr"
   xmlns:inkscape="http://www.inkscape.org/namespaces/inkscape"
   xmlns:sodipodi="http://sodipodi.sourceforge.net/DTD/sodipodi-0.dtd"
   xmlns="http://www.w3.org/2000/svg"
   xmlns:svg="http://www.w3.org/2000/svg">
  <defs
     id="defs12" />
  <sodipodi:namedview
     id="namedview12"
     pagecolor="#ffffff"
     bordercolor="#000000"
     borderopacity="0.25"
     inkscape:showpageshadow="2"
     inkscape:pageopacity="0.0"
     inkscape:pagecheckerboard="0"
     inkscape:deskcolor="#d1d1d1"
     inkscape:document-units="in" />
  <g
     id="Layer1003"
     transform="matrix(1,0,0,0.89306392,-46.086529,-34.43065)">
    <path
       d="M 107.9994,177.4462 C 174.3098,138.0546 169.8505,66.128 169.8505,66.128 L 139.3221,38.5534 c -11.8172,12.8028 -31.3227,11.853 -31.3227,11.853 0,0 -19.5039,1.0203 -31.3218,-11.7823 L 46.1492,66.1986 c 0,0 -4.4592,71.856 61.8502,111.2476 z"
       style="fill:#1b1918;fill-rule:evenodd"
       id="path10" />
    <path
       d="m 107.9009,118.429 23.787,16.1633 -8.1452,-27.4106 22.7731,-17.6047 -28.6968,-0.7049 -9.7181,-27.18 -9.7183,27.057 -28.6966,0.7048 22.773,17.6046 -8.1452,27.4112 z"
       style="fill:#ffffff;fill-rule:evenodd"
       id="path11" />
    <path
       d="m 119.0211,95.4399 h 0.3056 v -3.4488 c -1.9855,-0.7141 -3.7886,-1.2129 -5.4131,-1.4955 -0.5891,-0.1037 -1.1782,-0.181 -1.7689,-0.2466 l -1.8787,-8.0645 h -3.9866 l -1.936,8.3089 c -0.4781,0.0931 -0.9445,0.2007 -1.3977,0.3249 -1.8277,0.5011 -3.3859,1.2278 -4.6752,2.1788 -1.3321,0.9797 -2.3522,2.1821 -3.0587,3.6051 -0.7065,1.4218 -1.06,3.0353 -1.06,4.8386 0,1.9041 0.3669,3.5721 1.101,5.0105 0.7338,1.4366 1.7534,2.6202 3.058,3.5526 0.4089,0.2927 0.8465,0.5536 1.2996,0.7981 l -1.5169,6.5118 h 3.0459 l 1.2143,-5.4034 c 0.218,0.0622 0.4289,0.135 0.654,0.1906 1.8007,0.4462 3.8025,0.6686 6.0041,0.6686 1.1693,0 2.2371,-0.0653 3.2093,-0.198 0.6799,-0.0933 1.3079,-0.2046 1.9181,-0.3225 l 1.1384,5.0647 h 3.1747 l -1.3546,-5.8079 c 0.0661,-0.0205 0.1382,-0.0426 0.1988,-0.0633 0.6063,-0.2061 1.2817,-0.4268 2.0302,-0.6626 v -3.4211 h -0.2865 c -0.8263,0.5393 -1.6912,0.9959 -2.5853,1.3843 l -3.6776,-15.7825 c 0.4284,0.0858 0.8521,0.1864 1.2645,0.3008 1.6454,0.4546 3.3072,1.1807 4.9793,2.1784 z m -10.8104,-9.1535 0.863,3.7834 c -0.0129,0 -0.0274,-9e-4 -0.0409,-9e-4 -0.5814,0 -1.148,0.0196 -1.7023,0.0529 z m -9.006,19.1373 c -0.5776,-1.1058 -0.8667,-2.4289 -0.8667,-3.9685 0,-1.4705 0.2619,-2.7647 0.7848,-3.8865 0.5229,-1.1214 1.2545,-2.0499 2.1919,-2.786 0.7087,-0.5531 1.4895,-0.9978 2.3405,-1.3373 l -3.2066,13.758 c -0.4727,-0.5201 -0.8928,-1.1069 -1.2439,-1.7797 z m 14.3618,4.2824 c -1.5005,0.3624 -3.0841,0.5543 -4.7648,0.5543 -1.4138,0 -2.7581,-0.1742 -4.0288,-0.5219 -0.6336,-0.1745 -1.2275,-0.3948 -1.7822,-0.6618 l 0.5659,-2.402 9.2723,0.0449 z m -1.4203,-6.1797 h -7.8912 l 2.4849,-10.8306 c 0.6431,-0.0755 1.3137,-0.1176 2.0202,-0.1176 0.3024,0 0.5967,0.0155 0.8924,0.0274 z"
       style="fill:#1b1918;fill-rule:evenodd"
       id="path12" />
  </g>
</svg>
