<?xml version="1.0" encoding="UTF-8" standalone="no"?>
<svg
   version="1.1"
   width="1.7319282in"
   height="1.8216139in"
   viewBox="0 0 124.69883 131.1562"
   id="svg27"
   sodipodi:docname="ituano_fc-sp.cdr"
   xmlns:inkscape="http://www.inkscape.org/namespaces/inkscape"
   xmlns:sodipodi="http://sodipodi.sourceforge.net/DTD/sodipodi-0.dtd"
   xmlns="http://www.w3.org/2000/svg"
   xmlns:svg="http://www.w3.org/2000/svg">
  <defs
     id="defs27" />
  <sodipodi:namedview
     id="namedview27"
     pagecolor="#ffffff"
     bordercolor="#000000"
     borderopacity="0.25"
     inkscape:showpageshadow="2"
     inkscape:pageopacity="0.0"
     inkscape:pagecheckerboard="0"
     inkscape:deskcolor="#d1d1d1"
     inkscape:document-units="in" />
  <g
     id="Layer1003"
     style="display:inline"
     transform="translate(-45.649815,-42.421902)">
    <path
       d="m 106.6643,171.4488 c -7.098,-11.4666 -14.4691,-12.3953 -22.1136,-13.3225 -3.6037,-0.437 -7.2075,-0.8739 -10.9209,-2.2944 -6.2247,-2.3477 -12.8864,-5.5145 -18.1284,-9.9922 -5.4057,-4.5858 -9.3368,-10.5927 -9.7737,-18.6195 -0.7095,-11.8488 3.549,-19.3293 7.8629,-26.9189 3.3853,-5.9518 6.7706,-12.0129 7.6445,-20.3668 C 61.5076,77.75 60.5797,75.2383 59.1052,72.8358 57.1396,69.669 54.3001,66.7203 51.7887,64.864 l -1.256,-0.9283 0.9287,-1.2558 14.1966,-19.166 0.8191,-1.092 1.2012,0.7099 c 15.3431,9.1187 27.083,13.5415 38.8223,13.4871 11.8486,-0.0548 23.9708,-4.5866 40.1332,-13.2686 l 1.201,-0.655 0.7652,1.0919 14.1958,19.1108 0.9285,1.2561 -1.256,0.9283 c -2.5113,1.8563 -5.3506,4.805 -7.2621,7.9719 -1.474,2.4025 -2.4025,4.9143 -2.1833,7.0982 0.873,8.4092 4.6954,14.4155 8.4627,20.367 4.805,7.4806 9.5013,14.8519 8.7916,26.7007 -0.4368,8.0268 -4.3688,14.0337 -9.7197,18.6195 -5.2968,4.4777 -11.9575,7.6445 -18.1832,9.9922 -3.6586,1.3656 -7.2621,1.8574 -10.8111,2.2396 -7.6447,0.982 -15.1793,1.8559 -22.278,13.3773 l -1.3102,2.1293 z"
       style="fill:#1b1918;fill-rule:evenodd"
       id="path10" />
    <path
       d="m 132.7097,53.5609 -80.7573,56.6233 c 1.2561,-2.9484 2.7847,-5.6241 4.314,-8.3539 3.549,-6.2248 7.1528,-12.5591 8.0807,-21.5685 0.3281,-2.9483 -0.7643,-6.1156 -2.5662,-9.0638 -1.8566,-3.0036 -4.4776,-5.8427 -6.9342,-7.9175 L 67.2962,46.5171 c 15.2882,8.955 27.1371,13.2686 39.2592,13.2141 8.2449,0 16.5988,-2.1296 26.1543,-6.1703 z"
       style="fill:#ffffff;fill-rule:evenodd"
       id="path11" />
    <path
       d="m 150.8929,71.0339 v 3.6585 c -0.7643,1.9112 -1.1465,3.9315 -0.9826,5.7879 0.2183,1.9112 0.5454,3.7677 0.9826,5.4604 v 62.6837 c -3.1122,1.6382 -6.4432,3.0587 -9.61,4.3141 -2.4025,0.8739 -4.8601,1.3648 -7.2626,1.6921 V 83.2649 Z"
       style="fill:#e41e15;fill-rule:evenodd"
       id="path12" />
    <path
       d="m 78.7081,61.151 c 3.2216,0 6.1699,1.3649 8.354,3.4945 2.1299,2.1296 3.4401,5.0779 3.4401,8.3543 0,3.2216 -1.3102,6.2248 -3.4401,8.3544 -2.1841,2.1292 -5.1324,3.4397 -8.354,3.4397 -3.2764,0 -6.2247,-1.3105 -8.3547,-3.4397 -2.1292,-2.1296 -3.4941,-5.1328 -3.4941,-8.3544 0,-3.2764 1.3649,-6.2247 3.4941,-8.3543 2.13,-2.1296 5.0783,-3.4945 8.3547,-3.4945 z"
       style="fill:#1b1918;fill-rule:evenodd"
       id="path13" />
    <path
       d="m 64.5656,148.297 v -15.2341 l 16.5998,-12.1764 v 33.6352 c -2.1848,-0.3272 -4.314,-0.8183 -6.4432,-1.5832 -3.3853,-1.3102 -6.8802,-2.8389 -10.1566,-4.6415 z"
       style="fill:#e41e15;fill-rule:evenodd"
       id="path14" />
    <path
       d="m 98.6925,158.7262 v -50.2346 l 17.801,-12.8861 v 63.6672 c -2.8943,1.8011 -5.734,4.4777 -8.5185,8.5176 -3.0578,-4.4769 -6.1698,-7.2616 -9.2825,-9.0641 z"
       style="fill:#e41e15;fill-rule:evenodd"
       id="path15" />
    <path
       d="m 118.0766,91.1827 -11.3575,-15.9444 3.5487,-2.5117 14.1975,6.6072 0.0546,-0.0548 -7.8635,-11.0846 3.1126,-2.184 11.3025,15.9444 -3.3298,2.3477 -14.5796,-6.7161 8.0268,11.3574 z"
       style="fill:#ffffff;fill-rule:evenodd"
       id="path16" />
    <path
       d="m 82.0386,108.8734 -7.5897,-10.6472 3.3853,-2.4026 7.3712,10.3199 c 0.5466,0.7647 1.1472,1.3104 1.7478,1.5838 0.6547,0.2728 1.2553,0.3822 1.8019,0.2728 0.6006,-0.1092 1.0917,-0.3276 1.5834,-0.6553 2.1292,-1.5286 2.4573,-3.2761 1.0376,-5.3509 l -7.4808,-10.4838 3.4401,-2.4571 7.4259,10.4837 c 0.8191,1.1467 1.3102,2.184 1.4738,3.2216 0.2185,1.0375 0.1645,1.9658 -0.1088,2.8394 -0.2733,0.8736 -0.7095,1.6927 -1.365,2.4024 -0.6005,0.7643 -1.4197,1.4198 -2.2936,2.0745 -1.1464,0.7652 -2.2929,1.3109 -3.4942,1.6382 -1.256,0.328 -2.4573,0.2734 -3.6585,-0.1629 -1.2012,-0.383 -2.2936,-1.3109 -3.2764,-2.6765 z"
       style="fill:#ffffff;fill-rule:evenodd"
       id="path17" />
    <path
       d="m 75.5413,121.4325 -9.3375,-13.1047 -4.805,3.385 -1.9655,-2.8394 12.9404,-9.1727 2.0204,2.7847 -4.8598,3.44 9.3374,13.1594 z"
       style="fill:#ffffff;fill-rule:evenodd"
       id="path18" />
    <path
       d="m 65.5484,128.5852 -11.3571,-15.9985 3.3304,-2.3477 11.3579,15.9436 z"
       style="fill:#ffffff;fill-rule:evenodd"
       id="path19" />
    <path
       d="M 128.7236,72.8906 128.2868,72.29 c -1.2015,-1.6927 -1.9657,-3.3853 -2.3479,-5.0783 -0.3821,-1.6378 -0.2726,-3.276 0.3822,-4.805 0.6013,-1.5286 1.8028,-2.9484 3.5489,-4.2589 0.9835,-0.7098 2.0203,-1.2013 3.1677,-1.5289 1.1464,-0.3277 2.2937,-0.3822 3.4948,-0.2185 1.2014,0.1637 2.4024,0.6554 3.6039,1.4742 1.1465,0.7646 2.2929,1.9111 3.3306,3.3856 0.9277,1.3104 1.5832,2.621 1.9653,3.8767 0.328,1.3105 0.4372,2.5665 0.2735,3.7678 -0.1647,1.2012 -0.5469,2.2933 -1.2561,3.3305 -0.6547,1.0376 -1.5837,1.9658 -2.7301,2.7846 -1.5286,1.0924 -3.1127,1.693 -4.6958,1.8567 -1.5837,0.1092 -3.1131,-0.1637 -4.5321,-0.8735 -1.4744,-0.7099 -2.7304,-1.7475 -3.7681,-3.1124 z m 2.4025,-3.6038 c 1.256,1.7471 2.5671,2.9484 4.0957,3.549 1.4736,0.6554 2.9489,0.437 4.5325,-0.6006 0.9818,-0.7643 1.6382,-1.5834 1.9107,-2.621 0.2725,-1.0373 0.2184,-2.0204 -0.055,-3.0577 -0.2725,-0.9826 -0.7093,-1.911 -1.3098,-2.7301 -1.0377,-1.4197 -2.2392,-2.5662 -3.6586,-3.3853 -1.4748,-0.8191 -3.058,-0.5461 -4.9142,0.7099 -0.6559,0.4365 -1.1469,1.092 -1.529,1.8563 -0.4371,0.7646 -0.5459,1.6927 -0.4371,2.7847 0.1087,1.0923 0.5459,2.2388 1.3648,3.4948 z"
       style="fill:#ffffff;fill-rule:evenodd"
       id="path20" />
    <path
       d="m 100.7676,103.468 -5.6241,-19.9846 3.8771,-2.7301 16.9261,11.958 -3.6585,2.5666 -3.3301,-2.5666 -5.8427,4.15 1.2012,4.0951 z m -1.256,-17.6914 2.5121,7.7538 4.0407,-2.8939 -6.4981,-4.9142 z"
       style="fill:#ffffff;fill-rule:evenodd"
       id="path21" />
    <path
       d="m 88.7551,76.003 c 0.2725,-0.9284 0.4369,-1.966 0.4369,-3.0032 0,-0.164 0,-0.3277 0,-0.4913 -1.7478,-1.4198 -3.5497,-2.6211 -5.4604,-3.6038 -1.8019,-0.8739 -3.7134,-1.4746 -5.679,-1.7474 0.0549,1.6378 0.3274,3.3308 0.7103,4.9686 1.8019,0.3278 3.549,0.8739 5.1872,1.529 1.6382,0.6555 3.2216,1.4197 4.805,2.3481 z"
       style="fill:#ffffff;fill-opacity:1;fill-rule:evenodd"
       id="path22" />
    <path
       d="m 74.9947,82.8284 c 1.1472,0.4365 2.4025,0.655 3.7134,0.655 2.8935,0 5.5145,-1.1465 7.426,-3.0575 0.8732,-0.9284 1.6382,-2.0204 2.184,-3.2217 -1.3649,-0.7646 -2.7298,-1.4742 -4.0955,-2.0747 -1.0376,1.9655 -2.5662,3.7126 -4.3132,5.0778 -1.5294,1.1469 -3.1669,2.0204 -4.9147,2.6211 z"
       style="fill:#ffffff;fill-opacity:1;fill-rule:evenodd"
       id="path23" />
    <path
       d="m 70.0261,78.9512 c 0.3821,0.4915 0.7642,1.0377 1.256,1.4747 0.6006,0.6005 1.2561,1.0919 1.9655,1.5289 2.0752,-0.437 4.0956,-1.4197 5.8426,-2.785 1.6383,-1.2012 3.0032,-2.7847 3.9312,-4.4774 -1.4739,-0.6005 -3.0032,-1.0375 -4.5866,-1.3653 -1.2012,1.2561 -2.5662,2.4029 -4.0947,3.4402 -1.3109,0.8191 -2.7855,1.5834 -4.314,2.1839 z"
       style="fill:#ffffff;fill-rule:evenodd"
       id="path24" />
    <path
       d="m 72.2101,64.7548 c -0.3274,0.2184 -0.6555,0.4913 -0.928,0.8191 -1.9115,1.9111 -3.1127,4.532 -3.1127,7.4259 0,1.7472 0.4369,3.3853 1.2012,4.805 1.2561,-0.4369 2.4573,-1.0375 3.5497,-1.6926 -0.3821,-1.9112 -0.7102,-3.9316 -0.8191,-5.9519 -0.1096,-1.8017 -0.1096,-3.6038 0.1089,-5.4055 z"
       style="fill:#ffffff;fill-opacity:1;fill-rule:evenodd"
       id="path25" />
    <path
       d="m 77.1787,62.5706 c -1.2553,0.2182 -2.4565,0.6008 -3.5489,1.2013 -0.3273,2.1293 -0.3822,4.2045 -0.2733,6.2792 0.1096,1.8567 0.3829,3.6038 0.7102,5.2964 1.3101,-0.8735 2.4574,-1.8563 3.4942,-2.8938 -0.491,-1.8019 -0.7643,-3.6586 -0.8184,-5.4605 0,-1.4741 0.1089,-2.9483 0.4362,-4.4226 z"
       style="fill:#ffffff;fill-opacity:1;fill-rule:evenodd"
       id="path26" />
    <path
       d="m 86.1341,65.5739 c -1.9115,-1.9112 -4.5325,-3.1125 -7.426,-3.1125 -0.0548,0 -0.1096,0 -0.1637,0.0545 -0.2733,1.092 -0.4369,2.2389 -0.4918,3.3853 2.1841,0.2184 4.2593,0.9284 6.2248,1.8566 1.6382,0.8191 3.1668,1.802 4.6414,2.9488 -0.437,-1.9659 -1.4198,-3.7679 -2.7847,-5.1327 z"
       style="fill:#ffffff;fill-opacity:1;fill-rule:evenodd"
       id="path27" />
  </g>
</svg>
