<?xml version="1.0" encoding="UTF-8" standalone="no"?>
<svg
   version="1.1"
   width="1.0810348in"
   height="1.3874514in"
   viewBox="0 0 77.834504 99.896502"
   id="svg19"
   sodipodi:docname="joacaba_ac.cdr"
   xmlns:inkscape="http://www.inkscape.org/namespaces/inkscape"
   xmlns:sodipodi="http://sodipodi.sourceforge.net/DTD/sodipodi-0.dtd"
   xmlns="http://www.w3.org/2000/svg"
   xmlns:svg="http://www.w3.org/2000/svg">
  <defs
     id="defs19" />
  <sodipodi:namedview
     id="namedview19"
     pagecolor="#ffffff"
     bordercolor="#000000"
     borderopacity="0.25"
     inkscape:showpageshadow="2"
     inkscape:pageopacity="0.0"
     inkscape:pagecheckerboard="0"
     inkscape:deskcolor="#d1d1d1"
     inkscape:document-units="in" />
  <g
     id="Layer1003"
     transform="translate(-69.082596,-58.0518)">
    <path
       d="m 107.9993,58.0518 c -11.951,15.6283 -38.9167,8.2738 -38.9167,8.2738 v 31.8683 c 0,26.967 19.3052,49.3361 38.9167,59.7544 19.6123,-10.4183 38.9178,-32.7874 38.9178,-59.7544 V 66.3256 c 0,0 -26.967,7.3545 -38.9178,-8.2738 z"
       style="fill:#004284;fill-rule:evenodd"
       id="path10" />
    <path
       d="m 70.2317,67.7764 c 0,2.6431 0,30.4175 0,30.4175 0,26.2692 18.8779,48.1755 37.7676,58.4323 18.8894,-10.2559 37.7686,-32.1631 37.7686,-58.4323 0,0 0,-27.7479 0,-30.4077 -5.7424,1.2856 -26.6969,4.831 -37.7704,-8.0286 -10.9824,12.7094 -32.1594,9.2289 -37.7658,8.0188 z"
       style="fill:#ffffff;fill-rule:evenodd"
       id="path11" />
    <path
       d="m 115.3535,67.076 v 83.2383 c 2.3364,-1.7027 4.5924,-3.5525 6.7424,-5.5268 V 69.4446 c -2.4345,-0.5774 -4.6835,-1.3677 -6.7424,-2.3686 z"
       style="fill:#ffdb00;fill-rule:evenodd"
       id="path12" />
    <path
       d="m 128.7761,70.4614 c -1.243,-0.0948 -2.4477,-0.2352 -3.6162,-0.4178 v 71.7719 c 2.4324,-2.4917 4.6946,-5.1435 6.7418,-7.9157 V 70.6017 c -1.0222,-0.0154 -2.067,-0.0594 -3.1256,-0.1403 z"
       style="fill:#ffdb00;fill-rule:evenodd"
       id="path13" />
    <path
       d="m 97.3665,68.4703 c -1.5237,0 -2.758,1.2346 -2.758,2.7579 0,1.5233 1.2343,2.7579 2.758,2.7579 1.5226,0 2.7579,-1.2346 2.7579,-2.7579 0,-1.5233 -1.2353,-2.7579 -2.7579,-2.7579 z"
       style="fill:#004284;fill-rule:evenodd"
       id="path14" />
    <path
       d="m 89.6737,70.6153 c -1.3539,0 -2.451,1.098 -2.451,2.4515 0,1.3536 1.0971,2.4515 2.451,2.4515 1.3537,0 2.4519,-1.0979 2.4519,-2.4515 0,-1.3535 -1.0982,-2.4515 -2.4519,-2.4515 z"
       style="fill:#004284;fill-rule:evenodd"
       id="path15" />
    <path
       d="m 120.1454,112.2297 h 4.0787 l -7.5959,-18.4469 h -3.3178 l -7.1312,18.4469 h 4.0435 c 0.2067,-0.5346 0.4658,-1.2047 0.759,-1.9637 h 8.3551 c 0.3106,0.7544 0.5864,1.424 0.8086,1.9637 z m -7.7782,-5.5474 c 0.9034,-2.3368 1.8799,-4.8629 2.6603,-6.8816 0.8251,2.0038 1.8667,4.5332 2.8338,6.8816 z"
       style="fill:#004284;fill-rule:evenodd"
       id="path16" />
    <path
       d="m 94.7012,75.2113 v 36.1142 c 0,3.8863 -3.1617,7.0481 -7.0481,7.0481 H 75.4884 c 1.8921,4.896 4.4607,9.6767 7.6788,14.2407 1.4689,2.0832 3.0614,4.1029 4.7565,6.0445 4.4163,-0.2673 7.6261,-1.2661 9.4079,-2.7802 2.0222,-1.7185 2.7,-4.5105 2.7,-8.8791 V 75.2113 Z"
       style="fill:#004284;fill-rule:evenodd"
       id="path17" />
    <path
       d="M 92.1869,111.3255 V 77.0499 h -5.0254 v 22.7728 c -0.1122,1.2173 -0.8852,3.581 -5.2088,3.581 H 71.8808 c 0.4128,4.1825 1.3182,8.3533 2.6982,12.4555 h 13.0741 c 2.5,0 4.5338,-2.0338 4.5338,-4.5337 z"
       style="fill:#004284;fill-rule:evenodd"
       id="path18" />
    <path
       d="m 135.3943,107.9289 c 0,0.6076 -0.4923,1.1 -1.1,1.1 h -4.6322 c -0.6077,0 -1.1,-0.4924 -1.1,-1.1 v -9.8463 c 0,-0.6075 0.4923,-1.1 1.1,-1.1 h 4.6322 c 0.6077,0 1.1,0.4925 1.1,1.1 v 2.1904 h 3.5358 v -2.1904 c 0,-2.5561 -2.0796,-4.6358 -4.6358,-4.6358 h -4.6322 c -2.5563,0 -4.6358,2.0797 -4.6358,4.6358 v 9.8463 c 0,2.5563 2.0795,4.6358 4.6358,4.6358 h 4.6322 c 2.5562,0 4.6358,-2.0795 4.6358,-4.6358 v -2.6382 h -3.5358 z"
       style="fill:#004284;fill-rule:evenodd"
       id="path19" />
  </g>
</svg>
