<?xml version="1.0" encoding="UTF-8" standalone="no"?>
<svg
   version="1.1"
   width="1.6029153in"
   height="1.9273112in"
   viewBox="0 0 115.4099 138.76641"
   id="svg108"
   sodipodi:docname="joinville.cdr"
   xmlns:inkscape="http://www.inkscape.org/namespaces/inkscape"
   xmlns:sodipodi="http://sodipodi.sourceforge.net/DTD/sodipodi-0.dtd"
   xmlns="http://www.w3.org/2000/svg"
   xmlns:svg="http://www.w3.org/2000/svg">
  <defs
     id="defs108" />
  <sodipodi:namedview
     id="namedview108"
     pagecolor="#ffffff"
     bordercolor="#000000"
     borderopacity="0.25"
     inkscape:showpageshadow="2"
     inkscape:pageopacity="0.0"
     inkscape:pagecheckerboard="0"
     inkscape:deskcolor="#d1d1d1"
     inkscape:document-units="in" />
  <g
     id="Layer1003"
     transform="translate(-50.295101,-38.616699)">
    <path
       d="m 77.4713,55.9385 c -1.5025,8e-4 -19.5667,0.0052 -19.5667,0.0052 -2.6433,0.0298 -7.6095,1.8192 -7.6095,8.38 0,0.0067 0,0.0187 0,0.0365 0,0.4689 0.1301,4.7001 3.2341,7.0164 0,1.504 0,44.1799 0,44.1799 0.0052,0.2215 0.1449,4.5798 3.1091,7.5441 l -0.0631,-0.0669 45.6565,51.5539 c 0.1033,0.1159 2.5228,2.7955 5.7688,2.7955 3.245,0 5.6646,-2.6796 5.7664,-2.7933 l 45.658,-51.5561 -0.0631,0.0669 c 2.9649,-2.9643 3.1039,-7.3226 3.1084,-7.5069 0,0 8e-4,-42.7131 8e-4,-44.2171 3.1024,-2.3148 3.234,-6.5453 3.234,-7.035 0,-0.0186 0,-0.0394 0,-0.0394 0,-6.5393 -4.9662,-8.3287 -7.5924,-8.3585 0,0 -18.0813,-0.0044 -19.5839,-0.0052 -6.439,-10.6888 -18.0263,-17.3218 -30.5282,-17.3218 -12.5028,0 -24.0909,6.633 -30.5292,17.3218 z m 27.0328,116.6241 -45.6811,-51.5814 -0.0327,-0.0327 c -2.0888,-2.0896 -2.2167,-5.4009 -2.2181,-5.4343 l 7e-4,-45.8259 -0.8003,-0.4311 c -2.4263,-1.3063 -2.4337,-4.8822 -2.4337,-4.9186 0,-4.9818 3.8263,-5.3318 4.5939,-5.3511 L 79.1731,58.9816 79.61,58.2109 c 5.7926,-10.2088 16.6709,-16.5504 28.3905,-16.5504 11.7187,0 22.597,6.3416 28.3896,16.5504 l 0.4369,0.7707 21.2678,0.0059 c 0.7401,0.0193 4.5663,0.3693 4.5663,5.3362 0,0 0,8e-4 0,0.0016 0,0.1069 -0.0267,3.6359 -2.4336,4.9319 l -0.8003,0.4311 v 45.8682 c -8e-4,0 -0.1308,3.3054 -2.2174,5.392 l -0.0328,0.0327 -45.687,51.5881 c -0.01,0.0104 -1.6244,1.7701 -3.4895,1.7701 -1.866,0 -3.4808,-1.7597 -3.4964,-1.7768 z"
       style="fill:#1b1918;fill-rule:evenodd"
       id="path10" />
    <path
       d="m 158.0955,57.4656 -20.382,-0.0051 c -0.0512,-0.0907 -0.1107,-0.1762 -0.1627,-0.2669 -0.2705,-0.4659 -0.5507,-0.9244 -0.8412,-1.3762 -0.081,-0.1248 -0.159,-0.2519 -0.2415,-0.376 -0.3782,-0.57 -0.7706,-1.131 -1.1815,-1.6772 -0.0216,-0.029 -0.0453,-0.0565 -0.0669,-0.0855 -0.3864,-0.509 -0.7885,-1.0046 -1.2023,-1.4914 -0.1018,-0.1196 -0.2044,-0.2378 -0.3077,-0.3552 -0.3783,-0.4325 -0.7662,-0.856 -1.1652,-1.2684 -0.0758,-0.0789 -0.1493,-0.1598 -0.2266,-0.2379 -0.4853,-0.4927 -0.9839,-0.9719 -1.4981,-1.4342 -0.0476,-0.0423 -0.0967,-0.0825 -0.1442,-0.1248 -0.4593,-0.408 -0.9304,-0.8026 -1.4105,-1.186 -0.1203,-0.0951 -0.2407,-0.1902 -0.3626,-0.2846 -0.4711,-0.3657 -0.9512,-0.7193 -1.4416,-1.0604 -0.0698,-0.0491 -0.1389,-0.1011 -0.2095,-0.1494 -0.57,-0.3901 -1.1526,-0.7624 -1.7463,-1.1184 -0.0907,-0.0543 -0.1836,-0.1047 -0.275,-0.1575 -0.4979,-0.2921 -1.0039,-0.5707 -1.5174,-0.8375 -0.1479,-0.0773 -0.2966,-0.1538 -0.4459,-0.2289 -0.5447,-0.2727 -1.0968,-0.5328 -1.6579,-0.7773 -0.0668,-0.0289 -0.1323,-0.0617 -0.1999,-0.0906 -0.6316,-0.2697 -1.2737,-0.5187 -1.9239,-0.7513 -0.1427,-0.0513 -0.2876,-0.0966 -0.431,-0.1456 -0.5134,-0.1762 -1.0322,-0.3397 -1.5568,-0.4912 -0.1806,-0.0521 -0.3604,-0.1048 -0.5417,-0.1539 -0.6094,-0.1657 -1.2246,-0.3173 -1.8467,-0.4488 -0.0564,-0.0119 -0.1121,-0.0275 -0.1686,-0.0394 -0.6763,-0.1397 -1.3607,-0.2541 -2.0503,-0.353 -0.188,-0.0267 -0.3775,-0.0483 -0.5655,-0.0721 -0.5246,-0.0661 -1.0529,-0.1203 -1.5849,-0.1627 -0.2029,-0.0163 -0.405,-0.0341 -0.6094,-0.0468 -0.7045,-0.0431 -1.4141,-0.0728 -2.1297,-0.0728 -0.7164,0 -1.4253,0.0297 -2.1305,0.0728 -0.2036,0.0127 -0.4065,0.0305 -0.6094,0.0468 -0.532,0.0424 -1.0597,0.0966 -1.5843,0.1627 -0.1887,0.0238 -0.3782,0.0454 -0.5663,0.0721 -0.6895,0.0989 -1.374,0.2133 -2.0495,0.353 -0.0571,0.0119 -0.1129,0.0275 -0.1701,0.0394 -0.622,0.1323 -1.2365,0.2831 -1.8452,0.4481 -0.182,0.0498 -0.3625,0.1025 -0.5432,0.1546 -0.5231,0.1515 -1.0418,0.315 -1.5553,0.4904 -0.1434,0.0498 -0.289,0.0951 -0.4325,0.1464 -0.6495,0.2326 -1.2915,0.4816 -1.9224,0.7513 -0.0684,0.0289 -0.1352,0.0624 -0.2036,0.0921 -0.5588,0.2438 -1.1102,0.5031 -1.6534,0.7751 -0.1501,0.0758 -0.2995,0.1523 -0.4488,0.2296 -0.5121,0.2668 -1.0166,0.5447 -1.513,0.8353 -0.0922,0.0542 -0.1873,0.1054 -0.2794,0.1604 -0.593,0.3553 -1.1741,0.7276 -1.7434,1.1162 -0.0728,0.0506 -0.1434,0.1033 -0.2155,0.1538 -0.4874,0.3396 -0.966,0.6918 -1.4341,1.0552 -0.1234,0.0959 -0.246,0.1925 -0.3679,0.2891 -0.4778,0.3812 -0.9467,0.7736 -1.403,1.1801 -0.0498,0.0438 -0.1011,0.0854 -0.1501,0.1293 -0.5134,0.4622 -1.0113,0.94 -1.4959,1.432 -0.0787,0.0795 -0.1538,0.1627 -0.2319,0.2429 -0.3967,0.411 -0.7824,0.8316 -1.1584,1.2619 -0.1048,0.1196 -0.2096,0.2392 -0.3128,0.3603 -0.411,0.4846 -0.8123,0.978 -1.1965,1.4848 -0.023,0.0305 -0.0483,0.0601 -0.0713,0.0914 -0.411,0.5447 -0.8018,1.105 -1.1801,1.6742 -0.0832,0.1256 -0.162,0.2542 -0.2437,0.3805 -0.2898,0.4503 -0.57,0.908 -0.839,1.3732 -0.0527,0.09 -0.1114,0.1762 -0.1635,0.2669 l -20.3819,0.0051 c 0,0 -6.0876,0.0691 -6.0876,6.8581 0,0 -0.0631,4.4981 3.234,6.2734 v 44.9594 c 0,0 0.0951,3.8999 2.6633,6.468 l 45.6566,51.5539 c 0,0 2.0294,2.2828 4.6296,2.2828 2.5993,0 4.6287,-2.2828 4.6287,-2.2828 l 45.6565,-51.5539 c 2.5682,-2.5681 2.6634,-6.468 2.6634,-6.468 V 70.5971 c 3.2972,-1.7753 3.234,-6.2734 3.234,-6.2734 0,-6.789 -6.0876,-6.8581 -6.0876,-6.8581 z M 85.8692,146.4379 63.168,121.0733 c -2.7904,-2.7903 -3.0438,-8.4974 -3.0438,-8.4974 V 72.4994 c 0,-7.2289 -3.9318,-10.1456 -3.9318,-10.1456 h 19.8151 c -1.3838,3.7118 -2.144,7.7276 -2.144,11.9216 0,10.4066 4.6623,19.7191 12.0057,25.9798 z m 70.0067,-73.9385 v 40.0765 c 0,0 -0.2527,5.7071 -3.0438,8.4974 l -22.7012,25.3646 v -46.1827 c 7.3434,-6.2607 12.0056,-15.5732 12.0056,-25.9798 0,-4.194 -0.7602,-8.2098 -2.1438,-11.9216 h 19.8149 c 0,0 -3.9317,2.9167 -3.9317,10.1456 z"
       style="fill:#ffffff;fill-rule:evenodd"
       id="path11" />
    <path
       d="m 125.2301,44.8105 c 0.0914,0.0528 0.1843,0.1032 0.275,0.1575 -0.0907,-0.0543 -0.1836,-0.1047 -0.275,-0.1575 z"
       style="fill:#ffffff;fill-rule:evenodd"
       id="path12" />
    <path
       d="m 100.8904,40.8854 c 0.0572,-0.0119 0.113,-0.0275 0.1701,-0.0394 -0.0571,0.0119 -0.1129,0.0275 -0.1701,0.0394 z"
       style="fill:#ffffff;fill-rule:evenodd"
       id="path13" />
    <path
       d="m 123.2668,43.7441 c 0.1493,0.0751 0.298,0.1516 0.4459,0.2289 -0.1487,-0.0773 -0.2966,-0.1538 -0.4459,-0.2289 z"
       style="fill:#ffffff;fill-rule:evenodd"
       id="path14" />
    <path
       d="m 127.2514,46.0864 c 0.0706,0.0483 0.1397,0.1003 0.2095,0.1494 -0.0706,-0.0491 -0.1389,-0.1011 -0.2095,-0.1494 z"
       style="fill:#ffffff;fill-rule:evenodd"
       id="path15" />
    <path
       d="m 128.9025,47.2962 c 0.1219,0.0944 0.2423,0.1895 0.3626,0.2846 -0.1203,-0.0959 -0.2407,-0.1902 -0.3626,-0.2846 z"
       style="fill:#ffffff;fill-rule:evenodd"
       id="path16" />
    <path
       d="m 96.5142,42.1249 c 0.1435,-0.0513 0.2891,-0.0966 0.4325,-0.1464 -0.1434,0.0498 -0.289,0.0951 -0.4325,0.1464 z"
       style="fill:#ffffff;fill-rule:evenodd"
       id="path17" />
    <path
       d="m 98.502,41.4881 c 0.1807,-0.0521 0.3612,-0.1048 0.5432,-0.1546 -0.182,0.0498 -0.3618,0.1025 -0.5432,0.1546 z"
       style="fill:#ffffff;fill-rule:evenodd"
       id="path18" />
    <path
       d="m 105.2606,40.2582 c 0.2029,-0.0163 0.4058,-0.0341 0.6094,-0.0468 -0.2044,0.0127 -0.4065,0.0305 -0.6094,0.0468 z"
       style="fill:#ffffff;fill-rule:evenodd"
       id="path19" />
    <path
       d="m 116.9556,41.3342 c 0.1813,0.0491 0.3611,0.1018 0.5417,0.1539 -0.1806,-0.0528 -0.3604,-0.1048 -0.5417,-0.1539 z"
       style="fill:#ffffff;fill-rule:evenodd"
       id="path20" />
    <path
       d="m 110.1302,40.2114 c 0.2044,0.0127 0.4065,0.0305 0.6094,0.0468 -0.2029,-0.0163 -0.405,-0.0341 -0.6094,-0.0468 z"
       style="fill:#ffffff;fill-rule:evenodd"
       id="path21" />
    <path
       d="m 112.3245,40.4209 c 0.188,0.0238 0.3775,0.0454 0.5655,0.0721 -0.188,-0.0275 -0.3775,-0.0483 -0.5655,-0.0721 z"
       style="fill:#ffffff;fill-rule:evenodd"
       id="path22" />
    <path
       d="m 119.0541,41.9793 c 0.1434,0.049 0.2883,0.0943 0.431,0.1456 -0.1427,-0.0513 -0.2876,-0.0966 -0.431,-0.1456 z"
       style="fill:#ffffff;fill-rule:evenodd"
       id="path23" />
    <path
       d="m 103.11,40.493 c 0.1881,-0.0267 0.3776,-0.0483 0.5663,-0.0721 -0.1887,0.0238 -0.3782,0.0446 -0.5663,0.0721 z"
       style="fill:#ffffff;fill-rule:evenodd"
       id="path24" />
    <path
       d="m 121.409,42.8762 c 0.0676,0.0289 0.1331,0.0617 0.1999,0.0906 -0.0668,-0.0289 -0.1323,-0.0617 -0.1999,-0.0906 z"
       style="fill:#ffffff;fill-rule:evenodd"
       id="path25" />
    <path
       d="m 94.3882,42.9683 c 0.0684,-0.0297 0.1352,-0.0632 0.2036,-0.0921 -0.0684,0.0289 -0.1352,0.0624 -0.2036,0.0921 z"
       style="fill:#ffffff;fill-rule:evenodd"
       id="path26" />
    <path
       d="m 83.4518,50.5673 c 0.0781,-0.0802 0.1532,-0.1634 0.2319,-0.2429 -0.0787,0.0795 -0.1538,0.1627 -0.2319,0.2429 z"
       style="fill:#ffffff;fill-rule:evenodd"
       id="path27" />
    <path
       d="m 81.9806,52.1895 c 0.1032,-0.1211 0.208,-0.2407 0.3128,-0.3603 -0.1048,0.1196 -0.2096,0.2392 -0.3128,0.3603 z"
       style="fill:#ffffff;fill-rule:evenodd"
       id="path28" />
    <path
       d="m 85.1796,48.8924 c 0.049,-0.0439 0.1003,-0.0855 0.1501,-0.1293 -0.0498,0.0438 -0.1011,0.0854 -0.1501,0.1293 z"
       style="fill:#ffffff;fill-rule:evenodd"
       id="path29" />
    <path
       d="m 80.7128,53.7657 c 0.023,-0.0313 0.0483,-0.0609 0.0713,-0.0914 -0.023,0.0305 -0.0483,0.0601 -0.0713,0.0914 z"
       style="fill:#ffffff;fill-rule:evenodd"
       id="path30" />
    <path
       d="m 130.6756,48.7668 c 0.0475,0.0423 0.0966,0.0825 0.1442,0.1248 -0.0476,-0.0423 -0.0967,-0.0825 -0.1442,-0.1248 z"
       style="fill:#ffffff;fill-rule:evenodd"
       id="path31" />
    <path
       d="m 136.4681,55.4414 c 0.0825,0.1241 0.1605,0.2512 0.2415,0.376 -0.081,-0.1248 -0.159,-0.2519 -0.2415,-0.376 z"
       style="fill:#ffffff;fill-rule:evenodd"
       id="path32" />
    <path
       d="m 79.289,55.8204 c 0.0817,-0.1263 0.1605,-0.2549 0.2437,-0.3805 -0.0832,0.1256 -0.162,0.2534 -0.2437,0.3805 z"
       style="fill:#ffffff;fill-rule:evenodd"
       id="path33" />
    <path
       d="m 114.9403,40.846 c 0.0565,0.0119 0.1122,0.0275 0.1686,0.0394 -0.0564,-0.0119 -0.1121,-0.0275 -0.1686,-0.0394 z"
       style="fill:#ffffff;fill-rule:evenodd"
       id="path34" />
    <path
       d="m 132.3179,50.3258 c 0.0773,0.0781 0.1508,0.159 0.2266,0.2379 -0.0758,-0.0789 -0.1493,-0.1598 -0.2266,-0.2379 z"
       style="fill:#ffffff;fill-rule:evenodd"
       id="path35" />
    <path
       d="m 90.4936,44.9687 c 0.0921,-0.055 0.1872,-0.1062 0.2794,-0.1604 -0.0922,0.0542 -0.1873,0.1054 -0.2794,0.1604 z"
       style="fill:#ffffff;fill-rule:evenodd"
       id="path36" />
    <path
       d="m 92.286,43.973 c 0.1493,-0.0773 0.2987,-0.1538 0.4488,-0.2296 -0.1501,0.0758 -0.2995,0.1523 -0.4488,0.2296 z"
       style="fill:#ffffff;fill-rule:evenodd"
       id="path37" />
    <path
       d="m 135.2197,53.6787 c 0.0216,0.029 0.0453,0.0565 0.0669,0.0855 -0.0216,-0.029 -0.0453,-0.0565 -0.0669,-0.0855 z"
       style="fill:#ffffff;fill-rule:evenodd"
       id="path38" />
    <path
       d="m 133.7097,51.8321 c 0.1033,0.1174 0.2059,0.2356 0.3077,0.3552 -0.1018,-0.1196 -0.2044,-0.2371 -0.3077,-0.3552 z"
       style="fill:#ffffff;fill-rule:evenodd"
       id="path39" />
    <path
       d="m 86.7327,47.583 c 0.1219,-0.0966 0.2445,-0.1932 0.3679,-0.2891 -0.1234,0.0959 -0.246,0.1918 -0.3679,0.2891 z"
       style="fill:#ffffff;fill-rule:evenodd"
       id="path40" />
    <path
       d="m 88.5347,46.2387 c 0.0721,-0.0505 0.1427,-0.1032 0.2155,-0.1538 -0.0728,0.0506 -0.1426,0.1033 -0.2155,0.1538 z"
       style="fill:#ffffff;fill-rule:evenodd"
       id="path41" />
    <path
       d="m 73.8635,74.2754 c 0,-4.194 0.7602,-8.2098 2.144,-11.9216 H 56.1924 c 0,0 3.9318,2.9167 3.9318,10.1456 v 40.0765 c 0,0 0.2534,5.7071 3.0438,8.4974 l 22.7012,25.3646 V 100.2552 C 78.5258,93.9945 73.8635,84.682 73.8635,74.2754 Z"
       style="fill:#000000;fill-rule:evenodd"
       id="path42" />
    <path
       d="m 130.1309,100.2552 v 46.1827 l 22.7012,-25.3646 c 2.7911,-2.7903 3.0438,-8.4974 3.0438,-8.4974 V 72.4994 c 0,-7.2289 3.9317,-10.1456 3.9317,-10.1456 h -19.8149 c 1.3836,3.7118 2.1438,7.7276 2.1438,11.9216 0,10.4066 -4.6622,19.7191 -12.0056,25.9798 z"
       style="fill:#e41e15;fill-rule:evenodd"
       id="path43" />
    <path
       d="m 134.0174,52.1873 c 0.4138,0.4868 0.8159,0.9824 1.2023,1.4914 -0.3857,-0.509 -0.7885,-1.0046 -1.2023,-1.4914 z"
       style="fill:#ffffff;fill-rule:evenodd"
       id="path44" />
    <path
       d="m 87.1006,47.2939 c 0.4681,-0.3634 0.9467,-0.7156 1.4341,-1.0552 -0.4882,0.3396 -0.9653,0.6918 -1.4341,1.0552 z"
       style="fill:#ffffff;fill-rule:evenodd"
       id="path45" />
    <path
       d="m 88.7502,46.0849 c 0.5693,-0.3886 1.1504,-0.7609 1.7434,-1.1162 -0.593,0.3553 -1.1741,0.7276 -1.7434,1.1162 z"
       style="fill:#ffffff;fill-rule:evenodd"
       id="path46" />
    <path
       d="m 90.773,44.8083 c 0.4964,-0.2906 1.0009,-0.5685 1.513,-0.8353 -0.5121,0.2668 -1.0166,0.5447 -1.513,0.8353 z"
       style="fill:#ffffff;fill-rule:evenodd"
       id="path47" />
    <path
       d="m 135.2866,53.7642 c 0.4109,0.5462 0.8033,1.1072 1.1815,1.6772 -0.3782,-0.5707 -0.7706,-1.131 -1.1815,-1.6772 z"
       style="fill:#ffffff;fill-rule:evenodd"
       id="path48" />
    <path
       d="m 130.8198,48.8916 c 0.5142,0.4623 1.0128,0.9415 1.4981,1.4342 -0.4853,-0.4927 -0.9839,-0.9719 -1.4981,-1.4342 z"
       style="fill:#ffffff;fill-rule:evenodd"
       id="path49" />
    <path
       d="m 132.5445,50.5637 c 0.399,0.4124 0.7869,0.8359 1.1652,1.2684 -0.3783,-0.4332 -0.7662,-0.856 -1.1652,-1.2684 z"
       style="fill:#ffffff;fill-rule:evenodd"
       id="path50" />
    <path
       d="m 80.7841,53.6743 c 0.3842,-0.5068 0.7855,-1.0002 1.1965,-1.4848 -0.411,0.4846 -0.8123,0.978 -1.1965,1.4848 z"
       style="fill:#ffffff;fill-rule:evenodd"
       id="path51" />
    <path
       d="m 85.3297,48.7631 c 0.4563,-0.4065 0.9252,-0.7989 1.403,-1.1801 -0.4786,0.3812 -0.9467,0.7736 -1.403,1.1801 z"
       style="fill:#ffffff;fill-rule:evenodd"
       id="path52" />
    <path
       d="m 92.7348,43.7434 c 0.5432,-0.272 1.0946,-0.5313 1.6534,-0.7751 -0.5596,0.243 -1.1102,0.5031 -1.6534,0.7751 z"
       style="fill:#ffffff;fill-rule:evenodd"
       id="path53" />
    <path
       d="m 78.45,57.1936 c 0.269,-0.4652 0.5492,-0.9229 0.839,-1.3732 -0.2898,0.4503 -0.57,0.908 -0.839,1.3732 z"
       style="fill:#ffffff;fill-rule:evenodd"
       id="path54" />
    <path
       d="m 79.5327,55.4399 c 0.3783,-0.5692 0.7691,-1.1295 1.1801,-1.6742 -0.4103,0.5447 -0.8018,1.105 -1.1801,1.6742 z"
       style="fill:#ffffff;fill-rule:evenodd"
       id="path55" />
    <path
       d="m 136.7096,55.8174 c 0.2905,0.4518 0.5707,0.9103 0.8412,1.3762 -0.2697,-0.4659 -0.5507,-0.9244 -0.8412,-1.3762 z"
       style="fill:#ffffff;fill-rule:evenodd"
       id="path56" />
    <path
       d="m 82.2934,51.8292 c 0.376,-0.4303 0.7617,-0.8509 1.1584,-1.2619 -0.3967,0.411 -0.7824,0.8316 -1.1584,1.2619 z"
       style="fill:#ffffff;fill-rule:evenodd"
       id="path57" />
    <path
       d="m 83.6837,50.3244 c 0.4846,-0.492 0.9825,-0.9698 1.4959,-1.432 -0.5134,0.4622 -1.0113,0.94 -1.4959,1.432 z"
       style="fill:#ffffff;fill-rule:evenodd"
       id="path58" />
    <path
       d="m 105.87,40.2114 c 0.7052,-0.0431 1.4141,-0.0728 2.1305,-0.0728 -0.7164,0 -1.4253,0.0297 -2.1305,0.0728 z"
       style="fill:#ffffff;fill-rule:evenodd"
       id="path59" />
    <path
       d="m 119.4851,42.1249 c 0.6502,0.2326 1.2923,0.4816 1.9239,0.7513 -0.6316,-0.2697 -1.2737,-0.5187 -1.9239,-0.7513 z"
       style="fill:#ffffff;fill-rule:evenodd"
       id="path60" />
    <path
       d="m 112.89,40.493 c 0.6896,0.0989 1.374,0.2133 2.0503,0.353 -0.6763,-0.1397 -1.3607,-0.2541 -2.0503,-0.353 z"
       style="fill:#ffffff;fill-rule:evenodd"
       id="path61" />
    <path
       d="m 103.6763,40.4209 c 0.5246,-0.0661 1.0523,-0.1203 1.5843,-0.1627 -0.532,0.0424 -1.0597,0.0966 -1.5843,0.1627 z"
       style="fill:#ffffff;fill-rule:evenodd"
       id="path62" />
    <path
       d="m 108.0005,40.1386 c 0.7156,0 1.4252,0.0297 2.1297,0.0728 -0.7052,-0.0431 -1.4141,-0.0728 -2.1297,-0.0728 z"
       style="fill:#ffffff;fill-rule:evenodd"
       id="path63" />
    <path
       d="m 121.6089,42.9668 c 0.5611,0.2445 1.1132,0.5046 1.6579,0.7773 -0.5447,-0.2727 -1.0968,-0.5328 -1.6579,-0.7773 z"
       style="fill:#ffffff;fill-rule:evenodd"
       id="path64" />
    <path
       d="m 110.7396,40.2582 c 0.532,0.0424 1.0603,0.0966 1.5849,0.1627 -0.5246,-0.0661 -1.0529,-0.1203 -1.5849,-0.1627 z"
       style="fill:#ffffff;fill-rule:evenodd"
       id="path65" />
    <path
       d="m 117.4973,41.4881 c 0.5246,0.1515 1.0434,0.315 1.5568,0.4912 -0.5134,-0.1762 -1.0322,-0.3397 -1.5568,-0.4912 z"
       style="fill:#ffffff;fill-rule:evenodd"
       id="path66" />
    <path
       d="m 129.2651,47.5808 c 0.4801,0.3834 0.9512,0.778 1.4105,1.186 -0.4593,-0.408 -0.9304,-0.8026 -1.4105,-1.186 z"
       style="fill:#ffffff;fill-rule:evenodd"
       id="path67" />
    <path
       d="m 127.4609,46.2358 c 0.4904,0.3411 0.9705,0.6947 1.4416,1.0604 -0.4711,-0.3657 -0.9512,-0.7193 -1.4416,-1.0604 z"
       style="fill:#ffffff;fill-rule:evenodd"
       id="path68" />
    <path
       d="m 125.5051,44.968 c 0.5937,0.356 1.1763,0.7283 1.7463,1.1184 -0.57,-0.3901 -1.1526,-0.7624 -1.7463,-1.1184 z"
       style="fill:#ffffff;fill-rule:evenodd"
       id="path69" />
    <path
       d="m 101.0605,40.846 c 0.6755,-0.1397 1.36,-0.2541 2.0495,-0.353 -0.6895,0.0989 -1.374,0.2133 -2.0495,0.353 z"
       style="fill:#ffffff;fill-rule:evenodd"
       id="path70" />
    <path
       d="m 96.9467,41.9785 c 0.5135,-0.1754 1.0322,-0.3389 1.5553,-0.4904 -0.5238,0.1515 -1.0418,0.315 -1.5553,0.4904 z"
       style="fill:#ffffff;fill-rule:evenodd"
       id="path71" />
    <path
       d="m 94.5918,42.8762 c 0.6309,-0.2697 1.2729,-0.5187 1.9224,-0.7513 -0.6495,0.2326 -1.2915,0.4816 -1.9224,0.7513 z"
       style="fill:#ffffff;fill-rule:evenodd"
       id="path72" />
    <path
       d="m 115.1089,40.8854 c 0.6221,0.1315 1.2373,0.2831 1.8467,0.4488 -0.6094,-0.1657 -1.2246,-0.3173 -1.8467,-0.4488 z"
       style="fill:#ffffff;fill-rule:evenodd"
       id="path73" />
    <path
       d="m 123.7127,43.973 c 0.5135,0.2668 1.0195,0.5454 1.5174,0.8375 -0.4979,-0.2921 -1.0039,-0.5707 -1.5174,-0.8375 z"
       style="fill:#ffffff;fill-rule:evenodd"
       id="path74" />
    <path
       d="m 99.0452,41.3335 c 0.6087,-0.165 1.2232,-0.3158 1.8452,-0.4481 -0.622,0.1315 -1.2365,0.2831 -1.8452,0.4481 z"
       style="fill:#ffffff;fill-rule:evenodd"
       id="path75" />
    <path
       d="m 131.8957,74.2754 c 0,13.1969 -10.6985,23.8955 -23.8952,23.8955 -13.1976,0 -23.8954,-10.6986 -23.8954,-23.8955 0,-13.1975 10.6978,-23.896 23.8954,-23.896 13.1967,0 23.8952,10.6985 23.8952,23.896 z"
       style="display:inline;fill:none;stroke:#1b1918;stroke-width:1.44;stroke-linecap:butt;stroke-linejoin:miter;stroke-dasharray:none"
       id="path76" />
    <path
       d="m 98.1037,154.7116 h 0.1829 c 1.2328,0 1.5612,-0.639 1.5887,-1.1228 h 1.05 v 6.4829 h -1.2781 v -4.4653 h -1.5435 z"
       style="fill:#1b1918;fill-rule:evenodd"
       id="path87" />
    <path
       d="m 104.03,155.7341 c 0,-0.9311 0.5938,-1.0953 0.9222,-1.0953 0.6577,0 0.9772,0.4563 0.9772,1.1957 0,0.7676 -0.4934,1.0871 -0.9408,1.0871 -0.4838,0 -0.9586,-0.2103 -0.9586,-1.1875 z m -1.1503,2.8402 c 0.1093,1.0314 0.9036,1.6705 2.0086,1.6705 1.1689,0 2.3556,-0.8122 2.3556,-3.3232 0,-0.9132 -0.0363,-3.3328 -2.2828,-3.3328 -1.2692,0 -2.2092,0.7394 -2.2092,2.3282 0,1.0864 0.7208,2.0271 1.9632,2.0271 0.4378,0 0.9401,-0.1099 1.2321,-0.5476 l 0.0186,0.0178 c -0.009,1.3606 -0.5387,1.808 -1.0685,1.808 -0.3925,0 -0.6755,-0.1917 -0.7484,-0.6391 v -0.009 z"
       style="fill:#1b1918;fill-rule:evenodd"
       id="path88" />
    <path
       d="m 112.303,154.6841 c -0.6212,0.6755 -2.2099,2.5934 -2.3653,5.3876 h -1.3145 c 0.1367,-2.5935 1.7619,-4.6571 2.3096,-5.2411 h -3.2229 l 0.0275,-1.1326 h 4.5656 z"
       style="fill:#1b1918;fill-rule:evenodd"
       id="path89" />
    <path
       d="m 115.9554,157.9895 c 0,0.8768 -0.4296,1.2328 -0.8948,1.2328 -0.6123,0 -1.0135,-0.5024 -1.0135,-1.2053 0,-0.8122 0.4926,-1.1139 0.9764,-1.1139 0.402,0 0.9319,0.2645 0.9319,1.0864 z m 1.1503,-2.7577 c -0.1189,-0.6844 -0.2467,-0.8761 -0.6027,-1.2231 -0.3195,-0.3195 -1.0589,-0.4199 -1.3242,-0.4199 -2.2457,0 -2.4106,2.164 -2.4106,3.3968 0,1.6162 0.3834,3.2592 2.3467,3.2592 1.2514,0 2.1186,-0.949 2.1186,-2.3646 0,-0.9682 -0.6391,-1.9997 -1.9811,-1.9997 -0.7216,0 -1.0411,0.301 -1.215,0.5388 l -0.0179,-0.0186 c 0.0454,-0.8397 0.2371,-1.7894 1.0679,-1.7894 0.4749,0 0.7126,0.2556 0.749,0.6205 z"
       style="fill:#1b1918;fill-rule:evenodd"
       id="path90" />
    <g
       id="Layer1005">
      <path
         d="m 122.5832,68.6301 c -0.2416,0.5818 -0.4288,0.8575 -0.9617,1.3904 -0.7743,0.6145 -1.5686,1.0521 -2.3838,1.3123 -0.8152,0.2608 -1.6163,0.3351 -2.4055,0.2244 -0.6747,-0.0951 -1.2484,-0.3047 -1.7225,-0.6294 -0.4734,-0.3248 -0.8568,-0.7796 -1.1504,-1.3644 l 10.8517,-5.0122 c -0.5908,-1.545 -1.4305,-2.7941 -2.5192,-3.7505 -1.0894,-0.9549 -2.3236,-1.5301 -3.7029,-1.724 -2.1572,-0.3032 -4.0848,0.1924 -5.7836,1.4854 -1.698,1.2938 -2.7026,3.0475 -3.0139,5.2627 -0.3204,2.2799 0.1412,4.3086 1.3865,6.0861 1.2447,1.779 2.9249,2.8164 5.0413,3.1136 1.1079,0.1561 2.2122,0.0877 3.3128,-0.2043 1.1005,-0.2921 2.0955,-0.7833 2.9857,-1.4736 0,0 1.71,-1.189 2.546,-3.3292 z m -9.3253,-2.3156 c 0.006,-0.1805 0.0215,-0.3596 0.046,-0.5387 0.1628,-1.1578 0.7038,-2.08 1.6244,-2.7688 0.9208,-0.6889 1.9664,-0.9505 3.1375,-0.7862 0.4578,0.0646 0.8798,0.1962 1.2677,0.3931 0.3872,0.1969 0.7446,0.4674 1.073,0.8115 l -7.1457,3.4933 c -0.008,-0.2215 -0.009,-0.4229 -0.003,-0.6042 z"
         style="fill:#e41e15;fill-rule:evenodd;stroke:#ffffff;stroke-width:0.21;stroke-linecap:butt;stroke-linejoin:miter;stroke-dasharray:none"
         id="path91" />
      <path
         d="m 123.0305,77.3735 -1.6631,3.1322 c -0.7223,-0.4473 -1.3472,-0.7572 -1.8756,-0.9296 -0.5291,-0.1725 -1.0767,-0.2594 -1.6437,-0.2594 -1.1994,0 -2.1915,0.4176 -2.9777,1.2529 -0.7862,0.8352 -1.1793,1.8956 -1.1793,3.1798 0,1.2848 0.3894,2.3415 1.1696,3.17 0.7803,0.8293 1.7761,1.2433 2.9881,1.2433 0.567,0 1.1667,-0.1345 1.7983,-0.4043 0.6317,-0.269 1.3146,-0.6732 2.0495,-1.2128 l 1.4112,3.4629 c -0.839,0.564 -1.7196,0.9995 -2.6425,1.3072 -0.923,0.3076 -1.7969,0.4614 -2.6224,0.4614 -2.2844,0 -4.1971,-0.7713 -5.7391,-2.3155 -1.5419,-1.5442 -2.3124,-3.4413 -2.3124,-5.6929 0,-2.2643 0.7676,-4.1748 2.3028,-5.7316 1.5353,-1.5561 3.4517,-2.3349 5.7487,-2.3349 0.7743,0 1.5969,0.1397 2.4678,0.4176 0.8709,0.2787 1.7775,0.6964 2.7198,1.2537 z"
         style="fill:#e41e15;fill-rule:evenodd;stroke:#ffffff;stroke-width:0.21;stroke-linecap:butt;stroke-linejoin:miter;stroke-dasharray:none"
         id="path92" />
    </g>
    <g
       id="Layer1006">
      <path
         d="m 108.317,60.959 h -5.2315 v 19.7845 c 0,4.09 -3.7725,4.1852 -3.7725,4.1852 -4.7354,0 -4.3125,-4.1852 -4.3125,-4.1852 v -3.8047 h -5.2314 v 5.2314 c 0,0 0.6184,7.9721 9.4109,7.9721 0,0 9.137,-0.0773 9.137,-7.9721 z"
         style="fill:#1b1918;fill-rule:evenodd"
         id="path93" />
      <path
         d="m 108.5645,57.4396 c 0,1.6601 -1.3451,3.0059 -3.0059,3.0059 -1.6601,0 -3.0059,-1.3458 -3.0059,-3.0059 0,-1.6608 1.3458,-3.0059 3.0059,-3.0059 1.6608,0 3.0059,1.3451 3.0059,3.0059 z"
         style="fill:#1b1918;fill-rule:evenodd"
         id="path94" />
    </g>
    <g
       id="Layer1007"
       transform="matrix(-0.9948785,0.14601385,0.10107807,0.99031309,200.55984,-17.418512)"
       style="opacity:1;fill:none;stroke:#000000;stroke-width:0.72;stroke-dasharray:none;stroke-opacity:1">
      <path
         d="m 100.2008,130.3318 c 0,0 8.6238,-3.4243 14.0766,-1.9024 0,0 -5.4528,4.6919 -14.8376,3.5505"
         style="fill:none;stroke:#000000;stroke-width:0.72;stroke-linecap:butt;stroke-linejoin:miter;stroke-dasharray:none;stroke-opacity:1"
         id="path95" />
      <path
         d="m 101.0881,133.756 c 0,0 1.1414,-1.2685 3.5513,-1.2685 0,0 4.5337,0.0951 4.5337,1.4268 0,0 -0.1076,0.5412 -1.2365,1.0462 -0.4015,0.1797 -0.7712,0.3593 -1.6274,1.0674 -0.5286,0.4372 -3.0334,4.3543 -4.9358,4.3543"
         style="fill:none;stroke:#000000;stroke-width:0.72;stroke-linecap:butt;stroke-linejoin:miter;stroke-dasharray:none;stroke-opacity:1"
         id="path96" />
      <path
         d="m 101.3734,140.3822 h -0.5707 v -0.6658"
         style="fill:none;stroke:#000000;stroke-width:0.72;stroke-linecap:butt;stroke-linejoin:miter;stroke-dasharray:none;stroke-opacity:1"
         id="path97" />
      <path
         d="m 100.8027,139.7164 c 0,0 0.1798,-3.1495 5.3162,-5.3372"
         style="fill:none;stroke:#000000;stroke-width:0.72;stroke-linecap:butt;stroke-linejoin:miter;stroke-dasharray:none;stroke-opacity:1"
         id="path98" />
      <path
         d="m 106.1189,134.3792 -3.0334,0.0107"
         style="fill:none;stroke:#000000;stroke-width:0.72;stroke-linecap:butt;stroke-linejoin:miter;stroke-dasharray:none;stroke-opacity:1"
         id="path99" />
      <path
         d="m 103.0855,134.3899 c 0,0 1.2366,0.1902 1.8072,0.5706"
         style="fill:none;stroke:#000000;stroke-width:0.72;stroke-linecap:butt;stroke-linejoin:miter;stroke-dasharray:none;stroke-opacity:1"
         id="path100" />
      <path
         d="m 107.5293,128.3469 c 0,0 2.3096,-1.4402 2.6901,-3.9764 0,0 -8.878,1.776 -15.4723,9.7659 0,0 -0.6978,0.9193 -0.6978,1.6802 0,0 -0.0795,2.5846 3.0995,3.0995"
         style="fill:none;stroke:#000000;stroke-width:0.72;stroke-linecap:butt;stroke-linejoin:miter;stroke-dasharray:none;stroke-opacity:1"
         id="path101" />
      <path
         d="m 96.3961,139.7164 c 0,0 1.6482,-2.2828 4.1212,-2.2828 0,0 0.9297,0.0698 1.2507,0.3909"
         style="fill:none;stroke:#000000;stroke-width:0.72;stroke-linecap:butt;stroke-linejoin:miter;stroke-dasharray:none;stroke-opacity:1"
         id="path102" />
      <path
         d="m 95.9978,132.7216 c 0,0 -3.185,-0.0439 -6.8946,3.856 0,0 -0.5707,0.6182 -0.5707,0.9511 0,0 0,0.6658 0.7609,0.6658 0,0 0.6183,-0.0475 1.0463,-0.4755 0.428,-0.428 2.6582,-3.078 4.4074,-3.5826"
         style="fill:none;stroke:#000000;stroke-width:0.72;stroke-linecap:butt;stroke-linejoin:miter;stroke-dasharray:none;stroke-opacity:1"
         id="path103" />
      <path
         d="m 105.8484,136.5144 c 0.7476,-0.7468 2.3735,-0.6978 2.3735,-0.6978 2.3779,0 5.0412,3.1389 5.0412,3.1389"
         style="fill:none;stroke:#000000;stroke-width:0.72;stroke-linecap:butt;stroke-linejoin:miter;stroke-dasharray:none;stroke-opacity:1"
         id="path104" />
      <path
         d="m 113.2631,138.9555 h 2.8535"
         style="display:inline;fill:none;stroke:#000000;stroke-width:0.72;stroke-linecap:butt;stroke-linejoin:miter;stroke-dasharray:none;stroke-opacity:1"
         id="path105" />
      <path
         d="m 116.1166,138.9555 c 0,0 -0.1902,1.617 -1.0463,2.2829 0,0 0.9512,-0.1903 1.2366,-0.8562 0,0 1.3316,0.0952 1.9023,0.3805 0.5707,0.2854 1.5219,0.761 3.1389,0.2854 1.617,-0.4756 3.0185,-0.078 3.995,0.6658 0.9987,0.7609 1.4267,1.8073 1.4267,2.5682 0,0 -4.7559,-2.045 -8.085,-2.045 0,0 -2.7109,-0.0952 -4.0901,0.9987 -1.536,1.2187 -2.8535,2.0926 -4.9461,1.2366 -2.0925,-0.8562 -4.5656,-0.3805 -5.9923,0.4755 -1.4268,0.8561 -2.1878,1.1414 -4.0901,0.2854 -1.9024,-0.8561 -7.3241,0.0951 -7.9899,0.5707 0,0 1.7121,-3.0438 4.5656,-3.0438 2.8536,0 3.8048,0.856 3.8048,0.856 0,0 1.4267,0.8562 1.9023,0.8562 0,0 2.2828,-3.5194 4.6608,-4.8511"
         style="fill:none;stroke:#000000;stroke-width:0.72;stroke-linecap:butt;stroke-linejoin:miter;stroke-dasharray:none;stroke-opacity:1"
         id="path106" />
      <path
         d="m 103.7967,139.0016 c 0,0 0.1798,2.1119 1.6371,1.3658"
         style="fill:none;stroke:#000000;stroke-width:0.72;stroke-linecap:butt;stroke-linejoin:miter;stroke-dasharray:none;stroke-opacity:1"
         id="path107" />
      <path
         d="m 96.237,136.102 c 0,0 0.6658,-0.5707 1.3317,-0.6658"
         style="fill:none;stroke:#000000;stroke-width:0.72;stroke-linecap:butt;stroke-linejoin:miter;stroke-dasharray:none;stroke-opacity:1"
         id="path108" />
    </g>
  </g>
</svg>
