<?xml version="1.0" encoding="UTF-8" standalone="no"?>
<svg
   version="1.1"
   width="1.5547389in"
   height="1.4559919in"
   viewBox="0 0 111.9412 104.83141"
   id="svg16"
   sodipodi:docname="JUVENT~1.cdr"
   xmlns:inkscape="http://www.inkscape.org/namespaces/inkscape"
   xmlns:sodipodi="http://sodipodi.sourceforge.net/DTD/sodipodi-0.dtd"
   xmlns="http://www.w3.org/2000/svg"
   xmlns:svg="http://www.w3.org/2000/svg">
  <defs
     id="defs16" />
  <sodipodi:namedview
     id="namedview16"
     pagecolor="#ffffff"
     bordercolor="#000000"
     borderopacity="0.25"
     inkscape:showpageshadow="2"
     inkscape:pageopacity="0.0"
     inkscape:pagecheckerboard="0"
     inkscape:deskcolor="#d1d1d1"
     inkscape:document-units="in" />
  <g
     id="Layer1003"
     transform="translate(-52.029499,-55.584297)">
    <path
       d="m 108.0522,55.5843 c 30.7706,0 55.9185,23.5556 55.9185,52.4164 0,28.8591 -25.1479,52.415 -55.9185,52.415 -30.8763,0 -56.0227,-23.5559 -56.0227,-52.415 0,-28.8608 25.1464,-52.4164 56.0227,-52.4164 z"
       style="fill:#008a53;fill-rule:evenodd"
       id="path10" />
    <path
       d="m 108.0522,59.1918 c 28.6492,0 52.0988,21.9647 52.0988,48.8089 0,26.8443 -23.4496,48.8086 -52.0988,48.8086 -28.7535,0 -52.203,-21.9643 -52.203,-48.8086 0,-26.8442 23.4495,-48.8089 52.203,-48.8089 z"
       style="fill:#ffffff;fill-rule:evenodd"
       id="path11" />
    <path
       d="m 99.1399,100.6799 c 0.7426,-0.3198 1.4853,-0.6374 2.2283,-0.849 0,1.9095 0,3.8193 0,5.6226 0,2.016 0,3.9259 0,5.7289 0,0.8494 -0.5298,1.3818 -1.0609,1.3818 -0.5311,0.1035 -1.2737,0 -1.9099,-0.2129 -0.7426,-0.3195 -1.4853,-0.849 -1.9097,-1.2734 -0.5308,-0.425 -0.849,-1.0608 -0.849,-1.4853 0,-0.6379 0,-1.2738 0,-1.9101 0.849,0 1.4853,0.105 2.2274,0.2116 0.1069,0.7429 0.1069,1.4853 0.1069,2.2277 0,0.3197 0.1064,0.6376 0.1064,0.7442 0.1052,0.1049 0.318,0.2119 0.4247,0.2119 0.105,0 0.3176,0.1045 0.4229,0 0.1066,0 0.2129,-0.3185 0.2129,-0.6364 0,-1.5919 0,-3.1832 0,-4.8814 0,-1.5917 0,-3.2884 0,-4.8802 z m 7.0029,-2.6542 c 0.7429,-0.2112 1.3787,-0.4232 2.123,-0.6359 0.1046,2.5473 0.1046,5.0933 0.1046,7.6391 0,2.547 0,4.9882 0,7.5353 0,1.0593 -0.4242,1.908 -0.9539,2.1217 -0.5308,0.2126 -1.2737,0.2126 -2.0159,0 -0.6363,-0.1071 -1.3802,-0.5301 -1.9101,-1.0624 -0.5311,-0.4229 -0.8489,-1.2722 -0.8489,-2.1212 0,-2.0164 0,-4.0328 0,-6.1538 0,-2.0165 0,-4.0323 -0.1068,-6.0489 0.7429,-0.212 1.4856,-0.5296 2.2295,-0.7427 0,2.123 0,4.457 0,6.5784 0,2.228 0,4.3506 0,6.5796 0,0.4232 0,0.7427 0.105,0.8493 0.106,0.2101 0.318,0.3164 0.5313,0.3164 0.1066,0 0.4242,0 0.5292,-0.1063 0.1066,0 0.213,-0.423 0.213,-0.7425 0,-2.3345 0,-4.6685 0,-7.0029 0,-2.3342 0,-4.6688 0,-7.0032 z m 2.7588,-0.8475 c 0.7429,-0.2126 1.4852,-0.4246 2.228,-0.5306 0.106,1.2735 0.2131,2.652 0.3182,4.0323 0.1065,1.2719 0.3191,2.6521 0.4241,3.9258 0,0.9544 0.2116,2.439 0.2116,3.8197 0,1.4848 0.1066,2.8638 0.2132,3.9259 0.1065,0 0.1065,0 0.1065,0 0,-1.1689 0.1066,-2.3342 0.2132,-3.5017 0,-1.1671 0.1066,-2.4406 0.21,-3.6081 0.1066,-1.5913 0.3196,-3.0764 0.3196,-4.5616 0.1062,-1.5923 0.2126,-3.0774 0.3187,-4.6687 0.8494,-0.1065 1.4863,-0.2131 2.2285,-0.4247 -0.213,3.6067 -0.6362,7.1082 -0.8488,10.5043 -0.3203,3.3951 -0.5303,6.8966 -0.8495,10.2928 -1.0619,-0.213 -2.228,-0.4258 -3.2899,-0.6387 -0.3182,-3.1807 -0.6363,-6.3655 -0.9539,-9.4425 -0.2132,-3.0769 -0.5314,-6.1537 -0.8495,-9.1242 z m 12.5193,19.8412 c -1.5918,0 -3.287,-0.2127 -4.9854,-0.3192 0,-3.6063 0,-7.1076 0,-10.6094 0,-3.6077 0,-7.1092 0,-10.6109 1.6984,-0.3176 3.2901,-0.5307 4.8818,-0.6363 0,0.9545 0,1.91 0,2.8643 -0.8494,0.1066 -1.8048,0.2132 -2.6536,0.3178 0,0.9559 0,1.8052 0,2.7592 0,0.9555 0,1.9098 0,2.8653 0.8488,-0.1066 1.6982,-0.1066 2.547,-0.1066 0,0.8489 0,1.8049 0,2.8654 -0.8488,0 -1.6982,0 -2.547,0 0,1.2735 0,2.5457 0,3.8196 0,1.2737 0,2.5457 0,3.9272 0.8488,0 1.8042,0.1038 2.6536,0.1038 0.1036,0.9553 0.1036,1.911 0.1036,2.7598 z m 0.8488,-22.2818 c 1.0626,-0.1066 2.228,-0.213 3.2906,-0.213 0.106,1.0619 0.2126,2.229 0.3192,3.2899 0,1.0605 0.1064,2.3342 0.21,3.3945 0.1066,0.9561 0.3196,2.0165 0.4256,2.9724 0.1067,1.0601 0.2133,2.2276 0.2133,3.1819 0.1039,1.0621 0.2099,2.1226 0.3165,3.2896 0,0.9558 0.1065,2.1214 0.1065,3.1837 0.1066,0 0.1066,0 0.1066,0 0,-0.3196 0,-0.7427 0,-1.1689 0,-1.059 0,-2.2262 0,-3.2883 0,-1.1671 -0.1066,-2.2281 -0.1066,-3.2886 0,-1.9094 0,-3.9257 0,-5.8357 0,-1.9093 0,-3.8207 0,-5.7305 0.6364,0 1.2727,0 1.8049,0 0,3.7141 0,7.4272 0,11.2481 0,3.7132 0,7.5342 0,11.2467 -1.062,0 -2.124,0.1068 -3.1834,0.1068 -0.1066,-1.8045 -0.3197,-3.7128 -0.5298,-5.6239 -0.106,-1.805 -0.3191,-3.8198 -0.5323,-5.6246 -0.1065,-1.272 -0.3166,-2.7588 -0.4236,-4.0309 0,-1.1669 -0.2121,-2.5472 -0.3193,-3.8211 v 0 c 0,0.4251 0,1.0619 0,1.3801 0,0.4251 0,1.0609 0,1.4851 0,2.7593 0,5.4115 0,8.0638 0,2.7602 0,5.5175 0,8.1715 -0.529,0 -1.1654,0 -1.6982,0 0,-3.7128 0,-7.4289 0,-11.2485 0,-3.7126 0,-7.4269 0,-11.1401 z m 7.6421,-0.213 c 2.0148,0.1064 4.0297,0.319 5.9407,0.5306 0,0.956 0,1.9104 0,2.8659 -0.5298,-0.1066 -1.2721,-0.2132 -1.911,-0.2132 0,3.077 0,6.2605 0,9.3368 0,3.1839 0,6.3687 0,9.4454 -0.7428,0.1037 -1.3786,0.2101 -2.1213,0.2101 0,-3.1832 0,-6.3647 0,-9.5489 0,-3.1829 0,-6.4714 0,-9.6544 -0.6364,0 -1.2721,0 -2.015,0 0,-0.9565 0.1066,-2.017 0.1066,-2.9723 z m 10.2901,1.3801 c 0.8489,0.1065 1.4851,0.3181 2.2275,0.5297 0,2.6532 0,5.1994 0,7.852 0,2.5473 0,5.1995 0,7.8517 0,1.0625 -0.3166,2.0177 -0.8458,2.5478 -0.5328,0.529 -1.2757,0.9553 -2.0186,1.1654 -0.6356,0 -1.378,0 -1.9077,-0.2101 -0.5329,-0.4263 -0.8495,-1.3816 -0.8495,-2.6538 0,-2.9703 -0.1064,-5.9427 -0.1064,-8.806 0,-2.9724 0,-5.9427 0,-9.0191 0.7428,0.2111 1.4856,0.3176 2.228,0.4242 0,2.7593 0,5.6225 0,8.4883 0,2.7589 0,5.5178 0,8.2765 0,0.5293 0,0.9556 0.1066,1.0621 0.1064,0.1036 0.3166,0.1036 0.529,0.1036 0.2137,0 0.4263,-0.1036 0.5303,-0.3164 0,-0.1067 0.1066,-0.5329 0.1066,-0.9561 0,-2.7586 0,-5.5174 0,-8.1697 0,-2.7586 0,-5.5179 0,-8.1701 z m 3.3967,18.6741 c 0,-3.0765 0,-5.9418 0,-8.9127 0,-2.9714 0,-5.9423 0,-8.9125 0.9549,0.212 1.9108,0.5296 2.6536,0.7433 1.0589,0.3176 1.9078,0.9539 2.4376,1.5907 0.4262,0.6362 0.7428,1.5923 0.7428,2.7592 0,1.3787 0,2.7589 0,4.244 0,1.2725 -0.1039,2.7588 -0.1039,4.1378 0,0.6374 -0.2127,1.3801 -0.6389,2.0159 -0.3166,0.5298 -1.1655,1.0624 -1.9083,1.2725 -1.0621,0.3196 -2.0181,0.7426 -3.1829,1.0618 z m 2.334,-15.173 c 0,2.1214 -0.1066,4.1378 -0.1066,6.2603 0,2.0164 0,4.2441 0,6.2589 0.1066,0 0.4262,-0.1034 0.5298,-0.1034 0.2126,0 0.5323,-0.1067 0.6387,-0.3193 0.1035,-0.1068 0.1035,-0.5314 0.1035,-0.9555 0,-1.6972 0,-3.1835 0,-4.8807 0,-1.4847 0,-3.183 0,-4.7752 0,-0.4242 0,-0.9538 -0.1035,-1.06 -0.1064,-0.1071 -0.4261,-0.3186 -0.6387,-0.3186 -0.1036,0 -0.3172,-0.1065 -0.4232,-0.1065 z m 9.6564,10.8228 c -1.5917,0.7423 -3.2901,1.3801 -4.9878,2.0159 0,-2.2274 0,-4.3504 0,-6.5784 0,-2.1225 0,-4.3499 0,-6.5785 1.6977,0.7433 3.2895,1.4857 4.8812,2.2286 0,0.4242 0,0.8489 0,1.1669 -0.8489,-0.318 -1.8048,-0.6363 -2.6537,-0.9559 0,0.5312 0,1.0621 0,1.4867 0,0.5297 0,1.0609 0,1.4852 0.8489,0.1066 1.6982,0.2116 2.5471,0.3182 0,0.4242 0,0.7428 0,1.1675 -0.8489,0 -1.6982,0 -2.5471,0 0,0.6358 0,1.2735 0,2.0159 0,0.6363 0,1.2734 0,2.0164 0.8489,-0.3198 1.8048,-0.6377 2.6537,-0.8494 0.1066,0.3182 0.1066,0.7425 0.1066,1.0609 z"
       style="fill:#008a53;fill-rule:evenodd"
       id="path12" />
    <path
       d="m 77.3889,98.77 c 3.9259,0 7.321,3.2884 7.321,7.4274 0,3.9244 -3.3951,7.3196 -7.321,7.3196 -4.1392,0 -7.4275,-3.3952 -7.4275,-7.3196 0,-4.139 3.2883,-7.4274 7.4275,-7.4274 z"
       style="fill:#008a53;fill-rule:evenodd"
       id="path13" />
    <path
       d="m 91.6062,128.904 0.4245,0.5297 v 0 c -0.5297,0.3196 -1.0606,0.3196 -1.379,0.213 -0.5308,-0.1063 -0.9552,-0.5324 -1.1669,-0.849 -0.4244,-0.5324 -0.4244,-1.1687 -0.2129,-1.6983 0.1061,-0.4231 0.4246,-0.8489 1.0605,-1.3784 0.6377,-0.2131 1.2738,-0.4261 1.8046,-0.3197 0.4245,0.1066 0.9543,0.3197 1.379,0.9557 0.2129,0.3193 0.3194,0.9554 0.3194,1.1656 -0.1065,0.4262 -0.3194,0.8493 -0.6376,0.9559 v 0 l -0.3179,-0.3167 v 0 c 0.1063,-0.213 0.3179,-0.5328 0.3179,-0.7428 0,-0.1066 0,-0.5325 -0.3179,-0.8493 -0.1066,-0.3192 -0.531,-0.5323 -0.8492,-0.5323 -0.4245,0 -0.9542,0.1068 -1.2737,0.3196 -0.5296,0.3193 -0.9541,0.6359 -1.0605,1.062 -0.1066,0.21 0,0.7428 0.1064,1.0595 0.318,0.3192 0.5295,0.4255 0.8488,0.5292 0.2116,0 0.7427,0.1066 0.9545,-0.1037 z m 1.4851,1.4853 0.7441,1.1659 1.1669,-1.8019 z m -2.228,0.1068 4.4572,-1.3818 0.4246,0.5324 -2.5473,4.0327 -0.3179,-0.5325 0.7425,-1.0594 -1.0609,-1.3813 -1.3801,0.3194 z m 2.228,3.287 2.5474,-0.6362 0.6359,-2.6508 0.4247,0.5295 -0.3181,2.0149 1.9095,-0.5297 0.4247,0.4231 -2.4408,0.639 -0.4243,2.7572 -0.6366,-0.5296 0.425,-2.1211 -2.0163,0.5292 z m 3.1833,2.8667 2.8653,-3.3964 0.5311,0.426 -3.0784,3.3933 z m 2.8653,0 0.9542,0.9525 0.5311,-2.0146 z m -2.2278,0.7423 3.9263,-2.5471 0.5298,0.3197 -1.379,4.6684 -0.5309,-0.4263 0.5309,-1.3782 -1.3801,-1.0621 -1.2722,0.8489 z m 4.1376,1.2726 0.3185,0.4257 v 0 c -0.1067,0.2101 -0.212,0.4232 -0.1067,0.7427 0,0.2099 0.2127,0.5294 0.5311,0.636 0.318,0.2133 0.6374,0.2133 0.7422,0.2133 0.2131,0 0.6379,0 0.6379,-0.2133 0.2115,-0.3194 0,-0.636 -0.5311,-1.1686 l -0.1068,-0.1061 c -0.4242,-0.4232 -0.6358,-0.8463 -0.6358,-1.0596 -0.1064,-0.2128 0,-0.5325 0.1063,-0.849 0.2118,-0.3193 0.5295,-0.5296 0.8474,-0.636 0.32,0 0.7429,0 1.2737,0.4229 0.4247,0.2131 0.6379,0.6364 0.6379,0.8493 0.105,0.4261 0.105,0.8492 0,1.2724 v 0 l -0.6379,-0.4232 v 0 c 0.1066,-0.2132 0.1066,-0.4231 0,-0.7426 0,-0.2132 -0.106,-0.4263 -0.3176,-0.6365 -0.3183,-0.1063 -0.5311,-0.1063 -0.6361,-0.1063 -0.32,0 -0.4248,0.1063 -0.5311,0.3165 -0.2116,0.3197 -0.1068,0.5325 0.4244,1.1689 0.1067,0 0.1067,0.2129 0.1067,0.2129 l 0.105,0.1063 c 0.2128,0.3164 0.5311,0.6361 0.5311,0.7427 0.1066,0 0.1066,0.2099 0.1066,0.3166 0,0.3194 -0.1066,0.4261 -0.1066,0.5327 -0.3183,0.4228 -0.6361,0.6359 -0.9561,0.6359 -0.3179,0 -0.9537,-0.1065 -1.3785,-0.4257 -0.4245,-0.3168 -0.7424,-0.7429 -0.849,-0.9533 -0.1063,-0.4257 0,-0.7449 0.4245,-1.2746 z m 7.2161,1.485 -0.8493,-0.3166 -1.4867,2.9703 0.8493,0.4232 v 0 c 0.4242,0.1067 0.7424,0.213 0.9555,0.1067 0.4248,-0.1067 0.6358,-0.5299 1.0604,-1.0622 0.2132,-0.4231 0.2132,-0.9528 0.2132,-1.1659 -0.1066,-0.4228 -0.3192,-0.7427 -0.7424,-0.9555 z m -3.2905,2.7604 2.017,-3.926 1.5911,0.7424 v 0 c 0.4248,0.2128 0.8489,0.7426 0.9545,1.0595 0.1066,0.5323 0.1066,1.1684 -0.2116,1.8045 -0.3181,0.6361 -0.7429,0.9556 -1.1669,1.272 -0.5313,0.1068 -1.1671,0.1068 -1.5918,-0.2098 v 0 z m 5.4115,0 c -0.1066,0.636 -0.2116,1.1656 -0.1066,1.5913 0,0.2105 0.4248,0.5297 0.7428,0.743 0.4248,0.1066 0.8489,0.1066 1.1671,0 0.3197,-0.2133 0.7429,-0.5325 0.9559,-1.0621 0.3187,-0.5296 0.3187,-0.9557 0.1062,-1.2722 -0.1062,-0.4261 -0.3192,-0.8493 -0.7424,-0.9557 -0.4263,-0.213 -0.9555,-0.213 -1.1671,0 -0.3197,0.2132 -0.6377,0.6361 -0.9559,0.9557 z m -0.4242,-0.2132 c 0.2126,-0.6361 0.7424,-1.1685 1.0604,-1.3786 0.5313,-0.1065 1.1671,-0.1065 1.7,0.1063 0.5292,0.3168 0.9522,0.743 1.0588,1.1659 0.3193,0.6361 0.3193,1.272 0,1.9109 -0.3171,0.5297 -0.7422,1.0593 -1.272,1.1662 -0.4263,0.3194 -1.062,0.3194 -1.6984,0 -0.5312,-0.2133 -1.0603,-0.6365 -1.1669,-1.0597 -0.2122,-0.4256 0,-1.1683 0.3181,-1.911 z m 5.3044,2.9707 0.5323,0.3194 v 0 c -0.1061,0.3167 -0.1061,0.6358 0.1035,0.7426 0,0.2129 0.3202,0.3163 0.6393,0.5293 0.3166,0 0.6363,0 0.8495,0 0.2095,0 0.4226,-0.3164 0.4226,-0.4232 0.2131,-0.4255 0,-0.7424 -0.7423,-0.9552 l -0.1066,-0.2129 c -0.5298,-0.2133 -0.9559,-0.6365 -1.0625,-0.7433 -0.1035,-0.2124 -0.1035,-0.4229 0,-0.8486 0.1066,-0.2132 0.4263,-0.6361 0.6393,-0.7424 0.3166,-0.1067 0.7424,-0.1067 1.2721,-0.1067 0.5296,0.213 0.8495,0.4261 0.8495,0.7427 0.319,0.213 0.4226,0.8489 0.4226,1.0618 h -0.6359 v 0 c 0,-0.2129 -0.1066,-0.5297 -0.213,-0.8488 -0.2101,-0.1066 -0.4232,-0.3198 -0.6363,-0.3198 -0.3166,-0.2098 -0.5292,-0.2098 -0.6358,0 -0.1066,0 -0.4232,0.2132 -0.4232,0.3198 -0.1066,0.3191 0.1066,0.6359 0.6363,1.0621 0.1061,0.1066 0.2132,0.1066 0.2132,0.1066 h 0.2095 c 0.3197,0.3166 0.7427,0.636 0.7427,0.636 0.1066,0.1063 0.1066,0.3167 0.1066,0.3167 0.1067,0.3191 0.1067,0.4259 0,0.6388 0,0.3164 -0.4231,0.6359 -0.6362,0.7426 -0.4226,0.1035 -0.8489,0.1035 -1.3787,0 -0.5327,-0.1067 -0.8489,-0.4262 -1.1685,-0.7426 -0.21,-0.2129 -0.21,-0.6388 0,-1.2749 z m 4.1389,0.9552 0.956,-2.5471 0.6358,0.1066 -0.9549,2.7602 v 0 c -0.1072,0.3164 -0.1072,0.6359 0,0.8461 0.106,0.3193 0.4251,0.4261 0.6356,0.5329 0.4259,0.1063 0.6389,0.1063 0.8489,0 0.3198,-0.1068 0.5323,-0.5329 0.6364,-0.7431 v 0 l 0.9549,-2.7602 0.6369,0.2129 -0.953,2.7575 v 0 c -0.1065,0.4261 -0.4263,0.9558 -0.8494,1.0621 -0.4258,0.1066 -0.9554,0.1066 -1.3811,0 -0.6364,-0.1063 -0.8464,-0.4229 -1.1661,-0.636 -0.1066,-0.4261 -0.1066,-0.9558 0,-1.4851 z m 3.9264,2.8641 0.9549,-4.4558 0.6368,0.2133 -0.9561,3.8195 2.2282,0.423 -0.1066,0.6361 z"
       style="display:none;fill:#008a53;fill-rule:evenodd"
       id="path14" />
    <path
       d="m 81.1019,96.7536 c -1.1674,-0.5308 -2.4408,-0.6373 -3.713,-0.6373 -1.6982,0 -3.2899,0.3181 -4.7752,1.1669 C 71.34,89.3262 72.0827,81.8987 75.6907,74.1537 83.649,67.8934 93.1978,63.3298 104.233,62.6935 93.6224,71.6061 85.1342,82.1108 81.1019,96.7536 Z m 6.1534,8.3817 c -0.2116,-2.1214 -0.9541,-4.0313 -2.3343,-5.623 12.3094,-13.9004 27.802,-25.2536 50.7189,-28.8607 10.0795,6.3653 16.4464,15.8093 19.7359,26.9509 -24.4047,-10.7169 -47.0054,-7.5335 -68.1205,7.5328 z m -3.6063,8.5945 c 1.592,-1.2722 2.7589,-3.183 3.2887,-5.3044 21.3281,15.0676 44.5632,16.2337 69.0745,5.3044 -2.2275,11.142 -7.4259,22.1773 -16.34,28.9671 C 115.7993,140.3625 94.365,130.1765 83.649,113.7298 Z m -3.9261,2.0151 c -0.7425,0.2129 -1.5917,0.3192 -2.334,0.3192 -1.3804,0 -2.6539,-0.4229 -3.926,-0.9555 -3.1835,7.8521 -2.2293,16.4466 -0.3184,24.5113 12.0965,11.6717 27.3744,14.9615 41.1696,13.5829 -16.9772,-8.2785 -28.1192,-21.0115 -34.5912,-37.4579 z m -10.2925,-4.2426 c -1.2736,-1.5921 -1.9102,-3.6082 -1.9102,-5.5175 0,-1.2741 0.3184,-2.4412 0.6366,-3.5017 -2.2276,-2.4406 -4.4559,-4.7752 -6.7899,-7.3208 -2.3343,7.427 -2.6525,15.8086 -0.6375,23.449 2.1226,-3.1831 4.9879,-5.7307 8.701,-7.109 z m 43.7156,-27.3756 3.5027,-1.1675 -0.6393,-1.3787 -5.516,1.6969 2.4396,6.7916 6.0497,-1.8054 -0.6389,-1.4847 -3.6065,1.1671 -0.5292,-1.3786 3.2869,-1.061 -0.5297,-1.1665 -3.2901,1.0605 z m 7.8517,2.016 v 0 c -0.3193,0.107 -0.5298,0.2116 -0.7423,0.4247 -0.1066,0.2115 -0.1066,0.5297 0,0.8494 0.1065,0.2116 0.3166,0.3176 0.5291,0.5292 0.2132,0.1066 0.5328,0.1066 0.7428,0.1066 0.3198,-0.1066 0.6364,-0.3182 0.7424,-0.5308 0.2131,-0.212 0.2131,-0.4247 0.1065,-0.7429 0,-0.2115 -0.2125,-0.4246 -0.5291,-0.5292 -0.3198,-0.213 -0.5298,-0.213 -0.8494,-0.107 z m 9.9734,-2.5472 v 0 l 0.1066,0.1066 c 0,0 0,0 0,0.1066 0,0.2114 0,0.4246 -0.1066,0.5312 0,0.2116 -0.213,0.3177 -0.3166,0.3177 -0.1064,0.1054 -0.4261,0.212 -0.7427,0.212 -0.4258,0.106 -0.7455,0.106 -0.9555,0 -0.2132,0 -0.3196,-0.1066 -0.4262,-0.3181 -0.106,-0.2116 -0.21,-0.4248 -0.21,-0.8494 -0.1066,-0.1066 -0.1066,-0.3176 -0.1066,-0.5308 -0.1066,-0.2121 -0.1066,-0.4231 -0.2126,-0.6363 0,-0.1065 0,-0.3181 -0.1066,-0.4242 0,-0.2121 0,-0.4251 0,-0.4251 0,-0.1052 0.1066,-0.3176 0.1066,-0.3176 0.106,-0.1066 0.3192,-0.3182 0.4232,-0.3182 0.106,-0.1066 0.319,-0.1066 0.5322,-0.2131 h 0.3166 v 0 c 0.2131,-0.1051 0.5323,-0.1051 0.6389,0 0.21,0 0.3166,0.1065 0.5297,0.3197 0,0.105 0.1066,0.2116 0.1066,0.5292 v 0 l 2.3346,-0.4242 -0.1072,-0.105 v 0 c 0,0 0,-0.2132 -0.106,-0.3197 0,-0.1051 -0.1066,-0.3178 -0.1066,-0.4232 0,-0.1066 -0.1071,-0.3197 -0.1071,-0.4246 -0.106,-0.1062 -0.2095,-0.3178 -0.316,-0.3178 -0.3196,-0.3197 -0.6389,-0.4247 -1.1687,-0.5313 -0.3166,0 -0.8493,0 -1.4851,0.1066 v 0 l -0.7429,0.105 v 0 c -0.8488,0.1066 -1.5917,0.3197 -2.0147,0.5313 -0.5323,0.3176 -0.8489,0.7424 -0.9555,1.1671 -0.1066,0.4242 -0.1066,1.0609 0.1066,1.9093 v 0 l 0.1064,0.9559 v 0 c 0.1036,0.4248 0.2102,0.8479 0.3162,1.1671 0.107,0.3182 0.3197,0.5297 0.5302,0.8479 0.2126,0.2126 0.5323,0.4242 0.8489,0.5308 0.3197,0.1065 0.7429,0.1065 1.2751,0.1065 0.8489,-0.1065 1.4852,-0.1065 1.8018,-0.2131 0.8488,-0.1046 1.5917,-0.3176 2.0174,-0.6358 0.2132,-0.2121 0.3172,-0.4247 0.4232,-0.6363 0.1066,-0.2126 0.2132,-0.5307 0.2132,-0.7423 0,-0.2132 -0.1066,-0.5312 -0.1066,-0.9554 v 0 l -0.1066,-0.2132 z m 5.7303,0.7444 v 0 c -0.2122,0 -0.5323,0.1045 -0.7424,0.3177 -0.2131,0.212 -0.3191,0.4246 -0.3191,0.6362 0.106,0.3181 0.2126,0.5313 0.4257,0.7429 0.2099,0.106 0.4236,0.213 0.7422,0.213 0.3166,0 0.6364,-0.107 0.8495,-0.3196 0.21,-0.2116 0.21,-0.4237 0.21,-0.6363 0,-0.2116 -0.1065,-0.5308 -0.3166,-0.7423 -0.2126,-0.2116 -0.5327,-0.2116 -0.8493,-0.2116 z"
       style="fill:#008a53;fill-rule:evenodd"
       id="path15" />
    <path
       d="m 132.1398,131.981 0.1065,-1.2748 h 0.6364 v 0 c 0.316,0.1064 0.5292,0 0.7423,0 0.2099,0 0.3165,-0.2101 0.3165,-0.4232 0.1066,-0.3195 0,-0.5297 0,-0.6363 -0.1066,-0.1063 -0.4232,-0.213 -0.7428,-0.3195 h -0.316 v 0 c -0.3198,0 -0.6364,0 -0.7429,0 -0.1072,0.1065 -0.3196,0.2132 -0.3196,0.3195 -0.1067,0 -0.1067,0.3168 -0.2133,0.5298 v 0 l -2.0149,-0.1067 v -0.3165 c 0.1066,-0.1066 0.1066,-0.4261 0.1066,-0.639 0.1066,-0.1066 0.1066,-0.3166 0.2132,-0.5296 0.104,-0.1062 0.3166,-0.3194 0.5297,-0.4229 0.213,-0.1064 0.5296,-0.213 0.7423,-0.213 0.3171,-0.1066 0.6364,-0.1066 0.8488,-0.1066 0.2137,0 0.6369,0 0.9561,0 0.6363,0.1066 1.2721,0.2132 1.5917,0.3196 0.5297,0.1035 0.9529,0.3167 1.1655,0.5293 0.3197,0.3166 0.4232,0.8493 0.4232,1.2724 0,0.3195 -0.1035,0.6359 -0.2101,0.8491 -0.1065,0.1064 -0.3191,0.3194 -0.4257,0.426 -0.2106,0.1065 -0.5297,0.2102 -0.8495,0.3166 v 0 c 0.9561,0.1065 1.2752,0.6361 1.2752,1.5917 -0.1065,0.6362 -0.3191,1.1684 -0.5323,1.3786 -0.4231,0.2129 -0.8463,0.4261 -1.1659,0.5324 -0.6358,0 -1.1681,0.1068 -1.911,0 -1.0594,-0.1063 -1.9083,-0.3195 -2.438,-0.6361 -0.5323,-0.2132 -0.8488,-0.9555 -0.6389,-1.8045 v -0.1065 c 0,-0.1069 0,-0.2132 0,-0.2132 v 0 l 2.0175,0.1063 v 0 c 0,0 0,0.1069 0,0.2134 0,0.2131 0,0.4232 0,0.5296 0.1066,0.1065 0.2105,0.2133 0.4231,0.3194 0.1067,0 0.3191,0.1066 0.6363,0.1066 0.3197,0 0.6389,0 0.7429,0 0.2126,0 0.4256,-0.1066 0.5323,-0.2127 0,-0.1068 0.2099,-0.3197 0.2099,-0.6364 0,-0.213 0,-0.4262 -0.2099,-0.5325 -0.1067,-0.1038 -0.3197,-0.1038 -0.6363,-0.1038 v 0 z m -4.1389,-4.6686 -1.3791,7.0029 -2.2276,-0.3195 1.1661,-5.4111 -0.7429,0.5296 -0.9555,-1.3787 1.5913,-0.8491 z m -10.6093,0 c -0.1071,0.3166 -0.1071,0.5298 0,0.6364 0.1034,0.1066 0.3166,0.1066 0.7423,0.213 v 0 l 0.1035,0.1035 v 0 c 0.3197,0 0.5323,0 0.7453,0.1066 0.1036,-0.1066 0.3166,-0.1066 0.3166,-0.2101 0.1066,-0.1064 0.2132,-0.213 0.3197,-0.4262 0,-0.3166 0,-0.5298 -0.1065,-0.5298 -0.1066,-0.2129 -0.3196,-0.3193 -0.5298,-0.3193 v 0 l -0.4256,-0.1064 v 0 c -0.3197,0 -0.4232,0 -0.5298,0 -0.2131,0 -0.3191,0 -0.5323,0.1064 0,0.1064 -0.1034,0.3193 -0.1034,0.4259 z m -2.8675,2.4409 2.018,0.3165 v 0 c 0,0.2132 0,0.4263 0,0.5296 0.1066,0.2132 0.3166,0.3196 0.4232,0.3196 h 0.5297 v 0 c 0.3192,0.1066 0.6389,0.1066 0.7424,0.1066 0.1064,0 0.3197,0 0.4263,-0.1066 0.106,-0.1064 0.2126,-0.4229 0.319,-0.636 v 0 l 0.3166,-1.1687 v 0 c -0.213,0.2129 -0.5296,0.4261 -0.7422,0.5324 -0.3197,0 -0.6363,0 -1.0621,-0.1063 -0.5297,-0.1067 -0.9529,-0.2132 -1.272,-0.2132 -0.3202,-0.2129 -0.5298,-0.3195 -0.7428,-0.5295 -0.2132,-0.213 -0.3192,-0.4258 -0.3192,-0.7423 -0.104,-0.2132 0,-0.6364 0.106,-1.0625 0.1066,-0.5292 0.3196,-0.9555 0.5323,-1.2719 0.3166,-0.3197 0.7428,-0.5327 1.166,-0.5327 0.5297,-0.1036 1.1686,0 1.6984,0.1066 0.6356,0.1064 1.2719,0.213 1.5917,0.3195 0.3166,0.1066 0.6357,0.3164 0.9553,0.5298 0.3166,0.1063 0.4232,0.5321 0.5298,0.8487 0,0.3195 0,0.8493 -0.1066,1.379 v 0 l -0.213,0.9553 -0.3166,1.1689 v 0 c -0.1066,0.3165 -0.4259,0.849 -0.5323,1.1656 -0.1041,0.2132 -0.4232,0.5296 -0.6364,0.6359 -0.3166,0.2132 -0.7427,0.2132 -1.0593,0.3197 -0.5325,0 -0.9555,0 -1.5918,-0.1065 v 0 l -0.4258,-0.1069 v 0 c -0.4232,-0.1063 -0.7428,-0.1063 -0.9559,-0.2126 -0.1035,0 -0.4226,-0.1038 -0.6358,-0.2103 -0.21,-0.1061 -0.4226,-0.2127 -0.6363,-0.3193 -0.1066,-0.2129 -0.3166,-0.6361 -0.3166,-0.8491 0,-0.2132 0.1036,-0.7428 0.21,-1.0593 z m -1.0594,-5.5179 -2.2291,6.8966 -2.0159,-0.4258 1.6983,-5.3049 -0.9554,0.426 -0.7429,-1.3816 1.8033,-0.7427 z"
       style="fill:#ffffff;fill-rule:evenodd"
       id="path16" />
  </g>
</svg>
