<?xml version="1.0" encoding="UTF-8" standalone="no"?>
<svg
   version="1.1"
   width="1.814736in"
   height="1.8147333in"
   viewBox="0 0 130.66099 130.6608"
   id="svg13"
   sodipodi:docname="ca_juventus.cdr"
   xmlns:inkscape="http://www.inkscape.org/namespaces/inkscape"
   xmlns:sodipodi="http://sodipodi.sourceforge.net/DTD/sodipodi-0.dtd"
   xmlns="http://www.w3.org/2000/svg"
   xmlns:svg="http://www.w3.org/2000/svg">
  <defs
     id="defs13" />
  <sodipodi:namedview
     id="namedview13"
     pagecolor="#ffffff"
     bordercolor="#000000"
     borderopacity="0.25"
     inkscape:showpageshadow="2"
     inkscape:pageopacity="0.0"
     inkscape:pagecheckerboard="0"
     inkscape:deskcolor="#d1d1d1"
     inkscape:document-units="in" />
  <g
     id="Layer1003"
     transform="translate(-42.669399,-42.669601)">
    <path
       d="m 173.3304,108 c 0,36.0806 -29.2495,65.3304 -65.3306,65.3304 -36.0812,0 -65.3304,-29.2498 -65.3304,-65.3304 0,-36.0807 29.2492,-65.3304 65.3304,-65.3304 36.0811,0 65.3306,29.2497 65.3306,65.3304 z"
       style="fill:#920101;fill-opacity:1;fill-rule:evenodd"
       id="path10" />
    <path
       d="m 168.7568,108 c 0,33.5549 -27.2016,60.7574 -60.757,60.7574 -33.5555,0 -60.7575,-27.2025 -60.7575,-60.7574 0,-33.5551 27.202,-60.7574 60.7575,-60.7574 33.5554,0 60.757,27.2023 60.757,60.7574 z"
       style="fill:#ffffff;fill-rule:evenodd"
       id="path11" />
    <path
       d="m 164.8364,108 c 0,31.3899 -25.4462,56.8373 -56.8366,56.8373 -31.3905,0 -56.8373,-25.4474 -56.8373,-56.8373 0,-31.3901 25.4468,-56.8373 56.8373,-56.8373 31.3904,0 56.8366,25.4472 56.8366,56.8373 z"
       style="fill:#920101;fill-opacity:1;fill-rule:evenodd"
       id="path12" />
    <path
       d="m 132.2767,134.9752 c -0.8429,-1.1798 -1.2643,-2.5292 -1.3485,-4.1303 h -0.084 v -1.6858 -0.0848 l -0.1687,-34.8986 c -0.0848,-3.7934 0.3369,-7.3348 1.2645,-10.7067 1.4332,-4.8042 4.0462,-9.0191 7.6715,-12.8125 -0.1694,-0.759 -0.5062,-1.2645 -1.0965,-1.4332 -4.6362,-2.7817 -9.2725,-2.3603 -13.993,1.3492 -2.1914,-1.518 -4.2988,-3.204 -6.4062,-4.9739 -1.6861,-1.518 -3.5415,-2.4449 -5.6489,-2.7824 -6.7433,-1.3484 -11.8851,0.5062 -15.4259,5.6489 1.6017,-0.0849 2.9504,0 4.2993,0.2519 5.3106,0.9277 9.2728,3.6255 11.8017,8.1778 v 49.4818 c 0,1.0117 -0.1688,2.0233 -0.3376,3.0343 -0.5056,2.1074 -1.5172,4.047 -2.95,5.6489 -2.2629,2.5981 -4.9429,3.6914 -8.0387,3.7063 l 0.002,0.0164 c -2.3367,0 -4.4981,-0.7361 -6.2778,-1.9807 -0.461,-0.3556 -0.9114,-0.7434 -1.3439,-1.1886 l -0.0614,0.0237 c -2.0283,-1.9912 -3.2895,-4.7607 -3.2895,-7.8271 0,-0.065 0.0087,-0.1277 0.0099,-0.1926 1.3179,0.48 2.7347,0.7548 4.219,0.7548 6.0551,0 11.0846,-4.3563 12.1473,-10.104 0.1359,-0.7345 0.2157,-1.4868 0.2157,-2.2597 0,-6.8287 -5.5354,-12.364 -12.363,-12.364 -1.6132,0 -3.1492,0.3187 -4.5619,0.8801 -0.8393,0.3333 -1.6366,0.7483 -2.3737,1.2489 -7.7066,4.5786 -12.8743,12.9836 -12.8743,22.5987 0,13.0052 9.4521,23.7967 21.86,25.8959 2.6245,0.6643 5.409,1.0233 8.4305,1.0233 5.9852,0 11.2961,-1.3491 16.1005,-4.0471 1.686,-1.0107 3.4559,-2.36 5.3953,-3.9612 2.0234,-1.7706 3.7094,-3.7093 5.0579,-5.8167 0.6742,-1.0118 1.2644,-2.0235 1.77,-3.2041 l 0.5053,-1.2643 c 0.0849,-0.084 0.0849,-0.1682 0.0849,-0.2521 -0.4215,-0.1694 -0.8429,-0.3375 -1.1798,-0.675 -0.3375,-0.2527 -0.675,-0.6741 -1.0125,-1.0955 z"
       style="fill:#ffffff;fill-rule:evenodd"
       id="path13" />
  </g>
</svg>
