<?xml version="1.0" encoding="UTF-8" standalone="no"?>
<svg
   version="1.1"
   width="1.7642416in"
   height="1.7680736in"
   viewBox="0 0 127.02539 127.3013"
   id="svg34"
   sodipodi:docname="londrina.cdr"
   xmlns:inkscape="http://www.inkscape.org/namespaces/inkscape"
   xmlns:sodipodi="http://sodipodi.sourceforge.net/DTD/sodipodi-0.dtd"
   xmlns="http://www.w3.org/2000/svg"
   xmlns:svg="http://www.w3.org/2000/svg">
  <defs
     id="defs34" />
  <sodipodi:namedview
     id="namedview34"
     pagecolor="#ffffff"
     bordercolor="#000000"
     borderopacity="0.25"
     inkscape:showpageshadow="2"
     inkscape:pageopacity="0.0"
     inkscape:pagecheckerboard="0"
     inkscape:deskcolor="#d1d1d1"
     inkscape:document-units="in" />
  <g
     id="Layer1003"
     transform="matrix(1.0564707,0,0,1,-50.585932,-44.3494)">
    <path
       d="m 150.1172,134.6842 c 13.3143,-22.0544 16.2894,-42.3968 18.0004,-67.9092 -7.7357,-1.599 -13.463,-3.905 -18.3349,-7.438 -4.9088,-3.5703 -8.963,-8.4049 -13.4256,-14.9876 -10.3759,6.1362 -19.5624,8.9999 -28.6734,8.8884 C 98.572,53.1634 89.6093,50.0766 79.6794,44.3494 70.754,57.3659 64.0224,63.3165 47.882,66.775 c 1.0787,16.5868 2.9752,31.7975 8.1446,47.8634 9.2231,23.6528 23.0208,38.7148 43.81,52.3265 l 8.1444,4.6858 c 17.405,-10.0043 30.7188,-20.0452 42.1362,-36.9665 z"
       style="fill:#009ee0;fill-rule:evenodd"
       id="path10" />
    <g
       id="Layer1004">
      <path
         d="m 156.1053,119.8076 1.6363,-4.0161 1.4128,-4.0167 1.2646,-3.9793 c 0.5953,-2.0083 1.1159,-4.0538 1.6364,-6.0992 0.4832,-2.0454 0.8923,-4.128 1.3014,-6.1733 0.4091,-2.1198 0.7434,-4.2397 1.0784,-6.3595 0.2977,-2.1572 0.5954,-4.3141 0.8554,-6.4712 0.5206,-4.9091 0.9672,-9.818 1.3017,-14.7644 -3.1608,-0.6694 -6.2479,-1.5991 -9.2603,-2.7893 -1.5245,-0.6323 -2.975,-1.3016 -4.4259,-2.0828 -1.3761,-0.7809 -2.7147,-1.6363 -4.0161,-2.5659 -1.2639,-0.9296 -2.4544,-1.9339 -3.6448,-3.0124 l -0.8925,-0.8182 c -3.1612,-3.1612 -5.9134,-6.6568 -8.442,-10.3388 -2.1574,1.1902 -4.3143,2.306 -6.5454,3.3471 -1.2272,0.5578 -2.4551,1.0787 -3.7191,1.5992 -1.8219,0.6693 -3.6448,1.2643 -5.5041,1.7851 -1.4876,0.4092 -2.975,0.7439 -4.4999,1.0042 -1.4878,0.2603 -2.9383,0.409 -4.4255,0.5577 -1.1904,0.0745 -2.3801,0.1116 -3.5703,0.1116 -1.7479,-0.0371 -3.496,-0.1859 -5.2809,-0.409 -1.4878,-0.186 -2.9382,-0.4463 -4.3885,-0.7809 -1.5248,-0.3721 -2.9379,-0.7812 -4.4257,-1.2273 -1.8222,-0.5953 -3.6074,-1.2646 -5.3552,-2.0084 -0.9299,-0.4091 -1.8222,-0.8182 -2.7521,-1.2272 -1.7852,-0.8926 -3.5703,-1.7852 -5.3182,-2.7892 -1.8222,2.6403 -3.7562,5.1321 -5.8015,7.5493 -0.8182,0.8927 -1.6737,1.7853 -2.5289,2.6778 -0.8556,0.8182 -1.7108,1.5993 -2.6035,2.3804 -0.9297,0.7435 -1.8224,1.4131 -2.7891,2.1195 -1.0043,0.6324 -1.9712,1.2645 -3.0124,1.8596 -1.0787,0.5579 -2.1571,1.1158 -3.2726,1.6363 l -2.3432,0.9671 c -2.752,0.9669 -5.5041,1.8222 -8.3304,2.4545 0.4462,6.6197 1.0785,13.2023 1.9711,19.7851 0.4461,2.975 0.9295,5.876 1.4874,8.8139 0.4835,2.4546 1.0041,4.9091 1.5993,7.3265 0.7437,3.0124 1.562,5.9505 2.4545,8.8511 l 0.4461,1.4507 1.7482,4.2392 1.8592,4.0909 2.0084,3.9052 2.0828,3.7557 2.2312,3.5705 2.3432,3.422 2.4544,3.3094 2.6033,3.1613 2.7148,3.0496 2.8637,2.9752 3.0124,2.8267 c 1.5619,1.4128 3.1611,2.7889 4.7975,4.165 1.7108,1.3388 3.4215,2.6782 5.1323,3.9793 1.8222,1.3016 3.6073,2.6035 5.4668,3.8682 l 1.8966,1.2267 7.3636,4.2768 c 3.4213,-1.9708 6.7689,-4.0535 10.0416,-6.1734 1.9338,-1.3017 3.7932,-2.6028 5.6898,-3.9421 1.8224,-1.3389 3.5702,-2.7149 5.3555,-4.1278 1.2643,-1.0783 2.5285,-2.1943 3.7936,-3.3098 1.264,-1.1161 2.4914,-2.3065 3.6812,-3.4963 1.1904,-1.1899 2.3804,-2.4546 3.5332,-3.719 1.153,-1.3017 2.306,-2.6402 3.3845,-3.9789 1.153,-1.4135 2.2316,-2.8642 3.3101,-4.3145 l 2.1195,-3.0123 2.343,-4.0166 2.1201,-4.0538 1.8967,-4.0161 z"
         style="fill:#ffffff;fill-rule:evenodd"
         id="path11" />
    </g>
    <g
       id="Layer1005">
      <path
         d="m 111.3279,165.477 2.7893,-1.6735 2.7521,-1.7106 2.7149,-1.7852 2.6405,-1.8219 2.5661,-1.9339 2.5293,-1.9715 2.4916,-2.0826 2.4172,-2.157 2.3427,-2.2315 2.2688,-2.3058 2.2316,-2.4172 2.1195,-2.529 2.0459,-2.6029 2.0078,-2.7153 1.897,-2.8263 1.8224,-2.9008 1.7106,-3.0492 1.6364,-3.1619 1.5249,-3.2727 1.4501,-3.4209 1.376,-3.4962 1.2272,-3.6446 1.1532,-3.7932 1.0412,-3.905 0.9301,-4.0538 0.8181,-4.2023 0.7062,-4.3514 0.5954,-4.4998 0.4456,-4.6488 0.3724,-4.8347 0.2603,-5.8016 -1.8594,-0.4091 c -1.8224,-0.4464 -3.5702,-1.0042 -5.3186,-1.6737 -1.1155,-0.4461 -2.1942,-0.9297 -3.2727,-1.4505 -1.4133,-0.7063 -2.7521,-1.4874 -4.0533,-2.3056 -1.0411,-0.7068 -2.0455,-1.4132 -3.0127,-2.1569 -1.3011,-1.0044 -2.529,-2.0828 -3.7183,-3.1986 -1.2279,-1.1899 -2.3809,-2.4172 -3.4962,-3.7188 -0.9297,-1.0785 -1.7852,-2.1571 -2.6035,-3.2727 -0.5577,-0.7437 -1.1156,-1.4875 -1.6361,-2.2687 -1.0043,0.6323 -1.9715,1.2274 -2.9752,1.8223 -1.0043,0.5208 -2.0085,1.0414 -3.0496,1.5249 -1.0411,0.4461 -2.0829,0.8926 -3.1613,1.3016 -0.7812,0.2603 -1.5996,0.5579 -2.4179,0.8182 -1.4128,0.4091 -2.8256,0.781 -4.2388,1.0784 -1.1533,0.2603 -2.3065,0.4465 -3.4591,0.6323 -0.8548,0.1115 -1.7477,0.2232 -2.6032,0.3347 -1.4875,0.1114 -2.9378,0.1859 -4.4254,0.2232 -0.8927,0.0371 -1.7852,0 -2.6778,0 -1.4876,-0.0744 -2.938,-0.1861 -4.3885,-0.3347 -0.8926,-0.1117 -1.7479,-0.2232 -2.6404,-0.3346 -1.4505,-0.2606 -2.8636,-0.558 -4.2397,-0.8926 -1.1157,-0.2976 -2.2315,-0.6323 -3.3469,-0.967 -1.0786,-0.3719 -2.1573,-0.7811 -3.2357,-1.1902 -1.0414,-0.4461 -2.0454,-0.9296 -3.0869,-1.4131 -0.9669,-0.5208 -1.9709,-1.0784 -2.938,-1.6363 l -1.5247,-0.9671 -2.0082,2.7522 c -0.7067,0.9667 -1.4505,1.8592 -2.2314,2.7892 -0.7439,0.8553 -1.5248,1.7107 -2.3058,2.5289 -0.7809,0.7809 -1.5991,1.5619 -2.4172,2.3057 -0.8182,0.7067 -1.6364,1.4131 -2.4919,2.0828 -0.8553,0.632 -1.7107,1.2643 -2.6033,1.8595 -0.8553,0.5577 -1.7478,1.1156 -2.6404,1.6364 -0.8926,0.4832 -1.8225,0.9666 -2.7522,1.4131 -0.9295,0.4091 -1.8595,0.8182 -2.8265,1.1899 -0.9295,0.3347 -1.8966,0.6696 -2.8635,0.967 l -1.9711,0.5208 -1.8595,0.4091 0.2603,5.8016 0.3349,4.8347 0.4835,4.6488 0.595,4.4998 0.7066,4.3514 0.8182,4.2023 0.9297,4.0538 1.0413,3.905 1.1529,3.7932 1.2272,3.6446 1.3388,3.4962 1.4504,3.4209 1.5619,3.2727 1.6364,3.1619 1.7108,3.0492 1.8224,2.9008 1.8966,2.8263 1.9711,2.7153 2.0828,2.6029 2.1198,2.529 2.2314,2.4172 2.2684,2.3058 2.3429,2.2315 2.4175,2.157 2.4544,2.0826 2.5663,1.9715 2.566,1.9339 2.6033,1.8219 2.7149,1.7852 2.7521,1.7106 2.7892,1.6735 3.3099,1.8592 z"
         style="fill:#009ee0;fill-rule:evenodd"
         id="path12" />
    </g>
    <g
       id="Layer1006">
      <path
         d="m 126.0554,152.9815 2.4177,-2.0087 2.3425,-2.1195 2.3062,-2.1943 2.2311,-2.2688 2.1574,-2.38 2.0822,-2.4544 2.0455,-2.5293 1.9338,-2.6772 1.8227,-2.7521 1.7845,-2.8638 1.6738,-2.9754 1.6362,-3.0866 1.4881,-3.1987 1.4128,-3.3095 1.3393,-3.4587 1.2268,-3.5703 1.1157,-3.7188 1.0044,-3.8306 0.9297,-4.0165 0.8181,-4.1282 0.6694,-4.2766 0.5952,-4.4628 0.4838,-4.5745 0.3343,-4.7604 0.1863,-4.0536 c -2.5293,-0.5952 -4.9465,-1.4133 -7.2902,-2.4544 -1.3386,-0.558 -2.6028,-1.1902 -3.8672,-1.897 -1.2647,-0.7437 -2.4914,-1.5245 -3.7193,-2.3427 -1.1897,-0.8556 -2.3797,-1.7851 -3.5327,-2.7521 -1.1532,-1.0041 -2.269,-2.0455 -3.3476,-3.1612 -2.0448,-2.0826 -3.9414,-4.3513 -5.6524,-6.7313 -1.0037,0.595 -1.9713,1.1528 -3.0124,1.6734 -1.0411,0.5206 -2.1195,1.0044 -3.2355,1.4875 -1.1155,0.4465 -2.2315,0.8555 -3.3471,1.2273 -1.1532,0.372 -2.3058,0.7068 -3.4957,1.0042 -1.153,0.2974 -2.343,0.5581 -3.533,0.7809 -1.2277,0.1862 -2.4176,0.372 -3.6449,0.5209 -1.1899,0.1114 -2.4171,0.2232 -3.6446,0.2974 -1.2271,0.0372 -2.4546,0.0743 -3.6818,0.0743 -1.2273,-0.0371 -2.4546,-0.1114 -3.6819,-0.1859 -1.1898,-0.1115 -2.4171,-0.2602 -3.6072,-0.409 -1.2274,-0.1859 -2.4176,-0.4091 -3.6074,-0.6694 -1.1529,-0.2603 -2.3058,-0.5579 -3.496,-0.8926 -1.1528,-0.3346 -2.2686,-0.7066 -3.4215,-1.1158 -1.1157,-0.409 -2.1942,-0.8552 -3.2726,-1.3387 -0.8182,-0.3719 -1.5993,-0.7811 -2.4174,-1.1902 -0.7438,-0.409 -1.4503,-0.8181 -2.1943,-1.2643 -1.4876,2.0826 -3.1239,4.0164 -4.8346,5.913 -0.8183,0.8183 -1.6363,1.6364 -2.4916,2.4546 -0.8182,0.7811 -1.6737,1.5249 -2.5663,2.2686 -0.8553,0.6694 -1.7478,1.3391 -2.6777,2.0084 -0.8926,0.632 -1.8222,1.2273 -2.7521,1.7851 l -1.8966,1.0785 c -0.9297,0.4835 -1.8966,0.9669 -2.9007,1.3761 l -1.971,0.8181 c -1.7481,0.632 -3.4959,1.2273 -5.3184,1.6363 l 0.1862,4.0536 0.3346,4.7604 0.4834,4.5745 0.5577,4.4628 0.7067,4.2766 0.8182,4.1282 0.8926,4.0165 1.0414,3.8306 1.1158,3.7188 1.2271,3.5703 1.3388,3.4587 1.4132,3.3095 1.4878,3.1987 1.599,3.0866 1.7108,2.9754 1.7479,2.8638 1.8593,2.7521 1.934,2.6772 2.0084,2.5293 2.1198,2.4544 2.1569,2.38 2.2316,2.2688 2.2684,2.1943 2.3803,2.1195 2.4172,2.0087 2.4918,1.9709 2.529,1.8596 2.5659,1.8221 2.6778,1.7483 2.6777,1.6731 2.7521,1.6363 2.3057,1.3021 2.3057,-1.3021 2.7521,-1.6363 2.6775,-1.6731 2.6779,-1.7483 2.566,-1.8221 2.5665,-1.8596 z"
         style="fill:#ffffff;fill-rule:evenodd"
         id="path13" />
    </g>
    <path
       d="m 143.8691,94.2585 8.3308,-13.7976 4.2024,1.7479 -2.0453,16.1404 -3.2726,-1.5989 0.2974,-2.7896 -2.4918,-1.2643 -1.5616,2.8266 z"
       style="fill:#009ee0;fill-rule:evenodd"
       id="path14" />
    <path
       d="m 132.6008,91.7668 3.3099,-15.5085 3.7565,0.7812 0.5947,9.2231 0.1861,0.1487 1.5617,-8.7396 3.6077,0.595 -3.6077,15.694 -3.756,-0.9667 -0.967,-9.2231 -1.376,8.7768 z"
       style="fill:#009ee0;fill-rule:evenodd"
       id="path15" />
    <path
       d="m 126.1668,90.5022 1.8967,-15.657 3.7565,0.4464 -2.1944,15.8429 z"
       style="fill:#009ee0;fill-rule:evenodd"
       id="path16" />
    <path
       d="m 113.1875,89.5726 1.079,-15.8432 5.355,0.3349 c 0.7809,0 1.711,0.2974 2.1569,0.6321 0.8181,0.2976 1.2646,0.9299 1.5991,1.5619 0.1493,0.4465 0.4468,1.4134 0.1493,2.1943 0,0.781 0,1.5619 0,2.0083 -0.1493,0.4835 -0.6326,0.967 -0.7815,1.1158 -0.4838,0.2974 -0.9669,0.6321 -1.2644,0.7808 0.2975,0 0.7806,0.2977 1.1156,0.7811 0.2977,0.6323 0.5954,1.0785 0.5954,1.5621 l -0.1489,3.7561 c 0,0.9296 0.1489,1.7106 0.4838,1.7106 v 0.186 l -3.9053,-0.186 c -0.1856,-0.1487 -0.1856,-0.4463 -0.1856,-0.5948 0,-0.1862 0,-0.7812 0,-1.2647 l 0.1856,-1.8966 c 0,-0.781 0,-1.376 -0.1856,-1.8595 -0.1494,-0.4835 -0.6327,-0.7809 -0.9302,-0.7809 h -1.2642 L 116.944,89.87 Z"
       style="fill:#009ee0;fill-rule:evenodd"
       id="path17" />
    <path
       d="M 100.8033,90.0187 100.506,74.0643 h 3.7561 c 0,0 0.2974,0 0.4463,0 h 0.3346 c 1.2647,-0.1861 2.1942,0 2.9753,0.2974 0.7809,0.6323 1.2646,0.9299 1.4131,1.2646 0.2974,0.632 0.4468,1.0785 0.4468,1.562 0,0.4834 0.1855,0.7808 0.1855,0.9296 l 0.1489,7.5124 c 0,2.8265 -1.4134,4.2397 -4.5373,4.2397 z"
       style="fill:#009ee0;fill-rule:evenodd"
       id="path18" />
    <path
       d="m 88.4563,91.7668 -2.3429,-15.8431 3.4588,-0.4462 3.9049,8.2934 h 0.3347 l -1.8969,-8.7769 3.6077,-0.6323 2.3057,15.8057 -3.5703,0.6324 -4.2024,-8.2935 1.7108,8.6282 z"
       style="fill:#009ee0;fill-rule:evenodd"
       id="path19" />
    <path
       d="M 74.8448,90.3534 73.5804,83.436 c -0.4463,-1.7108 -0.2974,-2.9751 0.3348,-3.9046 0.7808,-0.93 2.0081,-1.5623 3.2726,-1.8597 0.7809,-0.1861 1.2645,-0.1861 2.0456,-0.1861 0.4834,0 1.0784,0.1861 1.413,0.335 0.6323,0.2973 1.0788,0.7808 1.562,1.0784 0.2976,0.6324 0.781,1.4132 0.781,2.0454 l 1.7109,7.0661 c 0,0.9298 0,2.1569 0,2.7893 -0.2977,0.7808 -0.7813,1.562 -1.2274,1.8966 -0.4835,0.4834 -1.5619,0.7812 -2.8265,1.2643 -0.9296,0.2978 -1.8967,0.2978 -2.6777,0.1489 -0.7809,-0.3348 -1.5619,-0.7809 -1.8593,-1.4132 -0.4835,-0.6323 -0.7811,-1.5619 -1.2646,-2.343 z"
       style="fill:#009ee0;fill-rule:evenodd"
       id="path20" />
    <path
       d="m 66.0679,97.8657 -4.6859,-15.2105 3.6075,-1.2273 3.7561,12.0497 3.905,-1.4135 1.1158,3.1239 z"
       style="fill:#009ee0;fill-rule:evenodd"
       id="path21" />
    <g
       id="Layer1007">
      <path
         d="m 73.9896,120.291 v -15.8055 h 11.9007 v 2.6777 h -8.4422 v 3.2727 h 7.81 v 2.938 h -7.81 v 4.2396 h 8.9258 v 2.6775 z m 14.727,0 v -3.1606 h 3.2728 v 3.1606 z"
         style="fill:#009ee0;fill-rule:evenodd"
         id="path22" />
    </g>
    <g
       id="Layer1008">
      <path
         d="m 130.1836,131.6716 c 0,0.1485 0.0368,0.2973 0.0742,0.4087 h -0.0742 z m 0,5.7641 h 0.0742 c -0.0374,0.1114 -0.0742,0.2235 -0.0742,0.3719 z m 0,5.3182 v -2.9752 h 3.1985 v 2.9752 z"
         style="fill:#009ee0;fill-rule:evenodd"
         id="path23" />
      <path
         d="m 116.3116,134.4607 c 0,-1.1157 0.1486,-2.3804 0.6324,-3.3101 0.1482,-0.9295 0.7809,-1.8592 1.4135,-2.4912 0.4457,-0.6326 1.2267,-1.116 2.1941,-1.5623 0.7809,-0.3343 2.0077,-0.4836 2.9752,-0.4836 1.2268,0 2.64,0.1493 3.2727,0.6324 1.264,0.446 1.8966,1.4135 2.4916,2.0455 0.4088,0.7808 0.7062,1.5989 0.8925,2.3802 v 0.4087 h -3.2359 c -0.2975,-1.5617 -1.5617,-2.4918 -3.4209,-2.4918 -1.2653,0 -2.3804,0.4837 -2.9752,1.4133 -0.4838,0.9303 -0.9674,2.3432 -0.9674,4.0537 v 0.1866 c 0,0.929 0.1862,1.8593 0.4836,2.4913 0.1489,0.632 0.7809,1.4133 1.2647,1.8966 0.4459,0.4464 1.2268,0.7813 2.1943,0.7813 1.8592,0 3.1234,-1.1158 3.4209,-2.9756 h 3.2359 v 0.3719 c -0.2235,0.8927 -0.632,1.8967 -1.0418,2.6037 -0.632,0.9291 -1.4128,1.3761 -2.3423,1.8594 -0.6327,0.7807 -2.0459,0.9296 -3.2727,0.9296 -1.2653,0 -2.6781,-0.2971 -3.7564,-0.9296 -0.9672,-0.4833 -1.8967,-1.4134 -2.6782,-2.492 -0.632,-1.4133 -0.7806,-2.975 -0.7806,-4.7232 0,0 0,-0.2973 0,-0.5948 z m 13.872,5.318 h -0.0742 v 2.9752 h 0.0742 z"
         style="fill:#009ee0;fill-rule:evenodd"
         id="path24" />
    </g>
    <path
       d="m 99.0555,133.3082 c 1.7852,13.425 8.442,7.2888 13.314,7.1774 -7.1777,-3.7191 -1.7106,-10.0044 -13.314,-7.1774 z"
       style="fill:#009035;fill-rule:evenodd"
       id="path25" />
    <path
       d="m 128.2097,105.8666 c -0.9311,0.628 -1.8662,1.2528 -2.7863,1.8918 l -2.7521,1.971 c -1.3761,1.004 -2.7149,2.0081 -4.091,3.0497 -1.2686,1.0214 -2.5051,2.0435 -3.7698,3.0649 5.4212,-5.8775 -0.1626,-7.0724 0.72,-12.4369 -2.1497,0.7783 -10.7583,5.9531 -3.6762,15.0438 l -2.3486,2.175 -2.4544,2.4544 -2.38,2.4921 -2.2687,2.6032 -2.1569,2.678 -0.9574,1.265 c 4.0074,-7.8265 -2.5924,-5.4244 -3.8774,-12.6827 -1.4785,4.5091 -9.0464,8.946 2.6541,14.4039 l -0.8317,1.2157 -0.9669,1.4133 -0.8555,1.4881 -0.8926,1.4868 -0.8182,1.4882 -0.8181,1.5617 -0.7066,1.4881 -0.3719,0.5579 1.5992,1.5988 0.3718,-1.4133 0.7067,-1.4507 0.7808,-1.487 0.7441,-1.4882 0.8552,-1.45 0.8925,-1.4135 0.9297,-1.4128 0.967,-1.3761 0.9669,-1.376 1.0415,-1.3387 2.1198,-2.6407 2.1942,-2.5286 2.3428,-2.4546 2.3804,-2.4176 2.4914,-2.3058 0.7603,-0.6609 c 5.4941,9.3096 13.3723,3.7085 14.9339,2.0742 -5.5199,-1.3714 -4.0001,-7.4753 -12.8481,-3.8769 l 2.3239,-1.9249 c 1.3386,-1.0411 2.64,-2.0827 3.9789,-3.0868 1.376,-0.9669 2.7147,-1.9339 4.0907,-2.9009 1.1118,-0.7718 2.2453,-1.5386 3.3656,-2.2892 10.836,0.9798 8.1942,-5.1205 13.1472,-8.1982 -1.9935,-1.1233 -12.2454,-3.3707 -14.7302,7.1454 z"
       style="fill:#009035;fill-rule:evenodd"
       id="path26" />
    <path
       d="m 99.8737,127.655 c 0.8182,0 1.5249,0.7067 1.5249,1.525 0,0.8555 -0.7067,1.5242 -1.5249,1.5242 -0.8555,0 -1.5248,-0.6687 -1.5248,-1.5242 0,-0.8183 0.6693,-1.525 1.5248,-1.525 z"
       style="fill:#e41e15;fill-rule:evenodd"
       id="path27" />
    <path
       d="m 116.4976,110.659 c 0.8181,0 1.525,0.6694 1.525,1.4877 0,0.8181 -0.7069,1.5247 -1.525,1.5247 -0.8554,0 -1.5248,-0.7066 -1.5248,-1.5247 0,-0.8183 0.6694,-1.4877 1.5248,-1.4877 z"
       style="fill:#e41e15;fill-rule:evenodd"
       id="path28" />
    <path
       d="m 102.8488,131.2248 c 0.8554,0 1.5248,0.6699 1.5248,1.5254 0,0.818 -0.6694,1.5242 -1.5248,1.5242 -0.8553,0 -1.5246,-0.7062 -1.5246,-1.5242 0,-0.8555 0.6693,-1.5254 1.5246,-1.5254 z"
       style="fill:#e41e15;fill-rule:evenodd"
       id="path29" />
    <path
       d="m 118.766,114.9732 c 0.8555,0 1.5249,0.7062 1.5249,1.5245 0,0.8555 -0.6694,1.5249 -1.5249,1.5249 -0.8555,0 -1.5245,-0.6694 -1.5245,-1.5249 0,-0.8183 0.669,-1.5245 1.5245,-1.5245 z"
       style="fill:#e41e15;fill-rule:evenodd"
       id="path30" />
    <path
       d="m 77.1878,82.2088 v 0.4464 l 1.5619,6.7312 c 0,0.6323 0,0.967 0.4837,1.4134 0.2975,0.3347 0.6322,0.3347 0.9295,0.3347 0.4835,-0.1488 0.6323,-0.4834 0.7812,-0.7811 0.1488,-0.3347 0.1488,-0.967 -0.1489,-1.562 l -1.2643,-6.5826 -0.1488,-0.6321 c -0.1487,-0.7811 -0.9298,-1.1158 -1.4134,-0.9299 -0.7809,0 -1.0785,0.7811 -0.9296,1.562 z"
       style="fill:#ffffff;fill-rule:evenodd"
       id="path31" />
    <path
       d="m 104.2621,87.0436 c 0.4463,0 0.9297,0 1.2274,0 0.1858,0 0.4834,-0.4463 0.6322,-0.6323 0.3347,-0.1487 0.3347,-0.5949 0.3347,-0.9298 v -6.7314 c 0,-0.4834 -0.1487,-0.781 -0.1487,-1.0784 -0.186,-0.4834 -0.4835,-0.4834 -0.6324,-0.6322 -0.1858,-0.1489 -0.9669,-0.1489 -1.4132,-0.1489 z"
       style="fill:#ffffff;fill-rule:evenodd"
       id="path32" />
    <path
       d="m 150.154,90.3534 2.0459,0.6323 1.2274,-7.0663 z"
       style="fill:#ffffff;fill-rule:evenodd"
       id="path33" />
    <path
       d="m 117.4272,80.6468 1.0785,0.1488 c 0.4831,0 0.9302,-0.1488 1.1158,-0.1488 0.1489,-0.3346 0.4463,-1.1154 0.5952,-1.8967 0,-0.6322 -0.4463,-1.0784 -0.5952,-1.5618 -0.335,0 -1.1158,-0.2977 -1.7478,-0.2977 z"
       style="fill:#ffffff;fill-rule:evenodd"
       id="path34" />
  </g>
</svg>
