<?xml version="1.0" encoding="UTF-8" standalone="no"?>
<svg
   version="1.1"
   width="1.797632in"
   height="1.7976347in"
   viewBox="0 0 129.4295 129.4297"
   id="svg29"
   sodipodi:docname="ec_macapa-ap.cdr"
   xmlns:inkscape="http://www.inkscape.org/namespaces/inkscape"
   xmlns:sodipodi="http://sodipodi.sourceforge.net/DTD/sodipodi-0.dtd"
   xmlns="http://www.w3.org/2000/svg"
   xmlns:svg="http://www.w3.org/2000/svg">
  <defs
     id="defs29" />
  <sodipodi:namedview
     id="namedview29"
     pagecolor="#ffffff"
     bordercolor="#000000"
     borderopacity="0.25"
     inkscape:showpageshadow="2"
     inkscape:pageopacity="0.0"
     inkscape:pagecheckerboard="0"
     inkscape:deskcolor="#d1d1d1"
     inkscape:document-units="in" />
  <g
     id="Layer1003"
     transform="translate(-43.285301,-43.285)">
    <path
       d="m 43.2853,107.9994 c 0,35.6845 29.0315,64.7153 64.716,64.7153 35.6831,0 64.7135,-29.0308 64.7135,-64.7153 0,-35.6834 -29.0304,-64.7144 -64.7135,-64.7144 -35.6845,0 -64.716,29.031 -64.716,64.7144 z"
       style="fill:#1f378b;fill-rule:evenodd"
       id="path10" />
    <path
       d="m 46.1698,107.9994 c 0,-34.093 27.7376,-61.8299 61.8315,-61.8299 34.0927,0 61.8294,27.7369 61.8294,61.8299 0,34.0939 -27.7367,61.8312 -61.8294,61.8312 -34.0939,0 -61.8315,-27.7373 -61.8315,-61.8312 z"
       style="fill:#ffffff;fill-rule:evenodd"
       id="path11" />
    <path
       d="M 164.9344,98.9595 C 160.5958,71.416 136.7618,50.3534 108.0006,50.3534 c -28.8507,0 -52.7535,21.1957 -56.9812,48.8662 16.5369,-5.2021 36.2319,-8.2229 57.3721,-8.2229 20.7892,0 40.1771,2.9203 56.5429,7.9628 z"
       style="fill:#1f378b;fill-rule:evenodd"
       id="path12" />
    <path
       d="m 51.3364,118.5548 c 4.9604,26.7936 28.435,47.0902 56.6642,47.0902 28.2378,0 51.716,-20.3105 56.6665,-47.1155 -16.3804,-5.0587 -35.7929,-7.9931 -56.6171,-7.9931 -20.8602,0 -40.314,2.9414 -56.7136,8.0184 z"
       style="fill:#1f378b;fill-rule:evenodd"
       id="path13" />
    <path
       d="m 116.7901,70.9861 -2.3915,5.0232 -5.8771,0.0961 4.1202,4.194 -1.5953,5.6821 5.1133,-2.9876 4.7734,3.5056 -1.1841,-5.8283 4.7267,-3.7299 -5.8344,-0.7095 z"
       style="fill:#ffffff;fill-rule:evenodd"
       id="path14" />
    <path
       d="m 108.1229,142.2106 -1.7226,4.17 -4.7561,0.3265 3.515,3.2219 -1.0511,4.6698 4.0148,-2.6372 4.014,2.6372 -1.2059,-4.6705 3.6693,-3.2212 -4.755,-0.3265 z"
       style="fill:#ffffff;fill-rule:evenodd"
       id="path15" />
    <path
       d="m 86.636,114.2649 -1.4277,4.2802 -4.7217,0.6578 3.7314,2.9689 -0.7229,4.7311 3.8211,-2.9105 4.188,2.3505 -1.5282,-4.5741 3.4354,-3.47 -4.7662,0.006 z"
       style="fill:#ffffff;fill-rule:evenodd"
       id="path16" />
    <path
       d="m 132.596,120.8909 -4.4343,-0.1609 3.084,3.3395 -1.5711,4.2073 3.9735,-2.0508 3.4604,2.8319 -0.5194,-4.426 3.568,-2.6408 -4.3711,-0.7661 -1.1894,-4.0283 z"
       style="fill:#ffffff;fill-rule:evenodd"
       id="path17" />
    <path
       d="m 117.5178,131.3692 -3.3225,-0.004 2.395,2.4185 -1.0654,3.1889 2.9191,-1.6386 2.6631,2.0288 -0.5035,-3.2978 2.6005,-2.0699 -3.2906,-0.4583 -0.9954,-2.9836 z"
       style="fill:#ffffff;fill-rule:evenodd"
       id="path18" />
    <path
       d="m 58.1271,112.6269 c -0.0678,-0.28 -0.8204,-3.3752 -0.8881,-3.6564 0.3026,-0.0739 6.5087,-1.5829 6.5087,-1.5829 l -0.4228,-1.7416 c 0,0 -6.2069,1.5066 -6.5105,1.5808 -0.0669,-0.2783 -0.7398,-3.0466 -0.8067,-3.3262 0.3036,-0.0728 7.0552,-1.7133 7.0552,-1.7133 l -0.4236,-1.7433 -0.16,0.0397 -8.8203,2.1426 2.9667,12.2108 9.0967,-2.2102 -0.4245,-1.7416 c 0,0 -6.8665,1.6663 -7.1708,1.7416 z"
       style="fill:#1f378b;fill-rule:evenodd"
       id="path19" />
    <path
       d="m 69.0703,109.8451 -1.8998,0.3733 0.4092,2.0941 2.0624,-0.4047 -0.411,-2.0941 z"
       style="fill:#1f378b;fill-rule:evenodd"
       id="path20" />
    <path
       d="m 83.6351,105.0311 c -0.1942,2.9613 -2.0841,3.525 -2.888,3.6295 -2.5611,0.3352 -4.0742,-1.1412 -4.4987,-4.3866 -0.3686,-2.8275 0.8889,-4.849 3.2023,-5.1508 1.0182,-0.1336 2.833,-0.0554 3.5494,1.9663 l 0.0452,0.1246 1.9024,-0.2474 -0.0451,-0.1795 c -0.4698,-1.8694 -2.2395,-3.8928 -5.6849,-3.4429 -3.5375,0.4619 -5.4916,3.3057 -4.9775,7.2442 0.6369,4.8789 3.768,6.2408 6.4852,5.8845 1.113,-0.1456 4.7481,-0.9826 4.8258,-5.6353 l 0.0035,-0.1896 -1.9105,0.2481 z"
       style="fill:#1f378b;fill-rule:evenodd"
       id="path21" />
    <path
       d="m 89.1149,107.0889 -1.9287,0.1752 0.1943,2.1267 2.0912,-0.1913 -0.1933,-2.1251 z"
       style="fill:#1f378b;fill-rule:evenodd"
       id="path22" />
    <path
       d="m 108.3861,95.7724 -2.4697,0.059 c 0,0 -2.9006,9.3605 -3.1373,10.1229 -0.2737,-0.751 -3.6297,-9.9632 -3.6297,-9.9632 l -2.6495,0.0626 0.2972,12.5617 1.9286,-0.0451 -0.1744,-7.3887 c 0,0 -0.0514,-1.4585 -0.0741,-2.0999 0.5286,1.4587 3.4094,9.4133 3.4094,9.4133 l 1.8718,-0.0439 c 0,0 2.5011,-8.0992 2.9583,-9.5819 0.009,0.6503 0.0265,2.1187 0.0265,2.1187 l 0.1753,7.388 1.9296,-0.0457 -0.2982,-12.5613 z"
       style="fill:#1f378b;fill-rule:evenodd"
       id="path23" />
    <path
       d="m 114.5669,95.9362 -0.0424,0.1048 -5.085,12.3016 2.0553,0.0658 c 0,0 1.3134,-3.3171 1.3918,-3.5183 0.215,0.006 4.4566,0.1434 4.674,0.1506 0.0651,0.2107 1.0949,3.599 1.0949,3.599 l 2.1565,0.07 -4.1428,-12.7061 z m 2.3462,7.2888 c -0.377,-0.0115 -2.9534,-0.0945 -3.3381,-0.1073 0.148,-0.3697 1.6351,-4.0794 1.8896,-4.7153 0.1983,0.6564 1.3365,4.4516 1.4485,4.8226 z"
       style="fill:#1f378b;fill-rule:evenodd"
       id="path24" />
    <path
       d="m 131.9529,104.804 -1.9211,-0.1596 -0.0374,0.1302 c -0.813,2.8527 -2.7806,3.0043 -3.5882,2.9383 -1.1293,-0.0941 -1.9963,-0.4897 -2.5782,-1.1769 -0.7444,-0.8781 -1.0441,-2.245 -0.8925,-4.0614 0.13,-1.5681 0.672,-2.7978 1.5676,-3.5555 0.7209,-0.6101 1.6358,-0.8883 2.6492,-0.804 1.0227,0.0855 2.7807,0.5462 3.0546,2.6727 l 0.0168,0.1319 1.9117,0.1583 -0.006,-0.1836 c -0.0631,-1.9265 -1.3664,-4.2782 -4.8281,-4.5661 -1.6309,-0.1356 -3.0799,0.2897 -4.1911,1.231 -1.2718,1.0761 -2.033,2.7353 -2.2046,4.7985 -0.4079,4.9033 2.3655,6.8939 5.0967,7.1216 1.1183,0.0921 4.8479,0.0403 5.9061,-4.4898 z"
       style="fill:#1f378b;fill-rule:evenodd"
       id="path25" />
    <path
       d="m 137.5934,97.7688 -0.0542,0.1006 -6.3386,11.703 2.0363,0.2811 c 0,0 1.652,-3.1621 1.7525,-3.3554 0.2132,0.0295 4.4163,0.6088 4.6312,0.6384 0.0414,0.2168 0.713,3.6946 0.713,3.6946 l 2.1379,0.2931 -2.7931,-13.0681 z m 1.5718,7.4942 c -0.3722,-0.0513 -2.9251,-0.403 -3.3081,-0.4559 0.1862,-0.3517 2.0524,-3.8861 2.3722,-4.4926 0.1284,0.6739 0.8637,4.5684 0.9359,4.9485 z"
       style="fill:#1f378b;fill-rule:evenodd"
       id="path26" />
    <path
       d="m 154.5387,104.3848 c 0.4191,-2.1162 -0.7951,-3.8342 -3.0216,-4.275 l -5.5603,-1.1016 -0.0315,0.1609 -2.4113,12.1659 1.9453,0.3855 c 0,0 0.9419,-4.7666 1.0027,-5.067 0.2945,0.0583 3.6177,0.716 3.6177,0.716 2.7461,0.5438 4.1174,-1.2684 4.459,-2.9847 z m -6.9776,-3.2827 c 0.2921,0.0572 3.1328,0.6208 3.1328,0.6208 1.2748,0.253 1.9019,0.8354 1.9019,1.7779 0,0.1578 -0.0182,0.327 -0.0536,0.5059 -0.1282,0.6467 -0.3799,1.0882 -0.7714,1.3501 -0.4433,0.2964 -1.0667,0.3596 -1.9043,0.1947 0,0 -2.7759,-0.5506 -3.0662,-0.6071 0.0561,-0.2856 0.7048,-3.5574 0.7608,-3.8423 z"
       style="fill:#1f378b;fill-rule:evenodd"
       id="path27" />
    <path
       d="m 163.2337,99.1612 -2.236,-0.5613 -0.0651,0.0627 -2.2728,2.1661 1.4651,0.3685 z"
       style="fill:#1f378b;fill-rule:evenodd"
       id="path28" />
    <path
       d="m 158.5454,101.6923 -0.0645,0.094 -7.5791,10.9418 1.9945,0.5011 c 0,0 1.9869,-2.9638 2.1078,-3.1427 0.2079,0.0511 4.3224,1.086 4.5349,1.1372 0.0179,0.2216 0.306,3.752 0.306,3.752 l 2.0921,0.5238 -1.3532,-13.2953 z m 0.7448,7.6196 c -0.3656,-0.0907 -2.8642,-0.7182 -3.2392,-0.8132 0.2233,-0.3288 2.4636,-3.6387 2.849,-4.2066 0.0525,0.6836 0.3596,4.6346 0.3902,5.0198 z"
       style="fill:#1f378b;fill-rule:evenodd"
       id="path29" />
  </g>
</svg>
