<?xml version="1.0" encoding="UTF-8" standalone="no"?>
<svg
   version="1.1"
   width="1.709631in"
   height="1.711906in"
   viewBox="0 0 123.09343 123.25723"
   id="svg17"
   sodipodi:docname="madureira_ec-rj.cdr"
   xmlns:inkscape="http://www.inkscape.org/namespaces/inkscape"
   xmlns:sodipodi="http://sodipodi.sourceforge.net/DTD/sodipodi-0.dtd"
   xmlns="http://www.w3.org/2000/svg"
   xmlns:svg="http://www.w3.org/2000/svg">
  <defs
     id="defs17" />
  <sodipodi:namedview
     id="namedview17"
     pagecolor="#ffffff"
     bordercolor="#000000"
     borderopacity="0.25"
     inkscape:showpageshadow="2"
     inkscape:pageopacity="0.0"
     inkscape:pagecheckerboard="0"
     inkscape:deskcolor="#d1d1d1"
     inkscape:document-units="in" />
  <g
     id="Layer1003"
     transform="translate(-46.458042,-50.872372)">
    <path
       d="m 161.1796,79.683362 6.687,-6.31247 -24.576,-22.498525 c -11.8974,7.607768 -23.2733,7.607768 -34.2157,0 -11.2895,7.68838 -23.0131,7.68838 -35.3447,0 l -22.5788,20.717874 5.124,8.821802 C 35.6073,121.44324 47.5913,150.25498 92.0542,167.08845 l 15.4576,7.04115 25.7921,-10.35903 c 35.7788,-15.78141 45.0702,-43.78311 27.8757,-84.087208 z"
       style="fill:#d53a21;fill-opacity:1;fill-rule:evenodd;stroke-width:0.965368"
       id="path10" />
    <path
       d="m 156.0565,78.712843 c -0.1739,0.970519 -0.0873,1.860424 0.2604,2.832527 15.8918,37.22815 7.468,63.12591 -25.1841,77.8547 l -23.4471,9.38758 -13.3739,-6.0698 c -0.0865,-0.0806 -0.1739,-0.0806 -0.3468,-0.16122 -20.5816,-7.76899 -33.6952,-18.20938 -39.3399,-31.4823 -5.297,-13.35353 -3.2125,-29.53967 6.4266,-48.558441 0.3477,-0.728588 0.5207,-1.456524 0.4342,-2.184459 0,-0.809293 -0.1739,-1.537974 -0.6081,-2.186043 L 57.578,72.48024 74.5121,56.942161 c 11.8974,6.231018 23.4472,6.150406 34.4762,-0.243422 10.8552,6.393828 21.9707,6.47444 33.6078,0.243422 l 17.889,16.510182 -3.0395,2.83262 c -0.6945,0.646391 -1.1287,1.537136 -1.3891,2.42788 z"
       style="fill:#4d4abc;fill-opacity:1;fill-rule:evenodd;stroke-width:0.965368"
       id="path11" />
    <path
       d="m 137.5586,84.943862 c -7.9887,-7.607768 -17.9755,-11.491519 -29.7864,-11.491519 -11.6363,0 -21.623,3.883751 -29.8729,11.491519 -8.2499,7.769086 -12.3317,17.076058 -12.2452,27.759868 -0.0865,10.84419 3.9953,20.0698 12.2452,27.83954 8.4229,7.68847 18.4097,11.49236 29.8729,11.49236 11.637,0 21.6238,-3.80389 29.7864,-11.49236 8.2499,-7.60693 12.3317,-16.91399 12.419,-27.83954 -0.0873,-10.92565 -4.1691,-20.1521 -12.419,-27.759868 z"
       style="fill:#ffff00;fill-rule:evenodd;stroke-width:0.965368"
       id="path12" />
    <path
       d="m 107.8595,83.16405 c 8.7706,0 16.1521,2.91314 22.1446,8.578287 6.0789,5.665147 9.1183,12.544323 9.1183,20.637353 0,8.09303 -3.0394,14.8915 -9.1183,20.55665 -6.0789,5.74576 -13.4604,8.57838 -22.1446,8.57838 -8.5976,0 -15.9791,-2.83262 -22.1445,-8.57838 -6.0789,-5.66515 -9.2057,-12.54423 -9.2057,-20.55665 0,-8.09303 3.1268,-14.972206 9.2057,-20.637353 6.0789,-5.665147 13.4604,-8.578287 22.1445,-8.578287 z"
       style="fill:#d53a21;fill-opacity:1;fill-rule:evenodd;stroke-width:0.965368"
       id="path13" />
    <g
       id="Layer1004"
       transform="matrix(1,0,0,0.93193623,0,11.851917)">
      <path
         d="m 122.5352,93.4545 c -3.9079,-3.9953 -8.858,-6.079 -14.763,-6.079 -5.7312,0 -10.6813,2.0837 -14.763,6.079 -3.9944,4.0808 -6.079,9.0309 -6.079,14.763 0,5.7312 2.0846,10.6804 6.079,14.763 4.2555,4.1673 9.1183,6.1654 14.763,6.1654 5.732,0 10.6813,-1.9981 14.763,-6.1654 4.1683,-3.9953 6.1662,-8.9453 6.1662,-14.763 0,-5.8194 -1.9979,-10.6822 -6.1662,-14.763 z"
         style="fill:#ffffff;fill-rule:evenodd"
         id="path14" />
    </g>
    <g
       id="Layer1005"
       transform="matrix(1,0,0,0.93193623,0,11.851917)">
      <path
         d="m 101.6068,91.0222 -0.0874,-0.3477 c -0.2603,0 -0.5207,0.0873 -0.6945,0.2612 -1.2153,0.4342 -2.4314,1.0414 -3.6475,1.9098 l 0.0873,0.0874 -1.7368,13.8072 -2.6926,-8.5968 -0.5207,-0.4341 c -0.0865,0.1738 -0.1738,0.3468 -0.2604,0.4341 -1.8241,2.8657 -2.7791,6.079 -2.7791,9.813 0,4.1691 1.3027,7.9895 3.9079,11.2893 0.1739,0.2612 0.3477,0.4342 0.5207,0.6954 l 1.4765,-4.0825 c -0.9549,-0.9549 -1.563,-1.9963 -1.7368,-3.2124 -0.0865,-0.1739 -0.0865,-0.3477 -0.0865,-0.5207 l 0.2603,-0.1747 1.9107,2.3457 1.7368,-1.998 v 9.9867 l -0.3477,0.4342 c 1.3027,0.9549 2.6052,1.6503 3.9079,2.171 0.1738,0.0865 0.4342,0.1739 0.6945,0.2612 l 0.0874,-0.3477 z"
         style="fill:#4d4abc;fill-opacity:1;fill-rule:evenodd"
         id="path15" />
    </g>
    <g
       id="Layer1006"
       transform="matrix(1,0,0,0.93193623,0,11.851917)">
      <path
         d="m 110.4648,95.4508 h 1.6494 v 4.342 h 2.8657 v -9.5525 h -11.2894 v 4.169 h 1.8242 v 27.9622 h -1.8242 l -0.0865,3.0395 h 9.0318 l 2.6052,-2.6052 v -5.3835 l -1.7368,0.6945 -1.8242,3.2133 h -1.2152 v -9.9867 h 1.5629 v 3.2998 h 1.7368 v -10.9425 h -1.6503 v 2.8665 h -1.6494 z"
         style="fill:#4d4abc;fill-opacity:1;fill-rule:evenodd"
         id="path16" />
    </g>
    <g
       id="Layer1007"
       transform="matrix(1,0,0,0.93193623,0,11.851917)">
      <path
         d="m 116.7167,91.6303 -0.173,0.3468 v 32.2187 l 0.2603,0.5215 v -0.0874 c 1.3891,-0.781 2.8656,-1.9106 4.3421,-3.3863 2.8655,-2.9529 4.6024,-6.6004 5.1231,-10.6821 l -0.6072,-0.0865 h -4.0817 v 0.6072 c 0.2604,1.9116 -0.3477,3.1268 -1.7368,3.6484 v -11.2894 c 1.0422,0 1.5629,0.6937 1.5629,1.9098 v 0.4343 h 4.2556 l 0.6072,-0.0866 c -0.6072,-4.169 -2.2576,-7.7292 -5.1231,-10.5948 -1.3026,-1.4765 -2.8656,-2.6052 -4.4294,-3.4736 z"
         style="fill:#4d4abc;fill-opacity:1;fill-rule:evenodd"
         id="path17" />
    </g>
  </g>
</svg>
