<?xml version="1.0" encoding="UTF-8" standalone="no"?>
<svg
   version="1.1"
   width="1.5810916in"
   height="1.5772114in"
   viewBox="0 0 113.8386 113.55922"
   id="svg33"
   sodipodi:docname="marilia_ac-sp.cdr"
   xmlns:inkscape="http://www.inkscape.org/namespaces/inkscape"
   xmlns:sodipodi="http://sodipodi.sourceforge.net/DTD/sodipodi-0.dtd"
   xmlns="http://www.w3.org/2000/svg"
   xmlns:svg="http://www.w3.org/2000/svg">
  <defs
     id="defs33" />
  <sodipodi:namedview
     id="namedview33"
     pagecolor="#ffffff"
     bordercolor="#000000"
     borderopacity="0.25"
     inkscape:showpageshadow="2"
     inkscape:pageopacity="0.0"
     inkscape:pagecheckerboard="0"
     inkscape:deskcolor="#d1d1d1"
     inkscape:document-units="in" />
  <g
     id="Layer1003"
     transform="matrix(1,0,0,0.91769553,-51.080601,-42.331368)">
    <path
       d="M 135.9126,64.7629 C 131.3668,53.8235 120.585,46.1279 108,46.1279 c -12.5845,0 -23.3667,7.6956 -27.9122,18.635 H 51.0806 v 18.16 l 2.4518,1.0526 c 12.4188,5.3323 13.8892,18.177 9.9999,27.8547 l -0.0918,0.2289 -0.0636,0.238 c -3.9821,14.9372 0.4101,23.8704 4.0607,29.2898 l 0.0415,0.0604 c 5.8096,8.2971 13.6564,10.9254 20.5794,13.244 2.5161,0.8427 4.8926,1.6386 7.1453,2.6683 3.7968,1.7346 7.3377,5.7004 9.6708,8.5322 l 3.114,3.78 3.1276,-3.769 c 2.5645,-3.0902 5.9824,-6.8542 9.6796,-8.5432 2.2534,-1.0297 4.6298,-1.8256 7.1457,-2.6683 6.9229,-2.319 14.7697,-4.9469 20.5793,-13.244 l 0.0416,-0.0604 c 3.6505,-5.4194 8.0431,-14.352 4.0608,-29.2898 l -0.0636,-0.238 -0.0919,-0.2289 c -3.889,-9.6777 -2.4185,-22.5226 9.9999,-27.8547 l 2.4516,-1.0526 v -18.16 z"
       style="fill:#009ee0;fill-rule:evenodd"
       id="path10" />
    <path
       d="m 137.2723,68.8125 c 0.6183,2.4087 0.9474,4.9334 0.9474,7.5352 0,16.69 -13.5297,30.2198 -30.2197,30.2198 -16.6898,0 -30.2196,-13.5298 -30.2196,-30.2198 0,-2.6018 0.3293,-5.1265 0.9475,-7.5352 H 55.13 v 11.4422 c 14.9887,6.4356 16.6359,21.9472 12.1597,33.0856 -3.4204,12.8299 -0.0709,20.6729 3.5065,25.9845 6.9525,9.9292 17.1757,10.4775 26.0907,14.5513 4.3242,1.9762 8.1583,6.0544 11.1131,9.6409 2.9825,-3.5942 6.7676,-7.6557 11.1133,-9.6409 8.9147,-4.0738 19.1379,-4.6221 26.0904,-14.5513 3.5779,-5.3116 6.9273,-13.1546 3.5069,-25.9845 -4.4762,-11.1384 -2.8289,-26.65 12.1593,-33.0856 V 68.8125 Z"
       style="fill:#ffffff;fill-rule:evenodd"
       id="path11" />
    <path
       d="M 58.8327,77.9302 H 73.7034 V 72.5154 H 58.8327 Z"
       style="fill:#009ee0;fill-rule:evenodd"
       id="path12" />
    <path
       d="m 142.2965,72.5154 v 5.4148 h 14.8708 v -5.4148 z"
       style="fill:#009ee0;fill-rule:evenodd"
       id="path13" />
    <path
       d="m 108,49.6352 c -14.7522,0 -26.7125,11.9595 -26.7125,26.7125 0,14.7529 11.9603,26.7126 26.7125,26.7126 14.753,0 26.7126,-11.9597 26.7126,-26.7126 0,-14.753 -11.9596,-26.7125 -26.7126,-26.7125 z"
       style="fill:#ffffff;fill-rule:evenodd"
       id="path14" />
    <path
       d="m 125.5274,85.0115 c -1.3364,2.6895 -3.2742,5.0289 -5.6353,6.8446 V 60.8357 c 1.9853,1.528 3.6722,3.427 4.9533,5.5912 h 4.2339 c -2.5752,-5.4418 -7.1973,-9.7375 -12.8629,-11.8844 0,14.5357 0,29.0718 0,43.6094 6.0946,-2.3098 10.9824,-7.1062 13.412,-13.1404 z"
       style="fill:#009ee0;fill-rule:evenodd"
       id="path15" />
    <path
       d="M 93.1473,66.8098 90.564,60.9152 v 7e-4 c -5.8342,6.5864 -7.4724,15.9571 -4.1939,24.0956 h 4.1016 C 87.8632,79.7646 87.8105,73.7 90.1035,68.4881 l 3.0438,6.9134 c 1.2723,-2.9644 2.5015,-5.5473 3.751,-8.5193 v 29.9434 c 1.1688,0.637 2.3968,1.1777 3.6748,1.6092 V 54.2596 c -0.7985,0.2697 -1.5774,0.5816 -2.3351,0.933 z"
       style="fill:#009ee0;fill-rule:evenodd"
       id="path16" />
    <path
       d="m 102.4937,53.7039 c 0,15.0947 0,30.1908 0,45.2874 1.1924,0.2902 2.4197,0.489 3.6749,0.5878 V 77.98 h 4.4526 v 21.5245 c 1.2572,-0.1425 2.4848,-0.3847 3.6753,-0.7205 V 53.9096 c -2.0042,-0.5652 -4.1164,-0.8672 -6.2969,-0.8672 -1.8958,0 -3.7393,0.2301 -5.5059,0.6615 z m 8.1275,20.8436 h -4.4526 V 56.8729 c 0.6036,-0.0572 1.2135,-0.0858 1.831,-0.0858 0.8892,0 1.7639,0.0598 2.6216,0.1757 z"
       style="fill:#009ee0;fill-rule:evenodd"
       id="path17" />
    <path
       d="m 88.2522,112.8292 1.568,1.3119 c 0.1073,0.0902 0.2189,0.1744 0.3276,0.263 v -10.0334 c -5.227,-3.3369 -9.4571,-8.0958 -12.1469,-13.7315 v 29.3482 l 8.7519,-6.1112 z"
       style="fill:#009ee0;fill-rule:evenodd"
       id="path18" />
    <path
       d="m 78.0009,141.6115 c 3.5126,2.8149 7.6133,4.236 12.1469,5.7555 v -13.3976 c -4.487,-1.9606 -8.6096,-4.6578 -12.1469,-8.0001 z"
       style="fill:#009ee0;fill-rule:evenodd"
       id="path19" />
    <path
       d="m 101.9269,137.2707 v 15.1995 c 2.2835,1.5778 4.3293,3.5027 6.0757,5.3675 1.7859,-1.9097 3.8157,-3.8136 6.0702,-5.3697 v -15.1973 c -2.0002,0.2736 -4.0288,0.4167 -6.0728,0.4167 -2.0441,0 -4.0729,-0.1431 -6.0731,-0.4167 z"
       style="fill:#009ee0;fill-rule:evenodd"
       id="path20" />
    <path
       d="M 114.0728,120.3194 V 109.015 c -1.9691,0.3639 -3.9985,0.5555 -6.0728,0.5555 -2.0745,0 -4.1039,-0.1916 -6.0731,-0.5555 v 11.304 c 2.0216,0.4942 4.0641,0.7542 6.0731,0.7542 2.0089,0 4.0514,-0.26 6.0728,-0.7538 z"
       style="fill:#009ee0;fill-rule:evenodd"
       id="path21" />
    <path
       d="m 125.8521,147.3674 c 4.5336,-1.5199 8.6342,-2.941 12.147,-5.7559 v -15.6421 c -3.5376,3.3422 -7.6603,6.0394 -12.147,8 z"
       style="fill:#009ee0;fill-rule:evenodd"
       id="path22" />
    <path
       d="m 127.7487,112.8296 10.2504,7.1582 V 90.6395 c -2.69,5.6356 -6.9201,10.3947 -12.147,13.7312 v 10.0334 c 0.1088,-0.0886 0.22,-0.1728 0.3277,-0.263 z"
       style="fill:#009ee0;fill-rule:evenodd"
       id="path23" />
    <path
       d="m 127.7139,115.9734 c -5.6834,4.7597 -12.8687,7.4894 -19.7139,7.4894 -6.845,0 -14.0304,-2.7297 -19.7142,-7.4894 l -0.1649,-0.1382 -9.943,6.9435 0.2293,0.2371 c 7.5443,7.8055 18.3305,12.282 29.5928,12.282 11.2623,0 22.0482,-4.4765 29.5927,-12.282 l 0.2291,-0.2371 -9.9428,-6.9435 z"
       style="fill:#009ee0;fill-rule:evenodd"
       id="path24" />
    <path
       d="m 88.0977,116.537 c 5.7566,4.757 12.9948,7.4881 19.9023,7.4881 6.9078,0 14.1459,-2.7311 19.902,-7.4881 0.3159,0.2208 8.5362,5.9612 9.0501,6.32 -7.4273,7.5494 -17.9563,11.8786 -28.9521,11.8786 -10.996,0 -21.5247,-4.3292 -28.952,-11.8786 0.5137,-0.3588 8.734,-6.0992 9.0497,-6.32 z"
       style="fill:#ffffff;fill-rule:evenodd"
       id="path25" />
    <path
       d="m 110.5297,125.2112 0.3893,0.4296 1.8253,-0.5249 -0.6347,-0.7006 z"
       style="fill:#e30016;fill-rule:evenodd"
       id="path26" />
    <path
       d="m 127.4704,119.8563 -1.4148,1.0287 2.0025,7.3841 1.3268,-0.9638 -0.4898,-1.522 2.2406,-1.6279 1.3644,0.8869 1.4064,-1.022 z m 1.0667,4.7017 -0.716,-2.2991 c -0.0204,-0.062 -0.0707,-0.1787 -0.1452,-0.3507 -0.0784,-0.172 -0.1677,-0.3629 -0.2684,-0.5754 0.1735,0.1732 0.3237,0.315 0.4489,0.4282 0.128,0.1127 0.2196,0.1907 0.2788,0.2328 l 2.006,1.3987 z"
       style="fill:#e30016;fill-rule:evenodd"
       id="path27" />
    <path
       d="m 120.7464,123.7718 2.9086,6.5329 1.3965,-0.6219 -2.9082,-6.533 z"
       style="fill:#e30016;fill-rule:evenodd"
       id="path28" />
    <path
       d="m 117.669,130.8853 -1.5148,-5.6527 -1.477,0.3958 1.8507,6.9075 3.8367,-1.028 -0.3363,-1.2548 z"
       style="fill:#e30016;fill-rule:evenodd"
       id="path29" />
    <path
       d="m 110.3844,126.0515 0.4986,7.1338 1.5254,-0.1069 -0.4989,-7.1333 z"
       style="fill:#e30016;fill-rule:evenodd"
       id="path30" />
    <path
       d="m 106.9866,129.4486 c 0.3207,-0.3269 0.4982,-0.7359 0.5322,-1.2263 0.0473,-0.6758 -0.1329,-1.1982 -0.5425,-1.5638 -0.407,-0.3661 -1.0458,-0.5798 -1.9119,-0.6406 l -2.1843,-0.1528 -0.4993,7.1338 1.5258,0.1065 0.2331,-3.3329 1.6433,3.4643 1.7599,0.1226 -1.7424,-3.3826 c 0.4711,-0.025 0.8675,-0.2009 1.1861,-0.5282 z m -1.3281,-0.5377 c -0.2068,0.121 -0.6186,0.1606 -1.2362,0.1171 l -0.2299,-0.0152 0.1315,-1.8767 0.2295,0.0154 c 0.5867,0.0415 0.9828,0.1433 1.1857,0.3054 0.2021,0.1635 0.2917,0.4206 0.2672,0.7713 -0.0238,0.3345 -0.1403,0.5618 -0.3478,0.6827 z"
       style="fill:#e30016;fill-rule:evenodd"
       id="path31" />
    <path
       d="m 96.9924,124.1671 -4.7975,5.96 1.5602,0.5065 0.9433,-1.2905 2.6341,0.8559 0.0839,1.6252 1.6538,0.5371 -0.4144,-7.6535 z m 0.35,1.9716 c -0.0161,0.1694 -0.0259,0.2895 -0.0249,0.362 l 0.0476,2.4456 -1.8859,-0.6132 1.4389,-1.9305 c 0.0385,-0.0527 0.1032,-0.1612 0.1981,-0.3234 0.0937,-0.1642 0.1955,-0.3487 0.3078,-0.5551 -0.0373,0.2415 -0.064,0.4465 -0.0816,0.6146 z"
       style="fill:#e30016;fill-rule:evenodd"
       id="path32" />
    <path
       d="m 91.7246,121.7942 -3.6035,2.5735 c -0.0728,0.0486 -0.1725,0.1344 -0.3012,0.255 -0.1282,0.1242 -0.2695,0.2667 -0.4203,0.4288 0.1047,-0.1926 0.1937,-0.3685 0.2643,-0.5256 0.0732,-0.1575 0.123,-0.2797 0.1504,-0.3686 l 1.3607,-4.216 -1.2962,-0.9415 -5.0841,5.1457 1.1731,0.8525 2.9549,-3.1846 0.0142,-0.0146 c 0.3316,-0.3541 0.5938,-0.6666 0.7892,-0.935 l 0.123,-0.1703 c -0.1526,0.3439 -0.2671,0.6074 -0.3452,0.7882 -0.0773,0.1805 -0.1218,0.2925 -0.1379,0.3334 l -1.4811,4.5753 0.6944,0.5047 3.9138,-2.8079 c 0.0897,-0.0636 0.2123,-0.1639 0.3672,-0.3037 0.1556,-0.1385 0.3335,-0.3079 0.5393,-0.5046 -0.0202,0.0225 -0.0426,0.0477 -0.0656,0.0758 -0.0227,0.0289 -0.056,0.0752 -0.1007,0.1352 -0.0816,0.1134 -0.1657,0.2401 -0.2511,0.3799 -0.0857,0.1377 -0.2057,0.3497 -0.3609,0.6303 l -2.1133,3.7968 1.174,0.8525 3.3182,-6.4282 z"
       style="fill:#e30016;fill-rule:evenodd"
       id="path33" />
  </g>
</svg>
