<?xml version="1.0" encoding="UTF-8" standalone="no"?>
<svg
   version="1.1"
   width="1.67445in"
   height="1.67445in"
   viewBox="0 0 120.5604 120.5604"
   id="svg15"
   sodipodi:docname="mirassol_fc-sp.cdr"
   xmlns:inkscape="http://www.inkscape.org/namespaces/inkscape"
   xmlns:sodipodi="http://sodipodi.sourceforge.net/DTD/sodipodi-0.dtd"
   xmlns="http://www.w3.org/2000/svg"
   xmlns:svg="http://www.w3.org/2000/svg">
  <defs
     id="defs15" />
  <sodipodi:namedview
     id="namedview15"
     pagecolor="#ffffff"
     bordercolor="#000000"
     borderopacity="0.25"
     inkscape:showpageshadow="2"
     inkscape:pageopacity="0.0"
     inkscape:pagecheckerboard="0"
     inkscape:deskcolor="#d1d1d1"
     inkscape:document-units="in" />
  <g
     id="Layer1003"
     transform="translate(-47.719799,-47.719799)">
    <path
       d="m 168.2802,108 c 0,33.2917 -26.9885,60.2802 -60.2802,60.2802 -33.2917,0 -60.2802,-26.9885 -60.2802,-60.2802 0,-33.2901 26.9885,-60.2802 60.2802,-60.2802 33.2917,0 60.2802,26.9901 60.2802,60.2802 z"
       style="fill:#1c873d;fill-rule:evenodd"
       id="path10" />
    <path
       d="m 49.406,108 c 0,32.3087 26.2853,58.594 58.594,58.594 32.3087,0 58.594,-26.2853 58.594,-58.594 0,-32.3087 -26.2853,-58.594 -58.594,-58.594 -32.3087,0 -58.594,26.2853 -58.594,58.594 z"
       style="fill:#ffe500;fill-rule:evenodd"
       id="path11" />
    <path
       d="m 55.3076,108 c 0,29.0549 23.6374,52.6924 52.6924,52.6924 29.0549,0 52.6924,-23.6375 52.6924,-52.6924 0,-29.0549 -23.6375,-52.6924 -52.6924,-52.6924 -29.055,0 -52.6924,23.6375 -52.6924,52.6924 z"
       style="fill:#1c873d;fill-rule:evenodd"
       id="path12" />
    <path
       d="m 71.3425,94.1007 c -1.645,4.3225 -2.5457,9.0071 -2.5457,13.8993 0,11.999 5.4339,22.7384 13.9536,29.931 v 11.3782 C 68.8429,140.7813 59.5229,125.4758 59.5229,108 c 0,-13.1698 5.2808,-25.1244 13.8334,-33.8664 l 4.1249,14.6617 8.9775,-24.204 c 2.7697,-1.3799 5.6891,-2.5021 8.7271,-3.3361 v 93.4895 c -3.2455,-0.8908 -6.3362,-2.1455 -9.2738,-3.6571 V 90.4815 l -4.767,15.9805 h -5.5607 z"
       style="fill:#ffe500;fill-rule:evenodd"
       id="path13" />
    <path
       d="m 98.3474,60.4912 v 95.0176 c 3.0002,0.6093 6.1024,0.9337 9.2739,0.9584 v -44.0657 h 9.063 v -9.2739 h -9.063 V 68.8084 c 0.1268,-9e-4 0.2519,-0.0116 0.3787,-0.0116 5.722,0 11.1559,1.2424 16.0613,3.4555 v -9.9827 c -2.4436,-0.8604 -4.9778,-1.5248 -7.5795,-1.9884 -0.1334,-0.0238 -0.2684,-0.0494 -0.4018,-0.0716 -1.2135,-0.2058 -2.442,-0.3647 -3.6835,-0.4783 -0.1911,-0.0173 -0.382,-0.0288 -0.5747,-0.0437 C 110.5589,59.588 109.2877,59.523 108,59.523 c -0.8266,0 -1.6499,0.0214 -2.4683,0.0625 -2.4469,0.1244 -4.8461,0.4315 -7.1843,0.9057 z"
       style="fill:#ffe500;fill-rule:evenodd"
       id="path14" />
    <path
       d="m 143.2446,125.1514 c -1.7289,3.5353 -3.9783,6.7709 -6.6425,9.6147 V 81.2569 c 2.33,2.4881 4.3554,5.2644 5.9789,8.2925 l 7.9302,-4.8246 C 145.3375,75.3192 137.1323,67.8055 127.2229,63.507 v 88.9868 c 10.0411,-4.3553 18.332,-12.0106 23.4909,-21.5907 z"
       style="fill:#ffe500;fill-rule:evenodd"
       id="path15" />
  </g>
</svg>
