<?xml version="1.0" encoding="UTF-8" standalone="no"?>
<svg
   version="1.1"
   width="1.5083251in"
   height="1.9088846in"
   viewBox="0 0 108.59941 137.43969"
   id="svg14"
   sodipodi:docname="americanatal.cdr"
   xmlns:inkscape="http://www.inkscape.org/namespaces/inkscape"
   xmlns:sodipodi="http://sodipodi.sourceforge.net/DTD/sodipodi-0.dtd"
   xmlns="http://www.w3.org/2000/svg"
   xmlns:svg="http://www.w3.org/2000/svg">
  <defs
     id="defs14" />
  <sodipodi:namedview
     id="namedview14"
     pagecolor="#ffffff"
     bordercolor="#000000"
     borderopacity="0.25"
     inkscape:showpageshadow="2"
     inkscape:pageopacity="0.0"
     inkscape:pagecheckerboard="0"
     inkscape:deskcolor="#d1d1d1"
     inkscape:document-units="in" />
  <g
     id="Layer1003"
     transform="translate(-53.700104,-39.280006)">
    <path
       d="m 108.4302,53.9723 c 29.6703,0 53.8693,24.1989 53.8693,53.8687 0,29.6709 -24.199,53.8697 -53.8693,53.8697 -29.6706,0 -53.8697,-24.1988 -53.8697,-53.8697 0,-29.6698 24.1991,-53.8687 53.8697,-53.8687 z"
       style="fill:#e41e15;fill-rule:evenodd"
       id="path10" />
    <path
       d="m 108.4302,60.4197 c 26.1186,0 47.4213,21.3027 47.4213,47.4213 0,26.1197 -21.3027,47.4219 -47.4213,47.4219 -26.1192,0 -47.4217,-21.3022 -47.4217,-47.4219 0,-26.1186 21.3025,-47.4213 47.4217,-47.4213 z"
       style="fill:#ffffff;fill-rule:evenodd"
       id="path11" />
    <path
       d="m 105.7424,102.8381 h 17.2803 v 7.2793 h -17.2803 v 41.7369 c -2.4865,-0.1514 -4.919,-0.5107 -7.2802,-1.0597 v -85.905 c 3.2051,-0.7467 6.5417,-1.1414 9.968,-1.1414 5.1104,0 10.0217,0.8793 14.5925,2.4904 v 7.8134 c -4.4784,-1.9445 -9.4133,-3.025 -14.5925,-3.025 -0.9039,0 -1.7999,0.0323 -2.6878,0.097 z m 27.4832,-22.1652 v 54.3344 c 6.8511,-6.2594 11.341,-15.063 11.9454,-24.8899 h 7.2944 v 0 c -0.8762,17.0931 -11.5657,31.6644 -26.5206,38.1752 V 67.3892 c 14.1514,6.1613 24.4817,19.5432 26.2921,35.4489 h -7.3351 v 0 c -1.195,-8.7244 -5.4658,-16.4906 -11.6762,-22.1652 z m -61.2692,22.1652 h 15.203 V 77.8269 c -8.1046,5.7647 -13.7943,14.722 -15.203,25.0112 z m 15.203,7.2793 H 71.6862 v 0 c 0.6092,9.9038 5.1651,18.7698 12.1072,25.039 v 9.2224 c -11.7253,-7.9382 -19.4573,-21.3635 -19.4573,-36.5371 0,-19.399 12.6391,-35.9398 30.1028,-41.812 v 83.6222 c -2.5363,-0.8536 -4.9705,-1.9308 -7.2795,-3.2098 z"
       style="fill:#e41e15;fill-rule:evenodd"
       id="path12" />
    <path
       d="m 61.4577,68.4252 -4.777,-1.94 2.7975,4.3839 z m -1.4375,9.0582 -6.3201,-11.0039 2.5099,-3.1002 12.1384,3.8197 -2.3089,2.8502 -2.3184,-0.823 -2.9285,3.6165 1.2872,2.0965 z m 8.8278,-10.7226 -7.2873,-9.3274 4.0305,-3.1486 6.2656,4.7897 -3.2634,-7.1353 4.0281,-3.1473 7.2873,9.3275 -2.3962,1.872 -5.8298,-7.4627 3.7751,9.068 -2.3467,1.8331 -7.9144,-5.8539 5.8401,7.4747 z m 12.9296,-9.1772 -4.8144,-10.8131 7.9755,-3.551 0.9235,2.0737 -5.0574,2.2518 0.9833,2.2079 4.8168,-2.1444 0.9167,2.0589 -4.8171,2.1444 1.0286,2.3107 5.2051,-2.3179 0.9629,2.162 z m -0.2364,-17.2209 -1.1777,3.7665 -1.1286,0.502 0.2012,-3.3316 z m 11.1734,5.8689 1.2575,-0.2906 v 0 c 0.7229,-0.1663 1.2058,-0.3903 1.4472,-0.6711 0.2388,-0.2801 0.2968,-0.6871 0.1742,-1.2184 -0.1115,-0.4834 -0.3356,-0.7972 -0.6731,-0.9408 -0.3391,-0.1444 -0.8469,-0.139 -1.522,0.0169 v 0 l -1.3294,0.3066 z m -1.6438,7.2981 -2.6627,-11.5333 5.2078,-1.2021 v 0 c 1.4278,-0.3294 2.5607,-0.3302 3.3964,0.0031 0.8379,0.3294 1.3694,0.985 1.5956,1.9652 0.1852,0.803 0.0996,1.5031 -0.2607,2.0985 -0.3598,0.5972 -0.9627,1.0539 -1.8072,1.3672 v 0 l 0.0152,0.064 v 0 c 0.6427,-0.1482 1.1752,-0.1339 1.5965,0.0473 0.4239,0.1805 0.7878,0.5519 1.0959,1.1187 0.0917,0.1643 0.306,0.6801 0.6405,1.5453 0.3344,0.8645 0.6794,1.6143 1.0349,2.2517 v 0 l -3.4487,0.7958 v 0 c -0.2276,-0.535 -0.469,-1.1542 -0.7179,-1.8556 -0.25,-0.7042 -0.4084,-1.1338 -0.4792,-1.2948 -0.1825,-0.4136 -0.4138,-0.6834 -0.6934,-0.8096 -0.2797,-0.1301 -0.6634,-0.1365 -1.1522,-0.0239 v 0 l -1.2275,0.2834 1.0268,4.4492 z m 11.0255,-2.1301 -0.8255,-11.8069 3.2656,-0.2285 0.8252,11.8076 z m 16.0384,-3.5492 -0.008,0.1119 v 0 c -0.0841,1.2108 -0.6289,2.1257 -1.6361,2.7444 -1.0068,0.6184 -2.3593,0.8701 -4.0644,0.7511 -1.8387,-0.1288 -3.2294,-0.7396 -4.1667,-1.8324 -0.9367,-1.0917 -1.3414,-2.5703 -1.2109,-4.4312 0.143,-2.0551 0.7663,-3.5846 1.8668,-4.5896 1.0994,-1.0024 2.6269,-1.4371 4.5802,-1.2999 1.6201,0.1132 2.8492,0.5312 3.6799,1.2539 0.8339,0.7236 1.2308,1.7199 1.197,2.9888 v 0 l -3.3474,-0.2342 v 0 c 0.002,-0.4936 -0.1652,-0.8929 -0.498,-1.2016 -0.3358,-0.3059 -0.7958,-0.4815 -1.378,-0.5215 -0.7949,-0.0557 -1.4221,0.233 -1.8784,0.865 -0.4586,0.6323 -0.732,1.5991 -0.8228,2.8944 -0.0842,1.2023 0.0607,2.1185 0.4306,2.7564 0.3729,0.6394 0.9639,0.985 1.7752,1.0419 0.5875,0.0414 1.068,-0.073 1.4415,-0.3469 0.3731,-0.2703 0.5928,-0.6671 0.6621,-1.1867 v 0 l 3.3771,0.2362 z m 8.8933,1.4612 -0.1702,-5.1532 -2.8677,4.3384 z m -8.859,2.3701 7.4814,-10.2495 3.8525,1.0327 1.4483,12.6424 -3.5427,-0.9492 -0.191,-2.4538 -4.4958,-1.2042 -1.391,2.0292 z m 18.6471,6.985 6.2727,-10.0378 7.0434,4.4013 -1.1947,1.912 -4.268,-2.6666 -1.4558,2.3302 3.9606,2.4751 -1.1854,1.8978 -3.9606,-2.4751 -2.4356,3.8979 z m 5.6075,3.7803 1.5077,-1.9296 2.2647,1.7691 -1.5077,1.9296 z m 14.113,7.9854 -0.0801,0.0783 v 0 c -0.8735,0.8424 -1.8902,1.1583 -3.0529,0.944 -1.1621,-0.2142 -2.3353,-0.9325 -3.5226,-2.1617 -1.2806,-1.326 -1.9057,-2.7106 -1.8706,-4.1492 0.0343,-1.4389 0.7234,-2.8081 2.0654,-4.1042 1.4817,-1.4307 2.9687,-2.1502 4.4582,-2.162 1.4883,-0.0082 2.9131,0.6906 4.2739,2.0993 1.1284,1.1691 1.7614,2.3015 1.8953,3.3951 0.1359,1.0948 -0.2363,2.1016 -1.111,3.0211 v 0 l -2.3302,-2.4136 v 0 c 0.3313,-0.3661 0.4744,-0.7739 0.4337,-1.2262 -0.0441,-0.4523 -0.2693,-0.8903 -0.6743,-1.3103 -0.5532,-0.5727 -1.2133,-0.7783 -1.9749,-0.6134 -0.7648,0.1631 -1.6144,0.6983 -2.5488,1.6002 -0.867,0.8373 -1.3723,1.6152 -1.5244,2.3373 -0.1502,0.7239 0.0569,1.3769 0.6224,1.9611 0.409,0.4246 0.8431,0.6607 1.3026,0.7073 0.4587,0.0486 0.887,-0.0991 1.2863,-0.4388 v 0 z m -2.1689,4.0933 1.982,-1.4391 1.6888,2.3243 -1.9819,1.4397 z"
       style="fill:#e41e15;fill-rule:evenodd"
       id="path13" />
    <path
       d="m 66.6655,156.3126 2.1062,-4.7063 -4.4793,2.643 z m -9.0019,-1.7525 11.2185,-5.932 3.0098,2.6159 -4.2405,11.9979 -2.7682,-2.4065 0.9037,-2.2885 -3.5121,-3.0532 -2.1405,1.2135 z m 11.8288,9.9608 5.918,-10.2512 4.429,2.5572 -2.0937,7.6037 5.394,-5.6979 4.4265,2.5554 -5.9182,10.2508 -2.6332,-1.5206 4.7346,-8.2009 -6.9934,6.8972 -2.5785,-1.4888 2.4633,-9.5318 -4.7431,8.2157 z m 23.461,5.5121 -0.0809,-5.1554 -2.942,4.2889 z m -8.8993,2.2164 7.6598,-10.1174 3.8334,1.0989 1.2273,12.6658 -3.5257,-1.011 -0.1477,-2.4565 -4.4738,-1.2828 -1.4268,2.0051 z m 14.3036,3.598 0.2335,-2.6684 6.6908,-6.3278 -5.6517,-0.4943 0.1982,-2.2627 9.4663,0.8285 -0.2236,2.5569 -6.8617,6.4254 6.3146,0.5524 -0.1979,2.2623 z m 11.4452,-4.8316 c -0.2682,-1.9096 0.0501,-3.4645 0.9534,-4.6734 0.9006,-1.2082 2.2994,-1.9437 4.1897,-2.2095 1.8855,-0.2652 3.4301,0.0571 4.6284,0.9705 1.2023,0.9125 1.936,2.3195 2.2053,4.2291 0.2672,1.9019 -0.0505,3.4593 -0.9533,4.6761 -0.9,1.2135 -2.2951,1.9551 -4.1801,2.2199 -1.8856,0.2647 -3.4309,-0.063 -4.6361,-0.9805 -1.2051,-0.9206 -1.9399,-2.3304 -2.2073,-4.2322 z m 3.3503,-0.4874 c 0.1701,1.2075 0.5202,2.0846 1.0485,2.633 0.5275,0.5477 1.2294,0.7588 2.1027,0.6367 0.8685,-0.122 1.4793,-0.5184 1.8303,-1.1897 0.3513,-0.6717 0.4432,-1.6117 0.2732,-2.8183 -0.171,-1.2131 -0.518,-2.0931 -1.0409,-2.6427 -0.5224,-0.5484 -1.2189,-0.7608 -2.0868,-0.6385 -0.8735,0.1229 -1.4896,0.5221 -1.8458,1.1941 -0.3567,0.6754 -0.4508,1.6181 -0.2812,2.8254 z m 12.3904,3.9527 -3.8538,-11.1919 4.4167,-1.5206 6.2857,6.7387 -2.7403,-7.9597 2.6548,-0.914 3.854,11.1916 -4.2713,1.471 -6.4661,-6.9661 2.8296,8.218 z m 17.3576,-12.5993 -3.7647,-3.5237 1.0411,5.0956 z m -4.5884,7.9408 -1.9568,-12.538 3.4548,-1.9943 9.9628,7.9156 -3.1765,1.8339 -1.87,-1.5996 -4.0306,2.3268 0.451,2.4191 z m 12.4921,-12.9041 0.0551,0.0579 v 0 c 0.3727,0.3854 0.7784,0.5771 1.2184,0.5826 0.438,0.004 0.8496,-0.1807 1.2333,-0.5517 0.4595,-0.4432 0.728,-0.8553 0.812,-1.2378 0.0822,-0.3796 -0.022,-0.7206 -0.3169,-1.0262 -0.418,-0.4338 -1.2443,-0.2946 -2.4758,0.4178 -0.2873,0.1673 -0.5079,0.2937 -0.6587,0.3819 -1.4151,0.7834 -2.5009,1.1763 -3.256,1.1792 -0.7578,0 -1.4648,-0.3377 -2.1229,-1.0189 -0.7216,-0.7474 -0.9823,-1.668 -0.7869,-2.7671 0.1973,-1.0968 0.834,-2.1649 1.9075,-3.2015 1.1395,-1.1004 2.2026,-1.7229 3.1894,-1.8645 0.9862,-0.1412 1.8765,0.201 2.6724,1.0249 v 0 l 0.1392,0.1442 -2.367,2.2849 -0.0395,-0.0411 v 0 c -0.3371,-0.3489 -0.6885,-0.5275 -1.0469,-0.5358 -0.3599,-0.006 -0.7157,0.1618 -1.0644,0.4991 -0.3425,0.3311 -0.5404,0.6785 -0.5934,1.0413 -0.0506,0.3615 0.0497,0.6755 0.3028,0.9373 0.4115,0.4257 1.3841,0.1865 2.915,-0.7167 0.4051,-0.2426 0.7241,-0.4292 0.957,-0.5585 0.9784,-0.5484 1.839,-0.8048 2.5824,-0.7683 0.7416,0.0378 1.4178,0.3716 2.0279,1.0038 0.8393,0.8691 1.1493,1.8606 0.9266,2.9701 -0.2226,1.1105 -0.9681,2.2796 -2.2382,3.5065 -1.155,1.1152 -2.2719,1.7177 -3.3524,1.8089 -1.0805,0.0919 -2.0732,-0.3324 -2.9804,-1.2726 v 0 z"
       style="fill:#e41e15;fill-rule:evenodd"
       id="path14" />
  </g>
</svg>
