<?xml version="1.0" encoding="UTF-8" standalone="no"?>
<svg
   version="1.1"
   width="2.20015in"
   height="1.5278599in"
   viewBox="0 0 158.4108 110.00591"
   id="svg16"
   sodipodi:docname="mixto_ec-mt.cdr"
   xmlns:inkscape="http://www.inkscape.org/namespaces/inkscape"
   xmlns:sodipodi="http://sodipodi.sourceforge.net/DTD/sodipodi-0.dtd"
   xmlns="http://www.w3.org/2000/svg"
   xmlns:svg="http://www.w3.org/2000/svg">
  <defs
     id="defs16" />
  <sodipodi:namedview
     id="namedview16"
     pagecolor="#ffffff"
     bordercolor="#000000"
     borderopacity="0.25"
     inkscape:showpageshadow="2"
     inkscape:pageopacity="0.0"
     inkscape:pagecheckerboard="0"
     inkscape:deskcolor="#d1d1d1"
     inkscape:document-units="in" />
  <g
     id="Layer1003"
     transform="translate(-28.7946,-56.816299)">
    <path
       d="m 107.9732,56.816301 -79.1786,54.969959 79.1786,55.03595 79.2322,-55.03595 z"
       style="fill:#000000;fill-rule:evenodd;stroke-width:1.09747"
       id="path10" />
    <path
       d="M 107.9732,164.99242 31.5086,111.78626 107.9732,58.646198 184.4915,111.78626 Z"
       style="fill:#ffffff;fill-rule:evenodd;stroke-width:1.09747"
       id="path11" />
    <path
       d="M 107.865,61.130347 180.8016,111.78626 107.865,162.50828 34.9275,111.78626 Z"
       style="fill:#000000;fill-rule:evenodd;stroke-width:1.09747"
       id="path12" />
    <path
       d="M 174.723,111.78626 107.865,158.25962 41.0598,111.78626 107.865,65.378511 Z"
       style="fill:#000000;fill-rule:evenodd;stroke-width:1.09747"
       id="path13" />
    <path
       d="m 107.865,94.269304 c 5.0464,-6.209346 9.7675,-11.569325 16.8765,-15.621889 -0.3796,5.294337 -0.3253,12.484335 1.8997,16.864025 8.6834,17.18958 9.226,28.82479 6.4582,40.00219 -4.3422,3.00639 -8.7375,6.07806 -13.0245,9.08529 3.3107,-8.10537 7.2722,-18.10566 6.7835,-27.64841 -0.597,-10.98145 -4.3959,-18.629003 -5.9697,-29.217798 -5.5895,2.745752 -8.9003,9.93563 -13.0237,13.530508 -4.1249,-3.594878 -7.4895,-10.784756 -13.0254,-13.530508 -1.6275,10.588795 -5.3718,18.236348 -5.9695,29.217798 -0.4879,9.54275 3.4197,19.54304 6.7836,27.64841 -4.3413,-3.00723 -8.6827,-6.0789 -13.0239,-9.08529 -2.7676,-11.1774 -2.2253,-22.81261 6.4037,-40.00219 2.2244,-4.37969 2.2789,-11.569688 1.8991,-16.864025 7.1089,4.052564 11.8844,9.412543 16.9324,15.621889 z"
       style="fill:#ffffff;fill-rule:evenodd;stroke-width:1.09747"
       id="path14" />
    <path
       d="m 114.9737,130.8073 c 0,0.45721 0.1081,0.84984 0.1081,1.11168 0,0.32629 0.4345,0.45721 0.7063,0.45721 0.2163,0 0.6505,-0.13092 0.7597,-0.45721 0,-0.26184 0.1625,-0.65447 0.1625,-1.11168 v -5.03299 h 4.9925 v 5.75191 c 0,1.4381 -0.2709,2.61424 -0.7051,3.33328 -0.3796,0.58872 -1.032,1.1117 -1.8452,1.37354 -0.706,0.19607 -1.8999,0.32628 -3.2563,0.32628 h -1.2477 c -1.5746,0 -2.9311,-0.39205 -3.4745,-1.1111 -0.5415,-0.58872 -0.9757,-1.30776 -1.0846,-1.96094 0,-0.52296 -0.1089,-1.5683 -0.1089,-2.67998 v -19.60881 c 0,-1.11181 0.1089,-2.15702 0.1089,-2.67976 0.1089,-0.65351 0.5431,-1.37233 1.0846,-1.96105 0.5434,-0.71905 1.8999,-1.11097 3.4745,-1.11097 h 1.2477 c 1.3564,0 2.5503,0.13031 3.2563,0.32628 0.8132,0.26148 1.4656,0.78469 1.8452,1.37341 0.4342,0.71882 0.7051,1.89507 0.7051,3.33329 v 5.75188 h -4.9925 v -5.03308 c 0,-0.45744 -0.1625,-0.8501 -0.1625,-1.11181 -0.1092,-0.32605 -0.5434,-0.45721 -0.7597,-0.45721 -0.2718,0 -0.7063,0.13116 -0.7063,0.45721 0,0.26171 -0.1081,0.65437 -0.1081,1.11181 z"
       style="fill:#ffffff;fill-rule:evenodd;stroke-width:1.09747"
       id="path15" />
    <path
       d="m 95.2194,136.55932 v -31.11261 h 9.0094 v 4.18276 h -4.0159 v 7.84436 h 4.0159 v 4.05222 h -4.0159 v 10.91494 h 4.0159 v 4.11833 z"
       style="fill:#ffffff;fill-rule:evenodd;stroke-width:1.09747"
       id="path16" />
  </g>
</svg>
