<?xml version="1.0" encoding="UTF-8" standalone="no"?>
<svg
   version="1.1"
   width="1.6272167in"
   height="1.627232in"
   viewBox="0 0 117.1596 117.1607"
   id="svg59"
   sodipodi:docname="nautico.cdr"
   xmlns:inkscape="http://www.inkscape.org/namespaces/inkscape"
   xmlns:sodipodi="http://sodipodi.sourceforge.net/DTD/sodipodi-0.dtd"
   xmlns="http://www.w3.org/2000/svg"
   xmlns:svg="http://www.w3.org/2000/svg">
  <defs
     id="defs59" />
  <sodipodi:namedview
     id="namedview59"
     pagecolor="#ffffff"
     bordercolor="#000000"
     borderopacity="0.25"
     inkscape:showpageshadow="2"
     inkscape:pageopacity="0.0"
     inkscape:pagecheckerboard="0"
     inkscape:deskcolor="#d1d1d1"
     inkscape:document-units="in" />
  <g
     id="Layer1003"
     transform="translate(-49.420097,-49.419502)">
    <path
       style="fill:#ff0000;fill-opacity:1;stroke-width:0.72"
       d="m 75.666034,138.21118 19.65971,20.27294 18.693036,3.78655 25.45285,-16.17311 6.05986,-10.93983 z"
       id="path60" />
    <path
       d="m 108.0373,49.4195 h -2.0254 c -15.3605,0.4878 -28.4442,6.1791 -39.3986,17.1342 -11.0723,11.1321 -16.839,24.408 -17.1337,39.9454 -0.0595,0.5028 -0.0595,0.9901 -0.0595,1.4789 l 0.0595,1.5216 c 0.2947,15.5228 6.0614,28.814 17.1337,39.8863 11.4428,11.4436 25.2066,17.1943 41.424,17.1943 16.1284,0 29.9658,-5.7507 41.4082,-17.1943 11.4423,-11.4425 17.1342,-25.2198 17.1342,-41.4079 0,-16.1585 -5.6919,-29.9819 -17.1342,-41.4243 C 138.4914,55.5986 125.3333,49.9073 110.0477,49.4195 Z"
       style="fill:#d40000;fill-opacity:1;fill-rule:evenodd"
       id="path10" />
    <path
       d="M 68.7575,68.7566 V 68.697 C 79.1506,58.3491 91.5681,52.9682 106.0709,52.4798 h 3.8578 c 14.4888,0.4292 26.9654,5.8693 37.3138,16.2172 10.8814,10.8809 16.2764,23.9797 16.2764,39.281 0,15.3444 -5.395,28.4283 -16.2764,39.2641 -10.8357,10.8222 -23.9346,16.2764 -39.2052,16.2764 -15.3605,0 -28.4587,-5.4542 -39.2798,-16.2764 C 58.2314,136.7166 52.8354,124.1661 52.54,109.4996 l -0.0593,-1.5216 c 0,-0.4888 0,-0.9761 0.0593,-1.4193 0.2954,-14.7392 5.6914,-27.3503 16.2175,-37.8021 z"
       style="fill:#ffffff;fill-rule:evenodd"
       id="path11" />
    <path
       d="m 70.0286,69.9684 -0.0593,0.0737 h 0.0593 C 59.9462,80.1411 54.6831,92.3067 54.3724,106.5587 v 0.0742 c -0.0582,0.427 -0.0582,0.8563 -0.0582,1.2848 l 0.0582,1.5819 c 0.3107,14.1188 5.5738,26.3003 15.6562,36.4572 10.5262,10.4662 23.1366,15.7299 38.0087,15.7299 14.7833,0 27.4531,-5.2637 37.9198,-15.7299 v -0.0599 c 10.5253,-10.4666 15.7148,-23.0618 15.7148,-37.9189 0,-14.8134 -5.1895,-27.4825 -15.7148,-37.9359 C 135.919,60.0045 123.9291,54.7419 109.8708,54.3133 h -3.7412 c -13.9994,0.4286 -26.0038,5.6912 -36.101,15.7288 z"
       style="fill:#ffffff;fill-rule:evenodd"
       id="path12" />
    <path
       d="m 70.8866,70.8999 v 0 C 80.7462,61.099 92.4844,55.9693 106.2038,55.5406 h 3.667 c 13.6888,0.4287 25.3684,5.4981 35.2284,15.3593 10.2156,10.2163 15.3605,22.6337 15.3605,37.0781 0,14.5022 -5.0857,26.8469 -15.3605,37.1211 -10.2886,10.216 -22.648,15.3602 -37.0619,15.3602 -14.503,0 -26.8623,-5.1442 -37.1507,-15.3602 -9.847,-9.9195 -14.9912,-21.7767 -15.2871,-35.6581 l -0.0585,-1.5233 c 0,-0.4285 0,-0.8578 0.0585,-1.2848 v -0.0742 c 0.2959,-13.882 5.4401,-25.7534 15.2871,-35.6588 z"
       style="fill:#ffffff;fill-rule:evenodd"
       id="path13" />
    <path
       d="m 142.5267,70.5305 h -3.178 l -1.0499,-3.0603 -0.9755,3.0603 h -3.1775 l 2.6305,1.8925 -1.0353,3.0012 2.5578,-1.8334 2.5719,1.8334 -0.9751,-3.0012 z"
       style="fill:#d40000;fill-opacity:1;fill-rule:evenodd"
       id="path14" />
    <path
       d="m 123.5596,62.6362 2.6316,1.8329 -1.0347,3.0603 2.5573,-1.8921 2.573,1.8921 -0.9755,-3.0603 2.5719,-1.8329 h -3.1782 l -0.9912,-3.0597 -0.9755,3.0597 z"
       style="fill:#d40000;fill-opacity:1;fill-rule:evenodd"
       id="path15" />
    <path
       d="m 111.866,63.9818 2.5725,-1.8925 2.5719,1.8925 -0.9757,-3.0608 2.6311,-1.892 h -3.2372 l -0.9901,-3.0597 -0.9761,3.0597 h -3.178 l 2.6315,1.892 z"
       style="fill:#d40000;fill-opacity:1;fill-rule:evenodd"
       id="path16" />
    <path
       d="m 101.1185,60.921 -0.976,3.0608 2.5719,-1.8925 2.5585,1.8925 -0.9756,-3.0608 2.5724,-1.892 h -3.179 l -0.9763,-3.0597 -0.9904,3.0597 h -3.2373 z"
       style="fill:#d40000;fill-opacity:1;fill-rule:evenodd"
       id="path17" />
    <path
       d="m 91.021,64.4691 2.5731,-1.8329 h -3.1794 l -0.9898,-3.0597 -0.9766,3.0597 h -3.237 l 2.632,1.8329 -0.9757,3.0603 2.5573,-1.8921 2.5722,1.8921 z"
       style="fill:#d40000;fill-opacity:1;fill-rule:evenodd"
       id="path18" />
    <path
       d="m 79.8298,70.5305 -0.9902,-3.0603 -0.9759,3.0603 h -3.237 l 2.6311,1.8925 -0.9752,3.0012 2.557,-1.8334 2.572,1.8334 -0.9757,-3.0012 2.5716,-1.8925 z"
       style="fill:#d40000;fill-opacity:1;fill-rule:evenodd"
       id="path19" />
    <path
       d="m 142.2756,136.0374 c 0.6803,0 1.1091,0.2501 1.3595,0.7392 0.2374,0.4273 0.2374,1.1079 -0.1322,2.1431 -0.3694,1.1679 -0.8578,1.9519 -1.3456,2.3808 -0.5465,0.4275 -1.1531,0.6792 -1.8329,0.6792 -0.6805,0 -1.1676,-0.2517 -1.4049,-0.6792 -0.2511,-0.4889 -0.1919,-1.2129 0.1775,-2.262 0.3701,-1.0951 0.8578,-1.8346 1.3451,-2.2619 0.5621,-0.4891 1.1687,-0.7392 1.8335,-0.7392 z m 4.2876,-1.035 c -0.5463,-0.9169 -1.7146,-1.4056 -3.4894,-1.3458 -1.7147,-0.0598 -3.119,0.4289 -4.4054,1.4042 -1.2859,0.9168 -2.2025,2.2619 -2.8086,3.9777 -0.3694,1.1665 -0.4884,2.2014 -0.3102,3.0011 0.251,0.7974 0.6796,1.4042 1.3445,1.8326 0.6217,0.3106 1.5376,0.4876 2.6913,0.4876 1.1084,0 2.1433,-0.177 3.0597,-0.6061 0.99,-0.4878 1.7743,-1.1097 2.4541,-1.8329 0.6062,-0.7991 1.1531,-1.7742 1.5818,-2.9422 0.6212,-1.7147 0.5615,-3.0599 -0.1178,-3.9762 z"
       style="display:inline;fill:#d40000;fill-opacity:1;fill-rule:evenodd"
       id="path20" />
    <path
       d="m 118.4744,136.4063 0.9311,-2.5726 h -9.7274 l -0.917,2.5726 h 3.297 l -2.6165,7.7765 h 3.1641 l 2.631,-7.7765 z"
       style="display:inline;fill:#d40000;fill-opacity:1;fill-rule:evenodd"
       id="path21" />
    <path
       d="m 121.0469,133.8337 -3.4895,10.3491 h 3.1932 l 3.548,-10.3491 z"
       style="display:inline;fill:#d40000;fill-opacity:1;fill-rule:evenodd"
       id="path22" />
    <path
       d="m 130.8333,136.0374 c 0.3109,0 0.6211,0.0731 0.8573,0.1913 0.1926,0.1776 0.3103,0.3707 0.4291,0.6061 0.0737,0.133 0.0737,0.3109 0.0737,0.6809 l 3.0458,-0.6221 c 0,-1.0937 -0.2959,-1.8912 -0.8433,-2.4978 -0.5615,-0.4873 -1.4785,-0.7392 -2.7645,-0.7392 -1.7147,-0.0598 -3.1781,0.4289 -4.3457,1.3458 -1.2714,0.9163 -2.1292,2.2615 -2.7505,4.0361 -0.4286,1.2265 -0.5463,2.3344 -0.2366,3.1182 0.178,0.7992 0.6061,1.4054 1.2127,1.7155 0.6202,0.3688 1.478,0.4876 2.6317,0.4876 0.9166,0 1.7146,-0.1188 2.3944,-0.4289 0.6659,-0.236 1.2866,-0.6059 1.9519,-1.1521 0.5469,-0.5621 1.0492,-1.2282 1.537,-1.9672 l -2.5127,-0.8567 c -0.3694,0.6207 -0.7987,1.1668 -1.2268,1.5369 -0.4292,0.3102 -0.9176,0.4879 -1.5818,0.4879 -0.6218,0 -1.0504,-0.2517 -1.2273,-0.6068 -0.2512,-0.4284 -0.1189,-1.2263 0.3103,-2.3943 0.2952,-0.9753 0.6653,-1.6559 1.094,-2.0108 0.547,-0.6203 1.1676,-0.9304 1.9513,-0.9304 z"
       style="display:inline;fill:#d40000;fill-opacity:1;fill-rule:evenodd"
       id="path23" />
    <path
       d="m 94.6875,131.0844 h -2.498 l -1.9077,2.1433 h 1.3459 z"
       style="display:inline;fill:#d40000;fill-opacity:1;fill-rule:evenodd"
       id="path24" />
    <path
       d="m 90.2818,140.205 h -2.2025 l 2.3354,-3.6656 z m 2.8241,-6.3713 h -3.4895 l -7.4658,10.3491 h 3.2977 l 1.1085,-1.6559 h 3.6657 l -0.1177,1.6559 h 3.3705 z"
       style="display:inline;fill:#d40000;fill-rule:evenodd"
       id="path25" />
    <path
       d="m 95.7966,141.802 c -0.0593,0.3547 0.059,0.7838 0.3102,1.0934 0.1771,0.4296 0.4285,0.7395 0.7243,0.9768 0.3696,0.1918 0.7987,0.3688 1.4045,0.3688 0.561,0.1188 1.1089,0.1188 1.5967,0.1188 0.8575,0 1.6553,-0.1188 2.3208,-0.3542 0.5613,-0.1334 1.1086,-0.4435 1.6558,-0.7995 0.4884,-0.4273 0.9757,-0.9162 1.3453,-1.4781 0.3697,-0.5463 0.6801,-1.0939 0.9167,-1.7144 l 2.0841,-6.1799 h -3.1778 l -2.2027,6.3129 c -0.193,0.5471 -0.4884,1.0351 -0.9173,1.3452 -0.4279,0.3102 -0.9164,0.4879 -1.4777,0.4879 -0.5472,0 -0.9162,-0.1777 -1.0945,-0.4879 -0.1922,-0.3101 -0.2508,-0.7981 -0.0593,-1.3452 l 2.2036,-6.3129 h -3.2529 l -2.0696,6.1799 c -0.1925,0.5031 -0.3102,1.1081 -0.3102,1.7884 z"
       style="display:inline;fill:#d40000;fill-opacity:1;fill-rule:evenodd"
       id="path26" />
    <path
       d="m 71.0772,144.1828 h 3.0018 l 1.9517,-5.6333 1.9514,5.6333 h 3.0011 l 3.5482,-10.3491 h -2.9862 l -2.0261,5.6921 -1.9514,-5.6921 h -3.0009 z"
       style="display:inline;fill:#d40000;fill-rule:evenodd"
       id="path27" />
    <path
       d="m 145.0401,86.0685 v -7.2893 h -0.2513 c -7.4655,5.146 -12.0489,8.5161 -13.8228,10.2903 -1.9064,1.8922 -3.4297,3.489 -4.5978,4.7754 -1.2855,1.4037 -2.6898,2.4397 -4.272,3.1189 -1.1091,0.4287 -1.9071,0.2958 -2.3944,-0.3694 -1.1537,-1.7159 -2.6317,-2.1444 -4.3463,-1.2268 -2.2627,1.656 -4.4065,3.2372 -6.461,4.715 l 2.9715,5.3822 c 1.9077,-1.406 3.9177,-2.8839 6.0012,-4.407 1.7156,-0.916 3.1797,-0.546 4.4058,1.1687 0.4884,0.7245 1.2866,0.8572 2.322,0.4286 1.6553,-0.739 3.0011,-1.7743 4.287,-3.1194 1.1676,-1.286 2.6896,-2.8828 4.6565,-4.7742 1.5823,-1.5969 5.381,-4.4652 11.5016,-8.693 z"
       style="fill:#d40000;fill-opacity:1;fill-rule:evenodd"
       id="path28" />
    <path
       d="m 123.3079,79.2831 c -1.1526,1.2709 -2.3208,2.5575 -3.4884,3.8428 -1.2714,1.3451 -2.6902,2.395 -4.3317,3.1195 -1.0493,0.4292 -1.8474,0.3109 -2.3352,-0.4281 -1.2122,-1.7002 -2.6317,-2.1292 -4.3323,-1.2129 -2.069,1.5227 -4.095,2.9866 -6.1059,4.4651 l 3.1791,5.6322 c 2.1438,-1.4785 4.1983,-2.9414 6.3421,-4.5382 1.7145,-0.917 3.1199,-0.548 4.3462,1.1681 0.4883,0.739 1.2854,0.858 2.3949,0.4287 1.5818,-0.739 2.9866,-1.7743 4.2731,-3.1199 1.1677,-1.2859 2.3353,-2.5719 3.4885,-3.8591 1.1676,-1.2847 2.3948,-2.3202 3.5485,-3.059 1.4774,-0.9768 2.9415,-1.8331 4.3456,-2.5719 0.1782,-0.119 0.4288,-0.2378 0.6068,-0.3712 h -11.5021 c -0.1178,0.1926 -0.2953,0.3712 -0.4292,0.5039 z"
       style="fill:#d40000;fill-opacity:1;fill-rule:evenodd"
       id="path29" />
    <path
       d="m 112.8563,81.6033 c 1.4047,-0.6792 2.7505,-1.5951 3.9773,-2.8241 H 97.023 l 3.1195,5.6338 c 1.9512,-1.464 3.9771,-2.928 5.9871,-4.4048 1.7151,-0.9181 3.1936,-0.4895 4.3317,1.1659 0.4877,0.7993 1.2864,0.8584 2.395,0.4292 z"
       style="fill:#d40000;fill-opacity:1;fill-rule:evenodd"
       id="path30" />
    <path
       d="m 130.907,111.703 c 1.5823,-0.665 2.9866,-1.715 4.2719,-3.0602 1.1687,-1.287 2.3369,-2.5719 3.4303,-3.8589 1.2268,-1.2709 2.4541,-2.3202 3.6077,-3.1195 0.9903,-0.6066 1.9066,-1.2106 2.8232,-1.7 v -6.49 c -0.6799,0.3705 -1.3451,0.7249 -2.025,1.0354 -1.4043,0.7388 -2.8682,1.5968 -4.4059,2.5723 -1.0934,0.7395 -2.3208,1.7744 -3.548,3.1195 -1.1676,1.2272 -2.3213,2.5121 -3.4896,3.7991 -1.2261,1.3452 -2.6896,2.3805 -4.2859,3.1195 -1.0354,0.4288 -1.8334,0.2959 -2.3218,-0.4286 -1.2268,-1.656 -2.6909,-2.0846 -4.4054,-1.1687 -12.7138,9.3582 -24.9541,17.1345 -36.692,23.2396 h 11.8708 c 5.7503,-2.6907 15.2117,-8.8543 28.4284,-18.6412 1.7152,-0.932 3.12,-0.5034 4.3468,1.2126 0.4872,0.739 1.2859,0.8564 2.3945,0.3691 z"
       style="fill:#d40000;fill-opacity:1;fill-rule:evenodd"
       id="path31" />
    <path
       d="m 131.6314,115.9904 c -1.1532,-1.7155 -2.6317,-2.1432 -4.3457,-1.2263 -7.037,5.1441 -13.8825,9.8309 -20.5344,13.9984 h 11.2945 c 3.9766,-2.6304 8.0277,-5.4401 12.063,-8.4854 1.7152,-0.9162 3.178,-0.4878 4.4059,1.2122 0.4286,0.739 1.2859,0.7992 2.3208,0.4291 1.5962,-0.7249 3.0005,-1.7742 4.2869,-3.1783 1.1532,-1.2868 2.3208,-2.5721 3.4884,-3.7849 0.178,-0.1331 0.2964,-0.3101 0.4293,-0.4289 v -7.9676 c -1.0488,0.739 -2.1438,1.6555 -3.2522,2.8823 -1.1537,1.2268 -2.3208,2.5131 -3.4891,3.8001 -1.2122,1.404 -2.6907,2.439 -4.2725,3.1182 -1.1089,0.4291 -1.8329,0.296 -2.3949,-0.3689 z"
       style="fill:#d40000;fill-opacity:1;fill-rule:evenodd"
       id="path32" />
    <path
       d="m 145.0401,122.2283 c -0.3695,0.4291 -0.7982,0.9026 -1.2274,1.2711 -1.2262,1.4059 -2.6903,2.455 -4.2865,3.12 -1.0945,0.4879 -1.8335,0.3102 -2.3804,-0.3688 -1.1676,-1.7155 -2.6311,-2.1443 -4.3463,-1.2282 -1.7152,1.287 -3.4303,2.5138 -5.1449,3.7401 h 17.3855 z"
       style="fill:#d40000;fill-opacity:1;fill-rule:evenodd"
       id="path33" />
    <path
       d="m 77.7451,109.0123 c 0.0599,-0.7981 0.4289,-1.3456 0.9768,-1.7146 0.2506,-0.1775 0.4873,-0.2378 0.739,-0.2958 0.2359,0 0.4873,0.058 0.6649,0.2362 0.1331,0.0596 0.2511,0.178 0.429,0.4286 l 2.0249,-2.025 c -0.5468,-0.8578 -1.2277,-1.3451 -1.9672,-1.4639 -0.6643,-0.119 -1.5807,0.1188 -2.5564,0.8578 -1.2862,0.8585 -2.1442,1.9663 -2.6314,3.3114 -0.4873,1.4038 -0.4873,2.868 0,4.5239 0.0589,0.3702 0.1772,0.665 0.2961,0.9763 0.1911,0.369 0.3689,0.7381 0.6201,1.0339 0.1189,0.1929 0.2959,0.3702 0.4878,0.562 0.6061,0.5473 1.2863,0.7249 1.8932,0.665 0.6202,-0.0589 1.4039,-0.3691 2.2613,-0.9753 0.6802,-0.4877 1.2858,-0.9749 1.6558,-1.537 0.3685,-0.6066 0.6797,-1.2127 0.9169,-1.9517 0.1183,-0.7392 0.1917,-1.5228 0.1183,-2.3203 l -2.3804,0.6642 c 0.0582,0.6798 0,1.227 -0.1188,1.7749 -0.1918,0.4873 -0.5625,0.8561 -0.9898,1.1664 -0.4884,0.3707 -0.9173,0.4289 -1.2722,0.2518 -0.3688,-0.2518 -0.739,-0.9309 -1.0493,-2.0243 -0.2363,-0.9165 -0.296,-1.597 -0.1186,-2.1445 z"
       style="fill:#d40000;fill-opacity:1;fill-rule:evenodd"
       id="path34" />
    <path
       d="m 91.1993,110.0471 -2.1291,1.4782 2.4979,8.989 2.1437,-1.4051 -1.3451,-4.9513 4.035,3.1181 2.1443,-1.4785 -2.4392,-9.0474 -2.0849,1.4641 1.2864,4.9669 z"
       style="fill:#d40000;fill-opacity:1;fill-rule:evenodd"
       id="path35" />
    <path
       d="m 99.4633,93.5939 c 0.2508,-0.1775 0.4873,-0.3104 0.7385,-0.3104 0.2366,0 0.488,0.058 0.6062,0.1909 0.1328,0.0592 0.3105,0.2372 0.4882,0.4883 l 2.0245,-2.0851 c -0.5462,-0.8563 -1.227,-1.2855 -1.9508,-1.4043 -0.6801,-0.1179 -1.5965,0.1188 -2.5733,0.798 -1.2852,0.858 -2.1431,2.0122 -2.6304,3.3573 -0.4884,1.3601 -0.4884,2.8821 0,4.4778 0.0585,0.3562 0.1773,0.7251 0.2961,1.0354 0.1912,0.37 0.3688,0.739 0.6202,1.0349 0.1182,0.1931 0.3101,0.3705 0.4878,0.4877 0.6061,0.5621 1.2863,0.7993 1.893,0.739 0.6204,-0.0585 1.3447,-0.4286 2.2607,-0.9746 0.6805,-0.4882 1.2866,-1.0497 1.6554,-1.5973 0.3707,-0.5458 0.6803,-1.1525 0.9179,-1.892 0.1177,-0.739 0.1915,-1.5383 0.1177,-2.395 l -2.3796,0.6798 c 0.0583,0.6803 0,1.2864 -0.1189,1.7743 -0.1925,0.4873 -0.5466,0.9164 -0.9757,1.2268 -0.5024,0.3103 -0.9313,0.4286 -1.2862,0.1769 -0.3696,-0.2356 -0.7392,-0.9164 -1.0491,-2.0098 -0.2365,-0.8579 -0.2962,-1.5968 -0.1774,-2.0847 0.1179,-0.798 0.4873,-1.3451 1.0352,-1.7139 z"
       style="fill:#d40000;fill-opacity:1;fill-rule:evenodd"
       id="path36" />
    <path
       d="m 98.1176,84.5313 -5.3231,-1.834 -3.0011,8.574 1.1097,3.2385 -2.6319,7.4063 -7.525,-2.2034 -2.0243,-2.6891 -8.6933,-2.5138 -1.5821,5.3217 8.7524,2.5719 3.1189,-1.1665 7.4655,2.2019 -6.7412,19.4564 c 0.1925,0.2357 0.4293,0.3542 0.6807,0.4871 0.2508,0.0591 0.5462,0.0591 0.7974,0.0591 l 6.7859,-19.574 19.8246,5.8253 c 0.2517,-0.2517 0.3705,-0.4292 0.4286,-0.7396 0.1188,-0.2511 0.1188,-0.4871 0.0598,-0.7991 l -19.8257,-5.7506 2.5733,-7.4059 2.7493,-1.892 z"
       style="fill:#d40000;fill-opacity:1;fill-rule:evenodd"
       id="path37" />
    <path
       d="m 93.1059,83.3191 4.4055,1.4622 -2.8239,8.0133 -2.631,1.834 c -0.0594,0 -0.1189,0.1329 -0.1782,0.192 l -2.5127,7.4059 -0.1772,0.4872 0.428,0.119 h 0.0593 l 19.5146,5.6913 c 0,0.1188 -0.0596,0.178 -0.0596,0.3109 0,0.1182 -0.0587,0.1774 -0.1179,0.2957 l -19.5879,-5.7504 h -0.0593 l -0.3694,-0.1183 -0.119,0.3689 c 0,0 0,0.0597 -0.0587,0.0597 l -6.6084,19.2629 c -0.1183,0 -0.2365,0 -0.3102,-0.0582 -0.1188,0 -0.2365,-0.0601 -0.2959,-0.0601 l 6.7854,-19.7514 -0.4284,-0.1327 h -0.0589 c 0,0 -2.4538,-0.7245 -7.4662,-2.2029 -0.059,0 -0.177,0 -0.2507,0.0596 l -2.9863,1.1084 -8.146,-2.3804 1.286,-4.4796 8.1452,2.395 1.8928,2.5736 c 0.059,0.0579 0.1779,0.1171 0.2356,0.1769 l 7.5997,2.2018 0.3696,0.1188 0.177,-0.4286 2.5738,-7.465 V 94.3322 L 90.356,91.3316 Z"
       style="fill:#ffffff;fill-rule:evenodd"
       id="path38" />
    <path
       d="m 76.8876,90.1043 v 0.192 -0.0742 c -0.2508,1.0492 -0.2508,2.0255 -0.0589,3.0011 0.1777,0.5475 0.3702,1.109 0.6661,1.6553 0.3689,0.5483 0.7387,0.9768 1.1674,1.4061 0.6799,0.739 1.523,1.1665 2.5128,1.478 0.0596,0 0.1188,0.059 0.177,0.059 1.1682,0.2954 2.3222,0.2954 3.4302,0 0.4879,-0.1919 0.9168,-0.3705 1.3459,-0.6211 0.4287,-0.2367 0.8572,-0.5476 1.1679,-0.8579 0.8567,-0.725 1.4628,-1.7737 1.7742,-3.0011 0,0 0.0589,0 0.0589,-0.058 0.2365,-1.0359 0.2365,-2.0122 0,-2.9872 -0.1329,-0.562 -0.3703,-1.1676 -0.6808,-1.714 -0.2956,-0.489 -0.665,-0.9913 -1.0339,-1.4199 -0.7398,-0.6648 -1.5974,-1.2122 -2.6322,-1.4639 -0.0582,-0.0592 -0.1177,-0.0592 -0.1913,-0.0592 -1.1538,-0.3098 -2.3219,-0.3098 -3.4159,0 -0.4288,0.178 -0.8572,0.3689 -1.3452,0.6061 -0.4284,0.3109 -0.798,0.562 -1.1676,0.917 0,0 -0.0593,0 0,0 -0.8572,0.7982 -1.4633,1.7141 -1.7746,2.9419 z"
       style="fill:#d40000;fill-opacity:1;fill-rule:evenodd"
       id="path39" />
    <path
       d="m 77.2578,90.6508 0.3099,0.193 v 1.7733 l -0.3099,0.1775 c -0.1184,-0.724 -0.1184,-1.4043 0,-2.1438 z"
       style="fill:#ffffff;fill-rule:evenodd"
       id="path40" />
    <path
       d="m 80.9832,86.2454 v 0.4292 l -1.4046,0.7976 -0.3694,-0.1769 c 0.2517,-0.2517 0.5618,-0.4288 0.8578,-0.6207 0.3099,-0.177 0.6207,-0.3544 0.9162,-0.4292 z"
       style="fill:#ffffff;fill-rule:evenodd"
       id="path41" />
    <path
       d="m 79.3421,87.9014 -0.0742,1.7141 -1.4042,0.8578 -0.4877,-0.3098 c 0.2514,-0.975 0.739,-1.8329 1.4636,-2.5725 z"
       style="fill:#ffffff;fill-rule:evenodd"
       id="path42" />
    <path
       d="m 79.5191,90.0445 1.523,0.7993 -0.0589,1.7733 -1.4046,0.7993 -1.5965,-0.7993 0.074,-1.7146 z"
       style="fill:#ffffff;fill-rule:evenodd"
       id="path43" />
    <path
       d="m 79.771,89.6155 0.0588,-1.7141 1.4048,-0.7975 1.5222,0.7975 v 1.7743 l -1.463,0.7976 z"
       style="fill:#ffffff;fill-rule:evenodd"
       id="path44" />
    <path
       d="m 84.4132,86.6746 -1.3451,0.8567 -1.5967,-0.8567 v -0.6061 c 0.9906,-0.2512 1.9657,-0.2512 2.9418,0 z"
       style="fill:#ffffff;fill-rule:evenodd"
       id="path45" />
    <path
       d="m 83.1852,89.6757 0.06,-1.7743 1.4193,-0.739 1.5818,0.7982 -0.059,1.7151 -1.4633,0.7976 z"
       style="fill:#ffffff;fill-rule:evenodd"
       id="path46" />
    <path
       d="m 81.4714,90.9025 1.4779,-0.858 1.5222,0.858 -0.0583,1.7742 -1.4057,0.7977 -1.5959,-0.8573 z"
       style="fill:#ffffff;fill-rule:evenodd"
       id="path47" />
    <path
       d="m 84.901,86.6746 v -0.4292 c 0.739,0.1919 1.404,0.6211 1.9666,1.0499 l -0.3701,0.236 z"
       style="fill:#ffffff;fill-rule:evenodd"
       id="path48" />
    <path
       d="m 86.6152,89.6757 0.0594,-1.7151 0.4884,-0.2954 c 0.3695,0.2954 0.6803,0.724 0.9163,1.1532 0.1919,0.4281 0.4289,0.9159 0.6207,1.4037 l -0.4878,0.3104 z"
       style="fill:#ffffff;fill-rule:evenodd"
       id="path49" />
    <path
       d="m 88.3894,90.9025 0.3694,-0.177 c 0.1184,0.7233 0.1184,1.4038 -0.0588,2.1287 l -0.3685,-0.1775 z"
       style="fill:#ffffff;fill-rule:evenodd"
       id="path50" />
    <path
       d="m 87.9021,92.6767 -1.4046,0.7977 -1.5965,-0.7977 0.0589,-1.715 1.4193,-0.8574 1.5818,0.7982 z"
       style="fill:#ffffff;fill-rule:evenodd"
       id="path51" />
    <path
       d="m 86.6746,93.9035 1.4781,-0.8578 0.4291,0.2958 c -0.3106,1.0499 -0.7385,1.9071 -1.4782,2.5725 l -0.4884,-0.2362 z"
       style="fill:#ffffff;fill-rule:evenodd"
       id="path52" />
    <path
       d="m 83.1852,95.6176 0.06,-1.7141 1.4193,-0.8578 1.5228,0.8578 v 1.7743 l -1.4633,0.7976 z"
       style="fill:#ffffff;fill-rule:evenodd"
       id="path53" />
    <path
       d="m 79.2679,95.6176 v 0.0602 z"
       style="fill:#e04b3b;fill-rule:evenodd"
       id="path54" />
    <path
       d="m 79.771,95.6176 0.0588,-1.7727 1.3452,-0.7992 1.5818,0.8578 v 1.7141 l -1.463,0.8578 z"
       style="fill:#ffffff;fill-rule:evenodd"
       id="path55" />
    <path
       d="m 79.3421,93.8449 -0.0742,1.7727 -0.4283,0.2377 C 78.4841,95.4848 78.174,95.0561 77.9232,94.6286 77.6867,94.1993 77.4948,93.7116 77.376,93.2835 l 0.429,-0.2378 z"
       style="fill:#ffffff;fill-rule:evenodd"
       id="path56" />
    <path
       d="m 81.4714,96.8304 1.4779,-0.7836 1.5222,0.7836 v 0.5621 c -0.9757,0.2372 -1.9513,0.2372 -3.0001,0 z"
       style="fill:#ffffff;fill-rule:evenodd"
       id="path57" />
    <path
       d="m 81.0421,96.8304 v 0.3701 c -0.7243,-0.2367 -1.3453,-0.5476 -1.8329,-1.0347 l 0.3099,-0.1771 z"
       style="fill:#ffffff;fill-rule:evenodd"
       id="path58" />
    <path
       d="m 86.3792,96.0468 0.2954,0.1775 c -0.1771,0.1769 -0.4873,0.3701 -0.7984,0.5476 -0.2954,0.1919 -0.6061,0.3689 -0.9163,0.4877 v -0.355 z"
       style="fill:#ffffff;fill-rule:evenodd"
       id="path59" />
  </g>
</svg>
