<?xml version="1.0" encoding="UTF-8" standalone="no"?>
<svg
   version="1.1"
   width="1.5391735in"
   height="1.5419831in"
   viewBox="0 0 110.82049 111.02279"
   id="svg35"
   sodipodi:docname="olaria_ac-rj.cdr"
   xmlns:inkscape="http://www.inkscape.org/namespaces/inkscape"
   xmlns:sodipodi="http://sodipodi.sourceforge.net/DTD/sodipodi-0.dtd"
   xmlns="http://www.w3.org/2000/svg"
   xmlns:svg="http://www.w3.org/2000/svg">
  <defs
     id="defs35" />
  <sodipodi:namedview
     id="namedview35"
     pagecolor="#ffffff"
     bordercolor="#000000"
     borderopacity="0.25"
     inkscape:showpageshadow="2"
     inkscape:pageopacity="0.0"
     inkscape:pagecheckerboard="0"
     inkscape:deskcolor="#d1d1d1"
     inkscape:document-units="in" />
  <g
     id="Layer1003"
     transform="matrix(1,0,0,0.78891704,-52.591064,-29.691607)">
    <g
       id="Layer1004">
      <g
         id="Layer1005">
        <path
           d="m 162.2661,51.4222 -12.2798,6.1027 c -2.034,-7.7603 -7.5336,-9.1162 -16.4231,-4.2193 l -1.205,-4.8211 c -8.8144,-2.26 -16.9508,-5.8768 -24.4093,-10.8486 -7.4583,4.9718 -15.5195,8.5886 -24.1831,10.8486 l -1.2055,4.8211 C 73.5953,48.4087 68.096,49.7646 66.0617,57.5249 L 53.8574,51.4222 c 7.6841,21.4708 8.2118,42.4143 1.5067,62.8302 -6.8555,20.3407 -0.9796,34.2029 17.4025,41.7366 10.6225,4.2943 19.2107,8.7387 25.6897,13.3346 4.0683,2.8627 7.2324,5.8761 9.4926,9.0404 1.4313,-1.8834 3.2392,-3.8425 5.4992,-5.7259 6.3289,-5.6502 16.2732,-11.1489 29.9089,-16.6491 18.2317,-7.4587 24.0326,-21.3959 17.4023,-41.7366 -6.7802,-20.4159 -6.2527,-41.3594 1.5068,-62.8302 z"
           style="fill:#102a83;fill-rule:evenodd"
           id="path10" />
      </g>
    </g>
    <path
       d="m 150.9657,60.0101 -2.7118,1.2816 -0.6025,-2.7126 c -0.0759,-0.1508 -0.151,-0.2257 -0.151,-0.3766 -0.6784,-2.7125 -1.9584,-4.3694 -3.7668,-4.9726 -2.26,-0.4518 -5.2736,0.3015 -8.9652,2.3358 l -2.9377,1.5825 -0.8291,-3.165 v -0.075 l -0.8285,-3.2394 c -7.8354,-2.2601 -15.2181,-5.5745 -22.2242,-9.8694 -6.8557,4.2949 -14.2385,7.6093 -21.9985,9.8694 l -0.8283,3.2394 v 0.075 l -0.8287,3.165 -2.4864,-1.3567 -0.5271,-0.2258 c -3.6914,-2.0343 -6.63,-2.8625 -8.89,-2.3358 -1.8834,0.6032 -3.0885,2.2601 -3.7668,4.9726 -0.1504,0.1509 -0.1504,0.2258 -0.1504,0.3766 l -0.603,2.7126 -2.7872,-1.2816 c -0.1509,-0.075 -0.1509,-0.15 -0.1509,-0.15 L 58.3023,56.62 c 5.9514,19.9642 5.8006,39.4766 -0.4521,58.4614 -6.2529,18.7585 -0.9042,31.5656 15.896,38.4215 12.8826,5.2736 22.601,10.5473 29.0799,15.8207 1.5068,1.2058 3.2394,2.7877 5.1228,4.8211 1.7325,-1.8077 3.4651,-3.465 5.2735,-4.8211 6.6294,-5.3491 16.3483,-10.6228 29.1556,-15.8207 16.6486,-6.8559 21.9222,-19.663 15.8204,-38.4215 C 151.8698,96.0216 151.795,76.509 157.7459,56.62 l -6.6296,3.2401 c -0.0747,0 -0.1506,0.075 -0.1506,0.15 z"
       style="fill:#ffffff;fill-rule:evenodd"
       id="path11" />
    <path
       d="m 143.8845,59.1817 0.6775,2.9385 v 0.075 l 0.0759,0.075 0.9791,3.9934 4.2186,-1.5817 2.1851,-1.055 c -3.9177,17.9299 -3.0886,35.4831 2.4859,52.5846 5.4993,16.4232 0.9041,27.7236 -13.5607,33.8257 -14.7655,5.8768 -25.765,12.1295 -32.997,18.7591 -7.0062,-6.5539 -17.93,-12.8073 -32.7714,-18.7591 C 60.6378,143.9351 56.0422,132.6347 61.4661,116.2115 67.1163,98.96 67.945,81.406 64.0279,63.6269 l 6.4786,2.6367 0.9797,-3.9934 v -0.075 c 0,-0.075 0,-0.075 0.0754,-0.075 l 0.6779,-2.9385 c 0.3012,-1.2051 0.6779,-1.9584 1.2055,-2.26 1.5067,-0.0751 3.4651,0.5274 5.9514,1.9584 l 3.1639,1.5825 c 0,0 0.0754,0 0.1508,0.0758 l 3.8424,1.9584 2.1846,-7.5337 c 0,-0.1508 0.0754,-0.2265 0.0754,-0.3016 l 0.3013,-1.0549 c 6.6294,-2.1086 12.9581,-4.897 18.8341,-8.3621 6.0267,3.5409 12.3553,6.3285 19.0597,8.3621 l 0.2262,1.0549 c 0,0.0751 0.0758,0.1508 0.0758,0.3016 l 2.2601,7.5337 3.8415,-1.9584 c 0,-0.0758 0.076,-0.0758 0.151,-0.0758 l 3.0134,-1.5825 c 2.4859,-1.431 4.5202,-2.0335 6.102,-1.9584 0.5275,0.3766 0.9041,1.13 1.2059,2.26 z"
       style="fill:#102a83;fill-rule:evenodd"
       id="path12" />
    <path
       d="m 109.9831,78.1637 v -3.2364 h 4.5951 v -2.6368 h -4.5951 v -5.5 h -3.9176 v 5.5 h -4.5203 v 2.6368 h 4.5203 v 3.2275 c 0.6212,-0.0382 1.2473,-0.0639 1.8834,-0.0639 0.6874,0 1.3636,0.0294 2.0342,0.0728 z"
       style="fill:#ffffff;fill-rule:evenodd"
       id="path13" />
    <path
       d="m 109.9831,83.75 v -1.058 c -0.6673,-0.05 -1.3434,-0.0809 -2.0342,-0.0809 -0.6378,0 -1.264,0.0287 -1.8834,0.0735 v 1.0507 c 0.618,-0.0457 1.2458,-0.0693 1.8834,-0.0693 0.6908,0 1.3674,0.031 2.0342,0.084 z"
       style="fill:#ffffff;fill-rule:evenodd"
       id="path14" />
    <path
       d="m 106.0655,128.1896 v 1.0544 c 0.6194,0.0462 1.2456,0.0756 1.8834,0.0756 0.6901,0 1.3663,-0.0325 2.0342,-0.0845 v -1.0514 c -0.6662,0.0544 -1.3441,0.0816 -2.0342,0.0816 -0.6386,0 -1.265,-0.0287 -1.8834,-0.0757 z"
       style="fill:#ffffff;fill-rule:evenodd"
       id="path15" />
    <path
       d="m 92.1282,84.7962 c 0,0 0,0.075 0.0755,0.2265 l 0.3767,1.3552 0.1257,0.9225 c 4.3209,-3.627 9.4012,-5.4427 15.2428,-5.4427 6.0562,0 11.3112,1.9128 15.7146,5.7245 0.1472,-0.4709 0.3222,-0.963 0.5576,-1.5053 v -0.0757 c 0.2009,-0.4414 0.4313,-0.8821 0.674,-1.3235 -4.8484,-3.8846 -10.48,-5.8335 -16.9462,-5.8335 -6.1251,0 -11.4866,1.7819 -16.1298,5.339 l 0.2336,0.613 z"
       style="fill:#ffffff;fill-rule:evenodd"
       id="path16" />
    <path
       d="m 90.9981,122.9917 c -4.746,-4.746 -7.0814,-10.3961 -7.0814,-17.0263 0,-4.5217 1.0667,-8.5961 3.2142,-12.2039 h -0.3517 l -1.6571,-0.3017 c -0.1509,-0.075 -0.2263,-0.1501 -0.3767,-0.1501 l -0.6931,-0.2162 c -2.1043,3.844 -3.149,8.1339 -3.149,12.8719 0,7.4586 2.6367,13.8622 7.9857,19.1356 0.7741,0.7857 1.5784,1.5068 2.4057,2.1784 l 1.9665,-2.2755 c -0.7783,-0.618 -1.5351,-1.2845 -2.2631,-2.0122 z"
       style="fill:#ffffff;fill-rule:evenodd"
       id="path17" />
    <path
       d="m 127.9968,92.3828 c 2.7317,3.9374 4.1348,8.4753 4.1348,13.5826 0,6.6302 -2.4103,12.2803 -7.0812,17.0263 -0.7189,0.7071 -1.4603,1.3559 -2.2213,1.9593 l 2.0248,2.2631 c 0.8152,-0.6527 1.6104,-1.3533 2.3809,-2.1131 5.2734,-5.2734 7.9102,-11.677 7.9102,-19.1356 0,-5.4833 -1.4303,-10.3948 -4.282,-14.7385 -0.3287,0.1765 -0.6591,0.3444 -0.9917,0.5002 -0.6768,0.2944 -1.2932,0.4989 -1.8745,0.6557 z"
       style="fill:#ffffff;fill-rule:evenodd"
       id="path18" />
    <path
       d="m 107.9489,130.0731 c -4.3683,0 -8.3658,-1.0763 -11.9306,-3.1734 l -2.0096,2.3237 c 4.1062,2.5572 8.7692,3.8631 13.9402,3.8631 5.2235,0 9.9026,-1.3059 14.0638,-3.8631 l -2.0631,-2.3 c -3.5653,2.0805 -7.5498,3.1497 -12.0007,3.1497 z"
       style="fill:#ffffff;fill-rule:evenodd"
       id="path19" />
    <path
       d="m 91.827,90.3714 v -0.0752 l 0.1503,-0.7533 c 0.0754,-0.6033 0.0754,-1.1301 0.0754,-1.5068 L 91.827,86.5294 91.4503,85.3236 c 0,-0.1508 -0.0754,-0.2259 -0.0754,-0.3009 L 90.7724,83.516 89.9436,82.0843 c 0,-0.1508 -0.0755,-0.2266 -0.0755,-0.2266 L 89.0393,80.5776 86.8546,77.79 C 86.7038,77.6392 86.6288,77.5641 86.5535,77.5641 L 85.3479,76.2075 C 85.1971,76.0573 85.1221,76.0573 85.1221,76.0573 L 81.2799,73.044 c -0.0755,0 -0.0755,0 -0.0755,-0.0752 -0.1508,-0.0758 -0.2258,-0.1514 -0.3767,-0.2266 -0.1508,-0.075 -0.2258,-0.075 -0.3011,-0.075 L 79.321,71.9139 H 79.1702 L 79.0198,71.8388 78.2664,71.5372 78.191,71.3863 c -0.1508,-0.0757 -0.3012,-0.1507 -0.3767,-0.1507 l -0.6778,-0.226 -0.8289,-0.2257 c -0.1509,0 -0.3013,0 -0.3767,-0.1508 l -2.6368,-0.226 c -0.5275,0.075 -1.0546,0.226 -1.5067,0.4517 -0.4522,0.1508 -0.8288,0.3768 -0.9793,0.6784 -0.0753,0 -0.1507,0 -0.1507,0.075 l -0.3768,0.4518 c -0.1508,0.1515 -0.3767,0.4524 -0.5275,0.98 -0.1503,0.2257 -0.2258,0.7532 -0.3013,1.5067 l 0.0755,1.5066 0.5275,2.0336 0.2258,0.6033 c 0,0.15 0.0755,0.2258 0.1508,0.3767 l 0.6781,1.5067 0.6779,1.13 0.1508,0.3767 3.616,4.4451 2.2601,2.1086 1.2055,0.9049 c 0.1504,0.075 0.2257,0.1501 0.3012,0.2252 l 1.5067,0.9798 1.5068,0.8285 2.0342,0.8284 0.6025,0.1516 c 0.1509,0 0.2259,0.075 0.3767,0.1501 l 1.5067,0.3016 h 1.5067 c 0.4522,-0.0751 0.9794,-0.2266 1.4314,-0.4517 h 0.0754 c 0.0755,-0.0758 0.1508,-0.1516 0.2259,-0.1516 l 0.082,0.0919 c 0.4182,-0.5362 0.8644,-1.0608 1.3435,-1.5714 z m -1.733,-0.8285 c -0.0751,0 -0.0751,0.075 -0.0751,0.1501 v 0.0751 c 0,0 -0.0753,0.0757 -0.0753,0.1514 -0.0755,0 -0.0755,0.0752 -0.0755,0.1501 -0.1508,0.0751 -0.2258,0.2266 -0.3012,0.3767 l -0.1509,0.1508 c -0.0753,0 -0.1504,0.0758 -0.1504,0.0758 l -0.9043,0.3768 h -0.2258 c -0.3767,0.075 -0.7534,0.075 -1.13,0 h -0.1509 l -1.5067,-0.3018 c -0.1508,-0.075 -0.2258,-0.1508 -0.3767,-0.1508 l -2.3355,-1.0542 c -0.1504,0 -0.2257,-0.0758 -0.3012,-0.1515 -0.6026,-0.3009 -1.1301,-0.6018 -1.5068,-0.9035 l -3.7668,-3.0885 -0.3011,-0.3767 -0.4522,-0.4525 c -0.1509,-0.1508 -0.2259,-0.1508 -0.3013,-0.1508 l -1.8081,-2.3351 -1.7329,-3.0134 -0.6025,-1.5068 c 0,-0.1508 -0.0754,-0.2266 -0.0754,-0.3016 l -0.3012,-1.2052 c -0.151,-0.6032 -0.2264,-1.0549 -0.0756,-1.5066 0,-0.3767 0.0756,-0.9043 0.3768,-1.281 0,-0.1508 0.0754,-0.2257 0.1508,-0.2257 0,0 0,-0.0752 0.0751,-0.0752 0.3016,-0.3016 0.7533,-0.5281 1.2808,-0.6032 0.3766,-0.0751 0.9041,-0.0751 1.5068,0 l 1.2054,0.3016 c 0.1504,0 0.2258,0 0.3013,0.075 0.0754,0 0.1508,0 0.3012,0.0752 l 1.2055,0.4523 c 0.0755,0.151 0.2259,0.151 0.3767,0.151 l 0.7533,0.3765 c 0.0755,0.0752 0.2259,0.1502 0.3767,0.226 l 1.3559,0.9041 c 0,0 0.0754,0 0.1508,0.0751 l 1.3559,1.0549 c 0,0 0.0755,0 0.1509,0.0751 l 1.5067,1.2809 0.0755,0.1508 1.4312,1.3559 c 0,0 0,0.1509 0.0755,0.1509 l 1.2804,1.5067 0.1508,0.15 1.808,2.7884 0.6781,1.5067 0.5274,1.5067 c 0,0.0751 0.0755,0.2251 0.0755,0.3767 l 0.1504,0.7535 c 0,0.075 0.0753,0.2251 0.0753,0.3765 z"
       style="fill:#ffffff;fill-rule:evenodd"
       id="path20" />
    <path
       d="m 142.378,73.5707 c -0.9796,-0.9035 -2.6369,-0.8285 -4.973,0.3017 -2.41,1.0549 -4.821,2.7875 -7.2319,5.2735 -2.4111,2.3352 -4.1436,4.7468 -5.2736,7.232 -0.8284,1.8084 -1.055,3.165 -0.6784,4.1435 l -0.1199,0.0405 c 0.4201,0.4281 0.8248,0.8629 1.2014,1.3087 l 0.1246,-0.1435 c 0.8282,0.301 2.1841,0.0758 4.1435,-0.6774 2.4858,-1.2816 4.8968,-3.0136 7.2318,-5.2736 2.4109,-2.4867 4.2193,-4.8969 5.2734,-7.3085 1.0552,-2.3352 1.2059,-3.9169 0.3021,-4.8969 z m -2.0346,4.1435 c -0.9791,2.185 -2.6366,4.3701 -4.8968,6.7052 -2.185,2.1851 -4.445,3.7669 -6.6294,4.8969 h -0.0759 c -1.205,0.5275 -2.1093,0.7533 -2.7118,0.6784 v -0.0752 h -0.075 c -0.0759,-0.829 0.15,-1.7332 0.6775,-2.7882 0.9043,-2.1086 2.562,-4.2936 4.8968,-6.6289 2.1094,-2.1849 4.2946,-3.8425 6.7055,-4.9725 1.3559,-0.6026 2.2602,-0.8291 2.7875,-0.6026 0.15,0.5268 -0.0759,1.5068 -0.6784,2.7869 z"
       style="fill:#ffffff;fill-rule:evenodd"
       id="path21" />
    <path
       d="m 121.0473,124.0865 c -0.5443,0.3981 -1.1015,0.7709 -1.6723,1.1132 l 7.093,7.9441 c 0.5689,-0.3702 1.1361,-0.7439 1.7098,-1.0977 z"
       style="fill:#ffffff;fill-rule:evenodd"
       id="path22" />
    <path
       d="m 79.7731,141.7501 1.4313,1.1301 3.8603,-4.4652 c -0.5084,-0.3406 -1.012,-0.6864 -1.5274,-1.0194 z"
       style="fill:#ffffff;fill-rule:evenodd"
       id="path23" />
    <path
       d="m 96.5281,125.1555 c -0.5183,-0.3169 -1.0282,-0.6548 -1.5273,-1.0196 l -6.9165,8 c 0.5217,0.3215 1.0407,0.6503 1.5572,0.9851 z"
       style="fill:#ffffff;fill-rule:evenodd"
       id="path24" />
    <path
       d="m 134.919,123.971 2.9387,3.8418 c -3.1358,1.3936 -6.1912,2.9966 -9.1648,4.8072 -0.5784,0.3525 -1.1537,0.7136 -1.7261,1.0822 -6.0268,3.8789 -11.7012,8.6381 -16.9837,14.3014 v -5.5751 -8.6623 c -0.67,0.0434 -1.3457,0.0737 -2.0342,0.0737 -0.6364,0 -1.2625,-0.0265 -1.8834,-0.0648 v 8.6534 5.5751 c -5.3398,-5.6959 -10.9901,-10.4608 -16.9247,-14.3035 -0.5175,-0.335 -1.0373,-0.6616 -1.5589,-0.9829 -2.359,-1.4502 -4.7604,-2.7619 -7.2063,-3.9243 l -2.1092,-0.9801 2.938,-3.8418 H 66.0617 l 6.7049,10.1705 2.6368,-2.4862 4.9722,2.8627 c 1.243,0.7475 2.4595,1.518 3.6605,2.3015 0.5142,0.3354 1.0142,0.6832 1.5208,1.0264 8.5625,5.7839 16.0369,12.501 22.392,20.1772 8.7386,-10.4712 19.6624,-19.2107 32.7713,-26.3678 l 2.6368,2.4862 6.6293,-10.1705 z"
       style="fill:#ffffff;fill-rule:evenodd"
       id="path25" />
    <path
       d="m 123.2418,90.7479 c -0.6023,-0.6783 -1.3557,-1.3565 -2.1841,-2.0341 -3.7668,-2.8627 -8.1371,-4.2944 -13.1088,-4.2944 -4.8968,0 -9.1912,1.3567 -12.8072,4.2186 -0.9792,0.6783 -1.808,1.3567 -2.4109,2.1099 -4.2185,4.1436 -6.2528,9.1906 -6.2528,15.2175 0,5.9518 2.0343,10.9995 6.2528,15.2188 l 1.4317,1.28 v 0.0752 c 3.9172,3.315 8.5129,4.9725 13.7864,4.9725 5.2735,0 9.7936,-1.6575 13.7863,-4.8968 0.4525,-0.3768 0.9793,-0.8291 1.5066,-1.4309 4.2195,-4.1436 6.3289,-9.267 6.3289,-15.2188 0,-6.0269 -2.1094,-11.0739 -6.3289,-15.2175 z"
       style="fill:#ffffff;fill-rule:evenodd"
       id="path26" />
    <path
       d="m 120.0777,90.8231 1.5827,1.5067 c 3.7668,3.6918 5.6502,8.2119 5.6502,13.6356 0,5.2735 -1.8834,9.8694 -5.6502,13.636 l -0.9043,0.9043 c -1.8835,-0.6781 -3.6159,-1.13 -5.1228,-1.3565 V 91.7271 Z"
       style="fill:#102a83;fill-rule:evenodd"
       id="path27" />
    <path
       d="m 117.5168,89.0905 -3.1643,0.5274 c -4.7459,0.6783 -9.1159,0.6783 -13.1839,0 l -2.7123,-0.5274 c 2.7878,-1.6577 6.027,-2.411 9.4926,-2.411 3.5411,-0.075 6.7051,0.6783 9.5679,2.411 z"
       style="fill:#102a83;fill-rule:evenodd"
       id="path28" />
    <path
       d="m 94.3128,92.3298 1.7331,-1.5819 c 1.13,0.3768 2.4104,0.6785 3.7668,0.9036 v 27.4227 c -1.4317,0.2265 -3.0135,0.6782 -4.7465,1.2807 l -0.7534,-0.7535 c -3.8422,-3.8422 -5.6502,-8.3625 -5.5747,-13.636 -0.0755,-5.4237 1.7325,-9.9438 5.5747,-13.6356 z"
       style="fill:#102a83;fill-rule:evenodd"
       id="path29" />
    <path
       d="m 97.2509,122.0126 c 1.2809,-0.3768 2.5618,-0.6784 3.9177,-0.9043 3.9926,-0.7534 8.3625,-0.7534 13.1088,0.0759 1.7327,0.3766 3.1634,0.6775 4.2934,1.0541 -3.0883,1.9593 -6.5536,3.0134 -10.6219,3.0134 -4.0681,0 -7.6845,-1.13 -10.698,-3.2391 z"
       style="fill:#102a83;fill-rule:evenodd"
       id="path30" />
    <path
       d="m 113.3733,118.7726 c -3.9176,-0.6019 -7.6846,-0.6019 -11.3004,-0.0752 V 92.0281 c 3.5404,0.4525 7.3073,0.4525 11.3004,0 z"
       style="fill:#102a83;fill-rule:evenodd"
       id="path31" />
    <path
       d="m 97.5526,100.09 c -0.6783,-1.3567 -1.5821,-1.9592 -2.5617,-1.9592 -0.6026,0 -1.1301,0.1508 -1.5818,0.6025 -0.3767,0.1509 -0.6783,0.6033 -0.9797,1.2809 -0.3012,0.5275 -0.527,1.13 -0.6778,1.8076 -0.3013,1.055 -0.3767,2.2601 -0.3767,3.5417 0,2.0335 0.3012,3.7669 0.9792,5.1978 0.6783,1.2059 1.5067,1.8833 2.6368,1.8833 1.055,0 1.9588,-0.6774 2.5617,-1.959 0.6025,-1.2051 0.9792,-2.9378 0.9792,-5.1979 0,-2.3358 -0.3767,-4.0677 -0.9792,-5.1977 z m -2.5617,0.4517 c 0.5275,0 1.055,0.3767 1.4317,1.1302 0.3766,0.8282 0.6025,2.0334 0.6025,3.6158 0,1.4311 -0.2259,2.6368 -0.6025,3.5411 -0.4521,0.7533 -0.9042,1.205 -1.4317,1.205 -0.6026,0 -1.0548,-0.4517 -1.4314,-1.205 -0.452,-0.7535 -0.6025,-1.9585 -0.6025,-3.5411 0,-1.6575 0.1505,-2.8625 0.5271,-3.5409 0.3767,-0.8284 0.9042,-1.2051 1.5068,-1.2051 z"
       style="fill:#ffffff;fill-rule:evenodd"
       id="path32" />
    <path
       d="m 108.0997,98.4317 h -1.6575 l -2.7876,13.7872 h 1.582 l 0.6031,-3.1644 h 2.8626 l 0.7534,3.1644 h 1.5815 z m 0.2258,8.2871 h -1.9588 l 0.8288,-5.1221 z"
       style="fill:#ffffff;fill-rule:evenodd"
       id="path33" />
    <path
       d="m 120.4543,98.1308 c -1.0541,0 -1.8835,0.6025 -2.486,1.9592 -0.6774,1.2051 -0.979,3.0134 -0.979,5.3487 0,2.1091 0.3016,3.8418 0.9043,5.1226 0.6772,1.2059 1.5066,1.8833 2.4857,1.8833 0.6784,0 1.3559,-0.3766 1.8834,-1.13 0.5277,-0.829 0.9043,-1.8833 1.13,-3.3143 l -1.4316,-0.8291 c -0.15,0.9792 -0.3766,1.6576 -0.6027,2.1093 -0.3007,0.4517 -0.6775,0.7533 -1.0542,0.7533 -0.6031,0 -0.9799,-0.3766 -1.2806,-1.13 -0.3768,-0.6783 -0.5277,-1.8834 -0.5277,-3.6919 0,-1.6567 0.1509,-2.8618 0.5277,-3.54 0.3007,-0.7535 0.7534,-1.1302 1.3557,-1.1302 0.3016,0 0.6784,0.2259 0.9791,0.6783 0.2261,0.3009 0.4527,0.9036 0.5277,1.6568 l 1.5066,-0.6025 c -0.3016,-1.2809 -0.5275,-2.1843 -0.7532,-2.561 -0.6025,-1.055 -1.3559,-1.5825 -2.1852,-1.5825 z"
       style="fill:#ffffff;fill-rule:evenodd"
       id="path34" />
    <g
       id="Layer1006">
      <g
         id="Layer1007">
        <path
           d="m 75.102,72.8174 c 0,0 0.0755,0.0756 0.0755,0.2266 v 1.5067 c -0.0755,0.075 -0.1508,0.1501 -0.1508,0.2257 -0.1504,0.1509 -0.2258,0.1509 -0.2258,0.1509 h -1.5068 c -0.1508,0 -0.2259,0 -0.3012,-0.1509 -0.0755,-0.1507 -0.0755,-0.2257 -0.0755,-0.2257 V 72.893 c -0.1508,0 -0.3012,0.151 -0.3012,0.151 l -0.3767,0.1499 v 0.0758 l -0.0754,0.151 v 1.13 c -0.0755,0.075 -0.1508,0.1501 -0.1508,0.2257 -0.1505,0.1509 -0.2259,0.1509 -0.2259,0.1509 -0.0755,0.1501 -0.0755,0.3768 0,0.5268 v 0.2266 c 0.0754,0 0.1508,0 0.2259,0.0751 0.0753,0.075 0.1508,0.1507 0.1508,0.3015 v 1.1302 c 0,0.075 0,0.15 0.0754,0.2258 v 0.1508 l 0.6025,1.2801 c 0,0.0758 0,0.2267 0.0754,0.2267 0,-0.1509 0,-0.2267 0.0755,-0.3017 0.0753,-0.075 0.1504,-0.075 0.3012,-0.075 h 1.5068 c 0.0754,0 0.1508,0 0.2258,0.075 0.0753,0.075 0.1508,0.1508 0.1508,0.3017 v 1.5067 c -0.0755,0.075 -0.1508,0.15 -0.1508,0.2258 -0.1504,0.1509 -0.2258,0.1509 -0.2258,0.1509 h -0.9043 l 0.5276,0.7533 h 0.3767 c 0.0754,0 0.1508,0 0.2258,0.075 0.0753,0.0751 0.1508,0.1509 0.1508,0.3017 v 0.6025 l 0.5275,0.6026 c 0,0.075 0.0751,0.1508 0.1504,0.2266 0,0 0,0.075 0.0755,0.075 v -1.5067 c 0,-0.1508 0,-0.2266 0.0754,-0.3017 0.0754,-0.075 0.1504,-0.075 0.3013,-0.075 h 1.5067 c 0.0755,0 0.1508,0 0.2259,0.075 0.0753,0.0751 0.1508,0.1509 0.1508,0.3017 v 1.4317 c 0,0.075 -0.0755,0.15 -0.1508,0.3009 -0.1504,0 -0.2259,0.0758 -0.2259,0.0758 h -1.5822 c 0,0 0,0.075 0.0755,0.15 l 0.0754,0.1508 c 0,0 0.0754,0.0758 0.1504,0.151 h 0.0754 c 0.0755,0.1499 0.151,0.2257 0.151,0.3015 h 1.0545 c 0.0755,0 0.1508,0.0751 0.2259,0.1502 0.0753,0.075 0.1508,0.1507 0.1508,0.2265 v 0.9035 l 0.3767,0.3766 0.3011,0.2266 c 0,0 0,0.0751 0.0755,0.0751 v -1.5818 c 0,-0.1515 0,-0.2265 0.0755,-0.2265 0.0754,-0.1502 0.1504,-0.1502 0.3012,-0.1502 h 1.5067 c 0.0756,0 0.1509,0.0751 0.2259,0.1502 0.0753,0.075 0.1508,0.1507 0.1508,0.2265 v 1.5067 c 0,0.0751 -0.0755,0.1501 -0.1508,0.3009 -0.1503,0 -0.2259,0.0758 -0.2259,0.0758 H 79.321 l 0.0754,0.1501 h 0.1505 l 0.7533,0.6034 h 0.5275 c 0.0756,0 0.1509,0.075 0.2259,0.1499 0.0753,0.0752 0.1508,0.1508 0.1508,0.2266 v 0.2252 l 0.7534,0.5283 v -0.7535 c 0,-0.1514 0,-0.2266 0.0755,-0.2266 0.0753,-0.1499 0.1503,-0.1499 0.3012,-0.1499 h 1.5067 c 0.0755,0 0.1508,0.075 0.2258,0.1499 0.0754,0.0752 0.1509,0.1508 0.1509,0.2266 v 1.5068 c 0,0.075 -0.0755,0.1501 -0.1509,0.3009 l 0.9797,0.3766 0.3012,0.151 h 0.0755 l 1.4312,0.3015 h 0.2259 c 0.3016,0.075 0.603,0.075 0.9797,0 h 0.3011 l 0.678,-0.2266 c 0,-0.0749 0,-0.0749 0.0755,-0.0749 0,-0.0752 0,-0.0752 0.0754,-0.0752 0,-0.0758 0,-0.0758 0.0754,-0.0758 l 0.2259,-0.2257 v -0.0752 h -1.1302 c -0.1508,0 -0.2258,-0.0757 -0.3011,-0.0757 -0.0754,-0.1508 -0.0754,-0.2259 -0.0754,-0.3009 v -1.5068 c 0,-0.1514 0,-0.2266 0.0754,-0.2266 0.0753,-0.1499 0.1503,-0.1499 0.3011,-0.1499 h 1.356 l -0.1504,-0.7535 h -1.2056 c -0.1508,0 -0.2258,-0.0758 -0.3011,-0.0758 -0.0754,-0.1508 -0.0754,-0.2258 -0.0754,-0.3009 v -1.5067 c 0,-0.1515 0,-0.2265 0.0754,-0.2265 0.0753,-0.1502 0.1503,-0.1502 0.3011,-0.1502 h 0.4522 l -0.0754,-0.0758 -0.3012,-0.6775 h -0.0756 c -0.1508,0 -0.2258,-0.0758 -0.3011,-0.0758 C 87.9848,83.666 87.9848,83.591 87.9848,83.516 v -0.3767 l -0.5276,-0.9049 -0.1504,-0.1501 -0.7533,-1.13 h -1.2056 c -0.1508,0 -0.2258,0 -0.3012,-0.1509 -0.0755,-0.1508 -0.0755,-0.2258 -0.0755,-0.2258 v -1.5067 h -0.0754 l -1.0546,-1.1301 h -1.5067 c -0.1509,0 -0.2259,0 -0.3012,-0.1508 -0.0755,-0.1508 -0.0755,-0.2259 -0.0755,-0.2259 v -1.2808 l -0.3767,-0.226 -0.7534,-0.6032 -0.8287,-0.5268 h -0.678 c -0.1508,0 -0.2258,0 -0.3012,-0.1509 -0.0755,-0.1507 -0.0755,-0.2257 -0.0755,-0.2257 V 74.3241 L 78.191,73.8724 v 0.6783 c -0.0755,0.075 -0.1508,0.1501 -0.1508,0.2257 -0.1504,0.1509 -0.2259,0.1509 -0.2259,0.1509 h -1.5067 c -0.1509,0 -0.2259,0 -0.3013,-0.1509 -0.0754,-0.1507 -0.0754,-0.2257 -0.0754,-0.2257 V 73.044 C 75.6296,72.893 75.3284,72.8174 75.102,72.8174 Z m -0.0753,2.9384 c 0.0753,0.075 0.1508,0.1507 0.1508,0.3015 v 1.5068 c -0.0755,0.0751 -0.1508,0.1501 -0.1508,0.2259 -0.1504,0.1508 -0.2258,0.1508 -0.2258,0.1508 h -1.5068 c -0.1508,0 -0.2259,0 -0.3012,-0.1508 -0.0755,-0.1508 -0.0755,-0.2259 -0.0755,-0.2259 v -1.5068 c 0,-0.1508 0,-0.2265 0.0755,-0.3015 0.0753,-0.0751 0.1504,-0.0751 0.3012,-0.0751 h 1.5068 c 0.0754,0 0.1508,0 0.2258,0.0751 z m 0.9042,0.3015 c 0,-0.1508 0,-0.2265 0.0754,-0.3015 0.0754,-0.0751 0.1504,-0.0751 0.3013,-0.0751 h 1.5067 c 0.0755,0 0.1508,0 0.2259,0.0751 0.0753,0.075 0.1508,0.1507 0.1508,0.3015 v 1.5068 c -0.0755,0.0751 -0.1508,0.1501 -0.1508,0.2259 -0.1504,0.1508 -0.2259,0.1508 -0.2259,0.1508 h -1.5067 c -0.1509,0 -0.2259,0 -0.3013,-0.1508 -0.0754,-0.1508 -0.0754,-0.2259 -0.0754,-0.2259 z m 3.0889,-0.3015 c 0.0754,-0.0751 0.1504,-0.0751 0.3012,-0.0751 h 1.5067 c 0.0756,0 0.1509,0 0.2259,0.0751 0.0753,0.075 0.1508,0.1507 0.1508,0.3015 v 1.5068 c -0.0755,0.0751 -0.1508,0.1501 -0.1508,0.2259 -0.1503,0.1508 -0.2259,0.1508 -0.2259,0.1508 H 79.321 c -0.1508,0 -0.2258,0 -0.3012,-0.1508 -0.0755,-0.1508 -0.0755,-0.2259 -0.0755,-0.2259 v -1.5068 c 0,-0.1508 0,-0.2265 0.0755,-0.3015 z m 3.0135,3.0134 c 0.0753,-0.075 0.1503,-0.075 0.3012,-0.075 h 1.5067 c 0.0755,0 0.1508,0 0.2258,0.075 0.0754,0.075 0.1509,0.1508 0.1509,0.3017 v 1.5067 c -0.0755,0.075 -0.1509,0.15 -0.1509,0.2258 -0.1503,0.1509 -0.2258,0.1509 -0.2258,0.1509 h -1.5067 c -0.1509,0 -0.2259,0 -0.3012,-0.1509 -0.0755,-0.1508 -0.0755,-0.2258 -0.0755,-0.2258 v -1.5067 c 0,-0.1509 0,-0.2267 0.0755,-0.3017 z m -1.2056,-0.075 c 0.0756,0 0.1509,0 0.2259,0.075 0.0753,0.075 0.1508,0.1508 0.1508,0.3017 v 1.5067 c -0.0755,0.075 -0.1508,0.15 -0.1508,0.2258 -0.1503,0.1509 -0.2259,0.1509 -0.2259,0.1509 H 79.321 c -0.1508,0 -0.2258,0 -0.3012,-0.1509 -0.0755,-0.1508 -0.0755,-0.2258 -0.0755,-0.2258 v -1.5067 c 0,-0.1509 0,-0.2267 0.0755,-0.3017 0.0754,-0.075 0.1504,-0.075 0.3012,-0.075 z m -3.0134,0 c 0.0755,0 0.1508,0 0.2259,0.075 0.0753,0.075 0.1508,0.1508 0.1508,0.3017 v 1.5067 c -0.0755,0.075 -0.1508,0.15 -0.1508,0.2258 -0.1504,0.1509 -0.2259,0.1509 -0.2259,0.1509 h -1.5067 c -0.1509,0 -0.2259,0 -0.3013,-0.1509 -0.0754,-0.1508 -0.0754,-0.2258 -0.0754,-0.2258 v -1.5067 c 0,-0.1509 0,-0.2267 0.0754,-0.3017 0.0754,-0.075 0.1504,-0.075 0.3013,-0.075 z m 4.219,3.0884 c 0.0753,-0.075 0.1503,-0.075 0.3012,-0.075 h 1.5067 c 0.0755,0 0.1508,0 0.2258,0.075 0.0754,0.0751 0.1509,0.1509 0.1509,0.3017 v 1.4317 c 0,0.075 -0.0755,0.15 -0.1509,0.3009 -0.1503,0 -0.2258,0.0758 -0.2258,0.0758 h -1.5067 c -0.1509,0 -0.2259,-0.0758 -0.3012,-0.0758 C 81.9578,83.666 81.9578,83.591 81.9578,83.516 v -1.4317 c 0,-0.1508 0,-0.2266 0.0755,-0.3017 z m -0.8289,0.3017 v 1.4317 c 0,0.075 -0.0755,0.15 -0.1508,0.3009 -0.1503,0 -0.2259,0.0758 -0.2259,0.0758 H 79.321 c -0.1508,0 -0.2258,-0.0758 -0.3012,-0.0758 C 78.9443,83.666 78.9443,83.591 78.9443,83.516 v -1.4317 c 0,-0.1508 0,-0.2266 0.0755,-0.3017 0.0754,-0.075 0.1504,-0.075 0.3012,-0.075 h 1.5067 c 0.0756,0 0.1509,0 0.2259,0.075 0.0753,0.0751 0.1508,0.1509 0.1508,0.3017 z m 0.8289,2.7119 c 0.0753,-0.1502 0.1503,-0.1502 0.3012,-0.1502 h 1.5067 c 0.0755,0 0.1508,0.0751 0.2258,0.1502 0.0754,0.075 0.1509,0.1507 0.1509,0.2265 v 1.5067 c 0,0.0751 -0.0755,0.1501 -0.1509,0.3009 -0.1503,0 -0.2258,0.0758 -0.2258,0.0758 h -1.5067 c -0.1509,0 -0.2259,-0.0758 -0.3012,-0.0758 -0.0755,-0.1508 -0.0755,-0.2258 -0.0755,-0.3009 v -1.5067 c 0,-0.1515 0,-0.2265 0.0755,-0.2265 z m 2.9379,-1.2802 v -1.4317 c 0,-0.1508 0,-0.2266 0.0755,-0.3017 0.0754,-0.075 0.1504,-0.075 0.3012,-0.075 h 1.5067 c 0.0755,0 0.1509,0 0.2259,0.075 0.0754,0.0751 0.1508,0.1509 0.1508,0.3017 v 1.4317 c 0,0.075 -0.0754,0.15 -0.1508,0.3009 -0.1504,0 -0.2259,0.0758 -0.2259,0.0758 h -1.5067 c -0.1508,0 -0.2258,-0.0758 -0.3012,-0.0758 C 84.9712,83.666 84.9712,83.591 84.9712,83.516 Z m 0.0755,1.2802 c 0.0754,-0.1502 0.1504,-0.1502 0.3012,-0.1502 h 1.5067 c 0.0755,0 0.1509,0.0751 0.2259,0.1502 0.0754,0.075 0.1508,0.1507 0.1508,0.2265 v 1.5067 c 0,0.0751 -0.0754,0.1501 -0.1508,0.3009 -0.1504,0 -0.2259,0.0758 -0.2259,0.0758 h -1.5067 c -0.1508,0 -0.2258,-0.0758 -0.3012,-0.0758 -0.0755,-0.1508 -0.0755,-0.2258 -0.0755,-0.3009 v -1.5067 c 0,-0.1515 0,-0.2265 0.0755,-0.2265 z m 2.0338,3.0133 c 0.0754,0.0752 0.1508,0.1508 0.1508,0.2266 v 1.5068 c 0,0.075 -0.0754,0.1501 -0.1508,0.3009 -0.1504,0 -0.2259,0.0757 -0.2259,0.0757 h -1.5067 c -0.1508,0 -0.2258,-0.0757 -0.3012,-0.0757 -0.0755,-0.1508 -0.0755,-0.2259 -0.0755,-0.3009 v -1.5068 c 0,-0.1514 0,-0.2266 0.0755,-0.2266 0.0754,-0.1499 0.1504,-0.1499 0.3012,-0.1499 h 1.5067 c 0.0755,0 0.1509,0.075 0.2259,0.1499 z"
           style="fill:#ffffff;fill-rule:evenodd"
           id="path35" />
      </g>
    </g>
  </g>
</svg>
