<?xml version="1.0" encoding="UTF-8" standalone="no"?>
<svg
   version="1.1"
   width="2.1588862in"
   height="2.1608152in"
   viewBox="0 0 155.43981 155.5787"
   id="svg49"
   sodipodi:docname="palmas_f_e_r-to.cdr"
   xmlns:inkscape="http://www.inkscape.org/namespaces/inkscape"
   xmlns:sodipodi="http://sodipodi.sourceforge.net/DTD/sodipodi-0.dtd"
   xmlns="http://www.w3.org/2000/svg"
   xmlns:svg="http://www.w3.org/2000/svg">
  <defs
     id="defs49" />
  <sodipodi:namedview
     id="namedview49"
     pagecolor="#ffffff"
     bordercolor="#000000"
     borderopacity="0.25"
     inkscape:showpageshadow="2"
     inkscape:pageopacity="0.0"
     inkscape:pagecheckerboard="0"
     inkscape:deskcolor="#d1d1d1"
     inkscape:document-units="in" />
  <g
     id="Layer1003"
     transform="translate(-30.280001,-30.210501)">
    <path
       d="m 141.7418,79.7188 c 2.9037,3.4571 5.3946,7.4681 7.0526,11.7552 1.6602,3.8722 2.7667,8.1592 3.1813,12.5841 l 33.7441,4.0102 -33.7441,3.8723 c -0.829,9.266 -4.5635,17.703 -10.0951,24.3393 l 22.2648,27.798 -27.5205,-22.4034 c -3.4568,2.9034 -7.3301,5.2556 -11.3404,6.9137 l 8.9901,22.818 -2.489,1.2435 -9.266,-22.9549 c -3.3198,1.2456 -6.9137,1.9358 -10.6484,2.2133 l -3.8732,33.8811 -3.8715,-33.8811 c -3.7326,-0.2775 -7.3302,-1.1065 -10.6484,-2.2133 l -9.4028,22.9549 -2.491,-1.2435 9.1271,-22.818 c -4.1491,-1.7969 -7.8817,-4.1491 -11.2017,-6.9137 l -27.5203,22.4034 30.287,-37.7544 -13.2762,4.5637 10.3726,-10.926 -14.7975,-0.1389 13.2763,-6.3604 L 30.28,108.0683 77.8516,102.5369 64.5753,96.1754 79.3728,96.0375 69.0002,85.1124 82.2764,89.6761 51.9894,51.9218 89.7436,82.7613 85.1819,69.0706 92.6491,76.1232 C 91.2666,73.0807 89.0533,70.7296 86.2866,67.8259 82.1394,63.2624 76.606,57.4532 70.6601,45.9758 l -0.1388,-0.2766 0.2777,-0.2767 16.041,-8.0215 0.2776,-0.1378 0.2756,0.4145 c 5.117,11.8939 5.8091,20.329 6.4995,26.9671 0.2776,4.0101 0.6921,7.4681 1.9356,10.6483 l 0.2777,0.6922 0.1387,-11.3405 6.2237,13.2762 5.5296,-47.7105 5.5331,47.7105 6.3606,-13.2762 0.1389,10.925 v -0.2767 c 1.2436,-3.1802 1.66,-6.4992 1.9356,-10.6483 0.6923,-6.6381 1.3825,-15.0732 6.6381,-26.9671 l 0.1389,-0.4145 0.2756,0.2767 16.0431,8.0205 0.4145,0.1388 -0.2756,0.2766 c -5.8092,11.4774 -11.3408,17.2866 -15.6286,21.8501 -2.7648,3.0424 -5.1168,5.3927 -6.4992,8.5738 l 7.8836,-7.3291 -4.7042,13.6907 37.893,-30.8395 z"
       style="fill:#004394;fill-rule:evenodd"
       id="path10" />
    <path
       d="m 96.106,77.921 -0.9679,-2.3512 c -1.3842,-3.1802 -1.66,-6.7759 -2.0745,-10.925 0,-0.5534 -0.1389,-1.1058 -0.1389,-1.7979 C 90.16,60.7733 87.5321,56.762 85.043,52.6139 l 10.9243,26.6904 z"
       style="fill:#ffffff;fill-rule:evenodd"
       id="path11" />
    <path
       d="m 122.9341,62.9856 c 0,0.5534 -0.137,1.1058 -0.137,1.6592 -0.4164,4.2868 -0.692,7.7448 -2.0745,10.925 l -0.692,2.0745 v 1.2446 l 10.3707,-25.446 c -2.3501,4.0103 -4.8394,7.4683 -7.4672,9.5427 z"
       style="fill:#ffffff;fill-rule:evenodd"
       id="path12" />
    <path
       d="m 121.8294,77.6443 0.4127,-1.1066 c 1.3843,-3.457 3.7344,-6.0849 6.7767,-9.2651 0.4146,-0.2766 0.6924,-0.6912 0.9699,-0.9679 -0.2775,-4.4257 -0.139,-7.7448 1.1049,-12.585 l -9.9583,24.6159 z"
       style="fill:#ffffff;fill-rule:evenodd"
       id="path13" />
    <path
       d="m 123.2097,149.4173 8.9904,22.1277 0.8309,-0.4145 -0.2775,0.1389 -8.9885,-21.9911 c -0.1386,0 -0.4163,0.139 -0.5553,0.139 z"
       style="fill:#ffffff;fill-rule:evenodd"
       id="path14" />
    <path
       d="m 82.8297,171.1305 0.829,0.5515 8.9904,-22.2647 c -0.1389,-0.139 -0.2757,-0.139 -0.5534,-0.2757 l -8.9884,22.1278 z"
       style="fill:#ffffff;fill-rule:evenodd"
       id="path15" />
    <path
       d="m 85.8721,66.3047 c 0.4145,0.2767 0.6902,0.6913 0.9679,0.9679 3.0424,3.1802 5.3946,5.8081 6.7769,9.1271 l 0.4145,0.968 0.5534,0.5533 -10.2339,-24.8925 c 1.2437,4.7014 1.9357,8.8505 1.5212,13.2762 z"
       style="fill:#ffffff;fill-rule:evenodd"
       id="path16" />
    <path
       d="m 179.0817,108.0683 -27.106,-3.1803 c 0.1389,0.9679 0.1389,2.0746 0.1389,3.1803 0,1.1069 0,2.0754 -0.1389,3.0433 z"
       style="fill:#ffec00;fill-rule:evenodd"
       id="path17" />
    <path
       d="m 76.4673,138.9077 62.6485,-61.9545 0.2758,0.2767 c 0.6921,0.5532 1.2436,1.2444 1.797,1.9357 l 17.8397,-21.988 -34.2954,27.796 4.4249,-13.2761 -9.958,9.4047 -0.1371,-13.1383 -5.948,12.7228 -5.1167,-43.838 -4.9781,43.838 L 96.935,67.9639 96.7963,81.1022 86.84,71.6975 91.4035,84.9736 57.1063,57.1776 84.6266,91.3352 71.7668,86.7715 l 9.2659,9.9572 -13.1374,0.1389 12.7211,6.0847 -43.7003,5.116 43.7003,4.9791 -12.7211,6.0848 13.1374,0.1386 -9.2659,9.9564 12.8598,-4.5637 -27.5203,34.2972 21.7131,-17.8415 c -0.6901,-0.5516 -1.3842,-1.2436 -2.0744,-1.9359 z"
       style="fill:#ffec00;fill-rule:evenodd"
       id="path18" />
    <path
       d="m 141.3272,136.9719 c -0.692,0.6923 -1.3822,1.5213 -2.0744,2.2114 -0.6921,0.6923 -1.3825,1.3843 -2.0744,1.9359 l 21.8499,17.8415 z"
       style="fill:#ffec00;fill-rule:evenodd"
       id="path19" />
    <path
       d="m 104.8186,152.0451 3.1794,27.106 3.1812,-27.106 c -1.1068,0 -2.0747,0.1389 -3.1812,0.1389 -0.9679,0 -2.0746,-0.1389 -3.1794,-0.1389 z"
       style="fill:#ffec00;fill-rule:evenodd"
       id="path20" />
    <path
       d="m 139.1158,78.0598 -10.3726,10.2329 c 2.489,2.4891 4.5637,5.5315 5.9459,8.9894 1.3843,3.3191 2.0747,7.0527 2.0747,10.7862 0,8.0215 -3.1813,15.0742 -8.4369,20.3298 -5.2539,5.2558 -12.3065,8.4352 -20.3289,8.4352 -3.8715,0 -7.6041,-0.8291 -11.063,-2.2115 -3.3181,-1.3843 -6.4993,-3.459 -8.9883,-5.948 L 77.574,138.9077 c 3.8733,3.8733 8.5757,7.0527 13.8295,9.1271 5.117,2.2134 10.7872,3.3183 16.5945,3.3183 12.0326,0 22.8197,-4.8393 30.7014,-12.721 7.7449,-7.7449 12.5861,-18.6709 12.5861,-30.5638 0,-5.8081 -1.1068,-11.3396 -3.1812,-16.3176 -2.0745,-5.117 -5.1169,-9.8194 -8.9885,-13.6909 z"
       style="fill:#ffffff;fill-rule:evenodd"
       id="path21" />
    <path
       d="m 93.6169,123.0036 -5.117,5.1168 c 2.4892,2.4911 5.5315,4.4266 8.8515,5.8091 3.1794,1.3825 6.9139,2.0747 10.6466,2.0747 7.7464,0 14.7991,-3.0426 19.7773,-8.1594 1.5195,-1.3825 2.7649,-3.0424 3.8714,-4.8412 z"
       style="fill:#ffffff;fill-rule:evenodd"
       id="path22" />
    <path
       d="m 108.8289,108.0683 -9.8193,9.5425 h 35.265 c 1.1049,-2.9053 1.6602,-6.2236 1.6602,-9.5425 z"
       style="fill:#ffffff;fill-rule:evenodd"
       id="path23" />
    <path
       d="m 128.1898,88.846 -13.9682,13.8296 h 21.2968 c -0.4145,-1.7978 -0.968,-3.4578 -1.6584,-5.1169 -1.2454,-3.3191 -3.1809,-6.2235 -5.6702,-8.7127 z"
       style="fill:#ffffff;fill-rule:evenodd"
       id="path24" />
    <g
       id="Layer1004">
      <path
         d="m 102.2057,128.2705 -0.004,0.0902 c -0.015,0.2136 -0.1762,0.7146 -1.3243,0.7146 h -0.2607 v 0.8309 c 0,0 1.2136,0 1.3787,0 0,0.1801 0,3.1924 0,3.1924 h 1.3355 v -4.8281 h -0.0956 z"
         style="fill:#1b1918;fill-rule:evenodd"
         id="path25" />
      <path
         d="m 106.9907,128.2705 c -1.2961,0 -2.0726,0.6603 -2.0726,1.7631 0,0.7673 0.6377,1.5459 1.8532,1.5459 0.4238,0 0.7576,-0.0921 0.996,-0.2666 -0.062,0.621 -0.3509,0.9867 -0.8348,0.9867 -0.33,0 -0.5233,-0.1277 -0.5738,-0.3788 l -0.0169,-0.0769 -0.077,-0.006 h -1.2455 l 0.0151,0.1088 c 0.1031,0.7748 0.8441,1.2755 1.8907,1.2755 1.3786,0 2.202,-0.9227 2.202,-2.4722 0,-2.4796 -1.6093,-2.4796 -2.1364,-2.4796 z m 0.0245,2.386 c -0.5252,0 -0.7616,-0.2325 -0.7616,-0.754 0,-0.621 0.5101,-0.6884 0.7278,-0.6884 0.51,0 0.7766,0.2627 0.7766,0.7596 0,0.4707 -0.3714,0.6828 -0.7428,0.6828 z"
         style="fill:#1b1918;fill-rule:evenodd"
         id="path26" />
      <path
         d="m 111.6104,128.2705 c -1.2978,0 -2.0706,0.6603 -2.0706,1.7631 0,0.7673 0.634,1.5459 1.8493,1.5459 0.4278,0 0.7598,-0.0921 0.998,-0.2666 -0.062,0.621 -0.3489,0.9867 -0.8328,0.9867 -0.3302,0 -0.5252,-0.1277 -0.576,-0.3788 l -0.0149,-0.0769 -0.0788,-0.006 h -1.2434 l 0.013,0.107 c 0.1032,0.7766 0.846,1.2773 1.8926,1.2773 1.3766,0 2.2,-0.9227 2.2,-2.4722 0,-2.4796 -1.6075,-2.4796 -2.1364,-2.4796 z m 0.0245,2.386 c -0.527,0 -0.7596,-0.2325 -0.7596,-0.754 0,-0.621 0.5082,-0.6884 0.7277,-0.6884 0.5085,0 0.7766,0.2627 0.7766,0.7596 0,0.4707 -0.3751,0.6828 -0.7447,0.6828 z"
         style="fill:#1b1918;fill-rule:evenodd"
         id="path27" />
      <path
         d="m 118.3217,128.3492 h -4.1752 l -0.0301,1.0017 c 0,0 2.3184,0 2.7311,0 -0.5047,0.4803 -1.795,1.872 -1.9132,3.6464 l -0.007,0.1013 h 1.3691 l 0.007,-0.088 c 0.1277,-1.8289 1.3583,-3.1568 2.0804,-3.7871 l 0.0319,-0.0282 v -0.8461 z"
         style="fill:#1b1918;fill-rule:evenodd"
         id="path28" />
    </g>
    <g
       id="Layer1005">
      <path
         d="m 86.416,138.934 c 0.6716,-0.0882 1.0918,-0.5945 1.1687,-0.6941 0.3226,-0.4183 0.4632,-0.8684 0.4069,-1.296 -0.0544,-0.4185 -0.2944,-0.8029 -0.694,-1.1105 l -1.9431,-1.4931 -0.0582,0.075 -3.1718,4.1192 1.0053,0.7729 c 0,0 1.0185,-1.3208 1.1236,-1.4575 0.1294,0.0992 0.9022,0.6938 0.9022,0.6938 0.4089,0.3153 0.8329,0.4465 1.2604,0.3903 z m -0.1087,-2.5078 c 0.2814,0.2158 0.4276,0.4071 0.4502,0.5832 0.0037,0.017 0.0037,0.0338 0.0037,0.0509 0,0.1125 -0.0488,0.2343 -0.15,0.3655 -0.0787,0.1032 -0.2251,0.2907 -0.4465,0.3209 -0.1613,0.0226 -0.3451,-0.045 -0.5421,-0.1988 0,0 -0.5908,-0.4539 -0.7146,-0.5478 0.0957,-0.1256 0.7015,-0.9134 0.7971,-1.0374 0.1202,0.092 0.6022,0.4635 0.6022,0.4635 z"
         style="fill:#1b1918;fill-rule:evenodd"
         id="path29" />
      <path
         d="m 89.7117,137.4803 -0.0526,0.0412 -4.2896,3.5375 1.1516,0.6849 c 0,0 0.7541,-0.6436 0.8441,-0.7224 0.1051,0.0639 1.4086,0.8368 1.5156,0.9004 -0.0264,0.1199 -0.2514,1.073 -0.2514,1.073 l 1.1836,0.7016 1.0822,-5.5146 z m -0.2045,1.6674 c -0.0882,0.3771 -0.345,1.4726 -0.3902,1.6677 -0.1612,-0.0977 -0.7389,-0.4391 -0.9003,-0.5367 0.1501,-0.133 0.998,-0.8758 1.2905,-1.131 z"
         style="fill:#1b1918;fill-rule:evenodd"
         id="path30" />
      <path
         d="m 93.9508,139.7181 -1.1686,-0.4972 -0.0374,0.0865 -2.0427,4.7791 3.5226,1.5081 0.4389,-1.0279 c 0,0 -2.1928,-0.9359 -2.356,-1.0053 0.0713,-0.169 1.6432,-3.8433 1.6432,-3.8433 z"
         style="fill:#1b1918;fill-rule:evenodd"
         id="path31" />
      <path
         d="m 99.9287,141.7231 c 0,0 -1.4894,2.8173 -1.7856,3.3764 0.0224,-0.6341 0.1293,-3.819 0.1293,-3.819 l -1.6843,-0.4502 -0.0245,0.0939 -1.3448,5.0191 1.1572,0.3116 c 0,0 0.6396,-2.3935 0.9154,-3.4253 -0.0487,1.0768 -0.1612,3.6278 -0.1612,3.6278 l 1.1666,0.3113 c 0,0 1.2005,-2.2844 1.6957,-3.2299 -0.272,1.0205 -0.9192,3.4382 -0.9192,3.4382 l 1.1555,0.3094 1.3712,-5.115 z"
         style="fill:#1b1918;fill-rule:evenodd"
         id="path32" />
      <path
         d="m 103.6576,142.417 -0.03,0.0602 -2.4459,4.9931 1.3318,0.1462 c 0,0 0.4201,-0.8966 0.4708,-1.0053 0.1218,0.0133 1.6261,0.1801 1.7518,0.1931 0.0243,0.1221 0.2119,1.0823 0.2119,1.0823 l 1.3693,0.1501 -1.2904,-5.4696 z m 0.8365,3.2808 c -0.1875,-0.0208 -0.8533,-0.0958 -1.0428,-0.1144 0.0825,-0.1839 0.5496,-1.2117 0.7089,-1.5626 0.0751,0.3807 0.2964,1.4819 0.3339,1.677 z"
         style="fill:#1b1918;fill-rule:evenodd"
         id="path33" />
      <path
         d="m 109.8923,144.8536 -1.2641,-0.2682 c -0.2513,-0.0506 -0.4765,-0.1218 -0.4839,-0.4257 -0.0152,-0.4896 0.6527,-0.5345 0.784,-0.5382 0.874,-0.0264 0.9491,0.4501 0.9811,0.6545 l 0.013,0.0843 1.2155,-0.0357 -0.006,-0.0974 c -0.0244,-0.6473 -0.5084,-1.7293 -2.1552,-1.6824 -1.9245,0.058 -2.039,1.3374 -2.0276,1.7275 0.0356,1.1985 0.9115,1.3749 1.7575,1.5436 l 0.5553,0.1107 c 0.5888,0.12 0.8665,0.2102 0.874,0.5121 0.004,0.1387 -0.0338,0.2512 -0.1163,0.3377 -0.1463,0.1575 -0.439,0.2437 -0.8479,0.257 -0.8477,0.0242 -0.9996,-0.4297 -1.0148,-0.6998 l -0.006,-0.0939 -1.2229,0.0339 0.004,0.0976 c 0.0151,0.5401 0.2777,1.7932 2.3521,1.733 0.2552,-0.007 1.1291,-0.0749 1.662,-0.6376 0.2869,-0.3076 0.4276,-0.7054 0.4127,-1.1893 -0.0301,-0.9866 -0.758,-1.2737 -1.467,-1.4237 z"
         style="fill:#1b1918;fill-rule:evenodd"
         id="path34" />
      <path
         d="m 117.5302,143.5465 c 0,0 -2.0443,0.4406 -2.217,0.478 -0.0301,-0.1444 -0.1709,-0.7933 -0.2025,-0.9378 0.1761,-0.0375 2.5339,-0.5457 2.5339,-0.5457 l -0.2307,-1.0693 -0.0939,0.0189 -3.6801,0.7934 1.1162,5.1751 1.2398,-0.2663 c 0,0 -0.4164,-1.9285 -0.452,-2.0971 0.1708,-0.0376 2.217,-0.4784 2.217,-0.4784 z"
         style="fill:#1b1918;fill-rule:evenodd"
         id="path35" />
      <path
         d="m 121.7994,139.9113 -0.0902,0.0338 -1.1214,0.4049 1.1741,3.2525 c 0.2025,0.5628 0.0149,0.9268 -0.5928,1.1463 -0.2214,0.0806 -0.4353,0.0769 -0.6189,-0.008 -0.2064,-0.0955 -0.3639,-0.2942 -0.469,-0.585 l -1.1574,-3.2058 -1.2135,0.4391 1.1816,3.2711 c 0.2139,0.5422 0.4802,0.8854 0.8442,1.0786 0.6753,0.3584 1.433,0.1746 1.8271,0.032 0.7087,-0.2552 1.1815,-0.6304 1.4066,-1.1087 0.2064,-0.4351 0.2024,-0.9528 -0.0112,-1.54 z"
         style="fill:#1b1918;fill-rule:evenodd"
         id="path36" />
      <path
         d="m 126.3985,138.7632 -0.5045,-0.9697 -0.0843,0.043 -3.8022,1.9846 0.5065,0.9717 c 0,0 1.2305,-0.6415 1.3806,-0.7203 0.0843,0.1613 1.9451,3.7213 1.9451,3.7213 l 1.1215,-0.585 c 0,0 -1.8568,-3.5601 -1.9431,-3.7235 0.1501,-0.0787 1.3804,-0.7221 1.3804,-0.7221 z"
         style="fill:#1b1918;fill-rule:evenodd"
         id="path37" />
      <path
         d="m 129.5441,140.3689 c -0.0862,-0.1237 -0.559,-0.799 -0.6471,-0.9248 0.1463,-0.1032 2.0614,-1.4386 2.0614,-1.4386 l -0.6247,-0.8966 c 0,0 -1.9169,1.3356 -2.0614,1.4367 -0.0825,-0.1181 -0.422,-0.6039 -0.5044,-0.7221 0.1463,-0.1032 2.2434,-1.5644 2.2434,-1.5644 l -0.6266,-0.8985 -0.0787,0.0546 -3.1869,2.2226 3.0293,4.3442 3.3648,-2.3484 -0.6263,-0.8967 c 0,0 -2.1946,1.5306 -2.3428,1.632 z"
         style="fill:#1b1918;fill-rule:evenodd"
         id="path38" />
      <path
         d="m 134.2916,134.2166 c 0.0224,-0.0825 0.0412,-0.1801 0.0412,-0.2889 0,-0.2326 -0.0805,-0.5141 -0.3677,-0.8235 -0.2474,-0.2682 -0.5851,-0.4294 -0.9303,-0.4427 -0.4202,-0.0168 -0.8421,0.1689 -1.2567,0.5533 l -1.9113,1.7651 3.592,3.8884 1.6749,-1.5455 c 0.8122,-0.7502 0.891,-1.0993 0.9136,-1.5101 0.0242,-0.4183 -0.1277,-0.8347 -0.4127,-1.146 -0.4014,-0.4352 -0.8553,-0.5816 -1.343,-0.4501 z m -1.0222,0.0936 c 0,0.2065 -0.1634,0.3978 -0.2889,0.5122 0,0 -0.7373,0.6809 -0.8573,0.7934 -0.0995,-0.1088 -0.5289,-0.5739 -0.6265,-0.679 0.1202,-0.1125 0.8367,-0.7729 0.8367,-0.7729 0.2155,-0.2006 0.3919,-0.2961 0.5364,-0.2887 0.0976,0.004 0.1875,0.0525 0.2775,0.1501 0.0865,0.0936 0.1221,0.1913 0.1221,0.2849 z m 0.3619,2.9376 c -0.1031,-0.1126 -0.6902,-0.7485 -0.7953,-0.861 0.1237,-0.1125 0.9378,-0.8646 0.9378,-0.8646 0.1163,-0.1089 0.5253,-0.4335 0.8517,-0.0769 0.1368,0.1462 0.2062,0.2942 0.2062,0.4368 0,0.004 0,0.0115 -0.002,0.017 -0.006,0.1668 -0.1069,0.3414 -0.2982,0.5178 0,0 -0.7782,0.7183 -0.9003,0.8309 z"
         style="fill:#1b1918;fill-rule:evenodd"
         id="path39" />
      <path
         d="m 138.6489,129.4148 c -2.0596,-1.6659 -3.5097,-0.0825 -3.7797,0.2514 -0.195,0.2437 -0.6189,0.8589 -0.6189,1.6488 0,0.0769 0.004,0.1537 0.0112,0.2325 0.0713,0.679 0.4614,1.3074 1.1555,1.8683 0.6939,0.5605 1.3918,0.8083 2.0689,0.737 0.9022,-0.0974 1.4987,-0.724 1.7126,-0.9903 0.2137,-0.2664 0.7014,-0.9791 0.6077,-1.8814 -0.0731,-0.677 -0.4614,-1.3074 -1.1573,-1.8663 z m -2.9281,0.9397 c 0.1219,-0.1519 0.3901,-0.4127 0.8105,-0.4576 0.4087,-0.0431 0.8532,0.1256 1.3204,0.5044 0.4688,0.377 0.7277,0.7766 0.7727,1.1856 0.0433,0.4201 -0.1557,0.7351 -0.2775,0.8889 -0.1237,0.15 -0.3901,0.4127 -0.8104,0.4578 -0.409,0.0413 -0.8552,-0.1277 -1.3224,-0.5046 -1.2172,-0.9848 -0.6846,-1.8364 -0.4933,-2.0745 z"
         style="fill:#1b1918;fill-rule:evenodd"
         id="path40" />
      <path
         d="m 142.3159,126.2859 c 0,0 -1.1781,1.9622 -1.2699,2.116 -0.1556,-0.0939 -3.5809,-2.1535 -3.5809,-2.1535 l -0.6526,1.0861 4.5355,2.7292 1.9771,-3.2824 -0.9586,-0.576 z"
         style="fill:#1b1918;fill-rule:evenodd"
         id="path41" />
      <path
         d="m 144.1597,122.2326 c -0.1427,-0.0543 -0.9174,-0.3395 -1.0597,-0.392 0.0617,-0.1689 0.874,-2.3559 0.874,-2.3559 l -1.0259,-0.3807 c 0,0 -0.8123,2.1888 -0.8743,2.354 -0.1349,-0.0489 -0.692,-0.2551 -0.8272,-0.3056 0.0638,-0.1672 0.953,-2.5643 0.953,-2.5643 l -1.028,-0.3789 -0.0338,0.0902 -1.3505,3.6426 4.9652,1.8419 1.4273,-3.849 -1.028,-0.3808 c 0,0 -0.9302,2.5098 -0.9921,2.6785 z"
         style="fill:#1b1918;fill-rule:evenodd"
         id="path42" />
      <path
         d="m 147.446,112.1226 c -0.0809,0.1444 -0.1934,0.137 -0.9322,0.0205 -0.8368,-0.1349 -1.1255,0 -1.3732,0.3301 -0.1537,-0.4538 -0.5478,-0.784 -1.0916,-0.8702 -0.1482,-0.0227 -0.6716,-0.075 -1.1366,0.2626 -0.3453,0.2515 -0.5664,0.6527 -0.6529,1.193 l -0.4257,2.6672 5.2275,0.8365 0.1972,-1.2342 c 0,0 -1.7988,-0.2849 -1.9715,-0.3151 0.0263,-0.1574 0.1612,-1.0017 0.1612,-1.0017 0.1126,-0.7053 0.3076,-0.7053 0.9753,-0.5983 0.5404,0.0865 0.816,0.0827 1.0656,0.0508 l 0.0695,-0.0115 0.2155,-1.3409 -0.2964,-0.0471 z m -4.3556,2.5417 c 0.0263,-0.1653 0.1972,-1.2306 0.1972,-1.2306 0.0861,-0.5363 0.4107,-0.6002 0.6675,-0.5608 0.3491,0.0561 0.501,0.2195 0.501,0.5608 0,0.077 -0.007,0.165 -0.0245,0.2626 0,0 -0.1575,0.9903 -0.1839,1.1518 -0.15,-0.0245 -1.0054,-0.1615 -1.1573,-0.1838 z"
         style="fill:#1b1918;fill-rule:evenodd"
         id="path43" />
      <path
         d="m 146.8437,106.7778 v 0.0956 c 0,0 -0.0562,2.5809 -0.0599,2.7608 -0.1519,-0.004 -0.9772,-0.0213 -1.1291,-0.025 0.004,-0.1775 0.0524,-2.5116 0.0524,-2.5116 l -1.0935,-0.0225 c 0,0 -0.0506,2.3334 -0.0543,2.5114 -0.1426,-0.004 -0.7354,-0.0167 -0.8799,-0.0197 0.004,-0.178 0.0583,-2.7337 0.0583,-2.7337 l -1.0956,-0.0234 -0.0844,3.9792 5.2933,0.1162 0.0883,-4.1039 z"
         style="fill:#1b1918;fill-rule:evenodd"
         id="path44" />
      <path
         d="m 144.6848,103.5178 1.0449,-0.1247 c 0,0 -0.1126,-0.9509 -0.1389,-1.1563 0.8758,0.1406 1.0318,0.7943 1.0579,1.0006 0.007,0.0741 0.0133,0.151 0.0133,0.2279 0,0.5842 -0.2927,1.2201 -1.495,1.3636 -0.5965,0.0704 -1.0879,-0.031 -1.4219,-0.2935 -0.2625,-0.2073 -0.4237,-0.5102 -0.4671,-0.8749 -0.0468,-0.3819 0.0976,-0.6556 0.2269,-0.8179 0.1597,-0.2045 0.3339,-0.287 0.3885,-0.2936 l 0.0955,-0.0112 -0.1501,-1.268 -0.1011,0.0206 c -0.6153,0.1239 -1.7256,0.8178 -1.5194,2.5529 0.0861,0.7362 0.3978,1.3373 0.9003,1.7359 0.5608,0.4437 1.3375,0.6322 2.1851,0.5317 1.7408,-0.2064 2.4778,-1.3411 2.4778,-2.4664 0,-0.1023 -0.007,-0.2054 -0.0186,-0.3077 -0.0995,-0.8337 -0.5026,-1.2153 -0.8364,-1.4574 0.1838,-0.0534 0.51,-0.1491 0.51,-0.1491 l -0.1051,-0.8891 -0.0974,0.0122 -2.8266,0.3358 z"
         style="fill:#1b1918;fill-rule:evenodd"
         id="path45" />
      <path
         d="m 141.5542,99.4748 5.6104,0.438 -0.3526,-1.2915 c 0,0 -0.9887,-0.0618 -1.1087,-0.0685 -0.0337,-0.1191 -0.4352,-1.5793 -0.4688,-1.7002 0.1049,-0.0676 0.9283,-0.5965 0.9283,-0.5965 l -0.3636,-1.328 -0.1108,0.0777 -4.4979,3.141 z m 1.3055,-1.0598 c 0.3227,-0.2101 1.268,-0.8216 1.437,-0.9293 0.0486,0.1818 0.227,0.829 0.2775,1.0128 -0.2006,-0.0094 -1.3279,-0.0648 -1.7145,-0.0835 z"
         style="fill:#1b1918;fill-rule:evenodd"
         id="path46" />
      <path
         d="m 140.2676,92.6341 -1.013,0.4201 1.6826,4.0487 1.011,-0.4191 c 0,0 -0.5327,-1.2831 -0.5964,-1.4388 0.1689,-0.0704 3.8788,-1.6103 3.8788,-1.6103 l -0.4878,-1.1732 -0.0899,0.0376 c 0,0 -3.6199,1.5033 -3.7889,1.5736 -0.0638,-0.1557 -0.5964,-1.4386 -0.5964,-1.4386 z"
         style="fill:#1b1918;fill-rule:evenodd"
         id="path47" />
      <path
         d="m 138.7201,92.0695 5.5559,-0.8947 -0.6471,-1.1723 c 0,0 -0.9754,0.1744 -1.0953,0.196 -0.0602,-0.1079 -0.7918,-1.433 -0.8517,-1.5437 0.0843,-0.0892 0.7596,-0.7982 0.7596,-0.7982 l -0.666,-1.2041 -0.0899,0.1012 -3.6314,4.1107 z m 1.0204,-1.3375 c 0.2663,-0.2802 1.0392,-1.0962 1.1759,-1.2407 0.0921,0.1651 0.4167,0.7521 0.5085,0.9181 -0.1969,0.0385 -1.3037,0.2506 -1.6844,0.3226 z"
         style="fill:#1b1918;fill-rule:evenodd"
         id="path48" />
      <path
         d="m 138.2982,88.2581 c 0.9527,-0.7297 0.5832,-1.541 0.225,-2.3268 l -0.2346,-0.5177 c -0.2456,-0.5468 -0.3358,-0.8244 -0.0937,-1.0093 0.1107,-0.0843 0.2233,-0.118 0.3432,-0.1012 0.2121,0.0281 0.454,0.2138 0.7016,0.5364 0.5159,0.6744 0.2363,1.0627 0.0243,1.2352 l -0.0732,0.0582 0.7428,0.9716 0.0769,-0.0582 c 0.2195,-0.1669 0.5965,-0.5336 0.6734,-1.1104 0.0713,-0.5515 -0.1426,-1.161 -0.6415,-1.811 -0.1537,-0.2035 -0.7202,-0.874 -1.4894,-0.9764 -0.4145,-0.0553 -0.8212,0.0668 -1.2041,0.3602 -0.7841,0.5993 -0.5907,1.3581 -0.3001,2.0211 l 0.5214,1.1817 c 0.107,0.2336 0.1802,0.4567 -0.0598,0.6424 -0.3904,0.2983 -0.816,-0.2165 -0.8967,-0.3226 -0.5326,-0.6931 -0.1875,-1.0326 -0.0412,-1.1779 l 0.0599,-0.0591 -0.7389,-0.965 -0.075,0.06 c -0.5103,0.3985 -1.1068,1.4237 -0.1051,2.7311 1.1704,1.5305 2.2732,0.8749 2.5848,0.6377 z"
         style="fill:#1b1918;fill-rule:evenodd"
         id="path49" />
    </g>
  </g>
</svg>
