<?xml version="1.0" encoding="UTF-8" standalone="no"?>
<svg
   version="1.1"
   width="1.4298416in"
   height="1.4298015in"
   viewBox="0 0 102.9486 102.94571"
   id="svg43"
   sodipodi:docname="PALMEI~1.cdr"
   xmlns:inkscape="http://www.inkscape.org/namespaces/inkscape"
   xmlns:sodipodi="http://sodipodi.sourceforge.net/DTD/sodipodi-0.dtd"
   xmlns="http://www.w3.org/2000/svg"
   xmlns:svg="http://www.w3.org/2000/svg">
  <defs
     id="defs43" />
  <sodipodi:namedview
     id="namedview43"
     pagecolor="#ffffff"
     bordercolor="#000000"
     borderopacity="0.25"
     inkscape:showpageshadow="2"
     inkscape:pageopacity="0.0"
     inkscape:pagecheckerboard="0"
     inkscape:deskcolor="#d1d1d1"
     inkscape:document-units="in"
     showgrid="false" />
  <g
     id="Layer1003"
     transform="translate(-56.5257,-56.527199)">
    <path
       d="m 108.0004,159.4729 c 28.3505,0 51.4739,-23.1222 51.4739,-51.4728 0,-28.3499 -23.1234,-51.4729 -51.4739,-51.4729 -28.3513,0 -51.4747,23.123 -51.4747,51.4729 0,28.3506 23.1234,51.4728 51.4747,51.4728 z"
       style="fill:#006e39;fill-rule:evenodd"
       id="path10" />
    <path
       d="m 107.9853,116.9967 c 14.3837,0 26.1155,-11.7314 26.1155,-26.1151 0,-14.3835 -11.7318,-26.1144 -26.1155,-26.1144 -14.3838,0 -26.1155,11.7309 -26.1155,26.1144 0,14.3837 11.7317,26.1151 26.1155,26.1151 z"
       style="fill:#ffffff;fill-rule:evenodd"
       id="path11" />
    <path
       d="m 107.9853,115.5791 c 13.6025,0 24.6968,-11.0944 24.6968,-24.6975 0,-13.6025 -11.0943,-24.6972 -24.6968,-24.6972 -13.603,0 -24.6972,11.0947 -24.6972,24.6972 0,13.6031 11.0942,24.6975 24.6972,24.6975 z"
       style="fill:#ffffff;fill-rule:evenodd"
       id="path12" />
    <path
       d="m 107.9853,115.5791 c 13.6025,0 24.6968,-11.0944 24.6968,-24.6975 0,-13.6025 -11.0943,-24.6972 -24.6968,-24.6972 -13.603,0 -24.6972,11.0947 -24.6972,24.6972 0,13.6031 11.0942,24.6975 24.6972,24.6975 z"
       style="fill:none;stroke:#006e39;stroke-width:0.7183;stroke-linecap:butt;stroke-linejoin:round;stroke-dasharray:none"
       id="path13" />
    <path
       d="m 108.0004,157.2714 c 27.1378,0 49.2722,-22.1334 49.2722,-49.2713 0,-27.1372 -22.1344,-49.2707 -49.2722,-49.2707 -27.1385,0 -49.273,22.1335 -49.273,49.2707 0,27.1379 22.1345,49.2713 49.273,49.2713 z"
       style="fill:none;stroke:#ffffff;stroke-width:1.0242;stroke-linecap:butt;stroke-linejoin:miter;stroke-dasharray:none"
       id="path14" />
    <path
       d="M 108,115.5676 C 92.5762,104.8314 86.8144,85.6197 88.4436,75.8068 98.2373,74.7421 105.3756,68.6809 108,66.201 c 2.6244,2.4873 9.7624,8.5489 19.5563,9.6132 1.6295,9.8127 -4.1324,29.0245 -19.5563,39.7534 z"
       style="fill:#ffffff;fill-rule:evenodd"
       id="path15" />
    <path
       d="M 108,115.5676 C 92.5762,104.8314 86.8144,85.6197 88.4436,75.8068 98.2373,74.7421 105.3756,68.6809 108,66.201 c 2.6244,2.4873 9.7624,8.5489 19.5563,9.6132 1.6295,9.8127 -4.1324,29.0245 -19.5563,39.7534 z"
       style="fill:none;stroke:#006e39;stroke-width:0.7183;stroke-linecap:butt;stroke-linejoin:round;stroke-dasharray:none"
       id="path16" />
    <path
       d="m 81.6764,73.0457 -0.6248,1.3898 1.1368,1.0237 -1.5289,-0.1649 -0.6069,1.399 -0.3385,-1.4874 -1.4955,-0.1636 1.3113,-0.7532 -0.3191,-1.5178 1.1486,1.0354 z"
       style="fill:#ffffff;fill-rule:evenodd"
       id="path17" />
    <path
       d="m 78.2214,77.1551 -0.5369,1.8487 1.602,1.0809 -1.942,0.0624 -0.5131,1.8566 -0.6849,-1.8009 -1.8998,0.0581 1.5082,-1.1726 -0.6662,-1.8429 1.6187,1.0941 z"
       style="fill:#ffffff;fill-rule:evenodd"
       id="path18" />
    <path
       d="m 74.5719,83.123 -0.0497,2.3488 2.2302,0.7683 -2.2692,0.6873 -0.019,2.3511 -1.376,-1.9073 -2.2216,0.6688 1.4078,-1.8585 -1.3675,-1.9625 2.2541,0.7783 z"
       style="fill:#ffffff;fill-rule:evenodd"
       id="path19" />
    <path
       d="m 71.9654,90.5786 0.587,3.3976 3.4289,0.4823 -3.0779,1.6262 0.6316,3.3928 -2.5176,-2.3628 -3.0132,1.5856 1.5075,-3.0721 -2.5199,-2.4443 3.4656,0.4901 z"
       style="fill:#ffffff;fill-rule:evenodd"
       id="path20" />
    <path
       d="m 134.3239,73.0457 0.6243,1.3898 -1.1364,1.0237 1.5285,-0.1649 0.6077,1.399 0.3378,-1.4874 1.4954,-0.1636 -1.3113,-0.7532 0.3193,-1.5178 -1.1482,1.0354 z"
       style="fill:#ffffff;fill-rule:evenodd"
       id="path21" />
    <path
       d="m 137.7787,77.1551 0.537,1.8487 -1.6022,1.0809 1.9419,0.0624 0.5132,1.8566 0.6848,-1.8009 1.9001,0.0581 -1.5085,-1.1726 0.6663,-1.8429 -1.6188,1.0941 z"
       style="fill:#ffffff;fill-rule:evenodd"
       id="path22" />
    <path
       d="m 141.4283,83.123 0.0493,2.3488 -2.2304,0.7683 2.27,0.6873 0.0191,2.3511 1.3756,-1.9073 2.2217,0.6688 -1.4079,-1.8585 1.3674,-1.9625 -2.2534,0.7783 z"
       style="fill:#ffffff;fill-rule:evenodd"
       id="path23" />
    <path
       d="m 144.0342,90.5786 -0.5864,3.3976 -3.4289,0.4823 3.0775,1.6262 -0.6312,3.3928 2.5176,-2.3628 3.0129,1.5856 -1.5075,-3.0721 2.5205,-2.4443 -3.4655,0.4901 z"
       style="fill:#ffffff;fill-rule:evenodd"
       id="path24" />
    <path
       d="m 90.9888,115.0981 c -0.1024,-0.0823 -0.3133,-0.0648 -0.392,0.0399 v 0 l -16.3585,21.6665 v 0 c -0.1989,0.2639 -0.148,0.6471 0.0744,0.8917 2.7907,3.0719 5.6497,5.6565 9.0006,8.022 0.2074,0.1464 0.5792,0.4392 0.7587,0.0182 v 0 l 1.7448,-4.0937 v 0 c 0.0954,-0.2229 0.0191,-0.5689 -0.1816,-0.7046 -1.7261,-1.1684 -3.239,-2.5404 -4.6977,-3.9307 -0.223,-0.2127 -0.1911,-0.7267 -0.0161,-0.9809 v 0 l 12.8907,-18.706 v 0 c 0.0595,-0.0861 -0.0283,-0.235 -0.1164,-0.2914 -0.9547,-0.612 -1.8643,-1.2514 -2.7069,-1.931 z"
       style="fill:#ffffff;fill-rule:evenodd"
       id="path25" />
    <path
       d="m 65.8482,123.1844 c -0.0573,-0.1778 0.1242,-0.3843 0.2818,-0.4839 v 0 l 19.7177,-12.4778 v 0 c 0.1059,-0.0669 0.2974,-0.0155 0.3671,0.0669 0.5829,0.6895 1.1678,1.3744 1.764,2.0524 0.1002,0.1139 0.193,0.3115 0.1139,0.4411 v 0 l -14.437,23.6426 v 0 c -0.0951,0.1556 -0.4264,0.0515 -0.5392,-0.0916 -0.59,-0.7485 -1.1554,-1.4899 -1.6809,-2.285 -0.0988,-0.1489 -0.0456,-0.3824 0.0489,-0.5342 v 0 l 3.3599,-5.4021 v 0 c 0.1908,-0.3065 0.1947,-0.4762 0.0723,-0.8109 -0.5557,-1.5179 -1.0785,-3.0358 -1.5541,-4.5533 -0.0491,-0.1568 -0.3471,-0.1874 -0.4838,-0.0963 v 0 l -5.3883,3.5917 v 0 c -0.1394,0.0931 -0.4328,0.0649 -0.4956,-0.0909 -0.3847,-0.9572 -0.8222,-1.9616 -1.1467,-2.9687 z"
       style="fill:#ffffff;fill-rule:evenodd"
       id="path26" />
    <path
       d="m 81.9801,116.6397 -4.3879,7.0553 v 0 c -0.1479,0.2377 -0.3467,0.0919 -0.43,-0.1169 -0.3449,-0.862 -0.6762,-1.7788 -0.9544,-2.788 -0.0416,-0.1505 0.0061,-0.3616 0.1362,-0.4475 v 0 l 5.6098,-3.7404 v 0 c 0.0379,-0.0255 0.0566,-0.0111 0.0263,0.0375 z"
       style="fill:#006e39;fill-rule:evenodd"
       id="path27" />
    <path
       d="m 74.5842,115.6929 c -1.5016,-1.918 -2.8414,-4.0684 -4.0836,-6.4436 -0.1162,-0.2217 -0.3177,-0.2192 -0.4762,-0.164 v 0 l -6.2498,2.1603 v 0 c -0.3868,0.1335 -0.4477,-0.1017 -0.4619,-0.2812 -0.1175,-1.4691 -0.0942,-2.9326 -0.0822,-4.4059 0.0029,-0.3339 0.1695,-0.4589 0.3711,-0.4989 v 0 l 17.9261,-3.553 v 0 c 0.1972,-0.0395 0.359,0.0571 0.4059,0.1753 0.8743,2.1802 1.8913,4.0123 3.1381,6.0056 0.0743,0.1186 -0.0151,0.3733 -0.1017,0.4339 v 0 l -9.7783,6.678 v 0 c -0.215,0.1543 -0.4198,0.1334 -0.6075,-0.1065 z"
       style="fill:#ffffff;fill-rule:evenodd"
       id="path28" />
    <path
       d="m 106.2039,153.2802 c 0.2144,0.009 0.2266,-0.1642 0.2275,-0.2935 v 0 l 0.2275,-31.6883 v 0 c 6e-4,-0.1032 -0.14,-0.1846 -0.2431,-0.1917 -0.783,-0.0516 -1.5813,-0.133 -2.398,-0.2495 -0.1181,-0.0167 -0.2707,0.0555 -0.3184,0.1647 v 0 l -3.8276,8.8172 v 0 c -0.0849,0.1947 -0.1838,0.1809 -0.1904,-0.0289 v 0 l -0.3162,-9.903 v 0 c -0.0039,-0.1197 -0.0438,-0.1901 -0.1203,-0.2178 -0.9262,-0.3361 -1.8394,-0.7108 -2.7365,-1.1274 -0.0861,-0.0395 -0.2203,-0.0518 -0.2748,0.0788 v 0 l -11.517,27.6837 v 0 c -0.052,0.1244 0.005,0.3157 0.1194,0.3874 1.1039,0.6949 2.2358,1.3346 3.3953,1.9197 0.1485,0.075 0.4037,0.1621 0.492,-0.0863 v 0 l 7.048,-19.7984 v 0 c 0.0881,-0.247 0.1401,-0.2592 0.1451,0.0214 v 0 l 0.2988,16.7942 v 0 c 0.0162,0.9101 0.0856,0.888 0.4499,0.0769 v 0 l 6.7089,-14.9447 v 0 c 0.0988,-0.2211 0.1462,-0.1923 0.1287,0.0262 v 0 l -1.7625,21.8446 v 0 c -0.0125,0.1526 0.1478,0.3278 0.2992,0.349 1.3872,0.195 2.7764,0.3093 4.1645,0.3657 z"
       style="fill:#ffffff;fill-rule:evenodd"
       id="path29" />
    <path
       d="m 117.7674,123.1063 c -1.4611,0.4459 -3.0174,0.8612 -5.1815,1.2329 -0.1352,0.0232 -0.253,0.1931 -0.2495,0.3304 v 0 l 0.1885,8.3029 v 0 c 0.003,0.1614 0.1079,0.3573 0.3656,0.3184 2.0542,-0.3068 4.1085,-0.685 6.1628,-1.1411 0.2562,-0.057 0.3856,0.004 0.4476,0.3966 v 0 l 0.516,3.2702 v 0 c 0.0254,0.1605 0.0508,0.4035 -0.1929,0.463 -2.2431,0.5447 -4.5102,0.9947 -6.8041,1.3407 -0.1806,0.0269 -0.3871,0.1006 -0.3809,0.396 v 0 l 0.1964,8.6596 v 0 c 0.01,0.4378 0.2874,0.6754 0.5292,0.6566 2.6014,-0.2026 5.2346,-0.9057 7.7937,-1.5435 0.1767,-0.0439 0.4174,-0.1052 0.4759,0.268 v 0 l 0.7089,4.4859 v 0 c 0.0414,0.2643 -0.1861,0.4801 -0.4766,0.565 -4.3256,1.3279 -8.4009,2.1236 -13.0942,2.2125 -0.3413,0.0145 -0.6126,-0.0921 -0.6107,-0.3972 v 0 l 0.224,-31.4619 v 0 c 0.001,-0.1895 0.294,-0.2873 0.4823,-0.2995 3.0282,-0.1991 5.5355,-0.6028 8.1657,-1.5795 0.3003,-0.1116 0.4053,-0.0898 0.4262,0.0404 v 0 l 0.5043,3.1962 v 0 c 0.0299,0.1871 -0.0474,0.2456 -0.1967,0.2874 z"
       style="fill:#ffffff;fill-rule:evenodd"
       id="path30" />
    <path
       d="m 124.432,150.1502 c -0.103,0.0412 -0.2758,0.0285 -0.3032,-0.1214 v 0 l -5.6726,-30.8951 v 0 c -0.0155,-0.0846 0.02,-0.1143 0.1098,-0.1542 0.8534,-0.3776 1.7111,-0.8035 2.5332,-1.2433 0.081,-0.0429 0.225,-0.0811 0.2557,0.0339 v 0 l 7.8505,29.7441 v 0 c 0.0624,0.2363 0.0317,0.3617 -0.1006,0.433 -1.5027,0.8117 -3.0189,1.5317 -4.6728,2.203 z"
       style="fill:#ffffff;fill-rule:evenodd"
       id="path31" />
    <path
       d="m 141.5699,137.9164 c -0.0879,0.1018 -0.2641,0.2207 -0.4013,0.0545 v 0 l -8.6901,-10.5506 v 0 c -0.077,-0.0932 -0.2211,-0.1991 -0.3451,-0.1101 v 0 l -1.5085,1.0777 v 0 c -0.1454,0.1034 -0.2958,0.2247 -0.1923,0.4998 v 0 l 5.3841,14.2992 v 0 c 0.063,0.1676 -0.008,0.2812 -0.1054,0.3588 -1.405,1.1245 -2.8216,2.1178 -4.3506,3.084 -0.0888,0.0561 -0.2607,0.1374 -0.31,-0.0339 v 0 l -8.6046,-29.5076 0.1503,-0.2483 v 0 c 2.2423,-1.4645 3.9547,-2.836 5.7292,-4.8298 0.6377,-0.7164 1.3967,-0.2293 1.6979,0.2708 v 0 l 5.7254,9.5003 v 0 c 0.5218,0.8656 0.516,2.101 -0.1381,2.8721 v 0 l -0.2555,0.3007 8.6653,9.3955 v 0 c 0.1742,0.1892 0.1279,0.3356 0.034,0.4612 -0.78,1.0511 -1.6085,2.0862 -2.4847,3.1057 z"
       style="fill:#ffffff;fill-rule:evenodd"
       id="path32" />
    <path
       d="m 130.8847,122.7467 -2.0328,1.4521 v 0 c -0.0957,0.0687 -0.1816,0.008 -0.2065,-0.0582 v 0 l -1.9521,-5.1847 v 0 c -0.023,-0.0605 -0.0182,-0.1513 0.0409,-0.1911 0.5292,-0.362 1.0437,-0.8069 1.5798,-1.148 0.1684,-0.1071 0.286,-0.0624 0.3714,0.1194 v 0 l 2.3467,4.6458 v 0 c 0.0864,0.1709 -0.0308,0.2815 -0.1474,0.3647 z"
       style="fill:#006e39;fill-rule:evenodd"
       id="path33" />
    <path
       d="m 151.0757,120.3712 c 0.0303,-0.1038 -0.0298,-0.2338 -0.1206,-0.2922 v 0 l -19.1799,-12.3899 v 0 c -0.0933,-0.0605 -0.192,0.003 -0.2358,0.0722 -0.5419,0.8656 -1.0916,1.6344 -1.7019,2.4287 -0.0629,0.0821 -0.0732,0.1846 0.004,0.3119 v 0 l 14.3446,23.8065 v 0 c 0.0707,0.118 0.1796,0.061 0.224,-0.001 0.6244,-0.8762 1.1995,-1.7789 1.7638,-2.6869 0.0552,-0.0882 0.0533,-0.1971 -0.0156,-0.3122 v 0 l -3.244,-5.3837 v 0 c -0.0639,-0.1059 -0.1044,-0.2517 -0.0591,-0.3667 v 0 l 1.945,-4.9401 v 0 c 0.039,-0.1064 0.2045,-0.1038 0.2837,-0.0497 v 0 l 4.6732,3.1835 v 0 c 0.1441,0.0977 0.2246,-0.0223 0.2557,-0.1106 0.3907,-1.0901 0.749,-2.1796 1.0634,-3.2694 z"
       style="fill:#ffffff;fill-rule:evenodd"
       id="path34" />
    <path
       d="m 141.7344,118.5721 c -0.268,0.9644 -0.9764,2.6423 -1.1193,2.9661 -0.1422,0.3228 -0.2965,0.0792 -0.3579,-0.0232 v 0 l -4.1255,-6.847 v 0 c -0.131,-0.217 -0.0894,-0.2593 0.1278,-0.1108 v 0 l 5.2718,3.5911 v 0 c 0.1299,0.088 0.2533,0.241 0.2031,0.4238 z"
       style="fill:#006e39;fill-rule:evenodd"
       id="path35" />
    <path
       d="m 149.1141,109.9357 c -0.2078,1.027 -0.4691,2.0004 -0.7756,2.9296 -0.0313,0.0965 -0.1089,0.2696 -0.293,0.1713 v 0 l -0.702,-0.3714 v 0 c -0.0932,-0.0495 -0.2508,0.0272 -0.2904,0.1244 v 0 l -1.0862,2.6275 v 0 c -0.0664,0.162 -0.0546,0.3231 0.1924,0.4894 v 0 l 4.7236,3.1684 v 0 c 0.1757,0.1182 0.4979,0.1362 0.5871,-0.2415 0.911,-3.8524 1.3285,-7.6136 1.3152,-11.5602 -4e-4,-0.1465 -0.0726,-0.3252 -0.2743,-0.3955 v 0 l -7.8601,-2.7508 v 0 c -0.3007,-0.1055 -0.7938,-0.0757 -0.9886,0.3119 -0.6835,1.3557 -1.3424,2.4405 -1.9502,3.409 -0.0991,0.1576 -0.2696,0.3461 -0.5566,0.203 v 0 l -3.836,-1.9073 v 0 c -0.1641,-0.0815 -0.3022,-0.2045 -0.1792,-0.4823 v 0 l 0.6029,-1.3654 v 0 c 0.0893,-0.2026 0.3173,-0.1444 0.449,-0.0928 v 0 l 1.3494,0.5302 v 0 c 0.1259,0.0488 0.2871,0.0644 0.3729,-0.1616 v 0 l 0.6186,-1.6315 v 0 c 0.0542,-0.1425 -0.1441,-0.3051 -0.288,-0.3554 v 0 l -5.1454,-1.8008 v 0 c -0.1943,-0.0678 -0.3637,0.0873 -0.4131,0.2348 -0.5896,1.7559 -1.2951,3.406 -2.2016,5.0564 -0.1723,0.3135 -0.0127,0.5697 0.1587,0.686 v 0 l 9.7465,6.6158 v 0 c 0.1918,0.1302 0.4725,0.1203 0.6672,-0.1952 0.9726,-1.5766 1.903,-3.1528 2.7768,-4.7291 0.0679,-0.121 0.1703,-0.1983 0.4052,-0.0971 v 0 l 2.7035,1.1642 v 0 c 0.1371,0.0591 0.2173,0.19 0.1713,0.416 z"
       style="fill:#ffffff;fill-rule:evenodd"
       id="path36" />
    <path
       d="m 108,113.7817 c 13.7655,-9.7296 19.359,-27.61 18.4936,-36.853 -9.0909,-0.9882 -16.4643,-6.8804 -18.4936,-8.9454 -2.0294,2.0576 -9.4029,7.9499 -18.4934,8.9381 -0.8655,9.2425 4.7277,27.1234 18.4934,36.8603 z"
       style="fill:#ffffff;fill-rule:evenodd"
       id="path37" />
    <path
       d="m 108,113.7817 c 13.7655,-9.7296 19.359,-27.61 18.4936,-36.853 -9.0909,-0.9882 -16.4643,-6.8804 -18.4936,-8.9454 -2.0294,2.0576 -9.4029,7.9499 -18.4934,8.9381 -0.8655,9.2425 4.7277,27.1234 18.4934,36.8603 z"
       style="fill:none;stroke:#006e39;stroke-width:0.7183;stroke-linecap:butt;stroke-linejoin:round;stroke-dasharray:none"
       id="path38" />
    <path
       d="m 104.0571,71.1798 h 7.8776 z m -4.8883,2.853 h 17.6477 z m -9.5396,2.8739 h 36.6788 z m -0.1916,2.8953 h 37.1248 z m 0.2428,2.8724 h 36.6398 z m 0.4797,2.854 h 35.6807 z m 0.6923,2.8729 h 34.2967 z m 0.8905,2.8733 h 32.5162 z m 1.09,2.8735 h 30.3362 z m 1.2963,2.8749 h 27.7443 z m 1.5231,2.8733 h 24.6986 z m 1.7773,2.8729 h 21.1438 z m 2.0756,2.8608 h 16.9919 z m 2.4647,2.8729 h 12.0625 z m 2.975,2.8748 h 6.1115 z"
       style="fill:#ffffff;fill-rule:evenodd"
       id="path39" />
    <path
       d="m 104.0571,71.1798 h 7.8776 z m -4.8883,2.853 h 17.6477 z m -9.5396,2.8739 h 36.6788 z m -0.1916,2.8953 h 37.1248 z m 0.2428,2.8724 h 36.6398 z m 0.4797,2.854 h 35.6807 z m 0.6923,2.8729 h 34.2967 z m 0.8905,2.8733 h 32.5162 z m 1.09,2.8735 h 30.3362 z m 1.2963,2.8749 h 27.7443 z m 1.5231,2.8733 h 24.6986 z m 1.7773,2.8729 h 21.1438 z m 2.0756,2.8608 h 16.9919 z m 2.4647,2.8729 h 12.0625 z m 2.975,2.8748 h 6.1115 z"
       style="fill:none;stroke:#006e39;stroke-width:0.7183;stroke-linecap:butt;stroke-linejoin:round;stroke-dasharray:none"
       id="path40" />
    <path
       d="m 98.8798,102.6614 c 3.0934,0.2768 3.1596,-2.1543 3.1596,-2.4623 V 88.0488 c 0,-0.4379 -0.471,-1.0852 -1.41,-1.2991 0.9291,-0.1957 1.41,-0.7376 1.41,-1.2047 v 0 l -0.004,-7.4183 v 0 c 0,-1.5047 -1.7745,-2.2003 -3.0942,-1.5774 1.6132,-3.5198 4.1052,-1.6109 5.2532,-0.8386 2.0184,-2.0997 4.9172,-2.7266 6.7673,-2.7227 4.8795,0.0108 8.9641,4.3038 8.9587,9.1134 -0.004,4.0249 -3.9446,9.2138 -8.8293,9.3055 -2.1806,0.0411 -4.3974,-1.13 -4.3999,-3.1487 -0.002,-1.7194 0.8983,-3.2171 3.077,-3.0545 1.444,0.108 1.8741,0.8446 1.8741,1.6427 6e-4,0.7865 -0.4994,1.4767 -1.2584,1.4504 -0.2969,-0.0108 -0.6132,-0.0708 -0.9852,-0.3681 0.0371,0.3447 0.6229,1.1769 1.7584,1.2014 1.7276,0.0371 3.9058,-1.5689 4.2569,-3.2313 0.2646,-1.2536 -0.5,-2.0527 -0.5214,-3.2376 -0.0313,-1.7593 1.2849,-2.044 0.6039,-3.9219 -0.682,-1.877 -2.2266,-3.3963 -4.9511,-3.4241 -1.8975,-0.02 -4.5752,1.9507 -4.5752,3.8053 v 26.0604 c -1.4677,-0.3588 -2.3332,-1.4167 -2.5342,-2.377 -1.169,1.2009 -2.5156,1.7227 -4.5566,-0.1425 z"
       style="fill:#ffffff;fill-rule:evenodd"
       id="path41" />
    <path
       d="m 98.8798,102.6614 c 3.0934,0.2768 3.1596,-2.1543 3.1596,-2.4623 V 88.0488 c 0,-0.4379 -0.471,-1.0852 -1.41,-1.2991 0.9291,-0.1957 1.41,-0.7376 1.41,-1.2047 v 0 l -0.004,-7.4183 v 0 c 0,-1.5047 -1.7745,-2.2003 -3.0942,-1.5774 1.6132,-3.5198 4.1052,-1.6109 5.2532,-0.8386 2.0184,-2.0997 4.9172,-2.7266 6.7673,-2.7227 4.8795,0.0108 8.9641,4.3038 8.9587,9.1134 -0.004,4.0249 -3.9446,9.2138 -8.8293,9.3055 -2.1806,0.0411 -4.3974,-1.13 -4.3999,-3.1487 -0.002,-1.7194 0.8983,-3.2171 3.077,-3.0545 1.444,0.108 1.8741,0.8446 1.8741,1.6427 6e-4,0.7865 -0.4994,1.4767 -1.2584,1.4504 -0.2969,-0.0108 -0.6132,-0.0708 -0.9852,-0.3681 0.0371,0.3447 0.6229,1.1769 1.7584,1.2014 1.7276,0.0371 3.9058,-1.5689 4.2569,-3.2313 0.2646,-1.2536 -0.5,-2.0527 -0.5214,-3.2376 -0.0313,-1.7593 1.2849,-2.044 0.6039,-3.9219 -0.682,-1.877 -2.2266,-3.3963 -4.9511,-3.4241 -1.8975,-0.02 -4.5752,1.9507 -4.5752,3.8053 v 26.0604 c -1.4677,-0.3588 -2.3332,-1.4167 -2.5342,-2.377 -1.169,1.2009 -2.5156,1.7227 -4.5566,-0.1425 z"
       style="fill:none;stroke:#006e39;stroke-width:0.7183;stroke-linecap:butt;stroke-linejoin:round;stroke-dasharray:none"
       id="path42" />
    <path
       d="m 80.3031,108.7084 -3.9143,2.6396 v 0 c -0.1296,0.0873 -0.3628,0.0263 -0.4588,-0.0966 -0.8022,-1.0237 -1.49,-2.1046 -2.0636,-3.2425 -0.0491,-0.0982 -0.0556,-0.2329 0.1373,-0.2994 v 0 l 4.618,-1.5958 v 0 c 0.0517,-0.018 0.1189,-0.0287 0.1518,0.0245 0.4924,0.8152 1.0077,1.63 1.555,2.4442 0.0237,0.0357 0.0101,0.102 -0.0254,0.126 z"
       style="fill:#006e39;fill-rule:evenodd"
       id="path43" />
  </g>
</svg>
