<?xml version="1.0" encoding="UTF-8" standalone="no"?>
<svg
   version="1.1"
   width="1.2179821in"
   height="1.2137828in"
   viewBox="0 0 87.694708 87.392361"
   id="svg20"
   sodipodi:docname="parana.cdr"
   xmlns:inkscape="http://www.inkscape.org/namespaces/inkscape"
   xmlns:sodipodi="http://sodipodi.sourceforge.net/DTD/sodipodi-0.dtd"
   xmlns="http://www.w3.org/2000/svg"
   xmlns:svg="http://www.w3.org/2000/svg">
  <defs
     id="defs20" />
  <sodipodi:namedview
     id="namedview20"
     pagecolor="#ffffff"
     bordercolor="#000000"
     borderopacity="0.25"
     inkscape:showpageshadow="2"
     inkscape:pageopacity="0.0"
     inkscape:pagecheckerboard="0"
     inkscape:deskcolor="#d1d1d1"
     inkscape:document-units="in" />
  <g
     id="Layer1003"
     style="display:inline;stroke:none;stroke-opacity:1"
     transform="matrix(1,0,0,0.63968272,-64.152596,-25.389455)">
    <path
       d="m 151.8473,39.6907 v 33.1792 c -4.7169,0 -8.5408,3.8239 -8.5408,8.541 0,4.7171 3.8239,8.5409 8.5408,8.5409 v 55.7825 c 0,9.523 -10.7802,20.3746 -20.2373,20.3746 h -11.7373 c -2.6368,0 -8.3575,1.7568 -11.126,8.4068 l -0.7466,1.7933 -0.7466,-1.7933 c -2.7689,-6.65 -8.4893,-8.4068 -11.1261,-8.4068 H 84.3901 c -9.4572,0 -20.2375,-10.8516 -20.2375,-20.3746 V 89.9518 c 4.7171,0 8.5409,-3.8238 8.5409,-8.5409 0,-4.7171 -3.8238,-8.541 -8.5409,-8.541 V 39.6907 Z"
       style="display:inline;fill:#4343ff;fill-opacity:1;fill-rule:evenodd;stroke:none;stroke-opacity:1"
       id="path10" />
    <path
       d="m 150.2296,41.3084 c 0,0.1872 0,13.291 0,30.1551 -4.7966,0.7742 -8.4607,4.9321 -8.4607,9.9474 0,5.0153 3.6641,9.1734 8.4607,9.9476 0,26.8072 0,54.3758 0,54.3758 0,8.5897 -10.094,18.7569 -18.6196,18.7569 h -11.7373 c -3.8812,0 -8.987,2.6571 -11.8726,8.1579 -2.886,-5.5008 -7.9916,-8.1579 -11.8727,-8.1579 H 84.3901 c -8.5259,0 -18.6199,-10.1672 -18.6199,-18.7569 0,0 0,-27.5686 0,-54.3758 4.7969,-0.7742 8.4607,-4.9323 8.4607,-9.9476 0,-5.0153 -3.6638,-9.1732 -8.4607,-9.9474 0,-16.8641 0,-29.9679 0,-30.1551 z"
       style="display:inline;fill:#ffffff;fill-rule:evenodd;stroke:none;stroke-opacity:1"
       id="path11" />
    <path
       d="M 143.7535,47.9199 V 66.174 c -5.4483,2.9001 -9.159,8.6342 -9.159,15.2369 0,6.6029 3.7107,12.337 9.159,15.2371 v 47.5972 c -0.222,2.0227 -0.6541,3.757 -1.2607,5.2429 -1.2541,3.0729 -3.2568,5.0804 -5.7009,6.368 -2.7283,1.4376 -6.0066,1.7784 -9.4096,1.9007 l -7.5096,-0.0144 c 0,0 -1.5066,0.091 -3.3217,0.5695 -2.7808,0.7256 -5.5467,1.7169 -8.5509,4.1554 -3.0043,-2.4385 -5.7702,-3.4298 -8.551,-4.1554 -1.8151,-0.4785 -3.3217,-0.5695 -3.3217,-0.5695 l -7.5097,0.0144 c -3.4029,-0.1223 -6.6812,-0.4631 -9.4096,-1.9007 -2.444,-1.2876 -4.4468,-3.2951 -5.7008,-6.368 -0.6066,-1.4859 -1.0387,-3.2202 -1.2608,-5.2429 V 96.648 c 5.4484,-2.9001 9.1591,-8.6342 9.1591,-15.2371 0,-6.6027 -3.7107,-12.3368 -9.1591,-15.2369 V 47.9199 Z"
       style="display:inline;fill:#e41e15;fill-rule:evenodd;stroke:none;stroke-opacity:1"
       id="path12" />
    <g
       id="Layer1004"
       style="display:inline;stroke:none;stroke-opacity:1">
      <path
         d="m 97.3424,65.5955 -0.6753,0.4043 c -0.1354,0 -0.1354,0.2691 -0.1354,0.2691 0,0 -0.1335,0.1355 -0.1335,0.2709 v 0.1334 4.5878 c 0,0.2708 0.1335,0.5397 0.1335,0.5397 0,0 0.1354,0.1355 0.4045,0.1355 0.1354,0 0.2708,-0.1355 0.2708,-0.1355 0,0 0.1354,-0.2689 0.1354,-0.5397 z m 2.8328,-6.3426 v 14.5718 h -2.8328 v -0.5398 c -0.1354,0.1354 -0.6753,0.4043 -0.8107,0.4043 -0.2689,0.1355 -0.5397,0.2709 -0.9443,0.2709 -0.8088,0 -1.2131,-0.2709 -1.4839,-0.6752 -0.4046,-0.5399 -0.5401,-1.4842 -0.5401,-2.6993 v -3.9124 c 0,-0.4043 0.1355,-0.9442 0.4046,-1.2131 0.1355,-0.2709 0.5397,-0.6754 1.0797,-0.9443 l 2.2947,-1.0797 v -4.1832 c 0,-0.2691 -0.1354,-0.4045 -0.1354,-0.4045 0,0 -0.1354,-0.1355 -0.2708,-0.1355 -0.2691,0 -0.4045,0.1355 -0.4045,0.1355 0,0.1354 -0.1335,0.4045 -0.1335,0.6753 v 3.1036 h -2.8348 v -3.3744 c 0,-0.9443 0.4046,-1.6177 0.8109,-1.8885 0.2688,-0.4046 1.2131,-0.54 2.2928,-0.54 1.3488,0 2.293,0.1354 2.6993,0.54 0.5397,0.2708 0.8088,0.9442 0.8088,1.8885 z m 7.6895,0.8105 v 3.6417 h -2.9682 v -4.4522 c 0,-0.2691 0,-0.4045 0,-0.4045 -0.2692,0 -0.4046,-0.1355 -0.4046,-0.1355 -0.1334,0 -0.4042,0.1355 -0.4042,0.1355 0,0.1354 0,0.4045 0,0.6753 v 14.301 h -2.8328 V 56.9598 h 2.8328 v 0.6754 c 0.1354,-0.2708 0.4042,-0.4062 0.5396,-0.6754 0.4046,-0.1354 0.6754,-0.1354 1.0797,-0.1354 0.6734,0 1.2134,0.1354 1.4842,0.6754 0.2689,0.4043 0.6735,1.3486 0.6735,2.5636 z m 4.0477,5.5321 -0.6734,0.4043 -0.1354,0.2691 c 0,0 -0.1354,0.1355 -0.1354,0.2709 v 0.1334 4.5878 c 0,0.2708 0.1354,0.5397 0.1354,0.5397 0,0 0.1354,0.1355 0.2691,0.1355 0.1352,0 0.2708,-0.1355 0.2708,-0.1355 0.2689,0 0.2689,-0.2689 0.2689,-0.5397 z m 2.6974,-6.3426 v 14.5718 h -2.6974 v -0.5398 c -0.2689,0.1354 -0.5397,0.4043 -0.8088,0.4043 -0.2709,0.1355 -0.6751,0.2709 -0.9442,0.2709 -0.8088,0 -1.2151,-0.2709 -1.6194,-0.6752 -0.1356,-0.5399 -0.4045,-1.4842 -0.4045,-2.6993 v -3.9124 c 0,-0.4043 0.1354,-0.9442 0.2689,-1.2131 0.1356,-0.2709 0.6753,-0.6754 1.0799,-0.9443 l 2.4281,-1.0797 v -4.1832 c 0,-0.2691 0,-0.4045 0,-0.4045 -0.2689,0 -0.4045,-0.1355 -0.5397,-0.1355 -0.1337,0 -0.2691,0.1355 -0.2691,0.1355 0,0.1354 -0.1354,0.4045 -0.1354,0.6753 v 3.1036 h -2.8327 v -3.3744 c 0,-0.9443 0.2689,-1.6177 0.8088,-1.8885 0.4063,-0.4046 1.2151,-0.54 2.4284,-0.54 1.2151,0 2.0256,0.1354 2.5636,0.54 0.5417,0.2708 0.6735,0.9442 0.6735,1.8885 z m 7.6931,0.8105 v 13.7613 h -2.8328 V 59.2529 c 0,-0.2691 -0.1354,-0.4045 -0.1354,-0.4045 0,0 -0.1354,-0.1355 -0.2708,-0.1355 -0.1354,0 -0.2708,0.1355 -0.2708,0.1355 0,0.1354 -0.2709,0.4045 -0.2709,0.6753 v 14.301 h -2.6973 V 56.9598 h 2.6973 v 0.6754 c 0.2709,-0.2708 0.5417,-0.4062 0.8125,-0.6754 0.1354,-0.1354 0.6734,-0.1354 0.9442,-0.1354 0.6735,0 1.2152,0.1354 1.4823,0.6754 0.4062,0.4043 0.5417,1.3486 0.5417,2.8328 z m 4.7212,5.5321 -0.6733,0.4043 -0.1355,0.2691 c 0,0 0,0.1355 0,0.2709 v 0.1334 4.5878 c 0,0.2708 0,0.5397 0,0.5397 0,0 0.1355,0.1355 0.538,0.1355 l 0.1354,-0.1355 c 0.1354,0 0.1354,-0.2689 0.1354,-0.5397 z m 2.8328,-6.3426 v 14.5718 h -2.8328 v -0.5398 c -0.1354,0.1354 -0.5416,0.4043 -0.8088,0.4043 -0.1354,0.1355 -0.6771,0.2709 -0.9442,0.2709 -0.5417,0 -1.2152,-0.2709 -1.486,-0.6752 -0.2708,-0.5399 -0.4025,-1.4842 -0.4025,-2.6993 v -3.9124 c 0,-0.4043 0,-0.9442 0.1317,-1.2131 0.2708,-0.2709 0.6771,-0.6754 1.3505,-0.9443 l 2.1593,-1.0797 v -4.1832 c 0,-0.2691 0,-0.4045 0,-0.4045 -0.1354,0 -0.2708,-0.1355 -0.2708,-0.1355 -0.4025,0 -0.538,0.1355 -0.538,0.1355 0,0.1354 0,0.4045 0,0.6753 v 3.1036 h -2.8327 v -3.3744 c 0,-0.9443 0.1317,-1.6177 0.6733,-1.8885 0.4064,-0.4046 1.3506,-0.54 2.4266,-0.54 1.3505,0 2.2947,0.1354 2.5656,0.54 0.6734,0.2708 0.8088,0.9442 0.8088,1.8885 z m -3.5061,-5.5321 h 2.5619 l -1.6177,2.1594 h -1.8885 z"
         style="fill:#00378b;fill-rule:evenodd;stroke:none;stroke-opacity:1"
         id="path13" />
      <path
         d="m 119.8727,101.2136 c -4.5858,-4.7232 -15.9205,-5.9363 -20.5063,-2.1593 l -27.1199,23.3305 -3.777,3.2493 h 3.777 13.2233 c 6.7451,0 8.9045,3.6416 10.793,8.0957 l 11.4259,28.4989 c 0.1037,0.0788 0.2077,0.1569 0.3114,0.2386 3.0042,-2.4385 5.7701,-3.4298 8.5509,-4.1554 1.8151,-0.4785 3.3217,-0.5695 3.3217,-0.5695 l 7.5096,0.0144 c 3.403,-0.1223 6.6813,-0.4631 9.4096,-1.9007 2.4441,-1.2876 4.4468,-3.2951 5.7009,-6.368 0.6066,-1.4859 1.0387,-3.2202 1.2607,-5.2429 v -7.0092 -11.7374 z m -17.809,15.2452 c -2.024,0 -3.6416,-1.6177 -3.6416,-3.5062 0,-2.0259 1.6176,-3.5099 3.6416,-3.5099 1.8885,0 3.3725,1.484 3.3725,3.5099 0,1.8885 -1.484,3.5062 -3.3725,3.5062 z"
         style="fill:#00378b;fill-rule:evenodd;stroke:none;stroke-opacity:1"
         id="path14" />
      <path
         d="m 88.9776,58.8484 v 6.6117 h 0.1338 c 0.1354,0 0.5396,-0.2709 0.5396,-0.2709 0.1355,0 0.1355,-0.4045 0.1355,-0.6734 V 59.928 c 0,-0.4043 0,-0.9442 -0.1355,-0.9442 0,-0.1354 -0.4042,-0.1354 -0.5396,-0.1354 z m -2.9682,-2.2929 h 3.3728 c 1.4839,0 2.2927,0.1335 2.5636,0.5398 0.4046,0.4045 0.6734,1.4842 0.6734,2.9681 v 4.0479 c 0,1.6177 -0.2688,2.5619 -0.5397,2.9681 -0.4046,0.4046 -1.2134,0.6735 -2.4285,0.6735 h -0.6734 v 6.0718 h -2.9682 z"
         style="fill:#00378b;fill-rule:evenodd;stroke:none;stroke-opacity:1"
         id="path15" />
      <path
         d="m 87.0874,95.0064 h 0.2709 c 0.4042,0 0.6733,0 0.8088,0 0,-0.1337 0.1354,-0.4045 0.1354,-0.6734 0,-0.2708 -0.1354,-0.54 -0.1354,-0.54 -0.1355,-0.1354 -0.4046,-0.4042 -0.8088,-0.4042 h -0.2709 z m 0,-2.5638 h 0.1354 c 0.2709,0 0.6751,-0.1335 0.8088,-0.1335 0.1355,0 0.1355,-0.2709 0.1355,-0.54 0,-0.4043 0,-0.5397 -0.1355,-0.5397 -0.1337,-0.1354 -0.5379,-0.2708 -0.8088,-0.2708 h -0.1354 z m -1.3488,3.6435 v -6.0718 h 1.0797 c 0.4045,0 0.9442,0.1354 1.2133,0.1354 0.1355,0 0.4063,0.1354 0.8106,0.1354 0,0.1335 0.2692,0.5398 0.4046,0.5398 0.1354,0.2691 0.1354,0.5399 0.1354,0.8089 0,0.4044 0,0.6753 -0.2708,0.8088 -0.2692,0.2708 -0.6735,0.5399 -0.9443,0.5399 0.5397,0 0.8105,0.1354 1.0797,0.4063 0.1354,0.4042 0.5397,0.6734 0.5397,0.9442 0,0.4043 -0.1355,0.6734 -0.4043,0.8088 0,0.2689 -0.2708,0.5398 -0.54,0.6752 -0.1354,0 -0.5397,0.1337 -0.6751,0.1337 -0.2692,0 -0.9443,0.1354 -1.4842,0.1354 H 86.414 Z m 12.9524,0 h -1.7548 l -1.4823,-2.8328 v 2.8328 h -1.215 v -6.0718 h 1.8885 c 0.6751,0 1.215,0.1354 1.6194,0.2708 0.2691,0.4044 0.5399,0.9443 0.5399,1.6194 0,0.2692 -0.1355,0.8089 -0.2708,0.9443 -0.2691,0.2691 -0.6735,0.4045 -0.9443,0.4045 z m -3.2371,-3.3727 h 0.2689 c 0.4046,0 0.9443,-0.2708 1.0797,-0.2708 0,0 0.1337,-0.4044 0.1337,-0.5381 0,-0.2707 -0.1337,-0.5397 -0.1337,-0.6751 -0.1354,-0.1354 -0.6751,-0.2708 -1.0797,-0.2708 h -0.2689 z m 10.5223,1.0796 -0.8089,-1.8885 v -0.2707 c 0,-0.269 0,-0.4044 0,-0.6752 0,0.2708 -0.1354,0.4062 -0.1354,0.4062 0,0.269 -0.1354,0.5397 -0.1354,0.5397 l -0.6734,1.8885 z m -3.777,2.2931 2.1593,-6.0718 h 1.4839 l 2.4285,6.0718 h -1.4842 l -0.5397,-1.3488 h -2.2948 l -0.4045,1.3488 z m 9.7132,-0.8088 0.8106,-0.9443 c 0,0.4043 0.2691,0.6734 0.4045,0.6734 0,0 0.4062,0.1354 0.6734,0.1354 0.1354,0 0.6771,-0.1354 0.6771,-0.1354 0.1318,0 0.2672,-0.2691 0.2672,-0.6734 0,-0.1354 -0.2672,-0.54 -0.8089,-0.6754 -0.1354,0 -0.2708,-0.4043 -0.4026,-0.4043 -0.5416,-0.1354 -0.9459,-0.4045 -0.9459,-0.5399 -0.4045,-0.4043 -0.54,-0.6752 -0.54,-1.0796 0,-0.5398 0.2709,-0.9443 0.54,-1.3487 0.4043,-0.1354 1.0777,-0.4044 1.484,-0.4044 0.4062,0 0.8088,0.1336 0.9442,0.269 0.2709,0 0.538,0.2689 0.8089,0.6752 l -0.8089,0.5399 c 0,-0.1354 -0.2708,-0.4062 -0.2708,-0.4062 -0.1354,0 -0.2672,-0.1337 -0.538,-0.1337 -0.2709,0 -0.4063,0.1337 -0.4063,0.2691 -0.1354,0.1354 -0.2672,0.2708 -0.2672,0.5398 0,0.2707 0.2672,0.5399 0.6735,0.8088 l 0.2708,0.2708 c 0.538,0.1354 0.8089,0.4045 1.076,0.5399 0.2709,0.4043 0.5417,0.8089 0.5417,1.0797 0,0.5397 -0.2708,1.0777 -0.5417,1.3486 -0.538,0.2691 -1.076,0.5399 -1.7531,0.5399 -0.2672,0 -0.8088,-0.1354 -1.0779,-0.1354 -0.4043,-0.1354 -0.8106,-0.4045 -0.8106,-0.8088 z m 8.9046,0.8088 v -6.0718 h 1.3504 v 6.0718 z m 6.2071,0 v -6.0718 h 1.3505 v 4.9921 h 2.0239 v 1.0797 z"
         style="fill:#00378b;fill-rule:evenodd;stroke:none;stroke-opacity:1"
         id="path16" />
    </g>
    <path
       d="m 122.3029,84.2134 c -0.1355,0.1354 -0.2709,0.6751 -0.2709,0.8089 -0.1354,0.1354 -0.4062,0.4062 -0.5379,0.8105 -0.1355,0.4045 -0.1355,0.9442 -0.1355,1.0797 0.1355,0.1337 0.2672,0.2691 0.538,0.2691 0.5417,0 1.2151,-0.2691 2.0239,-0.8089 0.9443,-0.5399 1.7531,-1.3504 2.562,-2.2947 0,-0.1337 0.1354,-0.2692 0.4062,-0.54 0.2709,-0.2688 0.5417,-0.5397 0.5417,-0.5397 0,0 0.1317,0 0.1317,0.1354 0.2709,0.1355 0.2709,0.2709 0.2709,0.4043 -0.2709,0.2708 -0.4026,0.54 -0.6734,0.8108 -0.2709,0.5397 -0.9443,0.9443 -1.486,1.484 -0.8088,0.6734 -1.6177,1.3488 -2.291,1.6176 -0.8125,0.4063 -1.3506,0.6754 -2.024,0.6754 -0.8124,0 -1.0797,-0.2691 -1.3505,-0.6754 -0.2708,-0.2688 -0.2708,-0.9442 0.1354,-1.6176 0.2708,-0.8105 0.8089,-1.8885 1.4823,-3.239 0.6771,-1.0797 1.6213,-2.1574 2.5656,-3.1017 0.2709,-0.1354 0.6734,-0.4062 0.8088,-0.5399 0.2709,-0.2709 0.538,-0.2709 0.6734,-0.2709 0.2708,0 0.4063,0 0.4063,0 0.1354,0 0.1354,0.2709 0.2709,0.4046 0.1317,0 0.2671,0 0.5379,0 0.4063,0.1354 0.6734,0.4062 0.5417,1.0796 -0.4063,1.0797 -1.0796,2.1594 -2.0239,3.1037 -1.0797,0.8088 -1.8922,1.2131 -2.4302,1.2131 -0.2708,0 -0.4062,0 -0.4062,0 -0.2672,0 -0.2672,-0.1335 -0.4027,-0.2689 z m 1.0797,-0.4046 c 0.1317,0 0.6733,-0.4042 1.0797,-0.9442 0.6733,-0.6751 0.9442,-1.4839 1.0759,-2.0239 0.1354,0 0,-0.2708 0.1354,-0.4043 -0.1354,0 -0.2671,-0.1354 -0.2671,-0.1354 -0.1354,0 -0.5417,0.2689 -1.2151,0.9442 -0.5417,0.8088 -0.9443,1.3486 -1.0797,1.7531 -0.1354,0.2709 -0.1354,0.4063 0,0.5397 0,0.2708 0.1354,0.2708 0.2709,0.2708 z"
       style="fill:#ffffff;fill-rule:evenodd;stroke:none;stroke-opacity:1"
       id="path17" />
    <path
       d="m 122.3029,73.5538 c 0,-0.1335 -0.1355,-0.2689 -0.2709,-0.4043 0,0 -0.1354,0 -0.2708,0 -0.1354,0 -0.538,0.1354 -0.8088,0.5397 -0.1354,0.4046 -0.8089,0.9443 -1.3505,1.8885 -1.8885,2.5639 -3.5062,4.9922 -4.7213,7.1515 -0.1986,0.3074 -0.3816,0.5963 -0.5524,0.8703 -0.0854,0.0632 -0.171,0.1737 -0.2564,0.3448 l -0.1355,0.1337 c -0.8088,0.9443 -1.4842,1.6193 -1.8885,2.1593 -0.5399,0.4043 -0.8088,0.5397 -1.0796,0.5397 0,0 -0.1355,0 -0.1355,-0.1354 0.1355,0 0.1355,-0.2689 0.2709,-0.6751 0.2691,-1.2134 1.3485,-2.9682 2.9682,-4.9904 0.2708,-0.2708 0.4062,-0.5397 0.4062,-0.5397 0.2672,-0.1354 0,-0.6754 0,-0.8108 -0.1354,-0.1335 -0.4062,-0.1335 -0.5417,-0.1335 -0.1354,0 -0.538,0.1335 -0.6734,0.2689 -0.2708,0.1354 -0.5399,0.54 -0.5399,0.8089 -1.6194,2.1593 -2.8344,3.7789 -3.6433,4.7232 -0.8088,0.9442 -1.6196,1.3485 -1.8885,1.3485 -0.1354,0 -0.2708,0 -0.2708,-0.1354 0,0 0,-0.2689 0.1354,-0.6734 0.1354,-0.4043 0.4043,-1.0797 1.0797,-2.024 0.6754,-0.9442 1.3488,-2.0239 2.293,-3.1035 0.1351,0 0.4042,-0.1354 0.4042,-0.2689 l 0.1355,-0.1354 c 0,-0.2709 0,-0.6754 0,-0.8089 -0.1355,-0.1354 -0.4046,-0.1354 -0.6734,-0.1354 -0.1354,0 -0.2708,0 -0.4062,0.1354 -0.1335,0 -0.538,0.2689 -0.6734,0.4043 -0.8108,0.9443 -1.6197,2.0239 -2.1594,3.1019 -0.3135,0.5014 -0.5672,0.9721 -0.7912,1.4154 -0.2719,0.2457 -0.4829,0.5353 -0.693,0.744 -0.6751,0.5396 -1.0797,1.215 -1.6194,1.4839 -0.2691,0.1354 -0.8088,0.4046 -0.9442,0.4046 -0.1338,0 -0.2692,-0.2692 -0.2692,-0.4046 0,-0.1354 0,-0.8088 0.1354,-1.2131 0.1338,-0.1354 0.1338,-0.54 0.2692,-0.6754 0,-0.2708 0.2689,-0.5397 0.4043,-0.6751 2.4285,-2.4285 4.5878,-4.8567 6.3409,-7.1498 1.7549,-2.1593 2.6992,-3.6433 2.9681,-4.4521 0,-0.2708 0,-0.8108 -0.2689,-1.0797 -0.2691,-0.4045 -0.6754,-0.6754 -0.9443,-0.6754 -0.2708,0 -0.6753,0.1355 -1.0799,0.2709 -0.4042,0.2691 -0.675,0.5399 -0.675,0.6734 -0.1335,0.1354 0,0.2709 0,0.2709 l -0.1335,0.2691 c -1.0799,1.6194 -2.4285,3.5079 -3.6435,5.2629 -1.2151,1.8885 -2.2931,3.777 -3.5082,5.801 -0.1354,0.1354 -0.6751,0.4042 -0.9442,0.4042 -0.2689,0 -0.5398,0.1354 -0.5398,0.1354 0,0.2692 0,0.4046 0,0.54 0,0.1335 0.2709,0.2689 0.4044,0.2689 h 0.1354 l 0.1354,-0.1354 v 0.1354 c 0,0.1354 -0.1354,0.54 -0.2708,0.6754 0,0.1354 -0.1335,0.4042 -0.1335,0.5397 -0.2709,0.6734 -0.2709,1.2134 0,1.6176 0.1335,0.4063 0.538,0.8108 1.0777,0.8108 0.2708,0 0.6754,-0.1354 0.9443,-0.1354 0.2708,-0.2691 0.5399,-0.54 0.9462,-0.6754 0.2545,-0.2544 0.6346,-0.627 1.1319,-0.8961 -0.0162,0.0312 -0.0308,0.0639 -0.0542,0.0873 0,0.1354 0.1354,0.2709 0.4062,0.4046 0,0.2708 0.1338,0.5396 0.2692,0.5396 0.1354,0 0.4042,0 0.6751,0 0.2691,0 0.6734,-0.1354 1.3488,-0.5396 0.2489,-0.2492 0.9623,-0.9612 1.7087,-1.5999 -0.039,0.0837 -0.0891,0.1671 -0.0891,0.251 0,0.1355 -0.2708,0.2692 -0.2708,0.2692 -0.1337,0.6751 -0.1337,1.0797 0,1.4839 0.2708,0.4063 0.5397,0.54 0.9442,0.54 0.4042,0 0.6751,-0.1337 0.9442,-0.2691 0.337,-0.1122 0.6742,-0.3194 1.0875,-0.6944 -0.003,0.0061 -0.006,0.0132 -0.008,0.0193 0,0.1354 0,0.2708 0.2709,0.2708 0,0 0.2691,0.1334 0.6753,0.2688 0.2672,0.1355 0.538,0.54 0.6735,0.54 0.1354,0 0.4062,0.1354 0.6734,0.1354 0.4062,0 1.0797,-0.1354 1.4859,-0.2708 0.538,-0.4046 0.9443,-0.6734 1.4823,-1.0779 0.677,-0.8106 1.6213,-1.7548 2.2947,-2.6991 0.6735,-0.9442 1.0797,-1.8885 1.2151,-2.5639 0.4026,-0.5397 0.4026,-1.2131 0.1354,-1.484 0,-0.5399 -0.2708,-0.6734 -0.677,-0.6734 -0.5381,0 -0.9443,0.1335 -1.6177,0.538 -0.634,0.255 -1.1541,0.6315 -1.8876,1.2378 0.8989,-1.6323 1.7976,-2.914 2.6964,-4.0705 0.9443,-1.4842 1.4859,-2.1577 1.8885,-2.5639 0,0 0.2708,-0.1335 0.4062,-0.2689 0.4027,-0.1354 0.5381,-0.2708 0.5381,-0.2708 0,0 0,-0.2691 0,-0.4046 0,0 -0.1354,-0.1354 -0.4026,-0.1354 z m -14.9763,4.0479 c 1.0778,-1.484 2.4285,-3.3725 3.6416,-5.261 0.1354,0 0.4045,0 0.4045,0 h 0.1352 c 0,0 0,0.1354 0,0.2688 -0.1352,0.54 -0.9443,1.7551 -2.4282,3.6436 -1.215,1.8885 -2.9681,3.9124 -4.5878,5.9364 l -0.1334,0.1354 c 0.8088,-1.4842 2.0219,-2.9682 2.9681,-4.7232 z m 12.5461,2.9682 c 0.1354,0 0.2708,0.1354 0.2708,0.4062 0,0 0,0.2691 0,0.4046 -0.2708,0.4042 -0.5416,1.2131 -1.215,2.0239 -0.6735,0.8088 -1.4823,1.8885 -2.024,2.6973 -0.538,0.4043 -0.9442,0.9443 -1.2151,1.0797 -0.4025,0.1354 -0.6734,0.1354 -0.9442,0.1354 -0.4026,0 -0.538,0 -0.6734,-0.1354 0,-0.1354 0,-0.54 0.1354,-0.8089 0.1354,-0.6754 0.538,-1.215 0.9442,-2.0239 0.538,-0.4045 1.0797,-1.0796 1.7531,-1.755 0.5417,-0.5398 1.3505,-1.2131 1.8886,-1.484 0.4062,-0.4045 0.9442,-0.5399 1.0796,-0.5399 z"
       style="fill:#ffffff;fill-rule:evenodd;stroke:none;stroke-opacity:1"
       id="path18" />
    <path
       d="m 103.8185,71.3964 c 0.6734,0.1354 1.2134,0.5398 1.4842,1.0797 0.1335,0.4043 0.4043,0.9442 0.1335,1.484 -0.1335,0.5399 -0.4043,0.8088 -0.6735,1.0796 -0.2708,0.1337 -0.675,0.2692 -0.9442,0.2692 -0.1354,0 -0.4062,0 -0.4062,-0.1355 -0.1335,-0.1337 -0.1335,-0.6734 0,-1.2133 0,-0.2709 0,-0.5398 -0.1335,-0.8106 -0.1354,-0.1336 -0.54,-0.1336 -0.8108,-0.1336 -0.5397,0 -1.3486,0.1336 -2.2928,0.6733 -0.9443,0.8108 -2.024,1.6197 -2.9682,2.8347 -1.6196,1.2132 -3.1035,2.9682 -4.0478,4.5859 -1.2134,1.8885 -2.1593,3.6433 -2.5639,4.9921 -0.2689,1.0797 -0.2689,1.7548 0,2.2947 0.1354,0.6735 0.8108,0.9443 1.6196,0.9443 0.5397,0 1.2151,0 1.7531,-0.2708 0.6751,-0.1337 1.4859,-0.6735 2.2948,-1.0797 0.4043,-0.1337 0.9442,-0.54 1.6194,-0.8088 0.6734,-0.4046 0.9442,-0.8089 1.2133,-0.8089 0.1354,0 0.2709,0.2689 0.2709,0.2689 -0.1355,0 0,0.1354 0,0.2709 -0.1355,0.2691 -0.2709,0.5379 -0.6754,0.8088 -0.2689,0.2691 -1.0796,0.6753 -1.484,1.2151 -0.9442,0.5379 -1.8885,1.0779 -2.6993,1.2133 -0.9443,0.5398 -1.7531,0.8089 -2.2928,0.8089 -1.6196,0 -2.6993,-0.54 -3.3727,-1.3488 -0.6751,-0.8088 -0.8106,-2.1594 -0.2708,-3.5079 0.2708,-1.4842 1.3505,-3.1036 2.6993,-5.1258 1.3485,-2.1593 3.237,-4.3187 5.261,-6.3426 1.0797,-1.484 2.1593,-2.5619 3.239,-3.1017 0.8088,-0.6753 1.6196,-1.0796 2.1576,-1.0796 0.1354,0 0.5397,0.2688 0.8105,0.2688 0.4046,0.1355 0.6735,0.54 0.9443,0.6754 z"
       style="fill:#ffffff;fill-rule:evenodd;stroke:none;stroke-opacity:1"
       id="path19" />
    <path
       d="m 136.4667,132.3793 c 0,1.7531 -1.3469,3.1036 -3.1,3.1036 -1.1319,0 -2.091,-0.5624 -2.6319,-1.4301 -0.5417,0.8677 -1.5015,1.4301 -2.6309,1.4301 -1.1781,0 -2.1721,-0.6112 -2.6989,-1.5433 -0.3782,0.67 -0.9967,1.1749 -1.7546,1.405 v 23.6129 h -1.6191 v -23.5454 c -0.9262,-0.1944 -1.6803,-0.7842 -2.091,-1.596 -0.5066,1.0014 -1.5357,1.6668 -2.7649,1.6668 -1.1297,0 -2.0898,-0.5627 -2.6315,-1.4308 -0.5417,0.8681 -1.5018,1.4308 -2.6315,1.4308 -1.753,0 -3.1015,-1.3505 -3.1015,-3.1036 0,-1.7531 1.3485,-3.1036 3.1015,-3.1036 1.1297,0 2.0898,0.5626 2.6315,1.4308 0.5417,-0.8682 1.5018,-1.4308 2.6315,-1.4308 1.2292,0 2.2583,0.6653 2.7649,1.6667 0.5068,-1.0014 1.5359,-1.6667 2.7652,-1.6667 1.1804,0 2.1735,0.6112 2.6995,1.5433 0.5268,-0.9321 1.5208,-1.5433 2.6989,-1.5433 1.1294,0 2.0892,0.5624 2.6309,1.43 0.5409,-0.8676 1.5,-1.43 2.6319,-1.43 1.7531,0 3.1,1.3505 3.1,3.1036 z"
       style="fill:#ffffff;fill-rule:evenodd;stroke:none;stroke-opacity:1"
       id="path20" />
  </g>
</svg>
