<?xml version="1.0" encoding="UTF-8" standalone="no"?>
<svg
   version="1.1"
   width="1.3720654in"
   height="1.4994724in"
   viewBox="0 0 98.788711 107.96201"
   id="svg21"
   sodipodi:docname="paysandu.cdr"
   xmlns:inkscape="http://www.inkscape.org/namespaces/inkscape"
   xmlns:sodipodi="http://sodipodi.sourceforge.net/DTD/sodipodi-0.dtd"
   xmlns="http://www.w3.org/2000/svg"
   xmlns:svg="http://www.w3.org/2000/svg">
  <defs
     id="defs21" />
  <sodipodi:namedview
     id="namedview21"
     pagecolor="#ffffff"
     bordercolor="#000000"
     borderopacity="0.25"
     inkscape:showpageshadow="2"
     inkscape:pageopacity="0.0"
     inkscape:pagecheckerboard="0"
     inkscape:deskcolor="#d1d1d1"
     inkscape:document-units="in" />
  <g
     id="Layer1003"
     transform="translate(-58.605698,-54.018997)">
    <g
       id="Layer1004">
      <path
         d="m 157.3944,73.7769 c -1.5518,-0.847 -3.4572,-1.6229 -5.574,-2.3285 -7.9033,-3.1051 -13.831,-8.8205 -17.712,-17.4294 H 81.8917 c -3.7397,8.6089 -9.6673,14.3243 -17.7115,17.4294 -2.2578,0.8462 -4.0925,1.6228 -5.5745,2.3285 0.1413,9.1732 1.0585,17.7821 2.6813,25.9672 1.8347,8.8204 4.4457,16.8653 7.8327,24.1325 3.4575,7.6215 8.3267,14.3953 14.5362,20.1106 6.5622,6.0696 12.9129,11.0794 19.1227,14.8901 l 5.2217,3.1037 5.2216,-3.1037 c 6.0682,-3.7404 12.4899,-8.6799 19.1224,-14.8901 6.2102,-5.7153 11.0793,-12.4189 14.6075,-20.1106 3.5283,-7.6903 6.0682,-15.7352 7.762,-24.1325 1.6932,-8.1851 2.5401,-16.794 2.6806,-25.9672 z"
         style="fill:#009ee0;fill-rule:evenodd"
         id="path10" />
    </g>
    <path
       d="m 151.2559,73.0712 c 0,0 0,0 -0.0702,0 -8.0446,-3.0341 -14.1128,-8.8914 -18.206,-17.2881 H 83.0208 c -3.9516,8.3967 -10.0201,14.254 -18.2056,17.2881 -1.6935,0.6346 -3.1754,1.27 -4.3747,1.8351 0.1409,8.6082 1.0584,16.7933 2.6106,24.485 1.7641,8.6799 4.3751,16.5824 7.6917,23.7094 v 0.0703 c 3.3163,7.4092 8.0442,13.9019 14.1128,19.4766 v 0.0703 c 6.4916,5.9979 12.7717,10.8671 18.8402,14.6764 v -0.0702 l 4.3045,2.6116 4.3754,-2.6116 -0.071,0.0702 c 5.9979,-3.6687 12.2776,-8.5379 18.8406,-14.6764 v -0.0703 c 6.0682,-5.5044 10.7961,-12.0674 14.2533,-19.5469 3.3876,-7.4798 5.9276,-15.3824 7.6214,-23.7094 1.5519,-7.762 2.3995,-15.8768 2.6103,-24.556 -1.2693,-0.5644 -2.7515,-1.1998 -4.3744,-1.7641 z"
       style="fill:#ffffff;fill-rule:evenodd"
       id="path11" />
    <path
       d="m 149.9852,76.3878 2.0467,0.8463 c -0.1406,6.8454 -0.9882,14.0424 -2.5401,21.5219 -1.4815,7.9742 -3.9512,15.5949 -7.3388,22.9334 -2.8226,6.2102 -6.6333,11.643 -11.2199,16.3716 v -18.8413 c 0,-0.0703 0.071,-0.1406 0.1419,-0.1406 h -0.1419 v -1.4815 l 4.2338,-2.5411 c -0.7759,0.3528 -1.6221,0.4941 -2.54,0.3528 1.1997,-0.6346 2.4697,-1.4112 3.8107,-2.3987 1.9047,-1.4112 3.105,-3.1753 3.4579,-5.3632 l -3.1051,1.1997 c -1.7641,0.5644 -3.7404,0.9172 -5.8573,0.9172 v -50.453 c 4.446,8.3264 10.7968,13.9714 19.0521,17.0765 z"
       style="fill:#009ee0;fill-rule:evenodd"
       id="path12" />
    <path
       d="m 63.9686,77.2341 2.117,-0.8463 C 74.3413,73.2827 80.692,67.6377 85.2084,59.4526 v 50.3117 c -2.0467,-0.071 -4.0223,-0.3528 -5.7864,-0.9172 -1.1291,-0.4231 -2.1875,-0.8469 -3.1047,-1.2707 0.3528,2.1879 1.4819,4.023 3.4576,5.4342 1.4112,0.9875 2.6812,1.7641 3.7397,2.3987 -1.1287,0.071 -1.905,0 -2.4697,-0.3528 l 4.1635,2.4694 v 1.5532 h -0.0706 c 0,0 0,0 0.0706,0.0703 V 138.061 C 80.4805,133.3324 76.7408,127.8293 73.9182,121.6894 70.5309,114.2096 68.0612,106.518 66.509,98.756 65.0977,91.6996 64.2508,84.5026 63.9686,77.2341 Z"
       style="fill:#009ee0;fill-rule:evenodd"
       id="path13" />
    <path
       d="m 111.4578,111.5284 c -0.0703,0 -0.4231,-0.071 -1.1287,-0.2116 -2.4701,-0.8469 -4.587,-0.7056 -6.3511,0.4934 l 0.0707,0.4948 c 0.7762,2.0459 1.2703,4.0921 1.4819,6.2091 0.0706,0.7759 0.1412,1.6938 0.2115,2.6819 -0.0703,0 -0.2115,0 -0.2115,0 l -1.1997,-0.2122 c -0.2116,-0.0703 -0.2822,-0.0703 -0.2822,-0.0703 -2.0463,-0.7056 -2.8932,-2.4697 -2.5404,-5.2223 0.2825,-2.3988 -0.7056,-4.0918 -2.8225,-5.2213 -1.9757,-1.0584 -4.0926,-1.4113 -6.3508,-1.1997 l -3.5984,0.2122 V 59.3113 h 38.6683 v 50.2415 l -3.5282,-0.2826 c -2.3987,-0.1405 -4.5157,0.2122 -6.3507,1.1997 -2.2575,1.1997 -3.1754,2.9638 -2.8225,5.2923 0.3527,2.8221 -0.5638,4.5862 -2.6807,5.2919 h -0.2122 c -0.5643,0.0716 -1.0584,0.2122 -1.6938,0.2825 0.071,-0.2825 0.071,-0.5637 0.1419,-0.7759 0.1407,-1.2707 0.3529,-2.3995 0.7057,-3.316 0.4934,-1.8354 0.7056,-3.811 0.4934,-5.7163 z"
       style="fill:#009ee0;fill-rule:evenodd"
       id="path14" />
    <path
       d="m 85.2084,111.3168 c 0.2822,-0.0703 0.5643,-0.0703 0.9172,-0.0703 0.7762,0 1.6934,-0.071 2.611,-0.071 0.5643,-0.0709 1.1993,-0.1412 1.8343,-0.2115 2.4698,-0.1413 4.5867,0.2115 6.4214,0.9882 1.5526,0.6346 2.3288,1.693 2.3288,3.2456 0,2.3998 0.635,4.3044 1.9757,5.7157 -0.847,0.7056 -1.4819,0.0703 -1.9054,-1.9047 -0.635,-2.2588 -1.4816,-3.9523 -2.6106,-5.2223 -0.6351,-0.7056 -1.4113,-1.0584 -2.3289,-1.0584 l -2.6812,0.0702 c 0.7762,0.4941 1.764,0.8469 2.8932,1.1998 h 0.1409 c -0.4938,0.3528 -1.1994,0.494 -2.2579,0.3528 H 92.335 c 0.7763,0.8469 1.8348,1.3403 3.1754,1.4113 0.0706,0 0.1413,0.0709 0.2119,0.1412 -0.4941,0.2829 -1.0584,0.4235 -1.7641,0.3532 h -0.2119 c 0.7056,0.7056 1.5525,1.2693 2.4697,1.4112 0.0706,0 0.2119,0.0703 0.3528,0.2109 -0.2822,0.142 -0.6349,0.2123 -1.0584,0.142 h -0.1409 c 0.4234,0.4231 1.0584,0.7759 1.905,0.9881 0.0706,0 0.2119,0.0703 0.3528,0.0703 0,0.2825 -0.2822,0.4934 -0.7056,0.4934 h -0.1409 c 1.3406,0.7056 1.9756,1.4113 1.7641,2.2589 l -0.1413,0.1406 c -0.1409,0 -0.2116,0.0702 -0.2822,0.2122 l -5.0807,-3.1051 c 0.0706,0 0.1412,-0.0703 0.2118,-0.0703 0.4235,-0.2122 0.7057,-0.4245 0.8466,-0.6353 -0.1409,0 -0.1409,-0.0703 -0.1409,-0.0703 -1.3406,-0.4245 -2.5404,-0.9179 -3.5282,-1.4829 0,0 0.0706,0 0.1409,-0.0703 0.2826,-0.0703 0.4235,-0.2826 0.5648,-0.4934 -0.1413,0 -0.212,-0.0703 -0.3529,-0.0703 -0.7762,-0.142 -1.4112,-0.4241 -2.0462,-0.9182 -0.2119,-0.2116 -0.4235,-0.3529 -0.6354,-0.5644 0.0707,0 0.1413,-0.1413 0.2825,-0.2818 l 0.4231,-0.6354 h -0.0702 l -0.9882,-0.0703 c -0.5644,-0.071 -1.1288,-0.071 -1.6228,-0.2122 -0.3529,-0.0703 -0.635,-0.1406 -0.9172,-0.2116 -1.2704,-0.3528 -2.3288,-1.0584 -3.246,-1.9053 l 1.7641,-0.0703 c 0.4234,0 0.9172,0 1.4819,0 z"
       style="fill:#009ee0;fill-rule:evenodd"
       id="path15" />
    <path
       d="m 88.7366,121.4786 c 0.5643,0.2811 1.1993,0.5636 1.8343,0.8462 0.4941,0.1405 0.9882,0.3528 1.4113,0.6353 h -2.8225 c 1.4819,1.341 3.3872,2.1169 5.7157,2.2575 2.2581,0.2123 4.516,0.2123 6.7742,0 0.7056,-0.0703 1.6228,-0.0703 2.7519,0.0703 l 0.635,0.0717 0.1413,0.0703 0.6349,0.2108 h 0.0707 c 0,0.4948 -0.2116,0.9179 -0.4941,1.2004 -1.4815,1.5519 -1.6935,3.0334 -0.7056,4.3744 l 4.2338,1.9764 c 1.9759,0.9165 3.9515,2.0465 5.786,3.3159 h 0.1419 c 1.7641,0.4231 2.6103,-0.1406 2.4697,-1.6221 -0.3528,-0.2826 -1.2707,-1.0585 -2.682,-2.3995 -1.341,-1.341 -2.54,-3.1051 -3.4578,-5.222 -0.2109,-0.565 -0.4231,-1.1287 -0.5637,-1.6938 l 0.3528,-0.0703 c 0.0703,-0.0702 0.1406,-0.0702 0.2109,-0.0702 l 0.565,-0.0703 c 0.7056,-0.142 1.6229,-0.142 2.7523,-0.0717 2.2575,0.142 4.5156,0.142 6.8441,0 2.3291,-0.1406 4.2338,-0.9165 5.6451,-2.3278 h -2.8226 l 1.4816,-0.6353 c 0.5651,-0.2123 1.1294,-0.4934 1.7641,-0.7759 v 19.8984 c -5.9269,5.3625 -11.572,9.668 -16.9353,12.9839 v -0.0703 l -2.4693,1.4816 -2.4697,-1.4816 v 0.0703 c -5.5039,-3.4579 -11.1489,-7.7619 -16.794,-12.9839 z"
       style="fill:#009ee0;fill-rule:evenodd"
       id="path16" />
    <path
       d="m 110.3291,112.163 -0.706,6.5633 c -0.1409,0.9165 -0.2116,1.7641 -0.2116,2.6103 0,1.4113 0.1413,2.7523 0.3525,4.023 0,0.1405 0,0.2811 0,0.4231 0.4238,1.9749 1.2004,3.8107 2.3994,5.5031 0.1413,0.142 0.2123,0.2825 0.2123,0.4948 0.0702,0 0.1406,0.1406 0.2108,0.2825 0.071,0.2812 0,0.4231 -0.2108,0.3528 h -0.142 c -0.6346,-0.1419 -1.1287,-0.565 -1.4815,-1.2004 0,-0.0703 -0.0704,-0.1405 -0.0704,-0.1405 -1.623,-1.4816 -2.5402,-3.1051 -2.893,-5.0815 -0.3529,-1.6221 -0.2826,-3.1037 0,-4.5866 0.0702,-0.4231 0.2115,-0.8462 0.3528,-1.199 0.9172,-2.7523 0.5643,-4.7986 -0.9882,-5.9983 -1.6935,-1.27 -1.3407,-1.9756 1.1997,-2.0466 z"
       style="fill:#009ee0;fill-rule:evenodd"
       id="path17" />
    <path
       d="m 132.4863,111.3168 1.6931,0.1406 c -0.9875,0.8476 -2.1169,1.4822 -3.2463,1.906 -0.4231,0.0703 -0.7759,0.2109 -1.1288,0.2818 -0.4934,0.071 -0.9172,0.071 -1.4112,0.1413 h -1.0585 l 0.4941,0.6354 c 0,0.0702 0.071,0.1405 0.2115,0.2818 -0.2115,0.2115 -0.4231,0.4238 -0.6353,0.6347 -0.5637,0.4238 -1.199,0.7059 -1.975,0.9182 h -0.3528 c 0.0703,0.2108 0.2109,0.4231 0.4934,0.5637 h 0.2123 c -1.2005,0.7056 -2.3292,1.1301 -3.5282,1.5532 h -0.2123 c 0.2123,0.2825 0.4941,0.5637 0.9179,0.7056 h 0.1406 c -1.8344,1.199 -3.4579,2.1872 -5.0098,3.1051 -0.1412,-0.0717 -0.2122,-0.142 -0.2825,-0.2122 -0.1406,0 -0.1406,-0.0703 -0.1406,-0.0703 -0.2825,-0.9179 0.2819,-1.6236 1.7641,-2.2589 h -0.2122 c -0.4231,-0.0703 -0.6354,-0.2812 -0.7057,-0.5637 h 0.3529 c 0.7759,-0.2825 1.4112,-0.6353 1.9763,-1.0584 h -0.2122 c -0.4934,0.1405 -0.8463,0.0703 -1.0585,-0.142 0.0703,0 0.2122,-0.0703 0.3529,-0.1406 0.9881,-0.2122 1.8343,-0.7056 2.4696,-1.4815 h -0.1405 c -0.7057,0.1405 -1.2707,0 -1.7641,-0.3532 l 0.1406,-0.0703 c 1.3409,-0.0709 2.3994,-0.565 3.1753,-1.4822 h -0.1406 c -1.0584,0.1412 -1.835,0 -2.3291,-0.3528 h 0.2122 c 1.1288,-0.3529 2.046,-0.7057 2.8929,-1.1295 -1.2707,-0.1405 -2.1872,-0.1405 -2.7523,-0.0703 -0.8462,0 -1.6228,0.2826 -2.2575,0.9882 -1.2706,1.4113 -2.1879,3.1757 -2.6117,5.2926 -0.4934,1.9047 -1.1287,2.54 -1.9046,1.9047 1.27,-1.4113 1.9046,-3.3862 1.9046,-5.786 0.0711,-1.4816 0.8476,-2.54 2.3292,-3.2456 2.0466,-0.7767 4.2338,-1.1295 6.4913,-0.9179 0.5651,0 1.1294,0.1412 1.7641,0.1412 0.7056,0 1.5532,0.071 2.3994,0.071 0.3529,0 0.7057,0 1.1288,0.0703 0.4948,0 0.9881,0 1.5532,0 z"
       style="fill:#009ee0;fill-rule:evenodd"
       id="path18" />
    <g
       id="Layer1005">
      <path
         d="m 82.668,84.8555 c -0.0706,-0.8469 -0.4234,-1.8344 -1.129,-2.9639 -0.847,-1.4822 -1.7641,-2.4697 -2.8932,-2.9638 -1.0585,-0.5643 -2.117,-0.7056 -3.1754,-0.4934 -0.9172,0.2819 -2.1875,0.9165 -3.6691,1.9047 l -4.7986,2.8225 10.5139,17.6409 2.9639,-1.7641 -3.9517,-6.6332 1.9761,-1.199 c 1.3406,-0.7759 2.3284,-1.4816 2.9634,-2.1169 0.4941,-0.4941 0.8469,-1.0585 1.0585,-1.7641 0.2822,-0.7759 0.2822,-1.6235 0.1412,-2.4697 z m -5.5745,-2.4698 c 0.5644,0.2116 0.9879,0.7057 1.4114,1.341 0.3528,0.5637 0.4937,1.0585 0.4937,1.5519 0,0.494 -0.1409,0.9881 -0.4235,1.4815 -0.2115,0.2826 -0.9172,0.8476 -2.1872,1.6938 l -1.6232,0.9179 -2.9634,-5.0104 1.4113,-0.8469 c 1.1993,-0.7057 1.905,-1.0585 2.1872,-1.1288 0.5647,-0.2122 1.129,-0.2122 1.6937,0 z"
         style="fill:#ffffff;fill-rule:evenodd"
         id="path19" />
    </g>
    <g
       id="Layer1006">
      <path
         d="m 114.21,76.1756 c 0,-1.8344 -0.565,-3.316 -1.6937,-4.5866 -1.1288,-1.1991 -2.7523,-1.6932 -4.8688,-1.6222 -1.4113,0 -2.4697,0.2109 -3.3869,0.7056 -0.9176,0.4231 -1.6232,1.1288 -2.1876,2.046 -0.494,0.9874 -0.7762,1.9756 -0.7056,2.9638 -0.0706,1.4815 0.4937,2.8928 1.5522,4.1635 0.8469,0.7759 2.1875,1.4816 3.9516,2.0459 l 2.8225,0.8469 c 0.6354,0.2826 1.0585,0.5644 1.1997,0.9172 0.2819,0.2116 0.3529,0.6347 0.3529,1.1998 0,0.7056 -0.2819,1.4112 -0.8469,1.9756 -0.5645,0.5644 -1.4113,0.8469 -2.5404,0.8469 -1.0584,0 -1.9756,-0.3528 -2.4697,-0.9179 -0.635,-0.6346 -1.0584,-1.6221 -1.27,-2.9631 l -3.3869,0.3528 c 0.2115,2.1872 0.9172,3.9513 2.0462,5.2923 1.1994,1.1287 2.8932,1.7641 5.0804,1.7641 1.5525,0 2.8228,-0.2825 3.7401,-0.7056 1.0584,-0.6354 1.835,-1.4113 2.3284,-2.3292 0.5651,-1.0585 0.776,-2.1872 0.776,-3.3159 0,-1.341 -0.2109,-2.3995 -0.6347,-3.2457 -0.4941,-0.9179 -1.1294,-1.6235 -1.9054,-2.1169 -0.9171,-0.5651 -2.1872,-1.0585 -3.8103,-1.4823 -1.6935,-0.5643 -2.7519,-0.9874 -3.1753,-1.4112 -0.3529,-0.2819 -0.4941,-0.7057 -0.4941,-1.1998 0,-0.6353 0.1412,-1.0584 0.4941,-1.27 0.7056,-0.5643 1.4818,-0.7765 2.4697,-0.7765 0.9172,0 1.6228,0.2122 2.1165,0.7056 0.5651,0.4947 0.9178,1.2707 0.9882,2.3291 z"
         style="fill:#ffffff;fill-rule:evenodd"
         id="path20" />
    </g>
    <g
       id="Layer1007">
      <path
         d="m 136.5079,93.1109 c -0.9882,-0.776 -1.4816,-1.8344 -1.4113,-3.1754 0,-1.2693 0.8469,-2.9631 2.3994,-5.08 1.5519,-2.0467 2.8929,-3.2457 4.1636,-3.5282 1.2693,-0.4231 2.3987,-0.2123 3.4572,0.5643 0.7056,0.5644 1.1294,1.27 1.27,2.1879 0.1412,0.8462 0,1.7641 -0.4934,2.7516 l 3.3862,1.27 c 0.6354,-1.5518 0.9179,-2.9631 0.8476,-4.0925 -0.2122,-2.046 -1.1294,-3.5992 -2.7523,-4.7982 -1.9053,-1.4816 -4.0222,-1.9054 -6.3507,-1.341 -2.3291,0.6353 -4.5163,2.3291 -6.5629,5.0807 -1.9047,2.4697 -2.8929,4.9395 -2.8929,7.4092 0.0703,2.3284 1.0585,4.1628 2.8226,5.5741 1.4815,1.1294 3.0348,1.6235 4.6569,1.4823 1.6235,-0.1413 3.3173,-0.9875 5.0104,-2.3988 l -1.9053,-3.0348 c -1.199,0.9882 -2.1873,1.6235 -3.1051,1.7641 -0.9875,0.1413 -1.8344,-0.0703 -2.54,-0.6353 z"
         style="fill:#ffffff;fill-rule:evenodd"
         id="path21" />
    </g>
  </g>
</svg>
