<?xml version="1.0" encoding="UTF-8" standalone="no"?>
<svg
   version="1.1"
   width="1.4585054in"
   height="1.4617176in"
   viewBox="0 0 105.01239 105.24367"
   id="svg16"
   sodipodi:docname="pinheirense_ec_pa.cdr"
   xmlns:inkscape="http://www.inkscape.org/namespaces/inkscape"
   xmlns:sodipodi="http://sodipodi.sourceforge.net/DTD/sodipodi-0.dtd"
   xmlns="http://www.w3.org/2000/svg"
   xmlns:svg="http://www.w3.org/2000/svg">
  <defs
     id="defs16" />
  <sodipodi:namedview
     id="namedview16"
     pagecolor="#ffffff"
     bordercolor="#000000"
     borderopacity="0.25"
     inkscape:showpageshadow="2"
     inkscape:pageopacity="0.0"
     inkscape:pagecheckerboard="0"
     inkscape:deskcolor="#d1d1d1"
     inkscape:document-units="in" />
  <g
     id="Layer1003"
     transform="matrix(1,0,0,0.88256427,-55.493603,-42.695021)">
    <path
       d="M 126.9857,48.3761 H 89.0139 c -6.8004,13.9218 -17.9895,21.3657 -33.5203,24.7695 2.763,19.2559 8.3266,37.0167 17.2843,53.9526 9.5876,18.1268 20.6861,31.1344 35.2219,40.5255 14.5357,-9.3911 25.6343,-22.3987 35.222,-40.5255 8.9577,-16.9359 14.5212,-34.6967 17.2842,-53.9526 -15.5307,-3.4038 -26.7199,-10.8477 -33.5203,-24.7695 z"
       style="fill:#1a4e80;fill-rule:evenodd"
       id="path10" />
    <path
       d="M 122.83,55.3992 H 93.1694 c -6.5306,11.401 -17.0664,19.0055 -29.7387,22.8683 2.7269,15.8343 8.0769,31.2661 15.5589,45.554 7.2137,13.776 16.3171,26.0985 29.0102,35.2462 12.6931,-9.1477 21.7964,-21.4702 29.01,-35.2462 7.4821,-14.2879 12.832,-29.7197 15.5591,-45.554 C 139.8965,74.4047 129.3607,66.8002 122.83,55.3992 Z"
       style="fill:#ffffff;fill-rule:evenodd"
       id="path11" />
    <path
       d="m 107.9998,62.1623 8.8007,27.1057 28.4992,-0.0058 -23.0598,16.746 8.8124,27.1028 -23.0522,-16.7559 -23.053,16.7559 8.8122,-27.102 -23.0598,-16.7468 28.4989,0.0062 z"
       style="fill:#1a4e80;fill-rule:evenodd"
       id="path12" />
    <path
       d="m 107.9998,88.2371 c 7.0332,0 12.7695,5.7362 12.7695,12.7694 0,7.0332 -5.7363,12.7694 -12.7695,12.7694 -7.0332,0 -12.7694,-5.7362 -12.7694,-12.7694 0,-7.0332 5.7362,-12.7694 12.7694,-12.7694 z"
       style="fill:#ffffff;fill-rule:evenodd"
       id="path13" />
    <path
       d="m 99.3581,102.6637 h 1.8985 c 2.1299,0 2.5273,-1.8101 2.5273,-2.5274 0,-1.5563 -0.927,-2.5383 -2.4613,-2.5383 h -3.6201 v 7.9241 h 1.6556 z m 0,-1.3686 v -2.3288 h 1.3133 c 1.0267,0 1.4571,0.3201 1.4571,1.0928 0,0.3529 0,1.236 -1.2362,1.236 z"
       style="fill:#1a4e80;fill-rule:evenodd"
       id="path14" />
    <path
       d="m 110.8916,97.598 h -5.8276 v 7.9241 h 6.015 v -1.4015 h -4.3922 v -2.0529 h 3.8627 v -1.4014 h -3.8627 v -1.6669 h 4.2048 z"
       style="fill:#1a4e80;fill-rule:evenodd"
       id="path15" />
    <path
       d="m 119.136,100.1915 c -0.0881,-1.17 -1.0484,-2.8032 -3.4214,-2.8032 -2.0417,0 -3.6419,1.4127 -3.6419,4.1826 0,2.7372 1.5121,4.1629 3.62,4.1629 1.9865,0 3.1122,-1.2048 3.4433,-2.9265 h -1.6557 c -0.1985,0.9711 -0.8386,1.4899 -1.7542,1.4899 -1.402,0 -1.9649,-1.2804 -1.9649,-2.704 0,-2.2406 1.1698,-2.7703 1.9649,-2.7703 1.3682,0 1.6222,0.8938 1.7542,1.3686 z"
       style="fill:#1a4e80;fill-rule:evenodd"
       id="path16" />
  </g>
</svg>
