<?xml version="1.0" encoding="UTF-8" standalone="no"?>
<svg
   version="1.1"
   width="1.4492944in"
   height="1.450008in"
   viewBox="0 0 104.3492 104.40058"
   id="svg13"
   sodipodi:docname="PONTEP~1.cdr"
   xmlns:inkscape="http://www.inkscape.org/namespaces/inkscape"
   xmlns:sodipodi="http://sodipodi.sourceforge.net/DTD/sodipodi-0.dtd"
   xmlns="http://www.w3.org/2000/svg"
   xmlns:svg="http://www.w3.org/2000/svg">
  <defs
     id="defs13" />
  <sodipodi:namedview
     id="namedview13"
     pagecolor="#ffffff"
     bordercolor="#000000"
     borderopacity="0.25"
     inkscape:showpageshadow="2"
     inkscape:pageopacity="0.0"
     inkscape:pagecheckerboard="0"
     inkscape:deskcolor="#d1d1d1"
     inkscape:document-units="in" />
  <g
     id="Layer1003"
     transform="matrix(1,0,0,0.8723486,-55.825199,-42.013358)">
    <path
       d="m 160.1693,122.0523 v 3e-4 c -0.1378,-9.3334 -3.2244,-16.304 -6.2099,-23.045 -2.1217,-5.1015 -3.0247,-8.6782 -3.324,-13.1702 0.2352,-5.4059 1.9322,-9.6679 4.5934,-14.7891 l 2.2494,-4.3284 -19.2822,-18.5587 -0.3454,0.2077 -3.9397,2.3692 c -7.3965,4.4471 -16.5883,6.9868 -25.8823,7.1517 -9.7216,0.1728 -18.7195,-2.192 -26.0211,-6.8383 l -4.3084,-2.7418 -19.2803,18.3724 2.233,4.3415 c 1.8987,3.692 3.226,7.0025 4.1761,10.4167 0.2145,1.4634 0.3191,2.825 0.3191,4.1612 0,5.0791 -1.547,9.4473 -3.2188,13.4117 -2.0199,4.5721 -4.5389,10.2727 -5.7428,16.4237 l -0.0484,0.2475 -0.0292,0.2509 c -0.1875,1.6067 -0.2826,3.2402 -0.2826,4.8537 0,6.8489 1.6727,13.4221 4.8372,19.0098 l 0.2191,0.3871 0.2692,0.3534 c 2.411,3.1626 5.0615,5.6644 8.1027,7.6486 l 0.1523,0.0992 0.1568,0.0907 c 5.107,2.9396 10.4505,4.9254 15.6181,6.8459 6.8226,2.5348 13.2651,4.929 18.5016,9.2448 l 4.0888,3.3703 4.1378,-3.3102 c 3.3748,-2.7 6.7794,-4.6905 11.0379,-6.4551 2.3041,-0.9431 4.6722,-1.8013 7.1794,-2.7097 5.3467,-1.9383 10.8747,-3.942 16.1826,-6.9756 l 0.2244,-0.1276 0.215,-0.1472 c 10.4443,-7.1215 12.6116,-16.4146 13.3971,-25.396 l 0.0292,-0.3319 z"
       style="fill:#1b1918;fill-rule:evenodd"
       id="path10" />
    <path
       d="m 135.6461,53.6245 c -7.8945,4.7464 -17.6822,7.4577 -27.558,7.6328 -10.384,0.1845 -20.0278,-2.362 -27.8887,-7.3646 l -2.0848,-1.3261 -15.5481,14.8155 1.0805,2.101 c 2.0461,3.9778 3.4719,7.5612 4.4847,11.2596 0.256,1.6794 0.3777,3.2755 0.3777,4.8111 0,5.2719 -1.4019,9.8478 -3.4817,14.7782 -1.9671,4.4521 -4.4082,9.9853 -5.5368,15.7522 l -0.0237,0.1193 -0.0139,0.1216 c -0.1742,1.4931 -0.2601,2.9866 -0.2601,4.469 0,6.217 1.5141,12.2489 4.3999,17.3452 l 0.1059,0.1871 0.1306,0.1711 c 2.2035,2.8906 4.5118,5.0737 7.2643,6.8697 l 0.074,0.0481 0.0762,0.0442 c 4.8641,2.7998 10.0757,4.7363 15.1156,6.6094 7.0923,2.635 13.7909,5.1243 19.4644,9.8006 l 1.9785,1.6307 2.0022,-1.6017 c 3.6333,-2.9064 7.2888,-5.0459 11.8529,-6.937 2.3783,-0.9735 4.891,-1.8837 7.3212,-2.7646 5.2116,-1.8893 10.6012,-3.8427 15.6582,-6.7323 l 0.1085,-0.0622 0.1037,-0.0708 c 8.7698,-5.9799 11.116,-13.4825 11.9409,-22.9075 l 0.014,-0.1608 -0.003,-0.1612 c -0.1271,-8.6276 -3.077,-15.307 -5.9363,-21.7639 -2.313,-5.5583 -3.296,-9.5063 -3.606,-14.4772 0.2319,-6.0788 2.0767,-10.7775 4.981,-16.3656 l 1.0882,-2.0948 -15.6082,-15.023 z"
       style="fill:#ffffff;fill-rule:evenodd"
       id="path11" />
    <path
       d="m 154.4861,122.1365 c -0.112,-7.6066 -2.353,-13.2163 -5.7581,-20.9059 -2.4103,-5.7874 -3.476,-10.1022 -3.7899,-15.3567 0.2295,-6.5395 2.2641,-11.7058 5.2472,-17.447 l 0.2902,-0.5582 -13.083,-12.5924 -0.5531,0.3325 c -8.2382,4.953 -18.4337,7.7813 -28.7099,7.9636 -10.8401,0.193 -20.9281,-2.4789 -29.1731,-7.7256 l -0.5562,-0.3539 -12.9824,12.3709 0.2886,0.5603 c 2.1454,4.1714 3.6377,7.935 4.6959,11.8385 0.2913,1.8681 0.4276,3.6347 0.4276,5.3306 0,5.6122 -1.4796,10.4521 -3.674,15.6514 -1.9173,4.3397 -4.3106,9.7567 -5.3924,15.2841 l -0.0064,0.0324 -0.0042,0.0319 c -0.1638,1.4065 -0.2451,2.8115 -0.2451,4.2059 0,5.8177 1.411,11.4506 4.1001,16.1991 l 0.0286,0.0502 0.0348,0.0455 c 2.0384,2.6741 4.1636,4.6867 6.6881,6.3341 l 0.0196,0.0129 0.0203,0.012 c 4.6966,2.7033 9.816,4.6055 14.7669,6.4451 6.9599,2.5862 14.1567,5.2607 20.1307,10.1849 l 0.5275,0.4348 0.534,-0.4273 c 3.811,-3.0481 7.6386,-5.2899 12.4132,-7.2681 2.4311,-0.9948 4.9658,-1.9135 7.4178,-2.8022 5.1205,-1.8559 10.4144,-3.7746 15.2988,-6.5661 l 0.0287,-0.0165 0.0281,-0.0186 c 8.0171,-5.4671 10.1709,-12.4277 10.9377,-21.1967 l 0.005,-0.0429 z M 146.1843,72.95 141.251,75.0689 V 61.3276 c 3.0254,2.9117 6.6724,6.4214 7.1529,6.8844 -0.8213,1.603 -1.5647,3.1688 -2.2196,4.738 z M 88.6217,62.3077 c 3.9213,1.3379 8.0744,2.232 12.3897,2.6619 V 92.3544 L 88.6217,97.677 Z m 26.1442,2.4756 c 4.3757,-0.5469 8.6664,-1.5541 12.732,-2.9786 v 19.1719 l -12.732,5.4695 z m -46.0637,37.1286 c 2.28,-5.4019 3.8151,-10.4341 3.8151,-16.2913 0,-1.7981 -0.1445,-3.6746 -0.4571,-5.6629 l -0.0073,-0.045 -0.0118,-0.0439 c -1.0423,-3.8586 -2.4994,-7.5782 -4.5545,-11.6495 0.4971,-0.4737 4.336,-4.132 7.3805,-7.033 v 42.399 l -8.43,3.6212 c 0.757,-1.8793 1.5444,-3.6629 2.2651,-5.2946 z m -5.2792,14.9085 c 0.4947,-2.5132 1.2783,-5.0202 2.1647,-7.4163 l 79.7437,-34.2547 c -1.1939,3.3381 -1.9451,6.7776 -2.0789,10.7076 l -7e-4,0.0387 0.002,0.0394 c 0.2611,4.4196 1.0588,8.0143 2.2285,11.492 l -0.0156,-0.0376 -80.3147,34.6147 c -1.2895,-3.4865 -1.9598,-7.2974 -1.9598,-11.2013 0,-1.3198 0.0769,-2.6504 0.231,-3.9825 z m 37.5884,37.1202 c -4.0091,-2.135 -8.2302,-3.7495 -12.3897,-5.2985 V 123.723 l 12.3897,-5.34 z m -33.962,-17.8187 c -0.4646,-0.8241 -0.8879,-1.6772 -1.2708,-2.5537 l 9.0885,-3.9169 v 13.2357 c -0.5409,-0.2851 -1.0772,-0.5782 -1.6064,-0.8823 -2.3343,-1.5267 -4.3099,-3.3981 -6.2113,-5.8828 z m 53.0807,15.1433 c -1.9174,0.7944 -3.6858,1.6329 -5.3642,2.5447 v -41.3551 l 12.732,-5.4876 v 41.5117 c -2.4311,0.8815 -4.9405,1.7927 -7.3678,2.7863 z m 22.4916,-9.2564 c -0.4523,0.2577 -0.9104,0.5065 -1.3707,0.7502 v -41.7185 l 4.7798,-2.0605 c 0.3578,0.9678 0.7416,1.9343 1.15,2.9156 3.3223,7.5029 5.5054,12.9582 5.6203,20.2248 -0.7484,8.4955 -2.72,14.79 -10.1794,19.8884 z"
       style="fill:#1b1918;fill-rule:evenodd"
       id="path12" />
    <path
       d="m 67.3646,128.6274 2.3869,-17.6198 3.4103,-1.4787 8.1837,12.9591 -3.4104,1.4769 -1.4771,-2.7257 -5.4563,2.3863 -0.4549,3.6362 z m 3.9776,-8.0729 3.6376,-1.5912 -2.9558,-5.3406 z m 14.7785,-3.5215 0.5673,3.0686 -3.0682,1.3628 -0.6828,-3.0685 z m 2.6133,2.1587 2.2744,-17.5053 3.5244,-1.5919 8.1839,13.0714 -3.4104,1.3667 -1.4769,-2.6152 -5.4567,2.2724 -0.3407,3.6388 z m 3.9795,-7.958 3.6372,-1.7048 -2.9558,-5.3422 z m 14.7781,-3.6363 0.5676,3.0692 -3.1823,1.4791 -0.569,-3.1839 z m 3.8638,1.7049 -2.9558,-15.2331 6.4806,-2.8417 v 0 c 1.3627,-0.6809 2.3866,-0.6809 3.2959,-0.3406 0.7956,0.3406 1.4775,1.0241 1.9338,1.9316 0.3392,1.0241 0.4535,1.9338 0.3392,3.0703 -0.1142,1.0241 -0.5676,2.0458 -1.1348,2.8415 -0.6847,0.9097 -1.4803,1.591 -2.6151,2.1599 v 0 l -3.4102,1.4769 1.1343,5.5708 z m 1.4773,-9.4355 2.9572,-1.3633 v 0 c 0.453,-0.1137 0.7956,-0.5689 1.0235,-0.9093 0.4534,-0.3409 0.5671,-0.9097 0.5671,-1.3649 0,-0.5671 0,-1.0223 -0.2279,-1.5912 -0.2284,-0.4545 -0.6813,-0.7955 -1.0239,-0.9097 -0.4529,0 -1.0207,0.1142 -1.7054,0.3408 v 0 l -2.6129,1.1378 z m 12.279,0 0.5672,3.1839 -3.1823,1.3644 -0.5705,-3.1839 z m 3.7495,1.7048 -2.8402,-15.2314 6.4787,-2.8413 v 0 c 1.2492,-0.683 2.2732,-0.683 3.1825,-0.3425 0.9097,0.3425 1.591,1.0239 1.9331,1.9331 0.4535,1.0224 0.5677,2.0464 0.4535,3.0687 -0.1142,1.0235 -0.5672,2.0474 -1.1348,2.9555 -0.6842,0.7973 -1.4797,1.4787 -2.6147,2.0476 v 0 l -3.5248,1.4768 1.2489,5.5708 z m 1.5912,-9.4338 2.9572,-1.3651 v 0 c 0.453,-0.1141 0.7955,-0.5671 1.0239,-0.9092 0.3394,-0.3408 0.5672,-0.9086 0.5672,-1.3631 0,-0.5689 0,-1.0241 -0.3421,-1.4787 -0.2251,-0.5671 -0.5676,-0.9098 -0.9097,-1.0223 -0.4535,0 -1.0206,0.1125 -1.7055,0.3408 v 0 l -2.6117,1.1361 z m 12.1648,0 0.682,3.1817 -3.1829,1.365 -0.5705,-3.1829 z"
       style="fill:#1b1918;fill-rule:evenodd"
       id="path13" />
  </g>
</svg>
