<?xml version="1.0" encoding="UTF-8" standalone="no"?>
<svg
   version="1.1"
   width="1.2984072in"
   height="1.2944729in"
   viewBox="0 0 93.485318 93.202051"
   id="svg13"
   sodipodi:docname="PORTUG~1.cdr"
   xmlns:inkscape="http://www.inkscape.org/namespaces/inkscape"
   xmlns:sodipodi="http://sodipodi.sourceforge.net/DTD/sodipodi-0.dtd"
   xmlns="http://www.w3.org/2000/svg"
   xmlns:svg="http://www.w3.org/2000/svg">
  <defs
     id="defs13" />
  <sodipodi:namedview
     id="namedview13"
     pagecolor="#ffffff"
     bordercolor="#000000"
     borderopacity="0.25"
     inkscape:showpageshadow="2"
     inkscape:pageopacity="0.0"
     inkscape:pagecheckerboard="0"
     inkscape:deskcolor="#d1d1d1"
     inkscape:document-units="in" />
  <g
     id="Layer1003"
     transform="matrix(0.99999996,0,0,0.79682829,-61.257293,-39.456312)"
     inkscape:export-filename="..\..\..\..\TIMES SVG\portuguesa.svg"
     inkscape:export-xdpi="110.91"
     inkscape:export-ydpi="110.91">
    <path
       d="M 108.0001,166.483 C 51.8636,133.3983 60.2793,79.6882 64.0249,59.4495 c 4.7454,8.6366 13.4688,9.6532 19.0979,7.0932 7.0118,-3.1883 10.4051,-10.2914 9.6034,-17.026 8.6952,10.8494 21.8551,10.8478 30.5476,0.0027 -0.8017,6.7341 2.5923,13.8377 9.6035,17.0255 5.6291,2.5594 14.3525,1.5434 19.0979,-7.0926 3.7452,20.2387 12.1613,73.9485 -43.9751,107.0307 z"
       style="fill:#e41e15;fill-rule:evenodd"
       id="path10" />
    <path
       d="M 108.0001,159.9483 C 63.815,133.3148 65.4628,87.7132 67.9491,70.8374 78.3516,77.0398 91.923,70.8291 96.6394,60.3017 c 7.39,3.742 15.331,3.7448 22.7208,0.0024 4.7169,10.5272 18.2879,16.7379 28.6909,10.5354 2.4863,16.8759 4.134,62.4774 -40.051,89.1088 z"
       style="fill:#ffffff;fill-rule:evenodd"
       id="path11" />
    <path
       d="M 113.2364,136.0381 V 99.7427 c 3.8706,0.3881 8.1955,1.192 13.9454,2.412 v 0 l -0.5766,0.105 v 0 c -3.0499,-0.6355 -5.2613,0.6615 -5.6555,2.0029 -0.2694,0.9183 0.2974,1.8799 1.9974,2.311 1.7381,0.4403 2.991,-1.113 4.9325,-0.6054 1.7994,0.4706 3.1328,2.3846 5.7581,2.8497 1.2178,0.2149 3.0538,-0.1495 3.6404,-1.7325 0.3832,-1.0336 0.0285,-2.1333 0.3996,-3.6233 0.4526,-1.8188 1.6732,-1.496 2.1729,-3.968 0.5449,-2.4626 -0.7004,-2.6644 -0.3739,-4.5096 0.2667,-1.5125 1.0375,-2.3724 1.1084,-3.4725 0.1079,-1.6853 -1.4212,-2.765 -2.6214,-3.0636 -2.5875,-0.6427 -4.5838,0.5636 -6.4191,0.2617 -1.9798,-0.3261 -2.4929,-2.2554 -4.2599,-2.5599 -1.7275,-0.2975 -2.6375,0.3502 -2.7645,1.2985 -0.1853,1.3862 1.2893,3.4673 4.3347,4.1264 v 0 l 0.4915,0.3321 v 0 c -6.6912,-1.4184 -11.6499,-2.3312 -16.11,-2.7391 v -8.4676 l 0.2226,0.5497 v 0 c 0.0125,3.1158 1.7409,4.9912 3.1356,5.0979 0.954,0.0726 1.7766,-0.6823 1.8447,-2.4341 0.0698,-1.7918 -1.7105,-2.6951 -1.6181,-4.6993 0.0868,-1.8577 1.6813,-3.5593 1.5906,-6.2244 -0.0424,-1.2359 -0.7808,-2.9557 -2.4517,-3.2004 -1.0908,-0.1599 -2.092,0.4152 -3.6271,0.3623 -1.8731,-0.0648 -1.8111,-1.3255 -4.3329,-1.3041 -2.522,-0.0248 -2.46,1.2365 -4.3335,1.3009 -1.535,0.0528 -2.5362,-0.5223 -3.6267,-0.3629 -1.671,0.2452 -2.4093,1.9644 -2.4514,3.2009 -0.0913,2.6645 1.504,4.3667 1.5899,6.2245 0.0927,2.0047 -1.6878,2.9074 -1.6179,4.6988 0.0684,1.7522 0.891,2.5076 1.845,2.4345 1.3947,-0.1067 3.1229,-1.9997 3.1354,-5.116 v 0 l 0.2224,-0.5411 v 8.482 c -4.4599,0.4086 -9.418,1.3228 -16.1097,2.743 v 0 l 0.4914,-0.332 v 0 c 3.0455,-0.6592 4.5203,-2.7397 4.3349,-4.1263 -0.1274,-0.9486 -1.0366,-1.5961 -2.7647,-1.2981 -1.7672,0.304 -2.28,2.2327 -4.2601,2.5588 -1.8353,0.3018 -3.8316,-0.9045 -6.4189,-0.2613 -1.2002,0.2987 -2.729,1.3784 -2.621,3.0636 0.0703,1.0997 0.8408,1.9602 1.1083,3.4721 0.3265,1.8462 -0.9197,2.0475 -0.3744,4.5096 0.5003,2.472 1.7208,2.1492 2.1731,3.968 0.3709,1.4911 0.0165,2.5901 0.3997,3.6233 0.587,1.5839 2.4226,1.9485 3.6406,1.7324 2.6252,-0.4652 3.9582,-2.3784 5.7578,-2.8491 1.9413,-0.5075 3.1947,1.0462 4.9324,0.6053 1.6999,-0.4311 2.2674,-1.3931 1.9975,-2.3108 -0.3942,-1.3422 -2.6053,-2.6392 -5.6555,-2.003 v 0 l -0.5762,-0.1051 v 0 c 5.7494,-1.2217 10.0737,-2.0265 13.9448,-2.4163 v 36.3269 l -0.2523,-0.5876 v 0 c -0.012,-3.1156 -1.7108,-4.991 -3.1055,-5.0977 -0.954,-0.0731 -1.7766,0.682 -1.845,2.4341 -0.0699,1.7915 1.7106,2.6948 1.6179,4.6988 -0.0859,1.8582 -1.6812,3.5603 -1.5899,6.2247 0.0421,1.2362 0.7804,2.9561 2.4514,3.2009 1.0905,0.1596 2.0917,-0.4153 3.6267,-0.3625 1.8735,0.0644 1.8115,1.3257 4.3335,1.3004 2.5218,0.0215 2.4598,-1.2393 4.3329,-1.3035 1.5351,-0.0529 2.5363,0.5218 3.6271,0.3623 1.6709,-0.2451 2.4093,-1.9648 2.4517,-3.201 0.0907,-2.6646 -1.5038,-4.3662 -1.5906,-6.2248 -0.0924,-2.0039 1.6879,-2.9072 1.6181,-4.6985 -0.0681,-1.7522 -0.8907,-2.507 -1.8447,-2.4342 -1.3947,0.1066 -3.1172,1.9821 -3.1292,5.0978 v 0 z"
       style="fill:#007d2b;fill-rule:evenodd"
       id="path12" />
    <path
       d="m 109.3545,82.7936 c -0.0289,-0.7165 -0.6297,-1.2877 -1.3544,-1.2877 -0.7199,0 -1.3171,0.5614 -1.3548,1.2701 0,3.3307 0,6.661 0,9.9912 -5.032,0.1408 -10.2833,1.0556 -18.1913,2.7474 -0.6945,0.177 -1.1285,0.8841 -0.978,1.5933 0.1495,0.7032 0.8232,1.1712 1.524,1.0607 7.6595,-1.6335 12.7612,-2.5187 17.6453,-2.6579 0,12.8145 0,25.6285 0,38.4438 0.0377,0.7087 0.6349,1.2702 1.3548,1.2702 0.7247,0 1.3255,-0.5719 1.3544,-1.2881 0,-12.8092 0,-25.6179 0,-38.4264 4.8842,0.1375 9.9859,1.0221 17.6459,2.6528 0.7004,0.11 1.374,-0.3568 1.5236,-1.0606 0.1512,-0.7093 -0.2838,-1.4158 -0.9781,-1.5933 -7.908,-1.6896 -13.1591,-2.6033 -18.1914,-2.7419 0,-3.3248 0,-6.649 0,-9.9736 z"
       style="fill:#ffffff;fill-rule:evenodd"
       id="path13" />
  </g>
</svg>
