<?xml version="1.0" encoding="UTF-8" standalone="no"?>
<svg
   version="1.1"
   width="1.6659348in"
   height="1.6659361in"
   viewBox="0 0 119.94731 119.9474"
   id="svg13"
   sodipodi:docname="natal.cdr"
   xmlns:inkscape="http://www.inkscape.org/namespaces/inkscape"
   xmlns:sodipodi="http://sodipodi.sourceforge.net/DTD/sodipodi-0.dtd"
   xmlns="http://www.w3.org/2000/svg"
   xmlns:svg="http://www.w3.org/2000/svg">
  <defs
     id="defs13" />
  <sodipodi:namedview
     id="namedview13"
     pagecolor="#ffffff"
     bordercolor="#000000"
     borderopacity="0.25"
     inkscape:showpageshadow="2"
     inkscape:pageopacity="0.0"
     inkscape:pagecheckerboard="0"
     inkscape:deskcolor="#d1d1d1"
     inkscape:document-units="in" />
  <g
     id="Layer1003"
     transform="translate(-48.026299,-48.026299)">
    <path
       d="m 108.0001,167.9737 c 33.1219,0 59.9735,-26.8517 59.9735,-59.9738 0,-33.1219 -26.8516,-59.9736 -59.9735,-59.9736 -33.1221,0 -59.9738,26.8517 -59.9738,59.9736 0,33.1221 26.8517,59.9738 59.9738,59.9738 z"
       style="fill:#e41e15;fill-rule:evenodd"
       id="path10" />
    <path
       d="m 108.0001,166.1148 c 32.0954,0 58.1147,-26.0193 58.1147,-58.1149 0,-32.0954 -26.0193,-58.1147 -58.1147,-58.1147 -32.0956,0 -58.1149,26.0193 -58.1149,58.1147 0,32.0956 26.0193,58.1149 58.1149,58.1149 z"
       style="fill:#ffffff;fill-rule:evenodd"
       id="path11" />
    <path
       d="m 108.0001,158.3776 c 27.8222,0 50.3775,-22.5553 50.3775,-50.3777 0,-27.8222 -22.5553,-50.3775 -50.3775,-50.3775 -27.8224,0 -50.3777,22.5553 -50.3777,50.3775 0,27.8224 22.5553,50.3777 50.3777,50.3777 z"
       style="fill:#e41e15;fill-rule:evenodd"
       id="path12" />
    <path
       d="m 87.7241,79.7623 c -7.2958,5.248 -12.4751,13.2536 -14.0119,22.4908 l 13.971,-0.01 z m -0.0409,30.5444 -14.3695,0.0483 c 0.3127,4.8275 1.6011,9.3355 3.6747,13.4259 l -8.1848,4.9505 c -3.279,-6.1865 -5.1362,-13.2422 -5.1362,-20.7315 0,-20.6012 14.0528,-37.921 33.0955,-42.8959 l 0.0304,85.7866 c -3.1766,-0.8316 -6.2141,-2.0066 -9.0706,-3.4831 z m 39.6207,-42.2269 c 8.8245,4.2753 16.0174,11.3904 20.3909,20.1579 l -8.3506,4.716 c -1.0964,-2.2798 -2.3326,-4.4214 -3.8786,-6.3921 l 5e-4,42.7459 c 2.565,-3.3014 4.5477,-7.0777 5.7944,-11.1744 l 8.9585,3.4307 c -3.7191,11.585 -12.0744,21.0932 -22.8818,26.3402 z m -16.3199,34.1638 h 9.1425 v 8.0631 h -9.1425 l 0.006,41.9267 c -0.9883,0.0658 -1.9852,0.0992 -2.99,0.0992 -1.7187,0 -3.4145,-0.0978 -5.0823,-0.2881 l 0.003,-88.0892 c 1.6668,-0.1901 3.3619,-0.2879 5.0797,-0.2879 4.5783,0 8.9944,0.6942 13.1492,1.9828 l 0.0328,10.1759 c -3.1897,-1.3084 -6.566,-2.1561 -10.1481,-2.4606 z"
       style="fill:#ffffff;fill-rule:evenodd"
       id="path13" />
  </g>
</svg>
