<?xml version="1.0" encoding="UTF-8" standalone="no"?>
<svg
   version="1.1"
   width="1.6677458in"
   height="1.6693062in"
   viewBox="0 0 120.0777 120.19004"
   id="svg17"
   sodipodi:docname="remo.cdr"
   xmlns:inkscape="http://www.inkscape.org/namespaces/inkscape"
   xmlns:sodipodi="http://sodipodi.sourceforge.net/DTD/sodipodi-0.dtd"
   xmlns="http://www.w3.org/2000/svg"
   xmlns:svg="http://www.w3.org/2000/svg">
  <defs
     id="defs17" />
  <sodipodi:namedview
     id="namedview17"
     pagecolor="#ffffff"
     bordercolor="#000000"
     borderopacity="0.25"
     inkscape:showpageshadow="2"
     inkscape:pageopacity="0.0"
     inkscape:pagecheckerboard="0"
     inkscape:deskcolor="#d1d1d1"
     inkscape:document-units="in" />
  <g
     id="Layer1003"
     transform="matrix(1,0,0,0.91296656,-47.961098,-38.505367)">
    <path
       d="M 130.9607,42.1761 H 81.4364 l -1.2219,3.3818 c -3.2468,8.9844 -12.3294,12.3791 -19.7467,12.56 l -2.8613,0.1182 -9.6454,9.6921 0.1057,2.2538 c 1.0764,22.9783 5.5673,42.2582 13.7295,58.941 l 0.0424,0.0848 c 4.2447,8.2854 9.2354,15.6106 15.2571,22.3933 l 0.0508,0.057 0.0519,0.0553 c 8.1526,8.6515 17.7683,15.7193 28.5795,21.006 l 2.2595,1.1045 2.256,-1.1118 c 7.1606,-3.5299 13.6293,-7.6911 19.7744,-12.7225 l 0.0467,-0.0375 0.0452,-0.0391 c 3.6916,-3.1686 7.2469,-6.6896 11.1881,-11.0816 l 0.0853,-0.0952 0.0809,-0.0998 c 2.3064,-2.8431 4.6156,-5.9588 6.8627,-9.2596 l 0.0635,-0.094 0.0598,-0.0962 c 4.7097,-7.6205 8.5128,-15.553 11.6265,-24.2516 l 0.0302,-0.0827 0.0263,-0.0843 c 2.8651,-8.965 4.8792,-17.6727 6.1574,-26.6213 l 0.0109,-0.079 c 0.7468,-5.879 1.2768,-11.8918 1.5743,-17.8709 l 0.1131,-2.2775 -9.4195,-9.372 -2.0024,-0.0746 c -4.8233,-0.1797 -8.4209,-1.0664 -12.0091,-2.9557 -4.2283,-2.4529 -7.0119,-5.5626 -8.7498,-9.7837 l -1.4817,-3.5572 z"
       style="fill:#092269;fill-rule:evenodd"
       id="path10" />
    <path
       d="M 130.9607,44.1808 H 82.8435 l -0.7439,2.0584 c -3.5902,9.935 -13.5032,13.6856 -21.5831,13.8827 l -2.0429,0.0843 -8.4688,8.51 0.0643,1.372 c 1.0635,22.6995 5.4884,41.7216 13.5279,58.1539 l 0.0258,0.0513 c 4.1666,8.1335 9.0641,15.3222 14.9722,21.977 l 0.0307,0.0348 0.0316,0.0336 c 7.9867,8.4753 17.4076,15.399 28.0014,20.5801 l 1.3753,0.6726 1.3732,-0.677 c 7.0223,-3.4617 13.3655,-7.5422 19.3914,-12.4757 l 0.0557,-0.0467 c 3.6237,-3.1109 7.12,-6.5738 11.0015,-10.8998 l 0.0522,-0.0578 0.0491,-0.0604 c 2.2712,-2.8007 4.5469,-5.871 6.7628,-9.1259 l 0.0386,-0.0568 0.0368,-0.0587 c 4.6346,-7.4997 8.3784,-15.3087 11.4443,-23.873 l 0.0183,-0.0507 0.0165,-0.0511 c 2.8303,-8.8569 4.8195,-17.4579 6.082,-26.2947 0.7468,-5.8766 1.272,-11.8378 1.5668,-17.7661 l 0.0693,-1.3861 -8.2315,-8.1896 -1.2185,-0.0454 c -5.16,-0.1923 -9.0244,-1.1524 -12.9064,-3.2046 -4.5863,-2.6524 -7.7385,-6.1766 -9.6322,-10.775 l -0.9638,-2.3156 z"
       style="fill:#ffffff;fill-rule:evenodd"
       id="path11" />
    <path
       d="m 137.5355,145.4096 c 2.3411,-2.8864 4.5546,-5.9015 6.6069,-8.9162 4.6186,-7.4726 8.2104,-15.0419 11.1618,-23.2847 2.7256,-8.5314 4.7146,-17.0307 5.9653,-25.7865 0.7373,-5.8053 1.2506,-11.6746 1.5394,-17.4798 l -6.3823,-6.3504 c -5.1637,-0.1925 -9.654,-1.1226 -14.3049,-3.5922 -5.0674,-2.9187 -8.7554,-6.8637 -11.001,-12.316 l -0.16,-0.385 H 85.0323 C 81.3118,57.5942 71.1126,62.9825 60.5926,63.2391 l -0.7697,0.032 -6.6391,6.6713 c 0.9301,19.853 4.4581,39.0328 13.2141,56.9294 4.0091,7.826 8.6916,14.7531 14.529,21.3284 7.8578,8.3388 16.8703,14.9136 27.1016,19.9172 6.7673,-3.3356 12.9572,-7.3126 18.7947,-12.0918 3.8484,-3.3035 7.3443,-6.8635 10.7123,-10.616 z"
       style="fill:#092269;fill-rule:evenodd"
       id="path12" />
    <g
       id="Layer1004">
      <path
         d="m 100.4912,140.278 -1.5073,6.2225 c 0,4.137 -7.1523,2.277 -9.0125,1.3147 0.7377,-2.0524 2.4377,-8.4671 2.9827,-10.5518 1.3471,1.1545 4.9072,2.6618 7.5371,3.0146 z"
         style="fill:#ffffff;fill-rule:evenodd"
         id="path13" />
      <path
         d="m 101.9988,78.5699 c -0.385,-3.56 0,-5.8371 1.5074,-8.2748 14.8499,-6.7673 44.3887,14.1121 35.5371,23.8944 -2.2457,5.6448 -9.7828,-5.9976 -13.7274,-9.9747 -3.7525,-3.7525 -19.7249,-8.6597 -23.3171,-5.6449 z"
         style="fill:#ffffff;fill-rule:evenodd"
         id="path14" />
      <path
         d="M 110.4659,140.118 C 69.06,138.7707 67.5524,91.5595 89.3942,72.9251 c 0.1922,4.3299 1.1226,6.7675 1.1226,11.4821 0,1.8924 -4.8754,12.6046 -5.2601,15.0742 -2.277,16.7098 6.5749,30.2767 23.8944,31.0146 l 7.6469,-0.385 c 0,0.385 2.0479,6.0849 2.0479,8.9072 -1.0904,0.9618 -6.6801,0.907 -8.38,1.0998 z"
         style="fill:#ffffff;fill-rule:evenodd"
         id="path15" />
      <path
         d="m 116.4957,118.0835 c -3.3996,-6.7993 -6.9599,-11.4818 -15.6195,-8.8516 v 18.2489 c -6.7672,-2.2447 -9.0446,-3.9448 -9.4294,-17.672 0,-17.1269 3.0149,-32.9387 -5.0675,-48.1733 l -0.1925,-0.7697 c 4.7148,-4.6828 8.2749,-1.3151 13.7593,-1.3151 6.5749,-5.0676 16.7419,-6.19 25.9469,1.5075 3.9453,3.0148 6.96,12.0593 5.8376,14.4969 -0.3854,-0.93 -3.9774,-2.2451 -7.3449,-4.5221 -0.385,-0.3529 -2.0845,-3.945 -5.0996,-5.4526 -7.858,-3.9449 -16.5175,-3.3676 -18.6024,8.1143 -0.7376,8.0824 0.1925,15.8121 0,23.8944 11.4821,2.6302 15.2668,-4.3298 21.4247,-13.5668 3.0151,1.8923 5.3973,5.1595 6.5517,7.0197 -1.8918,7.537 -7.6744,10.6846 -11.5871,13.8597 2.598,2.0524 4.4904,3.2074 5.8051,4.9071 6.9602,8.6597 3.1756,28.2241 9.7825,36.6917 -2.0849,4.137 -8.6599,2.8225 -10.5522,-2.0533 -1.8605,-8.4988 -3.5602,-17.8966 -5.6127,-26.3637 z"
         style="fill:#ffffff;fill-rule:evenodd"
         id="path16" />
      <path
         d="m 130.7683,133.8957 c -1.5078,-4.1376 -1.1228,-6.9601 -1.3154,-9.9748 5.645,-4.1372 4.7146,-16.5813 12.0593,-8.3069 -0.5771,6.7996 -6.2219,16.5814 -10.7439,18.2817 z"
         style="fill:#ffffff;fill-rule:evenodd"
         id="path17" />
    </g>
  </g>
</svg>
