<?xml version="1.0" encoding="UTF-8" standalone="no"?>
<svg
   version="1.1"
   width="1.5913393in"
   height="1.5915147in"
   viewBox="0 0 114.57643 114.58906"
   id="svg24"
   sodipodi:docname="rio_branco_ac-es.cdr"
   xmlns:inkscape="http://www.inkscape.org/namespaces/inkscape"
   xmlns:sodipodi="http://sodipodi.sourceforge.net/DTD/sodipodi-0.dtd"
   xmlns="http://www.w3.org/2000/svg"
   xmlns:svg="http://www.w3.org/2000/svg">
  <defs
     id="defs24" />
  <sodipodi:namedview
     id="namedview24"
     pagecolor="#ffffff"
     bordercolor="#000000"
     borderopacity="0.25"
     inkscape:showpageshadow="2"
     inkscape:pageopacity="0.0"
     inkscape:pagecheckerboard="0"
     inkscape:deskcolor="#d1d1d1"
     inkscape:document-units="in" />
  <g
     id="Layer1003"
     transform="matrix(1,0,0,0.86263165,-50.711602,-35.869688)">
    <path
       d="M 145.7751,41.5817 H 70.0333 l -4.6749,5.0639 0.2946,0.2963 c 0.0735,0.0735 1.8298,1.8195 4.7748,3.187 1.4793,0.687 2.3101,1.7049 2.2798,2.7932 -0.0216,0.7684 -0.4955,1.429 -1.2371,1.7239 -1.2056,0.4799 -2.7874,-0.0959 -4.2316,-1.5397 l -0.0337,-0.0339 -4.6138,-2.9359 -10.8889,12.1216 0.4971,0.26 c 20.2395,10.5801 11.0805,34.957 6.2033,44.9468 -4.7866,9.804 -10.7439,22.0063 -5.8825,33.4285 3.8525,9.0514 13.7487,16.039 30.2546,21.3603 23.5031,7.5766 24.4514,11.1363 24.7468,11.4314 0,0 0.3145,0.4755 0.4779,0.7332 0.206,-0.2714 0.4984,-0.7809 0.4984,-0.7809 0.3381,-0.3383 1.223,-3.8071 24.7263,-11.3837 16.5054,-5.3213 26.4021,-12.3089 30.2546,-21.3603 4.8617,-11.4222 -1.0952,-23.6255 -5.882,-33.4285 -4.8776,-9.9898 -14.0375,-34.3673 6.2021,-44.9468 l 0.4972,-0.26 -10.8878,-12.1219 -4.614,2.9362 -0.0343,0.0339 c -1.4438,1.4438 -3.0259,2.0196 -4.2316,1.5397 -0.7411,-0.2952 -1.2156,-0.9558 -1.237,-1.7242 -0.0307,-1.0883 0.8002,-2.1062 2.2793,-2.7932 2.9454,-1.3672 4.7013,-3.1135 4.7751,-3.1873 l 0.2952,-0.296 -4.6753,-5.0636 z"
       style="fill:#1b1918;fill-rule:evenodd"
       id="path10" />
    <path
       d="m 145.5845,42.4534 c 0.2258,0.2449 3.3404,3.619 3.8365,4.1559 -0.6084,0.5377 -2.1001,1.7457 -4.2169,2.7287 -1.7753,0.8241 -2.7855,2.105 -2.7855,3.5242 0,0.0281 0.001,0.0558 0.001,0.084 0.0318,1.122 0.7161,2.0837 1.7864,2.5097 1.5234,0.6064 3.4314,-0.0279 5.1169,-1.6866 0.0364,-0.0232 3.3975,-2.1622 3.9299,-2.501 0.4541,0.5047 9.0237,10.0461 9.6664,10.7614 -7.6914,4.2055 -11.8924,10.8659 -12.4418,19.8389 -0.042,0.6769 -0.0613,1.3554 -0.0613,2.0342 0,8.8954 3.4121,17.8306 6.3974,23.9447 3.4824,7.1342 7.596,15.56 7.596,23.938 0,2.9479 -0.5086,5.8888 -1.7334,8.7664 -3.7468,8.806 -13.4687,15.6324 -29.7198,20.8719 -18.5168,5.9696 -23.6317,9.5915 -24.9569,11.3908 -1.3252,-1.7993 -6.4402,-5.4212 -24.9574,-11.3908 -16.2508,-5.2395 -25.9723,-12.0659 -29.7197,-20.8719 -1.2245,-2.8776 -1.7336,-5.8185 -1.7336,-8.7652 0,-8.3792 4.1139,-16.8038 7.5971,-23.9392 2.985,-6.1141 6.3969,-15.049 6.3969,-23.9441 0,-0.6791 -0.02,-1.3576 -0.0613,-2.0348 C 64.972,72.8959 60.7707,66.2352 53.0791,62.0297 53.7218,61.3144 62.2926,51.773 62.746,51.2683 c 0.5327,0.339 3.8936,2.4775 3.9305,2.501 1.6851,1.6587 3.5926,2.293 5.1161,1.6868 1.0705,-0.4258 1.7547,-1.3876 1.7861,-2.5096 9e-4,-0.0281 0.0012,-0.0562 0.0012,-0.084 0,-1.4195 -1.0102,-2.7001 -2.7852,-3.5242 -2.117,-0.983 -3.6082,-2.191 -4.2169,-2.7287 0.4957,-0.537 3.6108,-3.9113 3.8366,-4.1562 0.3788,0 74.7905,0 75.1698,0 z"
       style="fill:#ffffff;fill-rule:evenodd"
       id="path11" />
    <path
       d="m 76.3263,107.2787 c 0,-4.5203 0.9489,-8.8218 2.6489,-12.7236 H 66.5427 c -1.3262,5.4836 -3.4054,10.4978 -5.2675,14.3124 -3.4517,7.0701 -7.3615,15.0793 -7.3615,22.9192 0,2.8037 0.4963,5.344 1.5125,7.7653 l 23.0544,-20.7585 c -1.3859,-3.5745 -2.1543,-7.4557 -2.1543,-11.5148 z"
       style="fill:#1b1918;fill-rule:evenodd"
       id="path12" />
    <path
       d="m 109.4526,75.3443 c 4.8125,0.1731 9.355,1.4151 13.4016,3.4958 l 23.1853,-20.8763 c -0.9252,0.103 -1.8378,-0.0073 -2.6934,-0.3481 -1.9458,-0.775 -3.1908,-2.539 -3.2499,-4.6036 0,-0.0196 -0.002,-0.1499 -0.002,-0.1499 0,-2.361 1.5061,-4.4142 4.1317,-5.6326 0.6583,-0.3058 1.2181,-0.6323 1.7253,-0.9518 -0.6868,-0.7449 -0.9749,-1.0567 -1.3835,-1.4997 -0.9503,0 -17.8164,0 -35.1149,0 z"
       style="fill:#1b1918;fill-rule:evenodd"
       id="path13" />
    <path
       d="m 140.2541,107.2787 c 0,4.2942 -0.856,8.3898 -2.3986,12.1333 l 22.6201,20.368 c 0.0204,-0.0465 0.0421,-0.0918 0.0623,-0.1385 1.041,-2.4472 1.5472,-5.017 1.5472,-7.856 0,-7.8399 -3.9103,-15.8504 -7.3599,-22.917 -1.8625,-3.815 -3.942,-8.8298 -5.269,-14.3134 h -11.8503 c 1.6993,3.9018 2.6482,8.2033 2.6482,12.7236 z"
       style="fill:#1b1918;fill-rule:evenodd"
       id="path14" />
    <path
       d="m 125.5025,80.3662 c 4.4074,2.829 8.0773,6.7066 10.6537,11.2824 h 12.6847 c -0.4654,-2.5351 -0.7492,-5.1373 -0.7492,-7.7458 l 0.0659,-2.1762 c 0.5381,-8.7903 4.3133,-15.5615 11.1817,-20.2037 -1.7287,-1.9243 -4.1532,-4.624 -5.7718,-6.4263 z"
       style="fill:#1b1918;fill-rule:evenodd"
       id="path15" />
    <path
       d="m 136.5661,122.1612 c -5.1929,9.8241 -15.3509,16.629 -27.1135,17.0523 v 29.3785 c 4.2153,-2.7209 11.7376,-5.8174 22.7911,-9.3803 13.7482,-4.4326 22.57,-9.9424 26.8347,-16.7801 z"
       style="fill:#1b1918;fill-rule:evenodd"
       id="path16" />
    <path
       d="m 75.9048,52.8625 -0.0022,0.1544 c -0.0579,2.0601 -1.3031,3.8243 -3.2501,4.5991 -0.9846,0.3917 -2.0432,0.4778 -3.1118,0.2854 l 23.5925,21.2429 c 4.0315,-2.1805 8.5815,-3.5191 13.4136,-3.7801 V 44.7781 c -17.2987,0 -34.1642,0 -35.1143,0 -0.4089,0.443 -0.6972,0.7551 -1.3847,1.5 0.5079,0.3196 1.0672,0.6458 1.7261,0.9518 2.6252,1.2188 4.1309,3.2718 4.1309,5.6326 z"
       style="fill:#1b1918;fill-rule:evenodd"
       id="path17" />
    <path
       d="M 106.5468,139.1933 C 94.8048,138.5586 84.7339,131.5564 79.721,121.5879 l -22.9234,20.6404 c 4.2157,6.9321 13.0739,12.5066 26.9581,16.9834 11.0532,3.5629 18.5759,6.6582 22.7911,9.3803 z"
       style="fill:#1b1918;fill-rule:evenodd"
       id="path18" />
    <path
       d="m 67.842,81.7263 0.0657,2.1771 c 0,2.6082 -0.2845,5.2103 -0.7499,7.7452 H 80.4239 C 82.8947,87.2611 86.3666,83.5099 90.5347,80.715 L 62.2758,55.2705 c -1.616,1.7992 -3.9424,4.3891 -5.6164,6.2527 6.8688,4.6419 10.6444,11.4132 11.1826,20.2031 z"
       style="fill:#1b1918;fill-rule:evenodd"
       id="path19" />
    <path
       d="m 137.3483,107.2787 c 0,16.0494 -13.0094,29.0587 -29.058,29.0587 -16.0481,0 -29.0582,-13.0093 -29.0582,-29.0587 0,-16.0486 13.0101,-29.0581 29.0582,-29.0581 16.0486,0 29.058,13.0095 29.058,29.0581 z"
       style="fill:#1b1918;fill-rule:evenodd"
       id="path20" />
    <path
       d="m 133.936,99.7214 c -1.2201,-4.0417 -3.2292,-7.7952 -6.1396,-10.7058 -0.7956,-0.7957 -2.4462,-2.7529 -4.4813,-1.5906 -1.7243,0.9853 -2.2394,2.2395 -2.2394,5.3148 0,1.4529 0,32.5938 0,33.7562 0,1.1623 0.1452,4.6006 3.3155,2.1113 4.9194,-3.8639 8.5802,-9.2657 10.0079,-15.5689 0.2033,-0.8975 0.251,-1.2589 -0.2951,-1.5559 -0.6299,-0.3422 -1.6956,-0.3876 -1.6956,-0.3876 -0.5325,0 -1.008,-0.2503 -1.3803,0.8474 -0.9444,2.7851 -2.3973,6.514 -4.5767,8.6933 -1.1136,1.1147 -2.0092,1.21 -2.0092,-2.0101 0,-3.2203 -0.3633,-7.0458 -0.3633,-11.9375 0,-4.2345 -0.1123,-6.8769 0.286,-11.2285 0.0409,-0.4544 -0.1246,-1.7825 0.6937,-2.6591 1.0874,-1.1636 2.9398,1.665 3.521,3.1179 0.5812,1.453 1.739,4.571 2.134,5.5392 0.2419,0.5942 0.6571,0.8276 1.2589,0.5812 0,0 0.841,-0.0556 1.6956,-0.7264 0.511,-0.4013 0.445,-1.0063 0.2679,-1.5909 z"
       style="fill:#ffffff;fill-rule:evenodd"
       id="path21" />
    <path
       d="m 120.2118,128.772 c 0,-0.7752 0,-40.9728 0,-41.7474 0,-3.1959 -1.3008,-4.306 -2.95,-4.9101 -1.1704,-0.4285 0.0373,-0.0783 -1.1818,-0.4129 -3.7218,-1.021 -6.3368,2.4177 -6.3368,4.7907 0,0.92 0,41.5532 0,44.5556 0,2.4221 0.0483,2.8286 1.2564,2.8286 0.7977,0 0.3482,0.0227 1.3586,-0.2056 0.9035,-0.2042 1.0158,-1.606 1.0158,-2.5256 0,-0.3744 0,-7.48 0,-15.8368 h 3.4403 c 0,7.9969 0,14.7744 0,15.2069 0,1.0658 0.1216,1.9557 1.2965,1.6177 0.7865,-0.2271 0.504,-0.0967 1.1896,-0.4995 1.135,-0.6674 0.9114,-2.0865 0.9114,-2.8616 z m -3.3975,-20.5823 -3.4403,-6e-4 c 0,-10.2191 0,-20.0646 0,-20.4375 0,-2.0341 3.7549,-1.8647 3.4403,0.3874 -0.0999,0.7086 0,10.3481 0,20.0507 z"
       style="fill:#ffffff;fill-rule:evenodd"
       id="path22" />
    <path
       d="m 96.1344,105.138 c 0,-8.6277 0,-16.3691 0,-16.9022 0,-4.6493 -2.229,-3.5875 -3.4541,-2.6482 -2.617,2.0065 -4.9782,4.3411 -6.7851,7.106 0,0 -1.142,1.6929 -1.142,2.8552 0,1.2111 0,21.3092 0,22.7135 0,1.404 0,1.6955 0.5209,2.6049 0.811,1.4143 1.7061,2.8002 2.8536,3.9478 0.7028,0.7027 0.7421,-0.4018 0.7421,-1.2736 0,-0.8717 0,-12.4952 0,-12.9793 0,-0.4842 0.1447,-1.1381 0.6535,-1.1381 0.5088,0 1.1868,0 1.6226,0 0.4359,0 0.9686,0.1216 0.9686,1.332 0,1.2107 0,15.2554 0,16.0784 0,0.8239 -0.1531,1.5584 0.3751,1.9966 0.7665,0.6356 1.6058,1.1973 2.5054,1.6345 0.8003,0.3892 1.1394,0.4381 1.1394,-1.1124 0,-0.7151 0,-18.4035 0,-18.4035 0,-1.0653 -0.3391,-2.6152 -1.7436,-3.0992 1.0412,-0.6284 1.7436,-0.6783 1.7436,-2.7124 z m -3.0512,-6.3927 c 0,1.3559 -0.9202,3.0993 -4.2134,3.0993 0,0 0,-5.2299 0,-5.8114 0,-1.017 0.5327,-1.792 0.8233,-2.0826 0.2905,-0.2906 0.8093,-0.9549 1.3557,-1.3076 1.5016,-0.9685 2.0344,1.1138 2.0344,2.5184 0,1.4044 0,2.9544 0,3.5839 z"
       style="fill:#ffffff;fill-rule:evenodd"
       id="path23" />
    <path
       d="m 108.9195,89.4951 c 0,-5.0369 -1.5495,-9.2503 -5.6304,-8.4807 -1.6919,0.3189 -3.3097,0.8496 -4.8908,1.4276 -1.4791,0.5406 -1.3922,1.435 -1.3922,2.1132 0,0.6782 0,42.9578 0,43.8775 0,0.9204 -0.2149,2.9272 1.0242,3.5163 2.2139,1.0545 4.3295,1.6357 6.8593,1.8479 3.5941,0.3021 4.0299,-2.6037 4.0299,-7.4462 0,0 0,-7.3836 0,-15.5464 0,-2.9058 -0.7019,-4.7707 -1.9853,-5.6663 1.3561,-1.7917 1.9853,-3.2929 1.9853,-5.7145 0,-5.2879 0,-9.3914 0,-9.9284 z m -5.8112,38.1632 c -1.0673,-0.4324 -1.9373,-0.5333 -1.9373,-0.8717 0,-0.3393 0,-17.5811 0,-17.8228 0,-0.2416 0.8718,0 1.453,0 2.3246,0 2.5667,3.5841 2.5667,9.977 0,5.2784 -0.0483,9.5406 -2.0824,8.7175 z m 0.1234,-26.1525 c -0.6671,0.164 -2.0607,0.6294 -2.0607,0.2906 0,-0.3389 0,-13.4151 0,-13.6089 0,-0.1938 0.9177,-0.3479 1.792,-0.5812 1.4526,-0.3873 2.3247,1.5012 2.3247,6.3443 0,5.1823 -0.6782,7.2164 -2.056,7.5552 z"
       style="fill:#ffffff;fill-rule:evenodd"
       id="path24" />
  </g>
</svg>
