<?xml version="1.0" encoding="UTF-8" standalone="no"?>
<svg
   version="1.1"
   width="1.7671083in"
   height="1.7722865in"
   viewBox="0 0 127.2318 127.60463"
   id="svg12"
   sodipodi:docname="rio_negro_am.cdr"
   xmlns:inkscape="http://www.inkscape.org/namespaces/inkscape"
   xmlns:sodipodi="http://sodipodi.sourceforge.net/DTD/sodipodi-0.dtd"
   xmlns="http://www.w3.org/2000/svg"
   xmlns:svg="http://www.w3.org/2000/svg">
  <defs
     id="defs12" />
  <sodipodi:namedview
     id="namedview12"
     pagecolor="#ffffff"
     bordercolor="#000000"
     borderopacity="0.25"
     inkscape:showpageshadow="2"
     inkscape:pageopacity="0.0"
     inkscape:pagecheckerboard="0"
     inkscape:deskcolor="#d1d1d1"
     inkscape:document-units="in" />
  <g
     id="Layer1003"
     transform="matrix(1,0,0,0.99668543,-44.383999,-43.839708)">
    <path
       d="m 166.1704,77.148 c -2.8116,2.3915 -8.257,3.6195 -11.5048,1.2766 -3.9265,-2.8279 -4.1042,-6.9806 -0.5656,-10.8747 -6.6895,-1.8421 -10.2121,-4.1527 -13.9125,-7.5785 -3.7001,-3.4417 -6.2856,-6.641 -10.2605,-9.0485 -3.975,-2.424 -9.5175,-2.6986 -12.3775,-0.8403 -1.8581,-3.3771 -4.5117,-6.0971 -9.5496,-6.0971 -5.0379,0 -7.6915,2.72 -9.5496,6.0971 -2.8601,-1.8583 -8.4025,-1.5837 -12.3775,0.8403 -3.9749,2.4075 -6.5604,5.6068 -10.2605,9.0485 -3.7004,3.4258 -7.223,5.7364 -13.9125,7.5785 3.5386,3.8941 3.3609,8.0468 -0.5657,10.8747 -3.2477,2.3429 -8.6931,1.1149 -11.5047,-1.2766 -3.4903,8.37 -5.4454,17.6128 -5.4454,27.3401 0,1.7936 0.0807,3.571 0.21,5.3485 1.842,-0.7433 4.4759,-1.0343 6.9643,-0.8888 1.1149,13.9934 7.3521,26.5968 16.8533,35.9042 4.088,-4.7021 7.9823,-4.2657 10.5029,-2.3592 2.5209,1.9229 4.5082,5.7848 1.923,10.1637 8.5315,2.537 18.4207,9.9699 24.6094,16.627 l 2.553,2.731 2.553,-2.731 c 6.1887,-6.6571 16.0778,-14.09 24.6094,-16.627 -2.5852,-4.3789 -0.5979,-8.2408 1.923,-10.1637 2.5205,-1.9065 6.4149,-2.3429 10.5029,2.3592 9.5012,-9.3074 15.7383,-21.9108 16.8533,-35.9042 2.4883,-0.1455 5.1222,0.1455 6.9643,0.8888 0.1293,-1.7775 0.21,-3.5549 0.21,-5.3485 0,-9.7273 -1.9552,-18.9701 -5.4454,-27.3401 z"
       style="fill:#1b1918;fill-rule:evenodd"
       id="path10" />
    <path
       d="m 107.9999,65.3484 c -21.0764,0 -38.162,17.0858 -38.162,38.162 0,21.0765 17.0856,38.1622 38.162,38.1622 21.0763,0 38.162,-17.0857 38.162,-38.1622 0,-21.0762 -17.0857,-38.162 -38.162,-38.162 z"
       style="fill:#ffffff;fill-rule:evenodd"
       id="path11" />
    <path
       d="m 136.2601,113.4118 c -2.7286,1.6704 -5.3614,2.9459 -7.9006,3.9225 V 89.6867 c 2.5392,0.9767 5.172,2.2524 7.9006,3.9227 l 1.0038,-1.64 c -3.058,-1.8721 -6.0235,-3.2733 -8.9044,-4.3228 v -7.9779 h -1.9067 v 7.3299 c -1.9578,-0.6181 -3.8764,-1.0813 -5.7572,-1.425 l -2.1928,-11.9481 h -1.9067 v 11.3668 c -0.6399,-0.0663 -1.2755,-0.1217 -1.9067,-0.1672 v -7.3377 c 0,-2.2239 -0.5462,-5.1807 -5.2682,-5.1807 -1.8128,0 -4.7945,0.3092 -8.0948,0.7446 v 12.1496 c -1.0868,0.1738 -2.1487,0.3867 -3.1831,0.6349 V 74.3454 c -4.5453,1.4241 -8.2579,3.7362 -11.1333,6.403 v 9.8943 c -4.7352,3.3144 -7.6269,7.7902 -7.6269,12.892 0,5.0792 2.8917,9.543 7.6269,12.8511 v 10.9989 h 1.9067 v -9.7874 c 2.1672,1.2541 4.6328,2.294 7.3198,3.0815 v 11.7635 h 1.9068 v -11.2564 c 1.0344,0.2481 2.0963,0.4609 3.1831,0.6345 v 12.5287 h 1.9067 v -12.2675 c 1.7551,0.2034 3.5641,0.3102 5.4131,0.3102 1.3584,0 2.7369,-0.0222 4.1365,-0.0844 v 12.0417 h 1.9067 V 122.196 c 0.6312,-0.0453 1.2668,-0.1008 1.9067,-0.167 v 11.3667 h 1.9067 v -11.5966 c 2.1737,-0.3011 4.3975,-0.746 6.6751,-1.3938 l 1.2749,6.947 h 1.9067 v -7.9778 c 2.8809,-1.0495 5.8464,-2.4507 8.9044,-4.3228 z m -9.8073,-24.409 v 27.9434 l -5.3899,-29.3701 c 1.745,0.3473 3.5414,0.8108 5.3899,1.4267 z m -7.95,-4.9713 0.224,1.2208 c -0.075,-0.0107 -0.1493,-0.0199 -0.224,-0.0303 z M 103.2331,74.732 c 2.546,-0.3121 4.7662,-0.5185 6.1881,-0.5185 2.8416,0 3.3615,1.1024 3.3615,3.2739 v 7.2264 c -1.3996,-0.0623 -2.7781,-0.0844 -4.1365,-0.0844 -1.849,0 -3.658,0.1069 -5.4131,0.3101 z m 0,12.1367 c 1.7506,-0.2078 3.5606,-0.3164 5.4131,-0.3164 v 1e-4 c 1.3369,0 2.7163,0.0172 4.1365,0.0768 v 12.3005 c 0,1.0988 -1.939,2.6984 -2.9245,2.6984 h -6.6251 z M 88.9167,81.6316 c 0.5426,-0.4723 1.1249,-0.942 1.7528,-1.4031 1.7324,-1.2718 3.5924,-2.3215 5.567,-3.1535 v 9.2685 c -2.687,0.7882 -5.1526,1.8291 -7.3198,3.0853 z m 0,9.9762 c 2.1101,-1.3412 4.5822,-2.4532 7.3198,-3.2893 v 13.3096 h -7.3198 z m -7.6269,11.9269 c 0,-4.0968 2.1369,-7.7293 5.7202,-10.5731 v 21.1136 c -3.5833,-2.8402 -5.7202,-6.4638 -5.7202,-10.5405 z m 7.6269,11.8929 v -11.8929 h 7.3198 v 15.1819 c -2.7376,-0.8366 -5.2097,-1.9488 -7.3198,-3.289 z m 9.2266,3.8157 V 87.7922 c 1.0309,-0.256 2.0934,-0.4745 3.1831,-0.6537 v 32.7592 c -1.0897,-0.1793 -2.1522,-0.3981 -3.1831,-0.6544 z m 10.5029,1.2255 v 0.0163 c -1.8525,0 -3.6625,-0.109 -5.4131,-0.3172 v -16.6332 h 6.6251 c 1.0664,0 2.9245,1.2281 2.9245,2.6177 v 14.2397 c -1.4202,0.0596 -2.7996,0.0767 -4.1365,0.0767 z m 6.0432,-0.183 v -13.891 c 0,-1.729 -0.7756,-3.1994 -2.4075,-3.8296 1.4219,-0.921 2.4075,-2.359 2.4075,-4.1849 V 86.7355 c 0.6277,0.0444 1.2635,0.1004 1.9067,0.1679 v 33.2143 c -0.6432,0.0675 -1.279,0.1234 -1.9067,0.1681 z m 3.8134,-0.4039 V 87.1394 c 0.1949,0.0277 0.3901,0.0567 0.5863,0.0872 l 5.7439,31.2986 c -2.1851,0.6361 -4.2946,1.0661 -6.3302,1.3567 z"
       style="fill:#1b1918;fill-rule:evenodd"
       id="path12" />
  </g>
</svg>
