<?xml version="1.0" encoding="UTF-8" standalone="no"?>
<svg
   version="1.1"
   width="1.892323in"
   height="1.8869885in"
   viewBox="0 0 136.24726 135.86317"
   id="svg35"
   sodipodi:docname="santa_cruz.cdr"
   xmlns:inkscape="http://www.inkscape.org/namespaces/inkscape"
   xmlns:sodipodi="http://sodipodi.sourceforge.net/DTD/sodipodi-0.dtd"
   xmlns="http://www.w3.org/2000/svg"
   xmlns:svg="http://www.w3.org/2000/svg">
  <defs
     id="defs35" />
  <sodipodi:namedview
     id="namedview35"
     pagecolor="#ffffff"
     bordercolor="#000000"
     borderopacity="0.25"
     inkscape:showpageshadow="2"
     inkscape:pageopacity="0.0"
     inkscape:pagecheckerboard="0"
     inkscape:deskcolor="#d1d1d1"
     inkscape:document-units="in" />
  <g
     id="Layer1003"
     transform="matrix(1,0,0,1.0810375,-39.87635,-48.816614)">
    <path
       d="M 107.9813,170.8357 C 94.8558,158.2383 85.0872,163.2169 71.8862,150.4308 l -3.6585,3.0929 C 57.1391,145.8293 49.9352,136.061 45.4091,124.7834 36.7342,123.2748 38.8465,113.7326 47.6723,114.4493 L 62.6834,85.7843 49.8597,79.0332 67.1341,47.8035 c 16.8594,3.6588 18.8584,-9.467 40.8472,2.5272 22.064,-11.9942 24.0254,1.1316 40.9224,-2.5272 l 17.2368,31.2297 -12.824,6.7511 15.0114,28.665 c 8.8255,-0.7167 10.9378,8.8255 2.2631,10.3341 -4.5263,11.2776 -11.7302,21.0459 -22.8189,28.7403 l -3.6209,-3.0929 c -13.2004,12.7861 -23.0071,7.8075 -36.1699,20.4049 z"
       style="fill:#1b1918;fill-rule:evenodd"
       id="path10" />
    <path
       d="m 46.6537,117.6547 h 4.1867 L 68.4542,83.9365 55.7435,77.2605 69.3594,52.556 c 5.9592,1.1689 12.5596,-1.2447 18.2171,-2.7159 3.7339,-0.641 6.5626,-0.3392 10.1459,0.6416 3.5454,1.0558 6.9775,2.9419 10.2211,4.6388 5.3179,-2.7154 10.787,-5.6953 16.8593,-5.6953 5.8083,0.5658 11.0887,2.9799 16.9349,3.3196 1.4334,0 3.4321,0.0752 4.8276,-0.1888 l 13.6159,24.7045 -12.7109,6.676 17.6143,33.7182 h 3.96 c 3.7339,0 3.319,4.2246 0,4.2246 h -1.8861 c -2.5267,5.8462 -5.4687,11.7297 -9.5797,16.7082 -2.9798,3.5457 -6.1479,6.5251 -9.6179,9.4292 l -4.0357,-3.4699 c -4.0358,3.9227 -7.9206,7.5436 -13.1632,9.731 -3.0172,1.3582 -6.2988,2.2632 -9.3913,3.4326 -4.8276,1.546 -9.5422,4.1488 -13.4272,7.3548 -3.847,-3.206 -8.637,-5.8462 -13.3895,-7.3548 -4.4883,-1.7352 -9.2029,-2.9799 -13.3516,-5.4691 -3.47,-2.0744 -6.2987,-4.8655 -9.2029,-7.6945 l -3.9981,3.4699 c -6.4495,-5.3177 -11.3527,-10.8242 -15.4639,-18.179 -1.2822,-2.5271 -2.5268,-5.3561 -3.6585,-8.0341 h -2.2253 c -3.0926,0 -3.2435,-4.1489 0,-4.1489 z"
       style="fill:#ffffff;fill-rule:evenodd"
       id="path11" />
    <path
       d="m 103.3903,98.9852 v 5.0543 h 3.2302 v -5.0543 z"
       style="fill:#1b1918;fill-rule:evenodd"
       id="path12" />
    <path
       d="m 102.3426,80.3909 v 5.0542 h 7.6832 v -5.0542 z"
       style="fill:#1b1918;fill-rule:evenodd"
       id="path13" />
    <path
       d="m 103.1283,90.8007 v 5.0543 h 7.8576 v -5.0543 z"
       style="fill:#1b1918;fill-rule:evenodd"
       id="path14" />
    <path
       d="m 101.2949,72.3572 v 5.0543 h 13.3579 v -5.0543 z"
       style="fill:#1b1918;fill-rule:evenodd"
       id="path15" />
    <path
       d="m 97.2003,132.968 h -0.0654 v 5.0543 h 21.1848 v -5.0543 z"
       style="fill:#1b1918;fill-rule:evenodd"
       id="path16" />
    <path
       d="m 101.5568,121.8793 v 5.0543 h 12.3103 v -5.0543 z"
       style="fill:#1b1918;fill-rule:evenodd"
       id="path17" />
    <path
       d="m 103.6522,106.0382 v 5.0542 h 7.8576 v -5.0542 z"
       style="fill:#1b1918;fill-rule:evenodd"
       id="path18" />
    <path
       d="m 55.2532,117.6547 h 1.8859 c 1.2825,0 2.3383,0.9434 2.3383,2.0745 0,1.2073 -1.0558,2.1501 -2.3383,2.1501 l -4.1112,-0.0379 c 3.3945,8.0715 8.2978,15.1623 14.9359,21.0458 l 4.1112,-3.5072 3.1302,2.9041 c 1.5089,1.5086 5.9972,6.6003 9.2407,6.6381 27.1186,0.5658 25.7231,-78.6015 10.4099,-94.3296 -1.2825,-1.3577 -4.677,-1.3199 -6.6759,-0.905 -5.5444,1.5464 -10.8999,3.206 -16.6707,3.0551 l -10.4853,18.9336 12.6352,6.638 z"
       style="fill:#1b1918;fill-rule:evenodd"
       id="path19" />
    <path
       d="m 160.5582,117.6547 h -1.9613 c -1.282,0 -2.3005,0.9434 -2.3005,2.0745 0,1.2073 1.0185,2.1501 2.3005,2.1501 l 4.1866,-0.0379 c -3.3568,8.0715 -8.2597,15.1623 -14.8978,21.0458 l -4.1115,-3.5072 -3.1681,2.9041 c -1.5086,1.5086 -5.9965,6.6003 -9.2031,6.6381 -27.1559,0.5658 -25.7225,-78.5637 -10.4093,-94.3296 1.282,-1.3577 4.6767,-1.3199 6.6759,-0.905 5.5444,1.5464 10.9,3.206 16.6704,3.0551 l 10.4856,18.9336 -12.6356,6.638 z"
       style="fill:#e41e15;fill-rule:evenodd"
       id="path20" />
    <g
       id="Layer1004">
      <path
         d="M 109.3014,81.1265 H 97.3075 v 3.583 h 11.9939 z"
         style="fill:#ffffff;fill-rule:evenodd"
         id="path21" />
      <path
         d="m 86.6523,85.4369 c 0.0528,-0.245 0.5098,-0.6814 0.7623,-0.7274 0.0519,0 3.3259,0 3.3259,0 v -3.583 H 87.388 c -2.1392,0 -4.3187,2.1603 -4.3187,4.2808 v 4.7146 h 3.583 c 0,0 0,-4.6266 0,-4.685 z"
         style="fill:#ffffff;fill-rule:evenodd"
         id="path22" />
      <path
         d="m 125.2556,91.5363 h -3.0551 v 3.5831 h 3.0551 z"
         style="fill:#ffffff;fill-rule:evenodd"
         id="path23" />
      <path
         d="m 115.1096,91.5363 h -17.689 v 3.5831 h 17.689 z"
         style="fill:#ffffff;fill-rule:evenodd"
         id="path24" />
      <path
         d="m 81.7682,95.1194 h 9.1232 v -3.5831 h -9.1232 c -4.0522,0 -7.0691,3.7048 -7.3364,9.0097 -0.0125,0.2466 -0.0187,0.4906 -0.0187,0.7311 0,4.9867 3.0004,8.6725 6.9381,9.0705 l -0.0067,-3.5652 c -2.3363,-0.2358 -3.3469,-2.9526 -3.3469,-5.5524 0,-0.1683 0.0042,-0.3366 0.0126,-0.5034 0.1404,-2.7865 1.4763,-5.6072 3.758,-5.6072 z"
         style="fill:#ffffff;fill-rule:evenodd"
         id="path25" />
      <path
         d="m 88.2553,110.3568 h 2.4138 v -3.583 h -2.4138 z"
         style="fill:#ffffff;fill-rule:evenodd"
         id="path26" />
      <path
         d="M 115.1096,106.7738 H 97.7224 v 3.583 h 17.3872 z"
         style="fill:#ffffff;fill-rule:evenodd"
         id="path27" />
      <path
         d="m 123.8979,122.6149 h -1.6974 v 3.5831 h 1.6974 c 4.2572,0 6.5547,-5.2932 6.5547,-10.2739 0,-1.6211 -0.239,-3.9738 -1.3757,-5.9761 -1.1627,-2.0468 -3.0018,-3.1742 -5.179,-3.1742 h -1.6974 v 3.583 h 1.6974 c 0.554,0 1.3705,0.1412 2.0631,1.3607 0.5857,1.0314 0.908,2.5251 0.908,4.2066 0,3.5018 -1.416,6.6908 -2.9711,6.6908 z"
         style="fill:#ffffff;fill-rule:evenodd"
         id="path28" />
      <path
         d="m 97.4206,126.198 h 17.689 v -3.5831 h -17.689 z"
         style="fill:#ffffff;fill-rule:evenodd"
         id="path29" />
      <path
         d="m 88.3686,126.198 h 1.999 v -3.5831 h -1.999 z"
         style="fill:#ffffff;fill-rule:evenodd"
         id="path30" />
      <path
         d="m 79.0901,126.198 h 2.1878 v -3.5831 h -2.1878 z"
         style="fill:#ffffff;fill-rule:evenodd"
         id="path31" />
      <path
         d="m 95.8175,77.3358 c 0,-0.3008 0.1016,-0.6599 0.5848,-0.6599 h 25.4964 c 0.5361,0 0.9996,0 0.9996,1.5654 h 3.5829 c 0,-3.2239 -1.7132,-5.1485 -4.5825,-5.1485 H 96.4023 c -2.376,0 -4.1677,1.8243 -4.1677,4.243 v 20.1787 h 3.5829 z"
         style="fill:#ffffff;fill-rule:evenodd"
         id="path32" />
      <path
         d="m 123.1146,132.0047 c 0.0113,0.0614 0.0164,0.3893 0.0164,0.4589 0,0.3627 -0.1453,0.8047 -0.3647,1.0666 -0.1448,0.1735 -0.2343,0.1735 -0.264,0.1735 h -26.1 c -0.3607,0 -0.5848,-0.2528 -0.5848,-0.66 v -28.4384 h -3.5829 v 28.4384 c 0,2.3793 1.8306,4.243 4.1677,4.243 h 26.1 c 1.1561,0 2.2258,-0.5177 3.0121,-1.4575 0.7633,-0.9121 1.1986,-2.1696 1.1986,-3.3723 0,-0.2793 -0.0235,-0.1361 -0.0716,-0.4046 z"
         style="fill:#ffffff;fill-rule:evenodd"
         id="path33" />
      <path
         d="m 134.8546,90.7255 v -6.7517 c 0,-2.3189 -1.768,-4.205 -3.9416,-4.205 h -10.3342 c -2.1941,0 -3.9795,1.8861 -3.9795,4.205 v 42.4318 c 0,2.3189 1.7854,4.2051 3.9795,4.2051 h 10.3342 c 2.3578,0 3.9416,-1.6897 3.9416,-4.2051 v -4.4506 h -3.583 v 4.4506 c 0,0.3699 -0.0778,0.5485 -0.1085,0.5899 -0.0138,0.006 -0.0783,0.0322 -0.2501,0.0322 h -10.3342 c -0.1581,0 -0.3965,-0.2481 -0.3965,-0.6221 V 83.9738 c 0,-0.3739 0.2384,-0.622 0.3965,-0.622 h 10.3342 c 0.1228,0 0.3586,0.263 0.3586,0.622 v 6.7517 z"
         style="fill:#ffffff;fill-rule:evenodd"
         id="path34" />
      <path
         d="m 105.8315,103.3039 v -3.583 H 86.6523 V 96.651 h -3.583 v 33.6394 h 3.583 v -26.9865 z"
         style="fill:#ffffff;fill-rule:evenodd"
         id="path35" />
    </g>
  </g>
</svg>
