<?xml version="1.0" encoding="UTF-8" standalone="no"?>
<svg
   version="1.1"
   width="1.5220778in"
   height="1.5248718in"
   viewBox="0 0 109.5896 109.79077"
   id="svg19"
   sodipodi:docname="ec_santarem-pa.cdr"
   xmlns:inkscape="http://www.inkscape.org/namespaces/inkscape"
   xmlns:sodipodi="http://sodipodi.sourceforge.net/DTD/sodipodi-0.dtd"
   xmlns="http://www.w3.org/2000/svg"
   xmlns:svg="http://www.w3.org/2000/svg">
  <defs
     id="defs19" />
  <sodipodi:namedview
     id="namedview19"
     pagecolor="#ffffff"
     bordercolor="#000000"
     borderopacity="0.25"
     inkscape:showpageshadow="2"
     inkscape:pageopacity="0.0"
     inkscape:pagecheckerboard="0"
     inkscape:deskcolor="#d1d1d1"
     inkscape:document-units="in" />
  <g
     id="Layer1003"
     transform="matrix(1,0,0,0.90234373,-53.205299,-42.557871)">
    <path
       d="m 108.0007,168.8366 0.4615,-0.2759 c 15.6374,-9.3448 27.6962,-20.027 36.4366,-31.8504 1.7052,-2.3056 3.2814,-4.6516 4.731,-7.034 8.9254,-14.6726 13.1649,-30.9048 13.1651,-48.3613 v -7e-4 -0.4172 l -0.3289,-0.2678 c -3.4402,-2.8063 -5.6565,-5.3864 -7.2926,-8.3861 -1.6473,-3.0195 -2.7314,-6.5094 -3.893,-11.1028 l -0.1297,-0.5118 -0.5108,-0.1318 c -2.7392,-0.7045 -5.3452,-2.1209 -7.8173,-4.2479 -2.5083,-2.1587 -4.8794,-5.0463 -7.1128,-8.6627 l -0.261,-0.4225 h -0.4901 -53.9172 -0.4901 l -0.2609,0.4225 c -2.2335,3.6164 -4.6045,6.504 -7.1128,8.6627 -2.4722,2.127 -5.0782,3.5434 -7.8174,4.2479 l -0.5107,0.1318 -0.1298,0.5118 c -1.1615,4.5934 -2.2456,8.0833 -3.8929,11.1028 -1.6361,2.9997 -3.8524,5.5798 -7.2927,8.3861 l -0.3289,0.2678 v 0.4172 7e-4 c 3e-4,17.4565 4.2398,33.6887 13.1651,48.3613 1.4496,2.3824 3.0259,4.7284 4.731,7.034 8.7405,11.8234 20.7992,22.5056 36.4367,31.8504 z"
       style="fill:#102a83;fill-rule:evenodd"
       id="path10" />
    <path
       d="m 108.0007,166.7718 c 15.2119,-9.1569 26.96,-19.5902 35.4791,-31.1135 1.6672,-2.2555 3.2137,-4.5569 4.6413,-6.903 8.6763,-14.2626 12.8339,-30.0467 12.9002,-47.0272 -3.4424,-2.8566 -5.7015,-5.5298 -7.3985,-8.6405 -1.6778,-3.0748 -2.7835,-6.5385 -3.9308,-11.0134 -2.8163,-0.812 -5.4889,-2.3062 -8.0184,-4.4826 -2.5466,-2.1911 -4.9472,-5.0767 -7.2027,-8.6559 H 81.5294 c -2.2555,3.5792 -4.6562,6.4648 -7.2028,8.6559 -2.5295,2.1764 -5.2021,3.6706 -8.0184,4.4826 -1.1473,4.4749 -2.253,7.9386 -3.9307,11.0134 -1.6971,3.1107 -3.9561,5.7839 -7.3985,8.6405 0.0662,16.9805 4.2239,32.7646 12.9002,47.0272 1.4275,2.3461 2.974,4.6475 4.6413,6.903 8.519,11.5233 20.2681,21.9566 35.4802,31.1135 z"
       style="fill:#ffffff;fill-rule:evenodd"
       id="path11" />
    <path
       d="m 108.0007,164.6806 c 14.2725,-8.7268 25.7501,-18.8336 34.0586,-30.0723 1.6236,-2.1961 3.1553,-4.4743 4.5528,-6.771 8.1955,-13.4718 12.4242,-28.7291 12.6158,-45.3446 -3.1894,-2.751 -5.4435,-5.4209 -7.1557,-8.5593 -1.6906,-3.0985 -2.7841,-6.4877 -3.8436,-10.5064 -2.6948,-0.9276 -5.2873,-2.4144 -7.7071,-4.4967 -2.4602,-2.1168 -4.8036,-4.8996 -6.9894,-8.2287 h -51.064 c -2.1858,3.3291 -4.5291,6.1119 -6.9894,8.2287 -2.4197,2.0823 -5.0122,3.5691 -7.7071,4.4967 -1.0594,4.0187 -2.1529,7.4079 -3.8435,10.5064 -1.7122,3.1384 -3.9663,5.8083 -7.1558,8.5593 0.1917,16.6155 4.4204,31.8728 12.6158,45.3446 1.3976,2.2967 2.9292,4.5749 4.5529,6.771 8.3084,11.2387 19.787,21.3455 34.0597,30.0723 z"
       style="fill:#102a83;fill-rule:evenodd"
       id="path12" />
    <path
       d="m 108.0003,96.9697 29.1495,-38.8264 c -1.5583,-1.6348 -3.0758,-3.5339 -4.5376,-5.675 H 83.3879 c -1.4617,2.1411 -2.9791,4.0402 -4.5375,5.675 z"
       style="fill:#ffffff;fill-rule:evenodd"
       id="path13" />
    <path
       d="m 145.1031,126.9191 c 7.8868,-12.964 12.0188,-27.6635 12.3264,-43.6868 -3.0161,-2.705 -5.2468,-5.4087 -6.9079,-8.4525 -1.765,-3.2357 -2.8599,-6.7101 -3.7621,-10.0412 -1.2755,-0.499 -2.5184,-1.1075 -3.7216,-1.8248 l -30.2965,40.3631 25.2648,33.6599 c 0.9086,-1.1157 1.7913,-2.24 2.6329,-3.3785 1.5906,-2.1512 3.0925,-4.3852 4.464,-6.6392 z"
       style="fill:#ffffff;fill-rule:evenodd"
       id="path14" />
    <path
       d="m 108.0007,162.5903 c 9.6814,-6.0139 18.015,-12.6638 24.8854,-19.8587 l -24.8857,-33.1467 -24.8863,33.1467 c 6.8705,7.1949 15.2051,13.8448 24.8866,19.8587 z"
       style="fill:#ffffff;fill-rule:evenodd"
       id="path15" />
    <path
       d="M 70.8972,126.9191 C 63.0103,113.9551 58.8784,99.2556 58.5707,83.2323 c 3.0161,-2.705 5.2468,-5.4087 6.908,-8.4525 1.7649,-3.2357 2.8599,-6.7101 3.762,-10.0412 1.2755,-0.499 2.5185,-1.1075 3.7217,-1.8248 l 30.2964,40.3631 -25.2647,33.6599 c -0.9086,-1.1157 -1.7914,-2.24 -2.633,-3.3785 -1.5906,-2.1512 -3.0924,-4.3852 -4.4639,-6.6392 z"
       style="fill:#ffffff;fill-rule:evenodd"
       id="path16" />
    <path
       d="M 72.4273,113.3379 V 93.2162 H 87.147 v 3.4053 H 76.4355 v 4.461 h 9.9672 v 3.3871 h -9.9672 v 5.4763 h 11.0906 v 3.392 z"
       style="fill:#102a83;fill-rule:evenodd"
       id="path17" />
    <path
       d="m 112.764,73.0896 3.8833,1.246 c -0.5962,2.1967 -1.5853,3.8274 -2.9727,4.8956 -1.3824,1.0635 -3.143,1.5976 -5.2744,1.5976 -2.6354,0 -4.8033,-0.9134 -6.4999,-2.7361 -1.6966,-1.8268 -2.5471,-4.3243 -2.5471,-7.4864 0,-3.3499 0.8552,-5.9495 2.561,-7.8054 1.7058,-1.8498 3.948,-2.7773 6.7314,-2.7773 2.427,0 4.4004,0.7261 5.9168,2.1824 0.906,0.8573 1.5814,2.0945 2.0344,3.7063 l -3.9713,0.9601 c -0.2312,-1.0446 -0.7215,-1.8688 -1.4699,-2.4732 -0.7444,-0.6044 -1.651,-0.9046 -2.7134,-0.9046 -1.4705,0 -2.6679,0.5341 -3.583,1.6071 -0.9154,1.0681 -1.3731,2.801 -1.3731,5.1997 0,2.5448 0.4486,4.3574 1.3546,5.4344 0.9014,1.0831 2.0755,1.6213 3.518,1.6213 1.0675,0 1.983,-0.3421 2.7502,-1.0303 0.7675,-0.6843 1.3177,-1.7659 1.6551,-3.2372 z"
       style="fill:#102a83;fill-rule:evenodd"
       id="path18" />
    <path
       d="m 128.0156,106.7858 3.9023,-0.3887 c 0.2306,1.3305 0.7073,2.3048 1.428,2.9282 0.7166,0.6185 1.6827,0.9323 2.9037,0.9323 1.2893,0 2.2649,-0.2759 2.9167,-0.8337 0.6571,-0.5529 0.985,-1.1994 0.985,-1.9403 0,-0.4773 -0.1385,-0.8803 -0.4164,-1.2129 -0.2724,-0.3374 -0.7532,-0.6274 -1.4422,-0.8715 -0.467,-0.1683 -1.5393,-0.459 -3.2086,-0.881 -2.1493,-0.5381 -3.6563,-1.2033 -4.5211,-1.9903 -1.2203,-1.1061 -1.8308,-2.4556 -1.8308,-4.0484 0,-1.0256 0.2867,-1.9817 0.8599,-2.8762 0.5734,-0.8904 1.401,-1.5699 2.4779,-2.0377 1.0817,-0.4637 2.3813,-0.6983 3.9064,-0.6983 2.4963,0 4.3689,0.5523 5.6314,1.6583 1.2573,1.1102 1.9179,2.5861 1.9829,4.4365 l -4.0079,0.1785 c -0.1711,-1.0357 -0.541,-1.7807 -1.1055,-2.2304 -0.5631,-0.455 -1.4096,-0.6795 -2.538,-0.6795 -1.1649,0 -2.0803,0.2393 -2.7362,0.7262 -0.4259,0.3097 -0.6382,0.7261 -0.6382,1.2467 0,0.4773 0.1988,0.8857 0.5964,1.2223 0.5037,0.4314 1.7335,0.8803 3.6847,1.3448 1.9505,0.4685 3.3932,0.9512 4.3269,1.4475 0.9337,0.5016 1.6646,1.1804 2.196,2.0472 0.5272,0.8667 0.791,1.935 0.791,3.2047 0,1.152 -0.3151,2.2351 -0.9478,3.2378 -0.6336,1.0074 -1.526,1.7565 -2.6814,2.2432 -1.1562,0.4921 -2.5984,0.7357 -4.3229,0.7357 -2.5105,0 -4.438,-0.5857 -5.7833,-1.7621 -1.3455,-1.1749 -2.1501,-2.8902 -2.4089,-5.1389 z"
       style="fill:#102a83;fill-rule:evenodd"
       id="path19" />
  </g>
</svg>
