<?xml version="1.0" encoding="UTF-8" standalone="no"?>
<svg
   version="1.1"
   width="1.7895445in"
   height="1.7217542in"
   viewBox="0 0 128.8472 123.9663"
   id="svg22"
   sodipodi:docname="santos.cdr"
   xmlns:inkscape="http://www.inkscape.org/namespaces/inkscape"
   xmlns:sodipodi="http://sodipodi.sourceforge.net/DTD/sodipodi-0.dtd"
   xmlns="http://www.w3.org/2000/svg"
   xmlns:svg="http://www.w3.org/2000/svg">
  <defs
     id="defs22" />
  <sodipodi:namedview
     id="namedview22"
     pagecolor="#ffffff"
     bordercolor="#000000"
     borderopacity="0.25"
     inkscape:showpageshadow="2"
     inkscape:pageopacity="0.0"
     inkscape:pagecheckerboard="0"
     inkscape:deskcolor="#d1d1d1"
     inkscape:document-units="in" />
  <g
     id="Layer1003"
     transform="translate(-43.576401,-46.0168)">
    <path
       d="m 107.9997,169.9831 -2.415,-2.5152 -1.333,-1.1068 -1.4842,-1.0564 -1.5849,-0.9308 -1.7356,-0.9055 -1.8114,-0.881 -1.9871,-0.7793 -2.0376,-0.7799 -2.113,-0.7295 -2.2137,-0.6796 -2.2895,-0.6538 -2.289,-0.679 -2.3645,-0.6544 -2.3901,-0.7042 -2.3644,-0.679 -2.415,-0.7295 -2.4399,-0.7799 -2.3648,-0.8305 -2.3395,-0.9055 -2.3393,-0.956 -2.2894,-1.0311 -2.2386,-1.1574 -2.1134,-1.2323 -2.0877,-1.3839 -1.9871,-1.459 -1.8868,-1.635 -1.7862,-1.7858 -1.5848,-1.9373 -1.5091,-2.0628 -1.3082,-2.2888 -1.1573,-2.4654 -0.9557,-2.6416 -0.5285,-1.7605 -0.3268,-1.7865 -0.2768,-1.7606 -0.0754,-1.6855 0.0502,-1.736 0.1259,-1.635 0.2515,-1.6602 0.3521,-1.5846 0.4278,-1.6097 0.478,-1.5599 0.6036,-1.5095 0.6036,-1.5094 0.7045,-1.459 0.7295,-1.4842 0.7295,-1.4083 0.8301,-1.4341 0.7547,-1.4336 0.8302,-1.3836 0.8301,-1.3836 0.8049,-1.3835 0.8301,-1.3587 0.7799,-1.3582 0.7797,-1.3334 0.7298,-1.3331 0.7042,-1.3333 0.6289,-1.3082 0.6038,-1.3331 0.5282,-1.3081 0.478,-1.2829 0.3774,-1.3081 0.3016,-1.2829 0.2266,-1.3082 0.0754,-0.5534 0.0505,-0.5786 0.0501,-0.5534 V 81.6624 81.109 80.5051 l -0.0501,-0.5787 -0.0505,-0.6036 -0.0754,-0.5534 -0.1007,-0.6039 -0.0754,-0.5535 -0.1259,-0.6035 -0.1255,-0.6039 -0.1259,-0.5783 -0.1761,-0.5535 -0.1761,-0.6039 -0.2265,-0.5783 -0.2013,-0.5534 -0.2263,-0.5538 -0.2514,-0.6035 -0.2767,-0.5282 -0.2518,-0.5534 -0.3016,-0.5787 -0.302,-0.5534 -0.302,-0.5032 -0.3521,-0.5282 -0.3271,-0.5282 -0.3521,-0.5033 -0.4023,-0.5281 -0.3774,-0.478 -0.4026,-0.503 -1.4589,-1.6855 19.3194,-18.8919 2.113,1.0816 1.0062,0.478 1.0314,0.5033 1.0314,0.4527 1.0315,0.4528 1.0314,0.4527 1.0816,0.4276 1.0564,0.4279 1.0819,0.3773 1.0314,0.4023 1.0816,0.3773 1.0816,0.3521 1.0815,0.3525 1.082,0.3016 1.0815,0.302 1.1069,0.3019 1.0816,0.2515 1.1321,0.2767 1.0815,0.2013 1.1069,0.2514 1.1321,0.1761 1.0819,0.2266 1.1317,0.1761 1.1069,0.1258 1.1321,0.1256 1.1572,0.1259 1.1318,0.1006 1.1321,0.0755 1.1069,0.1006 1.1822,0.0252 1.1068,0.0502 h 1.1321 1.1319 l 1.1069,-0.0502 1.1823,-0.0252 1.1068,-0.1006 1.1314,-0.0755 1.1328,-0.1006 1.1573,-0.1259 1.1314,-0.1256 1.1068,-0.1258 1.1328,-0.1761 1.0809,-0.2266 1.1328,-0.1761 1.1068,-0.2514 1.0809,-0.2013 1.1328,-0.2767 1.0809,-0.2515 1.1068,-0.3019 1.0823,-0.302 1.0809,-0.3016 1.0823,-0.3525 1.0822,-0.3521 1.0809,-0.3773 1.0318,-0.4023 1.0809,-0.3773 1.0577,-0.4279 1.0809,-0.4276 1.0318,-0.4527 1.0317,-0.4528 1.0305,-0.4527 1.0318,-0.5033 1.0058,-0.478 2.114,-1.0816 19.3185,18.8919 -1.459,1.6855 -0.4026,0.503 -0.3767,0.478 -0.4026,0.5281 -0.3521,0.5033 -0.3276,0.5282 -0.3521,0.5282 -0.3016,0.5032 -0.3017,0.5534 -0.3016,0.5787 -0.2524,0.5534 -0.2757,0.5282 -0.2525,0.6035 -0.2252,0.5538 -0.202,0.5534 -0.2266,0.5783 -0.176,0.6039 -0.176,0.5535 -0.1256,0.5783 -0.1256,0.6039 -0.1255,0.6035 -0.0764,0.5535 -0.0997,0.6039 -0.0764,0.5534 -0.0505,0.6036 -0.0492,0.5787 v 0.6039 0.5534 0.6036 l 0.0492,0.5534 0.0505,0.5786 0.0764,0.5534 0.2252,1.3082 0.303,1.2829 0.3766,1.3081 0.4777,1.2829 0.5282,1.3081 0.6046,1.3331 0.6292,1.3082 0.7042,1.3333 0.7288,1.3331 0.7806,1.3334 0.7794,1.3582 0.8297,1.3587 0.8052,1.3835 0.8298,1.3836 0.8312,1.3836 0.7547,1.4336 0.8298,1.4341 0.7288,1.4083 0.7301,1.4842 0.7042,1.459 0.6033,1.5094 0.6046,1.5095 0.4776,1.5599 0.4272,1.6097 0.3521,1.5846 0.2525,1.6602 0.1256,1.635 0.0505,1.736 -0.0765,1.6855 -0.2756,1.7606 -0.3276,1.7865 -0.5282,1.7605 -0.9553,2.6416 -1.1574,2.4654 -1.3088,2.2888 -1.5094,2.0628 -1.5845,1.9373 -1.7865,1.7858 -1.8861,1.635 -1.9871,1.459 -2.0882,1.3839 -2.1631,1.2323 -2.1891,1.1574 -2.2888,1.0311 -2.3392,0.956 -2.3392,0.9055 -2.3652,0.8305 -2.4401,0.7799 -2.4144,0.7295 -2.3651,0.679 -2.3897,0.7042 -2.3652,0.6544 -2.2888,0.679 -2.2887,0.6538 -2.2136,0.6796 -2.114,0.7295 -2.0377,0.7799 -1.9871,0.7793 -1.8111,0.881 -1.736,0.9055 -1.5845,0.9308 -1.4834,1.0564 -1.3334,1.1068 z"
       style="fill:#1b1918;fill-rule:evenodd"
       id="path10" />
    <path
       d="m 103.5222,162.7887 -1.0819,-0.6537 -1.8615,-0.9813 -1.9872,-0.9055 -2.0376,-0.8305 -2.113,-0.7792 -0.8554,-0.3023 v -40.2739 l 9.9366,-7.4715 z M 83.3474,125.8101 v 29.4574 l -0.3019,-0.0758 -2.3898,-0.7042 -2.3648,-0.679 -2.3898,-0.7294 -1.6854,-0.5787 v -19.8227 z m -18.8919,14.2128 v 8.6786 l -2.0629,-1.0816 -2.0376,-1.1573 -1.937,-1.3075 -0.4275,-0.3022 z m -18.0113,-20.1748 0.0502,-0.4524 0.3271,-1.459 0.4023,-1.4343 0.4278,-1.459 0.5535,-1.4337 0.6036,-1.4084 0.654,-1.3839 0.7046,-1.4337 0.7294,-1.3835 0.7295,-1.3835 0.8302,-1.3836 0.7796,-1.3835 0.8052,-1.3836 0.8301,-1.3334 0.8301,-1.3835 0.8049,-1.3835 0.78,-1.3836 0.7294,-1.3334 0.7295,-1.3835 0.7043,-1.4337 0.6039,-1.3835 0.6035,-1.3836 0.4781,-1.4341 0.4275,-1.4084 0.3521,-1.434 0.2518,-1.459 0.1006,-0.6541 0.025,-0.654 0.0504,-0.6541 0.0502,-0.6288 V 81.0332 L 62.3424,80.3795 62.292,79.7503 62.267,79.0963 62.1664,78.4422 62.091,77.7632 61.9651,77.1091 61.8143,76.4551 61.6884,75.801 61.5123,75.1722 61.3612,74.5181 61.135,73.8641 60.9084,73.21 60.6569,72.6064 60.4055,71.9524 60.1288,71.3484 59.877,70.7448 59.5249,70.1157 59.2233,69.5122 58.896,68.9334 58.5439,68.3299 58.1918,67.726 57.8145,67.1726 57.4119,66.5942 56.9844,66.0408 56.5565,65.4874 56.2044,65.0596 72.5053,49.1111 l 0.5032,0.2514 1.0564,0.5282 1.0314,0.5033 1.0816,0.478 1.0819,0.4777 1.0816,0.4278 1.0816,0.4781 1.0567,0.4275 1.0815,0.4026 1.1321,0.3773 1.1321,0.4023 1.0816,0.3774 1.1068,0.3521 1.1321,0.302 1.1318,0.352 1.1068,0.2518 1.1825,0.3016 1.1069,0.2519 1.1317,0.2767 1.1574,0.2009 1.1822,0.2266 1.1069,0.2013 1.1822,0.1761 1.1573,0.1255 1.1822,0.1764 1.1574,0.1255 1.157,0.1007 1.1822,0.0754 1.1574,0.0505 1.1569,0.0754 h 1.1826 1.2071 1.1572 1.2069 l 1.1833,-0.0754 1.1573,-0.0505 1.1819,-0.0754 1.1573,-0.1007 1.1574,-0.1255 1.1819,-0.1764 1.1573,-0.1255 1.1573,-0.1761 1.1819,-0.2013 1.1573,-0.2266 1.1314,-0.2009 1.1574,-0.2767 1.1327,-0.2519 1.1314,-0.3016 1.1069,-0.2518 1.1819,-0.352 1.0823,-0.302 1.1068,-0.3521 1.1313,-0.3774 1.1069,-0.4023 1.0823,-0.3773 1.0823,-0.4026 1.1314,-0.4275 1.0822,-0.4781 0.3767,-0.1259 z M 148.3243,76.8072 v 73.2782 l -1.2828,0.5534 -2.2902,0.8803 -2.3392,0.78 -2.3392,0.78 -2.3652,0.7294 -0.4012,0.0751 V 85.1085 Z m -22.7658,17.1563 v 63.3416 l -1.8616,0.6039 -2.1631,0.7295 -2.1632,0.7792 -2.013,0.8305 -1.9626,0.9055 -0.8544,0.4777 v -59.3667 z m 34.6135,5.6096 0.0764,0.176 0.8298,1.3835 0.8298,1.3334 0.8052,1.3836 0.8297,1.3835 0.7807,1.3836 0.7793,1.3835 0.7288,1.3835 0.6797,1.4337 0.6537,1.3839 0.6046,1.4084 0.5282,1.4337 0.4777,1.459 0.3766,1.4343 0.303,1.459 0.2266,1.4842 0.1255,1.5094 0.0505,1.5088 -0.101,1.5599 -0.2019,1.56 -0.3017,1.5592 -0.4531,1.635 -0.9049,2.415 -1.0822,2.2389 -1.2065,2.0881 -1.3334,1.9366 -1.5094,1.7865 -1.6105,1.6351 -0.9812,0.8051 z"
       style="fill:#ffffff;fill-rule:evenodd"
       id="path11" />
    <path
       d="m 78.6181,59.7014 c 7.3957,0 13.5587,5.9621 13.5587,13.3578 0,7.3957 -6.163,13.458 -13.5587,13.458 -7.3203,0 -13.3578,-6.0374 -13.3578,-13.458 0,-7.3957 6.0375,-13.3578 13.3578,-13.3578 z"
       style="display:inline;fill:none;stroke:#1d1816;stroke-width:1.44;stroke-linecap:butt;stroke-linejoin:miter;stroke-dasharray:none;stroke-opacity:1"
       id="path12" />
    <path
       d="m 82.8694,76.0778 c 1.5848,-1.1069 3.3959,-1.3335 4.1253,-0.302 0.6794,0.9307 -0.0754,2.6415 -1.7103,3.7231 -1.5347,1.1068 -3.3458,1.2829 -4.0753,0.3019 -0.6793,-0.9812 0.0754,-2.6162 1.6603,-3.723 z"
       style="display:inline;fill:none;stroke:#1d1816;stroke-width:1.44;stroke-linecap:butt;stroke-linejoin:miter;stroke-dasharray:none;stroke-opacity:1"
       id="path13" />
    <path
       d="m 83.8503,80.2789 c 0.3272,1.9618 0.0754,3.8233 -0.679,5.4836"
       style="display:inline;fill:none;stroke:#1d1816;stroke-width:1.44;stroke-linecap:butt;stroke-linejoin:miter;stroke-dasharray:none;stroke-opacity:1"
       id="path14" />
    <path
       d="m 86.5167,78.4422 c 1.7108,0.3525 3.0189,0.78 4.352,0.6793"
       style="display:inline;fill:none;stroke:#1d1816;stroke-width:1.44;stroke-linecap:butt;stroke-linejoin:miter;stroke-dasharray:none;stroke-opacity:1"
       id="path15" />
    <path
       d="m 87.0453,75.7758 c 2.289,-0.8049 4.1001,-2.6917 5.0561,-4.1759"
       style="display:inline;fill:none;stroke:#1d1816;stroke-width:1.44;stroke-linecap:butt;stroke-linejoin:miter;stroke-dasharray:none;stroke-opacity:1"
       id="path16" />
    <path
       d="m 85.7623,74.9961 c 1.283,-4.6791 1.283,-9.2572 -1.2327,-13.7603"
       style="display:inline;fill:none;stroke:#1d1816;stroke-width:1.44;stroke-linecap:butt;stroke-linejoin:miter;stroke-dasharray:none;stroke-opacity:1"
       id="path17" />
    <path
       d="M 83.7497,75.6751 C 81.5865,70.1914 79.423,64.8835 75.4232,60.1794"
       style="display:inline;fill:none;stroke:#1d1816;stroke-width:1.44;stroke-linecap:butt;stroke-linejoin:miter;stroke-dasharray:none;stroke-opacity:1"
       id="path18" />
    <path
       d="M 81.5612,77.5872 C 75.9517,74.845 71.2223,70.971 67.4491,66.0408"
       style="display:inline;fill:none;stroke:#1d1816;stroke-width:1.44;stroke-linecap:butt;stroke-linejoin:miter;stroke-dasharray:none;stroke-opacity:1"
       id="path19" />
    <path
       d="M 81.1587,79.2222 C 74.9202,80.9077 69.8136,78.6688 65.3108,75.7758"
       style="display:inline;fill:none;stroke:#1d1816;stroke-width:1.44;stroke-linecap:butt;stroke-linejoin:miter;stroke-dasharray:none;stroke-opacity:1"
       id="path20" />
    <path
       d="m 81.7121,80.1024 c -1.937,3.2451 -5.685,5.0313 -8.3266,5.2828"
       style="display:inline;fill:none;stroke:#1d1816;stroke-width:1.44;stroke-linecap:butt;stroke-linejoin:miter;stroke-dasharray:none;stroke-opacity:1"
       id="path21" />
    <path
       d="m 68.0275,124.8043 3.3709,-2.0629 c 0,0.8298 0.302,1.5593 1.3082,1.8111 0.8553,0.2266 3.9998,-1.8615 4.7292,-3.1697 0.981,-1.7859 0.679,-4.905 -0.5284,-4.905 -1.4338,0 -4.6536,3.5218 -6.7164,3.5218 -0.2515,0 -1.5597,0.4272 -2.0376,-1.5599 -0.1259,-0.503 -0.1259,-5.4838 -0.1259,-6.465 0,-4.0752 1.5346,-4.88 4.8551,-7.0435 1.157,-0.7295 4.0248,-2.0629 5.987,-2.4652 l 0.5534,-2.0881 2.1382,-1.157 0.0253,7.4459 -3.2198,1.2327 c 0,-0.7294 -0.604,-0.9307 -0.8555,-0.9055 -1.3081,0.2262 -3.5217,1.5848 -4.8046,3.1192 0,0 -0.8807,3.3457 0.176,4.2007 0.6036,0.5036 5.5342,-3.9994 7.4459,-3.4965 0,0 1.5596,0.5281 1.6855,0.956 0.6039,1.6855 0.5281,8.2262 0,9.333 -1.0062,2.314 -5.3076,5.0558 -7.4209,6.0371 -0.1007,0 -3.1193,0.855 -3.7986,1.7108 v 1.7353 l -2.792,1.6104 z m 18.3636,-9.2075 c 0.2263,-0.1256 0.4276,-0.2259 0.6542,-0.3521 0.2013,0 0.3773,0.0505 0.5029,0.176 0.0754,0.1263 0.1761,0.3024 0.1761,0.604 0,0.2518 -0.1007,0.5029 -0.1761,0.8052 -0.1256,0.3016 -0.3016,0.5534 -0.5029,0.8802 -0.2266,0.3017 -0.4279,0.5535 -0.6542,0.7296 -0.3773,0.2517 -0.6792,0.3268 -0.9812,0.2517 -0.2009,-0.1262 -0.3268,-0.3275 -0.3268,-0.6796 0,-0.3017 0.0501,-0.6033 0.1259,-0.855 0.176,-0.3269 0.3016,-0.5787 0.5029,-0.8803 0.2265,-0.2518 0.4278,-0.5282 0.6792,-0.6797 z m 6.6912,-24.1994 15.3453,-11.2697 v 6.5155 l -3.0691,1.987 V 87.75 c 0,-0.5033 -0.1761,-1.459 -0.1761,-1.5348 0,-0.176 -0.2517,-0.2009 -0.5032,-0.2009 -0.3521,0 -4.2513,3.1694 -5.308,4.2513 v 6.0623 l 3.4465,-2.4651 v 3.7986 l -3.4966,2.3644 0.0501,2.9936 c 0,0.4023 -0.176,1.8616 0.8554,1.7859 0.2013,0 1.434,-1.2076 2.239,-1.6351 l 0.0754,2.8678 -9.3328,6.8675 v -2.8428 c 1.2328,-0.8046 1.9117,-1.182 1.9117,-3.1441 V 94.7178 c 0,-1.4084 -0.6035,-1.7356 -2.0123,-1.2323 z m 14.8167,8.1251 c 0.2266,-0.176 0.4279,-0.2514 0.6541,-0.3521 0.2013,0 0.3775,0.0505 0.5031,0.1512 0.0754,0.1508 0.176,0.3269 0.176,0.6288 0,0.2013 -0.1006,0.5029 -0.176,0.7547 -0.1256,0.3521 -0.3018,0.6036 -0.5031,0.9308 -0.2262,0.3016 -0.4275,0.5282 -0.6541,0.679 -0.3773,0.3019 -0.6789,0.3521 -0.9809,0.3019 -0.2013,-0.1259 -0.3272,-0.3268 -0.3272,-0.7042 0,-0.2767 0.0505,-0.5534 0.1259,-0.8554 0.1761,-0.3019 0.302,-0.5534 0.5033,-0.9055 0.2262,-0.2013 0.4776,-0.4527 0.6789,-0.6292 z m 20.4013,-27.7967 0.1515,-1.459 c 0.1256,-1.0061 -0.5295,-1.3081 -1.4098,-0.83 -0.8052,0.4527 -2.2137,1.0562 -3.7981,2.3395 -0.8053,0.679 -0.9554,2.4904 -0.9554,3.8988 v 8.7039 c 0,2.3396 1.0809,2.2136 1.0809,2.2136 1.9626,-0.1255 4.9814,-2.4651 4.9309,-3.3958 l -0.1255,-3.874 3.8732,-2.7169 -0.1761,5.9621 c -0.075,2.4903 -3.5975,4.7541 -6.1128,6.6157 -1.8356,1.3333 -3.6467,2.3897 -4.5774,2.8677 -2.1891,1.082 -3.749,0.3272 -3.749,-3.748 l -0.0506,-9.2826 c 0,-8.2006 2.1386,-9.5588 7.5718,-12.4771 0.6797,-0.4026 2.4157,-1.0314 3.5225,-0.9055 0.2511,-0.5032 0.101,-2.2136 0.6537,-2.9182 l 2.9179,-1.5845 -0.075,7.7478 z m 9.3324,5.8108 c 0.202,-0.1508 0.4026,-0.2514 0.6292,-0.3268 0.2005,0 0.3766,0.0501 0.5035,0.1255 0.0997,0.1761 0.1761,0.3273 0.1761,0.6293 0,0.2262 -0.0764,0.5281 -0.1761,0.7796 -0.1269,0.3271 -0.303,0.5786 -0.5035,0.8806 -0.2266,0.3521 -0.4272,0.5534 -0.6292,0.7295 -0.4026,0.3016 -0.6783,0.3268 -0.9813,0.3016 -0.2266,-0.1761 -0.3521,-0.3521 -0.3521,-0.7295 0,-0.3016 0.0505,-0.5534 0.1255,-0.8551 0.1269,-0.3019 0.303,-0.5533 0.5296,-0.8805 0.2006,-0.2262 0.4012,-0.4781 0.6783,-0.6542 z"
       style="display:inline;fill:#ffffff;fill-rule:evenodd"
       id="path22" />
  </g>
</svg>
