<?xml version="1.0" encoding="UTF-8" standalone="no"?>
<svg
   version="1.1"
   width="1.7430347in"
   height="1.7430347in"
   viewBox="0 0 125.4985 125.4985"
   id="svg21"
   sodipodi:docname="ec_sao_jose-rs_2.cdr"
   xmlns:inkscape="http://www.inkscape.org/namespaces/inkscape"
   xmlns:sodipodi="http://sodipodi.sourceforge.net/DTD/sodipodi-0.dtd"
   xmlns="http://www.w3.org/2000/svg"
   xmlns:svg="http://www.w3.org/2000/svg">
  <defs
     id="defs21" />
  <sodipodi:namedview
     id="namedview21"
     pagecolor="#ffffff"
     bordercolor="#000000"
     borderopacity="0.25"
     inkscape:showpageshadow="2"
     inkscape:pageopacity="0.0"
     inkscape:pagecheckerboard="0"
     inkscape:deskcolor="#d1d1d1"
     inkscape:document-units="in" />
  <g
     id="Layer1003"
     transform="translate(-45.250599,-45.250599)">
    <path
       d="m 107.9999,45.2506 h 6e-4 c 17.281,6e-4 32.9685,7.0466 44.3352,18.4135 11.3661,11.3667 18.4134,27.0541 18.4134,44.3343 v 10e-4 7e-4 c 0,17.2803 -7.0473,32.9678 -18.414,44.3346 -11.3661,11.3667 -27.0536,18.414 -44.3342,18.414 h -0.001 -4e-4 c -17.2812,0 -32.9684,-7.0473 -44.3351,-18.414 C 52.2979,140.9683 45.2509,125.2822 45.2506,108.0012 v -10e-4 C 45.2509,90.7186 52.2979,75.0312 63.6647,63.6645 75.0315,52.2976 90.7183,45.2516 107.9989,45.251 Z"
       style="fill:#102a83;fill-rule:evenodd"
       id="path10" />
    <path
       d="m 108.0005,47.1857 h -6e-4 -10e-4 C 91.2525,47.1864 76.0496,54.0163 65.033,65.0322 54.0163,76.0489 47.1861,91.2524 47.1861,107.9998 v 0.001 c 3e-4,16.7453 6.8302,31.949 17.8465,42.9656 11.017,11.0167 26.2202,17.8466 42.9669,17.8466 h 4e-4 0.001 c 16.7463,0 31.9493,-6.8299 42.9659,-17.8466 11.0167,-11.0166 17.8473,-26.2203 17.8473,-42.9663 v -7e-4 -10e-4 C 168.8134,91.2524 161.9835,76.0496 150.9668,65.033 139.9502,54.0163 124.7472,47.1857 108.0005,47.1857 Z"
       style="fill:#ffffff;fill-rule:evenodd"
       id="path11" />
    <path
       d="M 148.3273,67.6012 C 138.033,57.307 123.8262,50.9249 108.176,50.9249 h -4e-4 -0.001 c -15.6499,0 -29.8565,6.3821 -40.1504,16.6756 -10.2943,10.2935 -16.6763,24.5012 -16.6763,40.151 v 8e-4 7e-4 c 3e-4,15.6506 6.382,29.8569 16.6759,40.151 10.2939,10.2929 24.5009,16.6763 40.1514,16.6763 h 8e-4 8e-4 c 15.6498,-0.001 29.8566,-6.3821 40.1502,-16.6763 10.2942,-10.2941 16.6763,-24.5004 16.6763,-40.151 v -7e-4 -8e-4 c -6e-4,-15.6498 -6.3821,-29.8575 -16.6756,-40.1503 z"
       style="fill:#102a83;fill-rule:evenodd"
       id="path12" />
    <path
       d="m 160.4912,91.1617 c -23.4448,-7.1994 -48.8323,-2.9609 -76.1646,12.7259 -0.456,-0.7957 -1.0086,-1.5293 -1.6526,-2.1736 -0.78,-0.7797 -1.69,-1.4261 -2.6858,-1.9247 8.0679,-23.4601 30.9237,-33.2815 57.6272,-38.3121 3.3801,2.1603 6.5181,4.6672 9.3431,7.4923 6.1423,6.1421 10.8367,13.7293 13.5327,22.1922 z"
       style="fill:#ffffff;fill-rule:evenodd"
       id="path13" />
    <path
       d="m 75.4143,99.9093 h 0.001 4e-4 c 2.4954,0 4.761,1.018 6.403,2.6596 1.6419,1.6422 2.6597,3.908 2.6601,6.4023 v 0.001 c -4e-4,2.495 -1.0182,4.7615 -2.6604,6.403 -1.6417,1.6415 -3.9073,2.6596 -6.402,2.6596 h -0.0011 -3e-4 c -2.4955,0 -4.7612,-1.0181 -6.403,-2.6596 -1.642,-1.6415 -2.6598,-3.908 -2.6602,-6.4016 v -0.001 c 4e-4,-2.4957 1.0186,-4.7621 2.6605,-6.4037 1.6415,-1.6416 3.9072,-2.6596 6.402,-2.6596 z"
       style="fill:#ffffff;fill-rule:evenodd"
       id="path14" />
    <path
       d="M 69.3923,68.9695 C 75.2462,63.1146 82.417,58.5852 90.4034,55.8376 79.4265,66.2176 72.8756,83.0984 73.2438,98.9357 c -1.9599,0.4254 -3.7162,1.4072 -5.0869,2.7783 -0.4866,0.4867 -0.9218,1.0237 -1.3036,1.5997 -4.7287,-2.8284 -8.2343,-7.1311 -10.8891,-12.4603 2.7117,-8.3388 7.3608,-15.817 13.4281,-21.8839 z"
       style="fill:#ffffff;fill-rule:evenodd"
       id="path15" />
    <path
       d="m 69.3919,146.5345 c -4.8611,-4.8605 -8.8109,-10.6289 -11.587,-17.0174 1.4554,-5.8794 4.1879,-11.1164 8.6997,-15.4588 0.4561,0.7951 1.0081,1.5286 1.652,2.1723 1.384,1.3843 3.1608,2.3753 5.1444,2.7935 1.417,14.1707 5.9522,28.2204 21.0873,41.8597 -9.5944,-2.4978 -18.1829,-7.5356 -24.9964,-14.3493 z"
       style="fill:#ffffff;fill-rule:evenodd"
       id="path16" />
    <path
       d="m 146.9585,146.5359 c -2.1283,2.1283 -4.4393,4.0704 -6.8897,5.8291 -26.4358,-2.8842 -47.2708,-13.1987 -60.0204,-34.2391 0.9722,-0.4943 1.861,-1.1309 2.6252,-1.8953 0.5862,-0.5866 1.0925,-1.2497 1.5245,-1.9624 23.4464,14.1554 48.9152,17.638 76.816,8.295 -2.5829,9.1792 -7.4873,17.4037 -14.0556,23.9727 z"
       style="fill:#ffffff;fill-rule:evenodd"
       id="path17" />
    <path
       d="m 86.3239,92.5061 c 0.2061,0.2693 0.4062,0.5412 0.5994,0.8139 -0.696,0.6854 -1.3856,1.3633 -2.0562,2.0216 0.2003,0.2377 0.4,0.4755 0.606,0.7141 0.6768,-0.6206 1.3665,-1.2594 2.0754,-1.9052 0.1931,0.2553 0.3804,0.5133 0.5735,0.7713 -0.7091,0.6039 -1.4052,1.2078 -2.0882,1.7942 0.2127,0.2469 0.4191,0.4931 0.6252,0.7399 0.6897,-0.5467 1.3856,-1.1087 2.101,-1.6722 0.1933,0.258 0.3801,0.5133 0.5733,0.7713 -1.0373,0.7621 -2.0491,1.516 -3.0289,2.2503 -0.4832,-0.539 -0.9739,-1.0767 -1.4628,-1.6129 -0.4905,-0.5384 -0.9731,-1.0774 -1.4692,-1.6165 0.9536,-0.9972 1.9397,-2.0153 2.9515,-3.0698 z M 90.5,89.2601 c 0.2319,0.3996 0.4766,0.7998 0.7151,1.1994 -0.3285,-0.0397 -0.6392,-0.0174 -0.9278,0.062 -0.304,0.0851 -0.5938,0.2553 -0.8895,0.5104 -0.2517,0.2176 -0.4167,0.438 -0.5024,0.6521 -0.0879,0.2196 -0.0746,0.4038 0.0321,0.5586 0.061,0.0885 0.1233,0.1443 0.1997,0.1701 0.0656,0.0224 0.1828,0.0154 0.3352,-0.0425 0.0798,-0.03 0.1739,-0.0767 0.2964,-0.1332 0.1285,-0.0599 0.2642,-0.1241 0.4253,-0.2043 0.4965,-0.2462 0.9536,-0.3772 1.3661,-0.3801 0.4253,-0.0028 0.783,0.2546 1.0701,0.7434 0.2604,0.4436 0.3127,0.9247 0.1349,1.4338 -0.1765,0.5062 -0.5094,0.924 -1.0115,1.2565 -0.2905,0.1919 -0.5865,0.3348 -0.8832,0.4254 -0.3151,0.0963 -0.6314,0.152 -0.9602,0.1666 -0.219,-0.3116 -0.4379,-0.6268 -0.6636,-0.9377 0.3222,0.0362 0.6506,0.018 0.9666,-0.0378 0.3092,-0.0543 0.6192,-0.1807 0.9151,-0.3933 0.2518,-0.1813 0.4262,-0.3716 0.5028,-0.5704 0.0778,-0.2008 0.0632,-0.3934 -0.0448,-0.567 -0.111,-0.1778 -0.2842,-0.2427 -0.4904,-0.2015 -0.2129,0.0432 -0.4567,0.127 -0.7279,0.2413 -0.0701,0.03 -0.1489,0.0586 -0.2319,0.0962 -0.0715,0.0335 -0.157,0.0628 -0.2322,0.0935 -0.3693,0.1513 -0.735,0.2468 -1.0953,0.281 -0.3615,0.0343 -0.6792,-0.1388 -0.9539,-0.5217 -0.2792,-0.3883 -0.3404,-0.8499 -0.1934,-1.4001 0.1492,-0.5587 0.4912,-1.0761 1.0055,-1.5475 0.2266,-0.2091 0.4323,-0.3737 0.638,-0.5048 0.2065,-0.1325 0.4317,-0.2441 0.6636,-0.3153 0.0902,-0.0278 0.1683,-0.0516 0.2581,-0.0732 0.084,-0.0202 0.1802,-0.0368 0.2834,-0.048 0,-0.0028 0,-0.0084 0,-0.0119 z m 2.8483,-2.8292 c 0.3093,-0.2377 0.5547,-0.4127 0.7155,-0.502 0.1676,-0.0921 0.3284,-0.1534 0.4832,-0.1869 0.045,-0.0098 0.0963,-0.0202 0.1353,-0.0251 0.0446,-0.0063 0.0903,-0.0076 0.1415,-0.0112 0.3547,-0.0279 0.6751,0.0502 0.9411,0.2406 0.2622,0.1869 0.4947,0.4916 0.6831,0.8989 0.2113,0.4567 0.3057,0.9331 0.2835,1.4086 -0.0227,0.4826 -0.1521,0.8898 -0.4122,1.2329 -0.0233,0.0307 -0.0477,0.0579 -0.0711,0.0851 -0.022,0.0265 -0.0346,0.0572 -0.0582,0.0851 -0.1311,0.1569 -0.296,0.3013 -0.4704,0.4365 -0.1737,0.1367 -0.4211,0.2971 -0.7281,0.4937 -0.2021,0.1297 -0.3995,0.2663 -0.5926,0.3967 0.161,0.2923 0.3159,0.5817 0.4703,0.8731 0.1547,0.2922 0.3222,0.5782 0.4704,0.8711 -0.393,0.2314 -0.7797,0.4644 -1.1667,0.6938 -0.4959,-0.8731 -0.9986,-1.7496 -1.5011,-2.6255 -0.5027,-0.8758 -0.9989,-1.7516 -1.5017,-2.622 0.7217,-0.5752 1.4436,-1.1562 2.1782,-1.7434 z m 0.5091,3.544 c 0.2064,-0.1451 0.4146,-0.2985 0.6251,-0.4393 0.4275,-0.2874 0.7106,-0.5635 0.8375,-0.8396 0.1308,-0.2825 0.1172,-0.5816 -0.0384,-0.9011 -0.1537,-0.3151 -0.3612,-0.4756 -0.5993,-0.4797 -0.2384,-0.0042 -0.5805,0.1617 -1.0181,0.4882 -0.2389,0.1778 -0.4771,0.3514 -0.7026,0.5216 0.1482,0.272 0.2995,0.5508 0.4511,0.8242 0.1514,0.2734 0.2964,0.551 0.4447,0.8257 z m 8.8225,-5.2134 c 0.2126,0.6374 0.3381,1.2302 0.3866,1.7629 0.0478,0.5272 0.008,1.0028 -0.0966,1.4178 -0.2105,0.8319 -0.7154,1.4371 -1.5338,1.8166 -0.8121,0.3772 -1.5757,0.3598 -2.288,-0.0169 -0.3445,-0.1812 -0.6754,-0.4407 -0.9728,-0.7935 -0.2953,-0.3501 -0.5756,-0.7893 -0.8187,-1.3291 -0.2406,-0.5349 -0.3933,-1.0447 -0.4703,-1.5112 -0.0775,-0.4693 -0.0656,-0.924 0.0321,-1.3271 0.2049,-0.8437 0.7796,-1.5829 1.7077,-2.1457 0.908,-0.5509 1.6907,-0.6771 2.3459,-0.3661 0.3309,0.1576 0.6444,0.4239 0.9153,0.8027 0.2702,0.3779 0.5048,0.8661 0.7217,1.4539 0.009,0.0252 0.0158,0.0433 0.0192,0.0628 0.003,0.0154 0.0227,0.0341 0.0258,0.0564 0.003,0.0231 0.0164,0.0475 0.0192,0.065 0.004,0.0194 0,0.0431 0.0129,0.0627 0,-0.0028 0,-0.0056 -0.006,-0.0112 z m -1.2957,0.6695 c -0.0126,-0.0209 -0.0179,-0.0433 -0.0321,-0.0739 -0.0119,-0.0266 -0.013,-0.0558 -0.0258,-0.0851 -0.2064,-0.4798 -0.4826,-0.8759 -0.8184,-1.1772 -0.3406,-0.3054 -0.7859,-0.2908 -1.2953,0.0028 -0.4829,0.279 -0.7737,0.6639 -0.8571,1.1514 -0.0843,0.493 0.0287,1.0843 0.3289,1.7831 0.2797,0.6514 0.6286,1.0913 1.0247,1.3409 0.3901,0.2462 0.8041,0.2755 1.2242,0.0677 0.424,-0.2092 0.6799,-0.5663 0.7542,-1.0823 0.0739,-0.516 -0.0157,-1.161 -0.2964,-1.9163 -0.003,-0.0083 -0.007,-0.0091 -0.007,-0.0111 z m 3.261,-5.9958 c 0.3609,-0.1792 0.6372,-0.3048 0.8379,-0.3634 0.2051,-0.0606 0.3997,-0.0788 0.5799,-0.0676 0.0133,0 0.0259,0.0056 0.0387,0.0083 0.0192,0.0029 0.0391,0 0.0583,0.0029 0.3158,0.0398 0.6038,0.1911 0.8503,0.4617 0.2434,0.2677 0.4192,0.6323 0.5482,1.0738 0.122,0.4199 0.1767,0.8201 0.1545,1.1966 -0.0228,0.378 -0.1175,0.7031 -0.2835,0.9722 -0.0272,0.0446 -0.0576,0.0948 -0.0775,0.134 -0.0188,0.0368 -0.0631,0.0724 -0.0899,0.1073 -0.1021,0.1325 -0.2117,0.2538 -0.3354,0.3487 -0.1211,0.0927 -0.3093,0.2133 -0.5478,0.3459 0.5349,0.4253 1.0596,0.8647 1.5789,1.3124 0.5183,0.4476 1.0371,0.9106 1.547,1.3751 -0.5418,0.1896 -1.0764,0.38 -1.6116,0.5677 -0.4766,-0.4429 -0.9644,-0.8787 -1.4499,-1.3041 -0.481,-0.4226 -0.9731,-0.8172 -1.4563,-1.2133 0.174,0.5355 0.358,1.0668 0.5349,1.601 0.1775,0.5369 0.3542,1.0684 0.5282,1.6074 -0.4316,0.1729 -0.8637,0.3521 -1.3016,0.5245 -0.4319,-1.2302 -0.8602,-2.468 -1.2953,-3.6995 -0.4349,-1.2287 -0.8637,-2.4658 -1.3019,-3.6967 0.8249,-0.4309 1.6628,-0.8647 2.4939,-1.2949 z m 0.013,3.9567 c 0.2771,-0.1332 0.5603,-0.2706 0.8444,-0.3932 0.3923,-0.1716 0.6525,-0.3794 0.7731,-0.627 0.1241,-0.2546 0.135,-0.5697 0.0195,-0.9414 -0.1102,-0.3542 -0.2719,-0.5571 -0.4703,-0.6178 -0.1884,-0.058 -0.5025,0.009 -0.922,0.2154 -0.2959,0.145 -0.5926,0.2831 -0.889,0.4282 0.2126,0.6458 0.4249,1.2929 0.6443,1.9358 z m 8.1394,-7.3932 c 0.1417,0.6122 0.283,1.2217 0.4192,1.834 -0.6257,0.2189 -1.2441,0.4393 -1.869,0.6638 0.2832,1.1221 0.5574,2.2484 0.8312,3.3738 0.2734,1.1228 0.5476,2.2503 0.8119,3.3759 -0.4444,0.1332 -0.8893,0.2663 -1.3341,0.3995 -0.2839,-1.1052 -0.5704,-2.2147 -0.857,-3.3222 -0.2867,-1.1066 -0.5741,-2.2174 -0.8571,-3.322 -0.6255,0.2573 -1.2633,0.5216 -1.8755,0.7817 -0.1611,-0.5698 -0.3156,-1.1423 -0.4766,-1.7149 1.7203,-0.7601 3.467,-1.4204 5.207,-2.0696 z m 5.1938,-1.6332 c 0.1165,0.615 0.2197,1.2336 0.3291,1.8521 -0.9861,0.2664 -1.9852,0.5607 -2.9714,0.8584 0.1227,0.6123 0.2518,1.2218 0.3744,1.8341 0.9729,-0.2811 1.959,-0.5531 2.9381,-0.8054 0.0968,0.5871 0.2063,1.1688 0.3034,1.7552 -0.9666,0.235 -1.9339,0.4874 -2.8934,0.751 0.1346,0.6352 0.2572,1.2734 0.3863,1.908 0.9471,-0.2497 1.9072,-0.4847 2.8549,-0.6974 0.1095,0.5844 0.2127,1.168 0.316,1.7518 -1.3731,0.2866 -2.733,0.6241 -4.0928,0.9672 -0.3221,-1.4715 -0.6373,-2.949 -0.9594,-4.4199 -0.3223,-1.4685 -0.6382,-2.9455 -0.9603,-4.4197 1.4624,-0.4532 2.9252,-0.9045 4.3751,-1.3354 z m 8.597,-0.8076 c 0.0968,0.8076 0.1868,1.613 0.2775,2.4212 -0.0196,0.0029 -0.039,0.0056 -0.058,0.0084 -0.2517,-0.4826 -0.5446,-0.8445 -0.8639,-1.0571 -0.3312,-0.2218 -0.6961,-0.2908 -1.0762,-0.2162 -0.5082,0.1004 -0.8701,0.4365 -1.0891,1.0153 -0.2198,0.5808 -0.2748,1.3236 -0.1478,2.2315 0.1373,0.9889 0.3917,1.7308 0.7474,2.2301 0.3536,0.4979 0.7789,0.7072 1.295,0.6214 0.3348,-0.0559 0.6298,-0.2337 0.8829,-0.5504 0.2558,-0.3186 0.4511,-0.7537 0.5935,-1.3179 0.0187,-0.0055 0.0313,-0.0083 0.0509,-0.0194 0.0843,0.7056 0.161,1.4086 0.2384,2.1143 -0.2126,0.4589 -0.4804,0.8424 -0.7796,1.1339 -0.2999,0.2922 -0.6513,0.4658 -1.0439,0.5299 -0.7993,0.1312 -1.5056,-0.2175 -2.1075,-1.0515 -0.3004,-0.4156 -0.5606,-0.9247 -0.7733,-1.5251 -0.2119,-0.5984 -0.3751,-1.295 -0.4966,-2.0838 -0.1172,-0.7677 -0.1512,-1.4629 -0.1219,-2.0773 0.0285,-0.6185 0.1521,-1.1534 0.3416,-1.6136 0.3775,-0.9171 1.0314,-1.4763 1.9527,-1.6611 0.4057,-0.0817 0.7796,-0.0453 1.1401,0.099 0.3676,0.1471 0.7093,0.4114 1.0378,0.7824 0,-0.0028 0,-0.0083 0,-0.014 z m 5.2006,6.1995 c 0.0517,0.661 0.1159,1.3158 0.1675,1.9791 -1.1918,0.1017 -2.3906,0.2329 -3.583,0.3855 -0.1738,-1.6269 -0.3613,-3.2537 -0.5349,-4.8785 -0.1736,-1.627 -0.3479,-3.2546 -0.5215,-4.8766 0.4637,-0.0677 0.9281,-0.1416 1.3979,-0.2119 0.1291,1.3067 0.2644,2.6136 0.3934,3.9231 0.1284,1.3097 0.2575,2.6165 0.3863,3.9261 0.7609,-0.0962 1.528,-0.1729 2.2943,-0.2468 z m 1.4499,-8.1471 c 0.0649,0.9469 0.1325,1.8996 0.2001,2.8493 0.0676,0.9464 0.1373,1.894 0.2063,2.8432 0.0475,0.6582 0.1389,1.2342 0.2832,1.7182 0.1458,0.488 0.477,0.7098 0.9736,0.6806 0.2056,-0.0125 0.389,-0.1144 0.5474,-0.2901 0.1637,-0.1813 0.2741,-0.4073 0.322,-0.6799 0.01,-0.0537 0.0224,-0.1019 0.0258,-0.15 0.003,-0.0431 0.012,-0.0878 0.0133,-0.1248 0.005,-0.1303 0.0126,-0.2838 0.006,-0.454 -0.006,-0.1694 -0.0176,-0.4672 -0.0455,-0.8897 -0.0618,-0.9499 -0.1094,-1.9024 -0.161,-2.8523 -0.0516,-0.9525 -0.1159,-1.9051 -0.1736,-2.8576 0.4575,-0.0279 0.9086,-0.0649 1.366,-0.0934 0.0516,0.9525 0.0964,1.9023 0.1487,2.8576 0.051,0.947 0.0996,1.8996 0.1478,2.8522 0.0418,0.8305 0.071,1.4254 0.071,1.7769 0,0.357 -0.0397,0.6637 -0.1094,0.933 -0.0203,0.0788 -0.0551,0.1687 -0.0907,0.2607 -0.0356,0.0921 -0.074,0.1974 -0.1158,0.3117 -0.1576,0.4276 -0.4002,0.7679 -0.7216,1.0091 -0.323,0.2427 -0.6834,0.3759 -1.083,0.3975 -0.4576,0.0237 -0.8696,-0.0655 -1.2308,-0.2691 -0.3668,-0.2079 -0.6583,-0.5328 -0.8829,-0.9588 -0.0265,-0.0503 -0.055,-0.0943 -0.0774,-0.1417 -0.023,-0.0494 -0.0459,-0.101 -0.0642,-0.1478 -0.1234,-0.3109 -0.2252,-0.6457 -0.2901,-1.023 -0.0642,-0.3716 -0.1297,-0.9184 -0.1869,-1.6297 -0.0781,-0.9638 -0.1582,-1.9274 -0.2323,-2.8891 -0.0737,-0.9631 -0.154,-1.9254 -0.2252,-2.8919 0.464,-0.0509 0.9213,-0.0991 1.3788,-0.1471 z m 7.0955,-0.507 c 0.387,-0.0063 0.6449,0.0042 0.8055,0.0168 0.1617,0.0125 0.2983,0.0557 0.4189,0.1241 0.0343,0.0195 0.0656,0.0431 0.1033,0.0656 0.0397,0.0236 0.0822,0.0557 0.1158,0.0822 0.2371,0.1862 0.4219,0.4526 0.5544,0.8131 0.1311,0.357 0.2099,0.7657 0.2188,1.2224 0.0169,0.8027 -0.0975,1.4143 -0.3415,1.8257 -0.2455,0.4135 -0.6053,0.6855 -1.0761,0.8138 0.4637,0.0537 0.8374,0.2357 1.1214,0.5356 0.2894,0.3068 0.4442,0.8926 0.4636,1.7691 0.0126,0.5384 -0.0411,1.0328 -0.1609,1.4707 -0.1187,0.438 -0.2895,0.7636 -0.5154,0.9701 -0.0252,0.0229 -0.0461,0.0445 -0.0642,0.062 -0.0203,0.0195 -0.0418,0.0321 -0.0585,0.046 -0.1514,0.1199 -0.3223,0.212 -0.5021,0.2553 -0.1939,0.0447 -0.4513,0.0697 -0.7803,0.076 -0.7797,0.0139 -1.5593,0.0341 -2.3327,0.0621 -0.0775,-1.6807 -0.1549,-3.3648 -0.2323,-5.046 -0.0773,-1.6835 -0.154,-3.3647 -0.2314,-5.0461 0.8313,-0.0571 1.6686,-0.0905 2.4937,-0.1185 z m -0.8634,8.3765 c 0.3091,-0.0027 0.6249,-0.0182 0.9471,-0.0223 0.3869,-0.0049 0.6563,-0.0949 0.8054,-0.2866 0.1535,-0.196 0.2225,-0.5251 0.2126,-0.984 -0.009,-0.4532 -0.1025,-0.7741 -0.2768,-0.9665 -0.1674,-0.1841 -0.4386,-0.281 -0.8249,-0.272 -0.3284,0.0077 -0.6507,0.0196 -0.9664,0.0252 0.0319,0.8367 0.0639,1.6729 0.103,2.5062 z m -0.1547,-4.1018 c 0.3221,-0.0056 0.6442,-0.0209 0.9727,-0.025 0.3284,-0.0049 0.5781,-0.1075 0.7413,-0.3237 0.1653,-0.2203 0.242,-0.5355 0.2322,-0.9497 -0.009,-0.3878 -0.0954,-0.6646 -0.2581,-0.8306 -0.1665,-0.1709 -0.4189,-0.2468 -0.7732,-0.2378 -0.3417,0.0084 -0.6764,0.0112 -1.0246,0.014 0.0384,0.7879 0.0643,1.5704 0.1097,2.3528 z m 8.1011,-4.3884 c 0,0.6855 0,1.3745 0,2.0607 -0.922,0.0056 -1.8439,0.0083 -2.7587,0.0083 0.006,0.7002 0.0132,1.3976 0.0258,2.0957 0.9086,0.002 1.8171,0.0055 2.7329,0.002 0,0.6527 0,1.3013 0,1.954 -0.9026,-0.0029 -1.8049,-0.0056 -2.7071,-0.0112 0.006,0.7253 0.0126,1.4511 0.0258,2.1771 0.889,0.0083 1.7852,0.0112 2.6813,0.0195 0,0.652 0,1.3012 0,1.9533 -1.2895,-0.0175 -2.578,-0.0314 -3.8801,-0.0426 -0.0259,-1.7007 -0.0615,-3.3988 -0.09,-5.1003 -0.0293,-1.7002 -0.0649,-3.4017 -0.0969,-5.0962 1.366,-0.0035 2.7197,-0.0091 4.067,-0.0203 z"
       style="fill:#102a83;fill-rule:evenodd"
       id="path18" />
    <path
       d="m 95.214,123.8708 c -0.41,0.3821 -0.8141,0.7643 -1.2126,1.1492 -0.0775,-0.3502 -0.2172,-0.6652 -0.4282,-0.9499 -0.205,-0.2747 -0.5258,-0.5146 -0.9275,-0.7334 -0.3473,-0.1899 -0.66,-0.3111 -0.9453,-0.3543 -0.2915,-0.0462 -0.5226,-0.0153 -0.6837,0.1073 -0.0886,0.0669 -0.1454,0.1352 -0.1544,0.2093 -0.0088,0.0737 0.0421,0.1825 0.1544,0.3276 0.06,0.0781 0.1447,0.1745 0.2441,0.2859 0.1025,0.1172 0.2273,0.2484 0.38,0.4003 0.4834,0.4785 0.8215,0.9555 0.9931,1.4185 0.1792,0.4852 0.0246,0.9747 -0.4697,1.4489 -0.4509,0.4325 -1.0544,0.5915 -1.8072,0.4311 -0.7395,-0.1576 -1.4456,-0.5663 -2.0512,-1.2216 -0.34,-0.3683 -0.5879,-0.7687 -0.7908,-1.1563 -0.1954,-0.371 -0.3389,-0.7491 -0.4341,-1.1187 0.3271,-0.2063 0.6541,-0.4141 0.9752,-0.6261 0.0415,0.336 0.1286,0.6764 0.2852,1.0334 0.1583,0.3598 0.3965,0.728 0.7493,1.0864 0.3009,0.3057 0.6119,0.4895 0.8975,0.5649 0.2967,0.0768 0.5374,0.0377 0.7134,-0.1172 0.1802,-0.1576 0.2089,-0.3652 0.0774,-0.6009 -0.136,-0.2429 -0.3305,-0.4981 -0.5586,-0.7909 -0.063,-0.0809 -0.113,-0.1661 -0.1785,-0.244 -0.0707,-0.0838 -0.1244,-0.1715 -0.1845,-0.2512 -0.2852,-0.3765 -0.4877,-0.739 -0.6241,-1.0892 -0.1314,-0.3374 7e-4,-0.6248 0.3982,-0.8744 0.399,-0.251 0.9449,-0.3333 1.6472,-0.2915 0.7245,0.0446 1.4431,0.2079 2.1638,0.5384 0.3134,0.1421 0.5955,0.2789 0.8204,0.4254 0.2326,0.1519 0.4331,0.3264 0.6064,0.5258 0.0586,0.0669 0.1126,0.1407 0.1726,0.2216 0.0586,0.0781 0.113,0.1647 0.1663,0.254 0,-0.003 0.0059,-0.003 0.0059,-0.008 z m -2.3305,6.5815 c -0.5645,-0.477 -1.1116,-0.94 -1.6587,-1.4017 1.2542,-0.5564 2.5297,-1.1505 3.7932,-1.8354 1.2933,-0.7001 2.5743,-1.4937 3.8703,-2.3223 0.8801,0.3405 1.7657,0.6835 2.6636,1.0212 -0.4223,1.3694 -0.8438,2.7836 -1.2365,4.2426 -0.404,1.5006 -0.7611,3.0585 -1.1297,4.6554 -0.6777,-0.4239 -1.3437,-0.8383 -2.0156,-1.2539 0.2023,-0.7517 0.4044,-1.4909 0.6122,-2.2203 -1.0044,-0.6387 -2.0034,-1.2763 -2.9846,-1.9108 -0.6359,0.3557 -1.2782,0.696 -1.9142,1.0252 z m 6.5401,-4.0894 c -0.5412,0.3712 -1.0788,0.7463 -1.6113,1.1033 -0.5317,0.3571 -1.0704,0.6974 -1.6053,1.0349 0.7075,0.41 1.4209,0.8186 2.1342,1.2273 0.1726,-0.5843 0.3438,-1.1632 0.5293,-1.7251 0.1834,-0.5551 0.3567,-1.1061 0.5531,-1.6404 z m 3.6146,-1.9985 c -0.2973,0.3223 -0.5951,0.5425 -0.8978,0.6471 -0.3034,0.106 -0.6112,0.1005 -0.9215,-0.004 -0.0168,-0.005 -0.0418,-0.0112 -0.0652,-0.0196 -0.0182,-0.007 -0.0356,-0.0154 -0.0478,-0.032 -0.0533,-0.0181 -0.1081,-0.046 -0.1485,-0.0795 -0.0429,-0.0349 -0.1004,-0.092 -0.1785,-0.1617 -0.0879,-0.0809 -0.1681,-0.1464 -0.2197,-0.1828 -0.0554,-0.039 -0.1004,-0.0697 -0.1367,-0.0822 -0.0707,-0.0238 -0.1311,-0.0293 -0.1848,-0.0197 -0.053,0.01 -0.1363,0.0405 -0.2137,0.0921 -0.3212,-0.1142 -0.63,-0.2273 -0.9453,-0.3404 0.2674,-0.2467 0.5541,-0.4155 0.8619,-0.5076 0.2985,-0.0893 0.6011,-0.1005 0.8919,-0.007 0.0896,0.0279 0.1688,0.0626 0.2437,0.1101 0.0677,0.0432 0.1312,0.0962 0.1964,0.1451 0.0122,0.01 0.0311,0.0251 0.0474,0.0347 0.008,0.006 0.0168,0.0196 0.0297,0.0294 0.0522,0.0432 0.1067,0.0809 0.1666,0.1157 0.059,0.0362 0.1311,0.0614 0.1963,0.0824 0.0711,0.0208 0.1248,0.0235 0.1781,0.01 0.0535,-0.0153 0.1248,-0.0516 0.1963,-0.1087 0.3093,0.0907 0.6302,0.1841 0.9512,0.2789 z m 7.5146,9.8954 c -0.3918,0.841 -0.8326,1.5495 -1.3018,2.1198 -0.4701,0.5706 -0.99,1.0028 -1.5575,1.2861 -1.1389,0.5676 -2.4108,0.5007 -3.7752,-0.1339 -1.3703,-0.6359 -2.1747,-1.5901 -2.4553,-2.7587 -0.1357,-0.5636 -0.1259,-1.1618 0.0296,-1.7896 0.1533,-0.6206 0.441,-1.2746 0.8679,-1.9706 0.4233,-0.6917 0.872,-1.2692 1.3497,-1.7252 0.4793,-0.4589 0.9902,-0.7935 1.5219,-1.0348 1.0555,-0.4785 2.2409,-0.5231 3.5851,-0.134 1.2956,0.3767 2.0893,1.035 2.396,1.9819 0.1569,0.484 0.196,1.0445 0.1067,1.6876 -0.0884,0.64 -0.2915,1.3683 -0.6241,2.1659 -0.0125,0.0293 -0.0265,0.0571 -0.0356,0.0809 -0.009,0.0238 -0.0245,0.0516 -0.0354,0.0795 -0.0126,0.0293 -0.0245,0.0587 -0.0421,0.0781 -0.0187,0.0225 -0.0299,0.053 -0.0354,0.085 0,-0.006 0.005,-0.011 0.005,-0.018 z m -2.033,-0.6695 c 0.0118,-0.0279 0.024,-0.0599 0.0417,-0.0963 0.0175,-0.0376 0.0378,-0.0781 0.0535,-0.1157 0.2813,-0.675 0.4128,-1.3389 0.3924,-1.9789 -0.0207,-0.639 -0.4107,-1.0796 -1.1714,-1.3279 -0.7193,-0.2371 -1.3804,-0.1757 -1.9798,0.1478 -0.601,0.3237 -1.1669,0.9304 -1.6764,1.8507 -0.4773,0.8606 -0.668,1.6194 -0.553,2.2889 0.1169,0.6805 0.53,1.1602 1.225,1.4615 0.6962,0.3 1.3612,0.265 1.9856,-0.1158 0.63,-0.3849 1.1862,-1.0891 1.6705,-2.0974 0.003,-0.007 0.0119,-0.01 0.0119,-0.0169 z m 13.5134,-2.1882 c -0.2972,1.099 -0.6005,2.198 -0.9094,3.2942 -0.3095,1.099 -0.606,2.1952 -0.9094,3.2942 -0.1073,0.3879 -0.2,0.7086 -0.2676,0.9583 -0.0691,0.2551 -0.136,0.4532 -0.1787,0.5942 -0.2837,0.9454 -0.7691,1.6526 -1.4567,2.0973 -0.6855,0.4437 -1.4924,0.5191 -2.4015,0.2681 -0.4045,-0.1118 -0.7371,-0.2372 -1.0224,-0.3836 -0.2732,-0.1409 -0.5228,-0.3377 -0.7497,-0.5551 -0.0884,-0.0852 -0.1862,-0.1702 -0.2732,-0.2832 -0.0852,-0.1088 -0.1604,-0.2246 -0.2378,-0.3598 0.0656,-0.1519 0.1122,-0.279 0.1547,-0.3765 0.0413,-0.0964 0.0794,-0.1939 0.113,-0.286 0.008,-0.0223 0.003,-0.0461 0.0119,-0.0585 0.01,-0.0169 0.01,-0.0363 0.0174,-0.0573 0.0461,-0.124 0.1073,-0.2748 0.161,-0.4491 0.053,-0.1729 0.1069,-0.3764 0.1787,-0.601 0.0529,0.1353 0.1018,0.2524 0.1722,0.3626 0.0669,0.1046 0.1199,0.2119 0.1896,0.3054 0.1444,0.1911 0.3097,0.3403 0.4938,0.4589 0.1722,0.1101 0.3863,0.2078 0.6359,0.2734 0.5055,0.1311 0.933,0.0697 1.2845,-0.1827 0.3502,-0.2525 0.6088,-0.7059 0.8082,-1.3433 0.0802,-0.2551 0.1549,-0.5102 0.2323,-0.7657 0.3326,-1.0891 0.6666,-2.1839 0.993,-3.2761 0.3278,-1.0962 0.6597,-2.1895 0.993,-3.2816 0.6542,0.1256 1.3075,0.2469 1.9672,0.3529 z m 8.1575,6.8995 c -0.2204,1.007 -0.5075,1.8814 -0.8445,2.6247 -0.3353,0.7392 -0.7307,1.3585 -1.207,1.8229 -0.9631,0.9402 -2.1459,1.3014 -3.5432,1.0572 -1.3969,-0.244 -2.3606,-0.9581 -2.86,-2.159 -0.2496,-0.601 -0.3744,-1.2885 -0.368,-2.064 0.006,-0.7715 0.1394,-1.6415 0.3918,-2.59 0.2531,-0.9511 0.5537,-1.7644 0.9101,-2.4449 0.357,-0.6821 0.7698,-1.2246 1.2301,-1.6387 0.9192,-0.8272 2.0572,-1.1785 3.4365,-1.0154 1.3255,0.1576 2.2308,0.7042 2.7112,1.7002 0.2385,0.495 0.3808,1.1115 0.4165,1.8339 0.0356,0.7238 -0.0309,1.5565 -0.2024,2.5035 -0.007,0.0364 -0.005,0.0724 -0.0117,0.1006 -0.006,0.0264 -0.0118,0.0612 -0.0183,0.0961 -0.005,0.0348 -0.0153,0.0683 -0.0237,0.0934 -0.01,0.0307 -0.0235,0.0642 -0.0292,0.099 0,-0.006 0.006,-0.0126 0.0118,-0.0195 z m -2.0334,-0.2176 c 0,-0.0334 0.0145,-0.0725 0.0237,-0.117 0.009,-0.0448 0.0166,-0.0978 0.0237,-0.1437 0.1298,-0.8132 0.122,-1.5691 -0.0237,-2.2665 -0.1457,-0.7002 -0.6067,-1.1017 -1.3792,-1.2036 -0.7372,-0.0962 -1.3599,0.1297 -1.867,0.6736 -0.5097,0.5453 -0.9149,1.4213 -1.2071,2.6291 -0.2727,1.1282 -0.2867,2.0433 -0.0356,2.7404 0.2541,0.7032 0.7372,1.1132 1.4505,1.2318 0.6954,0.1156 1.3146,-0.1257 1.8314,-0.7352 0.5235,-0.6165 0.905,-1.5524 1.1771,-2.7893 10e-4,-0.004 0.006,-0.0112 0.006,-0.0196 z m 9.7265,-4.4673 c -0.1247,0.9583 -0.244,1.9122 -0.3689,2.8689 -0.2789,-0.4756 -0.6122,-0.8575 -0.9747,-1.1394 -0.3682,-0.2844 -0.8146,-0.4365 -1.3377,-0.4532 -0.4573,-0.014 -0.8353,0.0907 -1.1353,0.3082 -0.3061,0.2218 -0.495,0.5397 -0.5592,0.9568 -0.0363,0.2357 -0.0333,0.4295 0.0119,0.5759 0.0438,0.1424 0.163,0.2888 0.3744,0.4198 0.1158,0.0711 0.2629,0.1424 0.4337,0.2219 0.1801,0.0808 0.3809,0.1688 0.6248,0.265 0.7435,0.2956 1.3551,0.7113 1.8014,1.2328 0.4512,0.5272 0.6045,1.3724 0.4574,2.5328 -0.1325,1.0515 -0.5552,1.9275 -1.2957,2.6053 -0.7399,0.675 -1.5933,0.9567 -2.5564,0.8744 -0.5585,-0.0489 -1.0809,-0.1953 -1.5517,-0.4365 -0.4685,-0.2412 -0.8918,-0.5761 -1.2726,-1.0096 0.1485,-0.8663 0.2978,-1.7339 0.4464,-2.5984 0.2908,0.5299 0.6526,0.9678 1.064,1.3095 0.4151,0.3431 0.9151,0.5398 1.4805,0.583 0.4812,0.0376 0.8739,-0.0612 1.1773,-0.2901 0.3088,-0.2341 0.4943,-0.5663 0.5521,-0.9985 0.0608,-0.4477 -0.048,-0.7797 -0.3207,-1.0001 -0.2741,-0.2231 -0.6248,-0.4239 -1.0287,-0.608 -0.1135,-0.053 -0.2259,-0.1102 -0.3387,-0.1591 -0.1249,-0.0529 -0.2344,-0.1158 -0.3564,-0.177 -0.5441,-0.2693 -1.0217,-0.6416 -1.4149,-1.1159 -0.4038,-0.4868 -0.5105,-1.2691 -0.3216,-2.3388 0.1912,-1.0794 0.6528,-1.9443 1.3795,-2.6165 0.7237,-0.6709 1.5396,-0.9873 2.4552,-0.9567 0.3983,0.0139 0.7435,0.0558 1.0585,0.1478 0.3153,0.0934 0.6166,0.2497 0.8976,0.4658 0.0991,0.0767 0.2009,0.159 0.3033,0.2496 0.106,0.0921 0.2086,0.1899 0.3152,0.3 0,-0.004 0,-0.01 0,-0.0197 z m 7.5209,-1.2412 c -0.0718,0.8452 -0.143,1.6876 -0.2084,2.5301 -1.3612,0.0795 -2.7407,0.1576 -4.1137,0.2188 -0.0956,0.8438 -0.1848,1.6863 -0.2739,2.5287 1.3973,-0.0448 2.7887,-0.1032 4.1734,-0.1603 -0.0649,0.8003 -0.1304,1.5997 -0.1958,2.3973 -1.4032,0.0378 -2.8124,0.0768 -4.2273,0.1061 -0.0951,0.873 -0.1899,1.7475 -0.2789,2.6248 1.4384,-0.0139 2.8652,-0.0321 4.2865,-0.0475 -0.0655,0.8021 -0.1311,1.5997 -0.1967,2.399 -2.0984,-0.006 -4.2147,-0.0112 -6.3376,-0.0824 0.2378,-2.0306 0.4786,-4.0613 0.7198,-6.0905 0.2405,-2.0294 0.4874,-4.0587 0.7253,-6.092 1.9852,-0.0588 3.9594,-0.1841 5.9273,-0.3321 z m -2.3661,-0.9343 c -0.5647,0.0473 -1.1241,0.0808 -1.6771,0.106 0.5356,-0.6404 1.0761,-1.2861 1.6054,-1.9597 0.6604,-0.0613 1.3262,-0.1255 1.9917,-0.1897 -0.6362,0.6904 -1.2783,1.3711 -1.92,2.0434 z"
       style="fill:#102a83;fill-rule:evenodd"
       id="path19" />
    <path
       d="m 75.2786,102.8729 c 3.3888,0 6.1523,2.7643 6.1523,6.1527 0,3.3877 -2.7635,6.152 -6.1523,6.152 -3.3884,0 -6.152,-2.7643 -6.152,-6.152 0,-3.3884 2.7636,-6.1527 6.152,-6.1527 z"
       style="fill:#102a83;fill-rule:evenodd"
       id="path20" />
    <path
       d="m 106.2889,115.4578 v -13.2766 h -2.325 c -0.1021,0.8361 -0.466,1.4289 -1.0857,1.7768 -0.6216,0.3493 -1.5547,0.5245 -2.7956,0.5245 v 1.8338 h 3.8127 v 9.1415 z m 4.2548,-8.3959 c 0,1.1472 0.4025,2.1116 1.2038,2.8884 0.8039,0.7767 1.8103,1.1687 3.018,1.1687 0.797,0 1.5209,-0.1311 2.1694,-0.392 0.5245,-0.2106 0.9708,-0.5313 1.3347,-0.9538 -0.0445,0.6722 -0.1485,1.297 -0.3088,1.8703 -0.3975,1.3708 -1.1682,2.0556 -2.307,2.0556 -0.6596,0 -1.1484,-0.1338 -1.4607,-0.4015 -0.3139,-0.2664 -0.496,-0.5704 -0.5404,-0.9053 h -2.818 c 0.191,1.2093 0.7063,2.081 1.5369,2.6165 0.8306,0.5342 1.79,0.8033 2.8715,0.8033 1.6959,0 3.0204,-0.5829 3.9658,-1.7461 0.9457,-1.1659 1.4192,-2.947 1.4192,-5.3402 0,-2.2664 -0.4491,-3.9254 -1.3417,-4.9728 -0.8948,-1.0468 -2.1137,-1.5718 -3.6506,-1.5718 -1.6387,0 -2.9004,0.4254 -3.7747,1.2705 -0.8773,0.8479 -1.3174,2.0529 -1.3174,3.6102 z m 7.7259,0.9714 -0.2908,-1.2874 v 0.1312 c 0,0.6345 -0.2225,1.1395 -0.6666,1.5132 -0.4881,0.3981 -1.1165,0.5977 -1.8808,0.5977 -0.8408,0 -1.47,-0.2065 -1.8786,-0.6166 -0.4086,-0.4107 -0.6149,-1.0034 -0.6149,-1.776 0,-0.6974 0.2245,-1.2511 0.6729,-1.6542 0.4484,-0.4058 1.0634,-0.6095 1.8388,-0.6095 0.797,0 1.4497,0.1995 1.9561,0.597 0.5062,0.399 0.762,1.0063 0.762,1.8172 0.0441,0.4471 0.0795,0.8794 0.1019,1.2902 z m 10.8214,7.4245 v -13.2766 h -2.3249 c -0.1019,0.8361 -0.4665,1.4289 -1.0857,1.7768 -0.6221,0.3493 -1.5545,0.5245 -2.7965,0.5245 v 1.8338 h 3.8132 v 9.1415 z m 7.297,-8.9935 c 0,-0.6848 0.178,-1.2191 0.5286,-1.5983 0.3536,-0.3794 0.8843,-0.5704 1.5899,-0.5704 0.6264,0 1.1132,0.1624 1.4547,0.4853 0.3424,0.3256 0.5133,0.7628 0.5133,1.3124 0,0.5453 -0.242,0.9636 -0.7267,1.2503 -0.4838,0.2866 -1.1275,0.4303 -1.9245,0.4303 -0.1939,0 -0.3468,0 -0.4535,0 -0.1066,0 -0.2021,0 -0.2823,0 v 1.8877 h 0.4624 c 1.0592,0 1.8765,0.1548 2.4449,0.4658 0.5683,0.3111 0.855,0.795 0.855,1.4407 0,0.6458 -0.2157,1.166 -0.6417,1.5495 -0.4261,0.3865 -0.995,0.5815 -1.7016,0.5815 -0.728,0 -1.2851,-0.1993 -1.6652,-0.5982 -0.3822,-0.3975 -0.5725,-0.9722 -0.5725,-1.7196 h -2.9915 c 0,1.3945 0.4484,2.4853 1.3409,3.2622 0.8934,0.7783 2.1813,1.1686 3.8557,1.1686 1.4343,0 2.5975,-0.3835 3.486,-1.1492 0.8884,-0.7643 1.3348,-1.7811 1.3348,-3.039 0,-0.8089 -0.1869,-1.4839 -0.5551,-2.0181 -0.3709,-0.5342 -0.9283,-0.9317 -1.6682,-1.1785 0.558,-0.2476 0.9973,-0.6004 1.3173,-1.0468 0.3194,-0.4476 0.4797,-0.9671 0.4797,-1.5523 0,-1.0836 -0.3911,-1.963 -1.1707,-2.6358 -0.781,-0.673 -1.7943,-1.0112 -3.0356,-1.0112 -1.6075,0 -2.8648,0.3821 -3.7684,1.1422 -0.906,0.7601 -1.3592,1.8103 -1.3592,3.1437 z"
       style="fill:#ffffff;fill-rule:evenodd"
       id="path21" />
  </g>
</svg>
