<?xml version="1.0" encoding="UTF-8" standalone="no"?>
<svg
   version="1.1"
   width="1.4755785in"
   height="1.4676746in"
   viewBox="0 0 106.24166 105.67257"
   id="svg37"
   sodipodi:docname="sao_caetano.cdr"
   xmlns:inkscape="http://www.inkscape.org/namespaces/inkscape"
   xmlns:sodipodi="http://sodipodi.sourceforge.net/DTD/sodipodi-0.dtd"
   xmlns="http://www.w3.org/2000/svg"
   xmlns:svg="http://www.w3.org/2000/svg">
  <defs
     id="defs37" />
  <sodipodi:namedview
     id="namedview37"
     pagecolor="#ffffff"
     bordercolor="#000000"
     borderopacity="0.25"
     inkscape:showpageshadow="2"
     inkscape:pageopacity="0.0"
     inkscape:pagecheckerboard="0"
     inkscape:deskcolor="#d1d1d1"
     inkscape:document-units="in" />
  <g
     id="Layer1003"
     transform="matrix(1,0,0,0.88146348,-54.878941,-42.361635)"
     inkscape:export-filename="Layer1003.png"
     inkscape:export-xdpi="98.110001"
     inkscape:export-ydpi="98.110001">
    <path
       d="M 108.0022,167.9414 C 95.583,154.1782 83.3259,155.3831 78.1591,154.4795 66.9444,152.3707 57.5142,143.6358 56.1009,130.7529 53.5522,108.2545 55.035,87.7723 60.1324,71.7616 L 55.869,66.687 v -7.2753 c 18.0267,-8.5267 35.1496,-11.3534 52.1332,-11.3534 17.03,0 34.1763,2.8267 52.2028,11.3534 v 7.2753 l -4.5646,5.0746 c 5.0746,16.0107 6.8814,36.4003 4.3329,58.9913 -1.5059,12.8829 -10.8435,21.6178 -22.0582,23.7266 -5.167,0.9036 -17.4473,-0.3013 -29.9129,13.4619 z"
       style="fill:#004394;fill-rule:evenodd"
       id="path10" />
    <path
       d="m 71.0689,146.4625 c -4.9353,-3.6841 -7.7854,-8.017 -9.2681,-14.2265 -2.2476,-15.4781 -1.7379,-31.2568 0.5098,-46.7346 l 1.3437,-6.2791 4.4255,-19.5095 2.9891,-0.9034 c 23.8655,-7.6234 50.094,-7.6234 74.1912,0 l 2.1551,0.6023 c 1.9461,7.0899 6.5106,25.4178 7.6228,32.7628 1.2743,13.2766 1.6684,26.8311 -0.2778,40.0615 -1.9467,9.4301 -9.8939,16.3811 -19.4631,17.2156 -10.4731,0.6024 -19.3707,4.1012 -27.2022,11.1448 -7.8545,-7.0436 -16.752,-10.5424 -27.225,-11.1448 -3.29,-0.3015 -6.951,-1.5757 -9.801,-2.9891 z"
       style="fill:#e41e15;fill-rule:evenodd"
       id="path11" />
    <path
       d="m 71.0689,81.3539 h 73.7974 v 58.4587 l -36.1688,12.9522 -37.6286,-12.9522 z"
       style="fill:#ffec00;fill-rule:evenodd"
       id="path12" />
    <path
       d="m 70.698,99.7976 h 74.4233 v 34.6163 H 70.698 Z"
       style="fill:#ffffff;fill-rule:evenodd"
       id="path13" />
    <path
       d="m 151.4696,89.6026 c -1.784,-9.1987 -4.2631,-18.629 -6.5105,-27.758 -3.0587,-1.1356 -6.3023,-2.0623 -9.616,-2.827 -8.2947,-1.8768 -17.1458,-2.7108 -25.1395,-2.9191 -0.7183,-0.0233 -1.4596,-0.0465 -2.1781,-0.0465 -9.0597,-0.0929 -18.0729,1.1816 -26.9007,3.1976 -3.5915,0.834 -7.1364,1.7841 -10.6351,2.8264 l -4.1245,17.795 c -1.923,9.6853 -2.8497,19.6486 -2.989,29.5884 v 4.8891 c 0.0695,3.9619 0.232,7.9009 0.5098,11.8167 l 0.6951,5.3757 c 2.4331,9.2218 7.7388,13.6934 16.5437,14.8522 0.6257,0.0694 1.2744,0.139 1.923,0.185 9.3608,0.9734 17.6558,4.1245 24.9082,10.1025 0.0233,-0.0233 0.0462,-0.0465 0.0695,-0.0694 7.9009,-6.372 16.8445,-9.4305 26.9238,-10.172 0.116,-0.0232 0.2549,-0.0232 0.3938,-0.0461 2.9196,-0.3014 5.6304,-1.5063 8.2024,-2.8038 10.6122,-7.6924 9.1293,-18.7679 9.5695,-31.3493 -0.3015,-7.4841 -0.3709,-15.3387 -1.6454,-22.6374 z m -62.4438,54.2186 c -2.5487,-0.0928 -5.1207,-0.4404 -7.901,-1.3903 -1.5987,-0.5561 -3.2671,-1.3206 -5.028,-2.3633 -3.0817,-18.1657 -4.5644,-36.2847 -0.0694,-53.6857 1.7146,-0.6718 3.406,-1.1123 5.0974,-1.4366 2.6647,-0.5097 5.3061,-0.7645 7.901,-1.1816 -8.3645,19.9497 -7.3218,39.9224 0,60.0575 z m 28.7774,3.1278 c -3.7303,1.8074 -7.1596,4.0547 -9.7777,6.0013 -2.6182,-2.039 -5.9086,-4.5647 -9.8011,-6.4415 -5.2363,-20.4129 -8.6656,-39.9456 -0.0694,-62.0732 2.7341,-1.1584 6.3022,-1.7379 9.8705,-1.7379 3.5682,0 7.1362,0.5795 9.8475,1.7379 8.6191,22.1276 5.1668,42.0311 -0.0698,62.5134 z m 22.6606,-6.8814 c -1.807,1.0656 -3.4987,1.8302 -5.1207,2.3865 -2.7337,0.9267 -5.2828,1.2743 -7.8083,1.3671 7.3218,-20.1351 8.3879,-40.1078 0,-60.0575 2.572,0.4171 5.1668,0.6486 7.8083,1.1583 1.7147,0.3476 3.4526,0.7881 5.2135,1.4599 4.2632,18.4666 2.6878,36.5627 -0.0928,53.6857 z"
       style="fill:#009035;fill-rule:evenodd"
       id="path14" />
    <path
       d="m 108.0022,74.3336 c 14.2731,-0.1394 25.1863,1.8763 34.3849,4.4254 -0.811,-5.1671 -1.6453,-10.4034 -2.3865,-15.5707 -11.1448,-3.2901 -21.6179,-4.2633 -31.9984,-4.1011 -10.3108,0.1391 -20.8765,1.1819 -32.0213,4.472 -0.7414,5.1668 -1.5522,10.4035 -2.3866,15.5703 9.1986,-2.5487 20.0424,-4.6338 34.4079,-4.7959 z"
       style="fill:#e41e15;fill-rule:evenodd"
       id="path15" />
    <path
       d="m 138.147,71.7151 c -0.1393,0.811 -0.278,1.4829 -0.4402,2.0159 -0.1393,0.4399 -0.3708,0.8108 -0.7417,1.0425 -0.2778,0.3013 -0.7414,0.3708 -1.3901,0.2319 -0.9038,-0.2319 -1.4135,-0.6718 -1.5524,-1.3442 -0.1622,-0.6719 -0.1622,-1.5753 0,-2.7802 v -0.1389 l 0.1389,-1.1356 c 0,0 0,-0.0693 0,-0.1389 0,-0.1621 0.0697,-0.3708 0.0697,-0.6023 0.0925,-0.3015 0.1622,-0.5097 0.2315,-0.9039 0.0696,-0.3706 0.1392,-0.6719 0.2085,-0.9729 0.1621,-0.2087 0.3015,-0.4404 0.3709,-0.5793 0.2315,-0.3941 0.6023,-0.533 0.834,-0.6024 0.2783,-0.0697 0.5791,0 0.8806,0.0694 0.6486,0.0695 1.0195,0.4404 1.3206,0.9036 0.2319,0.5097 0.3708,1.0428 0.3708,1.5758 0,0.579 0,1.2509 -0.1389,1.9229 z"
       style="fill:#ffffff;fill-rule:evenodd"
       id="path16" />
    <path
       d="m 129.8753,64.7641 1.1817,0.2082 0.7412,4.4256 0.3708,2.688 c 0.0696,-1.4136 0.0696,-2.3865 0.1389,-2.9891 0.0929,-0.6023 0.0929,-1.2049 0.1622,-1.8073 l 0.2087,-1.9463 1.1816,0.2317 -1.0195,8.596 -1.1816,-0.2082 -0.8111,-4.4951 -0.2317,-2.4791 c -0.0695,0.9034 -0.1389,1.7375 -0.1389,2.4791 -0.0928,0.8109 -0.1623,1.506 -0.2319,1.9464 l -0.2082,2.1779 -1.2051,-0.2317 z"
       style="fill:#ffffff;fill-rule:evenodd"
       id="path17" />
    <path
       d="m 126.3299,64.1615 1.622,0.3011 0.5331,8.8976 -1.2745,-0.2316 -0.0693,-2.2476 -1.3904,-0.2087 -0.6025,2.0855 -1.1816,-0.2317 z"
       style="fill:#ffffff;fill-rule:evenodd"
       id="path18" />
    <path
       d="m 125.0787,65.3432 -1.4131,-0.2087 -0.5795,7.3916 -1.1123,-0.1391 0.5099,-7.4147 -1.3208,-0.1389 0.0696,-1.3437 3.9158,0.5792 z"
       style="fill:#ffffff;fill-rule:evenodd"
       id="path19" />
    <path
       d="m 117.5254,63.1883 3.3362,0.3709 -0.0695,1.3438 -2.1546,-0.301 -0.1391,2.085 1.9928,0.3015 -0.0695,1.2743 -1.9929,-0.2088 -0.1622,2.6881 2.1551,0.2315 -0.1622,1.3438 -3.2438,-0.4632 z"
       style="fill:#ffffff;fill-rule:evenodd"
       id="path20" />
    <path
       d="m 113.7948,62.9566 1.599,0.0696 1.3204,8.7582 h -1.3204 l -0.2321,-2.2472 -1.3669,-0.0696 -0.3706,2.2475 h -1.2514 z"
       style="fill:#ffffff;fill-rule:evenodd"
       id="path21" />
    <path
       d="m 110.9912,65.5749 c 0,-1.0425 -0.1622,-1.5755 -0.5326,-1.5755 -0.5796,-0.1391 -0.8808,0.3706 -0.8808,1.506 l -0.0693,2.9891 c -0.0693,0.6023 0,1.112 0.1389,1.4131 0.0696,0.3015 0.3012,0.4637 0.5097,0.4637 0.3015,0 0.533,-0.1622 0.6023,-0.4637 0.0696,-0.2082 0.1391,-0.7413 0.1391,-1.4827 l 1.2743,0.0696 c -0.0924,0.6023 -0.0924,1.112 -0.1622,1.5757 -0.0695,0.44 -0.2082,0.8108 -0.5097,1.1816 -0.301,0.3937 -0.6719,0.5326 -1.251,0.5326 -0.5329,0 -0.9035,-0.1389 -1.2744,-0.3704 -0.278,-0.3015 -0.5097,-0.6719 -0.5792,-1.2049 -0.1392,-0.5097 -0.1392,-1.2745 -0.1392,-2.1551 l 0.0698,-1.5059 c 0,-0.9732 0.0694,-1.7147 0.2084,-2.317 0.0926,-0.533 0.3708,-0.9036 0.6023,-1.2049 0.3709,-0.2085 0.7414,-0.3706 1.251,-0.3706 0.6723,0 1.1821,0.301 1.4138,0.7415 0.278,0.6023 0.4402,1.2742 0.3704,2.2476 z"
       style="fill:#ffffff;fill-rule:evenodd"
       id="path22" />
    <path
       d="m 104.9208,67.9614 c 0,0.8343 0,1.5062 -0.0697,2.039 -0.0695,0.4402 -0.3011,0.8806 -0.5098,1.2514 -0.3011,0.3937 -0.7414,0.5326 -1.3438,0.5326 -0.95,0.0698 -1.5525,-0.2315 -1.7608,-0.8108 -0.2317,-0.6023 -0.3709,-1.506 -0.4636,-2.7108 V 68.054 l -0.0695,-1.0655 v -0.0696 c 0,0 0,-0.0697 0,-0.1391 0,-0.1621 0,-0.301 0,-0.6026 0,-0.2315 0.0695,-0.5325 0.0695,-0.9034 0,-0.3708 0.0927,-0.7414 0.1622,-0.9734 0,-0.301 0.0697,-0.5097 0.1392,-0.6719 0.3011,-0.4402 0.5097,-0.7412 0.7413,-0.8108 0.3011,-0.2319 0.6025,-0.2319 0.8806,-0.2319 0.672,-0.0693 1.1123,0.1393 1.4827,0.533 0.3014,0.3709 0.4403,0.8806 0.6025,1.4136 0.0695,0.6021 0.1392,1.2744 0.1392,1.9464 z"
       style="fill:#ffffff;fill-rule:evenodd"
       id="path23" />
    <path
       d="m 96.3476,62.5858 c 0,-0.301 0.0695,-0.6719 0.3014,-0.973 0.1389,-0.3013 0.4403,-0.4402 0.6486,-0.4402 0.1622,-0.0928 0.3709,0 0.6025,0.0694 0.301,0.1393 0.4403,0.2087 0.5097,0.2087 0.2316,0 0.4403,-0.2087 0.4403,-0.5098 l 0.6025,-0.0693 c -0.1392,0.8801 -0.3709,1.4132 -0.8806,1.4827 -0.1622,0 -0.3709,-0.0695 -0.6719,-0.0695 -0.2316,-0.1389 -0.5097,-0.2316 -0.6719,-0.2316 -0.0695,0 -0.1389,0.0927 -0.2087,0.1622 -0.0694,0.0694 -0.0694,0.2083 -0.1622,0.3704 z"
       style="fill:#ffffff;fill-rule:evenodd"
       id="path24" />
    <path
       d="m 97.1587,63.1188 1.622,-0.0926 1.784,8.6889 -1.2513,0.0693 -0.4633,-2.1779 -1.3208,0.0929 -0.3011,2.2243 -1.2511,0.0926 z"
       style="fill:#ffffff;fill-rule:evenodd"
       id="path25" />
    <path
       d="m 94.1232,66.2468 c -0.0694,-1.0425 -0.2778,-1.5755 -0.8108,-1.4827 -0.1392,0.0693 -0.3014,0.1389 -0.4403,0.278 -0.0694,0.1622 -0.1389,0.3939 -0.1389,0.6026 0.0695,0.3704 0.2084,0.7645 0.5097,0.973 0.3706,0.2315 0.672,0.4634 1.0424,0.7645 0.3709,0.2086 0.6491,0.5792 0.8806,0.8112 0.3014,0.3704 0.4403,0.7412 0.4403,1.1121 0.1622,0.973 0.0695,1.7377 -0.2086,2.2474 -0.3011,0.533 -0.7414,0.8341 -1.2744,0.9039 -0.6486,0.1621 -1.1816,0 -1.6219,-0.3016 -0.3705,-0.301 -0.6719,-0.9731 -0.6719,-2.0156 0,-0.3013 0,-0.4402 0,-0.6024 l 1.1122,-0.1393 c 0,0.0697 0,0.1393 0.0694,0.1393 0,0.0693 0,0.1622 0,0.1622 0,0.0693 -0.0694,0.1389 -0.0694,0.2082 0.0694,0.9038 0.3708,1.3442 0.9038,1.3442 0.1389,-0.0697 0.2084,-0.1393 0.3705,-0.1393 0,-0.0693 0.1393,-0.2315 0.2087,-0.3704 0,-0.1622 0.0695,-0.3708 0,-0.6025 0,-0.4402 -0.2087,-0.9039 -0.5792,-1.205 -0.3014,-0.2086 -0.6025,-0.4401 -0.9038,-0.6718 -0.2782,-0.2088 -0.5098,-0.4402 -0.6487,-0.6024 -0.2316,-0.2087 -0.3708,-0.5098 -0.4635,-0.8112 -0.2084,-0.3011 -0.2778,-0.6024 -0.2778,-1.0424 0,-1.3442 0.5097,-2.1783 1.5521,-2.3171 1.3209,-0.2315 2.0622,0.5792 2.2011,2.3171 v 0.3011 z"
       style="fill:#ffffff;fill-rule:evenodd"
       id="path26" />
    <path
       d="m 89.6977,71.2518 1.1817,-0.1393 0.1392,1.5758 -1.1816,0.1388 z"
       style="fill:#ffffff;fill-rule:evenodd"
       id="path27" />
    <path
       d="m 84.16,64.903 2.2938,-0.3706 c 0.7184,-0.0698 1.1817,0.2317 1.5525,0.9036 0.3709,0.5097 0.5098,1.7146 0.5792,3.29 0.0698,0.6719 0.0698,1.2744 0.0698,1.7146 0,0.4404 -0.0698,0.9039 -0.1392,1.2745 -0.0695,0.4401 -0.2317,0.7417 -0.4403,1.0427 -0.1622,0.2315 -0.5327,0.4402 -0.9036,0.533 l -2.2705,0.3011 z"
       style="fill:#ffffff;fill-rule:evenodd"
       id="path28" />
    <path
       d="m 82.3759,72.4568 1.1817,-0.1394 0.1621,1.4831 -1.1119,0.2315 z"
       style="fill:#ffffff;fill-rule:evenodd"
       id="path29" />
    <path
       d="m 77.8809,66.4092 1.622,-0.3941 2.5025,8.3185 -1.2515,0.2082 -0.6024,-2.085 -1.39,0.3703 v 2.2477 l -1.2514,0.3011 z"
       style="fill:#ffffff;fill-rule:evenodd"
       id="path30" />
    <path
       d="m 85.4114,66.0151 0.5098,6.1401 0.6718,-0.1389 c 0.3011,0 0.5098,-0.2319 0.5792,-0.4634 0.1622,-0.2084 0.2316,-0.5793 0.2316,-0.973 0,-0.4403 0,-1.0427 -0.0694,-1.8539 -0.0694,-1.0656 -0.2316,-1.8071 -0.3708,-2.2472 -0.139,-0.4637 -0.3706,-0.6026 -0.6719,-0.5331 z"
       style="fill:#e30016;fill-rule:evenodd"
       id="path31" />
    <path
       d="m 79.8039,71.2518 -0.7413,-2.8269 -0.3011,-1.3438 0.0695,1.4134 -0.0695,2.9889 z"
       style="fill:#e30016;fill-rule:evenodd"
       id="path32" />
    <path
       d="m 114.9535,68.1934 -0.3014,-2.9196 -0.0695,-1.3438 h -0.0696 l -0.1621,1.3438 -0.4402,2.9196 z"
       style="fill:#e30016;fill-rule:evenodd"
       id="path33" />
    <path
       d="M 98.6414,68.2628 98.1317,65.436 97.9696,64.0689 97.9001,65.436 97.599,68.3556 Z"
       style="fill:#e30016;fill-rule:evenodd"
       id="path34" />
    <path
       d="m 101.9548,65.6447 0.0927,3.151 c 0,1.1119 0.3708,1.6449 0.8806,1.6449 0.5792,0 0.8107,-0.6023 0.8107,-1.7146 l -0.0694,-2.9889 c 0,-0.3939 -0.0695,-0.8341 -0.1621,-1.2047 -0.1389,-0.3709 -0.4403,-0.6024 -0.7181,-0.6024 -0.3014,0 -0.533,0.1389 -0.6723,0.44 -0.1621,0.3013 -0.2316,0.7645 -0.1621,1.2747 z"
       style="fill:#e30016;fill-rule:evenodd"
       id="path35" />
    <path
       d="m 135.5057,68.6334 -0.3708,3.151 c -0.1622,1.0427 0.0693,1.7147 0.6486,1.8075 0.533,0.1391 0.9038,-0.3011 1.0426,-1.4367 l 0.3707,-2.9889 c 0.0697,-0.3706 0.0697,-0.7414 0,-1.1123 -0.0693,-0.5329 -0.3012,-0.7645 -0.6023,-0.834 -0.278,-0.0694 -0.5097,0 -0.6489,0.3011 -0.2317,0.2319 -0.3706,0.6025 -0.4399,1.1123 z"
       style="fill:#e30016;fill-rule:evenodd"
       id="path36" />
    <path
       d="m 127.0716,69.6065 -0.0698,-3.0584 v -1.3438 l -0.2315,1.3438 -0.7414,2.8498 z"
       style="fill:#e30016;fill-rule:evenodd"
       id="path37" />
  </g>
</svg>
