<?xml version="1.0" encoding="UTF-8" standalone="no"?>
<svg
   version="1.1"
   width="1.4427611in"
   height="1.4410889in"
   viewBox="0 0 103.8788 103.7584"
   id="svg23"
   sodipodi:docname="saopaolo.cdr"
   xmlns:inkscape="http://www.inkscape.org/namespaces/inkscape"
   xmlns:sodipodi="http://sodipodi.sourceforge.net/DTD/sodipodi-0.dtd"
   xmlns="http://www.w3.org/2000/svg"
   xmlns:svg="http://www.w3.org/2000/svg">
  <defs
     id="defs23" />
  <sodipodi:namedview
     id="namedview23"
     pagecolor="#ffffff"
     bordercolor="#000000"
     borderopacity="0.25"
     inkscape:showpageshadow="2"
     inkscape:pageopacity="0.0"
     inkscape:pagecheckerboard="0"
     inkscape:deskcolor="#d1d1d1"
     inkscape:document-units="in" />
  <g
     id="Layer1003"
     inkscape:export-filename="..\..\..\..\TIMES SVG\saopaulo.svg"
     inkscape:export-xdpi="99.808624"
     inkscape:export-ydpi="99.808624"
     transform="translate(-56.060497,-73.241699)">
    <path
       d="m 56.0605,73.2417 h 103.8788 v 40.2112 l -51.9392,63.5472 -51.9396,-63.5472 z"
       style="fill:#3a3a38;fill-rule:evenodd"
       id="path10" />
    <path
       d="m 56.7494,73.9303 h 102.501 v 39.2819 l -51.2503,62.7025 -51.2507,-62.7025 z"
       style="fill:#ffffff;fill-rule:evenodd"
       id="path11" />
    <path
       d="m 116.2836,111.2317 h 37.7315 l -37.7315,46.1708 z"
       style="fill:#000000;fill-rule:evenodd"
       id="path12" />
    <path
       d="m 61.9847,111.2317 h 37.7331 v 46.1708 z"
       style="fill:#ff0000;fill-rule:evenodd"
       id="path13" />
    <path
       d="m 145.4216,54.9705 2.0319,6.25 h 6.5616 l -5.3046,3.8589 2.0326,6.2507 -5.3215,-3.8574 -5.321,3.8574 2.0326,-6.2507 -5.3215,-3.8589 h 6.578 z"
       style="display:none;fill:#fed805;fill-rule:evenodd"
       id="path14" />
    <path
       d="m 70.5955,54.9705 2.0317,6.25 h 6.5793 l -5.3223,3.8589 2.0323,6.2507 -5.321,-3.8574 -5.3216,3.8574 2.0318,-6.2507 -5.321,-3.8589 h 6.5783 z"
       style="display:none;fill:#fed805;fill-rule:evenodd"
       id="path15" />
    <path
       d="m 95.5316,54.9705 2.0321,6.25 h 6.5788 l -5.3214,3.8589 2.0325,6.2507 -5.322,-3.8574 -5.3213,3.8574 2.0324,-6.2507 -5.304,-3.8589 h 6.5612 z"
       style="display:none;fill:#dc353f;fill-rule:evenodd"
       id="path16" />
    <path
       d="m 107.9917,38.9999 2.0317,6.2507 h 6.5784 l -5.3212,3.8582 2.0323,6.2514 -5.3212,-3.8581 -5.3214,3.8581 2.0317,-6.2514 -5.3038,-3.8582 h 6.5608 z"
       style="display:none;fill:#dc353f;fill-rule:evenodd"
       id="path17" />
    <path
       d="m 120.4858,54.9705 2.0152,6.25 h 6.5774 l -5.3208,3.8589 2.0317,6.2507 -5.3035,-3.8574 -5.3221,3.8574 2.0323,-6.2507 -5.321,-3.8589 h 6.5782 z"
       style="display:none;fill:#dc353f;fill-rule:evenodd"
       id="path18" />
    <path
       d="m 61.9847,106.342 h 92.0315 V 78.6841 H 61.9847 Z"
       style="display:inline;fill:#000000;fill-rule:evenodd"
       id="path19" />
    <path
       d="m 137.6732,86.7263 h 5.7854 c 0.5342,0 0.9642,0.4304 0.9642,0.9639 v 1.9282 h 3.8574 v -2.8921 c 0,-2.1186 -1.7389,-3.8582 -3.8574,-3.8582 h -7.7156 c -2.118,0 -3.8569,1.7396 -3.8569,3.8582 v 11.5722 c 0,2.118 1.7389,3.8574 3.8569,3.8574 h 7.7156 c 2.1185,0 3.8574,-1.7394 3.8574,-3.8574 v -2.8934 h -3.8574 v 1.9287 c 0,0.5344 -0.43,0.9647 -0.9642,0.9647 h -5.7854 c -0.535,0 -0.966,-0.4303 -0.966,-0.9647 v -9.6436 c 0,-0.5335 0.431,-0.9639 0.966,-0.9639 z"
       style="fill:#ffffff;fill-rule:evenodd"
       id="path20" />
    <path
       d="m 71.5947,82.8681 h 11.5722 v 3.8582 H 72.5585 c -0.5339,0 -0.9638,0.4304 -0.9638,0.9639 v 1.9282 c 0,0.5348 0.4299,0.9653 0.9638,0.9653 h 6.7503 c 2.1181,0 3.8581,1.7394 3.8581,3.8574 v 3.8574 c 0,2.118 -1.74,3.8574 -3.8581,3.8574 H 67.7373 V 98.2985 H 78.345 c 0.5167,0 0.9638,-0.4303 0.9638,-0.9647 v -1.9287 c 0,-0.5343 -0.4471,-0.964 -0.9638,-0.964 h -6.7503 c -2.1184,0 -3.8574,-1.7387 -3.8574,-3.8574 v -3.8574 c 0,-2.1186 1.739,-3.8582 3.8574,-3.8582 z"
       style="fill:#ffffff;fill-rule:evenodd"
       id="path21" />
    <path
       d="m 93.2931,86.7263 v 3.8574 h 6.7507 c 0.5339,0 0.9644,-0.4305 0.9644,-0.9653 v -1.9282 c 0,-0.5335 -0.4305,-0.9639 -0.9644,-0.9639 z m -3.8574,-3.8582 h 11.5725 c 2.1185,0 3.8576,1.7396 3.8576,3.8582 v 3.8574 c 0,2.1187 -1.7391,3.8574 -3.8576,3.8574 h -7.7151 v 7.7148 h -3.8574 z"
       style="fill:#ffffff;fill-rule:evenodd"
       id="path22" />
    <path
       d="m 115.0091,102.1559 h -3.8583 V 82.8681 h 15.4311 v 3.8582 h -11.5728 v 3.8574 h 7.7154 v 3.8574 h -7.7154 z"
       style="fill:#ffffff;fill-rule:evenodd"
       id="path23" />
  </g>
</svg>
