<?xml version="1.0" encoding="UTF-8" standalone="no"?>
<svg
   version="1.1"
   width="1.3915305in"
   height="1.4975497in"
   viewBox="0 0 100.1902 107.82358"
   id="svg23"
   sodipodi:docname="cs_sergipe-se.cdr"
   xmlns:inkscape="http://www.inkscape.org/namespaces/inkscape"
   xmlns:sodipodi="http://sodipodi.sourceforge.net/DTD/sodipodi-0.dtd"
   xmlns="http://www.w3.org/2000/svg"
   xmlns:svg="http://www.w3.org/2000/svg">
  <defs
     id="defs23" />
  <sodipodi:namedview
     id="namedview23"
     pagecolor="#ffffff"
     bordercolor="#000000"
     borderopacity="0.25"
     inkscape:showpageshadow="2"
     inkscape:pageopacity="0.0"
     inkscape:pagecheckerboard="0"
     inkscape:deskcolor="#d1d1d1"
     inkscape:document-units="in" />
  <g
     id="Layer1003"
     transform="matrix(1,0,0,0.79133203,-57.9047,-31.55207)">
    <path
       d="m 59.3212,56.4534 0.6497,1.2589 c 0.069,0.1339 6.8995,13.6073 7.1786,32.4813 0.2793,18.8776 -8.4008,36.4108 -8.488,36.5859 l -0.7568,1.5084 1.4911,0.7912 c 0.3339,0.1777 33.6116,18.0587 47.0704,44.0841 l 1.533,2.9647 1.5339,-2.9647 c 13.4595,-26.0228 46.7362,-43.8906 47.071,-44.0683 l 1.4908,-0.7899 -0.7568,-1.5103 c -0.0884,-0.1744 -8.7684,-17.7087 -8.4892,-36.5853 0.2802,-18.874 7.1113,-32.3474 7.1804,-32.4811 l 0.6472,-1.2574 -20.7811,-16.5829 -1.0867,0.9596 c -13.4092,11.8442 -26.6475,11.7876 -26.7793,11.7856 -0.1887,0.002 -13.4277,0.0428 -26.8389,-11.802 l -1.0866,-0.9591 z"
       style="fill:#e41e15;fill-rule:evenodd"
       id="path10" />
    <path
       d="m 80.0579,44.3274 c 14.0544,11.7764 27.3974,11.7692 27.9731,11.7591 0.5123,0.011 13.856,0.0338 27.9115,-11.7433 1.7787,1.4198 14.6196,11.6655 16.4041,13.09 -1.756,3.8584 -6.7054,16.1514 -6.9494,32.7254 -0.005,0.3231 -0.008,0.645 -0.008,0.9676 0,16.3608 6.0565,31.0968 8.1551,35.7152 -6.3567,3.5797 -32.4076,19.2731 -45.545,42.0515 -13.1359,-22.7805 -39.1888,-38.4846 -45.5443,-42.0665 2.0987,-4.6193 8.1544,-19.3542 8.1544,-35.716 0,-0.3226 -0.0017,-0.6445 -0.0064,-0.9682 C 70.357,73.5677 65.4086,61.2752 63.6518,57.4157 65.4363,55.9928 78.2789,45.7461 80.0579,44.3274 Z"
       style="fill:#ffffff;fill-rule:evenodd"
       id="path11" />
    <path
       d="m 131.7567,117.9242 c 0,0 3.1531,1.837 0.2618,3.4106 -2.8903,1.572 -3.6786,3.1456 -11.823,3.6707 -8.1472,0.5234 -9.1988,-4.4591 -9.1988,-5.2459 0,-0.0924 0,-0.725 0,-1.7661 1.5671,-0.2887 3.0573,-0.795 4.4383,-1.489 1.8581,2.5577 3.6746,5.0576 5.366,7.3857 1.0543,-0.0555 2.2154,-0.1555 3.3769,-0.3374 -1.9302,-2.657 -4.0539,-5.5804 -6.2402,-8.5901 4.074,-3.0445 6.7116,-7.9057 6.7116,-13.3819 0,-4.6821 -1.9296,-8.9114 -5.0334,-11.9431 0.7646,-1.0528 1.3098,-1.8028 1.5763,-2.17 2.8173,-3.8784 6.8622,-7.4587 6.8622,-7.4587 7.236,-4.1243 8.3407,-6.4524 8.3407,-6.4524 l 9.1316,-12.5727 -9.0371,-6.5673 -9.1349,12.5724 c 0,0 -1.8579,2.1287 -3.6595,9.8539 0,0 -2.0579,5.0236 -4.8751,8.9005 -0.2549,0.351 -0.7636,1.0516 -1.4756,2.0322 -1.8772,-1.279 -4.0288,-2.1817 -6.3478,-2.6088 0,-3.4994 0,-5.797 0,-5.797 h 5.5202 v -4.7217 h -5.783 v -2.608 c 1.6339,-0.9803 2.7393,-2.751 2.7393,-4.7959 0,-3.102 -2.5125,-5.6163 -5.6127,-5.6163 -3.1003,0 -5.6161,2.5143 -5.6161,5.6163 0,2.0211 1.0802,3.777 2.6839,4.7653 v 2.6808 h -5.7804 v 4.7213 h 5.5178 c 0,0 0,2.2993 0,5.7994 -2.3285,0.4654 -4.4799,1.4174 -6.3492,2.742 -0.8687,-1.1963 -1.4833,-2.0426 -1.7725,-2.4406 -2.8172,-3.8768 -4.8746,-8.9006 -4.8746,-8.9006 -1.8012,-7.7241 -3.6596,-9.8544 -3.6596,-9.8544 l -9.1345,-12.5714 -9.0379,6.5673 9.1315,12.5729 c 0,0 1.1056,2.3274 8.3422,6.4517 0,0 4.0435,3.5814 6.8607,7.4588 0.303,0.4172 0.9651,1.3287 1.902,2.6184 -2.9754,3.015 -4.8133,7.155 -4.8133,11.7257 0,5.3664 2.5356,10.1385 6.4712,13.1934 -2.2153,3.0491 -4.3724,6.0185 -6.3372,8.7232 1.1565,0.1849 2.3149,0.2877 3.3711,0.3453 1.7159,-2.3619 3.5553,-4.8937 5.4339,-7.4793 1.3855,0.7287 2.8848,1.2701 4.4662,1.5863 0,1.0924 0,1.7577 0,1.8528 0,0.7856 -1.0508,5.7692 -9.1964,5.2447 -8.1455,-0.524 -8.9339,-2.0985 -11.824,-3.6713 -2.8903,-1.573 0.2632,-3.4098 0.2632,-3.4098 -5.256,-1.574 -9.1972,-4.4591 -9.1972,-4.4591 0,0 -0.5259,7.6073 3.1535,11.2784 0,0 0.2626,-3.1477 4.992,0.2618 4.7296,3.4098 8.1448,4.4585 13.1376,6.0322 4.9936,1.5734 11.0468,6.2455 11.8352,8.8677 0.7913,-2.6222 6.8463,-7.3371 11.8398,-8.9091 4.9934,-1.5751 8.4089,-2.6219 13.1375,-6.0325 4.7302,-3.4091 4.992,-0.2618 4.992,-0.2618 3.6784,-3.6707 3.1546,-11.2784 3.1546,-11.2784 0,0 -3.943,2.8838 -9.1968,4.4589 z M 107.8915,65.7601 c 0.8358,0 1.5147,0.6789 1.5147,1.5159 0,0.8376 -0.6789,1.5155 -1.5147,1.5155 -0.8383,0 -1.5165,-0.6779 -1.5165,-1.5155 0,-0.837 0.6782,-1.5159 1.5165,-1.5159 z"
       style="fill:#e41e15;fill-rule:evenodd"
       id="path12" />
    <path
       d="m 121.9092,96.2097 c -1.7053,-1.7735 -3.6992,-3.1836 -5.9551,-4.2068 -3.0069,-1.3621 -5.7596,-1.7163 -7.7346,-1.7396 -2.7475,-0.9375 -1.9907,-2.7004 -1.9907,-2.7004 0.056,-0.3013 0.1814,-0.5947 0.2696,-0.8671 0.4807,-0.0465 0.965,-0.072 1.4571,-0.072 6.3648,0 11.7969,3.98 13.9537,9.5859 z"
       style="fill:#ffffff;fill-rule:evenodd"
       id="path13" />
    <path
       d="m 107.0045,100.3722 c -0.3199,1.444 -1.0327,2.4666 -2.0814,2.9662 -1.2031,0.5758 -2.7459,0.4172 -4.2496,-0.4215 -2.3921,-2.5463 -3.9474,-7.6304 -1.7512,-12.9138 l 0.2229,-0.506 c 1.6092,-1.1759 3.4636,-2.0367 5.471,-2.4953 -0.1959,0.9329 -0.4387,2.1458 0.3647,3.1568 0.12,0.1517 0.6227,0.5625 0.7688,0.633 0,0 0.4283,0.3151 0.9471,0.4965 0,0 -0.6441,0.3627 -0.8536,0.5488 -0.5615,0.5023 -1.12,0.9988 -1.442,2.1251 -0.5584,1.9501 0.484,4.4748 2.6033,6.4102 z"
       style="fill:#ffffff;fill-rule:evenodd"
       id="path14" />
    <path
       d="m 96.4785,91.9933 c -0.4512,2.0358 -0.4813,4.1069 -0.0666,6.1025 0.445,2.1372 1.4031,4.1576 2.6674,5.6477 -1.0271,1.8781 -2.4952,3.4876 -5.2521,2.7214 -0.5306,-1.5323 -0.8233,-3.1773 -0.8233,-4.8915 0,-3.6457 1.307,-6.9844 3.4746,-9.5801 z"
       style="fill:#ffffff;fill-rule:evenodd"
       id="path15" />
    <path
       d="m 94.6464,108.3828 c 3.2439,0.2875 5.0032,-2.0839 5.8559,-3.6019 1.7972,0.8037 3.6419,0.8591 5.1712,0.1301 1.534,-0.7312 2.5953,-2.2007 3.0331,-4.166 1.1405,-0.273 2.849,-0.468 4.2037,0.2901 0.9222,0.5124 1.5931,1.4187 2.0019,2.6967 -1.434,2.4386 -3.512,4.5833 -5.8884,6.0628 -3.1329,1.9517 -6.8433,2.8489 -11.3944,2.5845 -1.204,-1.1515 -2.2152,-2.4983 -2.983,-3.9963 z"
       style="fill:#ffffff;fill-rule:evenodd"
       id="path16" />
    <path
       d="m 107.9555,116.5242 c -2.98,0 -5.7528,-0.8756 -8.0846,-2.3766 3.7119,-0.0621 7.094,-1.0186 10.0746,-2.8724 2.621,-1.6324 4.91,-3.9991 6.4879,-6.69 1.253,-0.3484 2.5147,-0.5441 3.4772,0.0307 0.7137,0.4252 1.2832,1.2494 1.6972,3.0483 -2.3317,5.2195 -7.566,8.86 -13.6523,8.86 z"
       style="fill:#ffffff;fill-rule:evenodd"
       id="path17" />
    <path
       d="m 122.5056,105.0008 c -0.4309,-0.8328 -0.9995,-1.4625 -1.7015,-1.8812 -1.4616,-0.8741 -3.1836,-0.6346 -4.3782,-0.3389 -0.5636,-1.4949 -1.4563,-2.5926 -2.6647,-3.2668 -1.8419,-1.0289 -3.9785,-0.8407 -5.5868,-0.4341 -1.8647,-1.6924 -2.4051,-3.5643 -2.0974,-4.6403 0.182,-0.6394 0.7043,-1.2437 1.1734,-1.6636 0.3226,-0.2876 1.0476,-0.7265 1.3283,-0.809 2.7581,0.0254 9.2036,0.872 13.9956,7.803 l 0.2597,0.3568 c 0.0449,0.4755 0.0713,0.9593 0.0713,1.4467 0,1.1802 -0.1411,2.3266 -0.3997,3.4274 z"
       style="fill:#ffffff;fill-rule:evenodd"
       id="path18" />
    <path
       d="m 76.2199,94.3443 c 0,-1.8132 1.411,-2.9474 3.6524,-2.9474 2.2414,0 3.6548,1.1342 3.6548,2.9474 v 3.5294 H 80.579 v -3.2535 c 0,-0.9199 -0.338,-1.0755 -0.7067,-1.0755 -0.3688,0 -0.7043,0.1556 -0.7043,1.0755 v 11.7575 c 0,0.7996 0.276,0.8613 0.7043,0.8613 0.4306,0 0.7067,-0.0617 0.7067,-0.8613 v -4.1148 h 2.9481 v 4.1767 c 0,1.8098 -1.4134,2.9489 -3.6548,2.9489 -2.2414,0 -3.6524,-1.1391 -3.6524,-2.9489 z"
       style="fill:#e41e15;fill-rule:evenodd"
       id="path19" />
    <path
       d="m 134.9638,102.4088 v 3.8378 c 0,0.9184 0.3345,1.0733 0.7042,1.0733 0.368,0 0.7059,-0.1549 0.7059,-1.0733 v -1.8131 c 0,-2.8241 -4.359,-4.8513 -4.359,-7.6448 v -2.363 c 0,-1.8105 1.4118,-2.9479 3.6531,-2.9479 2.2414,0 3.6547,1.1374 3.6547,2.9479 v 3.6241 h -2.9488 v -3.3481 c 0,-0.9205 -0.3379,-1.0728 -0.7059,-1.0728 -0.3697,0 -0.7042,0.1523 -0.7042,1.0728 v 1.4419 c 0,1.7825 4.3589,4.2068 4.3589,6.8173 v 3.5617 c 0,1.8109 -1.4133,2.9451 -3.6547,2.9451 -2.2413,0 -3.6531,-1.1342 -3.6531,-2.9451 v -4.1138 z"
       style="fill:#e41e15;fill-rule:evenodd"
       id="path20" />
    <path
       d="m 107.0936,151.9294 v 3.8381 c 0,0.9186 0.3378,1.0729 0.7059,1.0729 0.3696,0 0.7073,-0.1543 0.7073,-1.0729 v -1.813 c 0,-2.8247 -4.3598,-4.8519 -4.3598,-7.6454 v -2.3625 c 0,-1.811 1.4111,-2.9484 3.6525,-2.9484 2.2411,0 3.6546,1.1374 3.6546,2.9484 v 3.6236 h -2.9473 v -3.3477 c 0,-0.9209 -0.3377,-1.0733 -0.7073,-1.0733 -0.3681,0 -0.7059,0.1524 -0.7059,1.0733 v 1.442 c 0,1.782 4.3605,4.207 4.3605,6.8168 v 3.5623 c 0,1.8104 -1.4135,2.9457 -3.6546,2.9457 -2.2414,0 -3.6525,-1.1353 -3.6525,-2.9457 v -4.1142 z"
       style="fill:#e41e15;fill-rule:evenodd"
       id="path21" />
    <path
       d="m 82.3208,135.9879 1.1824,0.8639 1.1875,0.8585 c 0,0 2.1339,-2.9376 5.3716,-7.3934 -0.9739,-0.4526 -1.9388,-0.9507 -2.6538,-1.3325 -3.0782,4.2367 -5.0877,7.0035 -5.0877,7.0035 z"
       style="fill:#e41e15;fill-rule:evenodd"
       id="path22" />
    <path
       d="m 130.6744,137.4799 1.187,-0.8597 1.183,-0.8629 c 0,0 -1.9121,-2.6323 -4.862,-6.6921 -0.7262,0.386 -1.6895,0.8819 -2.6564,1.3287 3.1121,4.283 5.1484,7.086 5.1484,7.086 z"
       style="fill:#e41e15;fill-rule:evenodd"
       id="path23" />
  </g>
</svg>
