<?xml version="1.0" encoding="UTF-8" standalone="no"?>
<svg
   version="1.1"
   width="1.6426417in"
   height="1.6426417in"
   viewBox="0 0 118.2702 118.2702"
   id="svg50"
   sodipodi:docname="aa_sinop_mt.cdr"
   xmlns:inkscape="http://www.inkscape.org/namespaces/inkscape"
   xmlns:sodipodi="http://sodipodi.sourceforge.net/DTD/sodipodi-0.dtd"
   xmlns="http://www.w3.org/2000/svg"
   xmlns:svg="http://www.w3.org/2000/svg">
  <defs
     id="defs50" />
  <sodipodi:namedview
     id="namedview50"
     pagecolor="#ffffff"
     bordercolor="#000000"
     borderopacity="0.25"
     inkscape:showpageshadow="2"
     inkscape:pageopacity="0.0"
     inkscape:pagecheckerboard="0"
     inkscape:deskcolor="#d1d1d1"
     inkscape:document-units="in" />
  <g
     id="Layer1003"
     transform="translate(-48.864799,-48.864799)">
    <path
       d="m 107.9999,167.135 c 32.564,0 59.1351,-26.5711 59.1351,-59.1351 0,-32.564 -26.5711,-59.1351 -59.1351,-59.1351 -32.5642,0 -59.1351,26.5711 -59.1351,59.1351 0,32.564 26.5709,59.1351 59.1351,59.1351 z"
       style="fill:#009035;fill-rule:evenodd"
       id="path10" />
    <path
       d="m 107.9924,166.3389 c 32.1434,0 58.354,-26.2103 58.354,-58.339 0,-32.1285 -26.2106,-58.3391 -58.354,-58.3391 -32.1136,0 -58.3392,26.2106 -58.3392,58.3391 0,32.1287 26.2256,58.339 58.3392,58.339 z"
       style="fill:#ffec00;fill-rule:evenodd"
       id="path11" />
    <path
       d="m 107.9999,149.0504 c 22.6055,0 41.0505,-18.4447 41.0505,-41.0505 0,-22.6056 -18.445,-41.0506 -41.0505,-41.0506 -22.6058,0 -41.0507,18.445 -41.0507,41.0506 0,22.6058 18.4449,41.0505 41.0507,41.0505 z"
       style="fill:#009035;fill-rule:evenodd"
       id="path12" />
    <path
       d="m 95.3753,154.638 c 0.3002,-1.4721 -0.3305,-2.9438 -2.5535,-3.71 -2.0128,-0.6909 -3.7701,-0.3455 -4.3559,1.3518 -1.0515,3.0641 3.8451,3.8152 3.4245,5.032 -0.1351,0.3754 -0.6457,0.4505 -1.2916,0.2102 -0.2554,-0.0752 -0.5106,-0.2404 -0.6759,-0.4506 -0.1803,-0.2104 -0.2704,-0.4807 -0.2253,-0.781 l -2.5085,-0.8711 c -0.4506,1.4719 0.5108,3.1842 2.6285,3.9051 2.193,0.766 4.0556,0.3906 4.7014,-1.457 1.0064,-2.9289 -3.8601,-3.77 -3.4546,-4.9716 0.1051,-0.2855 0.4206,-0.3754 0.9913,-0.1652 0.2553,0.0901 0.4807,0.2101 0.6308,0.3754 0.1653,0.1652 0.2404,0.3754 0.1954,0.6759 z"
       style="fill:#009035;fill-rule:evenodd"
       id="path13" />
    <path
       d="m 98.5746,161.3671 1.7724,-8.3061 -2.7188,-0.5708 -1.7723,8.2911 z"
       style="fill:#009035;fill-rule:evenodd"
       id="path14" />
    <path
       d="m 104.2824,153.6017 -2.5986,-0.1353 -0.4506,8.4716 2.6587,0.1352 0.15,-2.6887 v -1.9377 l 2.7788,4.7765 2.5835,0.1352 0.4358,-8.4715 -2.6437,-0.1351 -0.1352,2.6888 v 1.9374 z"
       style="fill:#009035;fill-rule:evenodd"
       id="path15" />
    <path
       d="m 114.9767,154.9835 c 1.2016,-0.2404 1.8776,0.8712 2.0728,2.0128 0.2555,1.3818 -0.03,2.4783 -1.2166,2.6887 -1.3069,0.2402 -1.8775,-1.0363 -2.0577,-2.1031 -0.1953,-1.0663 -0.0452,-2.3732 1.2015,-2.5984 z m -0.3304,-2.0428 c -2.5984,0.4508 -4.0855,2.4786 -3.6197,5.092 0.5106,2.8389 2.5384,4.1606 5.1667,3.6951 2.4636,-0.4358 4.1007,-2.3733 3.605,-5.2122 -0.3906,-2.208 -2.178,-4.1005 -5.152,-3.5749 z"
       style="fill:#009035;fill-rule:evenodd"
       id="path16" />
    <path
       d="m 123.5683,155.0435 -0.6759,-1.7573 0.7361,-0.2855 c 0.5556,-0.2102 1.4268,-0.4353 1.7123,0.3154 0.2556,0.676 -0.0901,1.0818 -0.6909,1.3219 z m 1.6522,4.311 -0.9461,-2.4633 1.322,-0.4959 c 2.2678,-0.8711 2.8686,-2.343 2.2077,-4.0402 -0.6157,-1.6373 -2.1179,-2.2534 -4.401,-1.382 l -3.8152,1.4569 3.0492,7.9157 z"
       style="fill:#009035;fill-rule:evenodd"
       id="path17" />
    <path
       d="m 157.965,130.4554 h -3.9802 l -1.2318,-3.8002 -1.2318,3.8002 h -3.9802 l 3.2142,2.3431 -1.2316,3.7852 3.2294,-2.3433 3.2144,2.3433 -1.2318,-3.7852 z"
       style="fill:#009035;fill-rule:evenodd"
       id="path18" />
    <path
       d="m 64.4784,130.4554 -1.2167,-3.8002 -1.2316,3.8002 h -3.9954 l 3.2293,2.3431 -1.2316,3.7852 3.2293,-2.3433 3.2144,2.3433 -1.2316,-3.7852 3.2294,-2.3431 z"
       style="fill:#009035;fill-rule:evenodd"
       id="path19" />
    <path
       d="m 82.9609,115.7203 11.761,-3.8152 4.8364,-14.87 -7.2697,-10.0036 -12.2116,2.3131 c -3.3797,5.0918 -5.3773,11.2052 -5.6026,17.3785 z"
       style="fill:#ffffff;fill-rule:evenodd"
       id="path20" />
    <path
       d="m 117.4625,74.9551 7.7355,-3.3495 c -5.2271,-2.4784 -11.055,-3.8753 -17.1981,-3.8753 -6.1434,0 -11.9713,1.3969 -17.1983,3.8753 l 7.7954,3.3796 c 6.1434,-1.7725 12.7825,-1.7424 18.8655,-0.0301 z"
       style="fill:#ffffff;fill-rule:evenodd"
       id="path21" />
    <path
       d="m 133.0386,115.7203 8.5165,-9.0271 c -0.2552,-6.1133 -2.238,-12.2267 -5.6776,-17.3637 l -12.1664,-2.298 -7.2549,10.0036 4.8215,14.8549 z"
       style="fill:#ffffff;fill-rule:evenodd"
       id="path22" />
    <path
       d="m 79.5063,88.7889 -0.7962,-8.3663 c -6.8042,7.2097 -10.9799,16.928 -10.9799,27.5773 0,1.7274 0.1203,3.4397 0.3305,5.122 l 5.6326,-6.3688 c 0.2253,-6.3835 2.2981,-12.7071 5.813,-17.9642 z"
       style="fill:#ffffff;fill-rule:evenodd"
       id="path23" />
    <path
       d="m 98.8674,75.7212 -5.9479,10.8446 7.2697,10.0036 h 15.6212 l 7.27,-10.0036 -5.9633,-10.8897 c -5.8879,-1.6373 -12.3016,-1.6522 -18.2497,0.0451 z"
       style="fill:#ffffff;fill-rule:evenodd"
       id="path24" />
    <path
       d="m 119.7457,140.2938 -4.2958,7.2695 c 12.001,-2.2529 22.14,-9.8681 27.8476,-20.2324 l -8.2761,1.8476 c -3.9353,5.032 -9.3426,8.9373 -15.2757,11.1153 z"
       style="fill:#ffffff;fill-rule:evenodd"
       id="path25" />
    <path
       d="m 134.3605,128.7431 -1.562,-12.2719 -11.7611,-3.83 -12.6471,9.1924 v 12.3769 l 11.2353,5.302 c 5.7227,-2.1478 10.9197,-5.903 14.7349,-10.7694 z"
       style="fill:#ffffff;fill-rule:evenodd"
       id="path26" />
    <path
       d="m 137.2894,80.4226 -0.7958,8.4264 c 3.5746,5.3021 5.6176,11.6407 5.8577,17.9642 l 5.5876,6.3087 c 0.2102,-1.6823 0.3305,-3.3946 0.3305,-5.122 0,-10.6493 -4.1758,-20.3676 -10.98,-27.5773 z"
       style="fill:#ffffff;fill-rule:evenodd"
       id="path27" />
    <path
       d="m 80.9181,129.1635 -8.216,-1.8326 c 5.7076,10.3643 15.8464,17.9645 27.8326,20.2324 l -4.3259,-7.3149 c -6.0082,-2.1928 -11.3854,-6.1283 -15.2907,-11.0849 z"
       style="fill:#ffffff;fill-rule:evenodd"
       id="path28" />
    <path
       d="m 83.2013,116.4712 -1.5772,12.3169 c 3.8001,4.7914 8.9971,8.5766 14.795,10.6945 l 11.1903,-5.2721 v -12.3769 l -12.6472,-9.1924 z"
       style="fill:#ffffff;fill-rule:evenodd"
       id="path29" />
    <path
       d="m 59.8971,109.3215 0.0902,1.7577 -3.0791,-0.7061 z m 3.0192,2.4486 -1.1415,-0.2556 -0.1353,-2.7636 1.0965,-0.3906 -0.1502,-2.7487 -8.3062,3.4548 0.1501,2.8236 8.6217,2.5987 z"
       style="fill:#009035;fill-rule:evenodd"
       id="path30" />
    <path
       d="m 57.8245,96.7947 c -1.5021,0 -2.839,0.8862 -3.1695,3.2294 -0.2852,2.0879 0.3907,3.7551 2.178,4.0105 3.1994,0.4506 3.0042,-4.5061 4.2808,-4.326 0.3905,0.0601 0.5557,0.5408 0.4506,1.2318 -0.03,0.2703 -0.1502,0.5557 -0.3154,0.751 -0.1653,0.2103 -0.4205,0.3455 -0.736,0.3604 l -0.3604,2.6436 c 1.5169,0.1502 3.0191,-1.1115 3.3344,-3.3345 0.3155,-2.3132 -0.3906,-4.0554 -2.3431,-4.3258 -3.0491,-0.4356 -2.944,4.5061 -4.2057,4.3258 -0.3005,-0.0451 -0.4505,-0.3305 -0.3605,-0.9462 0.045,-0.2704 0.1201,-0.5108 0.2553,-0.691 0.1352,-0.1802 0.3305,-0.3004 0.6309,-0.3154 z"
       style="fill:#009035;fill-rule:evenodd"
       id="path31" />
    <path
       d="m 60.8736,87.5422 c -1.4571,-0.2853 -2.944,0.3304 -3.7101,2.5535 -0.6911,2.0127 -0.3454,3.77 1.3669,4.3558 3.049,1.0665 3.8152,-3.8301 5.0167,-3.4245 0.3755,0.1351 0.4506,0.6458 0.2103,1.3068 -0.0751,0.2552 -0.2403,0.5106 -0.4506,0.6758 -0.2104,0.1803 -0.4807,0.2553 -0.7811,0.2104 l -0.8711,2.5233 c 1.4719,0.4356 3.1843,-0.5106 3.9053,-2.6286 0.7659,-2.208 0.3905,-4.0705 -1.457,-4.7163 -2.9289,-0.9914 -3.7701,3.8752 -4.9717,3.4546 -0.2853,-0.1051 -0.3606,-0.4055 -0.1653,-0.9913 0.0902,-0.2554 0.2104,-0.4807 0.3756,-0.6309 0.1653,-0.1502 0.3904,-0.2403 0.6758,-0.1953 z"
       style="fill:#009035;fill-rule:evenodd"
       id="path32" />
    <path
       d="m 63.4269,81.3989 c 0.5858,-1.0666 1.8775,-0.8713 2.884,-0.2855 1.2166,0.6911 1.8775,1.6222 1.2767,2.6587 -0.676,1.1566 -2.0126,0.7661 -2.944,0.2254 -0.9313,-0.5409 -1.8475,-1.5021 -1.2167,-2.5986 z m -1.7723,-1.0515 c -1.3218,2.2831 -0.721,4.7164 1.5771,6.0382 2.4934,1.457 4.8216,0.736 6.1434,-1.5771 1.2466,-2.163 0.811,-4.6713 -1.6823,-6.1132 -1.9377,-1.1116 -4.5362,-0.9615 -6.0382,1.6521 z"
       style="fill:#009035;fill-rule:evenodd"
       id="path33" />
    <path
       d="m 74.1364,70.5241 c -1.7273,-1.3518 -3.6499,-1.2015 -5.4524,0.661 -1.6371,1.6972 -1.6973,4.2357 0.2705,6.1432 1.9826,1.9077 4.401,1.8776 6.3386,-0.1351 1.5471,-1.6072 1.6973,-3.65 0.2853,-5.3473 l -1.8475,1.9226 c 0.5108,0.6308 0.661,1.3819 0.0452,2.0128 -0.9915,1.0214 -1.9678,0.4356 -2.8239,-0.3906 -1.1866,-1.1415 -1.367,-2.1479 -0.6909,-2.8537 0.6008,-0.6159 1.3517,-0.6611 2.0427,-0.1204 z"
       style="fill:#009035;fill-rule:evenodd"
       id="path34" />
    <path
       d="m 81.091,71.6507 -5.092,-6.7742 -2.2229,1.6672 5.1068,6.7892 z"
       style="fill:#009035;fill-rule:evenodd"
       id="path35" />
    <path
       d="m 85.0563,65.7476 -1.5322,0.8563 -0.7209,-3.0792 z m -0.8863,3.7851 -0.2553,-1.1264 2.4183,-1.3519 0.8262,0.8261 2.4182,-1.3368 -6.7592,-5.9481 -2.4783,1.367 1.457,8.892 z"
       style="fill:#009035;fill-rule:evenodd"
       id="path36" />
    <path
       d="m 96.3666,58.628 c -0.8862,-1.9977 -2.6585,-2.7788 -5.1219,-1.9677 -2.2532,0.736 -3.4997,2.9291 -2.6436,5.5426 0.781,2.4033 2.6586,3.5447 5.0168,3.0191 l -0.2403,1.0364 0.3605,0.1802 c 0.6609,-0.6309 1.2616,-0.0751 0.9763,0.3154 -0.1051,0.1352 -0.2554,0.2103 -0.4055,0.2704 -0.3456,0.1051 -0.691,0.0601 -1.0214,0.0752 l -0.0752,0.6008 c 0.5557,0.0149 1.0364,0 1.5622,-0.1652 0.5707,-0.1804 1.1415,-0.6761 1.1264,-1.337 -0.015,-0.5858 -0.6458,-0.8711 -1.1264,-0.766 -0.1503,0.0301 -0.4507,0.0601 -0.676,0.2403 l 0.1502,-0.6007 c 2.133,-0.7061 3.2144,-2.4334 2.7787,-4.5962 l -2.5533,0.8261 c 0.1501,0.811 -0.0601,1.532 -0.9012,1.8024 -1.352,0.4355 -1.9377,-0.5407 -2.2982,-1.6672 -0.5107,-1.5622 -0.2103,-2.5386 0.721,-2.8388 0.8261,-0.2706 1.502,0.0299 1.8625,0.856 z"
       style="fill:#009035;fill-rule:evenodd"
       id="path37" />
    <path
       d="m 103.5163,60.085 -1.7273,0.2103 0.4807,-3.1243 z m -2.223,3.1843 0.1802,-1.1566 2.7487,-0.3304 0.4656,1.0665 2.7337,-0.3304 -4.0404,-8.051 -2.8088,0.3454 -1.9826,8.787 z m 1.7874,-11.2052 c -0.015,0.2404 -0.2403,0.5708 -0.7059,0.4806 -0.5709,-0.1051 -0.9314,-0.3003 -1.5021,-0.2252 -0.9012,0.1051 -1.2466,1.0364 -1.2466,1.8174 l 0.9312,-0.1051 c 0.0751,-0.3605 0.1352,-0.7511 1.0214,-0.4807 0.3604,0.1052 0.781,0.1803 1.1565,0.1353 0.9463,-0.1053 1.2618,-0.8864 1.2768,-1.7274 z"
       style="fill:#009035;fill-rule:evenodd"
       id="path38" />
    <path
       d="m 112.934,56.39 c 1.2165,0.06 1.6072,1.3067 1.532,2.4633 -0.1051,1.3969 -0.6459,2.4033 -1.8475,2.3131 -1.3216,-0.09 -1.562,-1.472 -1.4869,-2.5534 0.0752,-1.0664 0.5407,-2.2982 1.8024,-2.223 z m 0.1652,-2.0578 c -2.6283,-0.1953 -4.5512,1.4119 -4.7314,4.0704 -0.1952,2.884 1.4572,4.6564 4.1156,4.8366 2.4933,0.1804 4.5511,-1.3218 4.7465,-4.1906 0.15,-2.2381 -1.1115,-4.5061 -4.1307,-4.7164 z"
       style="fill:#009035;fill-rule:evenodd"
       id="path39" />
    <path
       d="m 127.2183,63.81 -1.6372,-0.6158 1.8927,-2.5384 z m -3.4545,1.7723 0.6909,-0.9312 2.5834,0.9914 -0.0901,1.1565 2.5836,0.9914 0.1952,-8.9972 -2.6438,-1.0213 -5.8577,6.8343 z"
       style="fill:#009035;fill-rule:evenodd"
       id="path40" />
    <path
       d="m 132.4155,62.4582 2.0877,1.3518 -3.4096,5.2571 2.3433,1.5171 3.3946,-5.2571 2.0877,1.3668 1.2166,-1.8776 -6.5187,-4.2356 z"
       style="fill:#009035;fill-rule:evenodd"
       id="path41" />
    <path
       d="m 141.2625,77.3283 1.3518,-1.4569 -2.7938,-2.5985 4.4308,-4.7616 -2.0276,-1.8924 -5.7828,6.2034 z"
       style="fill:#009035;fill-rule:evenodd"
       id="path42" />
    <path
       d="m 146.4293,83.8022 1.5471,-1.2167 -2.6434,-3.3946 1.0514,-0.8111 2.1478,2.7487 1.5622,-1.2166 -2.148,-2.7488 0.9464,-0.7511 2.5535,3.2595 1.5621,-1.2167 -4.2658,-5.4523 -6.6691,5.227 z m 4.2659,-9.5681 0.9912,1.2767 2.6289,0.5259 -1.5173,-1.9378 z"
       style="fill:#009035;fill-rule:evenodd"
       id="path43" />
    <path
       d="m 152.2875,81.7293 1.1716,2.2081 -5.5127,2.9439 1.3069,2.4482 5.5123,-2.9289 1.1716,2.208 1.9679,-1.0514 -3.6502,-6.8643 z"
       style="fill:#009035;fill-rule:evenodd"
       id="path44" />
    <path
       d="m 151.4763,95.4879 8.0058,-2.7636 -0.9011,-2.6286 -8.006,2.7637 z"
       style="fill:#009035;fill-rule:evenodd"
       id="path45" />
    <path
       d="m 158.5959,104.0796 c 2.1028,-0.6008 3.1091,-2.253 2.6586,-4.8066 -0.4056,-2.3281 -2.4184,-3.8601 -5.1071,-3.3945 -2.7185,0.4806 -4.1155,2.4483 -3.6198,5.212 0.3754,2.208 1.9529,3.5299 4.1457,3.3796 l -0.4655,-2.6285 c -0.8113,0.0451 -1.5021,-0.2704 -1.6524,-1.1566 -0.2554,-1.3969 0.8112,-1.8324 1.9828,-2.0427 1.607,-0.2854 2.5233,0.1502 2.7035,1.1115 0.1503,0.8561 -0.2554,1.487 -1.1115,1.7272 z"
       style="fill:#009035;fill-rule:evenodd"
       id="path46" />
    <path
       d="m 156.0124,111.0188 0.09,-1.7423 2.9893,1.0215 z m -2.7487,-2.7486 1.1115,0.3756 -0.1502,2.7639 -1.1266,0.2701 -0.1502,2.7638 8.6216,-2.5836 0.1502,-2.8236 -8.3063,-3.4698 z"
       style="fill:#009035;fill-rule:evenodd"
       id="path47" />
    <path
       d="m 109.4267,86.9563 h -2.8688 l 1.3969,-5.0016 z m -4.2656,4.7616 0.5257,-1.8475 h 4.5361 l 0.5406,1.8475 h 4.5662 l -5.0015,-13.9841 h -4.6414 L 100.67,91.7179 Z"
       style="fill:#009035;fill-rule:evenodd"
       id="path48" />
    <path
       d="m 135.1115,99.3632 c -0.5708,-2.4783 -2.5384,-4.7915 -6.4136,-5.6026 -3.4849,-0.7359 -5.9031,0.1954 -5.6175,3.0943 0.5256,5.242 8.4261,5.5123 8.6365,7.5852 0.0602,0.6459 -0.6607,0.8411 -1.8024,0.6008 -0.4508,-0.09 -0.9465,-0.3004 -1.3369,-0.6158 -0.4056,-0.3004 -0.7208,-0.721 -0.8711,-1.2467 l -4.386,-0.9163 c 0.3455,2.4935 2.974,5.1219 6.6539,5.8728 3.8454,0.8112 6.3839,-0.15 6.0684,-3.3343 -0.5107,-4.9867 -8.4114,-5.3923 -8.6218,-7.45 -0.045,-0.4957 0.3757,-0.6911 1.3818,-0.4808 0.4508,0.0902 0.8562,0.2554 1.2018,0.4956 0.3606,0.2405 0.6308,0.5858 0.7661,1.0815 z"
       style="fill:#009035;fill-rule:evenodd"
       id="path49" />
    <path
       d="m 84.3728,103.5839 2.8989,-0.6159 -0.9312,-4.6111 z m 3.8152,3.755 -0.3305,-1.6972 -4.5661,0.9613 -0.721,1.9075 -4.5663,0.9613 6.3838,-14.7499 4.6562,-0.9763 3.635,12.647 z"
       style="fill:#009035;fill-rule:evenodd"
       id="path50" />
  </g>
</svg>
