<?xml version="1.0" encoding="UTF-8" standalone="no"?>
<svg
   version="1.1"
   width="1.5007095in"
   height="1.4971176in"
   viewBox="0 0 108.05109 107.79247"
   id="svg47"
   sodipodi:docname="sport.cdr"
   xmlns:inkscape="http://www.inkscape.org/namespaces/inkscape"
   xmlns:sodipodi="http://sodipodi.sourceforge.net/DTD/sodipodi-0.dtd"
   xmlns="http://www.w3.org/2000/svg"
   xmlns:svg="http://www.w3.org/2000/svg">
  <defs
     id="defs47" />
  <sodipodi:namedview
     id="namedview47"
     pagecolor="#ffffff"
     bordercolor="#000000"
     borderopacity="0.25"
     inkscape:showpageshadow="2"
     inkscape:pageopacity="0.0"
     inkscape:pagecheckerboard="0"
     inkscape:deskcolor="#d1d1d1"
     inkscape:document-units="in" />
  <g
     id="Layer1003"
     transform="translate(-53.974594,-71.068733)">
    <path
       d="m 107.9999,71.068731 c 11.8843,13.178877 29.5144,16.441636 54.0223,19.625908 0.2604,38.666861 -14.0805,69.620491 -54.0223,88.166561 -39.9424,-18.54607 -54.2833,-49.4997 -54.0218,-88.166561 24.507,-3.184272 42.137,-6.447031 54.0218,-19.625908 z"
       style="display:inline;fill:#000000;fill-rule:evenodd;stroke-width:0.943864"
       id="path12" />
    <path
       d="m 56.2697,92.460452 c 0.1806,36.803588 14.0352,66.168148 51.7302,84.089808 37.6952,-17.92166 51.5495,-47.28622 51.7297,-84.089808 -7.8913,-1.038944 -15.9005,-2.197533 -23.5804,-4.057691 -7.186,-1.741759 -14.1454,-4.15444 -20.2764,-7.981394 -2.8966,-1.808397 -5.5188,-3.877911 -7.8729,-6.202128 -2.3542,2.324217 -4.9767,4.393731 -7.873,6.202128 -6.1314,3.826954 -13.0901,6.239635 -20.2771,7.981394 -7.6794,1.860158 -15.6886,3.018747 -23.5801,4.057691 z"
       style="fill:#aa0000;fill-rule:evenodd;stroke-width:0.943864"
       id="path13" />
    <path
       d="m 56.2697,92.460452 c 0.0304,6.262797 0.458,12.308128 1.3313,18.120858 L 82.6753,87.678743 c -0.9372,0.253812 -1.8797,0.494973 -2.8255,0.724018 -7.6794,1.860158 -15.6886,3.018747 -23.5801,4.057691 z"
       style="fill:#000000;fill-rule:evenodd;stroke-width:0.943864"
       id="path14" />
    <path
       d="m 61.5215,127.03417 c 1.6754,4.9671 3.7818,9.71344 6.3586,14.22343 l 59.9217,-55.26948 c -4.1924,-1.445898 -8.212,-3.247079 -11.929,-5.566753 -0.7462,-0.465217 -1.4735,-0.948609 -2.1837,-1.448927 z"
       style="display:inline;fill:#000000;fill-rule:evenodd;stroke-width:0.943864"
       id="path15" />
    <path
       d="m 76.4674,153.37419 c 3.1318,3.61965 6.671,7.03689 10.6446,10.24307 l 72.5352,-67.019918 c 0.0472,-1.369015 0.0763,-2.748097 0.0824,-4.13689 -4.9516,-0.651946 -9.9495,-1.349772 -14.8822,-2.240296 z"
       style="display:inline;fill:#000000;fill-rule:evenodd;stroke-width:0.943864"
       id="path16" />
    <path
       d="m 99.742,172.22343 c 2.6157,1.50844 5.366,2.95282 8.2579,4.32683 27.8044,-13.21959 42.6351,-32.6659 48.5775,-56.72883 -0.106,-0.11279 -0.1519,-0.22549 -0.1222,-0.33827 z"
       style="fill:#000000;fill-rule:evenodd;stroke-width:0.943864"
       id="path17" />
    <path
       d="m 79.9104,109.17131 c -5.3969,-2.91888 -8.0277,-7.40891 -8.2144,-14.500317 4.2767,-0.13577 6.7724,-1.31485 8.2657,-2.948368 1.4765,1.633518 3.7007,2.449386 8.0794,2.661059 -0.307,7.559736 -2.6493,11.839796 -8.1307,14.787626 z"
       style="fill:#ffd500;fill-rule:evenodd;stroke-width:0.943864"
       id="path18" />
    <path
       d="m 117.6225,117.60777 c 0,0.50023 -0.0172,1.01373 -0.0335,1.51253 -0.0342,1.66283 -0.0857,3.3114 0.2202,4.70225 0.1871,0.84615 0.4415,1.663 0.8488,2.5105 0.4073,0.84633 0.9674,1.7234 1.8334,2.70622 0.3388,0.39261 0.7633,0.84732 1.188,1.30051 0.695,0.74085 1.3747,1.46621 1.8665,2.16305 0.1027,0.15012 0.2032,0.28598 0.2889,0.43796 0.0162,0 0.0162,0.0152 0.0338,0.0293 0.4406,0.54486 1.1371,0.99823 1.918,1.31637 0.8651,0.34788 1.816,0.52953 2.715,0.52953 1.0865,0 2.1724,-0.33399 2.9701,-0.98522 0.6971,-0.57346 1.1715,-1.40429 1.239,-2.52351 0.1701,-2.55566 -1.5954,-5.33753 -3.5647,-8.42229 -0.9496,-1.48144 -1.9342,-3.02436 -2.7662,-4.62669 -0.7971,-1.54149 -1.3917,-3.03924 -1.7649,-4.58135 -0.3556,-1.55726 -0.4744,-3.1751 -0.2881,-4.9288 0.1188,-1.14896 0.4926,-2.20769 1.0522,-3.09999 0.5769,-0.95235 1.3584,-1.72421 2.2573,-2.23771 0.4239,-0.24232 0.8821,-0.42335 1.3573,-0.54415 0.5094,-0.12081 1.019,-0.18085 1.5447,-0.18085 1.7992,0 3.4459,0.78513 4.6343,2.25268 1.0353,1.3005 1.7142,3.12939 1.7479,5.41289 0.3051,0.33257 0.6453,0.89151 0.9326,1.52653 0.3401,0.72687 0.6452,1.57267 0.8145,2.31352 0.1378,0.54469 0.1695,1.13454 0.1871,1.70871 0.0169,0.54353 0.035,1.07369 0.1362,1.49704 0.0844,0.33176 0.2713,0.69551 0.4576,1.08812 0.3733,0.78736 0.7983,1.66478 0.8146,2.87389 0,0.27136 -0.3564,0.43769 -0.6108,0.28739 -0.3394,-0.21256 -0.5426,-0.34842 -0.7302,-0.46922 -0.3057,-0.19733 -0.5426,-0.36286 -1.1702,-0.72616 -0.1532,-0.0905 -0.4245,-0.22664 -0.7294,-0.37764 -0.0513,-0.0154 -0.102,-0.0447 -0.1701,-0.0914 -0.6284,-0.30129 -1.3586,-0.68063 -1.6974,-0.96714 -0.4758,-0.40882 -0.8658,-0.96731 -1.187,-1.60233 -0.357,-0.71119 -0.629,-1.49704 -0.7823,-2.23887 -0.1348,-0.75636 -0.1693,-1.72323 -0.1017,-2.62988 0.0857,-0.93712 0.2381,-1.81437 0.4757,-2.29901 0.0337,-0.22672 0.1701,-0.529 0.3057,-0.84651 0.1357,-0.33301 0.2881,-0.68001 0.2881,-0.83208 -0.0849,-0.80081 -0.5257,-1.72314 -1.2559,-2.37366 -0.5932,-0.52847 -1.3578,-0.86148 -2.2567,-0.80081 -0.8159,0.0444 -1.3929,0.37817 -1.7992,0.84713 -0.4589,0.49836 -0.747,1.14888 -0.9515,1.79887 -0.22,0.68054 -0.2876,1.512 -0.2539,2.4199 0.0507,1.01186 0.2539,2.11566 0.5601,3.23469 0.8316,3.05421 2.3251,5.17156 3.9379,7.45391 0.7121,1.01373 1.4591,2.05722 2.1725,3.22142 0.662,1.08865 1.2553,2.35869 1.6459,3.68904 0.3396,1.17944 0.5257,2.40484 0.4752,3.58312 -0.0851,2.0264 -0.9165,3.8413 -2.3251,5.12648 -1.3408,1.25481 -3.2243,2.02631 -5.4656,2.04154 -0.8146,0.0138 -1.6123,-0.0466 -2.3588,-0.2269 -0.5938,-0.15199 -1.1539,-0.37863 -1.6972,-0.71084 -0.0512,0.19537 -0.1019,0.3927 -0.1863,0.6042 l 0.0163,-0.0144 c -0.102,0.3013 -0.0844,0.66469 -0.0163,1.05748 0.0844,0.46869 0.2707,0.98219 0.5089,1.4965 0.3057,0.66593 0.6108,1.25605 0.8828,1.70942 0.2368,0.42388 0.4406,0.71119 0.577,0.83181 0.1869,0.15101 0.3738,0.31698 0.5601,0.48455 0.8989,0.80082 1.6804,1.48118 2.5118,1.81348 0.1695,0.0605 0.3732,0.10566 0.5427,0.13657 0.527,0.10566 0.9334,0.19582 0.9334,0.72482 0,0.33399 -0.0676,0.52963 -0.1519,0.77168 -0.0521,0.13533 -0.1188,0.27163 -0.1533,0.4531 -0.0849,0.36339 -0.17,0.78727 -0.22,1.20955 -0.0512,0.42406 -0.0857,0.83253 -0.0857,1.18024 0,0.46842 0.0857,1.01266 0.2208,1.57231 0.1356,0.57471 0.3225,1.14879 0.4926,1.67833 0.0857,0.24205 0.1863,0.45337 0.3225,0.71119 0.2032,0.43805 0.4408,0.93631 0.6614,1.67806 0,0.0141 0,0.0298 0.017,0.0452 0.0512,0.0293 0.1869,0.0902 0.3225,0.15091 0.4589,0.21186 0.9846,0.45319 0.9502,0.93757 -0.0337,0.39296 -0.4913,0.7715 -0.967,1.16438 -0.2384,0.19733 -0.4752,0.37746 -0.6284,0.54477 -0.0337,0.0452 -0.2024,0.13515 -0.2713,0.13515 -0.255,0.0152 -0.5257,0.0152 -0.9502,0.0311 h -0.3401 c -0.3057,-0.0159 -0.899,0.40811 -1.2559,0.67983 -0.1182,0.0758 -0.22,0.151 -0.2707,0.19751 l 0.0168,-0.016 c -0.3893,0.27199 -1.2727,0.37747 -2.088,0.22718 -0.5602,-0.10549 -1.1027,-0.31823 -1.4772,-0.68037 -0.1693,0.045 -0.3381,0.0743 -0.5257,0.10566 -0.2537,0.0453 -0.4913,0.0605 -0.7297,0.0453 -0.3225,0 -0.6957,-0.0453 -1.0183,-0.13684 -0.0675,-0.0142 -0.1356,-0.0448 -0.2207,-0.0588 0,0.0293 0,0.0745 0.0184,0.11893 0,0.19742 0.0323,0.39493 0.0843,0.62139 0.0331,0.15029 -0.1027,0.3617 -0.2728,0.4082 -0.4061,0.10548 -0.7801,0.0601 -1.1195,-0.0607 -0.2714,-0.10691 -0.5096,-0.25773 -0.6797,-0.4392 -0.1863,-0.19546 -0.3215,-0.40803 -0.3893,-0.60402 -0.0336,-0.13613 -0.0514,-0.25782 -0.0514,-0.3788 -0.0844,0.0453 -0.1699,0.13684 -0.2543,0.22682 -0.0514,0.0461 -0.1015,0.0913 -0.1524,0.15198 -0.2721,0.22673 -0.5106,0.31698 -0.8152,0.045 l -0.017,-0.0308 c -0.373,-0.40837 -0.5431,-0.93595 -0.5605,-1.43618 -0.034,-0.66469 0.1703,-1.33053 0.3746,-1.60252 0.0172,-0.13595 0.0843,-0.25719 0.1358,-0.37853 0,-0.0141 0.0163,-0.0446 0.0342,-0.09 0.0844,-0.21114 0.2202,-0.51359 0.6103,-0.86184 0.3564,-0.33283 0.9332,-0.71101 1.9,-1.07387 0.527,-0.19599 1.7829,0.65026 2.7499,0.57435 0.0844,-0.0142 0.1869,-0.0295 0.2721,-0.0295 v -0.30281 c 0.0849,-2.7514 0.1012,-3.68923 -0.6114,-4.56639 -0.3052,-0.37853 -0.679,-0.67947 -1.1029,-0.9217 -0.4413,-0.25764 -0.9507,-0.45382 -1.5113,-0.61979 -1.0519,-0.31768 -1.9853,-0.65007 -2.902,-1.02887 -0.8989,-0.39333 -1.7649,-0.8165 -2.6809,-1.31521 -2.0207,-1.08848 -3.2083,-2.53999 -4.0228,-4.17333 -0.1866,-0.37853 -0.3564,-0.78673 -0.5089,-1.17908 -0.4922,0.18121 -1.3246,0.46816 -2.3094,0.7552 -0.0499,0.0312 -0.1006,0.0454 -0.1685,0.0763 -0.7981,0.28713 -2.1715,1.13329 -3.2426,2.08653 -0.7803,0.69533 -1.3741,1.43654 -1.4253,2.02568 -0.0502,0.43832 0.0176,0.8467 0.0857,1.25481 0.2033,1.18024 0.4072,2.28386 -1.7315,3.7506 -0.1186,0.36215 -0.2887,0.725 -0.4421,1.07262 -0.3388,0.74104 -0.6776,1.48305 -0.6611,2.43487 0.39,0.37853 0.5429,0.84669 0.5094,1.34567 -0.0342,0.42406 -0.3229,0.90701 -0.7302,1.2859 -0.39,0.3616 -0.8826,0.63466 -1.3576,0.63466 -0.1695,0.0143 -0.3901,-0.0153 -0.6453,-0.031 -0.3564,-0.0446 -0.7637,-0.0745 -0.8825,-0.0293 -1.3062,0.5135 -2.2919,0.60401 -3.0045,0.52954 -0.6952,-0.0763 -1.154,-0.31823 -1.4084,-0.50023 -0.3558,0.10566 -0.6617,0.21247 -0.8989,0.25746 -0.017,0 -0.0857,0.016 -0.0857,0.016 -0.0844,0 -0.1523,-0.016 -0.2202,-0.0469 l -0.593,0.43956 c -0.0685,0.0607 -0.2895,0.09 -0.3744,0.0758 -0.3388,-0.10682 -0.6103,-0.28882 -0.8318,-0.54486 -0.0509,-0.0758 -0.1014,-0.15181 -0.1356,-0.22646 -0.1016,0.28677 -0.1695,0.5135 -0.5431,0.58985 -0.2887,0.0446 -0.7975,-0.10735 -1.2557,-0.50005 -0.3049,-0.25613 -0.6116,-0.62014 -0.8316,-1.0728 0,-0.0152 -0.0172,-0.0312 -0.0172,-0.0605 -0.0348,-0.0604 -0.0509,-0.13675 -0.0677,-0.19742 v -0.0603 c -0.0343,-0.0607 -0.0857,-0.13497 -0.1186,-0.21078 -0.0857,-0.12152 -0.1538,-0.25774 -0.2216,-0.40874 -0.2037,-0.43849 -0.271,-0.90665 -0.2037,-1.36153 0.0679,-0.43796 0.2544,-0.87547 0.594,-1.26977 0.3057,-0.3772 0.7809,-0.72518 1.3075,-0.98309 0.5087,-0.24161 1.0696,-0.39261 1.6125,-0.40793 0.8989,0 1.6121,0.39412 2.2918,0.7715 0.593,0.31813 1.1704,0.63529 1.7148,0.57417 0.2359,-0.0152 0.423,-0.0897 0.6095,-0.18156 0.2209,-0.1355 0.4243,-0.31626 0.5609,-0.48259 0.1687,-0.19724 0.1687,-0.50023 0.1687,-0.80135 0,-0.0617 -0.0159,-0.13621 0,-0.19724 0,-0.46842 -0.0159,-0.99814 -0.0329,-1.52732 0,-0.52954 -0.035,-1.08821 -0.0515,-1.63334 -0.017,-0.55903 -0.0342,-1.14888 -0.0514,-1.69374 -0.0165,-1.16296 -0.0329,-2.26711 -0.2709,-3.40129 -0.1192,-0.59003 -0.2378,-1.1789 -0.272,-1.70791 -0.0509,-1.01382 0.017,-2.05731 0.3564,-3.05554 0.3223,-1.01213 0.9167,-1.99504 1.8671,-2.8722 2.5123,-2.32849 6.0079,-2.52582 10.1157,-2.75255 0.2715,-0.014 0.5426,-0.0293 0.8316,-0.0453 -0.1027,-0.16598 -0.2043,-0.34727 -0.3229,-0.5136 v -0.0152 c -0.8488,-1.46612 -2.1722,-2.61616 -3.6999,-3.94669 -2.1208,-1.85837 -4.6502,-4.0519 -6.9081,-7.92277 l -0.0164,-0.0153 c -0.5772,-0.0593 -1.1876,-0.21132 -1.7992,-0.4066 -0.7296,-0.24223 -1.4591,-0.57622 -2.2402,-0.98442 -0.6965,-0.36152 -1.1546,-0.68001 -1.6463,-1.01196 -0.5601,-0.39323 -2.393,-1.6336 -3.2246,-1.66291 -0.1524,0 -0.4746,0.25604 -0.7816,0.49836 -0.2368,0.19546 -0.4911,0.3927 -0.7126,0.49782 -0.4065,0.18218 -0.7453,0.15216 -0.9674,-0.2555 -0.0844,-0.15145 -0.1016,-0.33319 -0.118,-0.57533 -0.1699,0.0612 -0.3914,0.16704 -0.6445,0.28784 -0.5615,0.28749 -1.0531,0.45337 -1.5289,0.46851 -0.5083,0 -0.967,-0.15216 -1.442,-0.51421 -0.5933,-0.43885 -1.2219,-1.04296 -1.7478,-1.64778 -0.5102,-0.59056 -0.9169,-1.20972 -1.1041,-1.69445 -0.2022,-0.55894 -0.6451,-1.78363 0.1528,-2.10185 -0.3043,-0.45328 -0.5421,-1.20902 -0.4578,-1.7537 0.2543,-0.1959 0.713,-0.28606 1.0524,-0.3331 -0.1186,-0.33185 -0.3222,-0.87654 -0.3903,-1.2385 0.3388,-0.27234 1.1543,-0.37871 1.3414,-0.39252 -0.018,-0.0614 -0.0514,-0.10655 -0.0685,-0.15288 -0.0851,-0.27109 -0.1695,-0.57417 -0.1695,-0.92286 0.9669,-0.63359 3.207,-0.27109 3.3776,0.15154 0.3388,0.30245 0.5596,0.69631 0.7467,1.11948 0.1186,0.30308 0.2202,0.61987 0.3223,0.92242 0.2202,0.68045 0.4232,1.33097 0.8144,1.58781 l 0.0681,0.0457 c 0.5938,0.58914 1.1203,0.80082 1.7315,1.05819 0.2377,0.10566 0.492,0.2115 0.7803,0.34744 0.2556,0.12134 0.6106,0.2874 0.9674,0.45337 1.2553,0.5903 2.4266,1.1495 4.1242,2.10301 0.085,-0.0456 0.1529,-0.092 0.2208,-0.15145 -0.3574,-1.19476 -0.8989,-2.81259 -1.4768,-4.29457 -0.4747,-1.19467 -0.9671,-2.28359 -1.3914,-2.99425 -0.2035,-0.33176 -0.2886,-0.55894 -0.373,-0.72562 -0.1029,-0.25666 -0.1534,-0.3625 -0.6294,-0.62041 -0.0842,-0.0452 -0.2037,-0.0896 -0.3044,-0.1208 -0.3229,-0.12036 -0.5945,-0.21114 -0.6624,-0.58932 -0.0507,-0.19599 0.0336,-0.49898 0.238,-0.75502 0.0172,-0.0163 0.0334,-0.0314 0.0514,-0.0458 -0.3738,-0.19724 -0.7302,-0.46887 -1.0527,-0.78692 -0.51,-0.52918 -0.968,-1.19351 -1.2733,-1.93606 -0.2036,-0.46824 -0.3386,-0.982994 -0.4415,-1.465762 -0.1186,-0.635376 -0.1521,-1.240194 -0.1521,-1.678507 0,-0.151539 0.1859,-0.333189 0.3558,-0.333189 0.4587,-0.02931 0.866,-0.01381 1.2391,0.04633 -0.0167,-0.03065 -0.0167,-0.04633 -0.0167,-0.06014 -0.0513,-0.181561 -0.1192,-0.408201 -0.2213,-0.636088 -0.0844,-0.22664 0.1021,-0.467801 0.3738,-0.467801 0.3229,0.01381 0.6108,-0.0155 0.8995,-0.03118 0.1865,-0.01452 0.3571,-0.02949 0.5259,-0.04445 -0.0165,-0.01621 -0.0165,-0.04517 -0.0335,-0.07635 -0.1024,-0.242409 -0.1529,-0.484015 -0.0681,-0.665042 0.0172,-0.06013 0.1695,-0.166506 0.2381,-0.196528 0.5259,-0.150915 1.0524,-0.196618 1.5613,-0.150915 0.0851,0.01443 0.1536,0.01443 0.2372,0.02949 0.017,-0.150381 0.0685,-0.286864 0.1366,-0.377021 0.0342,-0.06013 0.22,-0.152162 0.3049,-0.165971 0.5096,0 0.9169,0.01381 1.2905,0.08962 0.3738,0.06067 0.6954,0.166505 1.0003,0.332476 0.3229,0.165882 0.6282,0.378713 0.8832,0.619875 0.6111,0.590297 1.0183,1.361175 1.1712,2.162522 0.135,0.800812 0.0162,1.632359 -0.4415,2.328493 -0.1701,0.257368 -0.3738,0.484008 -0.611,0.695148 -0.1022,0.0764 -0.2036,0.15208 -0.2887,0.22718 -0.3394,0.25737 -0.5603,0.43769 -0.5095,0.90789 0.2551,0.57364 0.8992,1.52653 1.6978,2.58516 0.6788,0.90674 1.4933,1.87539 2.2736,2.69126 1.3068,-1.0132 2.428,-1.90586 3.6491,-2.60039 h 0.018 c 0.7288,-0.43831 1.5105,-0.787 2.3593,-1.08999 v -0.0132 c -0.0522,-0.0463 -0.035,-0.0764 -0.0679,-0.0764 -0.0519,0 -0.1534,0.045 -0.2893,0.0895 -0.3223,0.15216 -0.7468,0.33363 -1.4598,0.28793 -0.1523,0 -0.2709,-0.0294 -0.3902,-0.0607 -0.3901,-0.1208 -0.6451,-0.3625 -0.7976,-0.66424 -0.1356,-0.27234 -0.1691,-0.59056 -0.1528,-0.87725 0.0172,-0.16668 0.0514,-0.33319 0.1016,-0.48464 -0.0163,-0.15038 -0.1016,-0.31617 -0.1873,-0.48401 -0.1186,-0.24099 -0.2365,-0.49898 -0.2365,-0.80081 0,-0.438227 0.5259,-0.78567 0.9669,-1.088747 0.0507,-0.02949 0.1186,-0.0751 0.1708,-0.105837 0.0834,-0.210426 0.1863,-0.437778 0.3216,-0.619963 0.0162,-0.03056 0.0512,-0.07501 0.0857,-0.105659 -0.2558,-0.09087 -0.4245,-0.30183 -0.5274,-0.514215 -0.1351,-0.242142 -0.2028,-0.438135 -0.22,-0.574173 -0.0172,-0.02993 -0.0172,-0.02993 -0.0515,-0.04561 -0.3223,-0.165882 -0.8647,-0.453369 -1.1026,-1.435742 -0.1351,-0.635465 -0.0165,-1.104513 0.0843,-1.557793 0.0679,-0.272342 0.1358,-0.560185 0.1194,-0.862015 -0.0679,-0.362677 -0.1358,-0.635019 0.0673,-0.922328 0.1871,-0.272342 0.5944,-0.423346 1.4424,-0.408914 0.3059,0 0.9169,-0.105837 1.579,-0.271629 0.476,-0.136038 0.9671,-0.302543 1.3401,-0.498537 0.3906,-0.468959 0.8159,-0.801524 1.359,-1.043131 0.5431,-0.24223 1.2048,-0.378713 2.1213,-0.48455 0.0851,0 0.2711,-0.02949 0.4582,-0.06013 0.4407,-0.0457 0.9509,-0.122051 1.4254,-0.150826 0.2043,-0.363836 0.4409,-0.740856 0.7131,-1.028699 0.3566,-0.407667 0.7803,-0.680722 1.3233,-0.695688 0.866,-0.03002 1.7657,0.514661 2.3761,1.254715 0.3057,0.363123 0.5429,0.786469 0.6621,1.225316 0.0681,0.256128 0.1023,0.514038 0.1023,0.771324 0.0341,0.0457 0.0502,0.105837 0.0678,0.151004 0.1186,0.271719 0.3053,0.589674 0.5597,0.862194 0.2036,0.226016 0.4415,0.407488 0.6623,0.497824 0.4582,0.16704 0.8983,0.470028 1.2897,0.802059 0.458,0.377466 0.8661,0.815779 1.1534,1.225138 0.1871,0.256217 0.2728,0.499071 0.3914,0.770879 0.0501,0.165792 0.118,0.331763 0.203,0.499516 0.1371,0.271807 0.3736,0.527935 0.6615,0.785311 0.3061,0.256662 0.6793,0.514037 1.0355,0.771324 0.5096,0.332476 0.8321,0.710654 1.0529,1.118856 0.4406,0.816491 0.4406,1.632896 0.4918,2.510056 0.0345,0.49916 0.1533,0.99814 0.4408,1.42015 0.3065,0.39439 0.7646,0.74184 1.5117,0.92286 0.1182,0.0457 0.2706,0.2123 0.2706,0.31805 0.0169,0.0915 0,0.16597 -0.0168,0.24232 -0.0507,0.2416 -0.2032,0.46833 -0.4239,0.61934 -0.2206,0.15198 -0.4918,0.24214 -0.8314,0.25782 0.0681,0.89221 -0.118,1.85971 -0.3225,2.81135 -0.1877,0.95306 -0.374,1.81454 -0.8322,2.70738 -0.1525,0.30183 -0.8482,1.67797 -1.1709,1.76867 -0.0513,1.48269 0.2039,2.85821 0.544,3.56957 0.0668,0.12018 0.1517,0.27119 0.0844,0.36134 -0.0844,0.10629 -0.3227,0.13649 -0.4584,0.12081 -0.4757,-0.0295 -0.9163,-0.0896 -1.3756,-0.33186 0.0859,0.19653 0.1867,0.37756 0.2906,0.54469 0,0 0.0323,0.0902 0.0323,0.10584 0.0176,0.0895 0,0.16588 -0.0168,0.24169 0.2712,0.18032 0.5769,0.27163 0.5769,0.27163 0.1364,0.0452 0.3396,0.0609 0.3564,0.18219 0.0344,0.1053 -0.1356,0.33203 -0.2376,0.40837 -0.5425,0.39244 -1.2388,0.54344 -1.917,0.5585 -0.8825,0.0157 -1.7493,-0.21105 -2.19,-0.42388 z"
       style="fill:#000000;fill-rule:evenodd;stroke-width:0.943864"
       id="path19" />
    <path
       d="m 76.6528,105.37652 v -0.22735 c 0.1006,-0.0295 0.2544,-0.0902 0.2873,-0.15083 0.0343,-0.0759 0.0515,-0.18174 0.0515,-0.34753 v -7.818275 c 0,-0.164813 -0.0172,-0.271184 -0.0515,-0.346998 -0.0329,-0.06013 -0.1014,-0.120803 -0.2207,-0.165971 v -0.227174 h 3.5296 c 1.6301,0 2.7339,1.134535 2.7339,2.600835 0,0.695688 -0.3051,1.814543 -1.0866,2.297843 l 1.289,3.25136 c 0.0685,0.16606 0.1542,0.31751 0.2386,0.43787 0.1016,0.1208 0.2385,0.27287 0.4415,0.43938 v 0.22664 l -1.8836,0.0302 v -0.22735 c 0.0844,-0.0151 0.1345,-0.0607 0.186,-0.10584 0.1528,-0.19599 0.017,-0.48339 -0.0681,-0.67983 l -1.1203,-2.9334 c -0.2879,0.0143 -0.5603,0.06 -0.8482,0.06 h -2.1558 v 3.16075 c 0,0.16579 0.0171,0.28731 0.0509,0.34753 0.0343,0.0607 0.1699,0.10584 0.2887,0.15083 v 0.22735 z"
       style="fill:#000000;fill-rule:evenodd;stroke-width:0.943864"
       id="path20" />
    <path
       d="m 79.8425,97.015254 h -1.8671 l 0.0171,3.462496 h 1.9015 c 1.5442,0 2.1043,-0.681168 2.1043,-1.79949 -0.0165,-1.088834 -0.6789,-1.663006 -2.1558,-1.663006 z"
       style="fill:#ffd500;fill-rule:evenodd;stroke-width:0.943864"
       id="path21" />
    <path
       d="m 83.3896,101.86823 0.1693,-0.0906 0.6286,1.75361 -0.1863,0.0909 c -0.2894,-0.27234 -0.3066,-0.34816 -0.9339,-0.0758 -1.0855,0.45399 -2.2237,0.57479 -3.853,0.57479 -1.1537,0 -2.257,-0.18165 -3.003,-0.66424 -1.0369,-0.66575 -1.3755,-1.66425 -1.3755,-2.46578 0,-1.330526 0.7639,-3.160037 4.43,-3.160037 1.0012,0 2.2223,0.18165 3.0206,0.378179 0.713,0.165971 1.0703,0.347532 1.1032,0.347532 0.1192,0 0.2216,-0.0155 0.2887,-0.04499 0.1192,-0.06022 0.2544,-0.181739 0.3388,-0.212385 l 0.1704,0.07581 -0.6787,1.830761 -0.1871,-0.0764 v -0.0157 c 0.0679,-0.331854 -0.3388,-0.589853 -0.7981,-0.770701 -0.7461,-0.287487 -1.9344,-0.514127 -3.122,-0.514127 -2.5801,0 -3.514,1.073867 -3.4618,2.177668 0.0329,0.74068 0.5246,1.54149 1.4925,1.92038 0.4245,0.1658 1.6458,0.22664 2.5625,0.196 0.628,-0.0151 2.4959,-0.25684 3.2762,-0.93685 0.0335,-0.0305 0.137,-0.18201 0.1186,-0.31805 z"
       style="fill:#000000;fill-rule:evenodd;stroke-width:0.943864"
       id="path22" />
    <path
       d="m 78.7051,105.13411 h 0.1872 c 0.1529,0.66433 0.5259,0.49907 0.9338,-0.0908 0.2881,-0.4082 0.373,-0.99805 0.3223,-1.60287 -0.0857,-0.96732 -0.4409,-1.9504 -0.7811,-2.91826 -0.4072,-1.148252 -0.8145,-2.297309 -0.8145,-3.477458 0,-0.86157 0.2542,-1.678061 0.8325,-2.252233 0.3901,-0.408825 0.9318,-0.695688 1.645,-0.787004 0.2214,-0.03002 0.5093,-0.07519 0.5093,-0.332476 h 0.1867 v 1.738641 h -0.1867 c -0.1521,-0.529628 -0.4923,-0.45319 -0.8653,-0.316797 -0.2385,0.09016 -0.4253,0.211139 -0.5768,0.362678 -0.3743,0.393679 -0.5434,0.967852 -0.5434,1.587191 0,1.027987 0.39,2.086174 0.763,3.161198 0.3744,1.02745 0.7302,2.07067 0.8322,3.15933 0.0681,0.80081 -0.0677,1.60234 -0.5087,2.22292 -0.2708,0.40749 -0.6622,0.72491 -1.2053,0.9071 -0.4073,0.151 -0.5087,0.27234 -0.543,0.529 h -0.1872 z"
       style="fill:#000000;fill-rule:evenodd;stroke-width:0.943864"
       id="path23" />
    <path
       d="m 91.927,156.81539 c -0.1186,-0.151 -0.2382,-0.28828 -0.2881,-0.34833 -0.0515,0.016 -0.1022,0.016 -0.1701,0.0302 -0.1192,0.0151 -0.2215,0.0298 -0.3401,0.0298 0.0515,0.13728 0.1023,0.25835 0.1867,0.34869 0.0677,0.09 0.1534,0.16632 0.2386,0.21096 z"
       style="fill:#ffd500;fill-rule:evenodd;stroke-width:0.943864"
       id="path24" />
    <path
       d="m 89.9753,156.40675 c -0.1019,-0.0453 -0.2205,-0.0758 -0.3401,-0.09 -0.2033,-0.0308 -0.4063,-0.0157 -0.6445,0.06 0.0844,0.10637 0.1867,0.19599 0.2717,0.27252 0.2708,0.22655 0.4924,0.33167 0.5595,0.31653 0.0857,-0.0153 -0.0671,-0.0293 -0.0329,-0.09 0.0329,-0.15083 0.0844,-0.31823 0.1863,-0.46905 z"
       style="fill:#ffd500;fill-rule:evenodd;stroke-width:0.943864"
       id="path25" />
    <path
       d="m 110.868,139.72992 c -0.0514,-0.19733 -0.1193,-0.37871 -0.1708,-0.57506 -0.373,-0.0305 -0.6776,-0.0915 -0.9154,-0.19644 -0.3738,-0.18201 -0.5773,-0.45373 -0.6286,-0.77204 -0.0501,-0.43751 0.2214,-0.96705 0.4586,-1.4655 0.1358,-0.24223 0.2544,-0.48526 0.3059,-0.65069 0,-0.0446 -0.0171,-0.0756 -0.0171,-0.10566 -0.2544,-1.08786 -0.4926,-2.14702 -0.9513,-3.17572 -0.3564,0.0157 -0.7294,0.0465 -1.1199,0.0603 -3.9368,0.21256 -7.2966,0.4082 -9.5887,2.52591 -0.866,0.80081 -1.3919,1.67797 -1.6972,2.58444 -0.2893,0.9226 -0.3737,1.89027 -0.3059,2.84289 0.0338,0.72643 0.2196,1.45151 0.3567,2.17856 0.1871,0.92188 0.6279,1.42015 1.3246,2.19174 0.118,0.12134 0.2189,0.22646 0.2703,0.28767 0.102,0.13497 0.272,0.31662 -0.0337,0.52918 -0.3221,0.19582 -0.4908,0.0138 -0.5945,-0.12134 -0.2544,-0.31822 -0.5422,-0.58985 -0.7976,-0.89239 0,0.30254 0.018,0.61952 0.018,0.95306 0.0165,0.54362 0.0165,1.11948 0.0502,1.6925 0.0172,0.53087 0.0342,1.07395 0.0506,1.63298 0.0178,0.52972 0.0343,1.05917 0.0178,1.543 v 0.19724 c 0,0.4221 0.0165,0.83066 -0.3057,1.20946 -0.2043,0.22673 -0.4587,0.46754 -0.781,0.64954 -0.2707,0.15181 -0.5766,0.25702 -0.9324,0.30219 -0.8146,0.0607 -1.4949,-0.30219 -2.1908,-0.67983 -0.593,-0.31822 -1.2048,-0.66593 -1.8836,-0.66593 -0.4243,0.0152 -0.8654,0.13621 -1.2733,0.31822 -0.4239,0.21096 -0.7969,0.48383 -1.0512,0.78567 -0.2557,0.30254 -0.3908,0.62067 -0.4409,0.93765 -0.0178,0.10565 -0.0178,0.19688 -0.0178,0.30236 0.1356,-0.27181 0.3224,-0.51368 0.5431,-0.69515 0.4067,-0.36286 0.9332,-0.55903 1.4591,-0.61934 0.2043,-0.031 0.408,-0.031 0.611,-0.0157 0.1873,0.0157 0.475,0.0298 0.4415,0.36321 -0.0337,0.34762 -0.3223,0.3323 -0.5087,0.31626 -0.1358,-0.0151 -0.2886,-0.0151 -0.4415,0.016 -0.373,0.0452 -0.729,0.18129 -1.0185,0.4221 -0.2887,0.25791 -0.4916,0.60535 -0.5429,1.10371 v -0.014 c -0.0164,0.18219 -0.0164,0.36357 0,0.55885 0.0337,0.0454 0.0513,0.10566 0.0679,0.16633 0.3903,-0.13497 0.7645,-0.18147 1.1205,-0.12098 0.2029,0.0159 0.3893,0.0756 0.5766,0.15198 -0.0165,-0.42361 0,-0.84785 0.2037,-1.24055 0.2548,-0.52909 0.8145,-0.95164 1.9863,-1.11895 0.1865,-0.0295 0.4579,-0.0748 0.5251,0.25783 0.0681,0.34735 -0.22,0.3927 -0.4065,0.4237 -0.8488,0.1208 -1.2391,0.37693 -1.409,0.70914 -0.1352,0.30299 -0.1352,0.71119 -0.1195,1.11983 0.0522,-0.0453 0.1358,-0.10565 0.2381,-0.12169 0.1529,-0.0293 0.2893,-0.0443 0.3559,-0.0443 0.0178,0 0.1029,0.015 0.1029,0.015 0.3049,0.0747 0.5259,0.34753 0.7459,0.61952 0.0178,0.0153 0.0348,0.0452 0.0348,0.0603 0.0681,0.016 0.1358,0.0767 0.2031,0.151 0.0165,0 0.0165,0 0.0165,0.0153 0.2043,-0.0607 0.4587,-0.15029 0.748,-0.24179 0.6783,-0.2408 1.459,-0.51439 2.0873,-0.55902 0.2029,-0.016 0.4587,-0.0312 0.4916,0.31822 0.0342,0.34646 -0.2372,0.36161 -0.4232,0.37631 -0.3229,0.0305 -0.7129,0.12214 -1.1045,0.24303 0.153,0.0607 0.3393,0.10566 0.5779,0.13648 0.5953,0.0592 1.4256,-0.0308 2.5967,-0.48455 0.3051,-0.12098 0.814,-0.0758 1.272,-0.0305 0.2213,0.0305 0.408,0.0446 0.5266,0.0446 0.2717,-0.0142 0.5766,-0.19546 0.8318,-0.43769 0.2887,-0.25631 0.4922,-0.57462 0.51,-0.83253 0.0501,-0.92179 -0.7981,-1.26977 -1.6976,-1.34443 -0.0851,0 -0.1873,0.0143 -0.3067,0.0747 -0.1348,0.0609 -0.2873,0.18201 -0.4407,0.33381 -0.1358,0.13515 -0.3401,0.33248 -0.6275,0.12098 -0.2894,-0.22753 -0.0857,-0.43911 0.0329,-0.57586 0.2215,-0.21078 0.4417,-0.37693 0.6623,-0.48241 0.2544,-0.1217 0.5089,-0.18219 0.7468,-0.15243 0.4588,0.0307 0.8324,0.12107 1.1377,0.24205 0.0675,-0.84598 0.3901,-1.54185 0.6958,-2.22284 0.2544,-0.5437 0.5603,-1.28402 0.6458,-1.87423 0.0666,-0.61934 0.0331,-1.31512 -0.2722,-2.16234 -0.0515,-0.16615 -0.1358,-0.40865 0.2372,-0.49854 0.3738,-0.10566 0.4582,0.13506 0.5096,0.30254 0.3059,0.89115 0.3731,1.63334 0.3059,2.28199 0.9837,-0.93747 0.8475,-1.70728 0.7116,-2.52395 -0.0671,-0.43903 -0.1522,-0.89239 -0.1013,-1.4067 0.0677,-0.77159 0.7636,-1.64875 1.6639,-2.44956 0.4231,-0.37765 0.8813,-0.74104 1.3582,-1.05917 -1.0194,0.18201 -2.0375,0.2735 -2.8528,0.18201 -1.0181,-0.11983 -1.7652,-0.49854 -2.0186,-1.31521 -0.2895,-0.90647 0.2029,-1.66283 0.9496,-2.29802 0.6622,-0.56019 1.5612,-1.01338 2.2401,-1.13436 0.1863,-0.0452 0.4744,-0.1217 0.5601,0.21256 0.0857,0.34798 -0.2037,0.4221 -0.39,0.45328 -0.5602,0.10566 -1.3072,0.49836 -1.8836,0.98291 -0.5266,0.43796 -0.9511,0.95182 -0.7474,1.60216 0.1701,0.48446 0.6793,0.72633 1.3747,0.81596 0.8151,0.0918 1.8328,-0.0293 2.8854,-0.22629 1.8665,-0.36303 3.7514,-1.01222 4.5659,-1.31467 z"
       style="fill:#ffd500;fill-rule:evenodd;stroke-width:0.943864"
       id="path26" />
    <path
       d="m 124.5812,134.48201 c 0.0681,0.2115 0.1364,0.44001 0.1701,0.68153 0.1188,0.60428 0.1188,1.2548 0,1.96412 0.5425,0.37853 1.1197,0.63689 1.7316,0.78718 0.6608,0.16633 1.391,0.21105 2.1543,0.19689 2.0199,-0.0152 3.7003,-0.69516 4.9049,-1.8149 1.2735,-1.17953 2.0374,-2.82703 2.1217,-4.67294 0.0339,-1.13311 -0.1348,-2.28225 -0.4568,-3.40129 -0.3745,-1.26986 -0.9347,-2.47941 -1.5792,-3.52289 -0.6965,-1.14888 -1.4259,-2.17633 -2.1379,-3.17501 -1.6649,-2.34408 -3.1915,-4.52113 -4.0411,-7.66611 -0.3214,-1.16474 -0.5251,-2.31353 -0.5764,-3.37243 -0.0507,-0.98282 0.0345,-1.87396 0.2713,-2.63086 0.2382,-0.72562 0.5601,-1.46576 1.0879,-2.05686 0.5412,-0.60366 1.289,-1.04251 2.358,-1.10264 1.1547,-0.0752 2.1211,0.34753 2.8506,1.01373 0.8666,0.76963 1.3923,1.859 1.4774,2.79567 0.0329,0.30299 -0.1533,0.74255 -0.3396,1.15084 -0.1194,0.28615 -0.2376,0.55849 -0.2544,0.69497 0,0.0143 -0.0344,0.10638 -0.0344,0.12018 -0.2038,0.39386 -0.3564,1.21035 -0.4238,2.117 -0.0688,0.86202 -0.0512,1.78444 0.0844,2.46435 0.0681,0.28803 0.1356,0.57605 0.2382,0.87725 0.1356,-1.01186 0.5425,-1.94986 0.8314,-2.34239 0.1019,-0.13719 0.2882,-0.45515 0.61,-0.258 0.3233,0.18166 0.1364,0.48473 0.0344,0.63502 -0.2718,0.36304 -0.662,1.34603 -0.7462,2.37349 -0.0515,0.65052 0.0329,1.30104 0.39,1.77009 0.0505,0.0444 0.0844,0.0901 0.1018,0.13532 0.0844,0.0913 0.1863,0.19644 0.272,0.27279 0.0507,0.0295 0.102,0.0747 0.1525,0.12107 -0.0505,-0.19742 -0.1018,-0.39386 -0.1525,-0.58985 -0.1876,-1.02754 -0.0336,-2.19219 0.1525,-2.88841 0.0499,-0.1658 0.1527,-0.49899 0.5257,-0.42317 0.3732,0.0907 0.2728,0.42317 0.2384,0.58985 -0.1877,0.63538 -0.3228,1.67797 -0.154,2.61634 0.1188,0.60366 0.3745,1.14834 0.8329,1.48073 0.0337,0.0159 0.0673,0.0312 0.1018,0.0453 0.0499,0.031 0.0843,0.0461 0.135,0.0755 -0.1019,-0.19653 -0.1863,-0.3927 -0.2544,-0.58949 -0.3057,-0.90665 -0.3908,-2.01054 -0.102,-3.35675 0.0345,-0.16597 0.102,-0.49827 0.4758,-0.43831 0.3901,0.0601 0.3227,0.39314 0.2883,0.55982 -0.2552,1.24038 -0.2039,2.2232 0.0849,3.02392 0.2713,0.78584 0.7641,1.39102 1.3747,1.86033 0.0168,0.0138 0.0168,0.029 0.0344,0.029 -0.1188,-0.72482 -0.4245,-1.3308 -0.6789,-1.87513 -0.2045,-0.42218 -0.3906,-0.81488 -0.4926,-1.20972 -0.1188,-0.49845 -0.1525,-1.05694 -0.1701,-1.63183 -0.0162,-0.54468 -0.0336,-1.11885 -0.1524,-1.57213 -0.1695,-0.71119 -0.4584,-1.51209 -0.7801,-2.19326 -0.2889,-0.64927 -0.6116,-1.17899 -0.8829,-1.45133 -0.0344,-0.0306 -0.1018,-0.18103 -0.1018,-0.22736 -0.017,-2.17704 -0.6452,-3.91568 -1.6122,-5.14037 -1.0354,-1.26986 -2.4621,-1.96555 -4.0061,-1.95041 -0.4576,0 -0.8989,0.0451 -1.341,0.15083 -0.3901,0.10584 -0.7801,0.25809 -1.1539,0.46905 -0.7803,0.45337 -1.4761,1.13382 -2.0031,1.98105 -0.492,0.81649 -0.8308,1.76884 -0.9494,2.82685 -0.1709,1.69365 -0.0515,3.23514 0.2881,4.71792 0.3393,1.4965 0.9339,2.94837 1.6966,4.44487 0.8327,1.60367 1.7992,3.11434 2.7331,4.58171 2.0368,3.17518 3.8698,6.04854 3.6827,8.79993 -0.0843,1.30033 -0.6619,2.28324 -1.4934,2.97901 -0.9508,0.78567 -2.223,1.16438 -3.4964,1.17953 -1.0002,0 -2.0692,-0.21248 -3.0377,-0.60518 -0.3057,-0.12098 -0.6106,-0.25782 -0.8827,-0.42397 z"
       style="fill:#ffd500;fill-rule:evenodd;stroke-width:0.943864"
       id="path27" />
    <path
       d="m 103.7226,97.982572 c 0.17,0.09016 0.2378,0.242319 0.3393,0.376931 0.1353,0.18174 0.8655,1.301041 0.9675,1.316721 0.5601,0.105836 1.6964,-0.620498 1.7991,-1.11948 0.0324,-0.181561 -0.1863,-0.46887 -0.4922,-0.740678 -0.5259,-0.498982 -1.4089,-1.013732 -2.1892,-0.589139 -0.1016,0.06014 -0.3059,0.619162 -0.4245,0.755645 z"
       style="fill:#000000;fill-rule:evenodd;stroke-width:0.943864"
       id="path28" />
    <path
       d="m 97.9862,110.03288 c 0.0329,-0.10521 0.0836,-0.22655 0.1359,-0.33185 0.0157,-0.0607 0.0499,-0.12134 0.1014,-0.16651 0.1015,-0.27234 0.2377,-0.55965 0.373,-0.87716 0.1029,-0.27234 0.2385,-0.57488 0.3573,-0.86219 -0.7303,0.58985 -1.257,1.1495 -1.63,1.76884 -0.3394,0.56037 -0.5259,1.18024 -0.5766,1.95032 0.5431,-0.30112 0.8819,-0.77008 1.239,-1.48145 z"
       style="fill:#000000;fill-rule:evenodd;stroke-width:0.943864"
       id="path29" />
    <path
       d="m 122.7484,99.041383 c -0.1364,-0.378803 -0.374,-0.726869 -0.7296,-1.0287 0,0.392522 0,0.862016 -0.0681,1.300418 -0.0169,0.150291 -0.0339,0.31751 -0.0683,0.45328 0.3227,-0.196439 0.6284,-0.437601 0.866,-0.724998 z"
       style="fill:#ffd500;fill-rule:evenodd;stroke-width:0.943864"
       id="path30" />
    <path
       d="m 118.5394,117.03359 c 0.3571,0.16598 1.0351,0.31805 1.7477,0.30237 0.2887,0 0.5944,-0.0306 0.866,-0.1208 -0.1186,-0.0757 -0.2552,-0.16651 -0.373,-0.2874 -1.0355,-0.015 -3.5649,-0.98353 -4.1252,-3.91515 0.0514,0.45283 0.153,0.90611 0.3059,1.34496 0.3053,0.89222 0.8145,1.7537 1.5786,2.67602 z"
       style="fill:#ffd500;fill-rule:evenodd;stroke-width:0.943864"
       id="path31" />
    <path
       d="m 108.7792,114.5386 c 0.9005,2.05739 2.5296,5.42875 3.9215,8.30122 0.594,1.24055 1.1541,2.37419 1.6458,3.41723 0.0857,0.1519 0.1534,0.31823 -0.203,0.45337 -0.356,0.12134 -0.4245,-0.0297 -0.5096,-0.19564 -0.203,-0.42477 -0.475,-0.96892 -0.7804,-1.61774 v 0.014 c -0.2379,0.1527 -0.5258,0.30299 -0.6795,0.3339 -0.1865,0.029 -0.4742,0.12063 -0.5599,-0.21292 -0.0681,-0.33229 0.2213,-0.39261 0.4077,-0.46895 0.2039,-0.0745 0.3902,-0.21088 0.5088,-0.31671 -0.1521,-0.33212 -0.3221,-0.66567 -0.4922,-1.01382 -0.2709,0.27305 -0.6275,0.5143 -1.0355,0.71101 -0.423,0.19733 -0.8989,0.3323 -1.4076,0.40864 -0.1873,0.0293 -0.4759,0.12125 -0.5437,-0.22664 -0.0679,-0.33229 0.2202,-0.4237 0.4073,-0.45381 0.4417,-0.0605 0.849,-0.18156 1.1882,-0.33337 0.3395,-0.16632 0.866,-0.49853 1.0527,-0.81497 -0.8318,-1.75441 -1.7479,-3.61439 -2.5123,-5.24809 -0.1359,0.50014 -0.3731,0.96803 -0.6625,1.39182 -0.576,0.81605 -1.4241,1.39067 -2.3586,1.45133 -0.6955,0.0451 -1.34,-0.15109 -1.9179,-0.40864 -0.4745,-0.22664 -0.8997,-0.498 -1.2391,-0.74032 -0.0844,0.0153 -0.1699,0.0291 -0.2542,0.0605 -1.5779,0.37737 -2.8519,0.69551 -4.1746,0.71083 2.1552,3.56806 4.5476,5.63874 6.5681,7.39324 1.5771,1.37569 2.9518,2.55575 3.8521,4.12824 l -0.0171,-0.0153 c 0.9504,1.46666 1.307,2.99318 1.6634,4.58117 0.0172,0.0761 0.0337,0.12134 0.1016,0.37774 0.3906,1.80064 0.7973,3.55336 1.5614,5.09636 0.7472,1.51085 1.8496,2.85688 3.7183,3.85502 0.8819,0.48437 1.7307,0.90656 2.6124,1.26986 0.866,0.37889 1.7825,0.71119 2.8173,0.99823 0.6114,0.18201 1.1715,0.40865 1.6803,0.69578 0.5102,0.30236 0.9508,0.66522 1.3072,1.10389 0.8645,1.05854 0.8482,2.07067 0.7639,4.98937 0,0.0905 -0.0174,0.19617 -0.0174,0.30299 0.5945,0.0747 0.6113,0.18085 1.1208,0.0747 0.2039,-0.0453 0.39,-0.09 0.6108,-0.09 0.2389,0.0153 0.4758,0.0605 0.6958,0.15038 0.22,0.0917 0.4239,0.22664 0.5595,0.37862 0.1194,0.13497 0.3226,0.33257 0.0174,0.54371 -0.2881,0.21247 -0.5094,0.0151 -0.6282,-0.12072 -0.0507,-0.0594 -0.1511,-0.12169 -0.2713,-0.18049 -0.1188,-0.0465 -0.2538,-0.0763 -0.3732,-0.0763 -0.1194,0 -0.272,0.0298 -0.4245,0.0604 h 0.0176 c -0.764,0.18201 -0.9173,-0.0152 -1.5455,-0.0755 -0.2032,-0.016 -0.4576,0 -0.7302,0.0312 -0.7633,0.0603 -2.528,-0.62121 -2.528,-0.62121 -0.8657,0.33354 -1.3575,0.63501 -1.6462,0.90869 -0.2714,0.25551 -0.3738,0.48215 -0.4415,0.63404 -0.017,0.0301 -0.0337,0.0765 -0.0509,0.1217 -0.0342,0.0745 -0.0677,0.15029 -0.0849,0.16561 0,0.0299 0.0172,0.045 0.0172,0.061 0.0335,0.0896 0.1186,0.19563 0.2202,0.27136 0.0685,0.0609 0.1186,0.10566 0.1863,0.13666 0.0681,-0.13666 0.1536,-0.27306 0.2558,-0.40802 0.2542,-0.3323 0.611,-0.60589 1.051,-0.78754 0.6623,-0.27163 1.5113,-0.31626 2.4785,0.0153 0.1869,0.0614 0.4581,0.16633 0.3225,0.48339 -0.1356,0.31814 -0.4069,0.2278 -0.5938,0.15199 -0.7472,-0.25773 -1.3917,-0.22664 -1.8843,-0.0295 -0.3049,0.13515 -0.5599,0.33248 -0.7465,0.55903 -0.17,0.24196 -0.2888,0.49862 -0.3051,0.75582 -0.0342,0.25648 0.0163,0.49827 0.1351,0.71083 0.0512,0.0302 0.0692,0.0607 0.0851,0.1217 0.2372,-0.0312 0.475,-0.047 0.713,-0.061 0.1704,0 0.356,0 0.5261,0.014 0.1188,-0.27119 0.3562,-0.51386 0.6957,-0.70914 0.3564,-0.19733 0.8314,-0.33355 1.3579,-0.33355 0.2888,0 0.5938,0.0306 0.9157,0.1045 0.1877,0.0475 0.4253,0.10807 0.3239,0.44036 -0.1025,0.33168 -0.3575,0.27119 -0.5439,0.22664 -0.2368,-0.0607 -0.4589,-0.09 -0.6789,-0.09 -0.3908,0.0136 -0.7126,0.10521 -0.9502,0.24035 -0.1869,0.10682 -0.3057,0.21248 -0.3738,0.33417 0.0849,0.0443 0.1869,0.0743 0.3057,0.10495 0.2537,0.0762 0.5594,0.10566 0.8146,0.12134 0.1869,0 0.39,-0.0157 0.5938,-0.0452 0.1869,-0.0308 0.3908,-0.0762 0.5945,-0.13684 0.3226,-0.10566 0.6445,-0.25764 0.9165,-0.37845 0.2032,-0.0901 0.3907,-0.18049 0.5426,-0.22672 0.1869,-0.0603 0.4421,-0.1503 0.5783,0.18138 0.135,0.31813 -0.1362,0.40847 -0.3057,0.46914 -0.1026,0.031 -0.2726,0.10565 -0.459,0.19724 -0.1356,0.0446 -0.2718,0.12098 -0.4244,0.18165 0.237,0.13497 0.5258,0.24232 0.8315,0.28695 0.6114,0.11965 1.2228,0.0743 1.4428,-0.0917 l 0.0345,-0.0142 c 0.0499,-0.0303 0.1188,-0.091 0.22,-0.15198 0.4413,-0.33168 1.1709,-0.8613 1.7655,-0.84598 h 0.3225 c 0.3051,0 0.5257,0 0.7296,-0.0153 0.1693,-0.16624 0.3907,-0.34754 0.5938,-0.51386 0.3564,-0.28731 0.7134,-0.57471 0.7134,-0.69551 0,-0.0314 -0.2713,-0.16633 -0.5096,-0.27199 -0.2206,-0.0914 -0.4238,-0.18138 -0.5594,-0.3184 -0.2213,-0.19715 -0.5777,-0.30219 -1.0191,-0.28695 -0.3887,0.0142 -0.8658,0.15082 -1.341,0.46914 -0.1525,0.0898 -0.4237,0.28722 -0.6451,0 -0.2207,-0.27252 0.0351,-0.46914 0.2038,-0.56072 0.5945,-0.39297 1.2054,-0.57409 1.7492,-0.60429 0.2363,0 0.4408,0.0165 0.6445,0.0454 v -0.0152 c -0.0681,-0.13514 -0.1356,-0.24089 -0.2213,-0.3012 -0.22,-0.1682 -0.44,-0.2425 -0.6789,-0.27386 -0.2545,-0.0138 -0.5257,0 -0.797,0.0314 -0.1877,0.0157 -0.3908,0.0293 -0.4245,-0.31831 -0.0344,-0.33239 0.1693,-0.34753 0.357,-0.3617 0.3219,-0.0312 0.6276,-0.0607 0.9664,-0.0312 0.0844,0.0159 0.1701,0.0312 0.255,0.0454 -0.0849,-0.18139 -0.1524,-0.34772 -0.2024,-0.52972 -0.1882,-0.52776 -0.3745,-1.13311 -0.5278,-1.72296 -0.0512,-0.227 -0.0843,-0.43832 -0.1356,-0.65088 -0.0337,0.16784 -0.1012,0.46923 -0.4758,0.40865 -0.3732,-0.0745 -0.3043,-0.36215 -0.2712,-0.52928 0.1869,-0.9225 0.0681,-1.92073 -0.3564,-2.78221 -0.3738,-0.75618 -0.9846,-1.39138 -1.8155,-1.70782 -0.17,-0.0764 -0.4413,-0.19724 -0.2881,-0.5144 0.1525,-0.30236 0.4232,-0.18111 0.5933,-0.1208 1.0353,0.40865 1.7823,1.16429 2.2236,2.07139 0.1533,0.33345 0.2713,0.66584 0.3564,1.02745 0.0169,-0.0605 0.0169,-0.12098 0.0337,-0.18032 0.0513,-0.45417 0.1356,-0.90754 0.2208,-1.26986 0.0512,-0.22779 0.1188,-0.39385 0.17,-0.54486 0.0681,-0.16633 0.1357,-0.31831 0.1357,-0.54495 0,-0.014 -0.1533,-0.014 -0.3396,-0.0452 -0.2037,-0.0447 -0.4413,-0.091 -0.6789,-0.1967 -0.967,-0.37729 -1.7984,-1.08848 -2.75,-1.93464 -0.1863,-0.16606 -0.3564,-0.31822 -0.5595,-0.49836 -0.2038,-0.16757 -0.4413,-0.51555 -0.7294,-1.0001 -0.2715,-0.46727 -0.5772,-1.07244 -0.8997,-1.76848 -0.2545,-0.543 -0.4582,-1.11904 -0.5609,-1.64662 -0.0844,-0.48455 -0.1005,-0.93792 0.0352,-1.34656 v -0.0152 c 0.4063,-1.14906 0.475,-2.13187 0.3219,-2.99318 -0.1526,-0.86255 -0.5601,-1.63351 -1.1034,-2.40493 -0.4413,-0.63466 -1.1202,-1.34585 -1.7994,-2.08671 -0.3889,-0.42192 -0.7975,-0.84597 -1.2048,-1.33097 -0.8989,-1.02701 -1.5105,-1.94916 -1.9344,-2.84235 -0.4421,-0.89053 -0.6965,-1.7537 -0.8995,-2.64485 -0.3229,-1.48269 -0.2715,-3.16128 -0.22,-4.85342 0.017,-0.51538 0.017,-1.02932 0.0329,-1.52786 -0.6959,-0.0601 -1.3414,-0.25782 -2.0366,-0.86148 -0.1356,-0.12081 -0.2887,-0.258 -0.4067,-0.39439 h -0.1192 c -0.17,0 -0.3565,-0.014 -0.5431,-0.0295 -1.3245,-0.13595 -2.6139,-0.74086 -3.5649,-1.81517 -0.39,-0.42201 -0.7122,-0.90665 -0.9668,-1.46514 0.0503,0.39261 0.136,0.77016 0.2374,1.11761 0.0685,0.19724 -0.1186,0.42388 -0.3738,0.42388 -0.1014,0 -0.2035,0 -0.3059,-0.0155 z"
       style="fill:#ffd500;fill-rule:evenodd;stroke-width:0.943864"
       id="path32" />
    <path
       d="m 96.5259,112.40725 c -0.0502,0.045 -0.1011,0.10584 -0.1531,0.1658 -0.3051,0.34753 -0.7459,0.83217 -1.5092,1.37623 0.0329,0 0.0678,-0.0143 0.1016,-0.0143 1.1545,-0.30299 2.3414,-0.42388 3.2068,-0.28749 0.1873,0.0295 0.4773,0.0446 0.4086,0.37693 -0.0679,0.34825 -0.3571,0.33319 -0.5437,0.30308 -0.7466,-0.12089 -1.8156,-0.0156 -2.8511,0.25728 -1.0017,0.27235 -1.952,0.68073 -2.6137,1.17899 -0.1535,0.1209 -0.3907,0.28687 -0.6451,0.0302 -0.2544,-0.25685 -0.0172,-0.43903 0.1356,-0.54415 0.4917,-0.37756 1.1205,-0.71119 1.8164,-0.96732 -1.7819,-1.01373 -2.9703,-1.58862 -4.2438,-2.19344 -0.2877,-0.1208 -0.5601,-0.25595 -0.9844,-0.45319 -0.2545,-0.13523 -0.5089,-0.22664 -0.7461,-0.33247 -0.6795,-0.27235 -1.2396,-0.51413 -1.9356,-1.19467 -0.594,-0.39315 -0.8319,-1.13383 -1.0862,-1.91967 -0.0843,-0.30299 -0.1865,-0.60607 -0.3043,-0.87716 -0.1366,-0.34825 -0.3059,-0.65052 -0.5615,-0.86166 -0.3225,-0.30308 -0.6954,-0.31858 -1.1199,-0.31858 -0.6108,0.15207 -0.3736,0.10699 -0.6789,0.71119 0.5439,0.015 1.1212,0.16597 1.5616,0.46905 0.4076,0.27109 0.6108,0.63484 0.6787,0.93783 0.0343,0.16597 0.0857,0.43715 -0.3059,0.49844 -0.3728,0.0757 -0.4059,-0.1959 -0.4581,-0.36312 -0.0322,-0.1665 -0.1515,-0.36321 -0.3729,-0.52972 -0.2035,-0.13532 -0.5088,-0.24116 -0.9167,-0.30183 -0.1687,-0.0306 -0.373,-0.0306 -0.593,-0.015 -0.4926,0.24169 -0.4588,0.31679 -0.4588,1.05872 1.2733,0.28677 1.765,0.87716 2.2057,1.40679 0.221,0.24053 0.8154,0.66388 0.4423,0.98121 -0.39,0.33319 -0.8488,-0.33185 -1.0527,-0.57417 -0.4077,-0.48339 -0.8658,-1.02808 -2.1726,-1.20955 -0.6112,-0.0151 -0.2711,1.01302 -0.2374,1.08937 0.2716,0.15029 0.3051,0.3168 0.6789,0.45337 0.3222,0.13577 0.7809,0.3168 1.5277,0.725 0.1699,0.0915 0.4402,0.22726 0.2378,0.51412 -0.2043,0.30299 -0.4752,0.16651 -0.6458,0.0764 -0.6952,-0.39332 -1.1363,-0.55911 -1.4256,-0.68063 -0.6445,0.21096 -0.5259,0.83092 -0.4409,1.1038 0.1522,0.40838 0.5088,0.95306 0.9676,1.48153 0.4922,0.57418 1.0854,1.13454 1.6291,1.54203 0.3223,0.24232 0.6273,0.34869 0.9339,0.34869 0.3392,0 0.6952,-0.1364 1.1539,-0.36303 0.3566,-0.18166 0.6954,-0.33319 0.9669,-0.39315 0.8838,-0.18103 0.8145,0.3625 0.866,0.87645 0.1364,-0.0756 0.3049,-0.21168 0.4916,-0.3625 0.4251,-0.33319 0.8661,-0.68063 1.3248,-0.6662 1.0523,0.0157 2.8682,1.25543 3.6655,1.79958 0.4746,0.31849 0.9161,0.63484 1.5778,0.96847 0.7132,0.37756 1.4262,0.69569 2.1051,0.92242 0.6621,0.22646 1.3076,0.36143 1.9348,0.39279 1.3919,0.0762 2.7326,-0.24197 4.4646,-0.66585 0.1349,-0.0452 0.2873,-0.0747 0.4408,-0.10583 0.0679,-0.0295 0.2708,0.0157 0.3388,0.0607 0.3399,0.24232 0.781,0.56072 1.2731,0.78718 0.4581,0.21069 0.9846,0.37702 1.4934,0.33239 0.6782,-0.0312 1.3256,-0.49854 1.7657,-1.13507 0.288,-0.3927 0.4917,-0.84598 0.6103,-1.29989 0.1534,-0.61925 0.1364,-0.96749 -0.1186,-1.54211 -0.2037,-0.42272 -0.373,-0.81658 -0.5102,-1.16474 -1.4577,-0.63528 -2.5453,-2.35851 -3.0034,-3.96085 -0.0505,0.83155 0,1.70746 0.153,2.22283 0.0857,0.25622 -0.2035,0.49908 -0.4922,0.42273 -1.5099,-0.46834 -2.2059,-0.98255 -2.5118,-1.63236 -0.2879,0.37818 -0.6108,0.52847 -0.8652,0.6343 -0.0844,0.0462 -0.1529,0.0764 -0.1701,0.0913 -0.1865,0.1665 -0.5257,0.10584 -0.6273,-0.10646 -0.1708,-0.37818 -0.2894,-0.74121 -0.3401,-1.10318 -0.3223,0.49836 -0.7296,0.9373 -1.2727,1.20964 -0.1701,0.0902 -0.4416,0.0295 -0.5437,-0.13648 -0.0844,-0.15029 -0.1529,-0.30237 -0.203,-0.46896 -0.3399,0.3788 -0.7468,0.65043 -1.3069,0.86281 -0.0343,0.0295 -0.0678,0.0445 -0.1362,0.0752 z"
       style="fill:#ffd500;fill-rule:evenodd;stroke-width:0.943864"
       id="path33" />
    <path
       d="m 98.3084,107.40247 c -0.8318,-0.84696 -1.6639,-1.84501 -2.3586,-2.78186 -0.8497,-1.10505 -1.5277,-2.14747 -1.7991,-2.75238 l -0.0173,-0.0756 c -0.1186,-0.87787 0.2373,-1.14897 0.7631,-1.55788 0.0857,-0.06 0.1701,-0.13577 0.2551,-0.21025 0.2037,-0.16722 0.3565,-0.348246 0.4753,-0.544864 0.3729,-0.544684 0.4578,-1.225227 0.3564,-1.875747 -0.1192,-0.66433 -0.4579,-1.315028 -0.9676,-1.798865 -0.2035,-0.196617 -0.4421,-0.362588 -0.7122,-0.498982 -0.2209,-0.120982 -0.4754,-0.196706 -0.7646,-0.256841 -0.0844,0 -0.3394,-0.04561 -0.2873,0.180493 0.7961,0.363657 1.4927,0.953508 1.815,1.754409 0.2544,0.666646 0.2372,1.451778 -0.203,2.35914 -0.0857,0.16704 -0.1536,0.317331 -0.5102,0.180848 -0.3558,-0.135146 -0.2708,-0.301652 -0.2027,-0.45319 0.3728,-0.740856 0.39,-1.361176 0.1863,-1.860158 -0.2378,-0.619339 -0.8151,-1.072708 -1.4426,-1.359483 -0.4245,-0.198398 -0.8318,-0.318578 -1.2391,-0.34869 -0.4585,-0.04499 -0.6452,0.09078 -0.7302,0.469494 H 90.96 c 0.8641,0.165971 1.6121,0.543526 2.0702,1.26986 0.3731,0.589139 0.5431,1.405631 0.3901,2.49384 -0.0343,0.182185 -0.0501,0.348686 -0.441,0.303706 -0.3736,-0.04633 -0.3571,-0.21239 -0.3221,-0.378896 0.135,-0.937295 0,-1.617125 -0.2895,-2.086173 -0.3387,-0.529629 -0.9165,-0.800812 -1.5778,-0.922329 -0.4243,-0.09069 -0.7979,-0.06067 -1.2394,-0.03065 -0.1867,0.01514 -0.2881,0.560364 -0.2703,0.710655 0.6951,0.24232 1.2377,0.635019 1.6449,1.11948 0.7138,0.845891 1.0354,1.920383 1.2733,2.811893 0.0507,0.16668 0.085,0.34753 -0.2886,0.42388 -0.3731,0.0751 -0.4245,-0.0914 -0.4586,-0.27235 -0.2202,-0.8164 -0.5261,-1.799399 -1.1533,-2.540255 -0.374,-0.453814 -0.8991,-0.817026 -1.6121,-0.982819 -0.2382,-0.04579 -0.9517,0.393146 -0.9684,0.649363 0.0167,0.151984 0.0509,0.287843 0.0681,0.439293 0.0844,0.453368 0.203,0.922417 0.3901,1.345058 0.2887,0.66548 0.6789,1.25605 1.1376,1.72438 0.4244,0.42317 0.899,0.725 1.3575,0.8458 0.3574,0.0913 0.3574,0.5748 0.0172,0.66683 -0.1528,0.0445 -0.2544,0.10575 -0.3223,0.19537 -0.0849,0.0913 -0.1186,0.16597 -0.1029,0.21212 0,0.0152 0.0857,0.0302 0.1873,0.0602 0.1193,0.0456 0.2722,0.0908 0.4243,0.18165 0.7131,0.37818 0.781,0.56019 0.9498,0.96785 0.069,0.16651 0.1534,0.36321 0.3235,0.64999 0.4415,0.72571 0.9503,1.85953 1.4414,3.08423 0.5272,1.37685 1.0367,2.85821 1.3932,4.02285 0.3559,-0.30299 0.5938,-0.57533 0.7804,-0.787 0.0677,-0.0609 0.1186,-0.12027 0.1528,-0.18165 0.0165,-0.03 0.0165,-0.045 0.0344,-0.0752 0.0171,-1.07315 0.2543,-1.90515 0.6947,-2.64529 0.3906,-0.6662 0.9345,-1.24091 1.6639,-1.84528 z"
       style="fill:#ffd500;fill-rule:evenodd;stroke-width:0.943864"
       id="path34" />
    <path
       d="m 112.2599,89.394667 c 0.1864,-0.333011 0.4745,-0.483392 0.7631,-0.544684 0.2717,-0.0457 0.5095,-0.03073 0.679,0 0.3571,0.06129 0.6959,0.286774 0.9674,0.588604 0.2372,0.288022 0.4249,0.666735 0.475,1.028699 0.0851,0.529718 0,0.968565 -0.22,1.301042 -0.0857,0.120803 -0.1701,0.226639 -0.2721,0.318044 0.3914,-0.227175 0.6287,-0.499517 0.7289,-0.80206 0.1033,-0.287308 0.0857,-0.619874 0,-0.95235 -0.1002,-0.347978 -0.2869,-0.69551 -0.5425,-0.982997 -0.4746,-0.574707 -1.1367,-0.998053 -1.7313,-0.982997 -0.2711,0.01515 -0.5253,0.18165 -0.7461,0.438313 -0.2716,0.302543 -0.4916,0.694975 -0.6959,1.088833 -0.0513,0.07519 -0.238,0.195994 -0.34,0.195994 -0.5255,0.03065 -1.1028,0.105836 -1.5778,0.166505 -0.1523,0.01568 -0.2887,0.03136 -0.4917,0.0457 -0.8153,0.106461 -1.4104,0.22664 -1.8676,0.423347 -0.4417,0.196439 -0.7803,0.48446 -1.1193,0.892127 -0.017,0.01452 -0.1026,0.07519 -0.1198,0.09087 -0.4415,0.242319 -1.0175,0.438847 -1.5778,0.589139 -0.7302,0.19724 -1.4432,0.302988 -1.8162,0.302988 -0.5259,0 -0.7304,0.02949 -0.7803,0.09016 -0.0173,0.04517 0.0162,0.242408 0.0671,0.469048 v 0.04499 c 0.0172,0.393858 -0.0509,0.726334 -0.1356,1.0589 -0.1016,0.378624 -0.186,0.771323 -0.0844,1.269771 0.1529,0.680543 0.5087,0.862728 0.7302,0.969099 0.203,0.105302 0.3558,0.180492 0.4073,0.406419 0.0335,0.197241 0.0843,0.393859 0.203,0.574885 0.017,-0.0457 0.0514,-0.105836 0.0677,-0.165971 0.1356,-0.256662 0.2714,-0.543525 0.5094,-0.665042 0.4752,-0.272342 1.0011,-0.272342 1.5606,-0.212207 0.4417,0.0457 1.1205,0.438847 1.5964,0.892216 0.4588,0.423881 0.7631,0.922328 0.696,1.346209 -0.0844,0.4376 -0.5269,0.905936 -1.069,1.239659 -0.5272,0.3168 -1.1555,0.52918 -1.6467,0.43831 -0.6112,-0.10512 -1.1208,-1.148965 -1.4087,-1.557166 -0.0852,0.135859 -0.1699,0.302365 -0.2044,0.453369 -0.0164,0.03118 -0.1013,0.15145 -0.1356,0.181472 -0.0844,0.06085 -0.1867,0.121516 -0.2887,0.196707 -0.2873,0.196439 -0.6446,0.423168 -0.6446,0.529008 0,0.16597 0.0843,0.34815 0.17,0.52847 0.1192,0.24285 0.2378,0.49898 0.2378,0.80197 0,0.0151 -0.0176,0.10583 -0.0176,0.12089 -0.0329,0.10646 -0.0681,0.22664 -0.0681,0.36312 -0.017,0.19724 0,0.39323 0.0857,0.54468 0.0681,0.13533 0.1687,0.2417 0.3223,0.28758 0.0507,0.015 0.1188,0.0293 0.1866,0.0293 0.5436,0.0307 0.8488,-0.10521 1.1032,-0.21105 0.2366,-0.0906 0.4253,-0.18218 0.6954,-0.15145 0.2716,0.015 0.3743,0.13577 0.5444,0.30183 0.0672,0.0607 0.1515,0.13702 0.2707,0.22664 0.4239,-0.1208 0.8654,-0.21051 1.3577,-0.30112 0.6622,-0.12089 1.3404,-0.43902 1.9357,-0.87725 0.6275,-0.46833 1.1696,-1.07386 1.5264,-1.70933 0.2891,-0.543967 0.4578,-1.088206 0.4758,-1.633514 0.0501,-0.602947 -0.018,-1.178366 -0.1867,-1.678061 -0.0513,-0.165793 -0.1534,-0.392433 0.1867,-0.482768 0.373,-0.106371 0.4744,0.105837 0.5251,0.271808 0.2215,0.590386 0.3237,1.254715 0.2552,1.949869 -0.0515,0.605976 -0.2372,1.255339 -0.5768,1.875656 -0.3902,0.71137 -1.0018,1.40634 -1.7148,1.93419 -0.6795,0.5152 -1.4755,0.89222 -2.2908,1.02932 -0.493,0.0902 -0.9498,0.19653 -1.3921,0.31689 -0.0672,0.0461 -0.1362,0.0607 -0.1863,0.0461 -1.0003,0.30183 -1.8664,0.69453 -2.6989,1.16402 -1.2211,0.69622 -2.3256,1.57169 -3.6148,2.60084 0.0344,-0.015 0.1029,-0.015 0.1701,0 0.356,0.12035 0.2706,0.31688 0.2035,0.48357 -0.1529,0.33301 -0.2707,0.63412 -0.3906,0.90834 -0.2202,0.5135 -0.4073,0.96678 -0.594,1.3593 -0.0664,0.24232 -0.102,0.45399 -0.0844,0.6507 0.018,0.1208 0.0329,0.22646 0.0681,0.3323 0.7465,-0.60411 1.1361,-1.72296 1.4418,-2.60012 0.0844,-0.24241 0.1701,-0.46905 0.255,-0.66692 0.0838,-0.21033 0.3054,-0.28615 0.4917,-0.2253 0.1701,0.045 0.3059,0.25666 0.2215,0.45319 -0.0679,0.19662 -0.1536,0.40883 -0.2391,0.64927 -0.0329,0.10655 -0.0668,0.22789 -0.1182,0.33373 -0.0163,0.24178 -0.0505,0.51466 -0.0505,0.81765 -0.0173,0.40704 0.0342,0.86103 0.1863,1.3144 0.3223,-0.16606 0.7474,-0.48473 0.9169,-1.60287 0,-0.16606 0.0172,-0.34753 0.0335,-0.52918 0.0166,-0.2115 0.0342,-0.45382 0.0342,-0.66487 0.017,-0.16668 0.1867,-0.28802 0.3568,-0.30298 0.2028,0 0.4243,0.1363 0.4243,0.31804 v 0.0157 c 0,0.45328 -0.0342,0.8458 -0.0685,1.17756 -0.0501,1.07512 0.0857,1.80021 1.544,2.37438 -0.0836,-0.58985 -0.1006,-1.33044 -0.0329,-2.01045 0.0679,-0.83155 0.2714,-1.60234 0.6445,-1.98105 0.1186,-0.1208 0.3401,-0.18103 0.4924,-0.1208 0.1528,0.06 0.203,0.2416 0.1863,0.39314 -0.2542,1.7537 1.087,4.99009 3.1565,5.42911 -0.1525,-0.71137 -0.2372,-1.51271 -0.2531,-2.2998 0,-0.98229 0.1178,-1.97981 0.3558,-2.82748 0.0507,-0.16535 0.2707,-0.28686 0.4408,-0.25613 0.1865,0.0295 0.3395,0.21168 0.3225,0.37747 -0.0501,0.40829 -0.0673,0.80081 -0.0673,1.1797 0,1.76884 0.5595,3.11487 1.4083,4.05288 0.8146,0.92162 1.935,1.45134 3.0547,1.55646 -0.4243,-0.58985 -0.7631,-1.26977 -1.0175,-1.99548 -0.51,-1.40617 -0.7474,-2.93385 -0.6795,-4.14304 0,-0.16588 0,-0.42388 0.39,-0.4082 0.3901,0.0145 0.3901,0.27234 0.3738,0.43769 -0.0509,1.13516 0.1701,2.58649 0.6445,3.90089 0.4245,1.12002 1.0191,2.148 1.8164,2.82873 0.6789,0.58913 1.341,0.68045 2.138,0.69497 -0.593,-0.78584 -1.0175,-1.57222 -1.2892,-2.35869 -0.3229,-0.983 -0.4415,-1.9954 -0.4073,-3.11434 0.0345,-0.77186 0.1866,-1.52777 0.4408,-2.26845 0.0681,-0.15082 0.1525,-0.39243 0.5268,-0.28731 0.3731,0.10584 0.2715,0.33248 0.22,0.49898 -0.2379,0.66558 -0.39,1.3757 -0.4072,2.07192 -0.0171,0.25613 -0.0171,0.49899 0,0.72563 0.0342,-0.0764 0.1191,-0.12081 0.3231,-0.1372 0.39,-0.0293 0.4063,0.1372 0.4243,0.31822 0.2707,2.7824 2.3423,3.7654 3.2919,3.87052 -0.2709,-0.529 -0.4922,-1.14834 -0.6623,-1.79878 -0.2196,-0.81702 -0.3388,-1.67859 -0.3388,-2.41927 0,-0.58976 0.0335,-1.18033 0.1192,-1.73882 0.0681,-0.55965 0.1867,-1.05872 0.3388,-1.4369 0.0679,-0.15145 0.17,-0.4678 0.5264,-0.34691 0.3733,0.10584 0.2717,0.42264 0.2038,0.57364 -0.1359,0.33301 -0.2378,0.787 -0.3059,1.28598 -0.0677,0.48268 -0.1184,1.02808 -0.102,1.54203 0.0343,-0.27163 0.102,-0.52963 0.1863,-0.81631 0.0695,-0.27181 0.1538,-0.57489 0.2045,-0.92233 0.0337,-0.18156 0.1014,-0.48455 0.4752,-0.43885 0.3907,0.0607 0.3233,0.36312 0.2889,0.529 -0.0499,0.39386 -0.136,0.71137 -0.2204,0.99797 -0.1871,0.66566 -0.2556,1.24037 -0.0855,1.92109 0.102,0.39243 0.8484,1.28465 0.3734,1.54203 -0.3221,0.18093 -0.475,-0.0608 -0.5773,-0.21221 -0.2543,-0.34753 -0.4243,-0.71066 -0.5253,-1.07253 0.0331,0.21105 0.0843,0.42272 0.136,0.63484 0,0 0,0.0138 0.0162,0.0138 0.3226,0.57533 0.6447,0.89284 0.9504,1.05872 0.1357,0.0764 0.2713,0.12152 0.4075,0.15145 -0.2718,-0.84643 -0.4245,-2.08546 -0.3906,-3.37154 0.0344,-1.28482 0.2888,-2.63148 0.8489,-3.65848 0.0858,-0.13702 0.3218,-0.31805 0.4758,-0.28803 0.1687,0.0302 0.2705,0.27181 0.2705,0.43832 0,0.25737 -0.0337,0.57488 -0.0844,0.96803 0.2715,-0.64999 0.374,-1.30051 0.5097,-1.96555 0.22,-1.05801 0.44,-2.11682 0.2712,-3.00966 -0.0336,-0.10521 -0.0336,-0.2417 0.0337,-0.31689 0.1351,-0.15198 0.4584,-0.0601 0.7633,-0.0601 0.1701,0 0.3401,-0.0457 0.4584,-0.18147 -0.7465,-0.25738 -1.2554,-0.65052 -1.5955,-1.11957 -0.3901,-0.52847 -0.5425,-1.13311 -0.5764,-1.75432 -0.0174,-0.36188 -0.0344,-0.70932 -0.0849,-1.073156 -0.1012,0.09016 -0.2208,0.181646 -0.3396,0.272346 -0.3738,0.25728 -0.7646,0.46833 -1.1889,0.66566 -0.3222,0.15083 -0.6952,-0.19733 -0.5253,-0.46905 0.0507,-0.0901 0.1016,-0.21096 0.153,-0.33176 -0.0342,0.015 -0.0514,0.0445 -0.0687,0.06 -0.6102,0.49899 -1.3913,0.63502 -2.2058,0.68001 -0.2887,0.0157 -0.5093,-0.25666 -0.3731,-0.49835 0.0674,-0.12081 0.1186,-0.24161 0.1867,-0.378806 -0.6282,0.650516 -1.4776,1.224606 -2.4781,1.527676 -0.3057,0.0902 -0.611,-0.19724 -0.4752,-0.45452 0.1351,-0.28615 0.238,-0.57417 0.3052,-0.89151 -0.5768,0.65052 -1.3575,1.16447 -2.1558,1.42114 -0.2887,0.0752 -0.5946,-0.18032 -0.4922,-0.43814 0.255,-0.66566 0.4245,-1.316185 0.4078,-1.965992 -0.0342,-0.634396 -0.2207,-1.284828 -0.7131,-1.980516 -0.1014,-0.136572 -0.2715,-0.348066 0.0508,-0.529717 0.3222,-0.180314 0.4923,0.01568 0.5946,0.166506 0.5766,0.800812 0.8146,1.572314 0.8308,2.328671 0.0172,0.484549 -0.0505,0.953598 -0.1863,1.436898 0.3902,-0.22735 0.7644,-0.530339 1.069,-0.877158 0.4587,-0.514751 0.7644,-1.103355 0.7816,-1.693029 0.0163,-0.166683 0.203,-0.333723 0.3893,-0.333723 0.1873,0 0.3736,0.152073 0.3911,0.333723 0.0342,0.558938 0,1.163846 -0.0852,1.753163 -0.0514,0.257375 -0.1016,0.515194 -0.1865,0.756354 0.5603,-0.28748 1.052,-0.665039 1.4254,-1.073151 0.5769,-0.61934 0.8826,-1.26986 0.7813,-1.739443 -0.0343,-0.165971 0.0843,-0.347443 0.2542,-0.377644 0.1865,-0.04615 0.4245,0.0302 0.4922,0.196706 0.1701,0.392522 0.1867,0.891504 0.1024,1.435653 -0.0685,0.363212 -0.1701,0.741391 -0.3402,1.119569 0.4245,-0.06067 0.7976,-0.196706 1.1033,-0.438847 0.4244,-0.347533 0.7303,-0.997519 0.7632,-2.132589 -0.1687,-0.135324 -0.3558,-0.271095 -0.5255,-0.422099 -0.3564,-0.303077 -0.6621,-0.635554 -0.8321,-0.998053 -0.101,-0.212207 -0.1687,-0.378178 -0.2202,-0.529717 -0.1023,-0.241606 -0.1867,-0.45328 -0.3231,-0.650431 -0.2542,-0.362054 -0.6101,-0.755912 -1.0181,-1.087676 -0.3388,-0.288021 -0.7124,-0.529717 -1.069,-0.680543 -0.3564,-0.136483 -0.6789,-0.393858 -0.9498,-0.681167 -0.1364,-0.151004 -0.2556,-0.301295 -0.357,-0.469048 -0.2881,0.423881 -0.764,0.787003 -1.4929,1.028699 -0.17,0.0457 -0.3564,0.105837 -0.4924,-0.212208 -0.0513,-0.105836 -0.0513,-0.180937 -0.0348,-0.241072 -0.0335,0 -0.0677,0.01443 -0.1008,0.01443 -0.1879,0.0457 -0.3742,0.09131 -0.4758,-0.241162 -0.1014,-0.333011 0.0849,-0.378178 0.2717,-0.423791 0.3049,-0.06022 0.5264,-0.212208 0.6621,-0.407667 0.1524,-0.226729 0.2029,-0.51475 0.1352,-0.862194 -0.0342,-0.257909 -0.1695,-0.514037 -0.3388,-0.710565 -0.1536,-0.181651 -0.3229,-0.302454 -0.4752,-0.332477 -0.1021,-0.01568 -0.2378,-0.03136 -0.3736,-0.01568 -0.0857,0.03002 -0.1701,0.07635 -0.238,0.181561 -0.0843,0.150915 -0.1693,0.317421 -0.5088,0.150915 -0.3566,-0.150915 -0.2723,-0.302454 -0.1864,-0.452745 z"
       style="fill:#ffd500;fill-rule:evenodd;stroke-width:0.943864"
       id="path35" />
    <path
       d="m 105.6738,92.539651 c -0.1863,-0.151984 -0.152,-0.453279 0.0857,-0.55965 0.0167,0 0,0 0.0337,-0.01497 0.2032,-0.136572 0.6962,-0.43956 1.324,-0.589852 0.203,-0.06067 0.3738,-0.09087 0.5598,-0.09087 0.187,0 0.3734,0.04517 0.5936,0.120804 0.2209,0.07519 0.4252,0.181739 0.611,0.302543 0.2716,0.151538 0.493,0.331852 0.5437,0.408201 0.0336,0.04508 0.0679,0.211673 0.0679,0.257286 -0.0679,0.316797 -0.356,0.361964 -0.7639,0.422633 -0.2378,0.03074 -0.5431,0.07635 -0.8318,0.197241 -1.2725,0.589852 -1.5267,0.286774 -1.9512,-0.181561 -0.0687,-0.07635 -0.1531,-0.182185 -0.2725,-0.271808 z"
       style="fill:#000000;fill-rule:evenodd;stroke-width:0.943864"
       id="path36" />
    <path
       d="m 106.5236,92.357466 c 0.0157,0.01568 0.0335,0.01568 0.0335,0.0302 0.1687,0.196439 0.2881,0.317955 0.984,0 0.255,-0.120358 0.5093,-0.181027 0.7295,-0.211673 -0.102,-0.06013 -0.203,-0.105836 -0.2879,-0.136483 C 107.864,91.99497 107.7611,91.98 107.677,91.98 c -0.1183,0 -0.221,0.01497 -0.3568,0.04499 -0.305,0.07519 -0.5944,0.211673 -0.7966,0.332476 z"
       style="fill:#ffd500;fill-rule:evenodd;stroke-width:0.943864"
       id="path37" />
    <path
       d="m 107.1172,94.06564 c 1.2557,0.589851 2.0536,1.558416 2.4102,2.602082 0.2366,0.724998 0.2709,1.480821 0.1016,2.176509 -0.1871,0.711189 -0.5601,1.375519 -1.1547,1.905149 -0.7797,0.69506 -1.9002,1.14834 -3.3606,1.14834 -0.1863,0 -0.3895,0 -0.3895,-0.34682 0,-0.33319 0.2032,-0.33319 0.3895,-0.33319 1.2395,-0.0142 2.173,-0.37818 2.8181,-0.95163 0.4753,-0.423796 0.7975,-0.968658 0.9333,-1.559045 0.1536,-0.602947 0.1186,-1.238501 -0.0859,-1.843854 -0.2877,-0.877339 -0.9666,-1.693652 -2.0184,-2.176509 -0.1701,-0.07635 -0.3401,-0.165971 -0.1701,-0.468959 0.1858,-0.302365 0.3559,-0.226729 0.5265,-0.152073 z"
       style="fill:#000000;fill-rule:evenodd;stroke-width:0.943864"
       id="path38" />
    <path
       d="m 112.65,103.34977 c -0.0513,0.48455 -0.0851,1.16456 0.0844,1.81508 0.1191,0.40811 0.3051,0.80081 0.6288,1.13257 -0.018,-0.45257 0.0162,-0.89097 0.0843,-1.29908 0.1014,-0.72687 0.3057,-1.37623 0.5774,-1.93606 0.0669,-0.15029 0.1348,-0.3168 0.4916,-0.18147 0.3734,0.13702 0.2887,0.28731 0.2206,0.45515 -0.2372,0.49836 -0.4249,1.0875 -0.5259,1.75254 -0.0849,0.58985 -0.1014,1.24028 -0.0335,1.95147 0.0335,0.2719 -0.3059,0.46834 -0.5781,0.33257 -0.9331,-0.48455 -1.3911,-1.25472 -1.6121,-2.04172 -0.2033,-0.75636 -0.1691,-1.52724 -0.1014,-2.05687 0.0171,-0.16588 0.0513,-0.34682 0.424,-0.30183 0.3906,0.0457 0.3743,0.21168 0.3399,0.37765 z"
       style="fill:#000000;fill-rule:evenodd;stroke-width:0.943864"
       id="path39" />
    <path
       d="m 116.8429,102.39795 c -0.035,0.16651 -0.0685,0.34753 -0.0864,0.52918 -0.0672,0.75636 0.0864,1.60216 0.4757,2.28217 0.3059,0.54469 0.7471,0.983 1.3749,1.22532 -0.1693,-0.40883 -0.2552,-0.86166 -0.2552,-1.31494 -0.0168,-0.87725 0.2718,-1.78372 0.6625,-2.41919 0.0851,-0.15225 0.1867,-0.30254 0.5259,-0.13603 0.3395,0.16597 0.2372,0.31635 0.1528,0.46851 -0.3399,0.54397 -0.5764,1.31485 -0.5764,2.08671 0.0163,0.58985 0.1688,1.17774 0.5764,1.60162 0.1024,0.12152 0.1701,0.258 0.1024,0.37952 -0.1701,0.27172 -0.6288,0.18031 -0.899,0.1347 -1.1212,-0.21123 -1.8848,-0.87672 -2.3602,-1.70817 -0.4586,-0.81587 -0.6279,-1.7839 -0.5429,-2.66106 0.0164,-0.19716 0.0508,-0.39315 0.1021,-0.60482 0.0335,-0.16588 0.0674,-0.33239 0.4574,-0.27234 0.3744,0.0751 0.3402,0.24178 0.29,0.40882 z"
       style="fill:#000000;fill-rule:evenodd;stroke-width:0.943864"
       id="path40" />
    <path
       d="m 107.2867,108.626 c -0.0679,0.34887 -0.0851,0.75698 -0.0515,1.18033 0.0343,0.48455 0.1364,0.98291 0.3574,1.3912 0.0844,0.15154 0.1685,0.3168 -0.1873,0.45337 -0.3558,0.15145 -0.4409,0 -0.5087,-0.16651 -0.2716,-0.49916 -0.3902,-1.07333 -0.4417,-1.63236 -0.0512,-0.6964 0.0345,-1.37614 0.1701,-1.83022 v -0.015 c -0.2213,-0.28686 -0.356,-0.60437 -0.4586,-0.9217 -0.2201,-0.77204 -0.0681,-1.57285 0.1699,-2.22337 0.0674,-0.16597 0.1873,-0.42379 0.5603,-0.30183 0.3729,0.10655 0.2373,0.3625 0.1691,0.52856 -0.2048,0.54468 -0.3221,1.20892 -0.1362,1.83067 0.0515,0.21051 0.1535,0.42263 0.2893,0.61934 0,-0.30299 0.0337,-0.57489 0.0851,-0.83271 0.12,-0.49782 0.3222,-0.90736 0.5774,-1.26986 0.1014,-0.13577 0.2873,-0.3625 0.6102,-0.18094 0.3229,0.18094 0.1529,0.40883 0.0513,0.54344 -0.22,0.3037 -0.3908,0.63618 -0.4752,1.04438 -0.102,0.42388 -0.102,0.92233 0.0166,1.5879 0.0513,0.28731 -0.339,0.51395 -0.6112,0.33248 -0.0677,-0.0452 -0.1348,-0.0909 -0.1863,-0.1372 z"
       style="fill:#000000;fill-rule:evenodd;stroke-width:0.943864"
       id="path41" />
    <path
       d="m 111.6998,109.89774 c 0,0.0901 -0.018,0.21096 -0.0344,0.34681 -0.0513,0.8165 -0.1701,2.63149 0.7294,3.32655 0.153,0.10584 0.3059,0.22664 0.0515,0.48464 -0.2545,0.25613 -0.3907,0.15083 -0.5431,0.0295 -1.188,-0.92162 -1.0524,-2.96351 -0.9847,-3.8707 0,-0.15029 0.018,-0.27234 0.018,-0.31679 0,-0.18219 0.0163,-0.43903 0.3723,-0.43903 0.391,0 0.391,0.25684 0.391,0.43903 z"
       style="fill:#000000;fill-rule:evenodd;stroke-width:0.943864"
       id="path42" />
    <path
       d="m 114.0591,110.81989 c -0.0516,0.6645 0,1.22344 0.1186,1.73881 0.1186,0.51404 0.3222,1.0124 0.5594,1.55726 0.0681,0.16651 0.1364,0.31733 -0.2206,0.45328 -0.3568,0.12205 -0.4247,-0.0458 -0.509,-0.19661 -0.2378,-0.57489 -0.4408,-1.10389 -0.5766,-1.67878 -0.1362,-0.58967 -0.1877,-1.19324 -0.1534,-1.90461 0.0172,-0.16588 0.0172,-0.42388 0.4078,-0.40874 0.3901,0.0162 0.3738,0.27288 0.3738,0.43939 z"
       style="fill:#000000;fill-rule:evenodd;stroke-width:0.943864"
       id="path43" />
    <path
       d="m 118.6922,110.18433 c -0.1528,0.8009 -0.0342,1.69321 0.1521,2.48021 0.0343,0.18085 0.1024,0.45337 -0.2707,0.51404 -0.3904,0.0752 -0.4415,-0.19715 -0.4759,-0.37889 -0.22,-0.89151 -0.3386,-1.8288 -0.1699,-2.73545 0.0346,-0.1665 0.102,-0.50023 0.4758,-0.43885 0.3902,0.0607 0.3229,0.37863 0.2886,0.55894 z"
       style="fill:#000000;fill-rule:evenodd;stroke-width:0.943864"
       id="path44" />
    <path
       d="m 110.7487,121.81219 c -0.1866,0.27198 -0.5261,0.60366 -0.899,0.86148 -0.3401,0.21131 -0.7125,0.3927 -1.0867,0.43804 -0.203,0.0151 -0.4745,0.0465 -0.5259,-0.30138 -0.0509,-0.34762 0.2207,-0.3633 0.4245,-0.39448 0.22,-0.0142 0.4916,-0.13515 0.7302,-0.30112 0.3049,-0.19653 0.5601,-0.45337 0.6959,-0.65052 0.1006,-0.15225 0.2545,-0.3927 0.5931,-0.21257 0.3221,0.18201 0.17,0.40972 0.0679,0.56055 z"
       style="fill:#000000;fill-rule:evenodd;stroke-width:0.943864"
       id="path45" />
    <path
       d="m 110.2063,120.45083 c -0.2722,0.40785 -0.6967,0.7715 -1.1374,1.02906 -0.4582,0.27198 -0.9504,0.42227 -1.4092,0.42227 -0.2037,0 -0.4581,0.016 -0.4581,-0.33229 0,-0.34754 0.2544,-0.36286 0.4581,-0.36286 0.3059,0 0.6631,-0.10566 0.9847,-0.30254 0.3564,-0.19617 0.6789,-0.49898 0.9161,-0.81721 0.1027,-0.15029 0.2544,-0.36178 0.5773,-0.19546 0.3392,0.18139 0.1864,0.40821 0.0685,0.55903 z"
       style="fill:#000000;fill-rule:evenodd;stroke-width:0.943864"
       id="path46" />
    <path
       d="m 95.0507,116.98843 c 0.7796,0.0602 1.8151,0.13657 3.0369,0.12089 1.2391,-0.0156 2.6995,-0.12089 4.3617,-0.43938 0.1863,-0.029 0.3736,-0.059 0.4587,0.2735 0.0677,0.33185 -0.1186,0.36187 -0.3053,0.4082 -1.7148,0.3168 -3.2259,0.43831 -4.4979,0.45328 -1.2899,0.0157 -2.3237,-0.0601 -3.1226,-0.1208 -0.1857,-0.0157 -0.3908,-0.03 -0.3565,-0.37881 0.0336,-0.34619 0.2379,-0.33185 0.425,-0.31688 z"
       style="fill:#000000;fill-rule:evenodd;stroke-width:0.943864"
       id="path47" />
  </g>
</svg>
