<?xml version="1.0" encoding="UTF-8" standalone="no"?>
<svg
   version="1.1"
   width="1.9871722in"
   height="1.9894295in"
   viewBox="0 0 143.0764 143.23892"
   id="svg19"
   sodipodi:docname="tuna_luso-pa.cdr"
   xmlns:inkscape="http://www.inkscape.org/namespaces/inkscape"
   xmlns:sodipodi="http://sodipodi.sourceforge.net/DTD/sodipodi-0.dtd"
   xmlns="http://www.w3.org/2000/svg"
   xmlns:svg="http://www.w3.org/2000/svg">
  <defs
     id="defs19" />
  <sodipodi:namedview
     id="namedview19"
     pagecolor="#ffffff"
     bordercolor="#000000"
     borderopacity="0.25"
     inkscape:showpageshadow="2"
     inkscape:pageopacity="0.0"
     inkscape:pagecheckerboard="0"
     inkscape:deskcolor="#d1d1d1"
     inkscape:document-units="in" />
  <g
     id="Layer1003"
     transform="matrix(1,0,0,0.90121212,-36.4618,-25.71149)">
    <path
       d="m 112.405,187.3117 c 18.5869,-2.0842 33.3276,-17.6266 34.6095,-36.2115 0.1611,0 0.1611,0 0.3195,0 17.7852,0 32.2042,-14.7383 32.2042,-32.2041 0,-14.7404 -10.0921,-27.5576 -23.7135,-31.0825 1.6036,-3.3641 2.5643,-7.3713 2.5643,-11.2157 0,-13.9408 -11.3745,-25.3151 -25.1544,-25.3151 -0.3196,0 -0.4801,0 -0.6412,0 -0.7997,-11.3765 -9.614,-20.9883 -20.9881,-22.5921 -1.2824,-0.1608 -2.7254,-0.1608 -3.8467,-0.1608 -12.8171,0 -23.3917,10.2551 -24.1915,22.7529 0,0 -0.4824,0 -0.6432,0 -13.7778,0 -24.9935,11.3743 -24.9935,24.9957 0,4.1638 0.8019,8.171 2.5622,11.5351 -13.617,3.5249 -24.0308,16.1813 -24.0308,31.0825 0,17.4658 14.5775,32.2041 32.2018,32.2041 0.1608,0 0.1608,0 0.4825,0 1.1213,20.0278 18.1045,36.37 38.6125,36.37 1.6041,0 3.0447,-0.1585 4.6464,-0.1585 z"
       style="fill:#009035;fill-rule:evenodd"
       id="path10" />
    <path
       d="m 129.0688,171.4497 c 5.7673,-5.6088 8.812,-11.2155 10.4138,-19.0673 l 0.9626,-8.812 c 3.6833,0 7.5301,0 11.2157,-0.4804 19.0671,-5.1287 26.4364,-25.7954 13.4583,-41.1769 -5.7699,-5.7676 -11.055,-7.0498 -19.0673,-9.4533 3.3664,-8.1711 6.5693,-13.6192 3.3664,-22.4313 -4.6465,-10.0943 -12.9782,-10.8962 -23.2334,-10.8962 -0.3196,-3.6857 -0.4801,-7.2105 -1.6015,-10.5746 -5.6091,-16.0206 -26.2779,-15.5403 -32.8451,-0.4803 -1.1214,3.2054 -1.4431,7.3692 -1.7647,10.7354 -8.9708,0 -15.5403,0.3195 -21.4686,8.0124 -5.9284,9.2925 -2.5644,16.1814 2.4035,25.4738 -8.973,2.5643 -15.223,3.8465 -20.9906,11.057 -7.5299,9.2924 -6.8889,21.788 0.4825,30.922 5.2851,6.4085 11.2135,8.812 19.226,9.2924 h 6.0869 c 0.9628,8.812 1.7646,15.3813 6.5717,22.7507 12.1762,15.3816 31.8846,17.3049 46.7838,5.1286 z"
       style="fill:#ffffff;fill-rule:evenodd"
       id="path11" />
    <path
       d="M 120.7366,73.0731 H 99.2661 v -4.3268 h 2.5643 c 0.3216,0 0.6411,-0.1608 0.8019,-0.4802 0.3194,-0.1609 0.4802,-0.8019 0.4802,-1.2822 v -3.8443 c 0,-1.443 -0.641,-2.4035 -1.443,-2.886 0.3217,-0.3194 0.802,-0.6389 0.9628,-1.1213 0.3194,-0.4803 0.4802,-1.1213 0.4802,-1.7603 v -3.2054 c 0,-0.8019 0,-1.4408 -0.1608,-1.6016 -0.3194,-0.3216 -0.7997,-0.4825 -1.4407,-0.4825 H 99.2661 V 47.758 h 15.2228 v 4.3245 h -1.9233 c -0.641,0 -1.1214,0.1609 -1.282,0.4825 -0.3195,0.1608 -0.4803,0.7997 -0.4803,1.6016 v 3.2054 c 0,0.639 0.1608,1.28 0.3193,1.5995 0.3216,0.4824 0.802,0.9627 1.2824,1.2821 -0.9608,0.4825 -1.6017,1.443 -1.6017,2.886 v 5.6067 h 1.6017 c 0.6409,0 1.443,-0.3216 1.9232,-0.9605 0.4801,-0.6411 0.8017,-1.6038 0.8017,-2.5643 v -3.0446 h 5.6067 z"
       style="fill:#009035;fill-rule:evenodd"
       id="path12" />
    <path
       d="m 60.8142,116.8121 -5.6068,0.1609 v -10.2529 h 21.7882 v 10.2529 h -5.6069 v -4.1638 c 0,-0.4824 -0.1607,-1.1234 -0.3215,-1.2822 -0.3195,-0.3216 -0.639,-0.4824 -0.7998,-0.4824 h -0.641 v 5.2895 c 0,0.6389 0.1586,1.2801 0.4803,1.5994 0.1607,0.3216 0.4824,0.8021 0.9605,1.1214 -0.7998,0.4824 -1.4408,1.443 -1.4408,2.8859 v 4.005 c 0,0.4804 0.1586,0.9628 0.4803,1.2824 0.1607,0.1586 0.4824,0.4802 0.8018,0.4802 h 2.0819 v 4.1658 h -13.78 v -4.1658 h 2.0841 c 0.3194,0 0.641,-0.3216 0.9627,-0.4802 0.1586,-0.3196 0.3194,-0.802 0.3194,-1.2824 v -4.005 c 0,-1.4429 -0.4803,-2.4035 -1.6016,-2.8859 0.4803,-0.3193 0.9605,-0.639 1.2822,-1.1214 0.1586,-0.3193 0.3194,-0.9605 0.3194,-1.5994 v -5.2895 h -0.6411 c -0.3216,0 -0.641,0.1608 -0.7997,0.3216 -0.1608,0.3196 -0.3216,0.7997 -0.3216,1.2822 z"
       style="fill:#009035;fill-rule:evenodd"
       id="path13" />
    <path
       d="m 120.4174,160.5535 h 2.8836 v 4.0073 c 0,0.3193 0,0.478 0.161,0.6389 0,0.3216 0.1606,0.3216 0.3194,0.3216 0.3193,0 0.4803,0 0.4803,-0.3216 0,-0.1609 0.1606,-0.3196 0.1606,-0.6389 v -3.8465 c 0,-0.4801 -0.1606,-0.6412 -0.1606,-0.7998 -0.161,-0.1608 -0.3195,-0.3215 -0.6391,-0.3215 H 122.66 v -2.2428 h 0.9626 c 0.3196,0 0.4781,-0.1608 0.6391,-0.1608 0,-0.1608 0.1606,-0.4803 0.1606,-0.7997 v -2.5643 c 0,-0.3216 -0.1606,-0.641 -0.1606,-0.8021 0,-0.1584 -0.161,-0.3193 -0.4803,-0.3193 -0.3194,0 -0.4804,0.3193 -0.4804,0.9606 v 2.7251 h -2.8836 v -2.7251 c 0,-0.4802 0,-0.7997 0,-1.1214 0,-0.1608 0,-0.4824 0.1587,-0.8018 0.1605,-0.3195 0.3216,-0.4804 0.4822,-0.802 0.3196,-0.1587 0.4804,-0.3193 0.7997,-0.4781 0.4827,0 1.1214,0 2.0842,0 0.4801,0 0.8018,0 1.1213,0 0.3196,0 0.6413,0 0.8018,0.1588 0.3196,0.1606 0.6392,0.3193 0.7997,0.4801 0.1611,0.1608 0.3216,0.3217 0.4828,0.6412 0,0.3194 0.1584,0.4802 0.1584,0.8018 0,0.1608 0,0.4801 0,0.7998 v 2.7251 c 0,0.641 -0.1584,1.1213 -0.3196,1.443 -0.1605,0.3193 -0.4821,0.6389 -0.9626,0.9605 0.4805,0.3196 0.8021,0.6389 0.9626,0.9605 0.1612,0.3216 0.3196,0.8021 0.3196,1.443 v 4.1637 c 0,0.8021 -0.1584,1.4431 -0.3196,1.7647 -0.1605,0.4804 -0.4821,0.6389 -0.9626,0.9605 -0.4803,0.1609 -0.9605,0.1609 -1.7623,0.1609 -0.9607,0 -1.6017,0 -2.2426,-0.1609 -0.4804,-0.1608 -0.9608,-0.3216 -1.2825,-0.7997 -0.1605,-0.4824 -0.3192,-0.9629 -0.3192,-1.9255 z"
       style="fill:#009035;fill-rule:evenodd"
       id="path14" />
    <path
       d="m 90.2952,167.9249 v -12.8173 h -1.6038 v -2.4036 c 1.2822,-0.1608 2.0841,-0.9626 2.2449,-2.2427 h 2.4014 v 17.4636 z"
       style="fill:#009035;fill-rule:evenodd"
       id="path15" />
    <path
       d="m 156.7873,131.8742 h -18.9065 v -4.1658 h 2.5644 c 0.3192,0 0.6409,-0.1608 0.802,-0.4802 0.3193,-0.1611 0.4781,-0.802 0.4781,-1.2824 v -4.005 c 0,-0.6409 -0.1588,-1.2821 -0.3196,-1.7623 -0.3196,-0.3196 -0.6413,-0.8021 -1.1214,-1.1236 0.9629,-0.3193 1.441,-1.2802 1.441,-2.5621 v -3.364 c 0,-0.9629 -0.1588,-1.443 -0.3196,-1.7626 -0.1585,-0.1608 -0.6413,-0.4824 -1.2799,-0.4824 h -2.245 v -4.1637 h 18.1045 c 1.604,0 3.0447,0.4802 4.1683,1.1213 0.9603,0.7997 1.7601,1.921 2.0816,3.364 0.4805,1.443 0.7998,2.4035 1.2825,2.7252 -0.161,0 -0.3216,0.3195 -0.3216,0.3195 -0.1611,0.1586 -0.3217,0.641 -0.4804,0.9603 -0.1608,0.4804 -0.4805,0.9629 -0.641,1.7626 -0.161,0.6412 -0.7997,1.2821 -1.4429,1.7626 -0.6392,0.4801 -1.9212,0.6408 -3.2035,0.6408 v 0.3217 c 1.2823,0 2.5643,0.3194 3.2035,0.7998 0.9626,0.4824 1.6034,1.4429 1.9231,2.5643 0.3195,1.1213 0.8018,1.7623 1.2821,1.921 -0.1588,0 -0.3193,0.3217 -0.4803,0.6433 -0.1606,0.1588 -0.4823,0.9606 -0.641,2.2427 -0.4805,1.1213 -1.1213,2.2427 -2.0839,2.8836 -0.9609,0.6412 -2.2428,1.1214 -3.8445,1.1214 z m -4.807,-9.9334 h -2.562 v 5.7676 h 2.8813 c 0.6433,0 1.2824,-0.3216 1.6041,-0.6413 0.4801,-0.48 0.6409,-1.2818 0.6409,-2.4032 0,-0.802 -0.1608,-1.6017 -0.6409,-2.0842 -0.4828,-0.4781 -1.2825,-0.6389 -1.9234,-0.6389 z m 0,-10.7354 h -2.562 v 5.9284 h 2.8813 c 0.6433,0 1.2824,-0.3217 1.6041,-0.641 0.4801,-0.4804 0.6409,-1.2824 0.6409,-2.4038 0,-0.9602 -0.1608,-1.6015 -0.6409,-2.0838 -0.4828,-0.4782 -1.2825,-0.7998 -1.9234,-0.7998 z"
       style="fill:#009035;fill-rule:evenodd"
       id="path16" />
    <path
       d="m 109.041,165.0388 v -11.2134 c 0,-0.8021 0,-1.443 0,-1.9234 0.1606,-0.4801 0.3217,-0.8018 0.7997,-0.9626 0.1606,-0.3193 0.4822,-0.3193 0.9626,-0.4781 0.4803,0 1.1213,0 1.9234,0 0.9602,0 1.6015,0 2.0816,0.1588 0.4827,0.3193 0.802,0.6409 0.9608,1.1213 0.1605,0.4802 0.1605,1.1235 0.1605,2.084 v 11.2134 c 0,1.1215 -0.1605,1.7647 -0.6386,2.2451 -0.3216,0.3193 -0.8021,0.4801 -1.1214,0.4801 -0.4827,0.1609 -1.1237,0.1609 -1.7646,0.1609 -0.7997,0 -1.4409,0 -1.7605,-0.1609 -0.4822,0 -0.8038,-0.1608 -1.1233,-0.4801 -0.1585,-0.3196 -0.3196,-0.6412 -0.4802,-0.9628 0,-0.3197 0,-0.639 0,-1.2823 z m 4.0049,-0.478 v -11.057 c 0,-0.4805 -0.1587,-0.7998 -0.6409,-0.7998 -0.3196,0 -0.4804,0.3193 -0.4804,0.7998 v 11.057 c 0,0.6389 0.1608,0.9605 0.4804,0.9605 0.4822,0 0.6409,-0.3216 0.6409,-0.9605 z"
       style="fill:#009035;fill-rule:evenodd"
       id="path17" />
    <path
       d="m 97.6666,161.8357 h 2.8816 v 2.7251 c 0,0.3193 0.1608,0.478 0.1608,0.6389 0,0.3216 0.1608,0.3216 0.4825,0.3216 0.1586,0 0.3195,0 0.3195,-0.3216 0.1585,-0.1609 0.1585,-0.3196 0.1585,-0.6389 v -4.1681 c -0.478,0.4824 -1.1213,0.6433 -1.7602,0.6433 -0.6432,0 -1.2821,-0.3217 -1.6038,-0.8018 -0.4803,-0.3197 -0.6389,-1.1237 -0.6389,-1.9234 v -4.9678 c 0,-0.639 0,-0.9606 0.1586,-1.441 0,-0.3193 0.1609,-0.4801 0.4803,-0.8018 0.3217,-0.3195 0.6411,-0.4801 0.9606,-0.6389 0.4824,0 1.4429,0 2.5643,0 0.9605,0 1.7646,0.1588 2.2427,0.6389 0.1607,0.3217 0.3216,0.6412 0.4825,0.9606 0,0.3216 0,0.6432 0,1.2822 v 12.0176 c 0,0.7997 -0.1609,1.4429 -0.6412,1.9233 -0.3194,0.3193 -0.6411,0.4801 -1.1235,0.4801 -0.3194,0.1609 -0.9605,0.1609 -1.5994,0.1609 h -0.6433 c -0.9605,0 -1.7602,-0.1609 -2.2427,-0.641 -0.4803,-0.4804 -0.6389,-1.1236 -0.6389,-1.9233 z m 4.0029,-4.0053 v -4.3266 c 0,-0.4805 -0.1585,-0.7998 -0.478,-0.7998 -0.3217,0 -0.6433,0.3193 -0.6433,0.7998 v 4.3266 c 0,0.6412 0.3216,0.802 0.6433,0.802 0.3195,0 0.478,-0.1608 0.478,-0.802 z"
       style="fill:#009035;fill-rule:evenodd"
       id="path18" />
    <path
       d="m 83.7258,138.4437 16.0227,-12.9781 0.7997,0.7998 -12.9781,16.8246 h 40.2162 l -12.978,-16.8246 0.9608,-0.7998 15.864,12.8173 V 97.4277 l -15.864,12.8172 -0.9608,-0.9629 12.978,-16.983 H 88.2134 l 12.3348,16.983 -0.9605,0.9629 -15.8619,-13.6192 z"
       style="fill:#e41e15;fill-rule:evenodd"
       id="path19" />
  </g>
</svg>
