<?xml version="1.0" encoding="UTF-8" standalone="no"?>
<svg
   version="1.1"
   width="1.6069833in"
   height="1.6036887in"
   viewBox="0 0 115.7028 115.46559"
   id="svg32"
   sodipodi:docname="tupi_fc_mg.cdr"
   xmlns:inkscape="http://www.inkscape.org/namespaces/inkscape"
   xmlns:sodipodi="http://sodipodi.sourceforge.net/DTD/sodipodi-0.dtd"
   xmlns="http://www.w3.org/2000/svg"
   xmlns:svg="http://www.w3.org/2000/svg">
  <defs
     id="defs32" />
  <sodipodi:namedview
     id="namedview32"
     pagecolor="#ffffff"
     bordercolor="#000000"
     borderopacity="0.25"
     inkscape:showpageshadow="2"
     inkscape:pageopacity="0.0"
     inkscape:pagecheckerboard="0"
     inkscape:deskcolor="#d1d1d1"
     inkscape:document-units="in" />
  <g
     id="Layer1003"
     transform="matrix(1,0,0,0.77278698,-50.148602,-25.728169)">
    <path
       d="m 155.1895,67.6339 c -0.0187,-6.4797 5.7904,-11.9965 10.6619,-16.3069 L 150.6766,33.2927 c -13.9739,5.8961 -27.3022,8.3361 -42.6768,8.3361 -15.3745,0 -28.7026,-2.44 -42.6768,-8.3361 L 50.1486,51.327 c 4.8715,4.3104 10.6806,9.8272 10.6616,16.3069 -0.0142,4.8359 -5.1191,9.2606 -9.2269,10.8039 -0.024,22.1055 3.978,42.6467 15.955,61.2255 10.7498,16.6758 25.0204,29.1471 40.4615,43.0439 15.4411,-13.8968 29.7122,-26.3681 40.4618,-43.0439 11.9769,-18.5788 15.9787,-39.12 15.9549,-61.2255 -4.1079,-1.5433 -9.2127,-5.968 -9.227,-10.8039 z"
       style="fill:#1b1918;fill-rule:evenodd"
       id="path10" />
    <path
       d="M 72.6963,38.6394 C 70.5274,37.9201 68.3179,37.117 66.0532,36.2248 l -0.4175,0.4964 v 65.4627 l 7.0606,-5.8199 z"
       style="fill:#ffffff;fill-rule:evenodd"
       id="path11" />
    <path
       d="m 86.8175,42.2929 c -2.342,-0.4311 -4.6871,-0.9493 -7.0604,-1.564 v 49.8142 l 7.0604,-5.8197 z"
       style="fill:#ffffff;fill-rule:evenodd"
       id="path12" />
    <path
       d="M 58.5748,56.3679 V 45.113 l -5.0341,5.983 c 1.7666,1.6804 3.5175,3.4207 5.0341,5.2719 z"
       style="fill:#ffffff;fill-rule:evenodd"
       id="path13" />
    <path
       d="m 115.0608,43.9068 c -2.3078,0.1157 -4.6537,0.169 -7.061,0.169 v 23.1861 l 7.061,-5.8209 z"
       style="fill:#ffffff;fill-rule:evenodd"
       id="path14" />
    <path
       d="m 129.1822,42.2943 c -2.3497,0.4328 -4.6956,0.7776 -7.0609,1.0437 v 12.2831 l 7.0609,-5.8204 z"
       style="fill:#ffffff;fill-rule:evenodd"
       id="path15" />
    <path
       d="m 136.2426,40.7299 v 3.2503 l 6.0953,-5.0242 c -2.0608,0.6643 -4.0891,1.2539 -6.0953,1.7739 z"
       style="fill:#ffffff;fill-rule:evenodd"
       id="path16" />
    <path
       d="m 58.5748,76.8782 c -1.3556,1.2451 -2.9112,2.3085 -4.5309,3.1187 -0.0138,9.9213 0.9523,19.6727 3.215,29.0922 l 1.3159,-1.0848 z"
       style="fill:#ffffff;fill-rule:evenodd"
       id="path17" />
    <path
       d="M 100.939,43.9063 C 98.5509,43.7865 96.2054,43.6 93.8785,43.3378 v 35.5647 l 7.0605,-5.8202 z"
       style="fill:#ffffff;fill-rule:evenodd"
       id="path18" />
    <path
       d="m 79.7571,151.8839 c 2.2686,2.6412 4.6302,5.2016 7.0604,7.7024 V 117.096 l -7.0604,5.8206 z"
       style="fill:#ffffff;fill-rule:evenodd"
       id="path19" />
    <path
       d="m 152.7412,67.677 c 0.004,-2.1561 0.4918,-4.1451 1.3141,-6.0073 l -3.6913,3.0428 v 66.8207 c 2.9751,-5.6562 5.3004,-11.5053 7.0609,-17.5042 V 76.8782 c -2.757,-2.5318 -4.6906,-5.8094 -4.6837,-9.2012 z"
       style="fill:#ffffff;fill-rule:evenodd"
       id="path20" />
    <path
       d="m 69.6023,138.3498 c 0.9946,1.5518 2.0281,3.0722 3.094,4.5644 V 128.737 l -5.9257,4.8846 c 0.891,1.5925 1.8327,3.1689 2.8317,4.7282 z"
       style="fill:#ffffff;fill-rule:evenodd"
       id="path21" />
    <path
       d="m 149.9466,36.2248 c -0.2857,0.1127 -0.5703,0.2243 -0.8546,0.3338 l -91.1666,75.152 c 1.8156,6.7753 4.3279,13.3687 7.6569,19.7198 l 94.0118,-77.498 c 0.9253,-0.9686 1.8932,-1.912 2.8648,-2.8364 z"
       style="fill:#ffffff;fill-rule:evenodd"
       id="path22" />
    <path
       d="m 136.2426,151.8839 c 2.4773,-2.8842 4.8426,-5.8652 7.0609,-8.9697 V 70.5329 l -7.0609,5.8205 z"
       style="fill:#ffffff;fill-rule:evenodd"
       id="path23" />
    <path
       d="m 93.8785,166.5439 c 2.3245,2.2059 4.6846,4.3785 7.0605,6.5337 v -67.6222 l -7.0605,5.8203 z"
       style="fill:#ffffff;fill-rule:evenodd"
       id="path24" />
    <path
       d="m 122.1213,166.5439 c 2.3992,-2.2776 4.7613,-4.5907 7.0609,-6.9576 v -77.413 l -7.0609,5.8209 z"
       style="fill:#ffffff;fill-rule:evenodd"
       id="path25" />
    <path
       d="m 107.9998,179.4243 c 2.3563,-2.1093 4.7159,-4.2188 7.061,-6.3467 V 93.8139 l -7.061,5.8211 z"
       style="fill:#ffffff;fill-rule:evenodd"
       id="path26" />
    <path
       d="m 77.4991,119.8336 3.7673,-3.106 -8.9011,-10.7975 4.1963,-3.4592 -2.1984,-2.6669 -12.0663,9.9466 2.1985,2.6669 4.1026,-3.3819 z"
       style="fill:#1b1918;fill-rule:evenodd"
       id="path27" />
    <path
       d="m 75.8921,98.5435 6.2999,7.6803 c 1.814,2.2004 5.094,6.1416 11.4536,0.8995 1.6969,-1.3989 3.8414,-3.6986 3.822,-6.3819 0.0246,-1.6804 -1.1076,-3.4717 -2.3375,-4.9635 l -6.426,-7.7957 -3.6368,2.9981 6.4875,7.8697 c 1.1068,1.3429 2.3735,3.525 0.0048,5.4774 -0.9137,0.7532 -2.0822,1.1215 -3.2006,0.7902 -0.834,-0.2516 -1.505,-0.9516 -2.1045,-1.6789 l -6.5951,-8.0005 z"
       style="fill:#1b1918;fill-rule:evenodd"
       id="path28" />
    <path
       d="m 102.545,99.1873 3.7488,-3.0904 -3.997,-4.8487 2.4085,-2.0172 c 0.7272,-0.5995 2.3499,-1.9369 2.9178,-3.376 0.2915,-0.7103 0.9563,-2.981 -0.9959,-5.3492 -1.4451,-1.7532 -3.209,-2.335 -4.9152,-2.0878 -1.6691,0.2172 -3.0307,1.3397 -4.0748,2.2003 l -6.1919,5.1043 z m -5.2909,-14.0562 1.6411,-1.3527 c 1.0814,-0.8915 2.4825,-1.8898 3.8353,-0.2489 1.4914,1.8092 0.0179,3.0237 -0.8959,3.777 l -1.6595,1.3682 z"
       style="fill:#1b1918;fill-rule:evenodd"
       id="path29" />
    <path
       d="m 115.7675,88.2876 3.8416,-3.1668 -11.0994,-13.4649 -3.8419,3.167 z"
       style="fill:#1b1918;fill-rule:evenodd"
       id="path30" />
    <path
       d="m 132.1196,74.808 3.7111,-3.0594 -4.2126,-5.1101 5.4088,-4.4582 -2.137,-2.5923 -5.4083,4.4584 -2.5829,-3.133 5.8187,-4.7964 -2.137,-2.5921 -9.5295,7.8555 z"
       style="fill:#1b1918;fill-rule:evenodd"
       id="path31" />
    <path
       d="m 148.232,46.0213 c -0.4339,-0.4876 -1.452,-1.6849 -3.4871,-1.9494 -1.985,-0.2428 -4.0752,0.6033 -6.2573,2.402 -1.9584,1.6142 -3.3915,3.4852 -3.4802,6.1889 -0.0845,2.4814 1.0088,4.6816 2.5302,6.5277 1.153,1.3985 3.1825,3.328 5.9468,3.6804 2.7859,0.3398 5.283,-1.3431 6.5885,-2.4192 1.7527,-1.445 5.7476,-5.3383 2.2918,-9.5683 l -3.8793,3.1978 c 0.3564,0.5834 1.3353,2.1887 -0.6419,3.8184 -2.8906,2.3829 -5.7072,-0.9963 -6.3836,-1.8168 -2.0296,-2.4619 -3.0458,-5.1007 -0.7894,-6.9608 1.0626,-0.8761 2.4291,-1.1565 3.7195,0.0661 z"
       style="fill:#1b1918;fill-rule:evenodd"
       id="path32" />
  </g>
</svg>
