<?xml version="1.0" encoding="UTF-8" standalone="no"?>
<svg
   version="1.1"
   width="1.4993488in"
   height="1.5017431in"
   viewBox="0 0 107.95311 108.1255"
   id="svg74"
   sodipodi:docname="vasco_da_gama.cdr"
   xmlns:inkscape="http://www.inkscape.org/namespaces/inkscape"
   xmlns:sodipodi="http://sodipodi.sourceforge.net/DTD/sodipodi-0.dtd"
   xmlns="http://www.w3.org/2000/svg"
   xmlns:svg="http://www.w3.org/2000/svg">
  <defs
     id="defs74" />
  <sodipodi:namedview
     id="namedview74"
     pagecolor="#ffffff"
     bordercolor="#000000"
     borderopacity="0.25"
     inkscape:showpageshadow="2"
     inkscape:pageopacity="0.0"
     inkscape:pagecheckerboard="0"
     inkscape:deskcolor="#d1d1d1"
     inkscape:document-units="in" />
  <g
     id="Layer1003"
     style="display:inline"
     transform="translate(-58.691376,-63.711571)">
    <path
       d="M 59.379023,108.29476 V 88.723429 c 37.498303,7.12156 24.349341,-20.527296 24.349341,-20.527296 9.052167,-3.490702 28.949856,-3.796981 28.949856,-3.796981 0,0 19.877,0.306279 28.92925,3.796981 0,0 -11.62539,27.944054 24.34936,20.527296 v 19.571331 c 0.10336,49.03171 -53.27861,62.83221 -53.27861,62.83221 0,0 -53.40268,-13.8005 -53.299197,-62.83221 z"
       style="fill:#ffffff;fill-rule:evenodd;stroke:#1b1918;stroke-width:1.375;stroke-linecap:butt;stroke-linejoin:miter;stroke-dasharray:none"
       id="path10" />
    <path
       d="M 64.223796,109.12866 V 93.483484 C 97.61086,97.616096 90.46308,71.602251 90.46308,71.602251 c 8.229486,-3.173343 22.21428,-2.915108 22.21428,-2.915108 0,0 13.96593,-0.258235 22.19531,2.915108 0,0 -7.14767,26.013845 26.23937,21.881233 v 15.645176 c 0.094,44.57406 -48.43468,57.11992 -48.43468,57.11992 0,0 -48.547667,-12.54586 -48.453564,-57.11992 z"
       style="fill:#1b1918;fill-rule:evenodd;stroke-width:0.954862"
       id="path11" />
    <path
       d="m 162.61157,93.990905 c -22.09613,-0.212221 -24.80639,-8.89402 -24.80639,-8.89402 L 67.109318,133.31821 80.55913,149.95886 Z"
       style="fill:#ffffff;fill-rule:evenodd;stroke-width:0.954862"
       id="path12" />
    <path
       d="M 64.223796,109.12866 V 93.483484"
       style="fill:none;stroke:#1b1918;stroke-width:0.200521;stroke-linecap:butt;stroke-linejoin:miter;stroke-dasharray:none"
       id="path13" />
    <path
       d="M 64.223796,93.483484 C 97.61086,97.616096 90.46308,71.602251 90.46308,71.602251 c 8.229486,-3.173343 22.21428,-2.915108 22.21428,-2.915108 0,0 13.96593,-0.258235 22.19531,2.915108 0,0 -7.14767,26.013845 26.23937,21.881233"
       style="fill:none;stroke:#1b1918;stroke-width:0.200521;stroke-linecap:butt;stroke-linejoin:miter;stroke-dasharray:none"
       id="path14" />
    <path
       d="M 161.11204,93.483484 V 109.12866"
       style="fill:none;stroke:#1b1918;stroke-width:0.200521;stroke-linecap:butt;stroke-linejoin:miter;stroke-dasharray:none"
       id="path15" />
    <path
       d="m 161.11204,109.12866 c 0.094,44.57406 -48.43468,57.11992 -48.43468,57.11992 0,0 -48.547667,-12.54586 -48.453564,-57.11992"
       style="fill:none;stroke:#1b1918;stroke-width:0.200521;stroke-linecap:butt;stroke-linejoin:miter;stroke-dasharray:none"
       id="path16" />
    <path
       d="m 104.02499,73.373356 0.7994,2.324711 4.51439,-2.509104 c 0,0 1.4106,-0.885681 1.45769,1.29143 0,0 -1.50481,0.664071 -1.50481,1.439115 0,0 -0.18809,1.844865 -0.0469,2.767339 v 2.951985 c 0,0 -2.68039,1.549666 -3.29157,2.693582 h 11.28552 c 0,0 -1.12837,-1.623509 -3.38568,-2.656789 0,0 -2.11609,-2.140146 0.8465,-2.988778 l 0.7053,-3.76374 -1.41057,-0.442714 -4.18531,-3.025742 z"
       style="fill:#ffffff;fill-rule:evenodd;stroke-width:0.954862"
       id="path17" />
    <path
       d="m 110.09096,77.653652 c 0,0 0.75251,0.406002 0.7996,0.885595 0,0 0.6112,0.442797 0.70531,-0.07384 0,0 0.37621,-0.959436 -0.65841,-1.512872 0,0 -1.2227,-0.184394 -0.8465,0.701119 z"
       style="fill:#1b1918;fill-rule:evenodd;stroke-width:0.954862"
       id="path18" />
    <path
       d="m 112.11305,80.716359 c 0,0 -0.14097,1.03311 0.75241,1.992546 0,0 0.51719,0.442799 0.6584,-0.110636 0,0 -0.47031,-0.73808 -0.6112,-1.328477 0,0 -0.18819,-1.217674 -0.79961,-0.553433 z"
       style="fill:#1b1918;fill-rule:evenodd;stroke-width:0.954862"
       id="path19" />
    <path
       d="m 109.47977,83.26234 c 0,0 0.2821,-1.84495 0.79929,-2.140146 0,0 0.75252,-0.664241 0.6584,0.774873 0,0 -0.32908,1.365273 -0.8465,1.586629 0,0 -0.3762,0.258405 -0.61119,-0.221356 z"
       style="fill:#1b1918;fill-rule:evenodd;stroke-width:0.954862"
       id="path20" />
    <path
       d="M 118.06962,100.42039 H 97.943295 c 0,-5.165799 -3.511155,-7.724215 -3.511155,-7.724215 h 23.01043 z"
       style="fill:#ffffff;fill-rule:evenodd;stroke:#1b1918;stroke-width:0.200521;stroke-linecap:butt;stroke-linejoin:miter;stroke-dasharray:none"
       id="path21" />
    <path
       d="M 99.134413,94.737951 H 118.41423"
       style="fill:none;stroke:#1b1918;stroke-width:0.190971;stroke-linecap:butt;stroke-linejoin:miter;stroke-dasharray:0.763984, 3.43769, 0.763984, 3.43769, 0.763984, 3.43769, 0.763984, 3.43769, 0.763984, 3.43769, 0.763984, 3.43769"
       id="path22" />
    <path
       d="m 102.77104,123.8145 c 10.78418,-0.0248 17.43028,4.13262 17.43028,4.13262 14.95333,-13.50497 5.36036,-28.26455 5.36036,-28.26455 H 88.695052 c 0,0 9.592858,14.75958 -5.360673,28.26455 0,0 8.652361,-4.10801 19.436661,-4.13262 z"
       style="fill:#ffffff;fill-rule:evenodd;stroke:#1b1918;stroke-width:0.200521;stroke-linecap:butt;stroke-linejoin:miter;stroke-dasharray:none"
       id="path23" />
    <path
       d="M 93.115445,102.41311 H 125.18549"
       style="fill:none;stroke:#1b1918;stroke-width:0.190971;stroke-linecap:butt;stroke-linejoin:miter;stroke-dasharray:0.763984, 3.43769, 0.763984, 3.43769, 0.763984, 3.43769, 0.763984, 3.43769, 0.763984, 3.43769, 0.763984, 3.43769"
       id="path24" />
    <path
       d="m 123.11671,84.0373 h -22.10119 c 0,0 3.29169,2.287746 1.50468,7.306036 0,0 8.93447,-4.280377 20.87851,0 0,0 1.69278,-4.723092 -0.282,-7.306036 z"
       style="fill:#ffffff;fill-rule:evenodd;stroke:#1b1918;stroke-width:0.200521;stroke-linecap:butt;stroke-linejoin:miter;stroke-dasharray:none"
       id="path25" />
    <path
       d="M 134.96667,90.605256 H 105.1535 c 0,0 6.01928,7.822677 -0.28221,12.840974 0,0 18.71552,-6.420364 27.46187,1.03319 0,0 6.48939,-6.641967 2.63351,-13.874164 z"
       style="fill:#ffffff;fill-rule:evenodd;stroke:#1b1918;stroke-width:0.200521;stroke-linecap:butt;stroke-linejoin:miter;stroke-dasharray:none"
       id="path26" />
    <path
       d="m 107.6614,129.05415 c -8.777715,0.0491 -18.307945,3.54221 -18.307945,3.54221 18.433525,-13.57888 4.514387,-29.00253 4.514387,-29.00253 h 46.647598 c 0,0 6.20716,23.54145 -18.90351,29.00253 0,0 -5.17258,-3.59136 -13.95053,-3.54221 z"
       style="fill:#ffffff;fill-rule:evenodd;stroke:#1b1918;stroke-width:0.200521;stroke-linecap:butt;stroke-linejoin:miter;stroke-dasharray:none"
       id="path27" />
    <path
       d="M 99.886914,106.54573 H 139.48083"
       style="fill:none;stroke:#1b1918;stroke-width:0.200521;stroke-linecap:butt;stroke-linejoin:miter;stroke-dasharray:0.802084, 3.60929, 0.802084, 3.60929, 0.802084, 3.60929, 0.802084, 3.60929, 0.802084, 3.60929, 0.802084, 3.60929"
       id="path28" />
    <path
       d="m 109.66787,92.966845 h 25.2988"
       style="fill:none;stroke:#1b1918;stroke-width:0.190971;stroke-linecap:butt;stroke-linejoin:miter;stroke-dasharray:0.763984, 3.43769, 0.763984, 3.43769, 0.763984, 3.43769, 0.763984, 3.43769, 0.763984, 3.43769, 0.763984, 3.43769"
       id="path29" />
    <path
       d="m 105.1535,85.882248 h 17.77512"
       style="fill:none;stroke:#1b1918;stroke-width:0.200521;stroke-linecap:butt;stroke-linejoin:miter;stroke-dasharray:0.80218, 3.60957, 0.80218, 3.60957, 0.80218, 3.60957, 0.80218, 3.60957, 0.80218, 3.60957, 0.80218, 3.60957"
       id="path30" />
    <path
       d="m 125.797,119.42348 c 0,0 -2.96238,-1.73414 -5.97197,-1.73414 v 0.008 c 0,2.36149 2.21019,4.68605 2.21019,4.68605 h -7.47676 c 0,0 2.20998,-2.32456 2.20998,-4.68605 v -0.008 c -3.0096,0 -5.97197,1.73414 -5.97197,1.73414 v -5.85939 c 0,0 2.96237,1.73406 5.97197,1.73406 v -0.008 c 0,-2.3615 -2.20998,-4.68604 -2.20998,-4.68604 h 7.47676 c 0,0 -2.21019,2.32454 -2.21019,4.68604 v 0.008 c 3.00959,0 5.97197,-1.73406 5.97197,-1.73406 z"
       style="fill:#e41e15;fill-rule:evenodd;stroke-width:0.954862"
       id="path31" />
    <path
       d="m 84.979846,103.11534 c -1.618948,-1.34235 -4.18508,-2.20959 -7.073943,-2.20959 -4.896944,0 -8.866869,2.49208 -8.866869,5.56622 0,3.07412 3.969925,5.56614 8.866869,5.56614 3.377708,0 6.314214,-1.18553 7.811465,-2.92983"
       style="fill:none;stroke:#1b1918;stroke-width:0.190971;stroke-linecap:butt;stroke-linejoin:miter;stroke-dasharray:none"
       id="path34" />
    <path
       d="m 85.215266,114.7004 c 0,0 -3.056373,0 -3.056373,-2.91495 0,0 0.33114,-2.09531 -1.540691,-3.58787"
       style="fill:none;stroke:#1b1918;stroke-width:0.190971;stroke-linecap:butt;stroke-linejoin:miter;stroke-dasharray:none"
       id="path36" />
    <path
       d="M 73.929622,105.2543 V 99.387371"
       style="fill:none;stroke:#1b1918;stroke-width:0.190971;stroke-linecap:butt;stroke-linejoin:miter;stroke-dasharray:none"
       id="path38" />
    <path
       d="m 111.50176,157.2819 2.25708,4.02206 2.1162,-3.87446"
       style="fill:none;stroke:#1b1918;stroke-width:0.190971;stroke-linecap:butt;stroke-linejoin:miter;stroke-dasharray:none"
       id="path44" />
    <path
       d="m 119.02574,152.52201 2.4923,-3.98517"
       style="fill:none;stroke:#1b1918;stroke-width:0.190971;stroke-linecap:butt;stroke-linejoin:miter;stroke-dasharray:none"
       id="path45" />
    <path
       d="m 119.40194,154.29311 h -3.33878"
       style="fill:none;stroke:#1b1918;stroke-width:0.190971;stroke-linecap:butt;stroke-linejoin:miter;stroke-dasharray:none"
       id="path47" />
    <path
       d="m 116.06316,154.29311 c 0,0 0.0472,1.18089 2.63327,1.18089"
       style="fill:none;stroke:#1b1918;stroke-width:0.190971;stroke-linecap:butt;stroke-linejoin:miter;stroke-dasharray:none"
       id="path48" />
    <path
       d="m 118.69643,155.474 0.70551,-1.18089"
       style="fill:none;stroke:#1b1918;stroke-width:0.190971;stroke-linecap:butt;stroke-linejoin:miter;stroke-dasharray:none"
       id="path49" />
    <path
       d="m 95.419636,133.2606 c 0,0 -1.363694,4.94445 15.988134,4.94445 0,0 7.14767,0.36904 10.58035,-2.73055 l 6.67715,-5.64548 c 0,0 -3.29169,-5.42428 -7.19435,-5.42428 0,0 -9.76544,-0.27042 -26.051284,8.85586 z"
       style="fill:#1b1918;fill-rule:evenodd;stroke:#1b1918;stroke-width:0.200521;stroke-linecap:butt;stroke-linejoin:miter;stroke-dasharray:none"
       id="path56" />
    <path
       d="m 116.06316,137.95908 c 0,0 1.63027,-7.9702 3.38566,-10.03657 0,0 -2.82137,-3.14875 1.75554,-3.44394 0,0 1.94373,-0.19683 2.5078,1.52522 0,0 0.18811,1.72197 -1.7554,2.3616 0,0 -1.94363,1.27907 -3.3858,9.00328 0,0 -1.37923,0.44282 -2.5078,0.59041 z"
       style="fill:#f4a446;fill-rule:evenodd;stroke:#1b1918;stroke-width:0.200521;stroke-linecap:butt;stroke-linejoin:miter;stroke-dasharray:none"
       id="path57" />
    <path
       d="m 105.1535,129.34927 c 0,0 6.20738,-2.41073 10.09451,-3.29625 0,0 1.81838,-0.49204 2.31994,0 0,0 1.12848,1.13148 -1.19133,1.82033 0,0 -5.76824,0.59041 -18.182706,6.29754 0,0 -1.065753,0.54101 -1.504687,-0.0492 0,0 -0.250836,-0.4428 0.814917,-1.08242 0,0 4.765216,-2.60756 7.649356,-3.68998 z"
       style="fill:#f4a446;fill-rule:evenodd;stroke-width:0.954862"
       id="path58" />
    <path
       d="m 112.23842,129.546 c 0,0 2.82172,-0.83627 3.76199,-0.88543 0,0 1.25408,0.0492 1.25408,0.8363 0,0 0.31346,1.08243 -1.75575,1.57445 0,0 -5.14108,0.63962 -14.16965,4.47702 0,0 -1.630268,0.98406 -2.633612,0.19684 0,0 -0.501564,-0.59049 0.752507,-1.27908 0,0 7.523875,-3.44401 12.790435,-4.9201 z"
       style="fill:#f4a446;fill-rule:evenodd;stroke-width:0.954862"
       id="path59" />
    <path
       d="m 110.54575,132.94078 c 0,0 3.6365,-1.03318 5.26656,-1.08224 0,0 0.87787,0.0491 0.7524,0.83628 0,0 0.31357,1.27925 -1.44217,1.47607 0,0 -4.82764,0.49178 -9.40475,2.55833 0,0 -1.19112,0.59023 -2.44519,0.49187 0,0 -0.7524,-0.14768 -1.37943,-0.34427 0,0 -1.25386,-0.19698 1.94373,-1.47606 0,0 4.32608,-1.91871 6.70885,-2.45998 z"
       style="fill:#f4a446;fill-rule:evenodd;stroke-width:0.954862"
       id="path60" />
    <path
       d="m 110.67111,137.61465 c 0,0 -2.88413,0 -4.01272,-0.0984 0,0 -0.7525,-0.14761 0.5643,-0.68868 0,0 3.38569,-1.13165 6.52063,-1.72205 0,0 1.94363,-0.44288 1.94363,0.738 0,0 0.31346,1.62352 -2.25709,1.72188 z"
       style="fill:#f4a446;fill-rule:evenodd;stroke-width:0.954862"
       id="path61" />
    <path
       d="m 125.96925,127.72576 c 0,0 2.00636,1.77111 1.06598,2.60747 0,0 -1.06598,1.08251 -2.4454,-0.14759 0,0 -1.69258,-1.13149 -0.94029,-2.16468 0,0 0.94029,-2.01717 2.31971,-0.2952 z"
       style="fill:#f4a446;fill-rule:evenodd;stroke-width:0.954862"
       id="path62" />
    <path
       d="m 123.02272,129.74284 c 0,0 1.25385,0.98404 1.63005,1.62368 0,0 0.68944,1.0331 -0.81513,1.42668 0,0 -1.81815,-0.54126 -2.6958,-1.86949 0,0 0.0625,-1.8205 1.88088,-1.18087 z"
       style="fill:#f4a446;fill-rule:evenodd;stroke-width:0.954862"
       id="path63" />
    <path
       d="m 121.51804,132.39962 c 0,0 1.9434,0.98397 0.81492,1.91887 0,0 -0.81492,0.68862 -1.50469,0 0,0 -1.00324,-0.44288 -0.56431,-1.47608 0,0 0.3762,-0.98387 1.25408,-0.44279 z"
       style="fill:#f4a446;fill-rule:evenodd;stroke-width:0.954862"
       id="path64" />
    <path
       d="m 119.95051,134.6137 c 0,0 1.50479,0.63945 0.50154,1.27908 0,0 -1.25405,1.18063 -1.12857,0 0,0 -0.12548,-1.08242 0.62703,-1.27908 z"
       style="fill:#f4a446;fill-rule:evenodd;stroke-width:0.954862"
       id="path65" />
    <path
       d="m 106.72103,142.04272 c 0,0 6.01907,0.14759 7.21039,-0.73809 0,0 -4.20081,4.08364 -7.21039,0.73809 z"
       style="fill:#fffffe;fill-rule:evenodd;stroke-width:0.954862"
       id="path66" />
    <path
       d="m 122.52105,138.40189 c 0,0 4.38881,0.78721 7.33556,0.54123 0,0 -5.14122,2.85354 -7.33556,-0.54123 z"
       style="fill:#fffffe;fill-rule:evenodd;stroke-width:0.954862"
       id="path67" />
    <path
       d="m 135.56223,138.89391 c 0,0 2.69612,0.0492 4.70249,-0.59041 0,0 -1.81827,2.45996 -4.70249,0.59041 z"
       style="fill:#fffffe;fill-rule:evenodd;stroke-width:0.954862"
       id="path68" />
    <path
       d="m 130.49927,142.74375 c 0,0 2.66488,-0.24606 3.79325,-0.0985 0,0 -1.72404,-1.67265 -3.79325,0.0985 z"
       style="fill:#fffffe;fill-rule:evenodd;stroke-width:0.954862"
       id="path69" />
    <path
       d="m 117.88173,139.02765 c 0,0 -2.00646,0.49201 -3.13496,0.34441 0,0 1.06576,1.42668 3.13496,-0.34441 z"
       style="fill:#fffffe;fill-rule:evenodd;stroke-width:0.954862"
       id="path70" />
    <path
       d="m 117.19173,141.69829 c 0,0 2.19437,0.34443 5.07848,0.24597 0,0 -1.37922,2.16477 -5.07848,-0.24597 z"
       style="fill:#fffffe;fill-rule:evenodd;stroke-width:0.954862"
       id="path71" />
    <path
       d="m 102.20664,139.53353 c 0,0 3.82472,0.0984 5.95634,-0.24597 0,0 -2.069,2.60748 -5.95634,0.24597 z"
       style="fill:#fffffe;fill-rule:evenodd;stroke-width:0.954862"
       id="path72" />
    <path
       d="m 90.858358,139.3367 c 0,0 3.07222,-0.0984 4.514172,-0.0984 1.442169,0 2.664654,0.22144 3.417051,0.7133 0,0 -0.783766,-1.00851 -2.664652,-1.50052 0,0 -2.194351,-0.63962 -4.326288,-0.29521 0,0 -1.943515,0.29521 -4.388701,-0.93481 0,0 1.504581,2.01724 3.448418,2.11561 z"
       style="fill:#1b1917;fill-rule:evenodd;stroke-width:0.954862"
       id="path73" />
    <path
       d="m 92.425676,141.10782 c 0,0 -1.69322,-0.34453 -3.699254,-0.0492 -1.417161,0.20868 -4.200818,-0.0492 -4.953108,-0.54125 0,0 0.125687,1.42702 2.6335,1.72222 0,0 1.755308,-1.6e-4 4.200709,-0.0985 0,0 2.382451,-0.19683 4.702272,0.78705 0,0 -2.068987,-1.67273 -2.884119,-1.82032 z"
       style="fill:#1b1917;fill-rule:evenodd;stroke-width:0.954862"
       id="path74" />
  </g>
</svg>
