<?xml version="1.0" encoding="UTF-8" standalone="no"?>
<svg
   version="1.1"
   width="1.7212209in"
   height="1.7215661in"
   viewBox="0 0 123.9279 123.95276"
   id="svg23"
   sodipodi:docname="vilanova.cdr"
   xmlns:inkscape="http://www.inkscape.org/namespaces/inkscape"
   xmlns:sodipodi="http://sodipodi.sourceforge.net/DTD/sodipodi-0.dtd"
   xmlns="http://www.w3.org/2000/svg"
   xmlns:svg="http://www.w3.org/2000/svg">
  <defs
     id="defs23" />
  <sodipodi:namedview
     id="namedview23"
     pagecolor="#ffffff"
     bordercolor="#000000"
     borderopacity="0.25"
     inkscape:showpageshadow="2"
     inkscape:pageopacity="0.0"
     inkscape:pagecheckerboard="0"
     inkscape:deskcolor="#d1d1d1"
     inkscape:document-units="in" />
  <g
     id="Layer1003"
     style="display:inline"
     transform="translate(-46.036098,-43.323002)">
    <path
       d="m 131.41,43.323 c 0,0 4.6841,24.859641 38.554,24.859641 v 3.797907 c 0,66.982822 -61.9533,95.295212 -61.9533,95.295212 0,0 -61.9746,-28.31239 -61.9746,-95.295212 V 68.182641 C 79.9059,68.182641 84.59,43.323 84.59,43.323 Z"
       style="display:inline;fill:#e41e15;fill-rule:evenodd;stroke-width:0.9789"
       id="path10" />
    <path
       d="m 160.6154,77.339147 -0.3603,8.977026 -89.6994,38.374047 -6.749,-14.52574 85.1329,-36.319572 z"
       style="display:inline;fill:#ffffff;fill-rule:evenodd;stroke-width:0.9789"
       id="path11" />
    <path
       d="m 125.0164,51.818508 c 0,0 7.3866,21.722541 35.9108,24.283833 0,0 2.2829,47.415469 -52.9654,81.022929 C 52.7136,123.51781 54.995,76.102341 54.995,76.102341 84.1203,73.195793 90.9072,51.818508 90.9072,51.818508"
       style="display:inline;fill:none;stroke:#ffffff;stroke-width:2.11442;stroke-linecap:butt;stroke-linejoin:miter;stroke-dasharray:none"
       id="path12" />
    <path
       d="M 89.744433,51.818508 H 126.10415"
       style="fill:none;stroke:#ffffff;stroke-width:2.18306;stroke-linecap:butt;stroke-linejoin:miter;stroke-dasharray:none"
       id="path13" />
    <path
       d="m 72.6271,109.90921 1.9884,-0.84834 0.9645,10.09674 -1.8227,0.77752 -7.1592,-7.45371 2.0521,-0.87545 5.0501,5.80687 0.0255,-0.0108 z"
       style="fill:#e41e15;fill-rule:evenodd;stroke-width:0.9789"
       id="path14" />
    <path
       d="m 81.66,116.56345 -1.9119,0.81594 -4.0746,-8.76985 1.9119,-0.81575 z"
       style="fill:#e41e15;fill-rule:evenodd;stroke-width:0.9789"
       id="path15" />
    <path
       d="m 84.6187,113.39865 4.5505,-1.94149 0.7377,1.588 -6.4623,2.75715 -4.0747,-8.76975 1.9118,-0.81576 z"
       style="fill:#e41e15;fill-rule:evenodd;stroke-width:0.9789"
       id="path16" />
    <path
       d="m 91.6972,104.14422 0.0253,-0.0107 2.7463,2.98455 -2.3326,0.99523 z m 0.6328,5.70107 3.3778,-1.44101 1.4261,1.55763 2.0777,-0.88657 -7.2994,-7.39381 -2.2052,0.9408 0.8118,10.16171 2.0137,-0.85917 z"
       style="fill:#e41e15;fill-rule:evenodd;stroke-width:0.9789"
       id="path17" />
    <path
       d="m 105.4869,95.89009 1.7846,-0.761421 4.0746,8.769761 -1.9119,0.81585 -6.6403,-4.66043 -0.0256,0.0109 2.9056,6.2535 -1.7845,0.76133 -4.0745,-8.769665 2.0138,-0.859067 6.4702,4.557122 0.0255,-0.011 z"
       style="fill:#e41e15;fill-rule:evenodd;stroke-width:0.9789"
       id="path18" />
    <path
       d="m 112.6482,98.088782 c -1.1407,-2.454927 0.0287,-3.685504 1.0611,-4.126009 1.0324,-0.440505 2.7691,-0.4498 3.9099,2.005222 1.1406,2.455118 -0.0287,3.685696 -1.0613,4.126205 -1.0323,0.4405 -2.769,0.4496 -3.9097,-2.005418 z m -1.912,0.815849 c 1.9125,4.116139 5.3316,3.257269 6.5426,2.740769 1.2109,-0.51659 4.1647,-2.377019 2.2523,-6.493063 -1.9124,-4.116139 -5.3317,-3.25736 -6.5426,-2.740771 -1.2108,0.516494 -4.1647,2.376926 -2.2523,6.493065 z"
       style="fill:#e41e15;fill-rule:evenodd;stroke-width:0.9789"
       id="path19" />
    <path
       d="m 123.6886,88.124476 1.9885,-0.848334 0.9646,10.096735 -1.8228,0.777424 -7.1592,-7.453609 2.0521,-0.875644 5.0503,5.807058 0.0255,-0.01083 z"
       style="fill:#e41e15;fill-rule:evenodd;stroke-width:0.9789"
       id="path20" />
    <path
       d="m 130.4076,87.628776 0.0256,-0.01092 2.7461,2.984836 -2.3325,0.995137 z m 0.6331,5.701268 3.3777,-1.441104 1.4262,1.557435 2.0777,-0.886281 -7.2995,-7.394102 -2.2051,0.9409 0.8116,10.1618 2.0139,-0.859066 z"
       style="fill:#e41e15;fill-rule:evenodd;stroke-width:0.9789"
       id="path21" />
    <path
       d="m 144.6013,89.710467 -1.9121,0.815657 -4.0744,-8.769662 6.5133,-2.778909 0.7206,1.551206 -4.6015,1.96306 0.9195,1.978775 4.0278,-1.71842 0.7208,1.551111 -4.0279,1.718515 z"
       style="fill:#e41e15;fill-rule:evenodd;stroke-width:0.9789"
       id="path22" />
    <path
       d="m 153.5741,78.813598 c -0.3971,-0.460149 -1.1499,-1.32439 -2.7303,-0.649882 -0.9177,0.391347 -1.9966,1.554177 -0.8445,4.033635 0.732,1.575641 2.0405,2.71509 3.6593,2.024483 1.0579,-0.451429 1.5304,-1.340872 1.2605,-2.513571 l 1.912,-0.815754 c 0.5028,2.068467 -0.1787,3.954579 -2.473,4.933426 -2.4346,1.038641 -4.9129,0.207939 -6.3204,-2.821072 -1.4244,-3.065711 -0.3026,-5.417627 2.0555,-6.423592 2.7406,-1.169154 4.6892,0.165393 5.3928,1.416477 z"
       style="fill:#e41e15;fill-rule:evenodd;stroke-width:0.9789"
       id="path23" />
  </g>
</svg>
