<?xml version="1.0" encoding="UTF-8" standalone="no"?>
<svg
   version="1.1"
   width="1.8824722in"
   height="1.7901889in"
   viewBox="0 0 135.538 128.8936"
   id="svg39"
   sodipodi:docname="vilhena_ec_ro.cdr"
   xmlns:inkscape="http://www.inkscape.org/namespaces/inkscape"
   xmlns:sodipodi="http://sodipodi.sourceforge.net/DTD/sodipodi-0.dtd"
   xmlns="http://www.w3.org/2000/svg"
   xmlns:svg="http://www.w3.org/2000/svg">
  <defs
     id="defs39" />
  <sodipodi:namedview
     id="namedview39"
     pagecolor="#ffffff"
     bordercolor="#000000"
     borderopacity="0.25"
     inkscape:showpageshadow="2"
     inkscape:pageopacity="0.0"
     inkscape:pagecheckerboard="0"
     inkscape:deskcolor="#d1d1d1"
     inkscape:document-units="in" />
  <g
     id="Layer1003"
     inkscape:export-filename="Layer1003.png"
     inkscape:export-xdpi="76.5"
     inkscape:export-ydpi="76.5"
     transform="translate(-40.231003,-43.5532)">
    <path
       d="m 108.0001,43.5532 c 31.3971,0 57.0105,25.6135 57.0105,57.0106 0,8.5379 -1.9107,16.6624 -5.3016,23.9437 h 16.06 c -9.9148,27.8857 -36.5784,47.9393 -67.7689,47.9393 -31.1907,0 -57.8541,-20.0536 -67.7691,-47.9393 h 16.0602 c -3.3911,-7.2813 -5.3019,-15.4058 -5.3019,-23.9437 0,-31.3971 25.6136,-57.0106 57.0108,-57.0106 z"
       style="fill:#00378b;fill-rule:evenodd"
       id="path10" />
    <path
       d="m 108.0001,46.686 c 29.6584,0 53.8775,24.202 53.8775,53.8778 0,29.6586 -24.2191,53.8607 -53.8775,53.8607 -29.6587,0 -53.8779,-24.2021 -53.8779,-53.8607 0,-29.6758 24.2192,-53.8778 53.8779,-53.8778 z"
       style="fill:#ffffff;fill-rule:evenodd"
       id="path11" />
    <path
       d="m 173.4969,126.0738 h -14.5453 c -9.3987,18.6422 -28.7291,31.4834 -50.9515,31.4834 -22.2225,0 -41.553,-12.8412 -50.9515,-31.4834 H 42.5033 c 10.2419,26.1817 35.7693,44.8064 65.4968,44.8064 29.7273,0 55.2548,-18.6247 65.4968,-44.8064 z"
       style="fill:#ffffff;fill-rule:evenodd"
       id="path12" />
    <path
       d="m 74.5717,109.6868 c -0.7745,4.3205 -2.1861,8.4002 -3.7524,13.1511 h 74.3615 c -1.5664,-4.7509 -2.978,-8.8306 -3.7524,-13.1511 z"
       style="fill:#00378b;fill-rule:evenodd"
       id="path13" />
    <path
       d="m 108.0001,59.837 c -7.4534,10.8445 -22.7216,20.1397 -37.1808,21.3791 2.3754,7.2123 4.372,14.2181 4.372,21.4822 0,2.4786 -0.2236,4.768 -0.6196,6.9885 h 66.8567 c -0.3959,-2.2205 -0.6198,-4.5099 -0.6198,-6.9885 0,-7.2641 1.9968,-14.2699 4.3722,-21.4822 C 130.7217,79.9767 115.4534,70.6815 108.0001,59.837 Z"
       style="fill:#e30016;fill-rule:evenodd"
       id="path14" />
    <path
       d="m 70.8193,122.8379 c 14.4592,1.2393 29.7274,11.8599 37.1808,22.7044 7.4533,-10.8445 22.7216,-21.4651 37.1807,-22.7044 z"
       style="fill:#e30016;fill-rule:evenodd"
       id="path15" />
    <path
       d="m 89.7194,121.2543 h 3.7009 l 3.8902,-9.9667 h -3.1156 l -2.2721,6.696 -2.1516,-6.696 h -3.8903 z"
       style="fill:#ffffff;fill-rule:evenodd"
       id="path16" />
    <path
       d="m 103.6106,121.2543 h 9.2092 v -2.324 h -5.6632 v -1.7041 h 4.5961 v -2.1516 h -4.5961 v -1.4632 h 5.5943 v -2.3238 h -9.1403 z"
       style="fill:#ffffff;fill-rule:evenodd"
       id="path17" />
    <path
       d="m 126.625,115.2812 3.4941,-0.1548 c -0.2064,-2.5476 -2.0999,-4.0453 -5.0262,-4.0453 -3.46,0 -5.5944,1.9452 -5.5944,5.2845 0,3.1501 2.2378,5.078 5.5771,5.078 2.8402,0 4.7163,-1.4288 5.0265,-3.8214 l -3.4085,-0.1893 c -0.1375,1.1188 -0.654,1.6697 -1.618,1.6697 -1.2565,0 -1.7557,-0.9124 -1.7557,-2.7543 0,-1.9966 0.5335,-2.9779 1.8246,-2.9779 0.8606,0 1.4632,0.6715 1.4805,1.9108 z"
       style="fill:#ffffff;fill-rule:evenodd"
       id="path18" />
    <path
       d="m 59.3722,145.7316 1.033,1.1015 6.2139,-2.8745 -0.8778,-0.9467 -4.5443,2.2206 2.5648,-4.3379 -1.0845,-1.1532 z"
       style="fill:#1b1918;fill-rule:evenodd"
       id="path19" />
    <path
       d="m 62.5568,149.071 1.1188,1.0672 4.5271,-4.6821 -1.1187,-1.0844 z"
       style="fill:#1b1918;fill-rule:evenodd"
       id="path20" />
    <path
       d="m 64.8461,151.0849 3.3566,2.5992 0.7402,-0.9467 -2.1516,-1.6696 3.2877,-4.1828 -1.2049,-0.9468 z"
       style="fill:#1b1918;fill-rule:evenodd"
       id="path21" />
    <path
       d="m 68.9945,154.4245 1.2739,0.826 1.5147,-2.3411 1.7903,1.1534 -1.5148,2.341 1.2737,0.8435 3.546,-5.4739 -1.2739,-0.8263 -1.377,2.1174 -1.7901,-1.1534 1.377,-2.1344 -1.2738,-0.8262 z"
       style="fill:#1b1918;fill-rule:evenodd"
       id="path22" />
    <path
       d="m 74.3996,157.867 3.9934,2.4099 0.6025,-1.0329 -2.7368,-1.6352 0.8434,-1.4113 2.1689,1.3081 0.5681,-0.9467 -2.169,-1.2912 0.7402,-1.2219 2.6853,1.6179 0.6025,-0.9983 -3.942,-2.3756 z"
       style="fill:#1b1918;fill-rule:evenodd"
       id="path23" />
    <path
       d="m 79.8906,160.8795 1.1534,0.4818 1.7213,-4.3549 0.7918,5.3533 1.2049,0.4991 2.4444,-6.059 -1.1705,-0.4648 -1.5321,3.9075 -0.723,-4.8197 -1.4458,-0.5853 z"
       style="fill:#1b1918;fill-rule:evenodd"
       id="path24" />
    <path
       d="m 88.2391,161.2063 1.4459,-2.0482 -0.086,2.5304 z m -2.7886,1.8592 1.205,0.413 0.9296,-1.3254 1.9278,0.6714 -0.0689,1.618 1.4804,0.5164 0.1548,-6.851 -1.5492,-0.5334 z"
       style="fill:#1b1918;fill-rule:evenodd"
       id="path25" />
    <path
       d="m 94.281,165.6647 4.5787,0.8779 0.2238,-1.1704 -3.1329,-0.6026 0.31,-1.618 2.4786,0.4992 0.2238,-1.0845 -2.4959,-0.4821 0.2753,-1.3941 3.0813,0.6024 0.2238,-1.1534 -4.5271,-0.8778 z"
       style="fill:#1b1918;fill-rule:evenodd"
       id="path26" />
    <path
       d="m 100.409,164.7523 c 0.2237,1.2565 1.1877,2.0657 2.6509,2.2035 1.6352,0.1375 2.7713,-0.6714 2.8745,-1.8248 0.0345,-0.5851 -0.1204,-1.05 -0.4819,-1.3943 -0.4647,-0.4475 -0.9983,-0.6197 -1.6008,-0.8262 -0.878,-0.327 -1.3943,-0.4304 -1.3427,-0.9468 0.0344,-0.413 0.4304,-0.6885 1.0328,-0.6369 0.6025,0.0518 0.9984,0.3787 1.1706,0.964 l 1.3254,-0.2409 c -0.31,-1.0845 -1.119,-1.7384 -2.341,-1.8419 -1.5837,-0.1377 -2.6337,0.6369 -2.737,1.8075 -0.0344,0.4476 0.086,0.8433 0.3787,1.1704 0.4475,0.5164 1.0156,0.6885 1.6525,0.9124 0.9123,0.3269 1.4114,0.4476 1.3598,1.0156 -0.0344,0.4476 -0.482,0.7056 -1.0844,0.654 -0.7918,-0.0689 -1.291,-0.4819 -1.4115,-1.1531 z"
       style="fill:#1b1918;fill-rule:evenodd"
       id="path27" />
    <path
       d="m 106.8983,167.1106 1.4978,-0.0516 -0.0862,-2.4788 1.2393,-0.0516 c 1.4288,-0.0345 2.2893,-0.9124 2.2551,-2.0655 -0.0516,-1.3427 -0.9297,-2.0141 -2.5993,-1.9623 l -2.5303,0.1031 z m 1.377,-3.6321 -0.0686,-1.773 0.9295,-0.0343 c 0.6369,-0.0344 1.0156,0.2925 1.0329,0.8262 0.0342,0.5853 -0.3444,0.9295 -1.0675,0.9467 z"
       style="fill:#1b1918;fill-rule:evenodd"
       id="path28" />
    <path
       d="m 115.9698,166.7146 c 1.7214,-0.2409 2.7197,-1.7211 2.4442,-3.7696 -0.2925,-2.0485 -1.6696,-3.1846 -3.3736,-2.9436 -1.7214,0.2411 -2.7197,1.7041 -2.4272,3.7526 0.2925,2.0655 1.6525,3.2018 3.3566,2.9606 z m -0.155,-1.1876 c -0.809,0.1204 -1.3943,-0.5681 -1.6007,-1.9967 -0.1893,-1.4116 0.1721,-2.2378 0.9811,-2.3583 0.8089,-0.1032 1.3942,0.568 1.6009,1.9967 0.2066,1.4115 -0.1721,2.2551 -0.9813,2.3583 z"
       style="fill:#1b1918;fill-rule:evenodd"
       id="path29" />
    <path
       d="m 121.8222,160.0532 c 0.7058,-0.1723 1.1361,0.0171 1.2738,0.5507 0.1378,0.5165 -0.172,0.9295 -0.8778,1.1016 l -1.0672,0.2755 -0.413,-1.6525 z m -1.2393,5.904 1.4632,-0.3787 -0.6369,-2.5473 1.1188,-0.2756 1.6871,2.2895 1.5663,-0.396 -1.8934,-2.5304 c 0.6712,-0.4648 0.9121,-1.1361 0.7058,-1.945 -0.3101,-1.2222 -1.2569,-1.6352 -2.8575,-1.2395 l -2.737,0.6885 z"
       style="fill:#1b1918;fill-rule:evenodd"
       id="path30" />
    <path
       d="m 127.9158,158.3661 1.4116,-0.5164 -0.4133,-1.1015 -4.2515,1.532 0.413,1.1188 1.4116,-0.5164 1.8246,5.0091 1.4286,-0.5164 z"
       style="fill:#1b1918;fill-rule:evenodd"
       id="path31" />
    <path
       d="m 132.3569,162.5491 4.2172,-1.9624 -0.4992,-1.0845 -2.8917,1.3427 -0.6886,-1.4805 2.2895,-1.0671 -0.4648,-0.9983 -2.3068,1.0671 -0.585,-1.2737 2.8401,-1.3426 -0.4821,-1.0501 -4.1829,1.9451 z"
       style="fill:#1b1918;fill-rule:evenodd"
       id="path32" />
    <path
       d="m 140.9463,153.4948 1.1533,-0.8434 c -0.9467,-1.2222 -2.2032,-1.4977 -3.4427,-0.7573 -1.4802,0.8949 -1.7901,2.599 -0.7228,4.3893 1.0844,1.8245 2.7197,2.3237 4.1999,1.4288 1.2049,-0.7231 1.5836,-1.928 0.9985,-3.3396 l -1.2565,0.6026 c 0.3098,0.7917 0.1893,1.377 -0.3444,1.7041 -0.7401,0.4476 -1.4974,0.0516 -2.2378,-1.2049 -0.7574,-1.2565 -0.7401,-2.1517 -0.0343,-2.582 0.5335,-0.3098 1.1704,-0.1205 1.6868,0.6024 z"
       style="fill:#1b1918;fill-rule:evenodd"
       id="path33" />
    <path
       d="m 145.5594,155.4055 3.4255,-2.4961 -0.7057,-0.981 -2.186,1.6009 -3.133,-4.3033 -1.2393,0.8951 z"
       style="fill:#1b1918;fill-rule:evenodd"
       id="path34" />
    <path
       d="m 145.3358,147.453 2.7886,3.2189 c 0.413,0.4818 0.7916,0.7746 1.1533,0.8778 0.7574,0.1894 1.5318,-0.0516 2.2892,-0.6884 1.2395,-1.0846 1.36,-2.2379 0.3271,-3.4256 l -2.8229,-3.2361 -0.9124,0.7919 2.7542,3.1673 c 0.5508,0.6196 0.5335,1.2047 -0.0172,1.6696 -0.5854,0.5164 -1.1018,0.4475 -1.6525,-0.1894 l -2.754,-3.1846 z"
       style="fill:#1b1918;fill-rule:evenodd"
       id="path35" />
    <path
       d="m 152.9958,143.9586 -1.1191,-1.0328 0.8092,-0.8606 c 0.3958,-0.4303 0.809,-0.4821 1.1534,-0.1721 0.3614,0.3442 0.3441,0.7745 -0.0689,1.222 z m 2.0138,1.8762 -1.2222,-1.1533 0.7747,-0.826 c 0.4819,-0.5165 0.964,-0.5853 1.377,-0.2066 0.3787,0.3441 0.3444,0.8262 -0.1205,1.3081 z m -0.1377,1.8246 1.9451,-2.0828 c 1.0156,-1.1188 1.1017,-2.1171 0.2755,-2.8918 -0.6369,-0.6024 -1.3255,-0.6541 -2.0829,-0.172 0.3444,-0.6542 0.241,-1.3084 -0.3097,-1.8076 -0.7574,-0.7058 -1.7041,-0.6023 -2.6336,0.3787 l -1.9626,2.1173 z"
       style="fill:#1b1918;fill-rule:evenodd"
       id="path36" />
    <path
       d="m 106.7779,89.3407 c 2.5649,0 4.682,2.1001 4.682,4.6992 0,2.5821 -2.1171,4.6993 -4.682,4.6993 -2.5819,0 -4.6992,-2.1172 -4.6992,-4.6993 0,-2.5991 2.1173,-4.6992 4.6992,-4.6992 z"
       style="fill:#ffffff;fill-rule:evenodd"
       id="path37" />
    <path
       d="m 105.1942,108.8777 h 5.6118 l -2.8059,-2.8057 -5.9387,-5.9385 h -5.6459 z"
       style="fill:#ffffff;fill-rule:evenodd"
       id="path38" />
    <path
       d="m 112.4927,107.2081 -2.8058,-2.823 4.2517,-4.2516 h 5.646 z"
       style="fill:#ffffff;fill-rule:evenodd"
       id="path39" />
  </g>
</svg>
