<?xml version="1.0" encoding="UTF-8" standalone="no"?>
<svg
   version="1.1"
   width="1.529449in"
   height="1.5347196in"
   viewBox="0 0 110.12033 110.49981"
   id="svg23"
   sodipodi:docname="vitoria.cdr"
   xmlns:inkscape="http://www.inkscape.org/namespaces/inkscape"
   xmlns:sodipodi="http://sodipodi.sourceforge.net/DTD/sodipodi-0.dtd"
   xmlns="http://www.w3.org/2000/svg"
   xmlns:svg="http://www.w3.org/2000/svg">
  <defs
     id="defs23" />
  <sodipodi:namedview
     id="namedview23"
     pagecolor="#ffffff"
     bordercolor="#000000"
     borderopacity="0.25"
     inkscape:showpageshadow="2"
     inkscape:pageopacity="0.0"
     inkscape:pagecheckerboard="0"
     inkscape:deskcolor="#d1d1d1"
     inkscape:document-units="in" />
  <g
     id="Layer1003"
     transform="matrix(1,0,0,0.86110687,-52.939407,-37.749547)">
    <path
       d="M 102.2402,50.0215 C 89.8986,63.4117 75.6328,71.3368 59.8388,73.5764 l -6.2609,0.8879 -0.4447,6.3079 c -0.7236,10.2639 0.5876,21.1783 3.792,31.5632 l 0.0522,0.1765 c 7.7207,25.0094 25.0251,46.0571 47.4744,57.7421 l 3.6731,1.9074 3.6663,-1.9037 c 22.4588,-11.6899 39.7631,-32.7379 47.4829,-57.7505 l 0.067,-0.2175 0.006,-0.0462 c 3.0246,-10.246 4.2367,-21.1291 3.5053,-31.4727 l -0.4459,-6.3065 -6.2596,-0.8877 C 140.404,71.3436 126.5181,63.6212 113.6957,49.9679 l -5.7565,-6.1295 z"
       style="fill:#1b1918;fill-rule:evenodd"
       id="path10" />
    <path
       d="M 104.4527,52.0609 C 91.6286,65.9746 76.7604,74.2158 60.2613,76.5558 l -3.8528,0.5463 -0.2739,3.882 c -0.6974,9.8966 0.5701,20.4308 3.6659,30.4638 l 0.0515,0.1747 c 7.4857,24.2477 24.2484,44.6461 45.9889,55.9622 l 2.284,1.186 2.2798,-1.1836 c 21.7474,-11.3196 38.5098,-31.7181 45.9941,-55.9674 l 0.0616,-0.1999 9e-4,-0.0284 c 2.9238,-9.9046 4.0959,-20.4198 3.3897,-30.4086 l -0.2743,-3.8808 -3.8521,-0.5463 C 139.2771,74.2231 124.8119,66.1998 111.5023,52.0279 l -3.5424,-3.7721 z"
       style="fill:#ffffff;fill-rule:evenodd"
       id="path11" />
    <path
       d="M 151.672,110.0285 H 64.3985 l 0.053,0.1713 c 7.1094,23.0291 23.0056,42.3885 43.6124,53.1146 l 0.061,0.0317 0.0612,-0.0317 c 20.6092,-10.7273 36.5052,-30.0867 43.6124,-53.1146 l 0.0529,-0.1713 z"
       style="fill:#1b1918;fill-rule:evenodd"
       id="path12" />
    <path
       d="m 151.8009,110.1792 c 2.8597,-9.6195 3.8999,-19.6285 3.2476,-28.8566 C 137.6325,78.8523 122.0326,70.273 107.9928,55.3237 94.2142,70.273 78.355,78.8523 60.9374,81.3226 c -0.6507,9.2281 0.52,19.2371 3.5085,28.8566 z"
       style="fill:#e41e15;fill-rule:evenodd"
       id="path13" />
    <g
       id="Layer1004">
      <path
         d="m 73.9425,84.5719 10.0093,-5.1993 c -0.1304,3.1188 0.259,6.8883 1.6891,9.8786 l 9.75,21.0584 v 11.8305 L 80.8311,91.8519 c -1.43,-2.8598 -4.4202,-4.9403 -6.8886,-7.28 z"
         style="fill:#ffffff;fill-rule:evenodd"
         id="path14" />
      <path
         d="m 143.097,85.4816 -10.011,-5.1993 c 0.1305,3.1188 -0.3878,6.8883 -1.689,9.8786 l -15.6,35.2269 6.111,-0.9098 14.2988,-31.7164 c 1.3011,-2.8598 4.4218,-4.9403 6.8902,-7.28 z"
         style="fill:#ffffff;fill-rule:evenodd"
         id="path15" />
      <path
         d="m 94.4811,144.2354 h 8.9688 v -30.9355 h 9.3587 c 1.9517,0 3.1189,2.4683 4.5505,3.7695 l 0.1305,-12.7401 c -1.5621,1.1707 -2.6024,3.3799 -4.5507,3.3799 h -9.3585 l -0.1305,-12.608 -5.9804,1.8195 v 42.2475 c 0,1.95 -1.95,3.3781 -2.9884,5.0672 z"
         style="fill:#ffffff;fill-rule:evenodd"
         id="path16" />
      <path
         d="m 97.5999,87.4316 v -8.5793 c 0,-1.95 -1.8195,-3.3797 -2.9902,-4.9402 h 27.8201 v 8.5793 c -2.2109,-1.4298 -4.0304,-4.0286 -6.5023,-4.0286 h -12.3471 v 7.7981 z"
         style="fill:#ffffff;fill-rule:evenodd"
         id="path17" />
      <path
         d="m 116.5798,144.3658 h 9.2281 v -8.5793 c -0.3914,0.3915 -0.6488,3.9001 -7.4085,3.9001 z"
         style="fill:#ffffff;fill-rule:evenodd"
         id="path18" />
      <path
         d="m 105.5287,136.3085 v 8.4488 l 4.4201,8.7097 8.581,-19.3695 -5.3316,0.1305 -3.8983,9.8805 z"
         style="fill:#ffffff;fill-rule:evenodd"
         id="path19" />
      <path
         d="m 95.3909,124.478 c -7.1496,-3.1207 -13.7788,-8.3184 -18.4598,-14.2988 1.4298,-2.9902 4.2896,-5.9786 6.7598,-7.4085 l -2.8598,-5.1993 c -3.5086,2.5988 -7.28,5.4586 -8.9691,9.3586 -0.6504,1.4296 -1.8195,2.4699 -2.9902,3.2492 1.1707,0.6507 1.95,0.52 3.1207,2.2109 5.7196,8.1879 14.4276,14.5598 23.3984,17.8074 0,-2.2109 0,-3.5086 0,-5.7195 z"
         style="fill:#ffffff;fill-rule:evenodd"
         id="path20" />
      <path
         d="m 89.0206,92.2414 2.6007,5.069 c 11.9591,-5.33 23.6573,-5.4585 34.4476,-1.43 l 2.0804,-4.5488 c -11.6999,-5.0707 -25.9987,-4.6809 -39.1287,0.9098 z"
         style="fill:#ffffff;fill-rule:evenodd"
         id="path21" />
      <path
         d="m 136.8556,95.7499 -1.9465,4.5507 3.6391,1.8196 c 1.0402,0.3895 1.4281,1.8195 2.0804,2.7293 l 3.2477,-7.1496 c -1.1708,0 -2.4684,0.5203 -3.5086,0 z"
         style="fill:#ffffff;fill-rule:evenodd"
         id="path22" />
      <path
         d="m 105.3999,126.428 v 4.9402 c 13.1299,2.8598 25.4788,-1.0402 36.9178,-7.7999 l -3.3817,-5.0708 c -8.0573,6.8903 -21.8378,10.2719 -33.5361,7.9305 z"
         style="fill:#ffffff;fill-rule:evenodd"
         id="path23" />
    </g>
  </g>
</svg>
