<?xml version="1.0" encoding="UTF-8" standalone="no"?>
<svg
   version="1.1"
   width="1.4246656in"
   height="1.9218805in"
   viewBox="0 0 102.57592 138.37539"
   id="svg24"
   sodipodi:docname="vitoria_fc_es.cdr"
   xmlns:inkscape="http://www.inkscape.org/namespaces/inkscape"
   xmlns:sodipodi="http://sodipodi.sourceforge.net/DTD/sodipodi-0.dtd"
   xmlns="http://www.w3.org/2000/svg"
   xmlns:svg="http://www.w3.org/2000/svg">
  <defs
     id="defs24" />
  <sodipodi:namedview
     id="namedview24"
     pagecolor="#ffffff"
     bordercolor="#000000"
     borderopacity="0.25"
     inkscape:showpageshadow="2"
     inkscape:pageopacity="0.0"
     inkscape:pagecheckerboard="0"
     inkscape:deskcolor="#d1d1d1"
     inkscape:document-units="in" />
  <g
     id="Layer1003"
     transform="translate(-56.71188,-38.812302)">
    <path
       d="M 107.9997,38.8123 C 101.3042,52.5902 95.3642,55.1207 81.9028,56.052 76.2089,67.4751 68.8982,69.7597 57.2117,69.7948 c -1.7574,20.2098 0.9315,40.5777 11.0714,60.5413 9.8764,19.1555 23.5488,33.6889 39.7166,46.8516 16.1678,-13.1627 29.8403,-27.6961 39.7165,-46.8516 10.14,-19.9636 12.8292,-40.3315 11.0718,-60.5413 C 147.1013,69.7597 139.7906,67.4751 134.0968,56.052 120.6353,55.1207 114.6951,52.5902 107.9997,38.8123 Z"
       style="fill:#102a83;fill-rule:evenodd"
       id="path10" />
    <path
       d="M 107.9997,44.559 C 102.0599,55.2965 94.1164,58.0204 83.6075,58.7058 78.1243,69.0919 69.9526,72.3431 59.795,72.5012 c -1.3883,19.3487 1.9331,38.8378 10.9309,56.5873 9.1559,17.7144 22.0725,31.9138 37.2738,44.5144 15.2016,-12.6006 28.1182,-26.8 37.2737,-44.5144 8.998,-17.7495 12.3195,-37.2386 10.9312,-56.5873 C 146.0468,72.3431 137.8749,69.0919 132.392,58.7058 121.8831,58.0204 113.9396,55.2965 107.9997,44.559 Z"
       style="fill:#ffffff;fill-rule:evenodd"
       id="path11" />
    <path
       d="m 107.9997,74.7857 c 15.4122,0 27.9776,12.5829 27.9776,27.995 0,15.3947 -12.5654,27.9597 -27.9776,27.9597 -15.4121,0 -27.9773,-12.565 -27.9773,-27.9597 0,-15.4121 12.5652,-27.995 27.9773,-27.995 z"
       style="fill:#102a83;fill-rule:evenodd"
       id="path12" />
    <path
       d="m 107.9997,76.8594 c 14.2698,0 25.9038,11.6339 25.9038,25.9213 0,14.2523 -11.634,25.9037 -25.9038,25.9037 -14.2699,0 -25.9035,-11.6514 -25.9035,-25.9037 0,-14.2874 11.6336,-25.9213 25.9035,-25.9213 z"
       style="fill:#ffffff;fill-rule:evenodd"
       id="path13" />
    <path
       d="m 77.9662,102.7807 c 0,-2.9348 0.4218,-5.7818 1.2126,-8.4705 L 61.3767,77.4219 c -0.4219,14.2522 1.81,28.4341 6.8362,41.5267 l 10.4212,-9.8941 c -0.4395,-2.0034 -0.6679,-4.1123 -0.6679,-6.2738 z"
       style="fill:#102a83;fill-rule:evenodd"
       id="path14" />
    <path
       d="m 94.4855,75.9632 -12.284,-11.669 c -4.0069,5.2018 -9.3492,8.4354 -16.572,9.5778 L 81.4107,88.8447 C 84.3104,83.309 88.8971,78.7925 94.4855,75.9632 Z"
       style="fill:#102a83;fill-rule:evenodd"
       id="path15" />
    <path
       d="m 107.9997,72.7296 c 2.7063,0 5.3249,0.3691 7.8204,1.0369 L 129.967,60.3402 c -9.5602,-0.949 -16.5544,-4.1123 -21.9673,-12.2489 -5.4128,8.1366 -12.407,11.2999 -21.9671,12.2489 l 14.1469,13.4263 c 2.4953,-0.6678 5.1138,-1.0369 7.8202,-1.0369 z"
       style="fill:#102a83;fill-rule:evenodd"
       id="path16" />
    <path
       d="M 134.5885,88.8447 150.3702,73.872 c -7.2228,-1.1424 -12.5654,-4.376 -16.572,-9.5778 l -12.2842,11.669 c 5.5885,2.8293 10.1752,7.3458 13.0745,12.8815 z"
       style="fill:#102a83;fill-rule:evenodd"
       id="path17" />
    <path
       d="m 154.6226,77.4219 -17.8019,16.8883 c 0.7908,2.6887 1.2126,5.5357 1.2126,8.4705 0,2.1615 -0.2285,4.2704 -0.6681,6.2738 l 10.4216,9.8941 c 5.0257,-13.0926 7.2579,-27.2745 6.8358,-41.5267 z"
       style="fill:#102a83;fill-rule:evenodd"
       id="path18" />
    <path
       d="m 123.3066,128.5963 12.8461,12.1963 c 2.7592,-4.0244 5.2547,-8.1895 7.4865,-12.5477 0.6502,-1.2654 1.2656,-2.5658 1.8627,-3.866 l -10.0168,-9.525 c -2.5482,5.7465 -6.8363,10.5443 -12.1785,13.7424 z"
       style="fill:#102a83;fill-rule:evenodd"
       id="path19" />
    <path
       d="m 107.9997,132.8141 c -3.4796,0 -6.8186,-0.6149 -9.9467,-1.7047 l -14.9728,14.1997 c 7.1701,9.5602 15.6933,18.1536 24.9195,25.9037 9.2262,-7.7501 17.7493,-16.3435 24.9194,-25.9037 l -14.9726,-14.1997 c -3.1282,1.0898 -6.4671,1.7047 -9.9468,1.7047 z"
       style="fill:#102a83;fill-rule:evenodd"
       id="path20" />
    <path
       d="m 80.5144,114.8539 -10.0169,9.525 c 0.5974,1.3002 1.2125,2.6006 1.8628,3.866 2.2318,4.3582 4.7274,8.5233 7.4863,12.5477 l 12.864,-12.1963 c -5.3599,-3.1981 -9.6479,-7.9959 -12.1962,-13.7424 z"
       style="fill:#102a83;fill-rule:evenodd"
       id="path21" />
    <path
       d="m 126.8562,96.9989 3.9365,-1.195 c -1.1072,-3.6027 -3.0226,-6.8363 -5.5707,-9.4897 -4.78,4.0418 -7.8203,10.0871 -7.8203,16.4665 0,6.3615 3.0403,12.3894 7.8203,16.4314 2.5481,-2.6535 4.4635,-5.8871 5.5707,-9.4724 l -3.9365,-1.2125 c -0.4744,1.5465 -1.142,3.0052 -1.9506,4.3582 -2.1265,-2.8998 -3.3742,-6.3616 -3.3742,-10.1047 0,-3.7432 1.2477,-7.2404 3.3742,-10.1225 0.8086,1.3532 1.4762,2.8118 1.9506,4.3407 z"
       style="fill:#102a83;fill-rule:evenodd"
       id="path22" />
    <path
       d="m 119.2291,86.5601 v -4.8152 c -3.8481,-2.056 -8.1362,-2.9699 -12.3716,-2.7766 v 47.5897 c 1.3709,0.0701 2.7414,0.0174 4.1122,-0.1584 V 100.25 h 4.8151 v -4.1298 h -4.8151 V 83.2914 c 2.9172,0.4395 5.7465,1.529 8.2594,3.2687 z"
       style="fill:#102a83;fill-rule:evenodd"
       id="path23" />
    <path
       d="m 97.227,86.279 v -4.7625 c -7.75,3.9365 -13.0748,12.0028 -13.0748,21.2642 0,11.7918 8.6639,21.633 19.9638,23.5136 V 79.2494 c -1.4235,0.2285 -2.8118,0.5976 -4.1298,1.0721 v 40.4545 c -6.889,-3.0928 -11.7042,-10.017 -11.7042,-17.9953 0,-6.889 3.5675,-12.9695 8.945,-16.5017 z"
       style="fill:#102a83;fill-rule:evenodd"
       id="path24" />
  </g>
</svg>
